<svg viewBox="0 0 600 1200" xmlns="http://www.w3.org/2000/svg" fill-rule="evenodd" clip-rule="evenodd" stroke-linecap="round" stroke-linejoin="round" stroke-miterlimit="1.414"><g stroke="#000" stroke-width="14"><path d="M488.247 961.222c-129.529-32.547-242.496-33.92-378.982-.575-27.826 109.123 15.79 187.524 15.79 187.524 78.994 52.341 281.562 53.044 353.576-.03 0 0 40.864-84.58 9.616-186.919z" fill="url(#a)"/><path d="M523.974 621.84c-45.248-54.878-400.731-66.506-449-.029-71.09 97.909-38.732 289.892-37 293.47 23.479 48.484 135.179 76.738 251.945 79.072 164.941 3.297 269.827-56.564 273.793-79.113 10.883-61.868 16.838-224.785-39.738-293.4z" fill="url(#b)"/><path d="M172.253 518.49c-45.297-5.04-107.68 26.533-103.272 37.551 2.013 5.034 31.063 9.682 31.063 9.682s-26.185 17.278-13.268 31.995c28.604 32.589 82.019 6.528 85.477 13.488 12.652 25.461 86.565 29.018 114.474 15.587 30.945-14.893 40-15.91 54.387-15.587 15.948.357 31.764 19.353 62.594 15.587 23.139-2.827 26.153-14.824 59.273-7.706 33.211 7.137 47.56 2.739 50.29-7.881 4.279-16.645-18.543-39.433-18.543-39.433s28.012.384 36.02-15.732c4.885-9.833-26.95-30.372-77.342-37.551" fill="url(#c)"/><path d="M88.161 391.738C-81.744 201.219 147.876 1.493 300.497 68.244c21.578 9.437 123.412-70.576 215.942 19.442 97.876 95.218 37.113 188.495 20.84 194.738" fill="url(#d)"/><path d="M135.247 217.792c-1.986 2.052-4.052 4.012-5.771 6.234-107.616 139.038-1.108 339.316 170.847 341.312 289.334 3.36 258.331-300.621 205.866-341.505-4.043-3.15-36.094 32.114-76.394 35.256-52.374 4.084-91.662-32.268-91.706-32.191-16.761 29.26-90.12 41.294-119.578 35.723-53.805-10.177-80.001-45.426-83.264-44.829z" fill="url(#e)"/><path d="M271.637 385.572c17.256-27.227 69.649-19.503 86.13-3.541M213.066 468.104c10.484-17.014 22.464-28.162 38.784-33.747M235.555 450.652c48.613 45.579 133.717 25.518 153.721 1.933M380.098 429.837c9.705 11.543 13.047 21.941 9.178 44.439" fill="none"/><ellipse cx="221.847" cy="317.579" rx="20.928" ry="27.361"/><ellipse cx="401.004" cy="317.579" rx="20.928" ry="27.361"/></g><defs><radialGradient id="a" cx="0" cy="0" r="1" gradientUnits="userSpaceOnUse" gradientTransform="matrix(394.02 -168.449 99.5256 232.801 121.021 1127.4)"><stop offset="0%" stop-color="#d3799a"/><stop offset="100%" stop-color="#c24774"/></radialGradient><radialGradient id="b" cx="0" cy="0" r="1" gradientUnits="userSpaceOnUse" gradientTransform="matrix(512.457 -300.001 129.442 414.61 61.33 894.287)"><stop offset="0%" stop-color="#d3799a"/><stop offset="100%" stop-color="#c24774"/></radialGradient><radialGradient id="c" cx="0" cy="0" r="1" gradientUnits="userSpaceOnUse" gradientTransform="matrix(415.411 -77.8592 104.929 107.604 96.026 608.143)"><stop offset="0%" stop-color="#cda3ca"/><stop offset="100%" stop-color="#b87db4"/></radialGradient><radialGradient id="d" cx="0" cy="0" r="1" gradientUnits="userSpaceOnUse" gradientTransform="matrix(517.669 -235.359 130.758 325.273 53.593 318.038)"><stop offset="0%" stop-color="#a75216"/><stop offset="100%" stop-color="#854000"/></radialGradient><radialGradient id="e" cx="0" cy="0" r="1" gradientUnits="userSpaceOnUse" gradientTransform="matrix(466.155 -236.194 117.746 326.426 88.16 492.339)"><stop offset="0%" stop-color="#ffd9b8"/><stop offset="100%" stop-color="#ffcd9e"/></radialGradient></defs></svg>