<svg viewBox="0 0 1000 1200" xmlns="http://www.w3.org/2000/svg" fill-rule="evenodd" clip-rule="evenodd" stroke-linecap="round" stroke-linejoin="round" stroke-miterlimit="1.414"><path d="M910.013 89.362L90 89.4l-.013 1021.24h820.026V89.36z" fill="#fff" stroke="#000" stroke-width="14"/><path d="M241.875 593.696l-22.917-54.536-22.626 54.536h45.543zm-85.478 50.861v-3.578c5.093-.58 8.912-2.514 11.459-5.802 2.546-3.287 6.913-12.215 13.102-26.784l41.288-97.178h3.868l49.314 112.262c3.287 7.478 5.914 12.103 7.88 13.876 1.967 1.773 5.27 2.981 9.912 3.626v3.578h-50.378v-3.578c5.802-.516 9.54-1.144 11.216-1.886 1.676-.741 2.514-2.562 2.514-5.463 0-.967-.322-2.675-.966-5.125-.645-2.449-1.548-5.028-2.708-7.735l-8.219-19.049h-51.828c-5.157 12.957-8.235 20.87-9.234 23.739-.999 2.868-1.499 5.14-1.499 6.817 0 3.352 1.354 5.672 4.061 6.961 1.676.774 4.835 1.354 9.476 1.741v3.578h-39.258zM339.584 635.661c1.58 1.031 4.851 1.547 9.815 1.547 15.471 0 28.202-3.062 38.194-9.186 15.342-9.412 23.013-25.495 23.013-48.25 0-20.306-6.317-35.584-18.952-45.833-10.83-8.767-25.173-13.151-43.029-13.151-4.448 0-7.461.484-9.041 1.451-1.579.966-2.369 3.094-2.369 6.381v100.659c0 3.223.79 5.35 2.369 6.382zm-39.886 5.318c7.22-.774 11.926-2.079 14.117-3.916 2.192-1.837 3.288-6.495 3.288-13.972v-88.089c0-7.22-1.064-11.861-3.191-13.924-2.127-2.063-6.865-3.352-14.214-3.868v-3.674h53.375c17.985 0 33.199 2.965 45.64 8.896 22.433 10.636 33.649 29.653 33.649 57.049 0 9.863-2.014 19.243-6.043 28.138-4.029 8.896-10.104 16.406-18.227 22.53-5.157 3.868-10.507 6.801-16.051 8.799-10.121 3.739-22.562 5.609-37.324 5.609h-55.019v-3.578zM527.896 593.696L504.98 539.16l-22.627 54.536h45.543zm-85.477 50.861v-3.578c5.092-.58 8.912-2.514 11.458-5.802 2.546-3.287 6.914-12.215 13.102-26.784l41.288-97.178h3.868l49.314 112.262c3.288 7.478 5.915 12.103 7.881 13.876 1.966 1.773 5.27 2.981 9.911 3.626v3.578h-50.378v-3.578c5.802-.516 9.541-1.144 11.217-1.886 1.676-.741 2.514-2.562 2.514-5.463 0-.967-.323-2.675-.967-5.125-.645-2.449-1.547-5.028-2.708-7.735l-8.219-19.049h-51.828c-5.157 12.957-8.235 20.87-9.234 23.739-.999 2.868-1.499 5.14-1.499 6.817 0 3.352 1.354 5.672 4.061 6.961 1.676.774 4.835 1.354 9.476 1.741v3.578h-39.257zM586.396 513.536h111.875l1.064 33.65h-4.738c-2.321-10.572-5.27-17.454-8.848-20.645-3.577-3.19-11.103-4.786-22.578-4.786h-11.023v101.336c0 7.671 1.193 12.425 3.578 14.262 2.385 1.837 7.607 3.046 15.664 3.626v3.578h-57.726v-3.578c8.38-.645 13.602-2.031 15.664-4.158 2.063-2.127 3.095-7.478 3.095-16.051v-99.015H621.4c-10.959 0-18.421 1.579-22.385 4.738-3.965 3.159-6.946 10.056-8.944 20.693h-4.835l1.16-33.65zM791.871 593.696l-22.916-54.536-22.627 54.536h45.543zm-85.477 50.861v-3.578c5.092-.58 8.912-2.514 11.458-5.802 2.546-3.287 6.914-12.215 13.102-26.784l41.288-97.178h3.868l49.314 112.262c3.288 7.478 5.915 12.103 7.881 13.876 1.966 1.773 5.27 2.981 9.911 3.626v3.578h-50.378v-3.578c5.802-.516 9.541-1.144 11.217-1.886 1.676-.741 2.514-2.562 2.514-5.463 0-.967-.322-2.675-.967-5.125-.645-2.449-1.547-5.028-2.708-7.735l-8.219-19.049h-51.828c-5.157 12.957-8.235 20.87-9.234 23.739-.999 2.868-1.499 5.14-1.499 6.817 0 3.352 1.354 5.672 4.061 6.961 1.677.774 4.835 1.354 9.477 1.741v3.578h-39.258z" fill-rule="nonzero"/><path d="M168.085 239.637h663.83M168.085 328.313h663.83M168.085 834.445h663.83M168.085 925h663.83M168.085 1017.67h663.83M168.085 154.218h663.83" fill="none" stroke="#000" stroke-width="11"/></svg>