<svg viewBox="0 0 600 1200" xmlns="http://www.w3.org/2000/svg" fill-rule="evenodd" clip-rule="evenodd" stroke-linecap="round" stroke-linejoin="round" stroke-miterlimit="1"><g stroke="#000" stroke-width="14"><path d="M129.503 959.475c-13.219 66.001 3.366 190.41 14.399 194.51 131.638 48.926 274.445 38.048 352.217-5.16 9.178-5.099 22.651-85.02 14.806-191.914-122.754 45.95-240.303 46.283-381.422 2.564z" fill="url(#a)"/><path d="M177.997 603.316C163.4 598.082 56 629.808 49.638 658.24c-14.091 62.971-9.247 253.201 21.721 272.042 87.073 52.976 299.236 100.929 474.011 8.308 9.63-5.103 35.284-143.75 18.683-285.63-2.051-17.534-153.404-60.944-165.573-52.96l-220.483 3.316z" fill="url(#b)"/><path d="M481.826 306.957c-16.882 22.738-345.343 9.837-350.021 15.728-12.957 16.317-63.079 318.258 163.316 324.81 264.684 7.66 194.909-351.588 186.705-340.538z" fill="url(#c)"/><path d="M26.321 244.339c-9.422 1.695-3.68 74.658 138.149 119.504 186.954 59.115 406.062-50.058 423.699-161.545.793-5.013-9.8-4.772-26.63-2.163-35.169 5.451-70.84 22.233-70.997 18.064C478.853-92.116 311.054 53.81 296.607 56.186c-8.429 1.386-28.473-33.91-71.056-28.655-122.698 15.143-91.813 212.808-95.239 212.912-22.761.688-54.907-4.938-103.991 3.896z" fill="url(#d)"/><path d="M388.813 404.132c14.132.129 25.476 14.315 25.318 31.658-.159 17.344-11.761 31.32-25.893 31.191-14.132-.129-25.476-14.315-25.318-31.659.159-17.344 11.761-31.319 25.893-31.19zM218.176 404.131c14.132-.113 25.719 13.875 25.859 31.219.14 17.344-11.22 31.517-25.352 31.631-14.132.114-25.719-13.874-25.859-31.218-.14-17.344 11.22-31.518 25.352-31.632z" stroke-miterlimit="1.414"/><path d="M269.399 492.059c9.401-10.871 32.981-33.859 63.263-6.015" fill="none"/><path d="M301.834 542.737c43.497.005 72.707 33.003 72.707 33.003s-32.263-18.094-72.707-17.813c-40.445.281-74.106 21.027-73.534 20.237 8.76-12.115 30.037-35.431 73.534-35.427z" stroke-miterlimit="1.414"/><path d="M51.781 653.17c85.344 46.954 184.366 74.643 262.959 71.331 143.28-6.04 221.746-55.362 242.671-70.397" fill="none"/><path d="M310.437 48.645c-13.866 8.344-31.692 19.34-55.016 44.002M588.187 200.135c-17.179 25.885-115.893 85.038-156.764 90.218M490.43 212.671c-.142 12.4.054 33.203-3.158 51.712M130.652 238.527c0 6.64 3.083 22.064 3.816 25.856" fill="none" stroke-miterlimit="1.414"/></g><defs><radialGradient id="a" cx="0" cy="0" r="1" gradientUnits="userSpaceOnUse" gradientTransform="matrix(343.263 -322.889 260.567 177.106 435.584 1049.84)"><stop offset="0%" stop-color="#2531dc"/><stop offset="100%" stop-color="#969bee"/></radialGradient><radialGradient id="b" cx="0" cy="0" r="1" gradientUnits="userSpaceOnUse" gradientTransform="matrix(559.906 -349.895 260.012 416.073 468.819 760.223)"><stop offset="0%" stop-color="#2531dc"/><stop offset="100%" stop-color="#969bee"/></radialGradient><linearGradient id="c" x2="1" gradientUnits="userSpaceOnUse" gradientTransform="scale(478.73) rotate(-31.346 2.183 .169)"><stop offset="0%" stop-color="#dbbb9c"/><stop offset="56%" stop-color="#d0a67c"/><stop offset="100%" stop-color="#cb9d6e"/></linearGradient><radialGradient id="d" cx="0" cy="0" r="1" gradientUnits="userSpaceOnUse" gradientTransform="matrix(-410.417 230.957 -146.678 -260.651 477.781 94.433)"><stop offset="0%" stop-color="#d7c447"/><stop offset="100%" stop-color="#e6d38c"/></radialGradient></defs></svg>