<svg viewBox="0 0 956 1200" xmlns="http://www.w3.org/2000/svg" fill-rule="evenodd" clip-rule="evenodd" stroke-linecap="round" stroke-linejoin="round" stroke-miterlimit="1.414"><path d="M844.081 9.52l-833.912.039-.012 1038.55h833.924V9.519z" fill="#fff" stroke="#000" stroke-width="14.24"/><g fill-rule="nonzero"><path d="M111.362 150.74h-9.193l-27.24-53.16v53.16h-7.66V89.093H78.9l24.802 48.813V89.094h7.66v61.645zM149.081 139.356v-12.832c-1.851.162-4.19.388-7.016.678-2.834.29-5.116.7-6.855 1.222-2.07.636-3.78 1.611-5.137 2.919-1.35 1.314-2.028 3.144-2.028 5.49 0 2.65.75 4.65 2.24 6 1.491 1.356 3.668 2.027 6.537 2.027 2.459 0 4.684-.53 6.67-1.59a29.087 29.087 0 0 0 5.59-3.914zm0 6.458c-.636.467-1.484 1.124-2.55 1.965-1.06.848-2.085 1.512-3.081 2.013-1.378.714-2.714 1.265-3.993 1.654-1.286.389-3.088.58-5.405.58a13.951 13.951 0 0 1-9.935-4.099c-1.244-1.272-2.24-2.834-2.982-4.699-.75-1.865-1.117-3.83-1.117-5.9 0-3.201.671-5.929 2.028-8.176 1.35-2.254 3.49-4.042 6.416-5.363 2.594-1.187 5.66-2.007 9.193-2.466a156.04 156.04 0 0 1 11.426-1.01v-1.492c0-1.823-.275-3.292-.826-4.409-.559-1.116-1.329-1.986-2.325-2.586-.99-.636-2.205-1.06-3.64-1.265a31.294 31.294 0 0 0-4.43-.31c-1.795 0-3.907.268-6.338.805-2.424.537-4.855 1.321-7.285 2.339h-.453v-7.907c1.435-.417 3.491-.87 6.17-1.364a43.092 43.092 0 0 1 7.949-.75c3.172 0 5.85.248 8.027.75a15.437 15.437 0 0 1 5.886 2.692c1.682 1.265 2.94 2.911 3.766 4.925.827 2.014 1.244 4.473 1.244 7.37v31.628h-7.745v-4.925zM220.252 150.74v-26.746c0-2.127-.085-4.091-.247-5.9-.17-1.81-.51-3.223-1.04-4.24-.55-1.11-1.335-1.922-2.36-2.445-1.017-.523-2.395-.784-4.133-.784-1.604 0-3.321.487-5.158 1.47-1.837.975-3.731 2.388-5.696 4.24.029.473.064 1.03.106 1.674.043.65.064 1.42.064 2.303v30.427h-7.787v-26.745c0-2.127-.078-4.091-.247-5.9-.163-1.81-.509-3.223-1.032-4.24-.558-1.11-1.342-1.922-2.36-2.445-1.025-.523-2.402-.784-4.14-.784-1.69 0-3.456.523-5.3 1.568-1.852 1.053-3.647 2.389-5.385 4.021v34.525h-7.787v-46.248h7.787v5.137c2.042-2.042 4.063-3.625 6.063-4.741 2.007-1.117 4.204-1.675 6.607-1.675 2.734 0 5.151.622 7.264 1.859 2.113 1.243 3.724 3.285 4.826 6.133 2.346-2.622 4.635-4.614 6.875-5.964 2.233-1.357 4.664-2.028 7.286-2.028 1.985 0 3.794.311 5.42.933 1.632.615 3.052 1.618 4.267 2.996 1.244 1.413 2.198 3.166 2.876 5.264.679 2.092 1.018 4.728 1.018 7.907v30.427h-7.787zM259.045 151.82c-7.37 0-13.086-2.077-17.156-6.232-4.078-4.155-6.113-10.055-6.113-17.7 0-7.533 1.979-13.532 5.922-17.991 3.95-4.459 9.108-6.685 15.489-6.685 2.869 0 5.406.41 7.617 1.244 2.205.827 4.141 2.12 5.794 3.886 1.654 1.767 2.926 3.929 3.81 6.48.882 2.558 1.328 5.681 1.328 9.377v4.225h-32.053c0 5.385 1.357 9.497 4.063 12.338 2.707 2.848 6.445 4.268 11.222 4.268 1.71 0 3.384-.198 5.03-.58 1.64-.388 3.124-.883 4.445-1.49 1.414-.636 2.6-1.251 3.562-1.845.968-.593 1.766-1.152 2.402-1.674h.46v8.486l-3.4 1.343c-1.349.537-2.564.96-3.646 1.264-1.512.417-2.89.735-4.12.954-1.222.22-2.776.332-4.656.332zm9.109-29.36c-.05-2.098-.304-3.9-.742-5.42-.446-1.519-1.074-2.805-1.908-3.85-.912-1.16-2.078-2.042-3.498-2.65-1.42-.608-3.18-.912-5.278-.912-2.07 0-3.83.311-5.279.933-1.448.622-2.763 1.526-3.95 2.713a12.643 12.643 0 0 0-2.65 4.035c-.607 1.477-.996 3.194-1.166 5.151h24.47zM297.923 116.292h-9.892v-11.8h9.892v11.8zm0 34.447h-9.892v-11.8h9.892v11.8zM390.13 131.858c0 3.067-.58 5.76-1.738 8.077-1.16 2.318-2.72 4.24-4.678 5.752-2.318 1.823-4.869 3.123-7.639 3.893-2.777.778-6.303 1.16-10.578 1.16h-24.675V89.093H362.6c4.523 0 7.957.17 10.289.516a19.663 19.663 0 0 1 6.557 2.176c2.212 1.187 3.858 2.77 4.953 4.756 1.089 1.992 1.633 4.282 1.633 6.875 0 3.01-.75 5.688-2.255 8.034-1.505 2.346-3.582 4.07-6.232 5.173v.332c3.809.798 6.861 2.438 9.15 4.904 2.29 2.473 3.435 5.808 3.435 9.998zm-19.835-25.332c0-.996-.254-2.02-.763-3.066-.509-1.053-1.307-1.81-2.381-2.276-1.018-.445-2.226-.685-3.625-.728-1.392-.042-3.47-.063-6.225-.063h-1.082v13.044h1.95c2.65 0 4.502-.028 5.569-.085 1.06-.056 2.155-.346 3.293-.869 1.236-.58 2.091-1.378 2.565-2.402.466-1.018.7-2.205.7-3.555zm3.894 25.043c0-1.901-.382-3.392-1.16-4.466-.77-1.081-1.928-1.894-3.476-2.445-.94-.36-2.226-.558-3.872-.6-1.64-.043-3.844-.064-6.6-.064h-2.862v15.447h.827c4.035 0 6.819-.029 8.366-.085 1.548-.057 3.117-.431 4.72-1.117 1.407-.607 2.439-1.498 3.089-2.67.643-1.174.968-2.51.968-4zM442.794 127.513c0 7.645-2.091 13.673-6.267 18.075-4.184 4.402-10.098 6.6-17.744 6.6-7.589 0-13.489-2.198-17.7-6.6-4.212-4.402-6.318-10.43-6.318-18.075 0-7.73 2.106-13.78 6.318-18.153 4.211-4.374 10.111-6.565 17.7-6.565 7.618 0 13.525 2.205 17.722 6.607 4.19 4.402 6.29 10.437 6.29 18.11zm-14.86.085c0-2.763-.233-5.06-.685-6.897-.453-1.83-1.081-3.3-1.887-4.41-.855-1.158-1.816-1.964-2.897-2.416-1.074-.46-2.304-.685-3.682-.685-1.3 0-2.473.197-3.519.6-1.052.396-2.013 1.166-2.897 2.297-.834 1.074-1.49 2.55-1.992 4.43-.495 1.88-.742 4.24-.742 7.08 0 2.841.233 5.138.7 6.897.473 1.753 1.08 3.152 1.822 4.197.778 1.082 1.739 1.866 2.897 2.36 1.16.502 2.445.75 3.851.75 1.16 0 2.34-.248 3.54-.75 1.202-.494 2.163-1.243 2.884-2.232.855-1.187 1.498-2.615 1.943-4.29.438-1.667.664-3.978.664-6.931zM481.263 127.138c0-4.635-.707-7.95-2.113-9.935-1.406-1.985-3.576-2.982-6.501-2.982-1.3 0-2.586.212-3.872.622-1.286.417-2.544 1.039-3.788 1.866v23.353c.968.382 1.936.643 2.918.785.983.134 1.95.205 2.919.205 3.505 0 6.12-1.16 7.843-3.477 1.731-2.318 2.594-5.794 2.594-10.437zm14.817-.29c0 7.399-1.872 13.384-5.631 17.956-3.753 4.564-8.402 6.847-13.95 6.847-2.317 0-4.338-.262-6.048-.784-1.71-.523-3.533-1.343-5.462-2.445l-.622 2.317h-13.87V86.317h14.492v22.774c2.127-1.823 4.29-3.3 6.501-4.43 2.205-1.13 4.763-1.696 7.66-1.696 5.405 0 9.581 2.106 12.521 6.331 2.94 4.226 4.41 10.077 4.41 17.553z"/></g><path d="M106.188 647.696c0 2.677-.476 5.21-1.428 7.597-.953 2.388-2.271 4.424-3.954 6.107-2.126 2.098-4.624 3.685-7.494 4.762-2.871 1.076-6.501 1.615-10.889 1.615h-6.956v22.979h-8.198v-61.65h15.485c3.643 0 6.748.303 9.316.911 2.567.607 4.83 1.587 6.79 2.939 2.291 1.574 4.085 3.568 5.382 5.983 1.297 2.415 1.946 5.334 1.946 8.757zm-8.529.207c0-2.125-.366-3.975-1.097-5.548-.732-1.573-1.843-2.857-3.333-3.851-1.298-.855-2.809-1.463-4.534-1.821-1.725-.359-3.871-.539-6.438-.539h-6.79v24.635h5.589c3.312 0 5.99-.269 8.032-.807 2.043-.538 3.741-1.497 5.093-2.877 1.215-1.243 2.098-2.595 2.65-4.058.552-1.463.828-3.174.828-5.134zM149.413 690.756h-7.784v-5.135c-2.401 2.098-4.678 3.692-6.831 4.783-2.153 1.09-4.555 1.635-7.204 1.635-2.015 0-3.913-.331-5.693-.994-1.781-.662-3.333-1.711-4.658-3.146-1.325-1.436-2.353-3.244-3.085-5.424-.731-2.181-1.097-4.831-1.097-7.95v-30.017h7.784v26.332c0 2.457.09 4.493.269 6.107.179 1.615.587 3.03 1.221 4.244.635 1.187 1.498 2.057 2.588 2.609s2.657.828 4.699.828c1.905 0 3.934-.538 6.087-1.615a27.739 27.739 0 0 0 5.92-3.975v-34.53h7.784v46.248zM191.438 667.487c0-5.521-.842-9.709-2.526-12.566-1.684-2.857-4.389-4.285-8.115-4.285-2.125 0-4.271.496-6.438 1.49a24.97 24.97 0 0 0-5.9 3.768v26.498c1.96.966 3.699 1.649 5.217 2.049 1.518.401 3.188.601 5.009.601 3.975 0 7.094-1.408 9.358-4.223 2.263-2.816 3.395-7.26 3.395-13.332zm8.032-.621c0 7.563-1.836 13.649-5.507 18.259-3.671 4.609-8.267 6.914-13.787 6.914-2.512 0-4.658-.311-6.438-.932a28.247 28.247 0 0 1-5.279-2.504l-.497 2.153h-7.287v-64.424h7.784v23.02a29.205 29.205 0 0 1 6.376-4.389c2.291-1.159 4.886-1.739 7.784-1.739 5.217 0 9.329 2.091 12.338 6.273 3.009 4.182 4.513 9.971 4.513 17.369zM207.709 626.332h7.784v64.424h-7.784zM234.953 690.756h-7.784v-46.248h7.784v46.248zm.538-53.991h-8.86v-8.073h8.86v8.073zM264.763 691.791c-3.174 0-6.086-.49-8.736-1.47-2.65-.98-4.927-2.464-6.832-4.451-1.904-1.987-3.381-4.492-4.43-7.515-1.049-3.022-1.573-6.576-1.573-10.661 0-4.058.545-7.563 1.635-10.517 1.091-2.953 2.547-5.437 4.368-7.452 1.822-2.015 4.092-3.568 6.811-4.658 2.719-1.09 5.638-1.636 8.757-1.636 2.54 0 4.989.359 7.349 1.077 2.36.718 4.465 1.546 6.314 2.484v8.736h-.455a29.332 29.332 0 0 0-2.132-1.615c-.87-.607-1.926-1.228-3.168-1.863-1.076-.552-2.346-1.035-3.809-1.449-1.463-.414-2.871-.621-4.223-.621-4.03 0-7.266 1.525-9.709 4.575-2.443 3.05-3.664 7.363-3.664 12.939 0 5.465 1.18 9.723 3.54 12.773 2.36 3.05 5.637 4.575 9.833 4.575 2.539 0 4.955-.525 7.246-1.573 2.291-1.049 4.319-2.402 6.086-4.058h.455v8.736c-.773.359-1.739.794-2.898 1.304-1.159.511-2.208.89-3.147 1.139a41.911 41.911 0 0 1-3.56.89c-1.049.207-2.402.311-4.058.311zM357.548 690.756h-10.641l-22.482-28.693-3.602 4.057v24.636h-8.198v-61.65h8.198v28.361l25.256-28.361h9.979l-25.505 27.533 26.995 34.117z" fill-rule="nonzero"/><path d="M379.575 691.832c-7.37 0-13.091-2.077-17.162-6.231s-6.107-10.054-6.107-17.7c0-7.536 1.974-13.532 5.921-17.99 3.947-4.458 9.109-6.687 15.485-6.687 2.87 0 5.41.414 7.618 1.243 2.208.828 4.14 2.125 5.796 3.891 1.656 1.767 2.926 3.927 3.809 6.48.884 2.553 1.325 5.679 1.325 9.378v4.223h-32.046c0 5.383 1.353 9.495 4.058 12.338s6.445 4.265 11.22 4.265c1.711 0 3.388-.193 5.03-.58 1.643-.386 3.126-.883 4.451-1.49 1.408-.635 2.595-1.249 3.561-1.843.966-.593 1.767-1.152 2.401-1.677h.456v8.488c-.911.359-2.043.807-3.395 1.346-1.353.538-2.567.959-3.644 1.262a48.052 48.052 0 0 1-4.119.953c-1.229.221-2.781.331-4.658.331zm9.109-29.355c-.056-2.098-.304-3.906-.746-5.424-.441-1.518-1.076-2.801-1.904-3.85-.911-1.16-2.077-2.043-3.499-2.65-1.421-.607-3.181-.911-5.279-.911-2.07 0-3.83.31-5.279.932-1.449.621-2.767 1.525-3.954 2.711-1.159 1.215-2.042 2.561-2.65 4.037-.607 1.477-.993 3.195-1.159 5.155h24.47zM440.479 644.508l-24.883 63.306h-8.322l8.28-19.294-16.809-44.012h8.404l12.628 34.241 12.587-34.241h8.115zM460.684 656.308h-9.895v-11.8h9.895v11.8zm0 34.448h-9.895v-11.8h9.895v11.8z" fill-rule="nonzero"/><g fill-rule="nonzero"><path d="M67.27 886.348v-61.645h38.545v7.285h-30.35v16.895h28.28v7.286h-28.28v22.894h30.35v7.285H67.27zM150.155 886.348h-9.56l-11.221-17.467-11.553 17.467h-8.819l16.061-22.936-15.898-23.312h9.567l11.136 17.312 11.426-17.312h8.861l-15.983 22.774 15.983 23.474zM194.997 862.005c0 7.702-1.844 13.836-5.525 18.408-3.689 4.564-8.345 6.847-13.977 6.847-2.29 0-4.318-.262-6.084-.784-1.767-.523-3.576-1.343-5.427-2.445v19.375h-7.78V840.1h7.78v4.848a28.708 28.708 0 0 1 6.437-4.367c2.36-1.173 4.94-1.76 7.724-1.76 5.3 0 9.433 2.099 12.4 6.29 2.969 4.196 4.452 9.828 4.452 16.894zm-8.034.87c0-5.272-.84-9.363-2.522-12.274-1.69-2.912-4.417-4.367-8.197-4.367-2.212 0-4.346.487-6.402 1.47-2.056.975-4.007 2.24-5.858 3.787v26.208c2.042.99 3.787 1.668 5.236 2.028 1.449.36 3.116.537 4.989.537 4.035 0 7.165-1.476 9.405-4.43 2.233-2.954 3.35-7.271 3.35-12.96zM211.016 886.348h-7.78V840.1h7.78v46.248zm.545-53.985H202.7v-8.077h8.86v8.077zM246.955 848.467h-.41a8.976 8.976 0 0 0-1.844-.311 36.628 36.628 0 0 0-2.339-.064c-2.099 0-4.183.46-6.254 1.37-2.07.912-4.027 2.262-5.879 4.057v32.83h-7.78V840.1h7.78v6.876c2.848-2.509 5.321-4.283 7.434-5.321 2.113-1.032 4.162-1.555 6.148-1.555.798 0 1.399.021 1.801.064.403.042.848.106 1.343.19v8.113zM277.39 874.965v-12.832c-1.852.162-4.191.388-7.018.678-2.833.29-5.116.7-6.854 1.222-2.07.636-3.78 1.611-5.13 2.919-1.357 1.314-2.035 3.144-2.035 5.49 0 2.65.75 4.65 2.24 6 1.491 1.356 3.667 2.027 6.543 2.027 2.452 0 4.678-.53 6.664-1.59a29.087 29.087 0 0 0 5.59-3.914zm0 6.458a90.756 90.756 0 0 0-2.545 1.965c-1.067.848-2.091 1.512-3.088 2.013-1.378.714-2.713 1.265-3.992 1.654-1.286.389-3.088.58-5.406.58-1.9 0-3.71-.361-5.427-1.075a14.016 14.016 0 0 1-4.508-3.024c-1.243-1.272-2.24-2.834-2.982-4.699-.749-1.865-1.116-3.83-1.116-5.9 0-3.201.671-5.929 2.028-8.176 1.35-2.254 3.49-4.042 6.416-5.363 2.593-1.187 5.66-2.007 9.193-2.466a156.04 156.04 0 0 1 11.426-1.01v-1.492c0-1.823-.275-3.292-.827-4.409-.55-1.116-1.328-1.986-2.317-2.586-.997-.636-2.212-1.06-3.647-1.265a31.294 31.294 0 0 0-4.43-.31c-1.795 0-3.908.268-6.331.805-2.431.537-4.862 1.321-7.293 2.339h-.452v-7.907c1.435-.417 3.49-.87 6.169-1.364a43.092 43.092 0 0 1 7.95-.75c3.172 0 5.85.248 8.034.75 2.176.494 4.14 1.392 5.879 2.692 1.681 1.265 2.94 2.911 3.766 4.925.827 2.014 1.244 4.473 1.244 7.37v31.628h-7.745v-4.925zM310.056 887.26c-4.254 0-7.56-1.208-9.935-3.618-2.374-2.417-3.561-6.232-3.561-11.454v-25.63h-5.258V840.1h5.258v-13.284h7.78V840.1h14.33v6.459h-14.33v21.99c0 2.346.042 4.155.127 5.42a9.257 9.257 0 0 0 .954 3.56c.466.969 1.23 1.697 2.275 2.177 1.053.48 2.473.72 4.268.72 1.265 0 2.494-.183 3.681-.557 1.188-.368 2.043-.679 2.565-.933h.46v7.002c-1.463.41-2.947.735-4.452.969-1.505.24-2.89.353-4.162.353zM332.371 886.348h-7.78V840.1h7.78v46.248zm.537-53.985h-8.854v-8.077h8.854v8.077zM381.848 863.249c0 7.78-1.872 13.793-5.631 18.033-3.752 4.233-8.748 6.352-14.988 6.352-6.43 0-11.49-2.19-15.17-6.564-3.69-4.374-5.527-10.317-5.527-17.821 0-7.73 1.894-13.737 5.689-18.012 3.794-4.282 8.797-6.416 15.008-6.416 6.24 0 11.236 2.134 14.988 6.395 3.759 4.268 5.631 10.274 5.631 18.033zm-8.034 0c0-5.992-1.088-10.444-3.264-13.355-2.184-2.911-5.286-4.367-9.32-4.367-4.057 0-7.18 1.456-9.378 4.367-2.19 2.911-3.292 7.363-3.292 13.355 0 5.794 1.102 10.19 3.292 13.185 2.198 2.997 5.321 4.495 9.377 4.495 4.007 0 7.102-1.47 9.3-4.41 2.19-2.94 3.285-7.363 3.285-13.27zM426.196 886.348h-7.787V860.02c0-2.127-.106-4.106-.311-5.943-.205-1.837-.6-3.307-1.18-4.41-.636-1.158-1.52-2.02-2.65-2.585-1.13-.566-2.678-.848-4.635-.848-1.936 0-3.93.515-5.985 1.547-2.057 1.039-4.063 2.381-6.02 4.042v34.525h-7.788V840.1h7.787v5.137c2.318-2.07 4.607-3.66 6.869-4.762a16.167 16.167 0 0 1 7.165-1.654c4.55 0 8.112 1.498 10.684 4.494 2.565 2.99 3.85 7.335 3.85 13.016v30.017zM451.45 851.9h-9.9v-11.8h9.9v11.8zm0 34.448h-9.9v-11.8h9.9v11.8zM183.07 971.142h-38.045v-8.649a724.616 724.616 0 0 0 7.738-7.454 164.864 164.864 0 0 0 7.123-7.413c4.692-5.158 7.892-9.292 9.603-12.4 1.717-3.103 2.572-6.311 2.572-9.625 0-1.71-.269-3.215-.806-4.515-.544-1.293-1.279-2.375-2.219-3.23a9.68 9.68 0 0 0-3.356-1.858c-1.265-.417-2.664-.622-4.176-.622-1.463 0-2.947.184-4.452.558a33.687 33.687 0 0 0-4.332 1.385 23.271 23.271 0 0 0-3.349 1.696c-1.081.664-1.95 1.23-2.607 1.703h-.46v-8.783c1.71-.855 4.092-1.689 7.144-2.501 3.053-.813 5.943-1.223 8.678-1.223 5.737 0 10.238 1.526 13.496 4.579 3.257 3.045 4.883 7.18 4.883 12.394 0 2.403-.283 4.628-.848 6.67a24.633 24.633 0 0 1-2.34 5.675 39.543 39.543 0 0 1-3.688 5.335 103.183 103.183 0 0 1-4.55 5.222 189.172 189.172 0 0 1-8.678 8.776 748.86 748.86 0 0 1-7.638 7.2h30.307v7.08zM229.65 940.299c0 11.065-1.604 19.191-4.82 24.364-3.221 5.18-8.182 7.766-14.888 7.766-6.79 0-11.772-2.636-14.945-7.908-3.172-5.27-4.762-13.32-4.762-24.138 0-11.122 1.61-19.262 4.826-24.406 3.215-5.151 8.176-7.724 14.881-7.724 6.791 0 11.773 2.664 14.945 7.992 3.18 5.328 4.763 13.341 4.763 24.054zm-10.6 18.796c.8-2.042 1.372-4.622 1.697-7.738.332-3.123.501-6.805.501-11.058 0-4.226-.17-7.893-.501-11.017-.325-3.116-.912-5.709-1.739-7.78-.826-2.098-1.964-3.695-3.413-4.783-1.448-1.088-3.335-1.633-5.653-1.633-2.289 0-4.176.545-5.653 1.633-1.476 1.088-2.642 2.713-3.497 4.868-.827 2.099-1.392 4.749-1.696 7.95-.304 3.2-.46 6.812-.46 10.846 0 4.304.135 7.907.396 10.805.262 2.897.834 5.49 1.717 7.787.806 2.12 1.943 3.759 3.42 4.903 1.477 1.145 3.4 1.718 5.773 1.718 2.29 0 4.177-.545 5.653-1.633 1.477-1.095 2.629-2.713 3.456-4.868zM272.506 971.142h-30.06v-6.288h11.18V923.53h-11.18v-5.632c4.22 0 7.336-.6 9.335-1.802 2-1.201 3.123-3.47 3.378-6.812h6.416v55.569h10.931v6.288zM313.822 934.836c0-4.197-.381-7.61-1.159-10.253-.77-2.635-1.837-4.67-3.186-6.105-1.216-1.321-2.445-2.233-3.682-2.734-1.244-.495-2.614-.742-4.105-.742-3.392 0-6.098 1.215-8.112 3.646-2.014 2.424-3.025 5.942-3.025 10.557 0 2.593.332 4.734.997 6.416.664 1.682 1.738 3.13 3.229 4.345a8.364 8.364 0 0 0 3.561 1.718c1.322.29 2.75.438 4.261.438 1.767 0 3.675-.311 5.717-.933 2.042-.622 3.823-1.442 5.342-2.466.028-.41.063-.954.099-1.632.042-.679.063-1.428.063-2.255zm-31.67-5.3c0-3.179.516-6.076 1.554-8.698 1.032-2.621 2.445-4.882 4.24-6.79 1.71-1.823 3.802-3.244 6.275-4.261 2.466-1.025 4.974-1.534 7.511-1.534 2.848 0 5.42.474 7.723 1.428a17.096 17.096 0 0 1 5.985 4.12c2.127 2.26 3.774 5.228 4.947 8.903 1.173 3.667 1.76 8.31 1.76 13.913 0 5.102-.573 9.942-1.718 14.507-1.145 4.572-2.84 8.36-5.073 11.37-2.375 3.2-5.222 5.645-8.55 7.327-3.329 1.682-7.434 2.523-12.317 2.523-1.102 0-2.275-.064-3.519-.184a17.929 17.929 0 0 1-3.476-.685v-7.907h.41c.692.388 1.766.756 3.229 1.116 1.463.36 2.953.537 4.473.537 5.412 0 9.66-1.78 12.754-5.335 3.088-3.561 4.84-8.656 5.257-15.284-2.211 1.49-4.31 2.586-6.317 3.272-2 .692-4.169 1.038-6.515 1.038-2.296 0-4.38-.247-6.253-.749-1.88-.494-3.767-1.462-5.675-2.897-2.204-1.682-3.879-3.816-5.01-6.395-1.13-2.579-1.695-5.695-1.695-9.334zM329.39 940.426h23.353v7.497h-23.354zM399.323 940.299c0 11.065-1.611 19.191-4.826 24.364-3.215 5.18-8.176 7.766-14.881 7.766-6.791 0-11.773-2.636-14.945-7.908-3.18-5.27-4.763-13.32-4.763-24.138 0-11.122 1.604-19.262 4.82-24.406 3.214-5.151 8.182-7.724 14.888-7.724 6.79 0 11.772 2.664 14.944 7.992 3.173 5.328 4.763 13.341 4.763 24.054zm-10.6 18.796c.8-2.042 1.365-4.622 1.697-7.738.332-3.123.494-6.805.494-11.058 0-4.226-.162-7.893-.494-11.017-.332-3.116-.912-5.709-1.739-7.78-.826-2.098-1.964-3.695-3.413-4.783-1.448-1.088-3.335-1.633-5.652-1.633-2.29 0-4.177.545-5.653 1.633-1.477 1.088-2.643 2.713-3.498 4.868-.827 2.099-1.392 4.749-1.696 7.95-.304 3.2-.46 6.812-.46 10.846 0 4.304.135 7.907.396 10.805.262 2.897.834 5.49 1.717 7.787.799 2.12 1.937 3.759 3.413 4.903 1.477 1.145 3.406 1.718 5.78 1.718 2.29 0 4.177-.545 5.653-1.633 1.477-1.095 2.63-2.713 3.456-4.868zM436.336 923.863c0-2.763-.926-5.067-2.77-6.918-1.852-1.844-4.417-2.77-7.702-2.77-3.01 0-5.477.827-7.392 2.48-1.922 1.66-2.876 3.894-2.876 6.713 0 2.042.488 3.766 1.47 5.172.975 1.407 2.445 2.679 4.41 3.81.855.466 2.155 1.116 3.907 1.942 1.753.834 3.35 1.477 4.784 1.95 2.402-1.85 4.028-3.744 4.89-5.695.855-1.943 1.279-4.176 1.279-6.684zm1.159 30.886c0-2.537-.495-4.558-1.491-6.042-.99-1.49-2.912-3.01-5.752-4.557-.94-.523-2.19-1.089-3.745-1.696a213.192 213.192 0 0 1-5.286-2.155c-2.29 1.519-4.042 3.391-5.257 5.61-1.215 2.219-1.816 4.756-1.816 7.596 0 3.731 1.123 6.805 3.37 9.236 2.248 2.43 5.074 3.639 8.466 3.639 3.476 0 6.267-1.039 8.366-3.123 2.099-2.085 3.145-4.918 3.145-8.508zm-11.589 17.807c-3.067 0-5.858-.46-8.366-1.371-2.509-.912-4.65-2.219-6.416-3.929a16.36 16.36 0 0 1-3.957-5.9c-.898-2.283-1.343-4.692-1.343-7.229 0-3.342.89-6.409 2.671-9.214 1.78-2.798 4.367-5.031 7.759-6.685v-.247c-3.032-1.767-5.286-3.696-6.749-5.794-1.462-2.099-2.19-4.72-2.19-7.872 0-4.636 1.752-8.5 5.257-11.589 3.505-3.095 7.95-4.642 13.334-4.642 5.604 0 10.09 1.477 13.475 4.416 3.378 2.94 5.074 6.699 5.074 11.278 0 2.763-.813 5.497-2.424 8.197-1.618 2.706-3.943 4.819-6.974 6.338v.247c3.582 1.682 6.303 3.724 8.154 6.127 1.851 2.402 2.77 5.497 2.77 9.278 0 5.271-1.908 9.687-5.73 13.249-3.823 3.561-8.607 5.342-14.345 5.342zM452.772 940.426h23.353v7.497h-23.353zM522.706 940.299c0 11.065-1.611 19.191-4.827 24.364-3.215 5.18-8.175 7.766-14.88 7.766-6.792 0-11.773-2.636-14.946-7.908-3.18-5.27-4.762-13.32-4.762-24.138 0-11.122 1.604-19.262 4.819-24.406 3.215-5.151 8.182-7.724 14.888-7.724 6.79 0 11.772 2.664 14.945 7.992 3.173 5.328 4.763 13.341 4.763 24.054zm-10.6 18.796c.799-2.042 1.364-4.622 1.696-7.738.332-3.123.495-6.805.495-11.058 0-4.226-.163-7.893-.495-11.017-.332-3.116-.911-5.709-1.738-7.78-.827-2.098-1.964-3.695-3.413-4.783-1.456-1.088-3.335-1.633-5.653-1.633-2.29 0-4.176.545-5.653 1.633-1.477 1.088-2.643 2.713-3.498 4.868-.826 2.099-1.392 4.749-1.696 7.95-.303 3.2-.459 6.812-.459 10.846 0 4.304.134 7.907.396 10.805.261 2.897.834 5.49 1.717 7.787.798 2.12 1.936 3.759 3.413 4.903 1.477 1.145 3.406 1.718 5.78 1.718 2.29 0 4.176-.545 5.653-1.633 1.477-1.095 2.629-2.713 3.455-4.868zM547.296 915.376c-1.491 0-2.982.177-4.473.537a31.68 31.68 0 0 0-4.388 1.406c-1.321.552-2.473 1.131-3.455 1.739a74.485 74.485 0 0 0-2.629 1.696h-.495v-8.734c1.795-.968 4.226-1.845 7.307-2.629 3.074-.784 6.006-1.18 8.797-1.18 2.791 0 5.222.283 7.307.848 2.084.565 3.97 1.442 5.653 2.629 1.823 1.328 3.193 2.925 4.12 4.805.925 1.88 1.384 4.07 1.384 6.585 0 3.392-1.116 6.374-3.35 8.939-2.24 2.565-4.917 4.197-8.034 4.89v.58c1.3.247 2.686.67 4.162 1.278 1.477.608 2.848 1.505 4.12 2.692 1.272 1.188 2.304 2.714 3.102 4.58.806 1.858 1.201 4.133 1.201 6.804 0 2.791-.473 5.35-1.427 7.681a19.328 19.328 0 0 1-4.035 6.19c-1.795 1.88-3.964 3.3-6.5 4.268-2.545.968-5.428 1.449-8.657 1.449a38.64 38.64 0 0 1-9.193-1.117c-3.031-.749-5.59-1.646-7.66-2.692v-8.734h.587c1.738 1.265 4.07 2.48 6.995 3.64 2.926 1.158 5.851 1.737 8.777 1.737 1.681 0 3.37-.268 5.073-.805 1.696-.537 3.11-1.413 4.24-2.629a13.038 13.038 0 0 0 2.53-4.013c.579-1.463.869-3.314.869-5.554 0-2.233-.325-4.07-.975-5.505-.65-1.434-1.555-2.565-2.714-3.392-1.159-.833-2.53-1.406-4.12-1.717-1.582-.318-3.3-.48-5.15-.48h-3.52v-6.876h2.728c3.73 0 6.762-.883 9.094-2.65 2.332-1.766 3.498-4.331 3.498-7.695 0-1.547-.304-2.883-.912-3.999-.607-1.116-1.385-2.007-2.317-2.671a9.88 9.88 0 0 0-3.484-1.491c-1.265-.276-2.622-.41-4.056-.41z"/></g><g fill-rule="nonzero"><path d="M103.307 340.32H67.312v-62.105h8.26v54.763h27.735v7.341zM147.52 317.05c0 7.837-1.887 13.893-5.667 18.16-3.788 4.268-8.819 6.402-15.1 6.402-6.48 0-11.575-2.204-15.292-6.606-3.71-4.41-5.568-10.395-5.568-17.956 0-7.787 1.915-13.835 5.738-18.146 3.822-4.31 8.86-6.465 15.121-6.465 6.282 0 11.313 2.148 15.1 6.444 3.781 4.296 5.668 10.352 5.668 18.167zm-8.091 0c0-6.034-1.095-10.521-3.293-13.454-2.197-2.932-5.328-4.402-9.384-4.402-4.091 0-7.236 1.47-9.447 4.402-2.212 2.933-3.314 7.42-3.314 13.454 0 5.837 1.102 10.268 3.314 13.285 2.211 3.017 5.356 4.522 9.447 4.522 4.028 0 7.151-1.484 9.363-4.444 2.212-2.961 3.314-7.413 3.314-13.363zM174.096 341.365c-3.201 0-6.134-.495-8.805-1.484-2.67-.982-4.96-2.48-6.882-4.48-1.915-2.007-3.406-4.53-4.459-7.575-1.06-3.038-1.59-6.62-1.59-10.74 0-4.085.551-7.618 1.647-10.592 1.102-2.975 2.565-5.477 4.402-7.505 1.837-2.035 4.126-3.596 6.861-4.699 2.742-1.095 5.681-1.646 8.826-1.646 2.558 0 5.024.36 7.398 1.088 2.381.72 4.501 1.555 6.367 2.501v8.798h-.46a32.613 32.613 0 0 0-2.148-1.625c-.876-.608-1.943-1.237-3.194-1.873-1.08-.558-2.36-1.046-3.837-1.463-1.477-.417-2.89-.621-4.254-.621-4.063 0-7.32 1.533-9.78 4.607-2.465 3.073-3.695 7.412-3.695 13.03 0 5.511 1.194 9.8 3.569 12.867 2.374 3.074 5.68 4.614 9.906 4.614 2.558 0 4.99-.53 7.3-1.59a22.621 22.621 0 0 0 6.133-4.084h.46v8.798c-.785.367-1.753.805-2.926 1.314-1.166.516-2.219.897-3.165 1.152a43.5 43.5 0 0 1-3.59.897c-1.053.205-2.417.311-4.084.311zM221.015 328.85v-12.93c-1.858.17-4.218.396-7.066.692-2.855.29-5.151.7-6.904 1.23-2.084.636-3.808 1.618-5.172 2.94-1.364 1.32-2.042 3.158-2.042 5.525 0 2.671.749 4.685 2.247 6.049 1.505 1.364 3.702 2.042 6.592 2.042 2.474 0 4.714-.537 6.713-1.604a29.3 29.3 0 0 0 5.632-3.943zm0 6.509c-.636.473-1.49 1.13-2.565 1.978-1.067.848-2.106 1.527-3.102 2.028-1.392.721-2.735 1.28-4.028 1.668-1.293.389-3.109.58-5.44.58-1.923 0-3.746-.36-5.47-1.082a14 14 0 0 1-4.543-3.045c-1.251-1.28-2.255-2.855-3.004-4.735a15.896 15.896 0 0 1-1.123-5.942c0-3.23.678-5.971 2.042-8.24 1.364-2.268 3.519-4.07 6.466-5.398 2.614-1.201 5.695-2.028 9.256-2.487 3.562-.46 7.399-.799 11.511-1.018v-1.505c0-1.837-.275-3.314-.834-4.437-.55-1.131-1.335-2-2.332-2.608-1.003-.643-2.225-1.067-3.674-1.272a30.663 30.663 0 0 0-4.459-.318c-1.809 0-3.936.276-6.38.813a42.59 42.59 0 0 0-7.342 2.36h-.46v-7.97c1.442-.418 3.52-.87 6.212-1.372 2.699-.501 5.37-.756 8.013-.756 3.194 0 5.893.255 8.09.756 2.198.502 4.17 1.4 5.922 2.707 1.696 1.279 2.96 2.94 3.794 4.967.834 2.028 1.251 4.502 1.251 7.427v31.861h-7.8v-4.96zM253.93 341.238c-4.283 0-7.625-1.215-10.013-3.646-2.389-2.438-3.59-6.282-3.59-11.532v-25.82h-5.293v-6.508h5.293v-13.39h7.843v13.39h14.437v6.508H248.17v22.145c0 2.368.043 4.184.128 5.463a9.277 9.277 0 0 0 .96 3.59c.467.974 1.237 1.702 2.29 2.19 1.06.487 2.487.727 4.296.727 1.28 0 2.516-.183 3.717-.558 1.194-.381 2.056-.692 2.586-.94h.46v7.045a37.638 37.638 0 0 1-4.487.983c-1.52.233-2.912.353-4.19.353zM276.407 340.32h-7.837v-46.588h7.837v46.587zm.544-54.39h-8.925v-8.132h8.925v8.133zM326.252 317.05c0 7.837-1.887 13.893-5.667 18.16-3.788 4.268-8.819 6.402-15.1 6.402-6.48 0-11.575-2.204-15.292-6.606-3.71-4.41-5.568-10.395-5.568-17.956 0-7.787 1.915-13.835 5.738-18.146 3.822-4.31 8.86-6.465 15.121-6.465 6.282 0 11.313 2.148 15.1 6.444 3.781 4.296 5.668 10.352 5.668 18.167zm-8.091 0c0-6.034-1.095-10.521-3.293-13.454-2.197-2.932-5.328-4.402-9.384-4.402-4.091 0-7.236 1.47-9.447 4.402-2.212 2.933-3.321 7.42-3.321 13.454 0 5.837 1.109 10.268 3.32 13.285 2.212 3.017 5.357 4.522 9.448 4.522 4.028 0 7.151-1.484 9.363-4.444 2.212-2.961 3.314-7.413 3.314-13.363zM370.924 340.32h-7.836v-26.527c0-2.141-.106-4.134-.318-5.985-.205-1.852-.6-3.328-1.187-4.445-.636-1.166-1.527-2.035-2.671-2.607-1.138-.566-2.693-.855-4.671-.855-1.943 0-3.957.523-6.028 1.568-2.07 1.04-4.09 2.396-6.07 4.064v34.786h-7.836v-46.587h7.837v5.172c2.338-2.084 4.642-3.688 6.924-4.797a16.294 16.294 0 0 1 7.215-1.668c4.593 0 8.176 1.505 10.762 4.522 2.586 3.018 3.88 7.391 3.88 13.122v30.236zM396.37 305.617h-9.971v-11.885h9.97v11.885zm0 34.702h-9.971v-11.885h9.97v11.885zM200.622 425.742h-8.26V372.23l-16.182 36.412h-5.01l-16.054-36.412v53.512H147.4v-62.104h11.263l15.51 34.582 14.98-34.582h11.47v62.104zM250.926 402.473c0 7.837-1.893 13.893-5.674 18.16-3.78 4.268-8.818 6.402-15.1 6.402-6.48 0-11.575-2.197-15.284-6.606-3.717-4.41-5.569-10.395-5.569-17.956 0-7.786 1.908-13.835 5.731-18.146 3.823-4.31 8.868-6.465 15.122-6.465 6.282 0 11.32 2.148 15.1 6.444 3.78 4.297 5.674 10.352 5.674 18.167zm-8.09 0c0-6.034-1.103-10.521-3.3-13.454-2.198-2.932-5.321-4.402-9.384-4.402-4.085 0-7.236 1.47-9.448 4.402-2.212 2.933-3.314 7.42-3.314 13.454 0 5.837 1.102 10.268 3.314 13.285 2.212 3.017 5.363 4.522 9.448 4.522 4.034 0 7.15-1.477 9.362-4.444 2.212-2.961 3.321-7.413 3.321-13.363zM295.26 425.742h-7.837v-5.172c-2.424 2.12-4.713 3.724-6.882 4.82-2.17 1.101-4.593 1.645-7.257 1.645-2.035 0-3.943-.332-5.738-.996a12.035 12.035 0 0 1-4.692-3.173c-1.336-1.448-2.374-3.264-3.11-5.462-.734-2.197-1.101-4.868-1.101-8.013v-30.236h7.836v26.526c0 2.474.092 4.53.275 6.155.177 1.625.587 3.053 1.23 4.275.643 1.194 1.505 2.07 2.607 2.629 1.096.551 2.679.834 4.735.834 1.915 0 3.964-.544 6.133-1.626a28.25 28.25 0 0 0 5.964-4.006v-34.787h7.836v46.587zM343.232 425.742h-7.844v-26.526c0-2.141-.106-4.134-.31-5.985-.213-1.851-.608-3.328-1.188-4.445-.643-1.166-1.533-2.035-2.67-2.6-1.145-.572-2.7-.855-4.672-.855-1.95 0-3.957.516-6.027 1.562-2.077 1.038-4.098 2.395-6.07 4.063v34.786h-7.843v-46.587h7.843v5.172c2.332-2.084 4.643-3.688 6.925-4.797a16.271 16.271 0 0 1 7.215-1.668c4.586 0 8.175 1.505 10.761 4.522 2.587 3.018 3.88 7.392 3.88 13.122v30.236zM368.338 426.661c-4.282 0-7.617-1.215-10.006-3.646-2.395-2.438-3.59-6.282-3.59-11.532v-25.82h-5.3v-6.508h5.3v-13.39h7.844v13.39h14.43v6.508h-14.43v22.145c0 2.368.042 4.184.12 5.463a9.277 9.277 0 0 0 .961 3.59c.474.974 1.237 1.702 2.297 2.19 1.053.487 2.487.728 4.296.728 1.279 0 2.515-.184 3.71-.559 1.194-.381 2.056-.692 2.586-.94h.46v7.045c-1.47.417-2.969.75-4.48.983-1.52.24-2.92.353-4.198.353zM408.841 414.274v-12.931c-1.865.17-4.218.396-7.073.692-2.848.29-5.151.7-6.897 1.23-2.091.636-3.815 1.618-5.172 2.94-1.364 1.32-2.05 3.165-2.05 5.525 0 2.671.757 4.685 2.255 6.049 1.505 1.364 3.695 2.042 6.593 2.042 2.473 0 4.713-.537 6.712-1.604a29.52 29.52 0 0 0 5.632-3.943zm0 6.508a91.466 91.466 0 0 0-2.565 1.978c-1.074.848-2.106 1.527-3.109 2.028-1.392.721-2.727 1.28-4.02 1.668-1.294.389-3.11.58-5.449.58-1.915 0-3.738-.36-5.462-1.082a14 14 0 0 1-4.543-3.045c-1.258-1.28-2.254-2.855-3.003-4.735a15.763 15.763 0 0 1-1.131-5.942c0-3.23.685-5.971 2.042-8.24 1.364-2.268 3.52-4.062 6.466-5.398 2.614-1.201 5.702-2.028 9.263-2.487 3.562-.46 7.399-.799 11.511-1.018v-1.505c0-1.83-.275-3.314-.834-4.437-.558-1.131-1.335-2-2.338-2.608-.997-.643-2.22-1.067-3.668-1.272a30.76 30.76 0 0 0-4.466-.318c-1.802 0-3.936.276-6.38.82a42.334 42.334 0 0 0-7.342 2.353h-.46v-7.964c1.45-.416 3.52-.876 6.219-1.377 2.699-.502 5.363-.75 8.006-.75 3.2 0 5.9.248 8.09.75 2.198.501 4.177 1.406 5.929 2.706 1.696 1.279 2.96 2.94 3.795 4.967.833 2.028 1.25 4.502 1.25 7.427v31.861h-7.8v-4.96zM435.664 425.742h-7.843v-46.587h7.843v46.587zm.537-54.388h-8.924v-8.133h8.924v8.133zM483.792 425.742h-7.836v-26.526c0-2.141-.106-4.134-.318-5.985-.205-1.851-.6-3.328-1.187-4.445-.636-1.166-1.527-2.035-2.671-2.6-1.138-.572-2.693-.855-4.671-.855-1.943 0-3.95.516-6.028 1.562-2.07 1.038-4.09 2.395-6.07 4.063v34.786h-7.836v-46.587h7.837v5.172c2.339-2.084 4.65-3.688 6.925-4.797a16.301 16.301 0 0 1 7.221-1.668c4.586 0 8.176 1.505 10.762 4.522 2.58 3.018 3.872 7.392 3.872 13.122v30.236zM567.13 363.638l-21.353 62.104h-8.925l-21.354-62.104h8.84l17.185 51.555 17.185-51.555h8.423zM580.479 425.742h-7.837v-46.587h7.837v46.587zm.544-54.388h-8.925v-8.133h8.925v8.133zM612.22 426.83c-7.42 0-13.185-2.091-17.284-6.274-4.105-4.19-6.154-10.133-6.154-17.835 0-7.59 1.985-13.63 5.963-18.125 3.979-4.487 9.18-6.734 15.602-6.734 2.89 0 5.449.417 7.674 1.25 2.226.834 4.17 2.142 5.837 3.922 1.668 1.781 2.947 3.957 3.837 6.53.89 2.572 1.335 5.716 1.335 9.447v4.254h-32.285c0 5.42 1.364 9.56 4.091 12.43 2.728 2.861 6.494 4.296 11.306 4.296a22.07 22.07 0 0 0 5.067-.587c1.653-.389 3.144-.89 4.48-1.498 1.42-.643 2.614-1.258 3.59-1.858.974-.601 1.78-1.16 2.416-1.69h.46v8.55c-.92.361-2.057.813-3.42 1.358-1.365.544-2.587.968-3.668 1.271a50.68 50.68 0 0 1-4.148.961c-1.244.22-2.805.333-4.699.333zm9.179-29.571c-.057-2.113-.304-3.936-.749-5.47-.445-1.526-1.088-2.819-1.922-3.872-.919-1.173-2.092-2.063-3.526-2.67-1.427-.616-3.201-.92-5.314-.92-2.084 0-3.858.311-5.32.94-1.456.622-2.785 1.534-3.979 2.728-1.173 1.222-2.063 2.579-2.67 4.07-.616 1.484-1.004 3.215-1.174 5.194H621.4zM693.432 379.155l-11.8 46.587h-7.258l-11.39-35.91-11.3 35.91h-7.221l-11.928-46.587h8.176l8.218 36.08 11.051-36.08h6.466l11.348 36.08 7.759-36.08h7.879zM171.672 512.296c-4.056 0-7.794-.685-11.2-2.042a23.81 23.81 0 0 1-8.819-6.091c-2.473-2.7-4.395-6.063-5.758-10.098-1.364-4.027-2.043-8.663-2.043-13.885 0-5.2.658-9.737 1.979-13.602 1.321-3.865 3.25-7.229 5.78-10.09a24.628 24.628 0 0 1 8.797-6.36c3.4-1.463 7.194-2.19 11.391-2.19 2.085 0 4.042.148 5.858.459a40.36 40.36 0 0 1 5.074 1.165c1.328.417 2.699.94 4.105 1.562a53.994 53.994 0 0 1 4.148 2.07v9.964h-.664a71.351 71.351 0 0 0-2.799-2.417c-1.137-.947-2.53-1.88-4.169-2.798-1.582-.862-3.307-1.569-5.172-2.127-1.866-.551-4.02-.834-6.466-.834a17.71 17.71 0 0 0-7.504 1.633c-2.367 1.08-4.437 2.678-6.218 4.79-1.753 2.113-3.116 4.77-4.084 7.971-.976 3.194-1.463 6.798-1.463 10.804 0 4.254.516 7.914 1.54 10.988 1.032 3.074 2.438 5.667 4.219 7.78 1.724 2.056 3.752 3.61 6.084 4.65 2.339 1.045 4.812 1.561 7.426 1.561 2.396 0 4.6-.29 6.636-.869 2.027-.586 3.836-1.321 5.42-2.212 1.533-.862 2.847-1.745 3.963-2.65 1.11-.904 1.986-1.674 2.629-2.317h.622v9.843c-1.364.643-2.65 1.25-3.858 1.837-1.209.587-2.678 1.152-4.395 1.71-1.81.587-3.484 1.032-5.032 1.336-1.54.304-3.554.459-6.027.459zM224.103 499.697v-12.931c-1.858.17-4.218.396-7.066.692-2.855.29-5.151.7-6.904 1.23-2.084.636-3.808 1.618-5.172 2.94-1.364 1.32-2.042 3.165-2.042 5.525 0 2.671.749 4.685 2.247 6.049 1.505 1.364 3.702 2.042 6.592 2.042 2.474 0 4.714-.53 6.713-1.604a28.69 28.69 0 0 0 5.632-3.943zm0 6.508c-.636.473-1.49 1.13-2.565 1.978-1.067.848-2.106 1.527-3.11 2.028-1.384.721-2.727 1.28-4.02 1.668-1.293.389-3.109.58-5.448.58-1.915 0-3.738-.36-5.462-1.082a14 14 0 0 1-4.544-3.045c-1.25-1.28-2.254-2.855-3.003-4.734-.756-1.873-1.13-3.859-1.13-5.943 0-3.23.685-5.971 2.049-8.24 1.357-2.268 3.512-4.062 6.466-5.398 2.607-1.194 5.695-2.028 9.256-2.48 3.562-.46 7.399-.806 11.511-1.025v-1.505c0-1.83-.276-3.314-.834-4.437-.558-1.13-1.335-2-2.332-2.608-1.003-.643-2.225-1.067-3.674-1.272a30.76 30.76 0 0 0-4.466-.318c-1.802 0-3.929.276-6.38.82-2.446.537-4.89 1.328-7.342 2.353h-.453v-7.964c1.442-.416 3.512-.876 6.212-1.377 2.699-.502 5.37-.75 8.006-.75 3.2 0 5.9.248 8.097.75 2.19.501 4.17 1.406 5.922 2.713 1.696 1.279 2.96 2.932 3.794 4.96.834 2.028 1.251 4.509 1.251 7.427v31.868h-7.801v-4.967zM243.083 446.27h7.843v64.902h-7.843zM270.528 511.172h-7.844v-46.594h7.844v46.594zm.544-54.395h-8.925v-8.133h8.925v8.133zM306.735 453.774h-.417c-.7-.247-1.696-.495-3.003-.728-1.307-.24-2.48-.353-3.505-.353-3.307 0-5.667.742-7.073 2.226-1.4 1.49-2.106 4.183-2.106 8.076v1.583h12.974v6.508h-12.72v40.086h-7.843v-40.086h-5.3v-6.508h5.3v-1.54c0-5.618 1.35-9.886 4.049-12.811 2.692-2.919 6.557-4.374 11.596-4.374 1.441 0 2.861.07 4.253.226 1.385.155 2.65.325 3.795.523v7.172zM346.9 487.896c0 7.837-1.888 13.893-5.675 18.16-3.78 4.269-8.812 6.403-15.093 6.403-6.48 0-11.575-2.198-15.292-6.607-3.71-4.41-5.568-10.395-5.568-17.956 0-7.786 1.915-13.835 5.738-18.145 3.823-4.31 8.861-6.466 15.122-6.466 6.281 0 11.313 2.148 15.093 6.444 3.787 4.297 5.674 10.352 5.674 18.167zm-8.092 0c0-6.034-1.095-10.521-3.293-13.454-2.197-2.932-5.327-4.402-9.383-4.402-4.092 0-7.243 1.47-9.448 4.402-2.212 2.933-3.321 7.42-3.321 13.454 0 5.837 1.11 10.268 3.321 13.285 2.205 3.017 5.356 4.522 9.448 4.522 4.027 0 7.15-1.477 9.362-4.437 2.212-2.968 3.314-7.42 3.314-13.37zM379.644 473.001h-.417a9.115 9.115 0 0 0-1.859-.31 36.95 36.95 0 0 0-2.353-.065c-2.112 0-4.211.46-6.303 1.378-2.084.919-4.056 2.283-5.921 4.092v33.076h-7.844v-46.594h7.844v6.925c2.869-2.53 5.363-4.317 7.49-5.363 2.127-1.039 4.19-1.562 6.19-1.562.806 0 1.413.021 1.816.064.403.042.855.106 1.357.183v8.176zM422.359 511.172h-7.844V484.64c0-2.141-.106-4.134-.31-5.985-.213-1.844-.608-3.328-1.195-4.438-.636-1.173-1.526-2.042-2.664-2.607-1.144-.572-2.699-.855-4.677-.855-1.944 0-3.95.516-6.028 1.562-2.07 1.045-4.091 2.395-6.063 4.07v34.786h-7.843v-46.594h7.843v5.173c2.332-2.085 4.643-3.682 6.918-4.798a16.324 16.324 0 0 1 7.222-1.668c4.586 0 8.175 1.505 10.761 4.522 2.587 3.018 3.88 7.392 3.88 13.122v30.243zM441.374 511.172h-7.836v-46.594h7.836v46.594zm.544-54.395h-8.925v-8.133h8.925v8.133zM478.917 499.697v-12.931c-1.866.17-4.219.396-7.074.692-2.847.29-5.151.7-6.903 1.23-2.085.636-3.809 1.618-5.173 2.94-1.357 1.32-2.042 3.165-2.042 5.525 0 2.671.75 4.685 2.254 6.049 1.498 1.364 3.696 2.042 6.593 2.042 2.473 0 4.713-.53 6.713-1.604a28.9 28.9 0 0 0 5.632-3.943zm0 6.508a91.466 91.466 0 0 0-2.565 1.978c-1.075.848-2.106 1.527-3.11 2.028-1.392.721-2.734 1.28-4.027 1.668-1.293.389-3.102.58-5.441.58-1.915 0-3.738-.36-5.462-1.082a14.03 14.03 0 0 1-4.551-3.045c-1.25-1.28-2.247-2.855-3.003-4.734a15.87 15.87 0 0 1-1.124-5.943c0-3.23.679-5.971 2.042-8.24 1.364-2.268 3.52-4.062 6.466-5.398 2.614-1.194 5.702-2.028 9.264-2.48 3.554-.46 7.391-.806 11.51-1.025v-1.505c0-1.83-.282-3.314-.833-4.437-.559-1.13-1.336-2-2.34-2.608-.996-.643-2.225-1.067-3.667-1.272a30.76 30.76 0 0 0-4.465-.318c-1.81 0-3.936.276-6.381.82-2.445.537-4.897 1.328-7.342 2.353h-.46v-7.964c1.45-.416 3.52-.876 6.22-1.377a43.637 43.637 0 0 1 8.005-.75c3.201 0 5.893.248 8.09.75 2.198.501 4.177 1.406 5.922 2.713 1.696 1.279 2.968 2.932 3.802 4.96.834 2.028 1.25 4.509 1.25 7.427v31.868h-7.8v-4.967zM512.912 499.28l-11.68 27.325h-6.092l7.342-27.325h10.43zM572.6 512.459c-3.646 0-6.826-.474-9.554-1.435-2.727-.96-5.045-2.388-6.967-4.275-2.17-2.17-3.695-4.763-4.586-7.78-.89-3.017-1.335-6.734-1.335-11.157V449.06h8.26v38.75c0 2.863.177 5.28.537 7.236.368 1.958 1.074 3.717 2.134 5.279 1.11 1.668 2.615 2.932 4.522 3.794 1.908.863 4.233 1.294 6.989 1.294 2.586 0 4.876-.431 6.882-1.294 2-.862 3.555-2.126 4.671-3.794a14.841 14.841 0 0 0 2.106-5.257c.374-1.922.565-4.268.565-7.052V449.06h8.253v38.75c0 4.311-.438 8.007-1.314 11.095-.876 3.088-2.41 5.702-4.607 7.843a19.07 19.07 0 0 1-6.904 4.296c-2.628.947-5.843 1.414-9.652 1.414zM624.233 512.296c-4.502 0-8.331-.466-11.49-1.4-3.152-.932-6.126-2.077-8.903-3.44V497.11h.586a29.732 29.732 0 0 0 9.257 5.942c3.448 1.407 6.77 2.106 9.97 2.106 4.558 0 8.006-.947 10.345-2.855 2.332-1.9 3.505-4.416 3.505-7.525 0-2.48-.615-4.494-1.837-6.049-1.223-1.561-3.173-2.713-5.844-3.462a91.508 91.508 0 0 0-5.25-1.378 218.75 218.75 0 0 1-5.964-1.463c-2.141-.55-4.063-1.265-5.76-2.127a16.219 16.219 0 0 1-4.507-3.377c-1.28-1.364-2.269-2.968-2.982-4.82-.707-1.844-1.06-3.978-1.06-6.401 0-5.031 1.957-9.25 5.879-12.656 3.922-3.406 8.924-5.109 15.016-5.109 3.476 0 6.762.346 9.864 1.039 3.102.7 5.97 1.682 8.614 2.96v9.886h-.622c-1.979-1.802-4.508-3.384-7.596-4.734a24.086 24.086 0 0 0-9.716-2.021c-3.837 0-6.94.897-9.3 2.692-2.367 1.795-3.547 4.148-3.547 7.066 0 2.643.693 4.742 2.085 6.303 1.392 1.555 3.406 2.693 6.048 3.42 1.753.474 3.894 1.004 6.424 1.605 2.53.6 4.628 1.144 6.296 1.646 4.282 1.307 7.412 3.286 9.383 5.921 1.979 2.643 2.968 5.9 2.968 9.766 0 2.416-.494 4.805-1.484 7.172-.989 2.36-2.367 4.367-4.147 6.006a21.607 21.607 0 0 1-6.784 4.17c-2.516.974-5.66 1.462-9.447 1.462zM647.219 511.172l20.937-62.111h10.175l20.944 62.111h-8.72l-5.631-17.354h-23.735l-5.625 17.354h-8.345zm35.408-24.406l-9.588-29.275-9.554 29.275h19.142z"/></g><g stroke="#000" stroke-width="2.98"><path d="M624.783 244.652c-2.809 14.026.715 40.465 3.06 41.337 27.976 10.398 58.325 8.086 74.853-1.097 1.951-1.083 4.814-18.068 3.147-40.785-26.088 9.765-51.069 9.836-81.06.545z" fill="url(#a)" stroke-miterlimit="1"/><path d="M635.089 168.96c-3.102-1.112-25.927 5.631-27.279 11.673-2.995 13.383-1.965 53.81 4.616 57.814 18.505 11.259 63.594 21.45 100.737 1.766 2.047-1.085 7.499-30.55 3.971-60.702-.436-3.727-32.602-12.952-35.188-11.255l-46.857.704z" fill="url(#b)" stroke-miterlimit="1"/><path d="M699.659 105.978c-3.588 4.832-73.393 2.091-74.387 3.343-2.754 3.467-13.406 67.636 34.708 69.028 56.251 1.628 41.422-74.719 39.679-72.371z" fill="url(#c)" stroke-miterlimit="1"/><path d="M602.855 92.67c-2.003.361-.782 15.867 29.359 25.398 39.732 12.563 86.296-10.639 90.045-34.332.168-1.065-2.083-1.014-5.66-.46-7.474 1.159-15.055 4.725-15.088 3.839-2.484-65.948-38.145-34.936-41.215-34.431-1.791.295-6.051-7.206-15.101-6.09-26.076 3.219-19.512 45.226-20.24 45.248-4.837.147-11.669-1.049-22.1.828z" fill="url(#d)" stroke-miterlimit="1"/><path d="M679.892 126.63c3.003.027 5.414 3.042 5.38 6.728-.034 3.686-2.499 6.656-5.503 6.628-3.003-.027-5.414-3.042-5.38-6.728.034-3.686 2.499-6.656 5.503-6.628zM643.628 126.63c3.003-.025 5.466 2.948 5.495 6.634.03 3.686-2.384 6.698-5.388 6.723-3.003.024-5.465-2.949-5.495-6.635-.03-3.686 2.384-6.698 5.388-6.722z"/><path d="M654.514 145.316c1.998-2.31 7.009-7.196 13.444-1.278" fill="none" stroke-miterlimit="1"/><path d="M640.495 161.167c.574-.253 2.897-1.225 5.173-3.112 2.728-2.263 3.991-4.334 4.013-4.317.025.019-3.903 4.95-3.903 4.95s6.856 3.845 15.451 3.785c8.596-.06 15.749-4.469 15.628-4.301-1.862 2.575-6.384 7.53-15.628 7.529-9.244-.001-14.319-6.326-15.72-6.774l-5.014 2.24z"/><path d="M608.265 179.556c18.138 9.978 39.182 15.863 55.884 15.159 30.45-1.284 47.126-11.766 51.573-14.961" fill="none" stroke-miterlimit="1"/><path d="M663.235 51.082c-2.947 1.773-6.735 4.11-11.692 9.351M722.262 83.276c-3.65 5.501-24.629 18.073-33.315 19.174M701.487 85.94c-.03 2.636.012 7.057-.671 10.99M625.027 91.435c0 1.411.655 4.69.811 5.495" fill="none"/></g><path d="M671.292 649.576c-.256-.383.125-.914.242-1.36.274-1.048.653-2.068.929-3.117 1.203-4.567 1.846-9.203 2.026-13.94 1.576-41.586-59.099-57.68-80.243-20.117-5.298 9.414-7.551 20.49-5.808 31.111.931 5.669 2.918 11.217 6.049 16.051 7.682 11.862 22.714 19.769 36.915 18.254 5.773-.616 6.174-.887 11.555-2.133 1.422-.329 5.045-1.634 6.943-.998 1.329.446 1.616 1.834 1.56 3.068-.069 1.531-.429 2.16-1.022 3.626-.589 1.455-1.576 3.035-.387 4.493.265.326.582.613.927.852.46.319.95.608 1.472.813 2.277.893 3.952-.53 5.747-1.732.703-.471 1.302-1.172 2.117-1.401.343-.097.638.327.92.546a32.623 32.623 0 0 1 2.101 1.796c2.382 2.194 4.76 4.394 7.075 6.658a2167.986 2167.986 0 0 1 42.125 42.302c3.602 3.719 7.023 7.612 10.652 11.306.495.503 2.128.642 2.556.66 4.098.179 5.973.067 10.087-.497.986-.135 3.433-.407 3.882-1.64.418-1.15.426-3.918.416-4.502-.053-2.903-.488-14.215-1.914-15.322-1.634-1.269-5.358-.46-6.086-2.044-1.405-3.059.428-7.054-1.178-8.421-1.667-1.419-7.049-1.7-7.975-2.95-1.262-1.7-.353-4.339-1.938-5.897-2.573-2.531-5.227-.578-8.224-2.163-1.286-.68-.601-7.414-1.977-8.364-2.573-1.778-7.23.661-9.477-1.779-1.233-1.34-.576-8.045-.937-9.433-.433-1.666-7.285-4.111-7.625-5.029-.776-2.095-.319-2.956-.83-5.087-.138-.576-.606-1.021-.965-1.492-2.153-2.825-8.532-9.859-9.385-10.805-.857-.951 6.341-4.718 2.415-8.642-3.509-3.506-7.582 2.96-8.58 1.869-2.282-2.495-4.16-4.54-4.16-4.54zm-52.077-41.351c6.882 0 12.469 5.405 12.469 12.062 0 6.657-5.587 12.062-12.469 12.062-6.883 0-12.47-5.405-12.47-12.062 0-6.657 5.587-12.062 12.47-12.062z" fill="url(#e)" stroke="#000" stroke-width="2.17"/><path d="M648.521 661.692l83.023 83.898M655.862 655.402l83.694 81.774" fill="none" stroke="#000" stroke-width="1.86"/><path d="M639.502 640.832c1.118-1.048 1.842-2.019 2.172-2.913.518-1.403.182-2.739-1.008-4.007-1.198-1.277-2.524-1.652-3.977-1.121-.819.3-1.805.99-2.959 2.072l-4.724 4.431 5.68 6.055 4.816-4.517zm9.354 8.185c1.623-1.522 2.34-3.078 2.151-4.667-.123-1.003-.58-1.925-1.37-2.768-1.331-1.419-2.873-1.791-4.624-1.116-.931.357-1.953 1.056-3.062 2.095l-5.257 4.93 6.453 6.88 5.71-5.354zm-24.517-9.497l8.397-7.876c2.289-2.146 4.558-2.99 6.807-2.531 1.325.274 2.482.94 3.472 1.995 1.157 1.234 1.756 2.574 1.795 4.02.027.76-.138 1.631-.498 2.617 1.36-.558 2.514-.831 3.461-.818 1.677.029 3.219.791 4.625 2.29 1.181 1.26 1.856 2.772 2.023 4.532.25 2.632-.91 5.155-3.483 7.57l-8.264 7.75-18.335-19.55z" fill="none"/><path d="M639.502 640.832c1.118-1.048 1.842-2.019 2.172-2.913.518-1.403.182-2.739-1.008-4.007-1.198-1.277-2.524-1.652-3.977-1.121-.819.3-1.805.99-2.959 2.072l-4.724 4.431 5.68 6.055 4.816-4.517zm9.354 8.185c1.623-1.522 2.34-3.078 2.151-4.667-.123-1.003-.58-1.925-1.37-2.768-1.331-1.419-2.873-1.791-4.624-1.116-.931.357-1.953 1.056-3.062 2.095l-5.257 4.93 6.453 6.88 5.71-5.354zm-24.517-9.497l8.397-7.876c2.289-2.146 4.558-2.99 6.807-2.531 1.325.274 2.482.94 3.472 1.995 1.157 1.234 1.756 2.574 1.795 4.02.027.76-.138 1.631-.498 2.617 1.36-.558 2.514-.831 3.461-.818 1.677.029 3.219.791 4.625 2.29 1.181 1.26 1.856 2.772 2.023 4.532.25 2.632-.91 5.155-3.483 7.57l-8.264 7.75-18.335-19.55z" fill="#fff" fill-rule="nonzero"/><path d="M638.537 626.824l.145.004.145.008.143.01.145.013.144.016.144.017.145.02.143.022.144.026.146.029.167.035.163.041.163.04.162.046.16.048.16.053.16.054.156.057.158.062.154.064.154.068.152.07.15.073.15.076.148.079.146.082.145.086.144.088.142.091.14.093.137.097.136.1.137.101.132.106.131.107.13.108.128.112.125.115.124.118.123.12.121.121.117.125.134.146.131.145.126.147.123.15.12.153.114.149.06.082.056.077.055.078.054.08.055.08.051.079.053.08.05.08.05.082.049.082.049.081.046.082.044.083.046.085.044.082.043.084.042.086.041.084.04.087.04.084.037.087.037.088.035.087.037.088.033.087.032.09.032.087.03.09.03.089.027.089.028.091.026.09.025.09.023.09.022.092.022.092.021.092.02.092.016.091.019.093.015.093.015.093.013.092.013.093.012.094.008.094.01.092.007.094.007.095v.008l.057-.005.13-.011.13-.008.13-.008.131-.005h.261l.115.003.108.003.108.007.107.006.108.008.108.012.107.011.108.014.108.014.106.015.106.018.107.02.107.02.107.022.103.023.106.026.106.026.103.028.105.03.104.032.103.03.103.034.103.037.103.036.1.039.1.038.103.042.099.043.099.042.1.047.098.045.099.048.096.048.097.052.096.05.096.054.094.054.096.056.094.057.093.058.093.059.092.06.091.061.092.063.09.063.09.066.089.065.089.067.087.07.089.07.086.07.087.07.085.074.086.073.084.076.083.075.085.077.082.079.083.078.081.081.082.082.082.082.08.083.08.084.07.075.068.076.066.075.069.076.066.079.064.077.065.077.065.08.062.08.062.08.06.08.061.082.06.082.057.083.057.083.058.083.056.085.054.085.054.084.053.086.052.086.052.088.05.086.05.088.047.089.047.088.047.091.045.089.044.09.043.09.044.093.041.09.041.093.04.093.037.092.04.094.036.093.035.095.035.094.034.096.032.095.032.096.03.097.03.096.028.097.028.098.028.097.025.099.025.097.024.1.022.099.022.1.02.097.021.101.02.1.017.1.017.102.015.101.015.1.014.102.014.102.011.102.011.102.011.107.014.153.012.16.008.161.005.158.003.159.002.159-.003.158-.005.16-.008.158-.009.16-.014.159-.016.157-.018.158-.02.157-.024.157-.026.158-.029.157-.033.156-.032.155-.038.156-.04.154-.041.154-.045.154-.047.154-.05.152-.053.152-.055.151-.055.151-.061.15-.062.15-.064.149-.067.146-.069.15-.07.145-.075.146-.076.146-.078.145-.081.142-.082.144-.087.142-.086.142-.09.14-.092.143-.094.139-.095.138-.098.138-.1.137-.102.137-.105.136-.107.136-.108.135-.11.134-.112.133-.115.133-.117.132-.118.132-.12.13-.123.131-.124.132-.127.129-.13.129-.13.127-.13.128-.132.124-8.269 7.754-.116.102-.123.092-.13.086-.136.074-.14.066-.144.053-.15.045-.15.032-.153.023-.154.012h-.156l-.155-.01-.152-.02-.152-.034-.149-.042-.144-.053-.142-.064-.136-.074-.13-.085-.124-.09-.118-.102-.11-.109-18.334-19.55-.102-.116-.094-.124-.084-.13-.074-.135-.066-.14-.054-.145-.044-.148-.034-.153-.022-.152-.013-.154.001-.155.01-.155.023-.153.03-.152.044-.147.055-.146.062-.14.074-.137.083-.131.093-.125.1-.115.11-.11 8.401-7.88.118-.11.123-.113.123-.11.123-.108.124-.106.124-.104.125-.104.125-.1.125-.099.125-.097.129-.095.126-.093.129-.092.126-.088.128-.09.13-.085.13-.084.13-.082.13-.08.131-.077.132-.075.132-.076.133-.071.133-.071.134-.067.135-.065.135-.063.135-.063.136-.059.137-.056.137-.055.139-.054.138-.048.139-.048.14-.047.14-.043.14-.042.141-.037.142-.037.142-.033.142-.031.142-.029.143-.027.144-.024.144-.02.143-.02.145-.016.144-.013.145-.01.144-.01.146-.006.145-.004h.144l.145.002zm-.262 2.168l-.105.002-.106.004-.106.006-.105.009-.105.01-.108.01-.105.015-.106.015-.106.018-.106.02-.106.02-.107.024-.106.025-.106.029-.106.028-.107.03-.106.034-.105.035-.107.036-.107.039-.105.04-.108.043-.106.045-.105.045-.108.048-.106.05-.107.053-.106.053-.106.056-.107.057-.107.06-.106.061-.107.064-.107.065-.108.068-.106.069-.106.071-.108.073-.106.075-.107.077-.108.078-.105.08-.108.084-.108.084-.106.086-.108.089-.107.09-.106.091-.108.094-.107.096-.108.098-.107.1-8.397 7.876 18.335 19.55 8.264-7.752.12-.113.116-.114.116-.113.114-.115.112-.112.109-.116.106-.112.107-.115.102-.114.101-.116.099-.115.097-.114.093-.116.094-.115.09-.116.09-.114.085-.116.086-.116.081-.117.08-.116.079-.115.076-.117.074-.118.072-.116.07-.117.068-.117.066-.118.063-.118.061-.117.06-.117.059-.119.055-.118.052-.118.052-.12.05-.118.047-.118.044-.119.044-.12.04-.12.04-.118.035-.12.036-.12.033-.12.03-.12.029-.12.026-.121.025-.12.022-.121.02-.12.018-.123.017-.12.015-.12.01-.123.01-.122.009-.123.006-.12.003-.123.002-.122v-.123l-.002-.123-.006-.122-.005-.123-.009-.124-.01-.123-.008-.082-.011-.082-.01-.08-.01-.083-.01-.082-.014-.08-.012-.08-.013-.08-.013-.079-.016-.08-.015-.078-.017-.078-.017-.078-.019-.077-.018-.077-.019-.077-.02-.076-.021-.077-.021-.075-.023-.075-.023-.076-.024-.075-.024-.074-.025-.074-.027-.074-.026-.072-.028-.074-.028-.073-.03-.072-.03-.07-.03-.073-.03-.07-.032-.07-.033-.071-.034-.071-.033-.068-.036-.069-.035-.07-.037-.069-.037-.067-.038-.067-.038-.069-.04-.067-.04-.064-.04-.067-.042-.066-.044-.066-.043-.065-.042-.064-.046-.065-.045-.065-.047-.063-.046-.064-.049-.062-.048-.062-.048-.062-.05-.062-.051-.063-.05-.06-.053-.06-.052-.061-.053-.06-.057-.06-.053-.06-.068-.069-.065-.069-.067-.067-.065-.066-.067-.066-.067-.064-.068-.064-.068-.061-.068-.062-.067-.06-.067-.059-.07-.057-.066-.058-.07-.055-.07-.055-.067-.053-.07-.052-.07-.053-.069-.05-.07-.049-.07-.048-.07-.047-.07-.046-.07-.045-.07-.044-.073-.042-.07-.043-.072-.04-.073-.04-.07-.037-.072-.038-.073-.037-.071-.035-.073-.034-.074-.033-.071-.032-.074-.03-.073-.032-.074-.027-.073-.029-.076-.026-.073-.026-.074-.025-.076-.023-.074-.022-.076-.021-.074-.02-.075-.02-.076-.018-.075-.018-.076-.015-.076-.013-.078-.015-.076-.013-.077-.011-.076-.01-.077-.01-.078-.009-.077-.006-.078-.007-.079-.005-.077-.004-.078-.004h-.078l-.09-.001-.09.001-.093.002-.092.005-.094.007-.096.008-.097.01-.097.012-.098.012-.101.016-.102.016-.102.017-.103.02-.106.02-.107.023-.107.027-.109.026-.109.028-.113.03-.112.03-.113.034-.115.035-.116.037-.116.037-.119.04-.12.042-.12.044-.123.043-.123.046-.125.049-.125.05-.128.051.034-.092.032-.092.03-.09.03-.09.029-.09.026-.088.027-.089.025-.087.024-.087.024-.086.02-.086.022-.084.02-.085.017-.082.018-.084.016-.081.015-.083.014-.08.012-.08.012-.08.01-.078.01-.078.008-.077.007-.078.006-.074.005-.077.004-.075.002-.073.001-.075v-.144l-.002-.071-.003-.069-.002-.067-.004-.067-.005-.068-.006-.066-.007-.067-.007-.068-.008-.066-.009-.066-.01-.067-.01-.065-.01-.067-.014-.066-.01-.066-.016-.065-.014-.066-.015-.066-.016-.063-.018-.065-.017-.066-.018-.065-.02-.065-.02-.062-.021-.066-.022-.064-.024-.064-.023-.062-.024-.064-.026-.063-.024-.064-.029-.063-.028-.063-.028-.063-.028-.062-.03-.062-.031-.063-.032-.061-.033-.062-.033-.063-.034-.06-.035-.062-.037-.062-.035-.062-.039-.06-.038-.062-.038-.06-.04-.06-.04-.062-.044-.06-.041-.06-.043-.06-.044-.06-.09-.117-.094-.12-.098-.117-.1-.118-.103-.115-.107-.117-.094-.098-.095-.095-.094-.093-.096-.09-.097-.091-.099-.086-.099-.084-.1-.082-.101-.078-.102-.079-.103-.074-.104-.073-.106-.07-.106-.069-.107-.065-.108-.063-.108-.061-.11-.06-.112-.057-.111-.053-.113-.053-.113-.05-.116-.047-.116-.044-.117-.044-.117-.04-.12-.04-.12-.035-.12-.034-.122-.032-.122-.029-.124-.026-.106-.02-.105-.02-.106-.018-.105-.014-.106-.012-.105-.012-.105-.008-.107-.008-.105-.006-.105-.003h-.213zm8.47 11.149l.074.002.076.005.074.005.075.01.073.007.074.01.073.013.073.013.072.017.074.015.072.02.071.019.07.02.073.023.071.024.07.026.07.029.071.029.069.03.069.032.07.034.068.035.068.036.068.038.069.04.066.04.068.044.067.044.066.046.067.047.066.048.065.05.066.054.065.054.064.055.066.056.062.058.064.06.064.06.064.063.063.064.062.066.073.08.071.08.07.08.066.08.066.082.063.08.062.083.06.082.057.084.055.083.053.084.051.084.052.085.047.086.045.085.044.086.041.087.04.087.039.087.035.09.034.087.033.09.03.089.029.09.026.09.023.091.022.092.021.093.018.09.017.094.014.094.013.093.008.074.007.075.005.074.005.075.003.074.002.074v.075l-.002.072-.002.074-.004.075-.005.074-.006.075-.008.073-.009.075-.01.073-.013.074-.013.073-.013.074-.017.074-.015.073-.018.074-.021.073-.02.073-.023.074-.023.073-.026.073-.026.073-.028.074-.029.073-.03.073-.032.073-.033.074-.034.072-.035.072-.038.074-.037.072-.04.074-.04.071-.044.074-.043.071-.044.072-.046.074-.047.072-.05.072-.05.073-.052.072-.053.072-.053.073-.057.07-.056.074-.058.072-.06.072-.06.072-.063.072-.063.071-.066.072-.065.072-.068.071-.068.072-.071.071-.071.072-.073.071-.074.072-.076.071-5.709 5.355-6.453-6.88 5.257-4.93.105-.096.102-.096.103-.091.101-.09.103-.09.1-.086.1-.084.1-.083.101-.081.099-.078.098-.077.099-.074.096-.072.097-.071.097-.068.096-.067.095-.064.096-.064.094-.06.094-.058.093-.056.094-.055.09-.053.093-.05.092-.048.09-.047.09-.046.09-.04.09-.041.088-.04.088-.036.088-.034.081-.03.082-.03.08-.028.083-.027.08-.024.08-.023.081-.023.08-.018.08-.019.08-.018.077-.015.078-.015.079-.012.078-.012.078-.009.078-.007.075-.007.078-.004.075-.004.078-.001h.151zm-.124 2.167h-.033l-.032.002-.036.003-.034.001-.036.006-.037.004-.037.004-.04.006-.04.007-.04.01-.042.008-.042.01-.044.01-.044.013-.046.013-.048.014-.047.016-.049.016-.05.018-.051.02-.056.022-.054.022-.055.024-.057.026-.058.028-.06.028-.061.033-.063.033-.065.035-.066.039-.068.038-.069.042-.07.045-.07.046-.074.048-.074.05-.075.052-.077.054-.078.056-.08.059-.078.06-.081.064-.083.065-.083.068-.086.07-.084.07-.086.074-.088.078-.089.078-.09.081-.089.081-.095.09-3.671 3.443 3.485 3.717 4.124-3.868.065-.061.059-.058.058-.057.057-.056.055-.057.054-.056.052-.056.05-.055.051-.055.048-.055.047-.054.045-.053.044-.054.042-.052.041-.052.042-.051.038-.051.036-.052.036-.049.034-.05.034-.05.033-.048.029-.048.03-.048.027-.046.028-.047.025-.047.025-.043.024-.046.023-.044.02-.045.02-.042.02-.043.019-.041.017-.042.016-.04.014-.042.016-.04.013-.04.013-.038.01-.038.013-.04.009-.036.01-.038.008-.038.009-.037.006-.036.005-.036.007-.036.006-.034.004-.037.003-.036.003-.034.003-.035.002-.036v-.035l.001-.035V644.788l-.003-.035-.001-.037-.003-.036-.003-.036-.004-.031-.007-.048-.006-.048-.01-.047-.008-.048-.01-.045-.012-.047-.013-.046-.012-.045-.016-.047-.014-.045-.017-.046-.018-.046-.018-.047-.02-.045-.021-.047-.024-.047-.024-.048-.024-.047-.027-.048-.028-.049-.03-.048-.031-.05-.033-.048-.034-.05-.038-.052-.038-.05-.039-.05-.042-.054-.043-.051-.046-.052-.047-.052-.05-.056-.041-.042-.04-.042-.04-.041-.042-.038-.04-.037-.038-.036-.04-.034-.037-.031-.037-.032-.037-.029-.037-.029-.035-.026-.036-.025-.035-.023-.035-.024-.032-.02-.035-.021-.031-.02-.032-.018-.031-.017-.033-.015-.028-.014-.032-.015-.03-.012-.028-.012-.03-.013-.027-.01-.029-.009-.029-.008-.028-.01-.028-.007-.027-.007-.03-.006-.026-.008-.028-.005-.029-.003-.027-.005-.03-.004-.03-.002-.03-.002-.03-.002-.029-.001-.031-.001h-.033zm-8.606-9.75l.063.002.065.003.064.006.063.005.064.009.063.01.063.01.063.01.063.015.063.012.062.015.063.018.061.02.062.018.062.02.062.022.06.025.062.024.06.027.062.027.06.028.06.03.06.03.06.034.06.035.06.034.06.039.059.036.058.04.06.041.058.042.058.042.058.046.06.046.058.047.057.05.059.049.056.052.056.051.058.054.058.056.056.057.056.057.056.06.056.06.053.059.054.06.05.06.051.059.048.06.047.06.047.061.046.06.044.06.041.06.042.061.041.061.04.06.037.062.036.06.035.063.034.06.032.062.032.061.03.062.028.06.028.063.028.061.024.062.023.062.023.063.022.061.02.063.02.061.016.064.017.062.015.063.013.062.014.064.01.063.01.063.01.063.006.062.008.065.004.062.005.065.003.063v.063l.001.064v.064l-.004.065-.003.064-.005.063-.006.065-.007.065-.009.064-.011.065-.01.065-.014.064-.013.066-.015.065-.017.064-.016.067-.02.064-.019.066-.02.066-.023.065-.024.065-.033.084-.033.085-.038.084-.038.085-.041.087-.044.087-.046.086-.049.087-.05.088-.053.088-.056.088-.056.089-.06.089-.062.089-.065.091-.066.09-.069.093-.073.091-.072.091-.076.094-.08.093-.08.093-.082.095-.086.093-.086.096-.09.095-.092.096-.095.097-.096.096-.098.097-.102.098-.105.098-4.817 4.517-5.679-6.055 4.724-4.43.108-.101.107-.098.106-.095.103-.094.104-.09.103-.089.102-.088.1-.083.101-.083.1-.08.096-.075.098-.076.094-.074.096-.07.093-.069.094-.065.092-.063.09-.062.09-.059.09-.058.087-.053.088-.053.086-.05.085-.048.084-.044.083-.045.082-.04.082-.039.078-.035.08-.035.08-.03.077-.03.068-.025.068-.023.066-.021.068-.02.068-.018.066-.019.068-.015.066-.016.067-.014.066-.011.066-.011.068-.01.064-.007.067-.008.064-.005.066-.006.065-.001.065-.002h.13zm-.096 2.168h-.022l-.02.001h-.023l-.022.004-.024.002-.025.003-.022.003-.027.005-.026.004-.028.006-.027.007-.03.007-.028.007-.032.01-.032.009-.032.01-.035.012-.026.01-.036.013-.036.013-.04.018-.043.019-.044.02-.049.026-.05.026-.054.028-.055.031-.058.034-.06.036-.062.038-.065.043-.067.042-.069.047-.071.049-.073.053-.074.054-.077.057-.078.058-.08.062-.081.066-.084.066-.085.07-.087.073-.087.074-.09.077-.091.08-.092.084-.095.084-.094.088-.1.093-3.14 2.946 2.713 2.891 3.232-3.032.093-.089.087-.084.084-.082.083-.083.08-.079.076-.082.074-.078.071-.076.07-.078.066-.075.064-.075.062-.074.059-.07.056-.07.054-.069.05-.068.049-.066.047-.064.042-.063.042-.062.039-.06.036-.059.033-.054.032-.056.03-.053.026-.05.026-.05.02-.048.022-.045.019-.043.017-.042.017-.041.009-.03.011-.03.01-.032.01-.03.008-.028.006-.03.008-.027.006-.028.006-.027.005-.024.005-.025.003-.026.002-.023.004-.023.003-.024v-.024l.001-.02.002-.023.001-.021v-.023l-.001-.02v-.022l-.001-.02-.002-.02-.002-.022-.004-.02-.002-.02-.004-.022-.003-.023-.005-.02-.005-.022-.005-.023-.006-.022-.006-.023-.007-.024-.009-.022-.008-.026-.009-.025-.01-.024-.01-.027-.011-.026-.013-.027-.013-.028-.014-.028-.014-.029-.016-.03-.017-.03-.016-.03-.02-.032-.02-.032-.02-.034-.023-.032-.023-.035-.025-.035-.025-.035-.027-.034-.028-.038-.03-.037-.03-.037-.032-.038-.034-.04-.035-.038-.035-.041-.037-.04-.037-.039-.037-.037-.036-.035-.036-.035-.034-.035-.035-.03-.033-.031-.035-.029-.033-.027-.032-.026-.032-.026-.03-.024-.032-.023-.028-.02-.03-.02-.028-.02-.028-.017-.028-.017-.026-.017-.026-.014-.024-.013-.025-.012-.025-.013-.023-.011-.022-.01-.022-.01-.02-.009-.023-.007-.02-.008-.02-.008-.021-.006-.019-.005-.02-.005-.019-.005-.018-.005-.018-.004-.019-.003-.02-.002-.018-.003-.017-.002-.02-.002-.02-.002h-.018l-.02-.002h-.02l-.019.001z"/><g><path d="M936.867 907.247l-222.026.011-.261 276.83h222.287V907.247z" fill="#fff" stroke="#000" stroke-width="3.8"/><path d="M810.189 1079.73c1.069.698 3.282 1.047 6.639 1.047 10.465 0 19.077-2.072 25.836-6.214 10.378-6.366 15.567-17.246 15.567-32.638 0-13.736-4.273-24.07-12.82-31.003-7.326-5.931-17.028-8.896-29.106-8.896-3.009 0-5.047.327-6.116.981-1.068.654-1.602 2.093-1.602 4.317v68.089c0 2.18.534 3.619 1.602 4.317zm-26.98 3.597c4.884-.523 8.067-1.406 9.549-2.649 1.483-1.242 2.224-4.393 2.224-9.451v-59.586c0-4.884-.719-8.023-2.158-9.419-1.439-1.395-4.644-2.267-9.615-2.616v-2.485h36.105c12.165 0 22.456 2.005 30.872 6.017 15.174 7.195 22.762 20.058 22.762 38.59 0 6.672-1.363 13.016-4.088 19.034-2.726 6.017-6.835 11.097-12.33 15.24-3.488 2.616-7.107 4.6-10.857 5.952-6.846 2.529-15.262 3.794-25.247 3.794h-37.217v-2.421z" fill-rule="nonzero"/><path d="M730.333 951.626l24.555-13.309 20.776 16.54 19.872-8.116 22.013 14.28 19.151-11.972 21.542 14.952 18.833-12.199 19.031-6.654 2.177 8.019 17.414-1.541M730.333 918.619l19.163 11.798 18.137-3.832 15.684 7.793 19.565-7.934 11.372-10.022 13.369 15.18 29.335-12.329 24.763 18.803 18.414-14.077 15.562 3.59M735.75 1161.45l22.351 11.4 17.106-23.49 24.391 11.193 18.249-12.042 15.436 25.001 7.561-8.028 30.741-12.609 14.845 12.736 15.571 3.66 13.696-12.676M735.75 1132.95l22.364-10.585 13.865 3.056 21.518 16.856 29.842-10.859 32.062 14.754 5.362-16.553 49.2 9.028 5.734-5.697M735.75 1109.34l30.076-12.242 27.221 16.731 18.831-9.944 19.536 18.768 20.055-27.933 25.464 24.421 20.789-18.832 17.975 9.031M730.341 981.073l21.947-13.226 27.249 9.925 22.576-11.375 13.796 11.639 26.057 5.072 22.947-6.381 11.215-12.632 19.153 19.092 20.416-8.406" fill="none" stroke="#000" stroke-width="2.98"/></g><defs><radialGradient id="a" cx="0" cy="0" r="1" gradientUnits="userSpaceOnUse" gradientTransform="matrix(72.9504 -68.6205 55.3758 37.6385 689.831 263.856)"><stop offset="0%" stop-color="#2531dc"/><stop offset="100%" stop-color="#969bee"/></radialGradient><radialGradient id="b" cx="0" cy="0" r="1" gradientUnits="userSpaceOnUse" gradientTransform="matrix(118.991 -74.3598 55.2578 88.4241 696.894 202.306)"><stop offset="0%" stop-color="#2531dc"/><stop offset="100%" stop-color="#969bee"/></radialGradient><linearGradient id="c" x2="1" gradientUnits="userSpaceOnUse" gradientTransform="rotate(-31.346 593.306 -1026.804) scale(101.7399)"><stop offset="0%" stop-color="#dbbb9c"/><stop offset="56%" stop-color="#d0a67c"/><stop offset="100%" stop-color="#cb9d6e"/></linearGradient><radialGradient id="d" cx="0" cy="0" r="1" gradientUnits="userSpaceOnUse" gradientTransform="matrix(-87.222 49.0831 -31.1721 -55.3936 698.799 60.812)"><stop offset="0%" stop-color="#d7c447"/><stop offset="100%" stop-color="#e6d38c"/></radialGradient><radialGradient id="e" cx="0" cy="0" r="1" gradientUnits="userSpaceOnUse" gradientTransform="matrix(58.4875 22.275 -22.8914 60.106 656.153 628.968)"><stop offset="0%" stop-color="#3ce61a"/><stop offset="100%" stop-color="#aef4a0"/></radialGradient></defs></svg>