<svg viewBox="0 0 956 1200" xmlns="http://www.w3.org/2000/svg" fill-rule="evenodd" clip-rule="evenodd" stroke-linecap="round" stroke-linejoin="round" stroke-miterlimit="1.414"><path d="M844.081 9.52l-833.912.039-.012 1038.55h833.924V9.519z" fill="#fff" stroke="#000" stroke-width="14.24"/><g fill-rule="nonzero"><path d="M111.362 150.74h-9.193l-27.24-53.16v53.16h-7.66V89.093H78.9l24.802 48.813V89.094h7.66v61.645zM149.081 139.356v-12.832c-1.851.162-4.19.388-7.016.678-2.834.29-5.116.7-6.855 1.222-2.07.636-3.78 1.611-5.137 2.919-1.35 1.314-2.028 3.144-2.028 5.49 0 2.65.75 4.65 2.24 6 1.491 1.356 3.668 2.027 6.537 2.027 2.459 0 4.684-.53 6.67-1.59a29.087 29.087 0 0 0 5.59-3.914zm0 6.458c-.636.467-1.484 1.124-2.55 1.965-1.06.848-2.085 1.512-3.081 2.013-1.378.714-2.714 1.265-3.993 1.654-1.286.389-3.088.58-5.405.58a13.951 13.951 0 0 1-9.935-4.099c-1.244-1.272-2.24-2.834-2.982-4.699-.75-1.865-1.117-3.83-1.117-5.9 0-3.201.671-5.929 2.028-8.176 1.35-2.254 3.49-4.042 6.416-5.363 2.594-1.187 5.66-2.007 9.193-2.466a156.04 156.04 0 0 1 11.426-1.01v-1.492c0-1.823-.275-3.292-.826-4.409-.559-1.116-1.329-1.986-2.325-2.586-.99-.636-2.205-1.06-3.64-1.265a31.294 31.294 0 0 0-4.43-.31c-1.795 0-3.907.268-6.338.805-2.424.537-4.855 1.321-7.285 2.339h-.453v-7.907c1.435-.417 3.491-.87 6.17-1.364a43.092 43.092 0 0 1 7.949-.75c3.172 0 5.85.248 8.027.75a15.437 15.437 0 0 1 5.886 2.692c1.682 1.265 2.94 2.911 3.766 4.925.827 2.014 1.244 4.473 1.244 7.37v31.628h-7.745v-4.925zM220.252 150.74v-26.746c0-2.127-.085-4.091-.247-5.9-.17-1.81-.51-3.223-1.04-4.24-.55-1.11-1.335-1.922-2.36-2.445-1.017-.523-2.395-.784-4.133-.784-1.604 0-3.321.487-5.158 1.47-1.837.975-3.731 2.388-5.696 4.24.029.473.064 1.03.106 1.674.043.65.064 1.42.064 2.303v30.427h-7.787v-26.745c0-2.127-.078-4.091-.247-5.9-.163-1.81-.509-3.223-1.032-4.24-.558-1.11-1.342-1.922-2.36-2.445-1.025-.523-2.402-.784-4.14-.784-1.69 0-3.456.523-5.3 1.568-1.852 1.053-3.647 2.389-5.385 4.021v34.525h-7.787v-46.248h7.787v5.137c2.042-2.042 4.063-3.625 6.063-4.741 2.007-1.117 4.204-1.675 6.607-1.675 2.734 0 5.151.622 7.264 1.859 2.113 1.243 3.724 3.285 4.826 6.133 2.346-2.622 4.635-4.614 6.875-5.964 2.233-1.357 4.664-2.028 7.286-2.028 1.985 0 3.794.311 5.42.933 1.632.615 3.052 1.618 4.267 2.996 1.244 1.413 2.198 3.166 2.876 5.264.679 2.092 1.018 4.728 1.018 7.907v30.427h-7.787zM259.045 151.82c-7.37 0-13.086-2.077-17.156-6.232-4.078-4.155-6.113-10.055-6.113-17.7 0-7.533 1.979-13.532 5.922-17.991 3.95-4.459 9.108-6.685 15.489-6.685 2.869 0 5.406.41 7.617 1.244 2.205.827 4.141 2.12 5.794 3.886 1.654 1.767 2.926 3.929 3.81 6.48.882 2.558 1.328 5.681 1.328 9.377v4.225h-32.053c0 5.385 1.357 9.497 4.063 12.338 2.707 2.848 6.445 4.268 11.222 4.268 1.71 0 3.384-.198 5.03-.58 1.64-.388 3.124-.883 4.445-1.49 1.414-.636 2.6-1.251 3.562-1.845.968-.593 1.766-1.152 2.402-1.674h.46v8.486l-3.4 1.343c-1.349.537-2.564.96-3.646 1.264-1.512.417-2.89.735-4.12.954-1.222.22-2.776.332-4.656.332zm9.109-29.36c-.05-2.098-.304-3.9-.742-5.42-.446-1.519-1.074-2.805-1.908-3.85-.912-1.16-2.078-2.042-3.498-2.65-1.42-.608-3.18-.912-5.278-.912-2.07 0-3.83.311-5.279.933-1.448.622-2.763 1.526-3.95 2.713a12.643 12.643 0 0 0-2.65 4.035c-.607 1.477-.996 3.194-1.166 5.151h24.47zM297.923 116.292h-9.892v-11.8h9.892v11.8zm0 34.447h-9.892v-11.8h9.892v11.8zM403.796 150.74h-15.404v-40.864l-11.221 26.378h-10.557l-11.221-26.378v40.863h-14.57V89.094h17.841l13.666 30.427 13.617-30.427h17.849v61.645zM441.346 138.614v-9.695c-2.46.254-4.445.466-5.964.643-1.512.184-3.003.53-4.466 1.06-1.272.438-2.261 1.11-2.96 2.007-.707.897-1.06 2.091-1.06 3.582 0 2.177.586 3.675 1.759 4.487 1.173.82 2.904 1.223 5.2 1.223 1.265 0 2.566-.29 3.887-.87a12.03 12.03 0 0 0 3.604-2.437zm0 7.2c-.99.827-1.88 1.576-2.671 2.233-.785.664-1.845 1.329-3.166 1.993a21.225 21.225 0 0 1-3.787 1.448c-1.23.332-2.947.495-5.159.495-4.112 0-7.525-1.378-10.246-4.14-2.72-2.757-4.077-6.24-4.077-10.43 0-3.456.693-6.24 2.07-8.367 1.378-2.127 3.371-3.809 5.964-5.052 2.622-1.272 5.752-2.155 9.398-2.65 3.64-.495 7.561-.883 11.758-1.159v-.247c0-2.565-.946-4.339-2.84-5.321-1.887-.982-4.72-1.47-8.508-1.47-1.71 0-3.71.311-5.999.933a46.426 46.426 0 0 0-6.706 2.381h-1.243v-11.22c1.434-.418 3.752-.905 6.953-1.47a55.6 55.6 0 0 1 9.687-.849c8.006 0 13.836 1.329 17.496 3.993 3.653 2.664 5.484 6.727 5.484 12.196v31.628h-14.408v-4.925zM466.48 86.317h14.493v64.422H466.48zM492.067 86.317h14.492v64.422h-14.492zM562.283 127.513c0 7.645-2.091 13.673-6.267 18.075-4.184 4.402-10.098 6.6-17.744 6.6-7.589 0-13.489-2.198-17.7-6.6-4.212-4.402-6.317-10.43-6.317-18.075 0-7.73 2.105-13.78 6.317-18.153 4.211-4.374 10.111-6.565 17.7-6.565 7.618 0 13.525 2.205 17.722 6.607 4.19 4.402 6.29 10.437 6.29 18.11zm-14.86.085c0-2.763-.226-5.06-.685-6.897-.453-1.83-1.081-3.3-1.88-4.41-.862-1.158-1.823-1.964-2.904-2.416-1.074-.46-2.304-.685-3.682-.685-1.3 0-2.473.197-3.519.6-1.052.396-2.013 1.166-2.897 2.297-.826 1.074-1.49 2.55-1.992 4.43-.495 1.88-.742 4.24-.742 7.08 0 2.841.233 5.138.706 6.897.467 1.753 1.074 3.152 1.816 4.197.778 1.082 1.746 1.866 2.905 2.36 1.158.502 2.437.75 3.85.75 1.16 0 2.34-.248 3.534-.75 1.201-.494 2.162-1.243 2.883-2.232.855-1.187 1.505-2.615 1.943-4.29.445-1.667.664-3.978.664-6.931zM601.204 117.952h-1.201c-.552-.198-1.35-.339-2.403-.438a39.895 39.895 0 0 0-3.476-.141c-1.52 0-3.11.219-4.784.657a47.625 47.625 0 0 0-4.862 1.576v31.133h-14.493v-46.495h14.493v6.67c.664-.607 1.583-1.378 2.756-2.303 1.173-.919 2.24-1.66 3.208-2.212 1.046-.636 2.268-1.18 3.66-1.64 1.4-.452 2.714-.678 3.957-.678.467 0 .99.014 1.576.043.58.028 1.102.063 1.569.12v13.708z"/><path d="M650.144 104.244l-23.474 63.553h-15.566l7.037-18.174-17.057-45.38h15.234l9.773 29.149 9.15-29.148h14.903z"/></g><path d="M106.188 647.696c0 2.677-.476 5.21-1.428 7.597-.953 2.388-2.271 4.424-3.954 6.107-2.126 2.098-4.624 3.685-7.494 4.762-2.871 1.076-6.501 1.615-10.889 1.615h-6.956v22.979h-8.198v-61.65h15.485c3.643 0 6.748.303 9.316.911 2.567.607 4.83 1.587 6.79 2.939 2.291 1.574 4.085 3.568 5.382 5.983 1.297 2.415 1.946 5.334 1.946 8.757zm-8.529.207c0-2.125-.366-3.975-1.097-5.548-.732-1.573-1.843-2.857-3.333-3.851-1.298-.855-2.809-1.463-4.534-1.821-1.725-.359-3.871-.539-6.438-.539h-6.79v24.635h5.589c3.312 0 5.99-.269 8.032-.807 2.043-.538 3.741-1.497 5.093-2.877 1.215-1.243 2.098-2.595 2.65-4.058.552-1.463.828-3.174.828-5.134zM149.413 690.756h-7.784v-5.135c-2.401 2.098-4.678 3.692-6.831 4.783-2.153 1.09-4.555 1.635-7.204 1.635-2.015 0-3.913-.331-5.693-.994-1.781-.662-3.333-1.711-4.658-3.146-1.325-1.436-2.353-3.244-3.085-5.424-.731-2.181-1.097-4.831-1.097-7.95v-30.017h7.784v26.332c0 2.457.09 4.493.269 6.107.179 1.615.587 3.03 1.221 4.244.635 1.187 1.498 2.057 2.588 2.609s2.657.828 4.699.828c1.905 0 3.934-.538 6.087-1.615a27.739 27.739 0 0 0 5.92-3.975v-34.53h7.784v46.248zM191.438 667.487c0-5.521-.842-9.709-2.526-12.566-1.684-2.857-4.389-4.285-8.115-4.285-2.125 0-4.271.496-6.438 1.49a24.97 24.97 0 0 0-5.9 3.768v26.498c1.96.966 3.699 1.649 5.217 2.049 1.518.401 3.188.601 5.009.601 3.975 0 7.094-1.408 9.358-4.223 2.263-2.816 3.395-7.26 3.395-13.332zm8.032-.621c0 7.563-1.836 13.649-5.507 18.259-3.671 4.609-8.267 6.914-13.787 6.914-2.512 0-4.658-.311-6.438-.932a28.247 28.247 0 0 1-5.279-2.504l-.497 2.153h-7.287v-64.424h7.784v23.02a29.205 29.205 0 0 1 6.376-4.389c2.291-1.159 4.886-1.739 7.784-1.739 5.217 0 9.329 2.091 12.338 6.273 3.009 4.182 4.513 9.971 4.513 17.369zM207.709 626.332h7.784v64.424h-7.784zM234.953 690.756h-7.784v-46.248h7.784v46.248zm.538-53.991h-8.86v-8.073h8.86v8.073zM264.763 691.791c-3.174 0-6.086-.49-8.736-1.47-2.65-.98-4.927-2.464-6.832-4.451-1.904-1.987-3.381-4.492-4.43-7.515-1.049-3.022-1.573-6.576-1.573-10.661 0-4.058.545-7.563 1.635-10.517 1.091-2.953 2.547-5.437 4.368-7.452 1.822-2.015 4.092-3.568 6.811-4.658 2.719-1.09 5.638-1.636 8.757-1.636 2.54 0 4.989.359 7.349 1.077 2.36.718 4.465 1.546 6.314 2.484v8.736h-.455a29.332 29.332 0 0 0-2.132-1.615c-.87-.607-1.926-1.228-3.168-1.863-1.076-.552-2.346-1.035-3.809-1.449-1.463-.414-2.871-.621-4.223-.621-4.03 0-7.266 1.525-9.709 4.575-2.443 3.05-3.664 7.363-3.664 12.939 0 5.465 1.18 9.723 3.54 12.773 2.36 3.05 5.637 4.575 9.833 4.575 2.539 0 4.955-.525 7.246-1.573 2.291-1.049 4.319-2.402 6.086-4.058h.455v8.736c-.773.359-1.739.794-2.898 1.304-1.159.511-2.208.89-3.147 1.139a41.911 41.911 0 0 1-3.56.89c-1.049.207-2.402.311-4.058.311zM357.548 690.756h-10.641l-22.482-28.693-3.602 4.057v24.636h-8.198v-61.65h8.198v28.361l25.256-28.361h9.979l-25.505 27.533 26.995 34.117z" fill-rule="nonzero"/><path d="M379.575 691.832c-7.37 0-13.091-2.077-17.162-6.231s-6.107-10.054-6.107-17.7c0-7.536 1.974-13.532 5.921-17.99 3.947-4.458 9.109-6.687 15.485-6.687 2.87 0 5.41.414 7.618 1.243 2.208.828 4.14 2.125 5.796 3.891 1.656 1.767 2.926 3.927 3.809 6.48.884 2.553 1.325 5.679 1.325 9.378v4.223h-32.046c0 5.383 1.353 9.495 4.058 12.338s6.445 4.265 11.22 4.265c1.711 0 3.388-.193 5.03-.58 1.643-.386 3.126-.883 4.451-1.49 1.408-.635 2.595-1.249 3.561-1.843.966-.593 1.767-1.152 2.401-1.677h.456v8.488c-.911.359-2.043.807-3.395 1.346-1.353.538-2.567.959-3.644 1.262a48.052 48.052 0 0 1-4.119.953c-1.229.221-2.781.331-4.658.331zm9.109-29.355c-.056-2.098-.304-3.906-.746-5.424-.441-1.518-1.076-2.801-1.904-3.85-.911-1.16-2.077-2.043-3.499-2.65-1.421-.607-3.181-.911-5.279-.911-2.07 0-3.83.31-5.279.932-1.449.621-2.767 1.525-3.954 2.711-1.159 1.215-2.042 2.561-2.65 4.037-.607 1.477-.993 3.195-1.159 5.155h24.47zM440.479 644.508l-24.883 63.306h-8.322l8.28-19.294-16.809-44.012h8.404l12.628 34.241 12.587-34.241h8.115zM460.684 656.308h-9.895v-11.8h9.895v11.8zm0 34.448h-9.895v-11.8h9.895v11.8z" fill-rule="nonzero"/><g fill-rule="nonzero"><path d="M67.27 886.348v-61.645h38.545v7.285h-30.35v16.895h28.28v7.286h-28.28v22.894h30.35v7.285H67.27zM150.155 886.348h-9.56l-11.221-17.467-11.553 17.467h-8.819l16.061-22.936-15.898-23.312h9.567l11.136 17.312 11.426-17.312h8.861l-15.983 22.774 15.983 23.474zM194.997 862.005c0 7.702-1.844 13.836-5.525 18.408-3.689 4.564-8.345 6.847-13.977 6.847-2.29 0-4.318-.262-6.084-.784-1.767-.523-3.576-1.343-5.427-2.445v19.375h-7.78V840.1h7.78v4.848a28.708 28.708 0 0 1 6.437-4.367c2.36-1.173 4.94-1.76 7.724-1.76 5.3 0 9.433 2.099 12.4 6.29 2.969 4.196 4.452 9.828 4.452 16.894zm-8.034.87c0-5.272-.84-9.363-2.522-12.274-1.69-2.912-4.417-4.367-8.197-4.367-2.212 0-4.346.487-6.402 1.47-2.056.975-4.007 2.24-5.858 3.787v26.208c2.042.99 3.787 1.668 5.236 2.028 1.449.36 3.116.537 4.989.537 4.035 0 7.165-1.476 9.405-4.43 2.233-2.954 3.35-7.271 3.35-12.96zM211.016 886.348h-7.78V840.1h7.78v46.248zm.545-53.985H202.7v-8.077h8.86v8.077zM246.955 848.467h-.41a8.976 8.976 0 0 0-1.844-.311 36.628 36.628 0 0 0-2.339-.064c-2.099 0-4.183.46-6.254 1.37-2.07.912-4.027 2.262-5.879 4.057v32.83h-7.78V840.1h7.78v6.876c2.848-2.509 5.321-4.283 7.434-5.321 2.113-1.032 4.162-1.555 6.148-1.555.798 0 1.399.021 1.801.064.403.042.848.106 1.343.19v8.113zM277.39 874.965v-12.832c-1.852.162-4.191.388-7.018.678-2.833.29-5.116.7-6.854 1.222-2.07.636-3.78 1.611-5.13 2.919-1.357 1.314-2.035 3.144-2.035 5.49 0 2.65.75 4.65 2.24 6 1.491 1.356 3.667 2.027 6.543 2.027 2.452 0 4.678-.53 6.664-1.59a29.087 29.087 0 0 0 5.59-3.914zm0 6.458a90.756 90.756 0 0 0-2.545 1.965c-1.067.848-2.091 1.512-3.088 2.013-1.378.714-2.713 1.265-3.992 1.654-1.286.389-3.088.58-5.406.58-1.9 0-3.71-.361-5.427-1.075a14.016 14.016 0 0 1-4.508-3.024c-1.243-1.272-2.24-2.834-2.982-4.699-.749-1.865-1.116-3.83-1.116-5.9 0-3.201.671-5.929 2.028-8.176 1.35-2.254 3.49-4.042 6.416-5.363 2.593-1.187 5.66-2.007 9.193-2.466a156.04 156.04 0 0 1 11.426-1.01v-1.492c0-1.823-.275-3.292-.827-4.409-.55-1.116-1.328-1.986-2.317-2.586-.997-.636-2.212-1.06-3.647-1.265a31.294 31.294 0 0 0-4.43-.31c-1.795 0-3.908.268-6.331.805-2.431.537-4.862 1.321-7.293 2.339h-.452v-7.907c1.435-.417 3.49-.87 6.169-1.364a43.092 43.092 0 0 1 7.95-.75c3.172 0 5.85.248 8.034.75 2.176.494 4.14 1.392 5.879 2.692 1.681 1.265 2.94 2.911 3.766 4.925.827 2.014 1.244 4.473 1.244 7.37v31.628h-7.745v-4.925zM310.056 887.26c-4.254 0-7.56-1.208-9.935-3.618-2.374-2.417-3.561-6.232-3.561-11.454v-25.63h-5.258V840.1h5.258v-13.284h7.78V840.1h14.33v6.459h-14.33v21.99c0 2.346.042 4.155.127 5.42a9.257 9.257 0 0 0 .954 3.56c.466.969 1.23 1.697 2.275 2.177 1.053.48 2.473.72 4.268.72 1.265 0 2.494-.183 3.681-.557 1.188-.368 2.043-.679 2.565-.933h.46v7.002c-1.463.41-2.947.735-4.452.969-1.505.24-2.89.353-4.162.353zM332.371 886.348h-7.78V840.1h7.78v46.248zm.537-53.985h-8.854v-8.077h8.854v8.077zM381.848 863.249c0 7.78-1.872 13.793-5.631 18.033-3.752 4.233-8.748 6.352-14.988 6.352-6.43 0-11.49-2.19-15.17-6.564-3.69-4.374-5.527-10.317-5.527-17.821 0-7.73 1.894-13.737 5.689-18.012 3.794-4.282 8.797-6.416 15.008-6.416 6.24 0 11.236 2.134 14.988 6.395 3.759 4.268 5.631 10.274 5.631 18.033zm-8.034 0c0-5.992-1.088-10.444-3.264-13.355-2.184-2.911-5.286-4.367-9.32-4.367-4.057 0-7.18 1.456-9.378 4.367-2.19 2.911-3.292 7.363-3.292 13.355 0 5.794 1.102 10.19 3.292 13.185 2.198 2.997 5.321 4.495 9.377 4.495 4.007 0 7.102-1.47 9.3-4.41 2.19-2.94 3.285-7.363 3.285-13.27zM426.196 886.348h-7.787V860.02c0-2.127-.106-4.106-.311-5.943-.205-1.837-.6-3.307-1.18-4.41-.636-1.158-1.52-2.02-2.65-2.585-1.13-.566-2.678-.848-4.635-.848-1.936 0-3.93.515-5.985 1.547-2.057 1.039-4.063 2.381-6.02 4.042v34.525h-7.788V840.1h7.787v5.137c2.318-2.07 4.607-3.66 6.869-4.762a16.167 16.167 0 0 1 7.165-1.654c4.55 0 8.112 1.498 10.684 4.494 2.565 2.99 3.85 7.335 3.85 13.016v30.017zM451.45 851.9h-9.9v-11.8h9.9v11.8zm0 34.448h-9.9v-11.8h9.9v11.8zM183.07 971.142h-38.045v-8.649a724.616 724.616 0 0 0 7.738-7.454 164.864 164.864 0 0 0 7.123-7.413c4.692-5.158 7.892-9.292 9.603-12.4 1.717-3.103 2.572-6.311 2.572-9.625 0-1.71-.269-3.215-.806-4.515-.544-1.293-1.279-2.375-2.219-3.23a9.68 9.68 0 0 0-3.356-1.858c-1.265-.417-2.664-.622-4.176-.622-1.463 0-2.947.184-4.452.558a33.687 33.687 0 0 0-4.332 1.385 23.271 23.271 0 0 0-3.349 1.696c-1.081.664-1.95 1.23-2.607 1.703h-.46v-8.783c1.71-.855 4.092-1.689 7.144-2.501 3.053-.813 5.943-1.223 8.678-1.223 5.737 0 10.238 1.526 13.496 4.579 3.257 3.045 4.883 7.18 4.883 12.394 0 2.403-.283 4.628-.848 6.67a24.633 24.633 0 0 1-2.34 5.675 39.543 39.543 0 0 1-3.688 5.335 103.183 103.183 0 0 1-4.55 5.222 189.172 189.172 0 0 1-8.678 8.776 748.86 748.86 0 0 1-7.638 7.2h30.307v7.08zM229.65 940.299c0 11.065-1.604 19.191-4.82 24.364-3.221 5.18-8.182 7.766-14.888 7.766-6.79 0-11.772-2.636-14.945-7.908-3.172-5.27-4.762-13.32-4.762-24.138 0-11.122 1.61-19.262 4.826-24.406 3.215-5.151 8.176-7.724 14.881-7.724 6.791 0 11.773 2.664 14.945 7.992 3.18 5.328 4.763 13.341 4.763 24.054zm-10.6 18.796c.8-2.042 1.372-4.622 1.697-7.738.332-3.123.501-6.805.501-11.058 0-4.226-.17-7.893-.501-11.017-.325-3.116-.912-5.709-1.739-7.78-.826-2.098-1.964-3.695-3.413-4.783-1.448-1.088-3.335-1.633-5.653-1.633-2.289 0-4.176.545-5.653 1.633-1.476 1.088-2.642 2.713-3.497 4.868-.827 2.099-1.392 4.749-1.696 7.95-.304 3.2-.46 6.812-.46 10.846 0 4.304.135 7.907.396 10.805.262 2.897.834 5.49 1.717 7.787.806 2.12 1.943 3.759 3.42 4.903 1.477 1.145 3.4 1.718 5.773 1.718 2.29 0 4.177-.545 5.653-1.633 1.477-1.095 2.629-2.713 3.456-4.868zM275.65 971.142H237.6v-8.649a727.622 727.622 0 0 0 7.744-7.454 164.864 164.864 0 0 0 7.123-7.413c4.692-5.158 7.893-9.292 9.603-12.4 1.71-3.103 2.565-6.311 2.565-9.625 0-1.71-.269-3.215-.806-4.515-.537-1.293-1.279-2.375-2.212-3.23a9.68 9.68 0 0 0-3.356-1.858c-1.272-.417-2.664-.622-4.183-.622-1.463 0-2.947.184-4.452.558a33.233 33.233 0 0 0-4.324 1.385 23.721 23.721 0 0 0-3.357 1.696 49.651 49.651 0 0 0-2.607 1.703h-.453v-8.783c1.71-.855 4.092-1.689 7.144-2.501 3.046-.813 5.936-1.223 8.67-1.223 5.745 0 10.24 1.526 13.497 4.579 3.257 3.045 4.89 7.18 4.89 12.394 0 2.403-.283 4.628-.848 6.67a24.964 24.964 0 0 1-2.346 5.675c-1.018 1.787-2.247 3.568-3.682 5.335a99.926 99.926 0 0 1-4.557 5.222c-2.594 2.812-5.484 5.737-8.67 8.776a832.43 832.43 0 0 1-7.639 7.2h30.307v7.08zM322.231 940.299c0 11.065-1.611 19.191-4.826 24.364-3.215 5.18-8.176 7.766-14.882 7.766-6.79 0-11.772-2.636-14.952-7.908-3.172-5.27-4.755-13.32-4.755-24.138 0-11.122 1.604-19.262 4.819-24.406 3.215-5.151 8.176-7.724 14.888-7.724 6.791 0 11.773 2.664 14.945 7.992 3.173 5.328 4.763 13.341 4.763 24.054zm-10.6 18.796c.8-2.042 1.365-4.622 1.697-7.738.332-3.123.494-6.805.494-11.058 0-4.226-.162-7.893-.494-11.017-.332-3.116-.912-5.709-1.739-7.78-.826-2.098-1.964-3.695-3.42-4.783-1.448-1.088-3.328-1.633-5.646-1.633-2.296 0-4.176.545-5.652 1.633-1.477 1.088-2.643 2.713-3.498 4.868-.827 2.099-1.4 4.749-1.703 7.95-.297 3.2-.452 6.812-.452 10.846 0 4.304.134 7.907.395 10.805.262 2.897.834 5.49 1.717 7.787.799 2.12 1.937 3.759 3.413 4.903 1.477 1.145 3.406 1.718 5.78 1.718 2.29 0 4.17-.545 5.646-1.633 1.477-1.095 2.636-2.713 3.463-4.868zM329.39 940.426h23.353v7.497h-23.354zM399.323 940.299c0 11.065-1.611 19.191-4.826 24.364-3.215 5.18-8.176 7.766-14.881 7.766-6.791 0-11.773-2.636-14.945-7.908-3.18-5.27-4.763-13.32-4.763-24.138 0-11.122 1.604-19.262 4.82-24.406 3.214-5.151 8.182-7.724 14.888-7.724 6.79 0 11.772 2.664 14.944 7.992 3.173 5.328 4.763 13.341 4.763 24.054zm-10.6 18.796c.8-2.042 1.365-4.622 1.697-7.738.332-3.123.494-6.805.494-11.058 0-4.226-.162-7.893-.494-11.017-.332-3.116-.912-5.709-1.739-7.78-.826-2.098-1.964-3.695-3.413-4.783-1.448-1.088-3.335-1.633-5.652-1.633-2.29 0-4.177.545-5.653 1.633-1.477 1.088-2.643 2.713-3.498 4.868-.827 2.099-1.392 4.749-1.696 7.95-.304 3.2-.46 6.812-.46 10.846 0 4.304.135 7.907.396 10.805.262 2.897.834 5.49 1.717 7.787.799 2.12 1.937 3.759 3.413 4.903 1.477 1.145 3.406 1.718 5.78 1.718 2.29 0 4.177-.545 5.653-1.633 1.477-1.095 2.63-2.713 3.456-4.868zM445.981 918.726l-26.66 52.416h-8.82l28.237-54.402h-31.882v-7.243h39.125v9.229zM452.772 940.426h23.353v7.497h-23.353zM522.416 971.142h-38.051v-8.649a727.622 727.622 0 0 0 7.744-7.454 173.113 173.113 0 0 0 7.123-7.413c4.692-5.158 7.893-9.292 9.603-12.4 1.71-3.103 2.565-6.311 2.565-9.625 0-1.71-.269-3.215-.806-4.515-.537-1.293-1.279-2.375-2.219-3.23a9.584 9.584 0 0 0-3.349-1.858c-1.272-.417-2.664-.622-4.183-.622-1.463 0-2.947.184-4.452.558a33.233 33.233 0 0 0-4.324 1.385 23.721 23.721 0 0 0-3.357 1.696 49.651 49.651 0 0 0-2.607 1.703h-.452v-8.783c1.71-.855 4.09-1.689 7.136-2.501 3.053-.813 5.943-1.223 8.678-1.223 5.737 0 10.239 1.526 13.496 4.579 3.258 3.045 4.89 7.18 4.89 12.394 0 2.403-.29 4.628-.855 6.67a24.633 24.633 0 0 1-2.339 5.675c-1.018 1.787-2.247 3.568-3.681 5.335a99.926 99.926 0 0 1-4.558 5.222c-2.593 2.812-5.484 5.737-8.67 8.776a832.43 832.43 0 0 1-7.639 7.2h30.307v7.08zM569.653 951.145c0 3.173-.523 6.105-1.568 8.776-1.053 2.678-2.46 4.918-4.226 6.713-1.851 1.901-3.922 3.343-6.211 4.325-2.29.982-4.82 1.47-7.575 1.47-2.791 0-5.32-.467-7.596-1.407-2.283-.94-4.29-2.331-6.028-4.183-2.127-2.233-3.787-5.222-4.988-8.967-1.202-3.738-1.802-8.338-1.802-13.807 0-5.356.55-10.19 1.66-14.507 1.103-4.324 2.799-8.084 5.088-11.285 2.24-3.123 5.123-5.554 8.656-7.306 3.533-1.753 7.617-2.629 12.253-2.629 1.385 0 2.664.064 3.85.205 1.188.134 2.24.36 3.145.664v7.907h-.367c-.75-.416-1.823-.79-3.23-1.137a18.88 18.88 0 0 0-4.515-.523c-5.137 0-9.278 1.738-12.443 5.2-3.159 3.463-5.031 8.607-5.61 15.419 1.964-1.378 3.978-2.438 6.048-3.187 2.07-.742 4.331-1.116 6.79-1.116 2.403 0 4.502.24 6.31.728 1.81.48 3.696 1.455 5.654 2.918a15.602 15.602 0 0 1 5.052 6.5c1.102 2.622 1.653 5.696 1.653 9.23zm-8.401.332c0-2.536-.332-4.663-.997-6.373-.657-1.71-1.738-3.173-3.229-4.388a8.256 8.256 0 0 0-3.66-1.739 21.264 21.264 0 0 0-4.205-.417c-1.929 0-3.808.29-5.631.87-1.823.579-3.618 1.42-5.385 2.522-.05.608-.092 1.194-.12 1.76a44.397 44.397 0 0 0-.042 2.134c0 4.282.417 7.73 1.265 10.352.84 2.621 1.88 4.607 3.123 5.963 1.187 1.293 2.41 2.205 3.667 2.735 1.25.523 2.615.784 4.077.784 3.307 0 5.992-1.187 8.049-3.561 2.056-2.374 3.088-5.921 3.088-10.642z"/></g><g fill-rule="nonzero"><path d="M103.307 340.32H67.312v-62.105h8.26v54.763h27.735v7.341zM147.52 317.05c0 7.837-1.887 13.893-5.667 18.16-3.788 4.268-8.819 6.402-15.1 6.402-6.48 0-11.575-2.204-15.292-6.606-3.71-4.41-5.568-10.395-5.568-17.956 0-7.787 1.915-13.835 5.738-18.146 3.822-4.31 8.86-6.465 15.121-6.465 6.282 0 11.313 2.148 15.1 6.444 3.781 4.296 5.668 10.352 5.668 18.167zm-8.091 0c0-6.034-1.095-10.521-3.293-13.454-2.197-2.932-5.328-4.402-9.384-4.402-4.091 0-7.236 1.47-9.447 4.402-2.212 2.933-3.314 7.42-3.314 13.454 0 5.837 1.102 10.268 3.314 13.285 2.211 3.017 5.356 4.522 9.447 4.522 4.028 0 7.151-1.484 9.363-4.444 2.212-2.961 3.314-7.413 3.314-13.363zM174.096 341.365c-3.201 0-6.134-.495-8.805-1.484-2.67-.982-4.96-2.48-6.882-4.48-1.915-2.007-3.406-4.53-4.459-7.575-1.06-3.038-1.59-6.62-1.59-10.74 0-4.085.551-7.618 1.647-10.592 1.102-2.975 2.565-5.477 4.402-7.505 1.837-2.035 4.126-3.596 6.861-4.699 2.742-1.095 5.681-1.646 8.826-1.646 2.558 0 5.024.36 7.398 1.088 2.381.72 4.501 1.555 6.367 2.501v8.798h-.46a32.613 32.613 0 0 0-2.148-1.625c-.876-.608-1.943-1.237-3.194-1.873-1.08-.558-2.36-1.046-3.837-1.463-1.477-.417-2.89-.621-4.254-.621-4.063 0-7.32 1.533-9.78 4.607-2.465 3.073-3.695 7.412-3.695 13.03 0 5.511 1.194 9.8 3.569 12.867 2.374 3.074 5.68 4.614 9.906 4.614 2.558 0 4.99-.53 7.3-1.59a22.621 22.621 0 0 0 6.133-4.084h.46v8.798c-.785.367-1.753.805-2.926 1.314-1.166.516-2.219.897-3.165 1.152a43.5 43.5 0 0 1-3.59.897c-1.053.205-2.417.311-4.084.311zM221.015 328.85v-12.93c-1.858.17-4.218.396-7.066.692-2.855.29-5.151.7-6.904 1.23-2.084.636-3.808 1.618-5.172 2.94-1.364 1.32-2.042 3.158-2.042 5.525 0 2.671.749 4.685 2.247 6.049 1.505 1.364 3.702 2.042 6.592 2.042 2.474 0 4.714-.537 6.713-1.604a29.3 29.3 0 0 0 5.632-3.943zm0 6.509c-.636.473-1.49 1.13-2.565 1.978-1.067.848-2.106 1.527-3.102 2.028-1.392.721-2.735 1.28-4.028 1.668-1.293.389-3.109.58-5.44.58-1.923 0-3.746-.36-5.47-1.082a14 14 0 0 1-4.543-3.045c-1.251-1.28-2.255-2.855-3.004-4.735a15.896 15.896 0 0 1-1.123-5.942c0-3.23.678-5.971 2.042-8.24 1.364-2.268 3.519-4.07 6.466-5.398 2.614-1.201 5.695-2.028 9.256-2.487 3.562-.46 7.399-.799 11.511-1.018v-1.505c0-1.837-.275-3.314-.834-4.437-.55-1.131-1.335-2-2.332-2.608-1.003-.643-2.225-1.067-3.674-1.272a30.663 30.663 0 0 0-4.459-.318c-1.809 0-3.936.276-6.38.813a42.59 42.59 0 0 0-7.342 2.36h-.46v-7.97c1.442-.418 3.52-.87 6.212-1.372 2.699-.501 5.37-.756 8.013-.756 3.194 0 5.893.255 8.09.756 2.198.502 4.17 1.4 5.922 2.707 1.696 1.279 2.96 2.94 3.794 4.967.834 2.028 1.251 4.502 1.251 7.427v31.861h-7.8v-4.96zM253.93 341.238c-4.283 0-7.625-1.215-10.013-3.646-2.389-2.438-3.59-6.282-3.59-11.532v-25.82h-5.293v-6.508h5.293v-13.39h7.843v13.39h14.437v6.508H248.17v22.145c0 2.368.043 4.184.128 5.463a9.277 9.277 0 0 0 .96 3.59c.467.974 1.237 1.702 2.29 2.19 1.06.487 2.487.727 4.296.727 1.28 0 2.516-.183 3.717-.558 1.194-.381 2.056-.692 2.586-.94h.46v7.045a37.638 37.638 0 0 1-4.487.983c-1.52.233-2.912.353-4.19.353zM276.407 340.32h-7.837v-46.588h7.837v46.587zm.544-54.39h-8.925v-8.132h8.925v8.133zM326.252 317.05c0 7.837-1.887 13.893-5.667 18.16-3.788 4.268-8.819 6.402-15.1 6.402-6.48 0-11.575-2.204-15.292-6.606-3.71-4.41-5.568-10.395-5.568-17.956 0-7.787 1.915-13.835 5.738-18.146 3.822-4.31 8.86-6.465 15.121-6.465 6.282 0 11.313 2.148 15.1 6.444 3.781 4.296 5.668 10.352 5.668 18.167zm-8.091 0c0-6.034-1.095-10.521-3.293-13.454-2.197-2.932-5.328-4.402-9.384-4.402-4.091 0-7.236 1.47-9.447 4.402-2.212 2.933-3.321 7.42-3.321 13.454 0 5.837 1.109 10.268 3.32 13.285 2.212 3.017 5.357 4.522 9.448 4.522 4.028 0 7.151-1.484 9.363-4.444 2.212-2.961 3.314-7.413 3.314-13.363zM370.924 340.32h-7.836v-26.527c0-2.141-.106-4.134-.318-5.985-.205-1.852-.6-3.328-1.187-4.445-.636-1.166-1.527-2.035-2.671-2.607-1.138-.566-2.693-.855-4.671-.855-1.943 0-3.957.523-6.028 1.568-2.07 1.04-4.09 2.396-6.07 4.064v34.786h-7.836v-46.587h7.837v5.172c2.338-2.084 4.642-3.688 6.924-4.797a16.294 16.294 0 0 1 7.215-1.668c4.593 0 8.176 1.505 10.762 4.522 2.586 3.018 3.88 7.391 3.88 13.122v30.236zM396.37 305.617h-9.971v-11.885h9.97v11.885zm0 34.702h-9.971v-11.885h9.97v11.885zM183.395 425.742H147.4v-62.104h8.26v54.77h27.735v7.334zM215.306 414.274v-12.931c-1.866.17-4.226.396-7.074.692-2.847.29-5.15.7-6.903 1.23-2.085.636-3.809 1.618-5.173 2.94-1.363 1.32-2.042 3.165-2.042 5.525 0 2.671.75 4.685 2.254 6.049 1.498 1.364 3.696 2.042 6.586 2.042 2.48 0 4.713-.537 6.72-1.604a29.52 29.52 0 0 0 5.632-3.943zm0 6.508a91.466 91.466 0 0 0-2.565 1.978c-1.074.848-2.106 1.527-3.11 2.028-1.392.721-2.734 1.28-4.027 1.668-1.293.389-3.11.58-5.441.58-1.922 0-3.738-.36-5.462-1.082a14.03 14.03 0 0 1-4.551-3.045c-1.25-1.28-2.254-2.855-3.003-4.735a15.896 15.896 0 0 1-1.124-5.942c0-3.23.679-5.971 2.043-8.24 1.363-2.268 3.518-4.062 6.465-5.398 2.615-1.201 5.702-2.028 9.257-2.487 3.561-.46 7.398-.799 11.518-1.018v-1.505c0-1.83-.283-3.314-.834-4.437-.558-1.131-1.336-2-2.34-2.608-1.002-.643-2.225-1.067-3.666-1.272a30.832 30.832 0 0 0-4.466-.318c-1.81 0-3.936.276-6.381.82a42.142 42.142 0 0 0-7.342 2.353h-.46v-7.964c1.45-.416 3.52-.876 6.22-1.377a43.637 43.637 0 0 1 8.005-.75c3.194 0 5.893.248 8.09.75a15.675 15.675 0 0 1 5.922 2.706c1.696 1.279 2.961 2.94 3.795 4.967.834 2.028 1.25 4.502 1.25 7.427v31.861h-7.793v-4.96zM270.74 425.742h-7.844v-26.526c0-2.141-.106-4.134-.31-5.985-.213-1.851-.608-3.328-1.195-4.445-.636-1.166-1.526-2.035-2.664-2.6-1.144-.572-2.699-.855-4.678-.855-1.943 0-3.95.516-6.027 1.562-2.07 1.038-4.091 2.395-6.063 4.063v34.786h-7.843v-46.587h7.843v5.172c2.332-2.084 4.643-3.688 6.918-4.797a16.324 16.324 0 0 1 7.222-1.668c4.586 0 8.175 1.505 10.761 4.522 2.587 3.018 3.88 7.392 3.88 13.122v30.236zM309.78 413.108v-25.572c-1.95-.94-3.752-1.619-5.405-2.021a20.813 20.813 0 0 0-4.94-.608c-3.978 0-7.108 1.463-9.383 4.381-2.283 2.925-3.42 7.109-3.42 12.557 0 5.172.869 9.108 2.607 11.807 1.731 2.692 4.55 4.042 8.444 4.042 2.028 0 4.12-.403 6.275-1.208a19.85 19.85 0 0 0 5.822-3.378zm-26.363 20.103c.53.226 1.307.523 2.338.898 1.025.374 2.198.728 3.498 1.06 1.449.367 2.784.657 4.007.876 1.222.226 2.558.339 4.006.339 2.417 0 4.466-.325 6.148-.961 1.689-.643 3.003-1.533 3.943-2.671.89-1.138 1.519-2.459 1.88-3.964.36-1.498.543-3.208.543-5.13v-4.084c-2.112 1.837-4.19 3.186-6.218 4.063-2.028.876-4.572 1.314-7.631 1.314-5.314 0-9.54-1.972-12.684-5.921-3.137-3.95-4.713-9.625-4.713-17.016 0-3.865.544-7.292 1.632-10.281 1.081-2.99 2.544-5.533 4.374-7.617 1.752-2 3.83-3.54 6.218-4.629 2.389-1.081 4.869-1.625 7.427-1.625 2.416 0 4.508.283 6.275.855 1.766.572 3.54 1.385 5.32 2.438l.46-2h7.377v41.295c0 7.893-1.724 13.694-5.173 17.39-3.448 3.702-8.712 5.547-15.807 5.547-2.275 0-4.607-.177-6.981-.537-2.381-.368-4.6-.848-6.656-1.463v-8.176h.417zM329.135 360.847h7.843v64.902h-7.843zM368.712 426.83c-7.42 0-13.185-2.091-17.283-6.274-4.106-4.19-6.155-10.133-6.155-17.835 0-7.59 1.985-13.63 5.964-18.125 3.978-4.487 9.179-6.734 15.602-6.734 2.89 0 5.448.417 7.674 1.25 2.226.834 4.169 2.142 5.836 3.922 1.668 1.781 2.947 3.957 3.837 6.53.89 2.572 1.336 5.716 1.336 9.447v4.254h-32.286c0 5.42 1.364 9.56 4.092 12.43 2.727 2.861 6.494 4.296 11.306 4.296a22.07 22.07 0 0 0 5.066-.587c1.654-.389 3.152-.89 4.48-1.498 1.42-.643 2.615-1.258 3.59-1.858.975-.601 1.78-1.16 2.416-1.69h.46v8.55c-.919.361-2.057.813-3.42 1.358-1.364.544-2.587.968-3.668 1.271a50.68 50.68 0 0 1-4.148.961c-1.243.22-2.805.333-4.699.333zm9.18-29.571c-.057-2.113-.304-3.936-.75-5.47-.445-1.526-1.088-2.819-1.922-3.872-.918-1.173-2.091-2.063-3.526-2.67-1.427-.616-3.2-.92-5.313-.92-2.085 0-3.859.311-5.321.94-1.456.622-2.784 1.534-3.979 2.728-1.173 1.222-2.063 2.579-2.67 4.07-.615 1.484-1.004 3.215-1.174 5.194h24.654zM430.075 379.155l-25.07 63.772h-8.388l8.345-19.432-16.938-44.34h8.473l12.719 34.497 12.684-34.497h8.175zM192.404 449.06l-21.354 62.112h-8.932l-21.354-62.111h8.847l17.185 51.555 17.185-51.555h8.423zM205.752 511.172h-7.843v-46.594h7.843v46.594zm.544-54.395h-8.931v-8.133h8.931v8.133zM241.96 473.001h-.418a9.197 9.197 0 0 0-1.858-.31 37.346 37.346 0 0 0-2.36-.065c-2.113 0-4.212.46-6.296 1.378-2.085.919-4.063 2.283-5.922 4.092v33.076h-7.843v-46.594h7.843v6.925c2.862-2.53 5.357-4.317 7.484-5.363 2.126-1.039 4.197-1.562 6.197-1.562.805 0 1.413.021 1.816.064.402.042.855.106 1.356.183v8.176zM275.658 498.531V472.96c-1.943-.94-3.745-1.619-5.399-2.021a20.859 20.859 0 0 0-4.946-.601c-3.978 0-7.102 1.456-9.384 4.374-2.282 2.925-3.42 7.109-3.42 12.557 0 5.172.87 9.108 2.607 11.807 1.739 2.692 4.551 4.042 8.445 4.042 2.035 0 4.126-.403 6.281-1.208a19.66 19.66 0 0 0 5.816-3.378zM249.3 518.634c.523.226 1.3.523 2.332.898 1.032.374 2.197.728 3.505 1.067 1.448.36 2.777.65 4.006.876a22.72 22.72 0 0 0 4 .332c2.423 0 4.473-.325 6.154-.96 1.682-.644 2.996-1.527 3.943-2.672.89-1.138 1.512-2.459 1.873-3.964.367-1.498.544-3.208.544-5.13v-4.084c-2.113 1.837-4.183 3.186-6.211 4.063-2.035.876-4.58 1.314-7.639 1.314-5.307 0-9.532-1.971-12.677-5.921-3.144-3.95-4.713-9.618-4.713-17.016 0-3.865.544-7.292 1.626-10.281 1.088-2.99 2.543-5.526 4.38-7.617 1.753-2 3.823-3.54 6.212-4.629 2.395-1.08 4.868-1.625 7.426-1.625 2.417 0 4.516.283 6.282.855 1.76.572 3.533 1.385 5.314 2.438l.46-2h7.383v41.295c0 7.893-1.724 13.694-5.172 17.39-3.448 3.702-8.72 5.547-15.807 5.547-2.283 0-4.614-.177-6.989-.537a49.143 49.143 0 0 1-6.656-1.463v-8.176h.424zM302.856 511.172h-7.844v-46.594h7.844v46.594zm.544-54.395h-8.932v-8.133h8.932v8.133zM350.99 511.172h-7.843V484.64c0-2.141-.106-4.134-.311-5.985-.212-1.844-.608-3.328-1.194-4.438-.636-1.173-1.526-2.042-2.664-2.607-1.145-.572-2.7-.855-4.67-.855-1.951 0-3.958.516-6.028 1.562-2.078 1.045-4.099 2.395-6.07 4.07v34.786h-7.844v-46.594h7.844v5.173c2.332-2.085 4.642-3.682 6.925-4.798a16.271 16.271 0 0 1 7.214-1.668c4.586 0 8.176 1.505 10.762 4.522 2.586 3.018 3.88 7.392 3.88 13.122v30.243zM370.006 511.172h-7.837v-46.594h7.837v46.594zm.544-54.395h-8.925v-8.133h8.925v8.133zM407.548 499.697v-12.931c-1.865.17-4.218.396-7.073.692-2.848.29-5.151.7-6.897 1.23-2.091.636-3.815 1.618-5.172 2.94-1.364 1.32-2.05 3.165-2.05 5.525 0 2.671.757 4.685 2.255 6.049 1.505 1.364 3.702 2.042 6.593 2.042 2.473 0 4.713-.53 6.712-1.604a28.9 28.9 0 0 0 5.632-3.943zm0 6.508a103.29 103.29 0 0 0-2.565 1.978c-1.074.848-2.106 1.527-3.109 2.028-1.392.721-2.728 1.28-4.02 1.668-1.294.389-3.11.58-5.449.58-1.915 0-3.738-.36-5.462-1.082a14 14 0 0 1-4.543-3.045c-1.258-1.28-2.255-2.855-3.004-4.734-.756-1.873-1.13-3.859-1.13-5.943 0-3.23.685-5.971 2.042-8.24 1.364-2.268 3.519-4.062 6.466-5.398 2.614-1.194 5.702-2.028 9.263-2.48 3.562-.46 7.399-.806 11.511-1.025v-1.505c0-1.83-.275-3.314-.834-4.437-.558-1.13-1.335-2-2.339-2.608-.996-.643-2.218-1.067-3.667-1.272a30.76 30.76 0 0 0-4.466-.318c-1.802 0-3.929.276-6.38.82-2.445.537-4.89 1.328-7.342 2.353h-.46v-7.964c1.449-.416 3.52-.876 6.219-1.377 2.699-.502 5.363-.75 8.006-.75 3.2 0 5.9.248 8.09.75 2.198.501 4.177 1.406 5.929 2.713 1.696 1.279 2.96 2.932 3.794 4.96.834 2.028 1.251 4.509 1.251 7.427v31.868h-7.8v-4.967zM441.544 499.28l-11.68 27.325h-6.092l7.342-27.325h10.43zM501.232 512.459c-3.647 0-6.826-.474-9.554-1.435-2.727-.96-5.045-2.388-6.967-4.275-2.17-2.17-3.696-4.763-4.586-7.78-.89-3.017-1.336-6.734-1.336-11.157V449.06h8.26v38.75c0 2.863.177 5.28.545 7.236.36 1.958 1.067 3.717 2.127 5.279 1.11 1.668 2.621 2.932 4.522 3.794 1.908.863 4.233 1.294 6.989 1.294 2.586 0 4.882-.431 6.882-1.294 2-.862 3.561-2.126 4.67-3.794a14.711 14.711 0 0 0 2.106-5.257c.375-1.922.566-4.268.566-7.052V449.06h8.26v38.75c0 4.311-.438 8.007-1.314 11.095-.876 3.088-2.417 5.702-4.614 7.843a19.07 19.07 0 0 1-6.904 4.296c-2.622.947-5.844 1.414-9.652 1.414zM552.871 512.296c-4.508 0-8.338-.466-11.496-1.4-3.152-.932-6.12-2.077-8.904-3.44V497.11h.587a29.732 29.732 0 0 0 9.256 5.942c3.449 1.407 6.77 2.106 9.97 2.106 4.558 0 8.007-.947 10.346-2.855 2.331-1.9 3.504-4.416 3.504-7.525 0-2.48-.614-4.494-1.837-6.049-1.222-1.561-3.173-2.713-5.836-3.462a93.182 93.182 0 0 0-5.258-1.378c-1.583-.36-3.575-.848-5.964-1.463-2.14-.55-4.063-1.265-5.759-2.127a16.187 16.187 0 0 1-4.5-3.377c-1.28-1.364-2.276-2.968-2.983-4.82-.713-1.844-1.067-3.978-1.067-6.401 0-5.031 1.965-9.25 5.88-12.656 3.921-3.406 8.931-5.109 15.015-5.109 3.477 0 6.77.346 9.864 1.039 3.103.7 5.978 1.682 8.614 2.96v9.886h-.622c-1.978-1.802-4.508-3.384-7.589-4.734a24.144 24.144 0 0 0-9.723-2.021c-3.837 0-6.939.897-9.299 2.692-2.367 1.795-3.547 4.148-3.547 7.066 0 2.643.692 4.742 2.084 6.303 1.392 1.555 3.406 2.693 6.05 3.42 1.751.474 3.893 1.004 6.422 1.605 2.53.6 4.629 1.144 6.303 1.646 4.282 1.307 7.406 3.286 9.384 5.921 1.972 2.643 2.96 5.9 2.96 9.766 0 2.416-.494 4.805-1.483 7.172-.99 2.36-2.367 4.367-4.148 6.006-2 1.81-4.26 3.201-6.776 4.17-2.516.974-5.667 1.462-9.448 1.462zM575.85 511.172l20.937-62.111h10.183l20.937 62.111h-8.72l-5.631-17.354h-23.729l-5.631 17.354h-8.346zm35.416-24.406l-9.596-29.275-9.553 29.275h19.15z"/></g><path d="M784.405 242.85c-28.416-7.191-54.914-7.086-83.92 0 1.556 30.898 7.808 38.467 7.808 38.467 12.978 9.135 56.251 8.676 68.79 0 0 0 5.825-7.529 7.322-38.467z" fill="url(#a)" stroke="#000" stroke-width="2.98"/><path d="M790.526 171.231c-21.263-21.051-74.151-21.56-94.567 0-17.681 18.671-4.006 67.156-4.006 67.156 10.381 21.436 88.528 21.427 101.339 0 0 0 13.905-50.652-2.766-67.156z" fill="url(#b)" stroke="#000" stroke-width="2.98"/><path d="M694.125 153.551c-33.386-129.342 130.562-128.732 98.853-.923l-98.853.923z" fill="url(#c)" stroke="#000" stroke-width="2.98"/><path d="M704.577 105.104c-7.001 61.449 36.765 63.086 36.765 63.086s49.359-2.92 40.078-63.086h-76.843z" fill="url(#d)" stroke="#000" stroke-width="2.98"/><path d="M735.404 135.568c4.904-5.527 9.865-5.978 15.347 0M726.094 153.574c8.185-5.957 26.166-8.116 30.558-4.616" fill="none" stroke="#000" stroke-width="2.98"/><path d="M721.55 113.142c2.377-.611 4.956 1.416 5.756 4.524.799 3.108-.482 6.128-2.859 6.739-2.377.612-4.956-1.415-5.756-4.523-.799-3.108.481-6.128 2.859-6.74zM763.647 113.211c2.329.777 3.395 3.879 2.38 6.923-1.015 3.045-3.73 4.886-6.059 4.11-2.328-.777-3.395-3.879-2.379-6.924 1.015-3.044 3.73-4.885 6.058-4.109zM718.453 100.418l4.205-2.226 12.746 14.841-16.951-12.615zM750.751 113.033l13.937-14.841 3.42 2.695-17.357 12.146z" stroke="#000" stroke-width="2.98"/><ellipse cx="716.399" cy="133.967" rx="1.278" ry="1.4"/><ellipse cx="722.378" cy="135.507" rx="1.278" ry="1.4"/><ellipse cx="717.718" cy="143.121" rx="1.278" ry="1.4"/><ellipse cx="762.355" cy="139.853" rx="1.278" ry="1.4"/><ellipse cx="766.657" cy="130.822" rx="1.278" ry="1.4"/><ellipse cx="770.279" cy="138.268" rx="1.278" ry="1.4"/><g><path d="M671.292 649.576c-.256-.383.125-.914.242-1.36.274-1.048.653-2.068.929-3.117 1.203-4.567 1.846-9.203 2.026-13.94 1.576-41.586-59.099-57.68-80.243-20.117-5.298 9.414-7.551 20.49-5.808 31.111.931 5.669 2.918 11.217 6.049 16.051 7.682 11.862 22.714 19.769 36.915 18.254 5.773-.616 6.174-.887 11.555-2.133 1.422-.329 5.045-1.634 6.943-.998 1.329.446 1.616 1.834 1.56 3.068-.069 1.531-.429 2.16-1.022 3.626-.589 1.455-1.576 3.035-.387 4.493.265.326.582.613.927.852.46.319.95.608 1.472.813 2.277.893 3.952-.53 5.747-1.732.703-.471 1.302-1.172 2.117-1.401.343-.097.638.327.92.546a32.623 32.623 0 0 1 2.101 1.796c2.382 2.194 4.76 4.394 7.075 6.658a2167.986 2167.986 0 0 1 42.125 42.302c3.602 3.719 7.023 7.612 10.652 11.306.495.503 2.128.642 2.556.66 4.098.179 5.973.067 10.087-.497.986-.135 3.433-.407 3.882-1.64.418-1.15.426-3.918.416-4.502-.053-2.903-.488-14.215-1.914-15.322-1.634-1.269-5.358-.46-6.086-2.044-1.405-3.059.428-7.054-1.178-8.421-1.667-1.419-7.049-1.7-7.975-2.95-1.262-1.7-.353-4.339-1.938-5.897-2.573-2.531-5.227-.578-8.224-2.163-1.286-.68-.601-7.414-1.977-8.364-2.573-1.778-7.23.661-9.477-1.779-1.233-1.34-.576-8.045-.937-9.433-.433-1.666-7.285-4.111-7.625-5.029-.776-2.095-.319-2.956-.83-5.087-.138-.576-.606-1.021-.965-1.492-2.153-2.825-8.532-9.859-9.385-10.805-.857-.951 6.341-4.718 2.415-8.642-3.509-3.506-7.582 2.96-8.58 1.869-2.282-2.495-4.16-4.54-4.16-4.54zm-52.077-41.351c6.882 0 12.469 5.405 12.469 12.062 0 6.657-5.587 12.062-12.469 12.062-6.883 0-12.47-5.405-12.47-12.062 0-6.657 5.587-12.062 12.47-12.062z" fill="url(#e)" stroke="#000" stroke-width="2.17"/><path d="M648.521 661.692l83.023 83.898M655.862 655.402l83.694 81.774" fill="none" stroke="#000" stroke-width="1.86"/><path d="M621.056 640.447l3.794-3.558 21.117 11.261-9.926-21.757 3.753-3.52 18.335 19.549-2.516 2.36-10.82-11.539c-.375-.399-.986-1.07-1.834-2.008a213.735 213.735 0 0 0-2.757-2.992l9.888 21.718-2.621 2.459-21.08-11.222.561.599c.45.479 1.145 1.198 2.087 2.159.941.957 1.629 1.668 2.062 2.13l10.82 11.538-2.528 2.372-18.335-19.55z" fill="none"/><path d="M621.056 640.447l3.794-3.558 21.117 11.261-9.926-21.757 3.753-3.52 18.335 19.549-2.516 2.36-10.82-11.539c-.375-.399-.986-1.07-1.834-2.008a213.735 213.735 0 0 0-2.757-2.992l9.888 21.718-2.621 2.459-21.08-11.222.561.599c.45.479 1.145 1.198 2.087 2.159.941.957 1.629 1.668 2.062 2.13l10.82 11.538-2.528 2.372-18.335-19.55z" fill="#fff" fill-rule="nonzero"/><path d="M639.952 620.71l.18.02.175.035.172.05.167.064.162.078.154.09.147.102.138.115.128.126 18.335 19.549.117.135.106.146.092.153.081.16.067.166.053.17.039.176.023.177.009.181-.006.179-.02.177-.035.176-.05.172-.063.167-.078.162-.09.155-.104.147-.114.137-.125.128-2.516 2.36-.135.116-.146.106-.152.094-.16.08-.167.066-.17.053-.176.04-.177.022-.178.01-.18-.007-.18-.02-.175-.034-.172-.05-.167-.064-.162-.078-.155-.089-.146-.103-.138-.116-.128-.125-6.3-6.718 4.332 9.517.064.156.05.16.04.164.026.167.012.168v.168l-.013.169-.025.166-.04.165-.051.16-.064.155-.076.15-.087.145-.099.137-.108.13-.12.12-2.621 2.458-.127.11-.136.1-.142.09-.15.079-.154.066-.16.053-.163.04-.165.03-.169.015-.168.003-.167-.01-.167-.025-.163-.035-.164-.049-.154-.061-.154-.074-9.273-4.936 6.325 6.744.117.136.106.145.092.153.08.16.068.167.053.17.037.176.025.176.009.181-.006.18-.02.176-.035.176-.05.172-.065.168-.076.161-.09.155-.104.147-.114.137-.125.128-2.53 2.372-.135.117-.144.105-.154.095-.16.08-.166.065-.171.054-.174.038-.179.024-.178.01-.179-.007-.178-.021-.176-.035-.174-.049-.166-.063-.162-.078-.154-.09-.147-.103-.139-.115-.128-.125-18.334-19.55-.117-.135-.106-.145-.093-.154-.08-.159-.067-.167-.053-.17-.038-.177-.023-.177-.01-.18.006-.178.02-.178.034-.175.05-.172.065-.168.077-.161.089-.155.104-.149.115-.136.125-.127 3.792-3.557.128-.112.136-.1.141-.089.15-.08.155-.065.16-.053.163-.041.166-.03.168-.015.169-.002.168.01.167.023.164.037.16.048.158.062.15.073 15.467 8.248-7.266-15.93-.065-.157-.052-.16-.039-.166-.025-.165-.014-.168v-.168l.013-.169.026-.167.039-.164.052-.162.065-.154.075-.15.088-.147.098-.135.108-.13.12-.12 3.753-3.52.136-.116.143-.106.154-.094.16-.08.166-.065.172-.054.175-.04.177-.023.179-.008.179.005zm-3.911 5.683l9.926 21.757-21.117-11.261-3.794 3.558 18.335 19.55 2.529-2.373-10.821-11.538-.176-.185-.198-.207-.221-.232-.245-.255-.27-.278-.294-.301-.658-.672-.66-.676-.296-.302-.271-.282-.25-.258-.227-.237-.203-.213-.18-.191-.561-.6 21.08 11.223 2.621-2.459-9.888-21.718.368.392.362.389.355.381.346.378.343.37.333.367.328.36.322.355.59.654.503.552.22.239.194.213.175.189.151.161 10.821 11.538 2.516-2.36-18.335-19.548-3.753 3.52z"/></g><g><path d="M936.867 907.247l-222.026.011-.261 276.83h222.287V907.247z" fill="#fff" stroke="#000" stroke-width="3.8"/><path d="M810.189 1079.73c1.069.698 3.282 1.047 6.639 1.047 10.465 0 19.077-2.072 25.836-6.214 10.378-6.366 15.567-17.246 15.567-32.638 0-13.736-4.273-24.07-12.82-31.003-7.326-5.931-17.028-8.896-29.106-8.896-3.009 0-5.047.327-6.116.981-1.068.654-1.602 2.093-1.602 4.317v68.089c0 2.18.534 3.619 1.602 4.317zm-26.98 3.597c4.884-.523 8.067-1.406 9.549-2.649 1.483-1.242 2.224-4.393 2.224-9.451v-59.586c0-4.884-.719-8.023-2.158-9.419-1.439-1.395-4.644-2.267-9.615-2.616v-2.485h36.105c12.165 0 22.456 2.005 30.872 6.017 15.174 7.195 22.762 20.058 22.762 38.59 0 6.672-1.363 13.016-4.088 19.034-2.726 6.017-6.835 11.097-12.33 15.24-3.488 2.616-7.107 4.6-10.857 5.952-6.846 2.529-15.262 3.794-25.247 3.794h-37.217v-2.421z" fill-rule="nonzero"/><path d="M730.333 951.626l24.555-13.309 20.776 16.54 19.872-8.116 22.013 14.28 19.151-11.972 21.542 14.952 18.833-12.199 19.031-6.654 2.177 8.019 17.414-1.541M730.333 918.619l19.163 11.798 18.137-3.832 15.684 7.793 19.565-7.934 11.372-10.022 13.369 15.18 29.335-12.329 24.763 18.803 18.414-14.077 15.562 3.59M735.75 1161.45l22.351 11.4 17.106-23.49 24.391 11.193 18.249-12.042 15.436 25.001 7.561-8.028 30.741-12.609 14.845 12.736 15.571 3.66 13.696-12.676M735.75 1132.95l22.364-10.585 13.865 3.056 21.518 16.856 29.842-10.859 32.062 14.754 5.362-16.553 49.2 9.028 5.734-5.697M735.75 1109.34l30.076-12.242 27.221 16.731 18.831-9.944 19.536 18.768 20.055-27.933 25.464 24.421 20.789-18.832 17.975 9.031M730.341 981.073l21.947-13.226 27.249 9.925 22.576-11.375 13.796 11.639 26.057 5.072 22.947-6.381 11.215-12.632 19.153 19.092 20.416-8.406" fill="none" stroke="#000" stroke-width="2.98"/></g><defs><radialGradient id="a" cx="0" cy="0" r="1" gradientUnits="userSpaceOnUse" gradientTransform="matrix(82.5099 -32.7704 20.8412 45.2896 703.513 274.668)"><stop offset="0%" stop-color="#e5dd00"/><stop offset="100%" stop-color="#625d00"/></radialGradient><radialGradient id="b" cx="0" cy="0" r="1" gradientUnits="userSpaceOnUse" gradientTransform="matrix(108.908 -63.7564 27.509 88.1131 691.227 229.038)"><stop offset="0%" stop-color="#e5dd00"/><stop offset="100%" stop-color="#625d00"/></radialGradient><radialGradient id="c" cx="0" cy="0" r="1" gradientUnits="userSpaceOnUse" gradientTransform="matrix(110.015 -50.0186 27.7887 69.1271 687.044 109.974)"><stop offset="0%" stop-color="#888"/><stop offset="100%"/></radialGradient><radialGradient id="d" cx="0" cy="0" r="1" gradientUnits="userSpaceOnUse" gradientTransform="matrix(99.0673 -50.196 25.0234 69.3723 694.769 152.667)"><stop offset="0%" stop-color="#ffd9b8"/><stop offset="100%" stop-color="#ffcd9e"/></radialGradient><radialGradient id="e" cx="0" cy="0" r="1" gradientUnits="userSpaceOnUse" gradientTransform="matrix(58.4875 22.275 -22.8914 60.106 656.153 628.968)"><stop offset="0%" stop-color="#3ce61a"/><stop offset="100%" stop-color="#aef4a0"/></radialGradient></defs></svg>