<svg viewBox="0 0 956 1200" xmlns="http://www.w3.org/2000/svg" fill-rule="evenodd" clip-rule="evenodd" stroke-linecap="round" stroke-linejoin="round" stroke-miterlimit="1.414"><path d="M844.081 9.52l-833.912.039-.012 1038.55h833.924V9.519z" fill="#fff" stroke="#000" stroke-width="14.24"/><g fill-rule="nonzero"><path d="M111.362 150.74h-9.193l-27.24-53.16v53.16h-7.66V89.093H78.9l24.802 48.813V89.094h7.66v61.645zM149.081 139.356v-12.832c-1.851.162-4.19.388-7.016.678-2.834.29-5.116.7-6.855 1.222-2.07.636-3.78 1.611-5.137 2.919-1.35 1.314-2.028 3.144-2.028 5.49 0 2.65.75 4.65 2.24 6 1.491 1.356 3.668 2.027 6.537 2.027 2.459 0 4.684-.53 6.67-1.59a29.087 29.087 0 0 0 5.59-3.914zm0 6.458c-.636.467-1.484 1.124-2.55 1.965-1.06.848-2.085 1.512-3.081 2.013-1.378.714-2.714 1.265-3.993 1.654-1.286.389-3.088.58-5.405.58a13.951 13.951 0 0 1-9.935-4.099c-1.244-1.272-2.24-2.834-2.982-4.699-.75-1.865-1.117-3.83-1.117-5.9 0-3.201.671-5.929 2.028-8.176 1.35-2.254 3.49-4.042 6.416-5.363 2.594-1.187 5.66-2.007 9.193-2.466a156.04 156.04 0 0 1 11.426-1.01v-1.492c0-1.823-.275-3.292-.826-4.409-.559-1.116-1.329-1.986-2.325-2.586-.99-.636-2.205-1.06-3.64-1.265a31.294 31.294 0 0 0-4.43-.31c-1.795 0-3.907.268-6.338.805-2.424.537-4.855 1.321-7.285 2.339h-.453v-7.907c1.435-.417 3.491-.87 6.17-1.364a43.092 43.092 0 0 1 7.949-.75c3.172 0 5.85.248 8.027.75a15.437 15.437 0 0 1 5.886 2.692c1.682 1.265 2.94 2.911 3.766 4.925.827 2.014 1.244 4.473 1.244 7.37v31.628h-7.745v-4.925zM220.252 150.74v-26.746c0-2.127-.085-4.091-.247-5.9-.17-1.81-.51-3.223-1.04-4.24-.55-1.11-1.335-1.922-2.36-2.445-1.017-.523-2.395-.784-4.133-.784-1.604 0-3.321.487-5.158 1.47-1.837.975-3.731 2.388-5.696 4.24.029.473.064 1.03.106 1.674.043.65.064 1.42.064 2.303v30.427h-7.787v-26.745c0-2.127-.078-4.091-.247-5.9-.163-1.81-.509-3.223-1.032-4.24-.558-1.11-1.342-1.922-2.36-2.445-1.025-.523-2.402-.784-4.14-.784-1.69 0-3.456.523-5.3 1.568-1.852 1.053-3.647 2.389-5.385 4.021v34.525h-7.787v-46.248h7.787v5.137c2.042-2.042 4.063-3.625 6.063-4.741 2.007-1.117 4.204-1.675 6.607-1.675 2.734 0 5.151.622 7.264 1.859 2.113 1.243 3.724 3.285 4.826 6.133 2.346-2.622 4.635-4.614 6.875-5.964 2.233-1.357 4.664-2.028 7.286-2.028 1.985 0 3.794.311 5.42.933 1.632.615 3.052 1.618 4.267 2.996 1.244 1.413 2.198 3.166 2.876 5.264.679 2.092 1.018 4.728 1.018 7.907v30.427h-7.787zM259.045 151.82c-7.37 0-13.086-2.077-17.156-6.232-4.078-4.155-6.113-10.055-6.113-17.7 0-7.533 1.979-13.532 5.922-17.991 3.95-4.459 9.108-6.685 15.489-6.685 2.869 0 5.406.41 7.617 1.244 2.205.827 4.141 2.12 5.794 3.886 1.654 1.767 2.926 3.929 3.81 6.48.882 2.558 1.328 5.681 1.328 9.377v4.225h-32.053c0 5.385 1.357 9.497 4.063 12.338 2.707 2.848 6.445 4.268 11.222 4.268 1.71 0 3.384-.198 5.03-.58 1.64-.388 3.124-.883 4.445-1.49 1.414-.636 2.6-1.251 3.562-1.845.968-.593 1.766-1.152 2.402-1.674h.46v8.486l-3.4 1.343c-1.349.537-2.564.96-3.646 1.264-1.512.417-2.89.735-4.12.954-1.222.22-2.776.332-4.656.332zm9.109-29.36c-.05-2.098-.304-3.9-.742-5.42-.446-1.519-1.074-2.805-1.908-3.85-.912-1.16-2.078-2.042-3.498-2.65-1.42-.608-3.18-.912-5.278-.912-2.07 0-3.83.311-5.279.933-1.448.622-2.763 1.526-3.95 2.713a12.643 12.643 0 0 0-2.65 4.035c-.607 1.477-.996 3.194-1.166 5.151h24.47zM297.923 116.292h-9.892v-11.8h9.892v11.8zm0 34.447h-9.892v-11.8h9.892v11.8zM371.539 150.74h-33.204v-10.762h8.86V99.856h-8.86V89.094h33.204v10.762h-8.861v40.122h8.86v10.761zM424.535 150.74h-14.57v-23.058c0-1.88-.078-3.752-.226-5.61-.156-1.866-.438-3.236-.855-4.12-.495-1.053-1.209-1.802-2.148-2.26-.94-.453-2.198-.68-3.774-.68-1.18 0-2.381.22-3.597.658-1.215.445-2.515 1.152-3.893 2.113v32.956h-14.493v-46.495h14.493v5.137c2.374-2.014 4.685-3.59 6.932-4.72 2.254-1.13 4.741-1.696 7.476-1.696 4.748 0 8.38 1.498 10.889 4.487 2.508 2.996 3.766 7.335 3.766 13.023v30.264zM453.061 151.65c-5.907 0-10.203-1.215-12.895-3.638-2.693-2.431-4.035-6.41-4.035-11.928v-21.736h-5.547v-10.104h5.547V90.952h14.493v13.292h13.948v10.104h-13.948v16.479c0 1.625.014 3.052.035 4.26.028 1.216.254 2.311.664 3.272.389.968 1.074 1.732 2.05 2.304.981.565 2.409.848 4.288.848.77 0 1.788-.17 3.039-.502 1.258-.332 2.134-.629 2.629-.911h1.243v10.231c-1.569.41-3.243.735-5.01.969-1.766.24-3.929.353-6.5.353zM494.3 151.983c-8.777 0-15.504-2.099-20.181-6.296-4.678-4.19-7.017-10.168-7.017-17.927 0-7.589 2.176-13.645 6.536-18.174 4.367-4.53 10.465-6.79 18.302-6.79 7.122 0 12.478 1.921 16.068 5.758 3.59 3.837 5.377 9.328 5.377 16.479v5.214H481.63c.141 2.156.594 3.957 1.37 5.406.771 1.449 1.796 2.6 3.06 3.455 1.244.855 2.693 1.47 4.346 1.845 1.66.367 3.47.558 5.427.558 1.682 0 3.342-.19 4.967-.558 1.633-.375 3.124-.862 4.473-1.47a30.51 30.51 0 0 0 3.293-1.703c1.004-.608 1.83-1.145 2.46-1.611h1.533v11.963c-1.187.473-2.269.904-3.25 1.307-.976.396-2.326.806-4.036 1.223-1.575.41-3.194.734-4.861.968-1.675.24-3.71.353-6.112.353zm4.805-30.47c-.085-3.066-.792-5.398-2.134-7.002-1.336-1.597-3.385-2.395-6.148-2.395-2.812 0-5.017.84-6.6 2.522-1.59 1.682-2.466 3.971-2.635 6.876h17.517zM552.059 117.952h-1.202c-.55-.198-1.35-.339-2.402-.438a39.895 39.895 0 0 0-3.477-.141c-1.519 0-3.109.219-4.784.657a47.625 47.625 0 0 0-4.861 1.576v31.133H520.84v-46.495h14.493v6.67c.664-.607 1.583-1.378 2.756-2.303 1.173-.919 2.24-1.66 3.208-2.212 1.046-.636 2.268-1.18 3.66-1.64 1.392-.452 2.713-.678 3.957-.678.466 0 .99.014 1.569.043.58.028 1.11.063 1.576.12v13.708zM613.174 150.74v-23.227c0-2.29-.042-4.219-.127-5.794-.085-1.576-.332-2.855-.75-3.852-.41-.996-1.052-1.717-1.921-2.176-.87-.452-2.092-.678-3.668-.678-1.102 0-2.19.24-3.264.72-1.081.488-2.254 1.166-3.52 2.05v32.956h-14.577v-23.226c0-2.261-.05-4.19-.141-5.773-.099-1.59-.353-2.876-.77-3.873-.41-.996-1.053-1.717-1.922-2.176-.87-.452-2.078-.678-3.625-.678-1.187 0-2.346.275-3.477.826a25.501 25.501 0 0 0-3.314 1.944v32.956h-14.492v-46.495h14.492v5.137c2.374-2.014 4.607-3.59 6.706-4.72s4.459-1.696 7.08-1.696c2.848 0 5.342.671 7.498 2.028 2.148 1.35 3.794 3.363 4.925 6.041 2.79-2.593 5.42-4.585 7.886-5.978 2.473-1.399 4.974-2.091 7.518-2.091 2.148 0 4.084.34 5.794 1.032a11.134 11.134 0 0 1 4.346 3.109c1.3 1.484 2.275 3.257 2.918 5.313.65 2.057.975 4.742.975 8.056v30.264h-14.57zM662.277 151.983c-8.776 0-15.51-2.099-20.188-6.296-4.678-4.19-7.017-10.168-7.017-17.927 0-7.589 2.183-13.645 6.543-18.174 4.36-4.53 10.458-6.79 18.302-6.79 7.122 0 12.472 1.921 16.061 5.758 3.59 3.837 5.385 9.328 5.385 16.479v5.214h-31.756c.134 2.156.594 3.957 1.364 5.406.777 1.449 1.795 2.6 3.067 3.455 1.243.855 2.692 1.47 4.345 1.845 1.654.367 3.463.558 5.427.558 1.682 0 3.335-.19 4.968-.558 1.625-.375 3.116-.862 4.466-1.47a29.864 29.864 0 0 0 3.292-1.703 33.118 33.118 0 0 0 2.466-1.611h1.534v11.963c-1.187.473-2.275.904-3.25 1.307-.983.396-2.325.806-4.042 1.223-1.57.41-3.194.734-4.862.968-1.668.24-3.703.353-6.105.353zm4.798-30.47c-.078-3.066-.792-5.398-2.127-7.002-1.343-1.597-3.392-2.395-6.148-2.395-2.82 0-5.017.84-6.607 2.522-1.59 1.682-2.466 3.971-2.628 6.876h17.51zM731.087 150.74h-14.492v-4.841a77.59 77.59 0 0 1-3.208 2.48c-1.202.883-2.255 1.548-3.166 1.993a17.82 17.82 0 0 1-3.434 1.236c-1.138.276-2.488.417-4.063.417-5.3 0-9.49-2.197-12.585-6.585-3.088-4.388-4.636-10.253-4.636-17.595 0-4.056.523-7.575 1.576-10.557 1.046-2.982 2.494-5.575 4.346-7.787 1.682-2.014 3.724-3.604 6.126-4.777a17.134 17.134 0 0 1 7.618-1.76c2.43 0 4.423.255 5.985.764 1.554.509 3.37 1.307 5.44 2.381V86.317h14.493v64.422zm-14.492-12.833V115.09c-.714-.353-1.654-.65-2.813-.89-1.159-.233-2.155-.346-2.982-.346-3.476 0-6.09 1.208-7.843 3.639-1.753 2.43-2.629 5.822-2.629 10.19 0 4.578.693 7.892 2.085 9.934 1.399 2.043 3.653 3.06 6.77 3.06 1.271 0 2.557-.247 3.85-.742a13.251 13.251 0 0 0 3.562-2.028zM742.556 134.473h14.655v16.273h-14.655zM681.447 236.735c-9.25 0-16.591-2.791-22.032-8.38-5.434-5.59-8.154-13.455-8.154-23.58 0-9.773 2.727-17.567 8.175-23.376 5.455-5.808 12.804-8.712 22.054-8.712 2.452 0 4.663.134 6.62.41 1.958.275 3.838.664 5.633 1.159 1.406.416 2.94.982 4.593 1.703a68.99 68.99 0 0 1 4.02 1.858v14.698h-1.576a87.875 87.875 0 0 0-2.812-2.375 35.977 35.977 0 0 0-3.851-2.713 25.774 25.774 0 0 0-4.741-2.261 15.977 15.977 0 0 0-5.406-.926c-2.233 0-4.282.346-6.148 1.053-1.865.707-3.639 1.922-5.32 3.667-1.548 1.569-2.806 3.696-3.788 6.374-.982 2.678-1.47 5.837-1.47 9.483 0 3.837.51 7.059 1.534 9.666 1.017 2.608 2.36 4.713 4.013 6.31 1.604 1.548 3.392 2.664 5.364 3.357 1.971.692 3.935 1.032 5.9 1.032 2.042 0 3.985-.333 5.836-1.01 1.852-.68 3.406-1.428 4.678-2.255 1.378-.862 2.594-1.731 3.646-2.615a119.729 119.729 0 0 0 2.728-2.36h1.413v14.493c-1.137.523-2.445 1.124-3.936 1.802a35.54 35.54 0 0 1-4.593 1.717c-1.936.58-3.745 1.025-5.426 1.329-1.682.303-4 .452-6.954.452zM704.836 235.533l20.824-61.645h16.896l20.824 61.645h-15.942l-3.844-12.584h-19.382l-3.851 12.584h-15.525zm35.36-23.763l-6.296-20.33-6.29 20.33h12.586z"/></g><path d="M106.188 647.696c0 2.677-.476 5.21-1.428 7.597-.953 2.388-2.271 4.424-3.954 6.107-2.126 2.098-4.624 3.685-7.494 4.762-2.871 1.076-6.501 1.615-10.889 1.615h-6.956v22.979h-8.198v-61.65h15.485c3.643 0 6.748.303 9.316.911 2.567.607 4.83 1.587 6.79 2.939 2.291 1.574 4.085 3.568 5.382 5.983 1.297 2.415 1.946 5.334 1.946 8.757zm-8.529.207c0-2.125-.366-3.975-1.097-5.548-.732-1.573-1.843-2.857-3.333-3.851-1.298-.855-2.809-1.463-4.534-1.821-1.725-.359-3.871-.539-6.438-.539h-6.79v24.635h5.589c3.312 0 5.99-.269 8.032-.807 2.043-.538 3.741-1.497 5.093-2.877 1.215-1.243 2.098-2.595 2.65-4.058.552-1.463.828-3.174.828-5.134zM149.413 690.756h-7.784v-5.135c-2.401 2.098-4.678 3.692-6.831 4.783-2.153 1.09-4.555 1.635-7.204 1.635-2.015 0-3.913-.331-5.693-.994-1.781-.662-3.333-1.711-4.658-3.146-1.325-1.436-2.353-3.244-3.085-5.424-.731-2.181-1.097-4.831-1.097-7.95v-30.017h7.784v26.332c0 2.457.09 4.493.269 6.107.179 1.615.587 3.03 1.221 4.244.635 1.187 1.498 2.057 2.588 2.609s2.657.828 4.699.828c1.905 0 3.934-.538 6.087-1.615a27.739 27.739 0 0 0 5.92-3.975v-34.53h7.784v46.248zM191.438 667.487c0-5.521-.842-9.709-2.526-12.566-1.684-2.857-4.389-4.285-8.115-4.285-2.125 0-4.271.496-6.438 1.49a24.97 24.97 0 0 0-5.9 3.768v26.498c1.96.966 3.699 1.649 5.217 2.049 1.518.401 3.188.601 5.009.601 3.975 0 7.094-1.408 9.358-4.223 2.263-2.816 3.395-7.26 3.395-13.332zm8.032-.621c0 7.563-1.836 13.649-5.507 18.259-3.671 4.609-8.267 6.914-13.787 6.914-2.512 0-4.658-.311-6.438-.932a28.247 28.247 0 0 1-5.279-2.504l-.497 2.153h-7.287v-64.424h7.784v23.02a29.205 29.205 0 0 1 6.376-4.389c2.291-1.159 4.886-1.739 7.784-1.739 5.217 0 9.329 2.091 12.338 6.273 3.009 4.182 4.513 9.971 4.513 17.369zM207.709 626.332h7.784v64.424h-7.784zM234.953 690.756h-7.784v-46.248h7.784v46.248zm.538-53.991h-8.86v-8.073h8.86v8.073zM264.763 691.791c-3.174 0-6.086-.49-8.736-1.47-2.65-.98-4.927-2.464-6.832-4.451-1.904-1.987-3.381-4.492-4.43-7.515-1.049-3.022-1.573-6.576-1.573-10.661 0-4.058.545-7.563 1.635-10.517 1.091-2.953 2.547-5.437 4.368-7.452 1.822-2.015 4.092-3.568 6.811-4.658 2.719-1.09 5.638-1.636 8.757-1.636 2.54 0 4.989.359 7.349 1.077 2.36.718 4.465 1.546 6.314 2.484v8.736h-.455a29.332 29.332 0 0 0-2.132-1.615c-.87-.607-1.926-1.228-3.168-1.863-1.076-.552-2.346-1.035-3.809-1.449-1.463-.414-2.871-.621-4.223-.621-4.03 0-7.266 1.525-9.709 4.575-2.443 3.05-3.664 7.363-3.664 12.939 0 5.465 1.18 9.723 3.54 12.773 2.36 3.05 5.637 4.575 9.833 4.575 2.539 0 4.955-.525 7.246-1.573 2.291-1.049 4.319-2.402 6.086-4.058h.455v8.736c-.773.359-1.739.794-2.898 1.304-1.159.511-2.208.89-3.147 1.139a41.911 41.911 0 0 1-3.56.89c-1.049.207-2.402.311-4.058.311zM357.548 690.756h-10.641l-22.482-28.693-3.602 4.057v24.636h-8.198v-61.65h8.198v28.361l25.256-28.361h9.979l-25.505 27.533 26.995 34.117z" fill-rule="nonzero"/><path d="M379.575 691.832c-7.37 0-13.091-2.077-17.162-6.231s-6.107-10.054-6.107-17.7c0-7.536 1.974-13.532 5.921-17.99 3.947-4.458 9.109-6.687 15.485-6.687 2.87 0 5.41.414 7.618 1.243 2.208.828 4.14 2.125 5.796 3.891 1.656 1.767 2.926 3.927 3.809 6.48.884 2.553 1.325 5.679 1.325 9.378v4.223h-32.046c0 5.383 1.353 9.495 4.058 12.338s6.445 4.265 11.22 4.265c1.711 0 3.388-.193 5.03-.58 1.643-.386 3.126-.883 4.451-1.49 1.408-.635 2.595-1.249 3.561-1.843.966-.593 1.767-1.152 2.401-1.677h.456v8.488c-.911.359-2.043.807-3.395 1.346-1.353.538-2.567.959-3.644 1.262a48.052 48.052 0 0 1-4.119.953c-1.229.221-2.781.331-4.658.331zm9.109-29.355c-.056-2.098-.304-3.906-.746-5.424-.441-1.518-1.076-2.801-1.904-3.85-.911-1.16-2.077-2.043-3.499-2.65-1.421-.607-3.181-.911-5.279-.911-2.07 0-3.83.31-5.279.932-1.449.621-2.767 1.525-3.954 2.711-1.159 1.215-2.042 2.561-2.65 4.037-.607 1.477-.993 3.195-1.159 5.155h24.47zM440.479 644.508l-24.883 63.306h-8.322l8.28-19.294-16.809-44.012h8.404l12.628 34.241 12.587-34.241h8.115zM460.684 656.308h-9.895v-11.8h9.895v11.8zm0 34.448h-9.895v-11.8h9.895v11.8z" fill-rule="nonzero"/><g fill-rule="nonzero"><path d="M67.27 886.348v-61.645h38.545v7.285h-30.35v16.895h28.28v7.286h-28.28v22.894h30.35v7.285H67.27zM150.155 886.348h-9.56l-11.221-17.467-11.553 17.467h-8.819l16.061-22.936-15.898-23.312h9.567l11.136 17.312 11.426-17.312h8.861l-15.983 22.774 15.983 23.474zM194.997 862.005c0 7.702-1.844 13.836-5.525 18.408-3.689 4.564-8.345 6.847-13.977 6.847-2.29 0-4.318-.262-6.084-.784-1.767-.523-3.576-1.343-5.427-2.445v19.375h-7.78V840.1h7.78v4.848a28.708 28.708 0 0 1 6.437-4.367c2.36-1.173 4.94-1.76 7.724-1.76 5.3 0 9.433 2.099 12.4 6.29 2.969 4.196 4.452 9.828 4.452 16.894zm-8.034.87c0-5.272-.84-9.363-2.522-12.274-1.69-2.912-4.417-4.367-8.197-4.367-2.212 0-4.346.487-6.402 1.47-2.056.975-4.007 2.24-5.858 3.787v26.208c2.042.99 3.787 1.668 5.236 2.028 1.449.36 3.116.537 4.989.537 4.035 0 7.165-1.476 9.405-4.43 2.233-2.954 3.35-7.271 3.35-12.96zM211.016 886.348h-7.78V840.1h7.78v46.248zm.545-53.985H202.7v-8.077h8.86v8.077zM246.955 848.467h-.41a8.976 8.976 0 0 0-1.844-.311 36.628 36.628 0 0 0-2.339-.064c-2.099 0-4.183.46-6.254 1.37-2.07.912-4.027 2.262-5.879 4.057v32.83h-7.78V840.1h7.78v6.876c2.848-2.509 5.321-4.283 7.434-5.321 2.113-1.032 4.162-1.555 6.148-1.555.798 0 1.399.021 1.801.064.403.042.848.106 1.343.19v8.113zM277.39 874.965v-12.832c-1.852.162-4.191.388-7.018.678-2.833.29-5.116.7-6.854 1.222-2.07.636-3.78 1.611-5.13 2.919-1.357 1.314-2.035 3.144-2.035 5.49 0 2.65.75 4.65 2.24 6 1.491 1.356 3.667 2.027 6.543 2.027 2.452 0 4.678-.53 6.664-1.59a29.087 29.087 0 0 0 5.59-3.914zm0 6.458a90.756 90.756 0 0 0-2.545 1.965c-1.067.848-2.091 1.512-3.088 2.013-1.378.714-2.713 1.265-3.992 1.654-1.286.389-3.088.58-5.406.58-1.9 0-3.71-.361-5.427-1.075a14.016 14.016 0 0 1-4.508-3.024c-1.243-1.272-2.24-2.834-2.982-4.699-.749-1.865-1.116-3.83-1.116-5.9 0-3.201.671-5.929 2.028-8.176 1.35-2.254 3.49-4.042 6.416-5.363 2.593-1.187 5.66-2.007 9.193-2.466a156.04 156.04 0 0 1 11.426-1.01v-1.492c0-1.823-.275-3.292-.827-4.409-.55-1.116-1.328-1.986-2.317-2.586-.997-.636-2.212-1.06-3.647-1.265a31.294 31.294 0 0 0-4.43-.31c-1.795 0-3.908.268-6.331.805-2.431.537-4.862 1.321-7.293 2.339h-.452v-7.907c1.435-.417 3.49-.87 6.169-1.364a43.092 43.092 0 0 1 7.95-.75c3.172 0 5.85.248 8.034.75 2.176.494 4.14 1.392 5.879 2.692 1.681 1.265 2.94 2.911 3.766 4.925.827 2.014 1.244 4.473 1.244 7.37v31.628h-7.745v-4.925zM310.056 887.26c-4.254 0-7.56-1.208-9.935-3.618-2.374-2.417-3.561-6.232-3.561-11.454v-25.63h-5.258V840.1h5.258v-13.284h7.78V840.1h14.33v6.459h-14.33v21.99c0 2.346.042 4.155.127 5.42a9.257 9.257 0 0 0 .954 3.56c.466.969 1.23 1.697 2.275 2.177 1.053.48 2.473.72 4.268.72 1.265 0 2.494-.183 3.681-.557 1.188-.368 2.043-.679 2.565-.933h.46v7.002c-1.463.41-2.947.735-4.452.969-1.505.24-2.89.353-4.162.353zM332.371 886.348h-7.78V840.1h7.78v46.248zm.537-53.985h-8.854v-8.077h8.854v8.077zM381.848 863.249c0 7.78-1.872 13.793-5.631 18.033-3.752 4.233-8.748 6.352-14.988 6.352-6.43 0-11.49-2.19-15.17-6.564-3.69-4.374-5.527-10.317-5.527-17.821 0-7.73 1.894-13.737 5.689-18.012 3.794-4.282 8.797-6.416 15.008-6.416 6.24 0 11.236 2.134 14.988 6.395 3.759 4.268 5.631 10.274 5.631 18.033zm-8.034 0c0-5.992-1.088-10.444-3.264-13.355-2.184-2.911-5.286-4.367-9.32-4.367-4.057 0-7.18 1.456-9.378 4.367-2.19 2.911-3.292 7.363-3.292 13.355 0 5.794 1.102 10.19 3.292 13.185 2.198 2.997 5.321 4.495 9.377 4.495 4.007 0 7.102-1.47 9.3-4.41 2.19-2.94 3.285-7.363 3.285-13.27zM426.196 886.348h-7.787V860.02c0-2.127-.106-4.106-.311-5.943-.205-1.837-.6-3.307-1.18-4.41-.636-1.158-1.52-2.02-2.65-2.585-1.13-.566-2.678-.848-4.635-.848-1.936 0-3.93.515-5.985 1.547-2.057 1.039-4.063 2.381-6.02 4.042v34.525h-7.788V840.1h7.787v5.137c2.318-2.07 4.607-3.66 6.869-4.762a16.167 16.167 0 0 1 7.165-1.654c4.55 0 8.112 1.498 10.684 4.494 2.565 2.99 3.85 7.335 3.85 13.016v30.017zM451.45 851.9h-9.9v-11.8h9.9v11.8zm0 34.448h-9.9v-11.8h9.9v11.8zM183.07 971.142h-38.045v-8.649a724.616 724.616 0 0 0 7.738-7.454 164.864 164.864 0 0 0 7.123-7.413c4.692-5.158 7.892-9.292 9.603-12.4 1.717-3.103 2.572-6.311 2.572-9.625 0-1.71-.269-3.215-.806-4.515-.544-1.293-1.279-2.375-2.219-3.23a9.68 9.68 0 0 0-3.356-1.858c-1.265-.417-2.664-.622-4.176-.622-1.463 0-2.947.184-4.452.558a33.687 33.687 0 0 0-4.332 1.385 23.271 23.271 0 0 0-3.349 1.696c-1.081.664-1.95 1.23-2.607 1.703h-.46v-8.783c1.71-.855 4.092-1.689 7.144-2.501 3.053-.813 5.943-1.223 8.678-1.223 5.737 0 10.238 1.526 13.496 4.579 3.257 3.045 4.883 7.18 4.883 12.394 0 2.403-.283 4.628-.848 6.67a24.633 24.633 0 0 1-2.34 5.675 39.543 39.543 0 0 1-3.688 5.335 103.183 103.183 0 0 1-4.55 5.222 189.172 189.172 0 0 1-8.678 8.776 748.86 748.86 0 0 1-7.638 7.2h30.307v7.08zM229.65 940.299c0 11.065-1.604 19.191-4.82 24.364-3.221 5.18-8.182 7.766-14.888 7.766-6.79 0-11.772-2.636-14.945-7.908-3.172-5.27-4.762-13.32-4.762-24.138 0-11.122 1.61-19.262 4.826-24.406 3.215-5.151 8.176-7.724 14.881-7.724 6.791 0 11.773 2.664 14.945 7.992 3.18 5.328 4.763 13.341 4.763 24.054zm-10.6 18.796c.8-2.042 1.372-4.622 1.697-7.738.332-3.123.501-6.805.501-11.058 0-4.226-.17-7.893-.501-11.017-.325-3.116-.912-5.709-1.739-7.78-.826-2.098-1.964-3.695-3.413-4.783-1.448-1.088-3.335-1.633-5.653-1.633-2.289 0-4.176.545-5.653 1.633-1.476 1.088-2.642 2.713-3.497 4.868-.827 2.099-1.392 4.749-1.696 7.95-.304 3.2-.46 6.812-.46 10.846 0 4.304.135 7.907.396 10.805.262 2.897.834 5.49 1.717 7.787.806 2.12 1.943 3.759 3.42 4.903 1.477 1.145 3.4 1.718 5.773 1.718 2.29 0 4.177-.545 5.653-1.633 1.477-1.095 2.629-2.713 3.456-4.868zM275.65 971.142H237.6v-8.649a727.622 727.622 0 0 0 7.744-7.454 164.864 164.864 0 0 0 7.123-7.413c4.692-5.158 7.893-9.292 9.603-12.4 1.71-3.103 2.565-6.311 2.565-9.625 0-1.71-.269-3.215-.806-4.515-.537-1.293-1.279-2.375-2.212-3.23a9.68 9.68 0 0 0-3.356-1.858c-1.272-.417-2.664-.622-4.183-.622-1.463 0-2.947.184-4.452.558a33.233 33.233 0 0 0-4.324 1.385 23.721 23.721 0 0 0-3.357 1.696 49.651 49.651 0 0 0-2.607 1.703h-.453v-8.783c1.71-.855 4.092-1.689 7.144-2.501 3.046-.813 5.936-1.223 8.67-1.223 5.745 0 10.24 1.526 13.497 4.579 3.257 3.045 4.89 7.18 4.89 12.394 0 2.403-.283 4.628-.848 6.67a24.964 24.964 0 0 1-2.346 5.675c-1.018 1.787-2.247 3.568-3.682 5.335a99.926 99.926 0 0 1-4.557 5.222c-2.594 2.812-5.484 5.737-8.67 8.776a832.43 832.43 0 0 1-7.639 7.2h30.307v7.08zM322.231 940.299c0 11.065-1.611 19.191-4.826 24.364-3.215 5.18-8.176 7.766-14.882 7.766-6.79 0-11.772-2.636-14.952-7.908-3.172-5.27-4.755-13.32-4.755-24.138 0-11.122 1.604-19.262 4.819-24.406 3.215-5.151 8.176-7.724 14.888-7.724 6.791 0 11.773 2.664 14.945 7.992 3.173 5.328 4.763 13.341 4.763 24.054zm-10.6 18.796c.8-2.042 1.365-4.622 1.697-7.738.332-3.123.494-6.805.494-11.058 0-4.226-.162-7.893-.494-11.017-.332-3.116-.912-5.709-1.739-7.78-.826-2.098-1.964-3.695-3.42-4.783-1.448-1.088-3.328-1.633-5.646-1.633-2.296 0-4.176.545-5.652 1.633-1.477 1.088-2.643 2.713-3.498 4.868-.827 2.099-1.4 4.749-1.703 7.95-.297 3.2-.452 6.812-.452 10.846 0 4.304.134 7.907.395 10.805.262 2.897.834 5.49 1.717 7.787.799 2.12 1.937 3.759 3.413 4.903 1.477 1.145 3.406 1.718 5.78 1.718 2.29 0 4.17-.545 5.646-1.633 1.477-1.095 2.636-2.713 3.463-4.868zM329.39 940.426h23.353v7.497h-23.354zM399.323 940.299c0 11.065-1.611 19.191-4.826 24.364-3.215 5.18-8.176 7.766-14.881 7.766-6.791 0-11.773-2.636-14.945-7.908-3.18-5.27-4.763-13.32-4.763-24.138 0-11.122 1.604-19.262 4.82-24.406 3.214-5.151 8.182-7.724 14.888-7.724 6.79 0 11.772 2.664 14.944 7.992 3.173 5.328 4.763 13.341 4.763 24.054zm-10.6 18.796c.8-2.042 1.365-4.622 1.697-7.738.332-3.123.494-6.805.494-11.058 0-4.226-.162-7.893-.494-11.017-.332-3.116-.912-5.709-1.739-7.78-.826-2.098-1.964-3.695-3.413-4.783-1.448-1.088-3.335-1.633-5.652-1.633-2.29 0-4.177.545-5.653 1.633-1.477 1.088-2.643 2.713-3.498 4.868-.827 2.099-1.392 4.749-1.696 7.95-.304 3.2-.46 6.812-.46 10.846 0 4.304.135 7.907.396 10.805.262 2.897.834 5.49 1.717 7.787.799 2.12 1.937 3.759 3.413 4.903 1.477 1.145 3.406 1.718 5.78 1.718 2.29 0 4.177-.545 5.653-1.633 1.477-1.095 2.63-2.713 3.456-4.868zM444.617 951.52c0 2.982-.473 5.737-1.427 8.281-.954 2.537-2.282 4.735-4 6.579-1.738 1.88-3.893 3.356-6.48 4.43-2.578 1.082-5.468 1.619-8.67 1.619-2.953 0-5.857-.326-8.712-.976-2.862-.65-5.335-1.498-7.434-2.543v-8.734h.58c.636.466 1.547.996 2.734 1.59a36.887 36.887 0 0 0 3.93 1.674 41.382 41.382 0 0 0 4.472 1.35c1.35.318 2.869.473 4.55.473 1.661 0 3.272-.296 4.848-.89 1.576-.593 2.926-1.547 4.056-2.876 1.025-1.215 1.802-2.636 2.339-4.26.537-1.633.813-3.548.813-5.76 0-2.176-.297-3.97-.89-5.384-.594-1.406-1.456-2.565-2.594-3.477-1.187-1.045-2.643-1.787-4.367-2.211-1.724-.431-3.646-.643-5.773-.643-2.24 0-4.487.17-6.748.515-2.268.347-4.07.672-5.427.976v-31.756h33.826v7.243h-25.834v16.394c.996-.106 1.971-.191 2.94-.248a45.36 45.36 0 0 1 2.65-.078c3.144 0 5.808.262 7.991.785s4.275 1.547 6.296 3.06a15.45 15.45 0 0 1 4.699 5.8c1.088 2.319 1.632 5.343 1.632 9.067zM452.772 940.426h23.353v7.497h-23.353zM501.005 915.376c-1.483 0-2.974.177-4.465.537a31.38 31.38 0 0 0-4.389 1.406c-1.328.552-2.48 1.131-3.462 1.739a90.357 90.357 0 0 0-2.629 1.696h-.494v-8.734c1.795-.968 4.232-1.845 7.306-2.629 3.081-.784 6.014-1.18 8.798-1.18 2.79 0 5.229.283 7.306.848 2.085.565 3.971 1.442 5.653 2.629 1.823 1.328 3.194 2.925 4.12 4.805.925 1.88 1.392 4.07 1.392 6.585 0 3.392-1.124 6.374-3.357 8.939-2.233 2.565-4.91 4.197-8.034 4.89v.58c1.3.247 2.685.67 4.162 1.278 1.477.608 2.848 1.505 4.12 2.692 1.271 1.188 2.303 2.714 3.109 4.58.798 1.858 1.194 4.133 1.194 6.804 0 2.791-.474 5.35-1.428 7.681a19.21 19.21 0 0 1-4.034 6.19c-1.795 1.88-3.964 3.3-6.501 4.268-2.537.968-5.42 1.449-8.656 1.449-3.088 0-6.155-.375-9.186-1.117-3.039-.749-5.59-1.646-7.66-2.692v-8.734h.58c1.738 1.265 4.07 2.48 6.995 3.64 2.925 1.158 5.85 1.737 8.776 1.737a16.75 16.75 0 0 0 5.074-.805c1.695-.537 3.109-1.413 4.246-2.629a13.15 13.15 0 0 0 2.523-4.013c.58-1.463.87-3.314.87-5.554 0-2.233-.326-4.07-.976-5.505-.643-1.434-1.547-2.565-2.706-3.392-1.166-.833-2.537-1.406-4.12-1.717-1.59-.318-3.307-.48-5.158-.48h-3.52v-6.876h2.735c3.724 0 6.756-.883 9.088-2.65 2.331-1.766 3.497-4.331 3.497-7.695 0-1.547-.304-2.883-.911-3.999-.608-1.116-1.378-2.007-2.318-2.671a9.902 9.902 0 0 0-3.477-1.491 19.13 19.13 0 0 0-4.063-.41zM568.996 940.299c0 11.065-1.61 19.191-4.826 24.364-3.215 5.18-8.176 7.766-14.881 7.766-6.791 0-11.773-2.636-14.952-7.908-3.173-5.27-4.763-13.32-4.763-24.138 0-11.122 1.611-19.262 4.826-24.406 3.215-5.151 8.176-7.724 14.889-7.724 6.783 0 11.772 2.664 14.945 7.992 3.172 5.328 4.762 13.341 4.762 24.054zm-10.6 18.796c.8-2.042 1.365-4.622 1.697-7.738.332-3.123.494-6.805.494-11.058 0-4.226-.162-7.893-.494-11.017-.332-3.116-.912-5.709-1.738-7.78-.827-2.098-1.972-3.695-3.42-4.783-1.45-1.088-3.329-1.633-5.646-1.633-2.297 0-4.176.545-5.653 1.633-1.477 1.088-2.643 2.713-3.498 4.868-.834 2.099-1.4 4.749-1.703 7.95-.304 3.2-.452 6.812-.452 10.846 0 4.304.127 7.907.395 10.805.262 2.897.834 5.49 1.718 7.787.798 2.12 1.936 3.759 3.412 4.903 1.477 1.145 3.406 1.718 5.78 1.718 2.29 0 4.17-.545 5.647-1.633 1.476-1.095 2.628-2.713 3.462-4.868z"/></g><g fill-rule="nonzero"><path d="M103.307 340.32H67.312v-62.105h8.26v54.763h27.735v7.341zM147.52 317.05c0 7.837-1.887 13.893-5.667 18.16-3.788 4.268-8.819 6.402-15.1 6.402-6.48 0-11.575-2.204-15.292-6.606-3.71-4.41-5.568-10.395-5.568-17.956 0-7.787 1.915-13.835 5.738-18.146 3.822-4.31 8.86-6.465 15.121-6.465 6.282 0 11.313 2.148 15.1 6.444 3.781 4.296 5.668 10.352 5.668 18.167zm-8.091 0c0-6.034-1.095-10.521-3.293-13.454-2.197-2.932-5.328-4.402-9.384-4.402-4.091 0-7.236 1.47-9.447 4.402-2.212 2.933-3.314 7.42-3.314 13.454 0 5.837 1.102 10.268 3.314 13.285 2.211 3.017 5.356 4.522 9.447 4.522 4.028 0 7.151-1.484 9.363-4.444 2.212-2.961 3.314-7.413 3.314-13.363zM174.096 341.365c-3.201 0-6.134-.495-8.805-1.484-2.67-.982-4.96-2.48-6.882-4.48-1.915-2.007-3.406-4.53-4.459-7.575-1.06-3.038-1.59-6.62-1.59-10.74 0-4.085.551-7.618 1.647-10.592 1.102-2.975 2.565-5.477 4.402-7.505 1.837-2.035 4.126-3.596 6.861-4.699 2.742-1.095 5.681-1.646 8.826-1.646 2.558 0 5.024.36 7.398 1.088 2.381.72 4.501 1.555 6.367 2.501v8.798h-.46a32.613 32.613 0 0 0-2.148-1.625c-.876-.608-1.943-1.237-3.194-1.873-1.08-.558-2.36-1.046-3.837-1.463-1.477-.417-2.89-.621-4.254-.621-4.063 0-7.32 1.533-9.78 4.607-2.465 3.073-3.695 7.412-3.695 13.03 0 5.511 1.194 9.8 3.569 12.867 2.374 3.074 5.68 4.614 9.906 4.614 2.558 0 4.99-.53 7.3-1.59a22.621 22.621 0 0 0 6.133-4.084h.46v8.798c-.785.367-1.753.805-2.926 1.314-1.166.516-2.219.897-3.165 1.152a43.5 43.5 0 0 1-3.59.897c-1.053.205-2.417.311-4.084.311zM221.015 328.85v-12.93c-1.858.17-4.218.396-7.066.692-2.855.29-5.151.7-6.904 1.23-2.084.636-3.808 1.618-5.172 2.94-1.364 1.32-2.042 3.158-2.042 5.525 0 2.671.749 4.685 2.247 6.049 1.505 1.364 3.702 2.042 6.592 2.042 2.474 0 4.714-.537 6.713-1.604a29.3 29.3 0 0 0 5.632-3.943zm0 6.509c-.636.473-1.49 1.13-2.565 1.978-1.067.848-2.106 1.527-3.102 2.028-1.392.721-2.735 1.28-4.028 1.668-1.293.389-3.109.58-5.44.58-1.923 0-3.746-.36-5.47-1.082a14 14 0 0 1-4.543-3.045c-1.251-1.28-2.255-2.855-3.004-4.735a15.896 15.896 0 0 1-1.123-5.942c0-3.23.678-5.971 2.042-8.24 1.364-2.268 3.519-4.07 6.466-5.398 2.614-1.201 5.695-2.028 9.256-2.487 3.562-.46 7.399-.799 11.511-1.018v-1.505c0-1.837-.275-3.314-.834-4.437-.55-1.131-1.335-2-2.332-2.608-1.003-.643-2.225-1.067-3.674-1.272a30.663 30.663 0 0 0-4.459-.318c-1.809 0-3.936.276-6.38.813a42.59 42.59 0 0 0-7.342 2.36h-.46v-7.97c1.442-.418 3.52-.87 6.212-1.372 2.699-.501 5.37-.756 8.013-.756 3.194 0 5.893.255 8.09.756 2.198.502 4.17 1.4 5.922 2.707 1.696 1.279 2.96 2.94 3.794 4.967.834 2.028 1.251 4.502 1.251 7.427v31.861h-7.8v-4.96zM253.93 341.238c-4.283 0-7.625-1.215-10.013-3.646-2.389-2.438-3.59-6.282-3.59-11.532v-25.82h-5.293v-6.508h5.293v-13.39h7.843v13.39h14.437v6.508H248.17v22.145c0 2.368.043 4.184.128 5.463a9.277 9.277 0 0 0 .96 3.59c.467.974 1.237 1.702 2.29 2.19 1.06.487 2.487.727 4.296.727 1.28 0 2.516-.183 3.717-.558 1.194-.381 2.056-.692 2.586-.94h.46v7.045a37.638 37.638 0 0 1-4.487.983c-1.52.233-2.912.353-4.19.353zM276.407 340.32h-7.837v-46.588h7.837v46.587zm.544-54.39h-8.925v-8.132h8.925v8.133zM326.252 317.05c0 7.837-1.887 13.893-5.667 18.16-3.788 4.268-8.819 6.402-15.1 6.402-6.48 0-11.575-2.204-15.292-6.606-3.71-4.41-5.568-10.395-5.568-17.956 0-7.787 1.915-13.835 5.738-18.146 3.822-4.31 8.86-6.465 15.121-6.465 6.282 0 11.313 2.148 15.1 6.444 3.781 4.296 5.668 10.352 5.668 18.167zm-8.091 0c0-6.034-1.095-10.521-3.293-13.454-2.197-2.932-5.328-4.402-9.384-4.402-4.091 0-7.236 1.47-9.447 4.402-2.212 2.933-3.321 7.42-3.321 13.454 0 5.837 1.109 10.268 3.32 13.285 2.212 3.017 5.357 4.522 9.448 4.522 4.028 0 7.151-1.484 9.363-4.444 2.212-2.961 3.314-7.413 3.314-13.363zM370.924 340.32h-7.836v-26.527c0-2.141-.106-4.134-.318-5.985-.205-1.852-.6-3.328-1.187-4.445-.636-1.166-1.527-2.035-2.671-2.607-1.138-.566-2.693-.855-4.671-.855-1.943 0-3.957.523-6.028 1.568-2.07 1.04-4.09 2.396-6.07 4.064v34.786h-7.836v-46.587h7.837v5.172c2.338-2.084 4.642-3.688 6.924-4.797a16.294 16.294 0 0 1 7.215-1.668c4.593 0 8.176 1.505 10.762 4.522 2.586 3.018 3.88 7.391 3.88 13.122v30.236zM396.37 305.617h-9.971v-11.885h9.97v11.885zm0 34.702h-9.971v-11.885h9.97v11.885zM171.672 426.873c-4.056 0-7.794-.685-11.2-2.042a23.894 23.894 0 0 1-8.819-6.091c-2.473-2.7-4.395-6.063-5.758-10.098-1.364-4.028-2.043-8.663-2.043-13.885 0-5.2.658-9.737 1.979-13.602 1.321-3.865 3.25-7.229 5.78-10.09a24.628 24.628 0 0 1 8.797-6.36c3.4-1.463 7.194-2.19 11.391-2.19 2.085 0 4.042.148 5.858.458a40.36 40.36 0 0 1 5.074 1.166c1.328.417 2.699.94 4.105 1.562a56.605 56.605 0 0 1 4.148 2.063v9.97h-.664a71.351 71.351 0 0 0-2.799-2.416c-1.137-.947-2.53-1.88-4.169-2.798-1.582-.862-3.307-1.569-5.172-2.127-1.866-.551-4.02-.834-6.466-.834-2.642 0-5.144.544-7.504 1.625-2.367 1.089-4.437 2.686-6.218 4.798-1.753 2.113-3.116 4.77-4.084 7.971-.976 3.194-1.463 6.798-1.463 10.804 0 4.254.516 7.914 1.54 10.988 1.032 3.074 2.438 5.667 4.219 7.78 1.724 2.056 3.752 3.604 6.084 4.65 2.339 1.045 4.812 1.561 7.426 1.561 2.396 0 4.6-.29 6.636-.876 2.027-.58 3.836-1.314 5.42-2.205 1.533-.862 2.847-1.745 3.963-2.65 1.11-.904 1.986-1.674 2.629-2.317h.622v9.843c-1.364.643-2.65 1.25-3.858 1.837-1.209.587-2.678 1.152-4.395 1.71-1.81.587-3.484 1.032-5.032 1.336-1.54.304-3.554.459-6.027.459zM198.24 360.847h7.844v64.902h-7.843zM225.686 425.742h-7.837v-46.587h7.837v46.587zm.544-54.388h-8.925v-8.133h8.925v8.133zM261.893 368.35h-.417c-.692-.246-1.696-.494-3.003-.727-1.307-.24-2.473-.353-3.505-.353-3.307 0-5.667.742-7.066 2.226-1.406 1.49-2.106 4.183-2.106 8.076v1.583h12.967v6.508h-12.72v40.08H238.2v-40.08h-5.293v-6.508h5.293v-1.547c0-5.611 1.35-9.879 4.049-12.804 2.7-2.919 6.564-4.374 11.596-4.374 1.448 0 2.861.07 4.253.226 1.392.155 2.657.325 3.795.523v7.172z"/><path d="M278.661 426.661c-4.282 0-7.617-1.215-10.013-3.646-2.388-2.438-3.582-6.282-3.582-11.532v-25.82h-5.3v-6.508h5.3v-13.39h7.843v13.39h14.43v6.508h-14.43v22.145c0 2.368.035 4.184.12 5.463a9.277 9.277 0 0 0 .961 3.59c.474.974 1.237 1.702 2.297 2.19 1.053.487 2.487.728 4.296.728 1.279 0 2.516-.184 3.71-.559 1.194-.381 2.056-.692 2.586-.94h.46v7.045a37.337 37.337 0 0 1-4.488.983c-1.512.24-2.911.353-4.19.353zM331.467 402.473c0 7.837-1.887 13.893-5.675 18.16-3.78 4.268-8.811 6.402-15.093 6.402-6.48 0-11.581-2.197-15.291-6.606-3.71-4.41-5.568-10.395-5.568-17.956 0-7.786 1.915-13.835 5.737-18.146 3.823-4.31 8.861-6.465 15.122-6.465 6.282 0 11.313 2.148 15.093 6.444 3.788 4.297 5.675 10.352 5.675 18.167zm-8.091 0c0-6.034-1.095-10.521-3.293-13.454-2.198-2.932-5.328-4.402-9.384-4.402-4.091 0-7.243 1.47-9.447 4.402-2.212 2.933-3.322 7.42-3.322 13.454 0 5.837 1.11 10.268 3.322 13.285 2.204 3.017 5.356 4.522 9.447 4.522 4.028 0 7.151-1.477 9.363-4.444 2.211-2.961 3.314-7.413 3.314-13.363zM376.139 425.742h-7.844v-26.526c0-2.141-.098-4.134-.31-5.985-.205-1.851-.601-3.328-1.188-4.445-.643-1.166-1.533-2.035-2.67-2.6-1.138-.572-2.7-.855-4.671-.855-1.944 0-3.957.516-6.028 1.562-2.07 1.038-4.091 2.395-6.07 4.063v34.786h-7.843v-46.587h7.843v5.172c2.34-2.084 4.643-3.688 6.925-4.797a16.294 16.294 0 0 1 7.215-1.668c4.593 0 8.175 1.505 10.762 4.522 2.586 3.018 3.879 7.392 3.879 13.122v30.236zM191.818 511.172h-9.257l-27.445-53.561v53.561H147.4v-62.111h11.715l24.986 49.18v-49.18h7.717v62.111zM224.018 512.254c-7.42 0-13.185-2.092-17.284-6.275-4.105-4.19-6.154-10.133-6.154-17.835 0-7.59 1.985-13.63 5.964-18.125 3.978-4.487 9.179-6.734 15.602-6.734 2.89 0 5.448.417 7.674 1.25 2.225.835 4.169 2.142 5.836 3.922 1.668 1.781 2.947 3.957 3.837 6.53.89 2.572 1.336 5.716 1.336 9.447v4.254h-32.286c0 5.42 1.364 9.568 4.092 12.43 2.727 2.861 6.493 4.296 11.305 4.296a22.07 22.07 0 0 0 5.067-.587c1.653-.389 3.144-.89 4.48-1.498 1.42-.643 2.614-1.258 3.59-1.858.975-.601 1.78-1.16 2.416-1.69h.46v8.55c-.92.361-2.057.813-3.42 1.358-1.364.544-2.587.968-3.668 1.272a50.128 50.128 0 0 1-4.155.96c-1.236.22-2.798.333-4.692.333zm9.18-29.572c-.057-2.113-.305-3.936-.75-5.463-.445-1.533-1.088-2.826-1.922-3.879-.918-1.173-2.091-2.063-3.526-2.67-1.427-.616-3.2-.92-5.314-.92-2.084 0-3.858.311-5.32.94-1.456.622-2.785 1.534-3.986 2.728-1.166 1.23-2.056 2.579-2.664 4.07-.614 1.484-1.003 3.215-1.173 5.194h24.654zM305.23 464.578l-11.8 46.594h-7.258l-11.39-35.917-11.306 35.917h-7.215l-11.928-46.594h8.176l8.218 36.08 11.052-36.08h6.465l11.348 36.08 7.759-36.08h7.879zM362.876 495.026c0 5.448-1.66 9.653-4.982 12.6-3.328 2.946-7.78 4.416-13.37 4.416-1.335 0-3.122-.113-5.362-.354-2.24-.233-4.106-.516-5.61-.855v-7.878h.458c1.145.388 2.551.82 4.233 1.293 1.682.473 3.399.706 5.151.706 2.558 0 4.6-.29 6.113-.876 1.519-.586 2.635-1.42 3.356-2.501.756-1.117 1.23-2.474 1.441-4.092.212-1.61.311-3.476.311-5.589v-36.242H341.48v-6.593h21.397v45.965zM394.66 512.254c-7.427 0-13.186-2.092-17.292-6.275-4.098-4.19-6.147-10.133-6.147-17.835 0-7.59 1.985-13.63 5.964-18.125 3.97-4.487 9.172-6.734 15.595-6.734 2.897 0 5.455.417 7.68 1.25 2.22.835 4.17 2.142 5.837 3.922 1.668 1.781 2.947 3.957 3.837 6.53.89 2.572 1.336 5.716 1.336 9.447v4.254h-32.286c0 5.42 1.364 9.568 4.092 12.43 2.72 2.861 6.487 4.296 11.299 4.296a22.07 22.07 0 0 0 5.066-.587c1.66-.389 3.152-.89 4.487-1.498 1.42-.643 2.615-1.258 3.59-1.858.968-.601 1.773-1.16 2.416-1.69h.46v8.55c-.919.361-2.057.813-3.42 1.358-1.364.544-2.587.968-3.675 1.272a50.016 50.016 0 0 1-4.148.96c-1.236.22-2.798.333-4.692.333zm9.178-29.572c-.056-2.113-.31-3.936-.756-5.463-.445-1.533-1.08-2.826-1.915-3.879-.918-1.173-2.091-2.063-3.526-2.67-1.434-.616-3.2-.92-5.32-.92-2.085 0-3.859.311-5.314.94-1.463.622-2.791 1.534-3.986 2.728-1.166 1.23-2.056 2.579-2.67 4.07-.608 1.484-.997 3.215-1.167 5.194h24.654zM444.087 473.001h-.417a9.115 9.115 0 0 0-1.858-.31 36.95 36.95 0 0 0-2.353-.065c-2.113 0-4.211.46-6.303 1.378-2.085.919-4.056 2.283-5.922 4.092v33.076h-7.843v-46.594h7.843v6.925c2.87-2.53 5.364-4.317 7.49-5.363 2.128-1.039 4.19-1.562 6.19-1.562.806 0 1.414.021 1.817.064.402.042.855.106 1.356.183v8.176zM462.77 512.296c-3.109 0-6.027-.417-8.733-1.25-2.714-.835-4.96-1.725-6.742-2.672v-8.797h.417c.672.523 1.456 1.11 2.36 1.745.905.643 2.106 1.307 3.611 2.007a33.42 33.42 0 0 0 4.395 1.625c1.604.474 3.265.707 4.99.707 1.25 0 2.585-.141 3.999-.438 1.42-.29 2.48-.657 3.172-1.103.975-.643 1.675-1.32 2.106-2.042.431-.727.65-1.809.65-3.257 0-1.859-.509-3.265-1.526-4.212-1.01-.947-2.813-1.738-5.399-2.374a93.797 93.797 0 0 0-3.922-.876c-1.61-.34-3.102-.7-4.465-1.088-3.555-1.025-6.14-2.622-7.759-4.777-1.611-2.155-2.417-4.763-2.417-7.822 0-4.198 1.583-7.618 4.756-10.26 3.173-2.636 7.384-3.957 12.634-3.957 2.586 0 5.187.318 7.801.954 2.615.643 4.812 1.448 6.593 2.423v8.38h-.417a24.551 24.551 0 0 0-6.692-3.751c-2.466-.919-4.946-1.378-7.447-1.378-2.587 0-4.77.544-6.55 1.625-1.781 1.088-2.672 2.727-2.672 4.925 0 1.943.53 3.399 1.59 4.36 1.053.96 2.749 1.745 5.088 2.353 1.166.31 2.466.608 3.9.897 1.428.297 2.94.636 4.523 1.025 3.448.862 6.041 2.29 7.78 4.296 1.738 2 2.607 4.727 2.607 8.176 0 2-.396 3.9-1.187 5.695a12.62 12.62 0 0 1-3.484 4.607 17.72 17.72 0 0 1-5.653 3.166c-2.098.728-4.734 1.088-7.907 1.088zM508.53 512.254c-7.426 0-13.185-2.092-17.29-6.275-4.098-4.19-6.155-10.133-6.155-17.835 0-7.59 1.993-13.63 5.971-18.125 3.971-4.487 9.172-6.734 15.595-6.734 2.897 0 5.455.417 7.674 1.25 2.226.835 4.176 2.142 5.844 3.922 1.668 1.781 2.946 3.957 3.837 6.53.89 2.572 1.335 5.716 1.335 9.447v4.254h-32.285c0 5.42 1.364 9.568 4.084 12.43 2.728 2.861 6.494 4.296 11.306 4.296a22.07 22.07 0 0 0 5.067-.587c1.653-.389 3.151-.89 4.487-1.498 1.42-.643 2.614-1.258 3.582-1.858.975-.601 1.78-1.16 2.424-1.69h.46v8.55c-.92.361-2.057.813-3.42 1.358-1.365.544-2.587.968-3.675 1.272a50.016 50.016 0 0 1-4.148.96c-1.237.22-2.805.333-4.692.333zm9.18-29.572c-.057-2.113-.311-3.936-.756-5.463-.445-1.533-1.081-2.826-1.915-3.879-.919-1.173-2.092-2.063-3.526-2.67-1.435-.616-3.208-.92-5.321-.92-2.085 0-3.858.311-5.314.94-1.462.622-2.79 1.534-3.985 2.728-1.166 1.23-2.056 2.579-2.671 4.07-.608 1.484-.996 3.215-1.166 5.194h24.654zM569.887 464.578l-25.071 63.772h-8.38l8.337-19.432-16.93-44.34h8.465l12.726 34.497 12.677-34.497h8.176zM590.993 499.28l-11.68 27.325h-6.091l7.342-27.325h10.43zM650.681 512.459c-3.646 0-6.826-.474-9.553-1.435-2.728-.96-5.045-2.388-6.967-4.275-2.17-2.17-3.696-4.763-4.586-7.78-.89-3.017-1.336-6.734-1.336-11.157V449.06h8.26v38.75c0 2.863.177 5.28.545 7.236.36 1.958 1.067 3.717 2.126 5.279 1.11 1.668 2.622 2.932 4.523 3.794 1.908.863 4.232 1.294 6.988 1.294 2.586 0 4.883-.431 6.883-1.294 2-.862 3.561-2.126 4.67-3.794a14.711 14.711 0 0 0 2.106-5.257c.375-1.922.565-4.268.565-7.052V449.06h8.26v38.75c0 4.311-.437 8.007-1.313 11.095-.877 3.088-2.417 5.702-4.615 7.843a19.07 19.07 0 0 1-6.903 4.296c-2.622.947-5.844 1.414-9.653 1.414zM702.32 512.296c-4.507 0-8.337-.466-11.496-1.4-3.151-.932-6.12-2.077-8.903-3.44V497.11h.586a29.732 29.732 0 0 0 9.257 5.942c3.448 1.407 6.77 2.106 9.97 2.106 4.558 0 8.006-.947 10.345-2.855 2.332-1.9 3.505-4.416 3.505-7.525 0-2.48-.615-4.494-1.837-6.049-1.223-1.561-3.173-2.713-5.837-3.462a93.182 93.182 0 0 0-5.257-1.378c-1.583-.36-3.575-.848-5.964-1.463-2.14-.55-4.063-1.265-5.759-2.127a16.187 16.187 0 0 1-4.501-3.377c-1.279-1.364-2.275-2.968-2.982-4.82-.714-1.844-1.067-3.978-1.067-6.401 0-5.031 1.965-9.25 5.88-12.656 3.92-3.406 8.93-5.109 15.015-5.109 3.476 0 6.77.346 9.864 1.039 3.102.7 5.978 1.682 8.614 2.96v9.886h-.622c-1.978-1.802-4.508-3.384-7.589-4.734a24.144 24.144 0 0 0-9.723-2.021c-3.837 0-6.94.897-9.3 2.692-2.366 1.795-3.546 4.148-3.546 7.066 0 2.643.692 4.742 2.084 6.303 1.392 1.555 3.406 2.693 6.049 3.42 1.752.474 3.893 1.004 6.423 1.605 2.53.6 4.628 1.144 6.303 1.646 4.282 1.307 7.405 3.286 9.384 5.921 1.971 2.643 2.96 5.9 2.96 9.766 0 2.416-.494 4.805-1.483 7.172-.983 2.36-2.367 4.367-4.148 6.006-2 1.81-4.261 3.201-6.777 4.17-2.515.974-5.667 1.462-9.447 1.462zM725.3 511.172l20.937-62.111h10.183l20.937 62.111h-8.72l-5.632-17.354h-23.728l-5.632 17.354H725.3zm35.416-24.406l-9.596-29.275-9.554 29.275h19.15z"/></g><path d="M671.292 649.576c-.256-.383.125-.914.242-1.36.274-1.048.653-2.068.929-3.117 1.203-4.567 1.846-9.203 2.026-13.94 1.576-41.586-59.099-57.68-80.243-20.117-5.298 9.414-7.551 20.49-5.808 31.111.931 5.669 2.918 11.217 6.049 16.051 7.682 11.862 22.714 19.769 36.915 18.254 5.773-.616 6.174-.887 11.555-2.133 1.422-.329 5.045-1.634 6.943-.998 1.329.446 1.616 1.834 1.56 3.068-.069 1.531-.429 2.16-1.022 3.626-.589 1.455-1.576 3.035-.387 4.493.265.326.582.613.927.852.46.319.95.608 1.472.813 2.277.893 3.952-.53 5.747-1.732.703-.471 1.302-1.172 2.117-1.401.343-.097.638.327.92.546a32.623 32.623 0 0 1 2.101 1.796c2.382 2.194 4.76 4.394 7.075 6.658a2167.986 2167.986 0 0 1 42.125 42.302c3.602 3.719 7.023 7.612 10.652 11.306.495.503 2.128.642 2.556.66 4.098.179 5.973.067 10.087-.497.986-.135 3.433-.407 3.882-1.64.418-1.15.426-3.918.416-4.502-.053-2.903-.488-14.215-1.914-15.322-1.634-1.269-5.358-.46-6.086-2.044-1.405-3.059.428-7.054-1.178-8.421-1.667-1.419-7.049-1.7-7.975-2.95-1.262-1.7-.353-4.339-1.938-5.897-2.573-2.531-5.227-.578-8.224-2.163-1.286-.68-.601-7.414-1.977-8.364-2.573-1.778-7.23.661-9.477-1.779-1.233-1.34-.576-8.045-.937-9.433-.433-1.666-7.285-4.111-7.625-5.029-.776-2.095-.319-2.956-.83-5.087-.138-.576-.606-1.021-.965-1.492-2.153-2.825-8.532-9.859-9.385-10.805-.857-.951 6.341-4.718 2.415-8.642-3.509-3.506-7.582 2.96-8.58 1.869-2.282-2.495-4.16-4.54-4.16-4.54zm-52.077-41.351c6.882 0 12.469 5.405 12.469 12.062 0 6.657-5.587 12.062-12.469 12.062-6.883 0-12.47-5.405-12.47-12.062 0-6.657 5.587-12.062 12.47-12.062z" fill="url(#a)" stroke="#000" stroke-width="2.17"/><path d="M648.521 661.692l83.023 83.898M655.862 655.402l83.694 81.774" fill="none" stroke="#000" stroke-width="1.86"/><path d="M625.595 638.267l11.032-10.347 2.122 2.262-4.165 3.906 14.39 15.344 4.165-3.906 2.123 2.263-11.033 10.347-2.122-2.263 4.166-3.907-14.39-15.344-4.167 3.907-2.121-2.262z" fill="none"/><path d="M625.595 638.267l11.032-10.347 2.122 2.262-4.165 3.906 14.39 15.344 4.165-3.906 2.123 2.263-11.033 10.347-2.122-2.263 4.166-3.907-14.39-15.344-4.167 3.907-2.121-2.262z" fill="#fff" fill-rule="nonzero"/><path d="M636.85 625.763l.154.022.152.031.149.044.144.054.142.064.136.074.13.082.125.092.117.103.11.108 2.12 2.262.102.117.095.123.084.13.074.135.065.14.055.146.044.148.034.151.022.154.012.154v.156l-.01.152-.022.154-.031.152-.045.148-.053.145-.064.141-.074.136-.082.13-.092.126-.101.118-.11.11-2.583 2.422 11.424 12.18 2.583-2.422.117-.102.124-.094.13-.084.135-.074.141-.064.145-.056.148-.043.152-.035.152-.022.156-.011h.153l.155.01.153.022.152.03.148.044.145.055.142.063.135.073.131.083.125.093.115.101.11.109 2.123 2.263.101.116.095.123.083.13.075.136.065.14.055.146.044.148.033.15.023.155.01.153.001.155-.009.154-.022.154-.032.15-.043.15-.054.145-.064.141-.074.136-.082.13-.093.124-.102.118-.109.11-11.032 10.347-.117.102-.124.093-.128.084-.136.075-.14.065-.146.055-.148.044-.151.032-.154.024-.153.011h-.155l-.155-.01-.153-.02-.151-.035-.15-.041-.144-.054-.141-.063-.136-.075-.132-.083-.122-.092-.118-.101-.11-.11-2.122-2.262-.102-.117-.092-.123-.086-.129-.074-.137-.064-.139-.055-.145-.045-.15-.032-.15-.023-.153-.012-.154v-.156l.01-.153.02-.154.034-.152.043-.147.052-.146.065-.14.073-.138.085-.13.09-.123.102-.118.109-.11 2.583-2.423-11.423-12.18-2.584 2.423-.116.101-.125.094-.129.083-.136.074-.14.066-.146.054-.148.044-.15.034-.155.022-.153.011-.154.002-.155-.01-.154-.022-.15-.033-.15-.043-.145-.053-.141-.064-.136-.074-.13-.082-.124-.094-.118-.101-.11-.11-2.121-2.26-.102-.117-.093-.124-.086-.13-.073-.135-.065-.14-.055-.146-.044-.148-.033-.152-.023-.152-.012-.155v-.155l.01-.154.022-.152.032-.153.043-.148.053-.144.064-.142.074-.136.084-.132.09-.123.102-.118.109-.11 11.032-10.347.117-.102.124-.093.13-.084.136-.074.14-.065.146-.055.147-.044.152-.034.153-.022.155-.012h.153l.155.01zm-11.255 12.504l2.121 2.262 4.166-3.907 14.39 15.344-4.165 3.907 2.122 2.263 11.033-10.347-2.123-2.263-4.164 3.906-14.391-15.344 4.165-3.906-2.122-2.262-11.032 10.347z"/><g><path d="M936.867 907.247l-222.026.011-.261 276.83h222.287V907.247z" fill="#fff" stroke="#000" stroke-width="3.8"/><path d="M810.189 1079.73c1.069.698 3.282 1.047 6.639 1.047 10.465 0 19.077-2.072 25.836-6.214 10.378-6.366 15.567-17.246 15.567-32.638 0-13.736-4.273-24.07-12.82-31.003-7.326-5.931-17.028-8.896-29.106-8.896-3.009 0-5.047.327-6.116.981-1.068.654-1.602 2.093-1.602 4.317v68.089c0 2.18.534 3.619 1.602 4.317zm-26.98 3.597c4.884-.523 8.067-1.406 9.549-2.649 1.483-1.242 2.224-4.393 2.224-9.451v-59.586c0-4.884-.719-8.023-2.158-9.419-1.439-1.395-4.644-2.267-9.615-2.616v-2.485h36.105c12.165 0 22.456 2.005 30.872 6.017 15.174 7.195 22.762 20.058 22.762 38.59 0 6.672-1.363 13.016-4.088 19.034-2.726 6.017-6.835 11.097-12.33 15.24-3.488 2.616-7.107 4.6-10.857 5.952-6.846 2.529-15.262 3.794-25.247 3.794h-37.217v-2.421z" fill-rule="nonzero"/><path d="M730.333 951.626l24.555-13.309 20.776 16.54 19.872-8.116 22.013 14.28 19.151-11.972 21.542 14.952 18.833-12.199 19.031-6.654 2.177 8.019 17.414-1.541M730.333 918.619l19.163 11.798 18.137-3.832 15.684 7.793 19.565-7.934 11.372-10.022 13.369 15.18 29.335-12.329 24.763 18.803 18.414-14.077 15.562 3.59M735.75 1161.45l22.351 11.4 17.106-23.49 24.391 11.193 18.249-12.042 15.436 25.001 7.561-8.028 30.741-12.609 14.845 12.736 15.571 3.66 13.696-12.676M735.75 1132.95l22.364-10.585 13.865 3.056 21.518 16.856 29.842-10.859 32.062 14.754 5.362-16.553 49.2 9.028 5.734-5.697M735.75 1109.34l30.076-12.242 27.221 16.731 18.831-9.944 19.536 18.768 20.055-27.933 25.464 24.421 20.789-18.832 17.975 9.031M730.341 981.073l21.947-13.226 27.249 9.925 22.576-11.375 13.796 11.639 26.057 5.072 22.947-6.381 11.215-12.632 19.153 19.092 20.416-8.406" fill="none" stroke="#000" stroke-width="2.98"/></g><defs><radialGradient id="a" cx="0" cy="0" r="1" gradientUnits="userSpaceOnUse" gradientTransform="matrix(58.4875 22.275 -22.8914 60.106 656.153 628.968)"><stop offset="0%" stop-color="#3ce61a"/><stop offset="100%" stop-color="#aef4a0"/></radialGradient></defs></svg>