<svg viewBox="0 0 956 1200" xmlns="http://www.w3.org/2000/svg" fill-rule="evenodd" clip-rule="evenodd" stroke-linecap="round" stroke-linejoin="round" stroke-miterlimit="1.414"><path d="M844.081 9.52l-833.912.039-.012 1038.55h833.924V9.519z" fill="#fff" stroke="#000" stroke-width="14.24"/><g font-size="12"><text x="174.276" y="181.661" font-family="'Tahoma',sans-serif" transform="translate(-1170.45 -1132.91) scale(7.06618)">Name:</text><text x="212.971" y="181.661" font-family="'Tahoma-Bold','Tahoma',sans-serif" font-weight="700" transform="translate(-1170.45 -1132.91) scale(7.06618)">Root CA</text></g><text x="61.017" y="690.756" font-family="'Tahoma',sans-serif" font-size="84.794">Public K<tspan x="353.863px 398.496px" y="690.756px 690.756px">ey</tspan>:</text><g font-family="'Tahoma',sans-serif" font-size="12"><text x="174.276" y="181.661" transform="translate(-1170.45 -397.301) scale(7.06618)">Expir<tspan x="200.444px 206.743px" y="181.661px 181.661px">at</tspan>ion:</text><text x="185.526" y="193.661" transform="translate(-1170.45 -397.301) scale(7.06618)">2029-12-31</text></g><g font-family="'Tahoma',sans-serif" font-size="12.089"><text x="174.276" y="181.661" transform="translate(-1170.45 -943.33) scale(7.06618)">Location:</text><text x="185.609" y="193.75" transform="translate(-1170.45 -943.33) scale(7.06618)">Clifton</text><text x="185.609" y="205.84" transform="translate(-1170.45 -943.33) scale(7.06618)">New Jersey</text><text x="246.326" y="205.84" transform="translate(-1170.45 -943.33) scale(7.06618)">, USA</text></g><path d="M671.292 649.576c-.256-.383.125-.914.242-1.36.274-1.048.653-2.068.929-3.117 1.203-4.567 1.846-9.203 2.026-13.94 1.576-41.586-59.099-57.68-80.243-20.117-5.298 9.414-7.551 20.49-5.808 31.111.931 5.669 2.918 11.217 6.049 16.051 7.682 11.862 22.714 19.769 36.915 18.254 5.773-.616 6.174-.887 11.555-2.133 1.422-.329 5.045-1.634 6.943-.998 1.329.446 1.616 1.834 1.56 3.068-.069 1.531-.429 2.16-1.022 3.626-.589 1.455-1.576 3.035-.387 4.493.265.326.582.613.927.852.46.319.95.608 1.472.813 2.277.893 3.952-.53 5.747-1.732.703-.471 1.302-1.172 2.117-1.401.343-.097.638.327.92.546a32.623 32.623 0 0 1 2.101 1.796c2.382 2.194 4.76 4.394 7.075 6.658a2167.986 2167.986 0 0 1 42.125 42.302c3.602 3.719 7.023 7.612 10.652 11.306.495.503 2.128.642 2.556.66 4.098.179 5.973.067 10.087-.497.986-.135 3.433-.407 3.882-1.64.418-1.15.426-3.918.416-4.502-.053-2.903-.488-14.215-1.914-15.322-1.634-1.269-5.358-.46-6.086-2.044-1.405-3.059.428-7.054-1.178-8.421-1.667-1.419-7.049-1.7-7.975-2.95-1.262-1.7-.353-4.339-1.938-5.897-2.573-2.531-5.227-.578-8.224-2.163-1.286-.68-.601-7.414-1.977-8.364-2.573-1.778-7.23.661-9.477-1.779-1.233-1.34-.576-8.045-.937-9.433-.433-1.666-7.285-4.111-7.625-5.029-.776-2.095-.319-2.956-.83-5.087-.138-.576-.606-1.021-.965-1.492-2.153-2.825-8.532-9.859-9.385-10.805-.857-.951 6.341-4.718 2.415-8.642-3.509-3.506-7.582 2.96-8.58 1.869-2.282-2.495-4.16-4.54-4.16-4.54zm-52.077-41.351c6.882 0 12.469 5.405 12.469 12.062 0 6.657-5.587 12.062-12.469 12.062-6.883 0-12.47-5.405-12.47-12.062 0-6.657 5.587-12.062 12.47-12.062z" fill="url(#a)" stroke="#000" stroke-width="2.17"/><path d="M648.521 661.692l83.023 83.898M655.862 655.402l83.694 81.774" fill="none" stroke="#000" stroke-width="1.86"/><text x="241.595" y="464.449" font-family="'Menlo-Regular','Menlo',monospace" font-size="20.065" fill="none" transform="scale(1.86227) rotate(-43.164 154.388 279.526)">R</text><text x="241.595" y="464.449" font-family="'Menlo-Regular','Menlo',monospace" font-size="20.065" fill="#fff" transform="scale(1.86227) rotate(-43.164 154.388 279.526)">R</text><path d="M637.17 628.395l.129.001.129.005.127.005.13.008.13.01.128.011.127.014.128.016.127.018.127.019.127.021.127.024.126.025.125.028.126.03.125.03.126.033.122.036.124.037.123.038.123.041.12.042.123.044.121.047.121.047.119.05.12.051.117.053.118.055.117.057.117.059.115.06.114.062.115.063.114.066.113.066.112.068.113.07.11.072.109.073.11.075.109.077.108.077.107.079.107.08.105.083.107.084.103.085.103.086.104.09.103.09.102.09.102.091.1.096.099.093.1.098.1.098.095.099.1.1.098.105.136.148.136.153.132.155.126.15.067.083.062.08.06.078.061.08.06.08.059.08.056.082.058.081.057.082.054.082.055.084.053.083.053.084.051.084.05.083.049.085.048.087.048.086.047.086.045.086.044.088.044.087.042.088.042.089.04.09.04.087.036.089.037.09.036.091.036.092.034.09.032.09.032.093.03.092.03.092.028.093.026.093.026.093.026.093.024.096.022.094.02.093.02.096.02.094.018.095.016.096.015.095.015.095.012.097.013.095.011.097.009.096.009.097.006.096.006.096.005.098.003.096.002.098.001.096.001.096v.098l-.004.097-.004.096-.004.096-.006.098-.009.097-.007.096-.01.097-.01.096-.013.096-.014.095-.014.097-.016.095-.012.064.138.021.144.026.146.027.146.029.15.032.151.033.153.037.156.038.156.04.161.043.16.043.167.046.167.05.17.05.172.054.176.054.178.057.182.06.183.063.187.062.189.066.194.068.195.07.198.072.202.073.2.074 7.792 2.896.15.063.147.075.14.083.132.095.126.105.116.113.11.122.098.13.088.137.078.143.068.148.056.155.044.156.033.16.02.163.007.16-.004.165-.017.162-.03.161-.04.158-.052.155-.064.15-.075.145-.085.138-.097.131-.106.126-.115.115-2.888 2.708-.123.108-.13.098-.138.088-.145.077-.148.065-.156.054-.157.042-.16.03-.162.02-.163.005-.163-.006-.163-.018-.16-.032-.158-.04-.154-.055-7.066-2.792-.173-.067-.173-.065-.165-.062-.165-.06-.16-.056-.157-.055-.151-.05-.149-.05-.143-.046-.141-.044-.136-.039-.133-.038-.125-.036-.125-.031-.117-.03-.115-.028-.11-.025-.104-.023-.1-.019-.095-.017-.087-.015-.086-.012-.078-.01-.073-.01-.068-.004-.06-.005-.054-.003-.048-.001-.042.001h-.036l-.026.002-.024.002-.03.003-.036.005-.037.007-.034.007-.038.007-.037.009-.036.01-.038.011-.04.012-.039.014-.04.014-.041.018-.041.016-.043.02-.044.021-.045.02-.045.026-.046.025-.048.027-.048.03-.05.032-.05.03-.051.036-.053.037-.052.039-.054.04-.056.045-.057.045-.055.047-.057.051-.058.052-.066.059-.98.92 6.392 6.816.107.122.096.13.088.136.076.144.066.147.055.153.042.157.032.16.018.16.007.163-.005.16-.017.162-.029.16-.042.156-.052.154-.064.15-.075.143-.086.137-.096.132-.104.123-.115.115-2.701 2.534-.122.106-.131.098-.136.086-.142.077-.149.065-.153.055-.157.042-.159.032-.161.018-.162.007-.162-.004-.16-.018-.16-.029-.157-.042-.154-.052-.15-.064-.143-.075-.137-.086-.131-.096-.124-.104-.114-.115-18.635-19.868-.106-.122-.098-.131-.086-.136-.077-.142-.067-.15-.053-.152-.042-.156-.032-.16-.019-.16-.008-.162.006-.163.017-.162.03-.158.04-.158.054-.153.064-.149.075-.144.086-.137.093-.131.107-.123.113-.116 5.54-5.196.11-.101.115-.105.113-.103.113-.102.116-.1.114-.1.115-.097.113-.096.117-.094.115-.095.116-.091.115-.09.115-.09.116-.089.117-.087.118-.084.116-.084.118-.083.116-.08.117-.08.12-.079.117-.076.118-.076.12-.074.12-.07.12-.072.117-.07.121-.067.12-.068.121-.064.12-.064.123-.062.122-.06.12-.06.123-.056.122-.056.124-.055.122-.053.124-.05.124-.05.124-.047.124-.048.125-.043.126-.043.125-.041.125-.041.126-.037.127-.037.126-.034.126-.034.128-.03.127-.03.127-.028.128-.025.128-.023.127-.022.129-.021.128-.019.13-.017.128-.015.13-.012.128-.01.128-.01.13-.008.13-.007.13-.004h.258zm-.214 2.168l-.097.002-.098.005-.097.005-.098.007-.098.01-.098.01-.098.01-.098.013-.099.014-.098.015-.098.018-.098.018-.098.02-.1.023-.1.021-.097.024-.099.026-.1.027-.098.028-.098.031-.1.03-.099.034-.098.033-.1.035-.1.038-.099.039-.099.039-.101.042-.099.041-.1.046-.1.044-.1.048-.1.048-.099.05-.1.05-.1.054-.101.054-.1.054-.1.056-.101.06-.1.06-.1.06-.102.063-.101.064-.1.065-.1.067-.102.07-.1.068-.103.07-.1.074-.102.073-.1.076-.102.077-.101.077-.101.08-.103.081-.102.082-.101.085-.102.085-.101.086-.103.088-.102.09-.102.091-.101.093-.102.093-.102.095-5.537 5.193 18.635 19.868 2.701-2.533-7.875-8.398 2.568-2.409.082-.076.083-.073.082-.072.083-.07.084-.068.082-.065.084-.063.084-.063.083-.058.084-.058.084-.054.084-.053.084-.051.085-.049.084-.046.086-.044.083-.043.087-.04.086-.037.085-.037.084-.033.087-.033.085-.028.087-.028.086-.025.087-.022.086-.022.087-.019.087-.017.086-.014.087-.013.087-.01.09-.008.093-.005.094-.002.1-.001.1.002.106.006.108.006.111.01.115.013.118.017.12.017.125.021.128.023.13.026.133.028.139.031.139.034.143.036.147.039.15.04.152.046.156.046.16.048.162.053.166.054.168.057.173.06.176.062.178.065.181.067.185.07.188.071 7.075 2.796 2.887-2.708-7.793-2.896-.197-.073-.191-.07-.19-.07-.187-.065-.182-.064-.179-.063-.176-.06-.172-.057-.168-.055-.166-.054-.161-.05-.16-.05-.155-.045-.151-.045-.149-.041-.145-.04-.142-.038-.138-.035-.136-.033-.13-.03-.128-.031-.126-.025-.12-.025-.118-.022-.116-.02-.11-.017-.107-.016-.105-.014-.101-.01-.098-.008-.093-.007-.09-.004-.09-.003-.089-.002-.088.001-.088.001-.089.004-.087.005-.088.007-.087.007-.086.01-.086.011-.086.012-.086.014-.086.015-.087.017-.085.018-.083.02-.085.02-.085.024-.083.024-.085.026-.082.027-.086.029-.081.03-.083.032-.084.032-.081.036-.082.036-.083.036-.08.04-.082.04-.08.043-.08.042.103-.132.099-.131.096-.132.047-.067.046-.065.045-.066.045-.067.044-.067.043-.066.04-.066.042-.067.039-.067.04-.066.038-.066.038-.069.036-.067.035-.066.034-.068.035-.066.032-.069.033-.066.031-.067.031-.068.029-.067.03-.07.027-.066.027-.068.026-.068.026-.068.023-.068.023-.067.022-.07.023-.067.021-.068.02-.07.019-.069.018-.067.018-.068.016-.07.016-.068.014-.07.014-.068.013-.069.014-.069.01-.068.011-.07.01-.07.008-.069.009-.07.006-.069.006-.07.005-.068.005-.07.003-.07.003-.069.002-.071V637.566l-.002-.07-.003-.07-.004-.07-.004-.07-.005-.07-.005-.07-.007-.07-.007-.07-.01-.07-.008-.068-.011-.07-.011-.068-.012-.07-.013-.068-.013-.069-.015-.067-.017-.07-.015-.067-.017-.068-.018-.068-.019-.069-.02-.068-.019-.066-.023-.068-.021-.067-.024-.066-.023-.068-.024-.067-.027-.067-.027-.066-.027-.067-.028-.065-.03-.067-.03-.064-.029-.067-.033-.066-.031-.065-.034-.066-.034-.064-.036-.066-.037-.066-.034-.064-.04-.066-.038-.063-.039-.066-.04-.065-.041-.063-.043-.064-.041-.064-.044-.063-.046-.065-.044-.063-.047-.063-.046-.064-.048-.062-.05-.063-.05-.064-.05-.062-.102-.126-.109-.123-.109-.125-.113-.124-.083-.085-.083-.086-.082-.084-.081-.082-.083-.08-.085-.08-.083-.077-.083-.078-.085-.074-.084-.074-.083-.072-.087-.07-.084-.071-.086-.068-.085-.066-.086-.064-.085-.064-.087-.062-.087-.06-.087-.06-.087-.058-.087-.057-.086-.054-.09-.054-.086-.052-.088-.05-.09-.049-.087-.048-.09-.046-.09-.046-.089-.041-.09-.044-.09-.04-.09-.038-.09-.039-.092-.036-.09-.035-.091-.032-.091-.032-.093-.03-.091-.03-.093-.028-.092-.026-.092-.024-.094-.024-.092-.021-.095-.02-.092-.019-.095-.018-.095-.016-.093-.015-.096-.012-.094-.01-.095-.012-.095-.01-.096-.006-.095-.006-.097-.003-.096-.005-.097-.001h-.097l-.098.001zm-.632 3.616h.057l.058.003.057.004.057.003.058.005.056.005.058.008.056.005.057.009.057.01.057.008.056.01.056.012.058.012.056.014.056.014.055.015.055.015.056.016.056.019.055.017.056.02.055.02.055.02.055.021.055.023.055.023.054.025.053.024.055.026.054.028.055.028.053.027.054.03.053.03.055.03.053.033.054.033.052.033.053.035.054.036.053.035.053.037.051.038.054.039.052.039.104.083.104.084.103.089.102.091.102.096.102.098.102.103.101.105.103.113.1.111.095.11.092.112.089.111.085.112.08.11.078.111.076.11.071.112.068.11.031.056.033.056.03.055.03.055.028.055.029.055.027.056.026.055.026.055.024.056.023.054.022.057.024.054.02.055.02.056.02.055.017.055.018.055.016.056.016.054.015.055.014.056.013.054.011.056.013.054.009.056.01.054.009.056.007.054.008.054.006.056.005.054.003.056.004.055.002.054v.055l.003.055v.11l-.004.054-.002.055-.004.056-.005.055-.005.054-.007.055-.007.055-.009.054-.008.056-.011.054-.01.055-.012.055-.012.055-.013.054-.014.055-.015.055-.017.056-.017.055-.018.055-.019.056-.017.055-.022.056-.02.054-.023.055-.024.056-.023.054-.025.058-.026.054-.027.056-.027.056-.028.054-.03.056-.029.056-.064.11-.065.113-.07.111-.073.11-.077.113-.08.111-.084.112-.087.112-.09.113-.095.112-.099.112-.1.113-.104.113-.11.112-.111.113-.116.113-.118.114-2.94 2.758-6.616-7.054 2.834-2.659.12-.11.12-.106.119-.105.12-.1.118-.097.12-.093.119-.09.119-.087.118-.083.12-.079.117-.076.118-.073.12-.069.12-.066.057-.03.06-.032.059-.03.059-.03.057-.028.06-.027.06-.026.057-.025.06-.026.059-.022.058-.024.06-.022.058-.022.058-.02.059-.019.059-.019.06-.018.058-.016.058-.017.059-.014.057-.015.06-.013.058-.013.058-.012.059-.011.06-.01.058-.009.058-.008.057-.008.058-.006.058-.006.06-.005.058-.003.058-.003.058-.004h.058l.058-.001h.059zm-.081 2.168l-.027.001h-.025l-.026.003-.027.001-.027.004-.027.001-.025.003-.028.004-.027.003-.028.005-.03.005-.027.005-.028.006-.028.006-.03.007-.03.008-.029.007-.03.008-.031.008-.032.01-.03.01-.033.01-.032.012-.032.013-.033.01-.033.014-.034.013-.034.015-.035.015-.035.017-.036.016-.036.016-.036.018-.036.02-.038.019-.033.016-.082.046-.08.046-.079.05-.082.053-.083.056-.085.059-.087.063-.087.064-.09.071-.09.075-.092.076-.094.08-.093.085-.103.095-1.247 1.169 3.648 3.89 1.355-1.27.101-.095.093-.092.09-.09.083-.088.082-.087.076-.084.074-.085.07-.083.064-.081.064-.08.057-.077.054-.076.053-.075.047-.072.043-.071.042-.07.04-.071.016-.027.015-.033.017-.03.015-.033.016-.03.013-.03.013-.03.012-.03.014-.028.01-.028.01-.027.01-.027.01-.028.01-.026.008-.026.008-.025.007-.024.007-.025.005-.025.006-.024.005-.022.006-.023.005-.023.003-.02.003-.022.004-.023.003-.021.002-.02.002-.022.002-.02.002-.02v-.02l.001-.02v-.06l-.001-.02-.001-.02v-.02l-.003-.02v-.02l-.002-.021-.004-.023-.003-.02-.004-.02-.004-.023-.003-.023-.004-.021-.006-.023-.005-.023-.007-.024-.006-.023-.006-.025-.008-.025-.008-.026-.008-.024-.01-.028-.01-.026-.009-.026-.01-.028-.013-.03-.012-.026-.014-.03-.012-.03-.015-.03-.015-.029-.016-.03-.016-.034-.017-.03-.018-.032-.02-.035-.016-.028-.045-.073-.044-.07-.049-.072-.052-.074-.055-.076-.06-.077-.063-.078-.065-.08-.07-.081-.074-.084-.078-.083-.073-.078-.074-.073-.07-.07-.07-.064-.07-.063-.068-.059-.066-.054-.071-.054-.027-.02-.034-.025-.032-.024-.03-.022-.032-.022-.03-.02-.032-.019-.03-.02-.029-.019-.03-.018-.03-.015-.028-.017-.03-.015-.028-.017-.027-.013-.029-.014-.027-.013-.027-.012-.028-.013-.026-.012-.027-.01-.025-.01-.026-.011-.026-.009-.026-.009-.026-.008-.025-.008-.025-.007-.024-.007-.025-.008-.025-.005-.024-.006-.026-.006-.025-.004-.023-.004-.025-.005-.024-.003-.025-.005-.024-.002-.025-.002-.024-.003-.026-.001-.025-.002-.025-.002-.027-.001H636.27l-.026-.001z"/><g><path d="M936.867 907.247l-222.026.011-.261 276.83h222.287V907.247z" fill="#fff" stroke="#000" stroke-width="3.8"/><text x="781.05" y="1085.74" font-family="'Times-Roman','Times'" font-size="133.954">D</text><path d="M730.333 951.626l24.555-13.309 20.776 16.54 19.872-8.116 22.013 14.28 19.151-11.972 21.542 14.952 18.833-12.199 19.031-6.654 2.177 8.019 17.414-1.541M730.333 918.619l19.163 11.798 18.137-3.832 15.684 7.793 19.565-7.934 11.372-10.022 13.369 15.18 29.335-12.329 24.763 18.803 18.414-14.077 15.562 3.59M735.75 1161.45l22.351 11.4 17.106-23.49 24.391 11.193 18.249-12.042 15.436 25.001 7.561-8.028 30.741-12.609 14.845 12.736 15.571 3.66 13.696-12.676M735.75 1132.95l22.364-10.585 13.865 3.056 21.518 16.856 29.842-10.859 32.062 14.754 5.362-16.553 49.2 9.028 5.734-5.697M735.75 1109.34l30.076-12.242 27.221 16.731 18.831-9.944 19.536 18.768 20.055-27.933 25.464 24.421 20.789-18.832 17.975 9.031M730.341 981.073l21.947-13.226 27.249 9.925 22.576-11.375 13.796 11.639 26.057 5.072 22.947-6.381 11.215-12.632 19.153 19.092 20.416-8.406" fill="none" stroke="#000" stroke-width="2.98"/></g><defs><radialGradient id="a" cx="0" cy="0" r="1" gradientUnits="userSpaceOnUse" gradientTransform="matrix(58.4875 22.275 -22.8914 60.106 656.153 628.968)"><stop offset="0%" stop-color="#3ce61a"/><stop offset="100%" stop-color="#aef4a0"/></radialGradient></defs></svg>