<svg viewBox="0 0 956 1200" xmlns="http://www.w3.org/2000/svg" fill-rule="evenodd" clip-rule="evenodd" stroke-linecap="round" stroke-linejoin="round" stroke-miterlimit="1.414"><path d="M844.081 9.52l-833.912.039-.012 1038.55h833.924V9.519z" fill="#fff" stroke="#000" stroke-width="14.24"/><g font-size="12"><text x="174.276" y="181.661" font-family="'Tahoma',sans-serif" transform="translate(-1170.45 -1132.91) scale(7.06618)">Name:</text><text x="212.971" y="181.661" font-family="'Tahoma-Bold','Tahoma',sans-serif" font-weight="700" transform="translate(-1170.45 -1132.91) scale(7.06618)">Mallory</text></g><text x="61.017" y="690.756" font-family="'Tahoma',sans-serif" font-size="84.794">Public K<tspan x="353.863px 398.496px" y="690.756px 690.756px">ey</tspan>:</text><g font-family="'Tahoma',sans-serif" font-size="12"><text x="174.276" y="181.661" transform="translate(-1170.45 -397.301) scale(7.06618)">Expir<tspan x="200.444px 206.743px" y="181.661px 181.661px">at</tspan>ion:</text><text x="185.526" y="193.661" transform="translate(-1170.45 -397.301) scale(7.06618)">2020-07-26</text></g><g font-family="'Tahoma',sans-serif" font-size="12.089"><text x="174.276" y="181.661" transform="translate(-1170.45 -943.33) scale(7.06618)">Location:</text><text x="185.609" y="193.75" transform="translate(-1170.45 -943.33) scale(7.06618)">Langley</text><text x="185.609" y="205.84" transform="translate(-1170.45 -943.33) scale(7.06618)">Virginia</text><text x="225.176" y="205.84" transform="translate(-1170.45 -943.33) scale(7.06618)">, USA</text></g><path d="M784.405 242.85c-28.416-7.191-54.914-7.086-83.92 0 1.556 30.898 7.808 38.467 7.808 38.467 12.978 9.135 56.251 8.676 68.79 0 0 0 5.825-7.529 7.322-38.467z" fill="url(#a)" stroke="#000" stroke-width="2.98"/><path d="M790.526 171.231c-21.263-21.051-74.151-21.56-94.567 0-17.681 18.671-4.006 67.156-4.006 67.156 10.381 21.436 88.528 21.427 101.339 0 0 0 13.905-50.652-2.766-67.156z" fill="url(#b)" stroke="#000" stroke-width="2.98"/><path d="M694.125 153.551c-33.386-129.342 130.562-128.732 98.853-.923l-98.853.923z" fill="url(#c)" stroke="#000" stroke-width="2.98"/><path d="M704.577 105.104c-7.001 61.449 36.765 63.086 36.765 63.086s49.359-2.92 40.078-63.086h-76.843z" fill="url(#d)" stroke="#000" stroke-width="2.98"/><path d="M735.404 135.568c4.904-5.527 9.865-5.978 15.347 0M726.094 153.574c8.185-5.957 26.166-8.116 30.558-4.616" fill="none" stroke="#000" stroke-width="2.98"/><path d="M721.55 113.142c2.377-.611 4.956 1.416 5.756 4.524.799 3.108-.482 6.128-2.859 6.739-2.377.612-4.956-1.415-5.756-4.523-.799-3.108.481-6.128 2.859-6.74zM763.647 113.211c2.329.777 3.395 3.879 2.38 6.923-1.015 3.045-3.73 4.886-6.059 4.11-2.328-.777-3.395-3.879-2.379-6.924 1.015-3.044 3.73-4.885 6.058-4.109zM718.453 100.418l4.205-2.226 12.746 14.841-16.951-12.615zM750.751 113.033l13.937-14.841 3.42 2.695-17.357 12.146z" stroke="#000" stroke-width="2.98"/><ellipse cx="716.399" cy="133.967" rx="1.278" ry="1.4"/><ellipse cx="722.378" cy="135.507" rx="1.278" ry="1.4"/><ellipse cx="717.718" cy="143.121" rx="1.278" ry="1.4"/><ellipse cx="762.355" cy="139.853" rx="1.278" ry="1.4"/><ellipse cx="766.657" cy="130.822" rx="1.278" ry="1.4"/><ellipse cx="770.279" cy="138.268" rx="1.278" ry="1.4"/><g><path d="M671.292 649.576c-.256-.383.125-.914.242-1.36.274-1.048.653-2.068.929-3.117 1.203-4.567 1.846-9.203 2.026-13.94 1.576-41.586-59.099-57.68-80.243-20.117-5.298 9.414-7.551 20.49-5.808 31.111.931 5.669 2.918 11.217 6.049 16.051 7.682 11.862 22.714 19.769 36.915 18.254 5.773-.616 6.174-.887 11.555-2.133 1.422-.329 5.045-1.634 6.943-.998 1.329.446 1.616 1.834 1.56 3.068-.069 1.531-.429 2.16-1.022 3.626-.589 1.455-1.576 3.035-.387 4.493.265.326.582.613.927.852.46.319.95.608 1.472.813 2.277.893 3.952-.53 5.747-1.732.703-.471 1.302-1.172 2.117-1.401.343-.097.638.327.92.546a32.623 32.623 0 0 1 2.101 1.796c2.382 2.194 4.76 4.394 7.075 6.658a2167.986 2167.986 0 0 1 42.125 42.302c3.602 3.719 7.023 7.612 10.652 11.306.495.503 2.128.642 2.556.66 4.098.179 5.973.067 10.087-.497.986-.135 3.433-.407 3.882-1.64.418-1.15.426-3.918.416-4.502-.053-2.903-.488-14.215-1.914-15.322-1.634-1.269-5.358-.46-6.086-2.044-1.405-3.059.428-7.054-1.178-8.421-1.667-1.419-7.049-1.7-7.975-2.95-1.262-1.7-.353-4.339-1.938-5.897-2.573-2.531-5.227-.578-8.224-2.163-1.286-.68-.601-7.414-1.977-8.364-2.573-1.778-7.23.661-9.477-1.779-1.233-1.34-.576-8.045-.937-9.433-.433-1.666-7.285-4.111-7.625-5.029-.776-2.095-.319-2.956-.83-5.087-.138-.576-.606-1.021-.965-1.492-2.153-2.825-8.532-9.859-9.385-10.805-.857-.951 6.341-4.718 2.415-8.642-3.509-3.506-7.582 2.96-8.58 1.869-2.282-2.495-4.16-4.54-4.16-4.54zm-52.077-41.351c6.882 0 12.469 5.405 12.469 12.062 0 6.657-5.587 12.062-12.469 12.062-6.883 0-12.47-5.405-12.47-12.062 0-6.657 5.587-12.062 12.47-12.062z" fill="url(#e)" stroke="#000" stroke-width="2.17"/><path d="M648.521 661.692l83.023 83.898M655.862 655.402l83.694 81.774" fill="none" stroke="#000" stroke-width="1.86"/><text x="241.595" y="464.449" font-family="Helvetica" font-size="20.065" fill="none" transform="scale(1.86227) rotate(-43.164 154.107 282.69)">M</text><text x="241.595" y="464.449" font-family="Helvetica" font-size="20.065" fill="#fff" transform="scale(1.86227) rotate(-43.164 154.107 282.69)">M</text><path d="M639.952 620.71l.18.02.175.035.172.05.167.064.162.078.154.09.147.102.138.115.128.126 18.335 19.549.117.135.106.146.092.153.081.16.067.166.053.17.039.176.023.177.009.181-.006.179-.02.177-.035.176-.05.172-.063.167-.078.162-.09.155-.104.147-.114.137-.125.128-2.516 2.36-.135.116-.146.106-.152.094-.16.08-.167.066-.17.053-.176.04-.177.022-.178.01-.18-.007-.18-.02-.175-.034-.172-.05-.167-.064-.162-.078-.155-.089-.146-.103-.138-.116-.128-.125-6.3-6.718 4.332 9.517.064.156.05.16.04.164.026.167.012.168v.168l-.013.169-.025.166-.04.165-.051.16-.064.155-.076.15-.087.145-.099.137-.108.13-.12.12-2.621 2.458-.127.11-.136.1-.142.09-.15.079-.154.066-.16.053-.163.04-.165.03-.169.015-.168.003-.167-.01-.167-.025-.163-.035-.164-.049-.154-.061-.154-.074-9.273-4.936 6.325 6.744.117.136.106.145.092.153.08.16.068.167.053.17.037.176.025.176.009.181-.006.18-.02.176-.035.176-.05.172-.065.168-.076.161-.09.155-.104.147-.114.137-.125.128-2.53 2.372-.135.117-.144.105-.154.095-.16.08-.166.065-.171.054-.174.038-.179.024-.178.01-.179-.007-.178-.021-.176-.035-.174-.049-.166-.063-.162-.078-.154-.09-.147-.103-.139-.115-.128-.125-18.334-19.55-.117-.135-.106-.145-.093-.154-.08-.159-.067-.167-.053-.17-.038-.177-.023-.177-.01-.18.006-.178.02-.178.034-.175.05-.172.065-.168.077-.161.089-.155.104-.149.115-.136.125-.127 3.792-3.557.128-.112.136-.1.141-.089.15-.08.155-.065.16-.053.163-.041.166-.03.168-.015.169-.002.168.01.167.023.164.037.16.048.158.062.15.073 15.467 8.248-7.266-15.93-.065-.157-.052-.16-.039-.166-.025-.165-.014-.168v-.168l.013-.169.026-.167.039-.164.052-.162.065-.154.075-.15.088-.147.098-.135.108-.13.12-.12 3.753-3.52.136-.116.143-.106.154-.094.16-.08.166-.065.172-.054.175-.04.177-.023.179-.008.179.005zm-3.911 5.683l9.926 21.757-21.117-11.261-3.794 3.558 18.335 19.55 2.529-2.373-10.821-11.538-.176-.185-.198-.207-.221-.232-.245-.255-.27-.278-.294-.301-.658-.672-.66-.676-.296-.302-.271-.282-.25-.258-.227-.237-.203-.213-.18-.191-.561-.6 21.08 11.223 2.621-2.459-9.888-21.718.368.392.362.389.355.381.346.378.343.37.333.367.328.36.322.355.59.654.503.552.22.239.194.213.175.189.151.161 10.821 11.538 2.516-2.36-18.335-19.548-3.753 3.52z"/></g><g><path d="M936.867 907.247l-222.026.011-.261 276.83h222.287V907.247z" fill="#fff" stroke="#000" stroke-width="3.8"/><text x="781.05" y="1085.74" font-family="'Times-Roman','Times'" font-size="133.954">D</text><path d="M730.333 951.626l24.555-13.309 20.776 16.54 19.872-8.116 22.013 14.28 19.151-11.972 21.542 14.952 18.833-12.199 19.031-6.654 2.177 8.019 17.414-1.541M730.333 918.619l19.163 11.798 18.137-3.832 15.684 7.793 19.565-7.934 11.372-10.022 13.369 15.18 29.335-12.329 24.763 18.803 18.414-14.077 15.562 3.59M735.75 1161.45l22.351 11.4 17.106-23.49 24.391 11.193 18.249-12.042 15.436 25.001 7.561-8.028 30.741-12.609 14.845 12.736 15.571 3.66 13.696-12.676M735.75 1132.95l22.364-10.585 13.865 3.056 21.518 16.856 29.842-10.859 32.062 14.754 5.362-16.553 49.2 9.028 5.734-5.697M735.75 1109.34l30.076-12.242 27.221 16.731 18.831-9.944 19.536 18.768 20.055-27.933 25.464 24.421 20.789-18.832 17.975 9.031M730.341 981.073l21.947-13.226 27.249 9.925 22.576-11.375 13.796 11.639 26.057 5.072 22.947-6.381 11.215-12.632 19.153 19.092 20.416-8.406" fill="none" stroke="#000" stroke-width="2.98"/></g><defs><radialGradient id="a" cx="0" cy="0" r="1" gradientUnits="userSpaceOnUse" gradientTransform="matrix(82.5099 -32.7704 20.8412 45.2896 703.513 274.668)"><stop offset="0%" stop-color="#e5dd00"/><stop offset="100%" stop-color="#625d00"/></radialGradient><radialGradient id="b" cx="0" cy="0" r="1" gradientUnits="userSpaceOnUse" gradientTransform="matrix(108.908 -63.7564 27.509 88.1131 691.227 229.038)"><stop offset="0%" stop-color="#e5dd00"/><stop offset="100%" stop-color="#625d00"/></radialGradient><radialGradient id="c" cx="0" cy="0" r="1" gradientUnits="userSpaceOnUse" gradientTransform="matrix(110.015 -50.0186 27.7887 69.1271 687.044 109.974)"><stop offset="0%" stop-color="#888"/><stop offset="100%"/></radialGradient><radialGradient id="d" cx="0" cy="0" r="1" gradientUnits="userSpaceOnUse" gradientTransform="matrix(99.0673 -50.196 25.0234 69.3723 694.769 152.667)"><stop offset="0%" stop-color="#ffd9b8"/><stop offset="100%" stop-color="#ffcd9e"/></radialGradient><radialGradient id="e" cx="0" cy="0" r="1" gradientUnits="userSpaceOnUse" gradientTransform="matrix(58.4875 22.275 -22.8914 60.106 656.153 628.968)"><stop offset="0%" stop-color="#3ce61a"/><stop offset="100%" stop-color="#aef4a0"/></radialGradient></defs></svg>