<svg viewBox="0 0 1000 1200" xmlns="http://www.w3.org/2000/svg" fill-rule="evenodd" clip-rule="evenodd" stroke-linecap="round" stroke-linejoin="round" stroke-miterlimit="1.414"><path d="M910.013 89.362L90 89.4l-.013 1021.24h820.026V89.36z" fill="#fff" stroke="#000" stroke-width="14"/><path d="M163.134 254.571c3.911 10.38 8.5 18.655 13.765 24.823 9.177 10.756 20.573 16.135 34.188 16.135 7.372 0 13.747-2.332 19.125-6.996 5.379-4.664 8.068-11.17 8.068-19.52 0-7.522-2.708-14.066-8.124-19.633-3.536-3.535-10.982-8.838-22.341-15.909l-19.745-12.299c-5.943-3.761-10.682-7.559-14.217-11.396-6.545-7.296-9.817-15.345-9.817-24.146 0-11.659 3.874-21.362 11.622-29.11 7.748-7.748 18.016-11.622 30.803-11.622 5.266 0 11.603 1.298 19.012 3.893 7.41 2.595 11.641 3.892 12.694 3.892 2.858 0 4.833-.677 5.924-2.03 1.09-1.354 1.937-3.273 2.538-5.755h4.739l5.078 49.195h-5.529c-3.761-14.819-9.798-25.162-18.11-31.029-8.312-5.867-16.529-8.801-24.653-8.801-6.319 0-11.829 1.862-16.53 5.585-4.702 3.724-7.052 8.895-7.052 15.515 0 5.942 1.805 11.02 5.416 15.232 3.61 4.288 9.214 8.763 16.812 13.427l20.309 12.524c12.713 7.823 21.664 15.007 26.854 21.551 5.115 6.62 7.673 14.443 7.673 23.469 0 12.111-4.57 22.228-13.709 30.352-9.139 8.124-20.818 12.186-35.034 12.186-7.146 0-14.612-1.354-22.398-4.062-7.785-2.708-12.242-4.062-13.37-4.062-2.708 0-4.532.827-5.472 2.482a15.648 15.648 0 0 0-1.862 5.303h-5.078l-6.882-49.194h5.303zM312.523 196.575v72.213c0 5.115.715 9.214 2.144 12.298 2.783 5.717 7.898 8.575 15.345 8.575 5.115 0 10.117-1.692 15.007-5.077 2.783-1.881 5.604-4.476 8.462-7.785v-61.832c0-5.792-1.128-9.591-3.385-11.396-2.256-1.806-6.77-2.896-13.54-3.272v-3.724h36.445v79.434c0 5.115.922 8.631 2.764 10.55 1.843 1.918 5.736 2.764 11.679 2.538v3.16a719.37 719.37 0 0 0-9.14 2.538c-1.956.564-5.228 1.599-9.816 3.103-1.956.677-6.244 2.294-12.863 4.852-.376 0-.602-.169-.677-.508a5.517 5.517 0 0 1-.113-1.185v-18.165c-5.115 6.092-9.779 10.606-13.991 13.539-6.394 4.514-13.164 6.77-20.31 6.77-6.544 0-12.712-2.332-18.504-6.995-5.867-4.589-8.801-12.299-8.801-23.131v-58.56c0-6.017-1.279-10.042-3.836-12.073-1.655-1.278-5.191-2.181-10.607-2.708v-3.159h33.737zM414.636 147.042c2.257-2.332 5.04-3.498 8.35-3.498 3.234 0 5.999 1.147 8.293 3.441 2.294 2.295 3.441 5.097 3.441 8.406 0 3.235-1.147 5.999-3.441 8.294-2.294 2.294-5.059 3.441-8.293 3.441-3.31 0-6.093-1.147-8.35-3.441-2.257-2.295-3.385-5.059-3.385-8.294 0-3.234 1.128-6.017 3.385-8.349zm-17.827 150.856c8.048-.752 13.126-2.125 15.232-4.118 2.106-1.994 3.159-7.391 3.159-16.192v-53.82c0-4.89-.338-8.275-1.015-10.155-1.129-3.084-3.498-4.626-7.109-4.626-.827 0-1.636.075-2.426.225-.789.151-3.065.752-6.826 1.806v-3.498l4.852-1.58c13.164-4.287 22.341-7.522 27.531-9.703 2.106-.903 3.46-1.354 4.062-1.354.15.526.225 1.09.225 1.692v81.013c0 8.576 1.035 13.954 3.103 16.135 2.069 2.182 6.751 3.573 14.048 4.175v3.159h-54.836v-3.159zM515.282 197.026v8.124h-23.018l-.225 64.992c0 5.716.489 10.042 1.467 12.975 1.805 5.19 5.34 7.786 10.606 7.786 2.708 0 5.058-.64 7.052-1.919 1.993-1.278 4.269-3.309 6.826-6.092l2.934 2.482-2.483 3.385c-3.911 5.265-8.048 8.989-12.411 11.17-4.363 2.182-8.575 3.272-12.637 3.272-8.876 0-14.894-3.949-18.053-11.847-1.73-4.288-2.596-10.23-2.596-17.828V205.15h-12.298c-.376-.225-.658-.451-.846-.677-.188-.225-.283-.526-.283-.902 0-.753.17-1.335.508-1.749.339-.414 1.411-1.373 3.216-2.877 5.19-4.288 8.932-7.767 11.227-10.437 2.294-2.671 7.691-9.723 16.191-21.156.978 0 1.561.075 1.749.225.188.151.282.715.282 1.693v27.756h22.792zM601.486 206.222c7.973 7.334 11.96 17.734 11.96 31.198h-71.648c.752 17.452 4.701 30.164 11.847 38.137 7.146 7.974 15.608 11.961 25.387 11.961 7.898 0 14.555-2.069 19.971-6.206 5.416-4.137 10.419-10.005 15.007-17.602l3.949 1.354c-3.084 9.553-8.857 18.392-17.32 26.516-8.462 8.123-18.824 12.185-31.085 12.185-14.141 0-25.067-5.34-32.777-16.022-7.711-10.681-11.566-22.98-11.566-36.896 0-15.119 4.476-28.17 13.427-39.152 8.952-10.983 20.611-16.474 34.978-16.474 10.606 0 19.896 3.667 27.87 11.001zm-54.047 8.632c-2.407 4.062-4.137 9.177-5.19 15.345h47.615c-.827-7.522-2.257-13.126-4.288-16.812-3.685-6.619-9.854-9.929-18.504-9.929-8.575 0-15.119 3.799-19.633 11.396zM784.161 241.708l-26.742-63.637-26.402 63.637h53.144zm-99.744 59.349v-4.174c5.943-.677 10.4-2.934 13.371-6.77 2.971-3.837 8.067-14.255 15.288-31.255l48.18-113.396h4.513l57.544 130.998c3.837 8.726 6.902 14.123 9.196 16.191 2.294 2.069 6.149 3.479 11.565 4.232v4.174h-58.785v-4.174c6.77-.602 11.133-1.336 13.088-2.201 1.956-.865 2.934-2.99 2.934-6.375 0-1.128-.376-3.121-1.128-5.98-.752-2.858-1.806-5.867-3.16-9.026l-9.59-22.228h-60.478c-6.018 15.119-9.61 24.353-10.776 27.7-1.166 3.347-1.749 5.999-1.749 7.955 0 3.911 1.58 6.619 4.739 8.124 1.956.902 5.642 1.579 11.058 2.031v4.174h-45.81zM163.134 483.472c3.911 10.381 8.5 18.655 13.765 24.823 9.177 10.757 20.573 16.135 34.188 16.135 7.372 0 13.747-2.331 19.125-6.995 5.379-4.664 8.068-11.171 8.068-19.52 0-7.522-2.708-14.066-8.124-19.633-3.536-3.535-10.982-8.838-22.341-15.909l-19.745-12.299c-5.943-3.761-10.682-7.56-14.217-11.396-6.545-7.296-9.817-15.345-9.817-24.146 0-11.659 3.874-21.363 11.622-29.11 7.748-7.748 18.016-11.622 30.803-11.622 5.266 0 11.603 1.297 19.012 3.893 7.41 2.595 11.641 3.892 12.694 3.892 2.858 0 4.833-.677 5.924-2.031 1.09-1.354 1.937-3.272 2.538-5.754h4.739l5.078 49.195h-5.529c-3.761-14.819-9.798-25.162-18.11-31.029-8.312-5.868-16.529-8.801-24.653-8.801-6.319 0-11.829 1.862-16.53 5.585-4.702 3.723-7.052 8.895-7.052 15.514 0 5.943 1.805 11.02 5.416 15.233 3.61 4.287 9.214 8.763 16.812 13.427l20.309 12.524c12.713 7.823 21.664 15.007 26.854 21.551 5.115 6.619 7.673 14.442 7.673 23.469 0 12.111-4.57 22.228-13.709 30.352-9.139 8.124-20.818 12.186-35.034 12.186-7.146 0-14.612-1.354-22.398-4.062-7.785-2.708-12.242-4.062-13.37-4.062-2.708 0-4.532.827-5.472 2.482a15.648 15.648 0 0 0-1.862 5.303h-5.078l-6.882-49.195h5.303zM312.523 425.477v72.212c0 5.115.715 9.215 2.144 12.299 2.783 5.717 7.898 8.575 15.345 8.575 5.115 0 10.117-1.692 15.007-5.077 2.783-1.881 5.604-4.476 8.462-7.786v-61.832c0-5.792-1.128-9.59-3.385-11.396-2.256-1.805-6.77-2.896-13.54-3.272v-3.723h36.445v79.434c0 5.115.922 8.631 2.764 10.549 1.843 1.918 5.736 2.765 11.679 2.539v3.159a732.74 732.74 0 0 0-9.14 2.539c-1.956.564-5.228 1.598-9.816 3.103-1.956.677-6.244 2.294-12.863 4.852-.376 0-.602-.17-.677-.508a5.523 5.523 0 0 1-.113-1.185v-18.166c-5.115 6.093-9.779 10.606-13.991 13.54-6.394 4.513-13.164 6.77-20.31 6.77-6.544 0-12.712-2.332-18.504-6.996-5.867-4.588-8.801-12.298-8.801-23.13v-58.56c0-6.018-1.279-10.042-3.836-12.073-1.655-1.279-5.191-2.181-10.607-2.708v-3.159h33.737zM414.636 375.944c2.257-2.332 5.04-3.498 8.35-3.498 3.234 0 5.999 1.147 8.293 3.441 2.294 2.294 3.441 5.096 3.441 8.406 0 3.235-1.147 5.999-3.441 8.293-2.294 2.295-5.059 3.442-8.293 3.442-3.31 0-6.093-1.147-8.35-3.442-2.257-2.294-3.385-5.058-3.385-8.293 0-3.234 1.128-6.018 3.385-8.349zM396.809 526.8c8.048-.752 13.126-2.125 15.232-4.118 2.106-1.994 3.159-7.391 3.159-16.192v-53.821c0-4.889-.338-8.274-1.015-10.155-1.129-3.084-3.498-4.626-7.109-4.626-.827 0-1.636.076-2.426.226-.789.15-3.065.752-6.826 1.805v-3.497l4.852-1.58c13.164-4.288 22.341-7.522 27.531-9.704 2.106-.902 3.46-1.354 4.062-1.354.15.527.225 1.091.225 1.693v81.013c0 8.575 1.035 13.954 3.103 16.135 2.069 2.182 6.751 3.573 14.048 4.175v3.159h-54.836V526.8zM515.282 425.928v8.124h-23.018l-.225 64.991c0 5.717.489 10.042 1.467 12.976 1.805 5.19 5.34 7.785 10.606 7.785 2.708 0 5.058-.639 7.052-1.918 1.993-1.279 4.269-3.31 6.826-6.093l2.934 2.483-2.483 3.385c-3.911 5.265-8.048 8.988-12.411 11.17-4.363 2.181-8.575 3.272-12.637 3.272-8.876 0-14.894-3.949-18.053-11.847-1.73-4.288-2.596-10.23-2.596-17.828v-68.376h-12.298c-.376-.226-.658-.451-.846-.677-.188-.226-.283-.526-.283-.903 0-.752.17-1.335.508-1.748.339-.414 1.411-1.373 3.216-2.878 5.19-4.287 8.932-7.766 11.227-10.437 2.294-2.67 7.691-9.722 16.191-21.156.978 0 1.561.076 1.749.226.188.15.282.715.282 1.693v27.756h22.792zM601.486 435.124c7.973 7.334 11.96 17.733 11.96 31.198h-71.648c.752 17.451 4.701 30.164 11.847 38.137 7.146 7.974 15.608 11.96 25.387 11.96 7.898 0 14.555-2.068 19.971-6.205 5.416-4.138 10.419-10.005 15.007-17.602l3.949 1.354c-3.084 9.553-8.857 18.391-17.32 26.515-8.462 8.124-18.824 12.186-31.085 12.186-14.141 0-25.067-5.341-32.777-16.022-7.711-10.681-11.566-22.98-11.566-36.896 0-15.119 4.476-28.17 13.427-39.153 8.952-10.982 20.611-16.473 34.978-16.473 10.606 0 19.896 3.667 27.87 11.001zm-54.047 8.632c-2.407 4.062-4.137 9.177-5.19 15.345h47.615c-.827-7.522-2.257-13.126-4.288-16.812-3.685-6.62-9.854-9.929-18.504-9.929-8.575 0-15.119 3.798-19.633 11.396zM779.422 514.727c7.973-4.589 11.96-13.39 11.96-26.403 0-12.938-4.664-21.776-13.991-26.515-9.328-4.739-21.213-7.109-35.655-7.109h-6.714c-.94 0-2.388-.037-4.344-.113v57.545c0 3.986 1.129 6.563 3.385 7.729 2.257 1.166 7.485 1.749 15.684 1.749 11.81 0 21.701-2.295 29.675-6.883zm-94.441 11.057c9.328-.526 15.364-1.974 18.11-4.344 2.745-2.369 4.118-7.879 4.118-16.529v-102.79c0-8.5-1.373-13.973-4.118-16.417-2.746-2.445-8.782-3.893-18.11-4.344v-4.288h64.766c18.504 0 33.191 2.971 44.061 8.914 10.869 5.942 16.304 16.172 16.304 30.69 0 10.907-3.799 19.181-11.396 24.823-4.288 3.234-10.719 5.905-19.294 8.011 10.606 2.558 19.67 6.826 27.192 12.806 7.522 5.981 11.283 14.349 11.283 25.106 0 18.053-8.349 30.464-25.048 37.234-8.801 3.535-19.633 5.303-32.496 5.303h-75.372v-4.175zm86.994-84.059c9.779-4.514 14.668-12.6 14.668-24.259 0-13.766-5.642-23.056-16.925-27.87-6.243-2.632-15.721-3.949-28.434-3.949-4.814 0-7.785.414-8.913 1.241-1.129.828-1.693 3.084-1.693 6.77v52.129l22.002-.339c7.748-.15 14.18-1.392 19.295-3.723zM163.134 727.238c3.911 10.38 8.5 18.655 13.765 24.823 9.177 10.757 20.573 16.135 34.188 16.135 7.372 0 13.747-2.332 19.125-6.996 5.379-4.663 8.068-11.17 8.068-19.52 0-7.522-2.708-14.066-8.124-19.632-3.536-3.536-10.982-8.839-22.341-15.91L188.07 693.84c-5.943-3.761-10.682-7.56-14.217-11.396-6.545-7.297-9.817-15.345-9.817-24.146 0-11.66 3.874-21.363 11.622-29.111 7.748-7.748 18.016-11.622 30.803-11.622 5.266 0 11.603 1.298 19.012 3.893 7.41 2.595 11.641 3.893 12.694 3.893 2.858 0 4.833-.677 5.924-2.031 1.09-1.354 1.937-3.272 2.538-5.755h4.739l5.078 49.195h-5.529c-3.761-14.819-9.798-25.162-18.11-31.029-8.312-5.867-16.529-8.801-24.653-8.801-6.319 0-11.829 1.862-16.53 5.586-4.702 3.723-7.052 8.894-7.052 15.514 0 5.942 1.805 11.02 5.416 15.232 3.61 4.288 9.214 8.764 16.812 13.427l20.309 12.525c12.713 7.823 21.664 15.006 26.854 21.55 5.115 6.62 7.673 14.443 7.673 23.47 0 12.11-4.57 22.227-13.709 30.351-9.139 8.124-20.818 12.186-35.034 12.186-7.146 0-14.612-1.354-22.398-4.062-7.785-2.708-12.242-4.062-13.37-4.062-2.708 0-4.532.828-5.472 2.483a15.633 15.633 0 0 0-1.862 5.303h-5.078l-6.882-49.195h5.303zM312.523 669.242v72.213c0 5.115.715 9.214 2.144 12.298 2.783 5.717 7.898 8.576 15.345 8.576 5.115 0 10.117-1.693 15.007-5.078 2.783-1.88 5.604-4.475 8.462-7.785v-61.832c0-5.792-1.128-9.591-3.385-11.396-2.256-1.805-6.77-2.896-13.54-3.272v-3.724h36.445v79.434c0 5.115.922 8.632 2.764 10.55 1.843 1.918 5.736 2.764 11.679 2.538v3.16a698.78 698.78 0 0 0-9.14 2.539c-1.956.564-5.228 1.598-9.816 3.102-1.956.677-6.244 2.295-12.863 4.852-.376 0-.602-.169-.677-.508a5.514 5.514 0 0 1-.113-1.184v-18.166c-5.115 6.093-9.779 10.606-13.991 13.54-6.394 4.513-13.164 6.769-20.31 6.769-6.544 0-12.712-2.331-18.504-6.995-5.867-4.589-8.801-12.299-8.801-23.131v-58.559c0-6.018-1.279-10.042-3.836-12.073-1.655-1.279-5.191-2.182-10.607-2.708v-3.16h33.737zM414.636 619.709c2.257-2.332 5.04-3.498 8.35-3.498 3.234 0 5.999 1.147 8.293 3.442 2.294 2.294 3.441 5.096 3.441 8.406 0 3.234-1.147 5.999-3.441 8.293-2.294 2.294-5.059 3.441-8.293 3.441-3.31 0-6.093-1.147-8.35-3.441-2.257-2.294-3.385-5.059-3.385-8.293 0-3.235 1.128-6.018 3.385-8.35zm-17.827 150.856c8.048-.752 13.126-2.125 15.232-4.118 2.106-1.993 3.159-7.39 3.159-16.191v-53.821c0-4.89-.338-8.275-1.015-10.155-1.129-3.084-3.498-4.626-7.109-4.626-.827 0-1.636.075-2.426.225-.789.151-3.065.753-6.826 1.806v-3.498l4.852-1.58c13.164-4.287 22.341-7.522 27.531-9.703 2.106-.903 3.46-1.354 4.062-1.354a6.15 6.15 0 0 1 .225 1.692v81.014c0 8.575 1.035 13.953 3.103 16.135 2.069 2.181 6.751 3.573 14.048 4.174v3.16h-54.836v-3.16zM515.282 669.694v8.124h-23.018l-.225 64.991c0 5.717.489 10.042 1.467 12.975 1.805 5.191 5.34 7.786 10.606 7.786 2.708 0 5.058-.64 7.052-1.918 1.993-1.279 4.269-3.31 6.826-6.093l2.934 2.482-2.483 3.385c-3.911 5.265-8.048 8.989-12.411 11.17-4.363 2.182-8.575 3.272-12.637 3.272-8.876 0-14.894-3.949-18.053-11.847-1.73-4.287-2.596-10.23-2.596-17.827v-68.376h-12.298c-.376-.226-.658-.452-.846-.677-.188-.226-.283-.527-.283-.903 0-.752.17-1.335.508-1.749.339-.414 1.411-1.373 3.216-2.877 5.19-4.288 8.932-7.767 11.227-10.437 2.294-2.671 7.691-9.723 16.191-21.156.978 0 1.561.075 1.749.226.188.15.282.714.282 1.692v27.757h22.792zM601.486 678.889c7.973 7.335 11.96 17.734 11.96 31.198h-71.648c.752 17.452 4.701 30.164 11.847 38.138 7.146 7.973 15.608 11.96 25.387 11.96 7.898 0 14.555-2.069 19.971-6.206 5.416-4.137 10.419-10.004 15.007-17.602l3.949 1.354c-3.084 9.553-8.857 18.392-17.32 26.516-8.462 8.124-18.824 12.186-31.085 12.186-14.141 0-25.067-5.341-32.777-16.022-7.711-10.682-11.566-22.981-11.566-36.897 0-15.119 4.476-28.17 13.427-39.152 8.952-10.983 20.611-16.474 34.978-16.474 10.606 0 19.896 3.667 27.87 11.001zm-54.047 8.632c-2.407 4.062-4.137 9.177-5.19 15.345h47.615c-.827-7.522-2.257-13.126-4.288-16.812-3.685-6.619-9.854-9.929-18.504-9.929-8.575 0-15.119 3.799-19.633 11.396zM792.284 621.853c8.801 2.482 13.728 3.723 14.781 3.723 2.182 0 4.25-.601 6.206-1.805 1.956-1.203 3.31-3.084 4.062-5.642h4.852l2.144 51.903h-5.303c-3.084-10.305-7.109-18.617-12.073-24.936-9.478-11.885-22.228-17.827-38.25-17.827-16.173 0-29.393 6.394-39.661 19.181-10.268 12.788-15.401 30.39-15.401 52.806 0 20.61 5.397 37.065 16.191 49.364 10.794 12.298 24.466 18.448 41.014 18.448 11.961 0 22.981-2.859 33.06-8.576 5.792-3.234 12.148-8.124 19.069-14.668l4.287 4.288c-5.115 6.469-11.471 12.148-19.068 17.037-12.938 8.275-26.967 12.412-42.087 12.412-24.823 0-44.531-7.936-59.123-23.808-13.465-14.668-20.197-32.984-20.197-54.949 0-22.491 7.108-41.371 21.325-56.641 14.969-16.022 34.451-24.034 58.447-24.034 8.349 0 16.925 1.242 25.725 3.724zM163.134 978.931c3.911 10.38 8.5 18.655 13.765 24.823 9.177 10.756 20.573 16.135 34.188 16.135 7.372 0 13.747-2.332 19.125-6.996 5.379-4.664 8.068-11.17 8.068-19.52 0-7.522-2.708-14.066-8.124-19.633-3.536-3.535-10.982-8.838-22.341-15.909l-19.745-12.299c-5.943-3.761-10.682-7.559-14.217-11.396-6.545-7.296-9.817-15.345-9.817-24.146 0-11.659 3.874-21.362 11.622-29.11 7.748-7.748 18.016-11.622 30.803-11.622 5.266 0 11.603 1.298 19.012 3.893 7.41 2.595 11.641 3.893 12.694 3.893 2.858 0 4.833-.677 5.924-2.031 1.09-1.354 1.937-3.273 2.538-5.755h4.739l5.078 49.195h-5.529c-3.761-14.819-9.798-25.162-18.11-31.029-8.312-5.867-16.529-8.801-24.653-8.801-6.319 0-11.829 1.862-16.53 5.585-4.702 3.724-7.052 8.895-7.052 15.515 0 5.942 1.805 11.02 5.416 15.232 3.61 4.288 9.214 8.763 16.812 13.427l20.309 12.524c12.713 7.823 21.664 15.007 26.854 21.551 5.115 6.62 7.673 14.443 7.673 23.469 0 12.111-4.57 22.228-13.709 30.352-9.139 8.124-20.818 12.186-35.034 12.186-7.146 0-14.612-1.354-22.398-4.062-7.785-2.708-12.242-4.062-13.37-4.062-2.708 0-4.532.827-5.472 2.482a15.648 15.648 0 0 0-1.862 5.303h-5.078l-6.882-49.194h5.303zM312.523 920.935v72.213c0 5.115.715 9.214 2.144 12.298 2.783 5.717 7.898 8.575 15.345 8.575 5.115 0 10.117-1.692 15.007-5.077 2.783-1.881 5.604-4.476 8.462-7.785v-61.832c0-5.792-1.128-9.591-3.385-11.396-2.256-1.806-6.77-2.896-13.54-3.272v-3.724h36.445v79.434c0 5.115.922 8.631 2.764 10.55 1.843 1.918 5.736 2.764 11.679 2.538v3.16a719.37 719.37 0 0 0-9.14 2.538c-1.956.564-5.228 1.599-9.816 3.103-1.956.677-6.244 2.294-12.863 4.852-.376 0-.602-.169-.677-.508a5.517 5.517 0 0 1-.113-1.185v-18.165c-5.115 6.092-9.779 10.606-13.991 13.539-6.394 4.514-13.164 6.77-20.31 6.77-6.544 0-12.712-2.332-18.504-6.995-5.867-4.589-8.801-12.299-8.801-23.131v-58.56c0-6.017-1.279-10.042-3.836-12.073-1.655-1.278-5.191-2.181-10.607-2.708v-3.159h33.737zM414.636 871.402c2.257-2.332 5.04-3.498 8.35-3.498 3.234 0 5.999 1.147 8.293 3.442 2.294 2.294 3.441 5.096 3.441 8.405 0 3.235-1.147 5.999-3.441 8.294-2.294 2.294-5.059 3.441-8.293 3.441-3.31 0-6.093-1.147-8.35-3.441-2.257-2.295-3.385-5.059-3.385-8.294 0-3.234 1.128-6.017 3.385-8.349zm-17.827 150.856c8.048-.752 13.126-2.125 15.232-4.118 2.106-1.994 3.159-7.391 3.159-16.192v-53.82c0-4.89-.338-8.275-1.015-10.155-1.129-3.084-3.498-4.626-7.109-4.626-.827 0-1.636.075-2.426.225-.789.151-3.065.753-6.826 1.806v-3.498l4.852-1.58c13.164-4.287 22.341-7.522 27.531-9.703 2.106-.903 3.46-1.354 4.062-1.354.15.526.225 1.09.225 1.692v81.013c0 8.576 1.035 13.954 3.103 16.135 2.069 2.182 6.751 3.573 14.048 4.175v3.159h-54.836v-3.159zM515.282 921.386v8.124h-23.018l-.225 64.992c0 5.716.489 10.042 1.467 12.975 1.805 5.19 5.34 7.786 10.606 7.786 2.708 0 5.058-.64 7.052-1.919 1.993-1.278 4.269-3.309 6.826-6.092l2.934 2.482-2.483 3.385c-3.911 5.265-8.048 8.989-12.411 11.17-4.363 2.182-8.575 3.272-12.637 3.272-8.876 0-14.894-3.949-18.053-11.847-1.73-4.288-2.596-10.23-2.596-17.827V929.51h-12.298c-.376-.225-.658-.451-.846-.677-.188-.225-.283-.526-.283-.902 0-.752.17-1.335.508-1.749.339-.414 1.411-1.373 3.216-2.877 5.19-4.288 8.932-7.767 11.227-10.437 2.294-2.671 7.691-9.723 16.191-21.156.978 0 1.561.075 1.749.225.188.151.282.715.282 1.693v27.756h22.792zM601.486 930.582c7.973 7.334 11.96 17.734 11.96 31.198h-71.648c.752 17.452 4.701 30.164 11.847 38.137 7.146 7.974 15.608 11.961 25.387 11.961 7.898 0 14.555-2.069 19.971-6.206 5.416-4.137 10.419-10.005 15.007-17.602l3.949 1.354c-3.084 9.553-8.857 18.392-17.32 26.516-8.462 8.124-18.824 12.185-31.085 12.185-14.141 0-25.067-5.34-32.777-16.022-7.711-10.681-11.566-22.98-11.566-36.896 0-15.119 4.476-28.17 13.427-39.152 8.952-10.983 20.611-16.474 34.978-16.474 10.606 0 19.896 3.667 27.87 11.001zm-54.047 8.632c-2.407 4.062-4.137 9.177-5.19 15.345h47.615c-.827-7.522-2.257-13.126-4.288-16.812-3.685-6.619-9.854-9.929-18.504-9.929-8.575 0-15.119 3.799-19.633 11.396zM731.299 1015.04c1.843 1.203 5.66 1.805 11.452 1.805 18.053 0 32.91-3.573 44.569-10.719 17.903-10.982 26.854-29.75 26.854-56.303 0-23.695-7.372-41.522-22.115-53.482-12.637-10.23-29.374-15.345-50.21-15.345-5.191 0-8.707.564-10.55 1.692-1.843 1.128-2.765 3.611-2.765 7.447v117.458c0 3.761.922 6.243 2.765 7.447zm-46.543 6.206c8.424-.903 13.916-2.426 16.473-4.57 2.558-2.144 3.836-7.579 3.836-16.304v-102.79c0-8.425-1.241-13.841-3.723-16.248-2.482-2.407-8.011-3.911-16.586-4.513v-4.288h62.283c20.987 0 38.739 3.46 53.257 10.381 26.177 12.411 39.265 34.602 39.265 66.571 0 11.508-2.351 22.453-7.052 32.834-4.701 10.38-11.791 19.144-21.269 26.29-6.017 4.513-12.261 7.935-18.73 10.267-11.81 4.363-26.327 6.544-43.553 6.544h-64.201v-4.174z" fill-rule="nonzero"/></svg>