<svg viewBox="0 0 1200 1200" xmlns="http://www.w3.org/2000/svg" fill-rule="evenodd" clip-rule="evenodd" stroke-linecap="round" stroke-linejoin="round" stroke-miterlimit="1.414"><g stroke="#000"><g stroke-width="2.95"><path d="M104.293 735.771c-27.263-6.85-51.04-7.139-79.766-.121-5.857 22.968 3.323 39.469 3.323 39.469 17.409 9.404 56.979 9.151 74.419-.294 0 0 8.601-17.514 2.024-39.054z" fill="url(#a)"/><path d="M30.107 657.295c-.707-.334-8.361 3.733-10.698 7.448-13.561 21.555-10.821 60.526-10.457 61.279 10.28 21.229 104.285 19.716 111.056 1.082 3.985-10.968 1.541-53.199-6.244-64.09-4.266-5.969-61.092-17.71-83.657-5.719z" fill="url(#b)"/><path d="M30.171 639.252c-1.524.121-15.106 5.276-14.034 7.956.417 1.044 5.384.476 5.527.757.044.086-4.283 4.723-1.515 7.408 6.448 6.257 17.953.038 18.669 1.48 2.622 5.276 16.653 7.798 22.435 5.015 6.412-3.086 8.288-3.296 11.269-3.23 3.304.074 6.581 4.01 12.969 3.23 4.794-.586 5.467-3.278 12.281-1.597 13.654 3.369 16.103-3.836 6.697-9.138-1.003-.566 2.213.616 5.481-2.646.829-.828.252-5.184-10.189-6.671" fill="url(#c)"/><path d="M18.327 614.52c-37.261-37.422 12.568-82.137 44.691-68.088 4.542 1.987 25.976-14.854 45.451 4.092 20.6 20.042 7.717 38.485 5.847 39.707" fill="url(#d)"/><path d="M28.237 577.909c-28.14 24.294-5.752 72.662 34.745 73.149 9.248.112 33.117 1.992 46.873-22.579 10.725-19.157 7.499-40.694-3.544-49.299-.851-.663-7.596 6.759-16.079 7.421-11.023.859-19.292-6.792-19.301-6.776-3.528 6.159-18.968 8.692-25.169 7.519-11.324-2.142-16.838-9.561-17.525-9.435z" fill="url(#e)"/><path d="M56.944 613.222c3.632-5.731 14.659-4.105 18.128-.745m-30.456 18.116c2.207-3.581 4.728-5.927 8.163-7.103m-3.429 3.43c10.231 9.593 28.144 5.371 32.354.407m-1.932-4.788c2.043 2.429 2.746 4.618 1.932 9.353" fill="none"/><ellipse cx="46.464" cy="598.911" rx="4.405" ry="5.759"/><ellipse cx="84.173" cy="598.911" rx="4.405" ry="5.759"/></g><g stroke-width="2.95"><path d="M1178.01 735.771c-27.263-6.85-51.04-7.139-79.767-.121-5.856 22.968 3.324 39.469 3.324 39.469 17.409 9.404 56.979 9.151 74.419-.294 0 0 8.601-17.514 2.024-39.054z" fill="url(#f)"/><path d="M1103.82 657.295c-.707-.334-8.361 3.733-10.698 7.448-13.561 21.555-10.822 60.526-10.457 61.279 10.28 21.229 104.285 19.716 111.056 1.082 3.985-10.968 1.541-53.199-6.244-64.09-4.266-5.969-61.092-17.71-83.657-5.719z" fill="url(#g)"/><path d="M1103.89 639.252c-1.524.121-15.106 5.276-14.034 7.956.417 1.044 5.384.476 5.527.757.044.086-4.283 4.723-1.516 7.408 6.448 6.257 17.954.038 18.67 1.48 2.622 5.276 16.652 7.798 22.435 5.015 6.412-3.086 8.288-3.296 11.269-3.23 3.304.074 6.581 4.01 12.969 3.23 4.794-.586 5.467-3.278 12.281-1.597 13.654 3.369 16.103-3.836 6.697-9.138-1.003-.566 2.213.616 5.481-2.646.829-.828.252-5.184-10.189-6.671" fill="url(#h)"/><path d="M1092.04 614.52c-37.261-37.422 12.568-82.137 44.691-68.088 4.542 1.987 25.975-14.854 45.451 4.092 20.6 20.042 7.717 38.485 5.847 39.707" fill="url(#i)"/><path d="M1101.95 577.909c-28.14 24.294-5.752 72.662 34.744 73.149 9.249.112 33.118 1.992 46.874-22.579 10.725-19.157 7.499-40.694-3.544-49.299-.851-.663-7.597 6.759-16.079 7.421-11.023.859-19.292-6.792-19.302-6.776-3.527 6.159-18.968 8.692-25.168 7.519-11.325-2.142-16.838-9.561-17.525-9.435z" fill="url(#j)"/><path d="M1130.66 613.222c3.632-5.731 14.659-4.105 18.128-.745m-30.458 18.116c2.207-3.581 4.728-5.927 8.163-7.103m-3.433 3.43c10.232 9.593 28.145 5.371 32.355.407m-1.925-4.788c2.043 2.429 2.746 4.618 1.932 9.353" fill="none"/><ellipse cx="1120.18" cy="598.911" rx="4.405" ry="5.759"/><ellipse cx="1157.89" cy="598.911" rx="4.405" ry="5.759"/></g><g stroke-width="3.14"><path d="M276.508 215.046c-2.963 14.793.755 42.676 3.227 43.595 29.504 10.966 61.511 8.528 78.942-1.156 2.057-1.143 5.077-19.056 3.319-43.014-27.513 10.299-53.859 10.374-85.488.575z" fill="url(#k)" stroke-miterlimit="1"/><path d="M287.377 135.22c-3.272-1.173-27.343 5.938-28.769 12.31-3.158 14.114-2.072 56.75 4.868 60.973 19.516 11.873 67.068 22.621 106.24 1.862 2.158-1.144 7.908-32.219 4.187-64.018-.459-3.93-34.382-13.659-37.109-11.87l-49.417.743z" fill="url(#l)" stroke-miterlimit="1"/><path d="M355.474 68.798c-3.784 5.096-77.401 2.205-78.45 3.525-2.904 3.657-14.138 71.331 36.604 72.799 59.323 1.717 43.685-78.801 41.846-76.324z" fill="url(#m)" stroke-miterlimit="1"/><path d="M253.382 54.763c-2.112.38-.825 16.733 30.963 26.785 41.902 13.249 91.01-11.22 94.963-36.207.178-1.124-2.196-1.07-5.968-.485-7.883 1.222-15.877 4.983-15.913 4.049-2.62-69.551-40.228-36.845-43.466-36.312-1.889.311-6.382-7.6-15.926-6.422-27.5 3.394-20.578 47.696-21.346 47.719-5.101.154-12.306-1.107-23.307.873z" fill="url(#n)" stroke-miterlimit="1"/><path d="M334.627 90.577c3.167.029 5.71 3.209 5.674 7.096-.035 3.887-2.636 7.02-5.803 6.991-3.167-.029-5.71-3.209-5.674-7.096.035-3.887 2.636-7.019 5.803-6.991zm-38.245 0c3.168-.025 5.765 3.11 5.796 6.997.031 3.888-2.515 7.064-5.682 7.09-3.167.025-5.764-3.11-5.796-6.997-.031-3.887 2.515-7.064 5.682-7.09z"/><path d="M307.863 110.284c2.107-2.436 7.392-7.588 14.179-1.348" fill="none" stroke-miterlimit="1"/><path d="M293.078 127.001c.606-.267 3.056-1.291 5.456-3.282 2.877-2.386 4.209-4.571 4.232-4.552.027.019-4.116 5.219-4.116 5.219s7.231 4.056 16.296 3.993c9.064-.063 16.609-4.713 16.481-4.536-1.964 2.715-6.733 7.941-16.481 7.94-9.749-.001-15.102-6.672-16.58-7.144l-5.288 2.362z"/><path d="M259.088 146.394c19.128 10.524 41.322 16.73 58.937 15.987 32.113-1.353 49.7-12.408 54.39-15.778" fill="none" stroke-miterlimit="1"/><path d="M317.061 10.903c-3.108 1.87-7.104 4.334-12.331 9.862m74.582 24.091c-3.85 5.802-25.975 19.059-35.135 20.22m13.225-17.41c-.032 2.779.012 7.442-.707 11.59m-79.929-5.795c0 1.488.691 4.945.855 5.795" fill="none"/></g><g stroke-width="3.14"><path d="M561.787 1146.09c-2.963 14.793.754 42.677 3.227 43.596 29.504 10.965 61.511 8.527 78.942-1.157 2.057-1.143 5.077-19.055 3.318-43.013-27.512 10.298-53.858 10.373-85.487.574z" fill="url(#o)" stroke-miterlimit="1"/><path d="M572.656 1066.27c-3.272-1.173-27.343 5.938-28.769 12.31-3.159 14.114-2.073 56.75 4.868 60.973 19.516 11.873 67.067 22.621 106.24 1.861 2.158-1.143 7.908-32.218 4.187-64.017-.46-3.93-34.382-13.66-37.11-11.87l-49.416.743z" fill="url(#p)" stroke-miterlimit="1"/><path d="M640.752 999.843c-3.783 5.097-77.401 2.205-78.449 3.526-2.904 3.657-14.138 71.33 36.604 72.799 59.323 1.717 43.684-78.801 41.845-76.325z" fill="url(#q)" stroke-miterlimit="1"/><path d="M538.661 985.809c-2.112.38-.825 16.733 30.963 26.784 41.902 13.25 91.01-11.219 94.963-36.207.178-1.123-2.197-1.069-5.969-.484-7.882 1.221-15.877 4.983-15.912 4.048-2.62-69.55-40.229-36.844-43.466-36.312-1.89.311-6.382-7.6-15.926-6.422-27.5 3.394-20.578 47.696-21.346 47.72-5.101.154-12.306-1.107-23.307.873z" fill="url(#r)" stroke-miterlimit="1"/><path d="M619.906 1021.62c3.167.029 5.71 3.209 5.674 7.096-.036 3.887-2.636 7.019-5.803 6.99-3.168-.029-5.71-3.208-5.675-7.095.036-3.887 2.636-7.02 5.804-6.991zm-38.245 0c3.167-.025 5.764 3.11 5.796 6.997.031 3.887-2.515 7.064-5.682 7.089-3.168.026-5.765-3.109-5.796-6.996-.031-3.888 2.515-7.064 5.682-7.09z"/><path d="M593.142 1041.33c2.106-2.436 7.391-7.589 14.178-1.348" fill="none" stroke-miterlimit="1"/><path d="M578.357 1058.05c.606-.266 3.055-1.291 5.456-3.281 2.877-2.386 4.208-4.571 4.232-4.553.026.02-4.117 5.22-4.117 5.22s7.231 4.055 16.296 3.992c9.065-.063 16.609-4.712 16.481-4.535-1.963 2.715-6.732 7.941-16.481 7.94-9.749-.001-15.102-6.672-16.579-7.144l-5.288 2.361z"/><path d="M544.367 1077.44c19.128 10.524 41.322 16.729 58.937 15.987 32.113-1.354 49.699-12.408 54.389-15.778" fill="none" stroke-miterlimit="1"/><path d="M602.339 941.948c-3.108 1.871-7.103 4.335-12.33 9.863m74.582 24.091c-3.85 5.801-25.975 19.059-35.135 20.22m13.225-17.411c-.032 2.78.012 7.442-.708 11.59m-79.929-5.795c0 1.489.691 4.946.856 5.795" fill="none"/></g><g stroke-width="3.14"><path d="M886.85 215.046c-2.963 14.793.754 42.676 3.227 43.595 29.504 10.966 61.511 8.528 78.942-1.156 2.057-1.143 5.077-19.056 3.318-43.014-27.512 10.299-53.858 10.374-85.487.575z" fill="url(#s)" stroke-miterlimit="1"/><path d="M897.718 135.22c-3.271-1.173-27.342 5.938-28.768 12.31-3.159 14.114-2.073 56.75 4.868 60.973 19.515 11.873 67.067 22.621 106.239 1.862 2.159-1.144 7.908-32.219 4.188-64.018-.46-3.93-34.382-13.659-37.11-11.87l-49.417.743z" fill="url(#t)" stroke-miterlimit="1"/><path d="M965.815 68.798c-3.783 5.096-77.401 2.205-78.449 3.525-2.904 3.657-14.138 71.331 36.603 72.799 59.324 1.717 43.685-78.801 41.846-76.324z" fill="url(#u)" stroke-miterlimit="1"/><path d="M863.724 54.763c-2.112.38-.825 16.733 30.963 26.785 41.902 13.249 91.01-11.22 94.963-36.207.178-1.124-2.197-1.07-5.969-.485-7.882 1.222-15.877 4.983-15.912 4.049-2.62-69.551-40.229-36.845-43.466-36.312-1.89.311-6.382-7.6-15.926-6.422-27.5 3.394-20.578 47.696-21.346 47.719-5.101.154-12.306-1.107-23.307.873z" fill="url(#v)" stroke-miterlimit="1"/><path d="M944.968 90.577c3.168.029 5.71 3.209 5.675 7.096-.036 3.887-2.636 7.02-5.803 6.991-3.168-.029-5.71-3.209-5.675-7.096.036-3.887 2.636-7.019 5.803-6.991zm-38.244 0c3.167-.025 5.764 3.11 5.796 6.997.031 3.888-2.515 7.064-5.683 7.09-3.167.025-5.764-3.11-5.795-6.997-.032-3.887 2.515-7.064 5.682-7.09z"/><path d="M918.204 110.284c2.107-2.436 7.392-7.588 14.179-1.348" fill="none" stroke-miterlimit="1"/><path d="M903.42 127.001c.606-.267 3.055-1.291 5.456-3.282 2.877-2.386 4.208-4.571 4.232-4.552.026.019-4.117 5.219-4.117 5.219s7.231 4.056 16.296 3.993c9.065-.063 16.609-4.713 16.481-4.536-1.963 2.715-6.732 7.941-16.481 7.94-9.749-.001-15.102-6.672-16.58-7.144l-5.287 2.362z"/><path d="M869.43 146.394c19.128 10.524 41.322 16.73 58.937 15.987 32.113-1.353 49.699-12.408 54.389-15.778" fill="none" stroke-miterlimit="1"/><path d="M927.402 10.903c-3.108 1.87-7.103 4.334-12.33 9.862m74.582 24.091c-3.85 5.802-25.975 19.059-35.135 20.22m13.225-17.41c-.032 2.779.012 7.442-.708 11.59m-79.929-5.795c0 1.488.691 4.945.855 5.795" fill="none"/></g><path d="M153.028 600L839.74 239.185M126.285 508.778l147.791-204.85M171.121 698.733l857.758-11.639M137.847 800.921l366.684 253.735m-87.344-896.218l401.552 1.164M350.844 303.928l188.555 597.09m375.946-597.09L640.66 901.018m364.31-611.402l103.589 212.997m-51.799 296.799l-348.507 255.244M417.187 233.748l606.488 343.356" fill="none" stroke-width="8"/><path d="M890.542 913.351c-.199-.3.099-.715.19-1.064.215-.82.511-1.617.727-2.437.94-3.573 1.443-7.198 1.584-10.902 1.232-32.522-46.218-45.109-62.753-15.732-4.144 7.361-5.906 16.024-4.542 24.329.728 4.434 2.281 8.773 4.73 12.553 6.007 9.277 17.763 15.46 28.869 14.276 4.515-.482 4.828-.694 9.036-1.668 1.112-.258 3.946-1.278 5.43-.781 1.04.349 1.264 1.434 1.22 2.399-.053 1.197-.336 1.69-.799 2.836-.461 1.138-1.232 2.374-.303 3.514.207.254.455.479.725.666.36.25.743.475 1.151.635 1.781.699 3.091-.413 4.495-1.354.549-.368 1.018-.916 1.655-1.095.269-.076.5.255.72.426.57.442 1.113.917 1.643 1.405 1.863 1.716 3.722 3.436 5.533 5.207a1695.667 1695.667 0 0 1 32.943 33.082c2.817 2.908 5.493 5.953 8.331 8.841.387.394 1.664.503 1.998.517 3.206.14 4.672.052 7.889-.389.771-.105 2.685-.318 3.036-1.282.327-.9.333-3.064.325-3.521-.041-2.27-.166-4.538-.307-6.804-.043-.694-.77-.746-.852-1.38-.123-.958.218-3.052-.619-3.798-.48-.428-3.654-.379-4.115-.964-.069-.088-1.661-5.987-1.899-6.704-.175-.528-.298-1.103-.643-1.54-.185-.236-.54-.283-.835-.336-.999-.18-2.273.317-2.997-.661-.987-1.33-.049-3.303-1.288-4.522-2.013-1.978-5.462-.828-7.806-2.068-1.005-.532-.997-1.714-1.155-2.657-.21-1.253-.302-2.013-1.378-2.756-2.012-1.391-5.088-.378-6.787-2.338-1.947-2.246-1.37-5.17-2.062-7.83-.339-1.303-1.416-1.607-2.603-1.819-.554-.098-1.544-.007-1.809-.724-.607-1.639-.109-3.43-.508-5.096-.108-.451-.474-.799-.755-1.167-1.684-2.21-6.673-7.71-7.34-8.45-.67-.744 4.959-3.69 1.889-6.759-2.744-2.742-5.93 2.315-6.71 1.462-1.785-1.951-3.254-3.55-3.254-3.55zm-40.726-32.339c5.382 0 9.752 4.227 9.752 9.433 0 5.206-4.37 9.433-9.752 9.433-5.382 0-9.752-4.227-9.752-9.433 0-5.206 4.37-9.433 9.752-9.433z" fill="url(#w)" stroke-width="1.7"/><path d="M872.735 922.826l64.927 65.611m-59.186-70.53l65.452 63.951" fill="none" stroke-width="1.45"/><path d="M317.323 914.105c-.2-.299.098-.715.19-1.063.214-.82.51-1.618.726-2.438.941-3.572 1.444-7.197 1.585-10.902 1.232-32.522-46.219-45.108-62.754-15.732-4.143 7.362-5.905 16.024-4.542 24.33.728 4.434 2.282 8.773 4.73 12.553 6.008 9.276 17.764 15.46 28.87 14.275 4.515-.481 4.828-.694 9.036-1.668 1.112-.257 3.945-1.277 5.43-.78 1.039.348 1.264 1.434 1.22 2.399-.054 1.197-.336 1.69-.8 2.836-.46 1.138-1.232 2.373-.302 3.514.207.254.455.479.725.666.36.249.743.475 1.151.635 1.781.698 3.091-.414 4.494-1.354.55-.369 1.019-.916 1.656-1.096.269-.075.499.256.72.427.569.441 1.113.917 1.643 1.405 1.862 1.716 3.722 3.436 5.533 5.207a1698.411 1698.411 0 0 1 32.943 33.081c2.817 2.909 5.493 5.954 8.331 8.842.387.394 1.664.502 1.998.517 3.205.139 4.671.052 7.889-.389.771-.106 2.685-.319 3.036-1.282.327-.9.333-3.065.325-3.522-.042-2.269-.166-4.537-.307-6.803-.043-.694-.77-.746-.852-1.38-.124-.958.218-3.052-.619-3.798-.481-.429-3.654-.38-4.115-.964-.069-.088-1.661-5.988-1.899-6.704-.175-.528-.298-1.103-.643-1.541-.186-.235-.54-.282-.835-.335-.999-.18-2.273.316-2.998-.661-.986-1.33-.048-3.303-1.287-4.522-2.013-1.979-5.463-.829-7.807-2.068-1.005-.532-.996-1.714-1.154-2.657-.21-1.253-.303-2.013-1.378-2.757-2.013-1.39-5.089-.377-6.788-2.337-1.946-2.246-1.37-5.17-2.061-7.831-.339-1.302-1.416-1.606-2.603-1.818-.555-.099-1.544-.007-1.81-.724-.606-1.639-.108-3.43-.508-5.097-.108-.45-.474-.798-.754-1.166-1.684-2.21-6.673-7.711-7.34-8.451-.67-.743 4.959-3.689 1.888-6.758-2.743-2.742-5.929 2.315-6.709 1.462-1.785-1.951-3.254-3.551-3.254-3.551zm-40.726-32.338c5.382 0 9.751 4.227 9.751 9.433 0 5.206-4.369 9.433-9.751 9.433-5.383 0-9.752-4.227-9.752-9.433 0-5.206 4.369-9.433 9.752-9.433z" fill="url(#x)" stroke-width="1.7"/><path d="M299.515 923.58l64.928 65.612m-59.186-70.53l65.452 63.95" fill="none" stroke-width="1.45"/><path d="M218.555 382.431c-.2-.299.098-.715.189-1.063.215-.821.511-1.618.727-2.438.94-3.572 1.444-7.197 1.584-10.902 1.233-32.522-46.218-45.108-62.753-15.732-4.144 7.362-5.906 16.024-4.542 24.33.728 4.434 2.281 8.772 4.73 12.553 6.008 9.276 17.763 15.46 28.869 14.275 4.515-.482 4.829-.694 9.036-1.668 1.112-.257 3.946-1.278 5.43-.78 1.04.348 1.264 1.433 1.221 2.398-.054 1.198-.337 1.69-.8 2.836-.46 1.139-1.232 2.374-.303 3.514.207.255.455.479.725.666.36.25.743.476 1.151.636 1.781.698 3.091-.414 4.495-1.355.55-.368 1.018-.916 1.655-1.095.269-.076.5.256.72.427.57.441 1.113.916 1.643 1.405 1.863 1.716 3.723 3.436 5.533 5.207a1690.038 1690.038 0 0 1 32.943 33.081c2.818 2.909 5.493 5.953 8.331 8.842.387.394 1.664.502 1.999.516 3.205.14 4.671.053 7.888-.388.771-.106 2.685-.319 3.036-1.283.327-.899.333-3.064.325-3.521-.041-2.27-.166-4.538-.307-6.803-.043-.695-.77-.746-.852-1.38-.123-.958.218-3.052-.619-3.799-.48-.428-3.654-.379-4.115-.964-.069-.087-1.661-5.987-1.898-6.703-.176-.528-.299-1.104-.644-1.541-.185-.236-.54-.282-.835-.335-.999-.18-2.273.316-2.997-.661-.987-1.33-.048-3.304-1.288-4.522-2.013-1.979-5.462-.829-7.806-2.069-1.005-.531-.997-1.713-1.155-2.656-.21-1.254-.302-2.014-1.378-2.757-2.012-1.39-5.088-.377-6.787-2.338-1.946-2.245-1.37-5.17-2.062-7.83-.339-1.303-1.416-1.607-2.603-1.818-.554-.099-1.544-.007-1.809-.725-.607-1.638-.109-3.429-.508-5.096-.108-.45-.474-.798-.755-1.167-1.684-2.209-6.672-7.71-7.34-8.45-.67-.743 4.959-3.69 1.889-6.758-2.744-2.742-5.929 2.315-6.71 1.462a2730.405 2730.405 0 0 0-3.253-3.551zm-40.727-32.338c5.382 0 9.752 4.226 9.752 9.433 0 5.206-4.37 9.432-9.752 9.432-5.382 0-9.752-4.226-9.752-9.432 0-5.207 4.37-9.433 9.752-9.433z" fill="url(#y)" stroke-width="1.7"/><path d="M200.747 391.906l64.927 65.612m-59.186-70.531l65.452 63.951" fill="none" stroke-width="1.45"/><path d="M608.035 140.336c-.2-.299.099-.715.19-1.063.214-.821.511-1.618.726-2.438.941-3.572 1.444-7.197 1.585-10.902 1.232-32.522-46.219-45.108-62.753-15.732-4.144 7.362-5.906 16.024-4.543 24.33.728 4.434 2.282 8.772 4.731 12.553 6.007 9.276 17.763 15.46 28.869 14.275 4.515-.482 4.828-.694 9.036-1.668 1.112-.257 3.946-1.278 5.43-.781 1.039.349 1.264 1.434 1.22 2.399-.054 1.198-.336 1.69-.799 2.836-.461 1.138-1.233 2.374-.303 3.514.207.255.455.479.725.666.36.25.743.476 1.151.636 1.781.698 3.091-.414 4.495-1.355.549-.368 1.018-.916 1.655-1.095.269-.076.5.256.72.427.569.441 1.113.916 1.643 1.404 1.862 1.717 3.722 3.437 5.533 5.208a1692.827 1692.827 0 0 1 32.943 33.081c2.817 2.909 5.493 5.953 8.331 8.842.387.393 1.664.502 1.998.516 3.205.14 4.672.053 7.889-.388.771-.106 2.685-.319 3.036-1.283.327-.899.333-3.064.325-3.521-.041-2.27-.166-4.538-.307-6.803-.043-.695-.77-.746-.852-1.381-.123-.957.218-3.051-.619-3.798-.48-.428-3.654-.379-4.115-.964-.069-.087-1.661-5.987-1.899-6.703-.175-.529-.298-1.104-.643-1.541-.185-.236-.54-.282-.835-.335-.999-.181-2.273.316-2.998-.661-.986-1.33-.048-3.304-1.287-4.522-2.013-1.979-5.462-.829-7.807-2.069-1.005-.531-.996-1.713-1.154-2.656-.21-1.254-.302-2.014-1.378-2.757-2.013-1.391-5.088-.377-6.787-2.338-1.947-2.245-1.37-5.17-2.062-7.83-.339-1.303-1.416-1.607-2.603-1.818-.554-.099-1.544-.007-1.81-.725-.606-1.639-.108-3.429-.508-5.096-.108-.45-.473-.798-.754-1.167-1.684-2.209-6.673-7.71-7.34-8.45-.67-.743 4.959-3.69 1.889-6.758-2.744-2.742-5.93 2.314-6.71 1.462-1.785-1.952-3.254-3.551-3.254-3.551zm-40.726-32.338c5.382 0 9.752 4.226 9.752 9.432 0 5.207-4.37 9.433-9.752 9.433-5.382 0-9.752-4.226-9.752-9.433 0-5.206 4.37-9.432 9.752-9.432z" fill="url(#z)" stroke-width="1.7"/><path d="M590.228 149.811l64.927 65.612m-59.186-70.531l65.452 63.951" fill="none" stroke-width="1.45"/><path d="M453.157 561.602c-.2-.3.098-.715.189-1.064.215-.82.511-1.617.727-2.437.94-3.572 1.444-7.197 1.584-10.902 1.233-32.522-46.218-45.109-62.753-15.732-4.143 7.361-5.906 16.024-4.542 24.329.728 4.434 2.282 8.773 4.73 12.554 6.008 9.276 17.763 15.459 28.87 14.275 4.514-.482 4.828-.694 9.036-1.668 1.112-.258 3.945-1.278 5.429-.781 1.04.349 1.264 1.434 1.221 2.399-.054 1.197-.336 1.69-.8 2.836-.46 1.138-1.232 2.374-.303 3.514.208.254.456.479.725.666.361.25.744.476 1.152.636 1.78.698 3.091-.414 4.494-1.355.55-.368 1.019-.916 1.656-1.095.268-.076.499.255.72.426a25.55 25.55 0 0 1 1.642 1.405c1.863 1.716 3.723 3.437 5.534 5.207a1695.667 1695.667 0 0 1 32.943 33.082c2.817 2.909 5.492 5.953 8.33 8.841.387.394 1.665.503 1.999.517 3.205.14 4.671.052 7.888-.389.772-.105 2.686-.318 3.036-1.282.328-.899.334-3.064.325-3.521-.041-2.27-.166-4.538-.306-6.804-.043-.694-.77-.745-.852-1.38-.124-.958.218-3.052-.62-3.798-.48-.428-3.653-.379-4.114-.964-.069-.088-1.662-5.987-1.899-6.704-.175-.528-.299-1.103-.643-1.54-.186-.236-.54-.282-.835-.336-1-.18-2.273.317-2.998-.66-.986-1.33-.048-3.304-1.288-4.523-2.012-1.978-5.462-.828-7.806-2.068-1.005-.532-.997-1.713-1.154-2.657-.21-1.253-.303-2.013-1.378-2.756-2.013-1.391-5.089-.378-6.788-2.338-1.946-2.246-1.37-5.17-2.062-7.83-.338-1.303-1.415-1.607-2.602-1.819-.555-.098-1.544-.007-1.81-.724-.607-1.639-.109-3.43-.508-5.096-.108-.451-.474-.799-.755-1.167-1.684-2.21-6.672-7.71-7.339-8.45-.67-.744 4.959-3.69 1.888-6.758-2.744-2.743-5.929 2.314-6.709 1.461-1.785-1.951-3.254-3.55-3.254-3.55zm-40.727-32.339c5.383 0 9.752 4.227 9.752 9.433 0 5.206-4.369 9.433-9.752 9.433-5.382 0-9.752-4.227-9.752-9.433 0-5.206 4.37-9.433 9.752-9.433z" fill="url(#A)" stroke-width="1.7"/><path d="M435.349 571.077l64.928 65.611m-59.187-70.53l65.452 63.951" fill="none" stroke-width="1.45"/><path d="M786.038 561.602c-.2-.3.098-.715.189-1.064.215-.82.511-1.617.727-2.437.94-3.572 1.444-7.197 1.584-10.902 1.233-32.522-46.218-45.109-62.753-15.732-4.144 7.361-5.906 16.024-4.542 24.329.728 4.434 2.281 8.773 4.73 12.554 6.008 9.276 17.763 15.459 28.869 14.275 4.515-.482 4.829-.694 9.036-1.668 1.113-.258 3.946-1.278 5.43-.781 1.04.349 1.264 1.434 1.221 2.399-.054 1.197-.337 1.69-.8 2.836-.46 1.138-1.232 2.374-.303 3.514.207.254.455.479.725.666.36.25.743.476 1.151.636 1.781.698 3.091-.414 4.495-1.355.55-.368 1.018-.916 1.656-1.095.268-.076.499.255.719.426.57.442 1.113.917 1.643 1.405 1.863 1.716 3.723 3.437 5.533 5.207a1692.867 1692.867 0 0 1 32.943 33.082c2.818 2.909 5.493 5.953 8.331 8.841.387.394 1.664.503 1.999.517 3.205.14 4.671.052 7.888-.389.771-.105 2.685-.318 3.036-1.282.327-.899.333-3.064.325-3.521-.041-2.27-.166-4.538-.307-6.804-.043-.694-.77-.745-.852-1.38-.123-.958.218-3.052-.619-3.798-.48-.428-3.654-.379-4.115-.964-.069-.088-1.661-5.987-1.898-6.704-.176-.528-.299-1.103-.643-1.54-.186-.236-.54-.282-.836-.336-.999-.18-2.273.317-2.997-.66-.987-1.33-.048-3.304-1.288-4.523-2.013-1.978-5.462-.828-7.806-2.068-1.005-.532-.997-1.713-1.155-2.657-.21-1.253-.302-2.013-1.378-2.756-2.012-1.391-5.088-.378-6.787-2.338-1.946-2.246-1.37-5.17-2.062-7.83-.339-1.303-1.416-1.607-2.603-1.819-.554-.098-1.544-.007-1.809-.724-.607-1.639-.109-3.43-.508-5.096-.108-.451-.474-.799-.755-1.167-1.684-2.21-6.672-7.71-7.34-8.45-.67-.744 4.959-3.69 1.889-6.758-2.744-2.743-5.929 2.314-6.71 1.461-1.785-1.951-3.253-3.55-3.253-3.55zm-40.727-32.339c5.382 0 9.752 4.227 9.752 9.433 0 5.206-4.37 9.433-9.752 9.433-5.382 0-9.752-4.227-9.752-9.433 0-5.206 4.37-9.433 9.752-9.433z" fill="url(#B)" stroke-width="1.7"/><path d="M768.23 571.077l64.927 65.611m-59.186-70.53l65.452 63.951" fill="none" stroke-width="1.45"/><path d="M608.035 673.411c-.2-.3.099-.715.19-1.064.214-.82.511-1.617.726-2.437.941-3.573 1.444-7.198 1.585-10.902 1.232-32.522-46.219-45.109-62.753-15.732-4.144 7.361-5.906 16.024-4.543 24.329.728 4.434 2.282 8.773 4.731 12.553 6.007 9.277 17.763 15.46 28.869 14.276 4.515-.482 4.828-.694 9.036-1.668 1.112-.258 3.946-1.278 5.43-.781 1.039.349 1.264 1.434 1.22 2.399-.054 1.197-.336 1.69-.799 2.836-.461 1.138-1.233 2.374-.303 3.514.207.254.455.479.725.666.36.25.743.475 1.151.635 1.781.699 3.091-.413 4.495-1.354.549-.368 1.018-.916 1.655-1.095.269-.076.5.255.72.426.569.442 1.113.917 1.643 1.405 1.862 1.716 3.722 3.436 5.533 5.207a1695.667 1695.667 0 0 1 32.943 33.082c2.817 2.908 5.493 5.953 8.331 8.841.387.394 1.664.503 1.998.517 3.205.14 4.672.052 7.889-.389.771-.105 2.685-.318 3.036-1.282.327-.9.333-3.064.325-3.521-.041-2.27-.166-4.538-.307-6.804-.043-.694-.77-.746-.852-1.38-.123-.958.218-3.052-.619-3.798-.48-.428-3.654-.379-4.115-.964-.069-.088-1.661-5.987-1.899-6.704-.175-.528-.298-1.103-.643-1.54-.185-.236-.54-.283-.835-.336-.999-.18-2.273.317-2.998-.661-.986-1.33-.048-3.303-1.287-4.522-2.013-1.978-5.462-.828-7.807-2.068-1.005-.532-.996-1.714-1.154-2.657-.21-1.253-.302-2.013-1.378-2.756-2.013-1.391-5.088-.378-6.787-2.338-1.947-2.246-1.37-5.17-2.062-7.83-.339-1.303-1.416-1.607-2.603-1.819-.554-.098-1.544-.007-1.81-.724-.606-1.639-.108-3.43-.508-5.096-.108-.451-.473-.799-.754-1.167-1.684-2.21-6.673-7.71-7.34-8.45-.67-.744 4.959-3.69 1.889-6.759-2.744-2.742-5.93 2.315-6.71 1.462-1.785-1.951-3.254-3.55-3.254-3.55zm-40.726-32.339c5.382 0 9.752 4.227 9.752 9.433 0 5.206-4.37 9.433-9.752 9.433-5.382 0-9.752-4.227-9.752-9.433 0-5.206 4.37-9.433 9.752-9.433z" fill="url(#C)" stroke-width="1.7"/><path d="M590.228 682.886l64.927 65.611m-59.186-70.53l65.452 63.951" fill="none" stroke-width="1.45"/><g><path d="M535.363 392.67c-.2-.3.098-.715.19-1.063.214-.821.51-1.618.726-2.438.941-3.572 1.444-7.197 1.585-10.902 1.232-32.522-46.219-45.109-62.754-15.732-4.143 7.361-5.905 16.024-4.542 24.329.728 4.434 2.282 8.773 4.73 12.554 6.008 9.276 17.764 15.459 28.87 14.275 4.515-.482 4.828-.694 9.036-1.668 1.112-.257 3.945-1.278 5.43-.781 1.039.349 1.264 1.434 1.22 2.399-.054 1.198-.336 1.69-.8 2.836-.46 1.138-1.232 2.374-.302 3.514.207.254.455.479.725.666.36.25.743.476 1.151.636 1.781.698 3.091-.414 4.494-1.355.55-.368 1.019-.916 1.656-1.095.269-.076.499.256.72.426.569.442 1.113.917 1.643 1.405 1.862 1.717 3.722 3.437 5.533 5.207a1695.667 1695.667 0 0 1 32.943 33.082c2.817 2.909 5.493 5.953 8.331 8.842.387.393 1.664.502 1.998.516 3.205.14 4.671.053 7.889-.389.771-.105 2.685-.318 3.036-1.282.327-.899.333-3.064.325-3.521-.041-2.27-.166-4.538-.307-6.803-.043-.695-.77-.746-.852-1.381-.124-.957.218-3.052-.619-3.798-.481-.428-3.654-.379-4.115-.964-.069-.087-1.661-5.987-1.899-6.703-.175-.529-.298-1.104-.643-1.541-.186-.236-.54-.282-.835-.336-.999-.18-2.273.317-2.998-.66-.986-1.33-.048-3.304-1.287-4.522-2.013-1.979-5.463-.829-7.807-2.069-1.005-.531-.996-1.713-1.154-2.657-.21-1.253-.303-2.013-1.378-2.756-2.013-1.391-5.089-.378-6.788-2.338-1.946-2.245-1.37-5.17-2.061-7.83-.339-1.303-1.416-1.607-2.603-1.818-.555-.099-1.544-.007-1.81-.725-.606-1.639-.108-3.429-.508-5.096-.108-.451-.474-.798-.754-1.167-1.684-2.209-6.673-7.71-7.34-8.45-.67-.743 4.959-3.69 1.888-6.758-2.743-2.742-5.929 2.314-6.709 1.462-1.785-1.952-3.254-3.551-3.254-3.551zm-40.726-32.338c5.382 0 9.751 4.226 9.751 9.432s-4.369 9.433-9.751 9.433c-5.383 0-9.752-4.227-9.752-9.433 0-5.206 4.369-9.432 9.752-9.432z" fill="url(#D)" stroke-width="1.7"/><path d="M517.555 402.145l64.928 65.612m-59.186-70.531l65.452 63.951" fill="none" stroke-width="1.45"/></g><g><path d="M721.367 392.67c-.2-.3.099-.715.19-1.063.214-.821.511-1.618.726-2.438.941-3.572 1.444-7.197 1.585-10.902 1.232-32.522-46.218-45.109-62.753-15.732-4.144 7.361-5.906 16.024-4.543 24.329.729 4.434 2.282 8.773 4.731 12.554 6.007 9.276 17.763 15.459 28.869 14.275 4.515-.482 4.828-.694 9.036-1.668 1.112-.257 3.946-1.278 5.43-.781 1.039.349 1.264 1.434 1.22 2.399-.054 1.198-.336 1.69-.799 2.836-.461 1.138-1.233 2.374-.303 3.514.207.254.455.479.725.666.36.25.743.476 1.151.636 1.781.698 3.091-.414 4.495-1.355.549-.368 1.018-.916 1.655-1.095.269-.076.5.256.72.426.569.442 1.113.917 1.643 1.405 1.862 1.717 3.722 3.437 5.533 5.207a1695.667 1695.667 0 0 1 32.943 33.082c2.817 2.909 5.493 5.953 8.331 8.842.387.393 1.664.502 1.998.516 3.205.14 4.672.053 7.889-.389.771-.105 2.685-.318 3.036-1.282.327-.899.333-3.064.325-3.521-.041-2.27-.166-4.538-.307-6.803-.043-.695-.77-.746-.852-1.381-.123-.957.218-3.052-.619-3.798-.48-.428-3.654-.379-4.115-.964-.069-.087-1.661-5.987-1.899-6.703-.175-.529-.298-1.104-.643-1.541-.185-.236-.54-.282-.835-.336-.999-.18-2.273.317-2.998-.66-.986-1.33-.048-3.304-1.287-4.522-2.013-1.979-5.462-.829-7.807-2.069-1.005-.531-.996-1.713-1.154-2.657-.21-1.253-.302-2.013-1.378-2.756-2.013-1.391-5.088-.378-6.787-2.338-1.947-2.245-1.37-5.17-2.062-7.83-.339-1.303-1.416-1.607-2.603-1.818-.554-.099-1.544-.007-1.81-.725-.606-1.639-.108-3.429-.508-5.096-.108-.451-.473-.798-.754-1.167-1.684-2.209-6.673-7.71-7.34-8.45-.67-.743 4.959-3.69 1.889-6.758-2.744-2.742-5.93 2.314-6.71 1.462-1.785-1.952-3.254-3.551-3.254-3.551zm-40.726-32.338c5.382 0 9.752 4.226 9.752 9.432s-4.37 9.433-9.752 9.433c-5.382 0-9.752-4.227-9.752-9.433 0-5.206 4.37-9.432 9.752-9.432z" fill="url(#E)" stroke-width="1.7"/><path d="M703.56 402.145l64.927 65.612m-59.186-70.531l65.452 63.951" fill="none" stroke-width="1.45"/></g><g><path d="M1064.8 382.431c-.2-.299.098-.715.19-1.063.214-.821.51-1.618.726-2.438.94-3.572 1.444-7.197 1.584-10.902 1.233-32.522-46.218-45.108-62.753-15.732-4.143 7.362-5.906 16.024-4.542 24.33.728 4.434 2.282 8.772 4.73 12.553 6.008 9.276 17.764 15.46 28.87 14.275 4.514-.482 4.828-.694 9.036-1.668 1.112-.257 3.945-1.278 5.429-.78 1.04.348 1.264 1.433 1.221 2.398-.054 1.198-.336 1.69-.8 2.836-.46 1.139-1.232 2.374-.302 3.514.207.255.455.479.725.666.36.25.743.476 1.151.636 1.781.698 3.091-.414 4.494-1.355.55-.368 1.019-.916 1.656-1.095.268-.076.499.256.72.427.569.441 1.113.916 1.643 1.405 1.862 1.716 3.722 3.436 5.533 5.207a1692.827 1692.827 0 0 1 32.943 33.081c2.817 2.909 5.492 5.953 8.331 8.842.386.394 1.664.502 1.998.516 3.205.14 4.671.053 7.889-.388.771-.106 2.685-.319 3.035-1.283.328-.899.334-3.064.326-3.521-.042-2.27-.166-4.538-.307-6.803-.043-.695-.77-.746-.852-1.38-.124-.958.218-3.052-.619-3.799-.481-.428-3.654-.379-4.115-.964-.069-.087-1.662-5.987-1.899-6.703-.175-.528-.299-1.104-.643-1.541-.186-.236-.54-.282-.835-.335-.999-.18-2.273.316-2.998-.661-.986-1.33-.048-3.304-1.287-4.522-2.013-1.979-5.463-.829-7.807-2.069-1.005-.531-.996-1.713-1.154-2.656-.21-1.254-.303-2.014-1.378-2.757-2.013-1.39-5.089-.377-6.788-2.338-1.946-2.245-1.37-5.17-2.061-7.83-.339-1.303-1.416-1.607-2.603-1.818-.555-.099-1.544-.007-1.81-.725-.606-1.638-.108-3.429-.508-5.096-.108-.45-.474-.798-.754-1.167-1.684-2.209-6.673-7.71-7.34-8.45-.67-.743 4.959-3.69 1.888-6.758-2.743-2.742-5.929 2.315-6.709 1.462-1.785-1.952-3.254-3.551-3.254-3.551zm-40.727-32.338c5.383 0 9.752 4.226 9.752 9.433 0 5.206-4.369 9.432-9.752 9.432-5.382 0-9.751-4.226-9.751-9.432 0-5.207 4.369-9.433 9.751-9.433z" fill="url(#F)" stroke-width="1.7"/><path d="M1046.99 391.906l64.928 65.612m-59.188-70.531l65.452 63.951" fill="none" stroke-width="1.45"/></g></g><defs><radialGradient id="a" cx="0" cy="0" r="1" gradientUnits="userSpaceOnUse" gradientTransform="matrix(82.9315 -35.4543 20.9477 48.9989 27.001 770.747)"><stop offset="0%" stop-color="#d3799a"/><stop offset="100%" stop-color="#c24774"/></radialGradient><radialGradient id="b" cx="0" cy="0" r="1" gradientUnits="userSpaceOnUse" gradientTransform="matrix(107.86 -63.1428 27.2442 87.2652 15.357 721.885)"><stop offset="0%" stop-color="#d3799a"/><stop offset="100%" stop-color="#c24774"/></radialGradient><radialGradient id="c" cx="0" cy="0" r="1" gradientUnits="userSpaceOnUse" gradientTransform="matrix(86.0714 -16.1321 21.7408 22.295 21.74 658.004)"><stop offset="0%" stop-color="#cda3ca"/><stop offset="100%" stop-color="#b87db4"/></radialGradient><radialGradient id="d" cx="0" cy="0" r="1" gradientUnits="userSpaceOnUse" gradientTransform="matrix(108.956 -49.5373 27.5213 68.4619 11.051 599.008)"><stop offset="0%" stop-color="#a75216"/><stop offset="100%" stop-color="#854000"/></radialGradient><radialGradient id="e" cx="0" cy="0" r="1" gradientUnits="userSpaceOnUse" gradientTransform="matrix(98.114 -49.7129 24.7826 68.7047 18.327 635.694)"><stop offset="0%" stop-color="#ffd9b8"/><stop offset="100%" stop-color="#ffcd9e"/></radialGradient><radialGradient id="f" cx="0" cy="0" r="1" gradientUnits="userSpaceOnUse" gradientTransform="matrix(82.9315 -35.4543 20.9477 48.9989 1100.72 770.747)"><stop offset="0%" stop-color="#d3799a"/><stop offset="100%" stop-color="#c24774"/></radialGradient><radialGradient id="g" cx="0" cy="0" r="1" gradientUnits="userSpaceOnUse" gradientTransform="matrix(107.86 -63.1428 27.2442 87.2652 1089.07 721.885)"><stop offset="0%" stop-color="#d3799a"/><stop offset="100%" stop-color="#c24774"/></radialGradient><radialGradient id="h" cx="0" cy="0" r="1" gradientUnits="userSpaceOnUse" gradientTransform="matrix(86.0714 -16.1321 21.7408 22.295 1095.46 658.004)"><stop offset="0%" stop-color="#cda3ca"/><stop offset="100%" stop-color="#b87db4"/></radialGradient><radialGradient id="i" cx="0" cy="0" r="1" gradientUnits="userSpaceOnUse" gradientTransform="matrix(108.956 -49.5373 27.5213 68.4619 1084.77 599.008)"><stop offset="0%" stop-color="#a75216"/><stop offset="100%" stop-color="#854000"/></radialGradient><radialGradient id="j" cx="0" cy="0" r="1" gradientUnits="userSpaceOnUse" gradientTransform="matrix(98.114 -49.7129 24.7826 68.7047 1092.04 635.694)"><stop offset="0%" stop-color="#ffd9b8"/><stop offset="100%" stop-color="#ffcd9e"/></radialGradient><radialGradient id="k" cx="0" cy="0" r="1" gradientUnits="userSpaceOnUse" gradientTransform="matrix(76.935 -72.3686 58.4005 39.6944 345.11 235.299)"><stop offset="0%" stop-color="#2531dc"/><stop offset="100%" stop-color="#969bee"/></radialGradient><radialGradient id="l" cx="0" cy="0" r="1" gradientUnits="userSpaceOnUse" gradientTransform="matrix(125.491 -78.4214 58.276 93.254 352.559 170.388)"><stop offset="0%" stop-color="#2531dc"/><stop offset="100%" stop-color="#969bee"/></radialGradient><linearGradient id="m" x2="1" gradientUnits="userSpaceOnUse" gradientTransform="rotate(-31.346 357.943 -422.965) scale(107.2971)"><stop offset="0%" stop-color="#dbbb9c"/><stop offset="56%" stop-color="#d0a67c"/><stop offset="100%" stop-color="#cb9d6e"/></linearGradient><radialGradient id="n" cx="0" cy="0" r="1" gradientUnits="userSpaceOnUse" gradientTransform="matrix(-91.9863 51.7641 -32.8747 -58.4193 354.567 21.165)"><stop offset="0%" stop-color="#d7c447"/><stop offset="100%" stop-color="#e6d38c"/></radialGradient><radialGradient id="o" cx="0" cy="0" r="1" gradientUnits="userSpaceOnUse" gradientTransform="matrix(76.935 -72.3686 58.4005 39.6944 630.388 1166.34)"><stop offset="0%" stop-color="#2531dc"/><stop offset="100%" stop-color="#969bee"/></radialGradient><radialGradient id="p" cx="0" cy="0" r="1" gradientUnits="userSpaceOnUse" gradientTransform="matrix(125.491 -78.4214 58.276 93.254 637.837 1101.43)"><stop offset="0%" stop-color="#2531dc"/><stop offset="100%" stop-color="#969bee"/></radialGradient><linearGradient id="q" x2="1" gradientUnits="userSpaceOnUse" gradientTransform="rotate(-31.346 2159.783 -465.777) scale(107.2971)"><stop offset="0%" stop-color="#dbbb9c"/><stop offset="56%" stop-color="#d0a67c"/><stop offset="100%" stop-color="#cb9d6e"/></linearGradient><radialGradient id="r" cx="0" cy="0" r="1" gradientUnits="userSpaceOnUse" gradientTransform="matrix(-91.9863 51.7641 -32.8747 -58.4193 639.846 952.211)"><stop offset="0%" stop-color="#d7c447"/><stop offset="100%" stop-color="#e6d38c"/></radialGradient><radialGradient id="s" cx="0" cy="0" r="1" gradientUnits="userSpaceOnUse" gradientTransform="matrix(76.935 -72.3686 58.4005 39.6944 955.451 235.299)"><stop offset="0%" stop-color="#2531dc"/><stop offset="100%" stop-color="#969bee"/></radialGradient><radialGradient id="t" cx="0" cy="0" r="1" gradientUnits="userSpaceOnUse" gradientTransform="matrix(125.491 -78.4214 58.276 93.254 962.9 170.388)"><stop offset="0%" stop-color="#2531dc"/><stop offset="100%" stop-color="#969bee"/></radialGradient><linearGradient id="u" x2="1" gradientUnits="userSpaceOnUse" gradientTransform="rotate(-31.346 663.096 -1510.529) scale(107.2971)"><stop offset="0%" stop-color="#dbbb9c"/><stop offset="56%" stop-color="#d0a67c"/><stop offset="100%" stop-color="#cb9d6e"/></linearGradient><radialGradient id="v" cx="0" cy="0" r="1" gradientUnits="userSpaceOnUse" gradientTransform="matrix(-91.9863 51.7641 -32.8747 -58.4193 964.909 21.165)"><stop offset="0%" stop-color="#d7c447"/><stop offset="100%" stop-color="#e6d38c"/></radialGradient><radialGradient id="w" cx="0" cy="0" r="1" gradientUnits="userSpaceOnUse" gradientTransform="matrix(45.7398 17.42 -17.9021 47.0055 878.704 897.235)"><stop offset="0%" stop-color="gold"/><stop offset="100%" stop-color="#ffee95"/></radialGradient><radialGradient id="x" cx="0" cy="0" r="1" gradientUnits="userSpaceOnUse" gradientTransform="matrix(45.7398 17.42 -17.9021 47.0055 305.484 897.989)"><stop offset="0%" stop-color="gold"/><stop offset="100%" stop-color="#ffee95"/></radialGradient><radialGradient id="y" cx="0" cy="0" r="1" gradientUnits="userSpaceOnUse" gradientTransform="matrix(45.7398 17.42 -17.9021 47.0055 206.716 366.315)"><stop offset="0%" stop-color="gold"/><stop offset="100%" stop-color="#ffee95"/></radialGradient><radialGradient id="z" cx="0" cy="0" r="1" gradientUnits="userSpaceOnUse" gradientTransform="matrix(45.7398 17.42 -17.9021 47.0055 596.196 124.22)"><stop offset="0%" stop-color="gold"/><stop offset="100%" stop-color="#ffee95"/></radialGradient><radialGradient id="A" cx="0" cy="0" r="1" gradientUnits="userSpaceOnUse" gradientTransform="matrix(45.7398 17.42 -17.9021 47.0055 441.318 545.486)"><stop offset="0%" stop-color="gold"/><stop offset="100%" stop-color="#ffee95"/></radialGradient><radialGradient id="B" cx="0" cy="0" r="1" gradientUnits="userSpaceOnUse" gradientTransform="matrix(45.7398 17.42 -17.9021 47.0055 774.199 545.486)"><stop offset="0%" stop-color="gold"/><stop offset="100%" stop-color="#ffee95"/></radialGradient><radialGradient id="C" cx="0" cy="0" r="1" gradientUnits="userSpaceOnUse" gradientTransform="matrix(45.7398 17.42 -17.9021 47.0055 596.196 657.295)"><stop offset="0%" stop-color="gold"/><stop offset="100%" stop-color="#ffee95"/></radialGradient><radialGradient id="D" cx="0" cy="0" r="1" gradientUnits="userSpaceOnUse" gradientTransform="matrix(45.7398 17.42 -17.9021 47.0055 523.524 376.554)"><stop offset="0%" stop-color="gold"/><stop offset="100%" stop-color="#ffee95"/></radialGradient><radialGradient id="E" cx="0" cy="0" r="1" gradientUnits="userSpaceOnUse" gradientTransform="matrix(45.7398 17.42 -17.9021 47.0055 709.528 376.554)"><stop offset="0%" stop-color="gold"/><stop offset="100%" stop-color="#ffee95"/></radialGradient><radialGradient id="F" cx="0" cy="0" r="1" gradientUnits="userSpaceOnUse" gradientTransform="matrix(45.7398 17.42 -17.9021 47.0055 1052.96 366.315)"><stop offset="0%" stop-color="gold"/><stop offset="100%" stop-color="#ffee95"/></radialGradient></defs></svg>