<svg viewBox="0 0 600 400" xmlns="http://www.w3.org/2000/svg" fill-rule="evenodd" clip-rule="evenodd" stroke-linecap="round" stroke-linejoin="round" stroke-miterlimit="1.414"><path d="M356.969 31.584h17.691l6.948 23.908 14.791 6.203 19.432-16.128 14.211 12.383-7.541 23.595 7.831 12.096 25.232.31 5.22 17.059-19.721 14.887.021 14.888 20.012 15.174-5.511 17.059-24.362-.31-9.259 13.026 7.831 23.882-14.211 11.476-20.604-15.221-13.909 4.676-7.25 23.882-18.561.62-6.381-24.192-14.791-5.273-19.431 15.21-14.501-11.488 8.12-24.192-8.12-12.135h-25.232l-5.22-17.679 20.011-14.267v-15.818l-19.721-14.887 4.93-17.059 24.737.944 9.57-14.267-8.41-23.572 15.081-10.855 19.141 15.841 15.081-5.583 6.845-24.193zm8.605 53.603c25.21 0 45.678 21.889 45.678 48.85 0 26.96-20.468 48.849-45.678 48.849-25.211 0-45.679-21.889-45.679-48.849 0-26.961 20.468-48.85 45.679-48.85z" fill="url(#a)" stroke="#000" stroke-width="7"/><path d="M226.17 164.951h17.691l6.948 23.908 14.791 6.203 19.432-16.128 14.211 12.383-7.541 23.595 7.831 12.096 25.231.31 5.221 17.059-19.722 14.887.022 14.888 20.011 15.174-5.51 17.059-24.362-.311-9.259 13.027 7.831 23.882-14.211 11.476-20.604-15.221-13.909 4.675-7.25 23.882-18.562.621-6.38-24.192-14.791-5.273-19.431 15.21-14.501-11.488 8.12-24.192-8.12-12.135h-25.232l-5.221-17.679 20.012-14.267v-15.818l-19.722-14.887 4.931-17.059 24.736.944 9.571-14.267-8.41-23.572 15.081-10.856 19.141 15.841 15.081-5.582 6.845-24.193zm8.604 53.603c25.211 0 45.679 21.888 45.679 48.849 0 26.961-20.468 48.85-45.679 48.85-25.21 0-45.678-21.889-45.678-48.85 0-26.961 20.468-48.849 45.678-48.849z" fill="url(#b)" stroke="#000" stroke-width="7"/><path d="M11.555 157.725l-.361 87.468 401.291-16.085.104 88.887L588.806 198.94 411.773 82.005l.18 92.233-400.398-16.513z" fill="url(#c)"/><path d="M413.33 75.181l2.301.983 177.033 116.935 1.673 1.55 1.085 2.006.384 2.248-.36 2.252-1.065 2.017-1.656 1.568-176.218 119.055-2.298 1.01-2.508.133-2.393-.759-1.971-1.556-1.295-2.15-.453-2.47-.096-81.61-394.018 15.794-2.235-.272-2.033-.968-1.62-1.563-1.04-1.997-.353-2.223.361-87.468.368-2.211 1.048-1.981 1.621-1.548 2.026-.957 2.226-.268 393.095 16.211-.166-84.923.443-2.463 1.28-2.15 1.955-1.562 2.38-.775 2.499.112zm-1.377 99.057L11.555 157.725l-.361 87.468 401.291-16.085.104 88.887L588.806 198.94 411.773 82.005l.18 92.233z" fill-opacity=".8"/><defs><radialGradient id="a" cx="0" cy="0" r="1" gradientUnits="userSpaceOnUse" gradientTransform="matrix(-79.8232 82.5224 -123.145 -136.23 283.324 220.78)"><stop offset="0%" stop-color="#cfcfcf"/><stop offset="100%" stop-color="#737373"/></radialGradient><radialGradient id="b" cx="0" cy="0" r="1" gradientUnits="userSpaceOnUse" gradientTransform="matrix(-98.107 86.5544 -129.162 -167.434 286.975 217.837)"><stop offset="0%" stop-color="#cfcfcf"/><stop offset="100%" stop-color="#737373"/></radialGradient><radialGradient id="c" cx="0" cy="0" r="1" gradientUnits="userSpaceOnUse" gradientTransform="matrix(798.713 -.29644 .29248 117.995 9.425 201.549)"><stop offset="0%" stop-color="#fff" stop-opacity=".8"/><stop offset="49%" stop-color="#e3f0e4" stop-opacity=".8"/><stop offset="100%" stop-color="#8ec592" stop-opacity=".8"/></radialGradient></defs></svg>