<svg viewBox="0 0 300 300" xmlns="http://www.w3.org/2000/svg" fill-rule="evenodd" clip-rule="evenodd" stroke-linecap="round" stroke-linejoin="round" stroke-miterlimit="1.414"><g stroke="#000" stroke-width="3.5"><path d="M199.695 13.164h15.391l6.045 19.449 12.868 5.047 16.904-13.121 12.364 10.074-6.56 19.195 6.812 9.84 21.951.252 4.542 13.877-17.157 12.111.018 12.111 17.41 12.345-4.794 13.877-21.194-.252-8.056 10.597 6.813 19.428-12.363 9.336-17.925-12.382-12.101 3.803-6.307 19.428-16.148.505-5.551-19.681-12.868-4.289-16.905 12.373-12.616-9.345 7.065-19.681-7.065-9.871h-21.951l-4.542-14.382 17.41-11.607V89.334l-17.157-12.111 4.289-13.878 21.52.768 8.327-11.606-7.317-19.176 13.12-8.831 16.653 12.887 13.12-4.542 5.955-19.681zm7.485 43.606c21.933 0 39.74 17.807 39.74 39.74 0 21.932-17.807 39.739-39.74 39.739-21.932 0-39.739-17.807-39.739-39.739 0-21.933 17.807-39.74 39.739-39.74z" fill="url(#a)"/><path d="M85.902 121.659h15.391l6.044 19.449 12.868 5.046 16.905-13.12 12.364 10.074-6.56 19.194 6.812 9.84 21.951.253 4.542 13.877-17.157 12.111.018 12.111 17.41 12.345-4.794 13.877-21.194-.253-8.056 10.598 6.813 19.428-12.363 9.335-17.926-12.382-12.1 3.804-6.308 19.428-16.148.504-5.55-19.68-12.868-4.289-16.905 12.373-12.616-9.346 7.065-19.68-7.065-9.872H14.524l-4.542-14.382 17.41-11.606v-12.868l-17.158-12.111 4.29-13.877 21.52.768 8.327-11.607-7.317-19.176 13.12-8.83 16.652 12.886 13.121-4.541 5.955-19.681zm7.485 43.606c21.933 0 39.74 17.807 39.74 39.739 0 21.933-17.807 39.739-39.74 39.739-21.932 0-39.739-17.806-39.739-39.739 0-21.932 17.807-39.739 39.739-39.739z" fill="url(#b)"/></g><defs><radialGradient id="a" cx="0" cy="0" r="1" gradientUnits="userSpaceOnUse" gradientTransform="matrix(-69.4449 67.1324 -107.134 -110.824 135.625 167.076)"><stop offset="0%" stop-color="#cfcfcf"/><stop offset="100%" stop-color="#737373"/></radialGradient><radialGradient id="b" cx="0" cy="0" r="1" gradientUnits="userSpaceOnUse" gradientTransform="matrix(-85.3514 70.4125 -112.368 -136.209 138.801 164.682)"><stop offset="0%" stop-color="#cfcfcf"/><stop offset="100%" stop-color="#737373"/></radialGradient></defs></svg>