<svg viewBox="0 0 300 300" xmlns="http://www.w3.org/2000/svg" fill-rule="evenodd" clip-rule="evenodd" stroke-linecap="round" stroke-linejoin="round" stroke-miterlimit="1.414"><path d="M166.585 121.757c-.412-.618.203-1.476.391-2.195.443-1.693 1.055-3.339 1.5-5.031 1.941-7.373 2.981-14.856 3.27-22.502C174.291 24.901 76.349-1.078 42.22 59.556c-8.553 15.195-12.19 33.075-9.375 50.218 1.502 9.152 4.709 18.107 9.763 25.911 12.4 19.147 36.665 31.91 59.589 29.465 9.318-.994 9.965-1.433 18.651-3.443 2.295-.531 8.143-2.638 11.206-1.611 2.146.719 2.609 2.959 2.52 4.951-.111 2.472-.694 3.488-1.651 5.854-.95 2.349-2.543 4.899-.625 7.253.428.525.94.989 1.497 1.375.743.515 1.534.981 2.376 1.311 3.675 1.442 6.38-.854 9.277-2.795 1.135-.76 2.102-1.891 3.417-2.261.554-.156 1.031.528 1.486.88a52.859 52.859 0 0 1 3.391 2.9c3.844 3.542 7.683 7.093 11.421 10.748 23.285 22.77 45.331 44.88 67.996 68.282 5.815 6.004 11.337 12.288 17.195 18.25.799.813 3.436 1.037 4.125 1.067 6.616.288 9.642.108 16.283-.803 1.592-.218 5.542-.658 6.266-2.647.676-1.856.689-6.325.671-7.268-.085-4.685-.343-9.366-.633-14.043-.089-1.433-1.589-1.539-1.758-2.848-.255-1.977.449-6.3-1.279-7.84-.991-.884-7.542-.783-8.493-1.99-.142-.181-3.429-12.358-3.919-13.836-.361-1.091-.616-2.278-1.327-3.18-.384-.487-1.115-.583-1.724-.693-2.063-.371-4.691.654-6.188-1.364-2.035-2.745-.099-6.819-2.657-9.334-4.154-4.084-11.275-1.71-16.113-4.269-2.075-1.097-2.057-3.537-2.383-5.484-.433-2.586-.624-4.155-2.844-5.689-4.154-2.87-10.503-.779-14.01-4.826-4.017-4.635-2.828-10.671-4.255-16.162-.7-2.689-2.922-3.316-5.373-3.753-1.144-.204-3.187-.014-3.735-1.495-1.252-3.383-.224-7.079-1.049-10.519-.222-.93-.977-1.648-1.557-2.408-3.476-4.561-13.773-15.915-15.15-17.442-1.382-1.534 10.236-7.616 3.898-13.95-5.663-5.659-12.238 4.778-13.848 3.018-3.685-4.028-6.717-7.329-6.717-7.329zM82.523 55.009c11.109 0 20.129 8.724 20.129 19.47 0 10.745-9.02 19.47-20.129 19.47-11.109 0-20.128-8.725-20.128-19.47 0-10.746 9.019-19.47 20.128-19.47z" fill="url(#a)" stroke="#000" stroke-width="3.5"/><text x="241.595" y="464.449" font-family="Helvetica" font-size="20.065" fill="none" transform="rotate(-43.164 -1153.631 1570.072) scale(3.00606)">AM</text><text x="241.595" y="464.449" font-family="Helvetica" font-size="20.065" fill="#fff" transform="rotate(-43.164 -1153.631 1570.072) scale(3.00606)">AM</text><path d="M86.476 105.885l.252.018.248.036.247.057.24.071.235.089.231.105 41.044 20.82.219.12.208.134.198.148.188.166.173.176.164.188.147.2.135.21.119.22.103.224.086.232.07.24.053.243.035.247.017.248-.001.249-.017.246-.035.247-.053.243-.069.238-.086.234-.103.228-.118.218-.136.21-.147.2-.163.186-.176.177-4.684 4.392-.192.169-.205.155-.215.135-.225.125-.233.103-.241.09-.247.07-.25.05-.252.035-.258.015-.255-.004-.257-.023-.252-.04-.249-.06-.244-.08-.237-.094-.233-.112-9.852-5.267-8.858 8.308 4.48 10.401.09.233.075.242.056.245.039.247.021.252.003.253-.017.25-.033.25-.05.246-.07.242-.086.238-.101.23-.122.222-.135.212-.149.202-.165.192-.178.18-4.381 4.108-.188.165-.2.15-.21.138-.22.12-.227.106-.234.089-.24.068-.245.056-.248.035-.25.02-.248-.002-.25-.017-.248-.035-.245-.05-.24-.072-.234-.086-.228-.103-.22-.12-.21-.136-.202-.15-.19-.163-.175-.178-.164-.188-.151-.2-.136-.211-.118-.219-.106-.226-17.716-42.698-.088-.235-.071-.238-.052-.244-.037-.246-.017-.247v-.251l.018-.248.033-.246.053-.247.069-.238.086-.234.105-.226.116-.22.136-.21.147-.2.163-.19.178-.175 4.833-4.532.19-.166.2-.151.211-.136.22-.123.23-.105.235-.088.242-.071.247-.054.247-.034.252-.018h.25zm-4.964 8.03l17.716 42.698 4.381-4.108-5.449-12.657 12.48-11.705 12.067 6.45 4.683-4.392-41.045-20.818-4.833 4.532zm24.49 12.038l-9.88 9.266-7.983-18.716 17.863 9.45zm-8.625 3.292l2.655-2.49-4.801-2.54 2.146 5.03z"/><path d="M132.076 63.24l.29.033.281.058.28.08.27.102.261.125.249.146.237.165.224.186.206.202 29.596 31.557.188.218.171.235.15.248.13.257.108.27.085.274.061.285.04.284.014.292-.01.289-.032.286-.056.283-.081.278-.104.271-.124.26-.144.25-.169.238-.184.221-.202.206-4.06 3.809-.22.189-.234.17-.246.152-.259.128-.27.108-.274.085-.283.063-.286.038-.288.014-.29-.007-.289-.035-.283-.056-.278-.08-.27-.103-.261-.125-.25-.145-.236-.167-.223-.185-.206-.203-10.171-10.844 6.993 15.362.105.252.08.258.065.265.042.27.019.27v.273l-.022.271-.04.269-.064.266-.083.259-.104.25-.122.242-.14.234-.16.22-.174.21-.194.193-4.232 3.97-.203.178-.22.16-.23.146-.24.127-.25.106-.258.086-.264.066-.265.047-.273.025-.273.004-.27-.015-.268-.04-.264-.058-.263-.079-.25-.1-.247-.118-14.97-7.968 10.21 10.887.189.218.17.236.15.247.13.257.109.27.084.274.062.285.04.284.013.292-.009.289-.032.286-.056.283-.082.278-.104.271-.123.26-.144.25-.17.238-.183.221-.202.207-4.083 3.829-.219.188-.233.17-.247.153-.26.128-.267.106-.277.087-.282.063-.287.038-.287.014-.29-.01-.29-.032-.28-.058-.28-.08-.27-.101-.261-.126-.249-.146-.237-.165-.224-.186-.206-.202-29.596-31.556-.188-.219-.171-.235-.15-.247-.13-.257-.108-.27-.085-.275-.061-.285-.04-.284-.014-.291.01-.29.032-.285.056-.284.081-.278.104-.27.124-.26.144-.251.167-.24.186-.219.202-.206 6.124-5.744.203-.178.22-.161.228-.144.242-.128.25-.107.259-.085.263-.066.268-.049.27-.023.273-.004.271.017.27.036.265.06.26.078.254.1.243.118 24.966 13.314-11.73-25.716-.105-.252-.083-.26-.064-.265-.04-.268-.023-.27v-.273l.022-.271.042-.271.062-.264.085-.26.104-.25.122-.243.142-.236.158-.218.174-.21.194-.193 6.058-5.682.219-.189.23-.171.25-.152.26-.127.266-.107.278-.086.282-.064.287-.037.287-.014.289.009zm-6.313 9.173l16.022 35.121-34.087-18.178-6.124 5.743 29.596 31.556 4.083-3.829-17.467-18.624-.284-.298-.319-.336-.358-.373-.395-.412-.437-.448-.473-.487-.513-.525-.55-.56-.55-.564-.514-.527-.478-.488-.439-.454-.403-.417-.366-.382-.327-.344-.29-.31-.907-.966 34.027 18.115 4.232-3.969L132.48 75.4l.594.634.584.627.573.616.56.61.552.597.538.592.53.583.52.571.495.55.458.506.425.466.387.425.353.386.314.344.282.305.245.26 17.467 18.625 4.06-3.809-29.595-31.556-6.059 5.682z"/><path d="M129.829 141.314l134.015 135.427M141.68 131.161L276.777 263.16" fill="none" stroke="#000" stroke-width="3"/><defs><radialGradient id="a" cx="0" cy="0" r="1" gradientUnits="userSpaceOnUse" gradientTransform="matrix(94.4098 35.956 -36.951 97.0224 142.149 88.492)"><stop offset="0%" stop-color="gold"/><stop offset="100%" stop-color="#ffee95"/></radialGradient></defs></svg>