<svg viewBox="0 0 300 300" xmlns="http://www.w3.org/2000/svg" fill-rule="evenodd" clip-rule="evenodd" stroke-linecap="round" stroke-linejoin="round" stroke-miterlimit="1.414"><path d="M168.057 120.019c-.412-.618.203-1.476.392-2.194.443-1.694 1.054-3.34 1.499-5.032 1.941-7.373 2.981-14.855 3.27-22.502 2.545-67.128-95.397-93.107-129.526-32.472-8.553 15.194-12.19 33.074-9.375 50.218 1.502 9.152 4.709 18.107 9.763 25.91 12.4 19.147 36.665 31.91 59.589 29.465 9.318-.994 9.965-1.433 18.651-3.443 2.295-.531 8.143-2.637 11.206-1.611 2.146.719 2.609 2.96 2.52 4.951-.111 2.472-.694 3.489-1.651 5.854-.95 2.35-2.543 4.9-.625 7.253.428.525.94.989 1.497 1.375.743.516 1.534.981 2.376 1.312 3.676 1.441 6.38-.854 9.277-2.796 1.135-.76 2.103-1.891 3.417-2.261.554-.156 1.031.528 1.486.881a52.843 52.843 0 0 1 3.391 2.899c3.844 3.543 7.683 7.093 11.421 10.748 23.285 22.771 45.331 44.88 67.996 68.283 5.815 6.003 11.338 12.288 17.196 18.249.798.813 3.435 1.037 4.125 1.067 6.615.288 9.641.108 16.282-.803 1.592-.218 5.543-.657 6.266-2.646.676-1.857.689-6.325.671-7.269-.085-4.684-.94-28.259-2.394-28.758-3.925-1.344-12.034-4.188-12.524-5.667-.361-1.09-1.78-8.41-2.491-9.312-.384-.487-1.115-.583-1.724-.692-2.063-.372-4.691.653-6.187-1.364-2.036-2.746-3.176-12.969-5.968-17.678-3.238-5.461-19.604-3.289-21.824-4.823-4.154-2.87 1.426-12.355-2.081-16.401-4.017-4.635-10.963-1.372-12.39-6.862-.699-2.689 1.043-7.551.494-9.032-1.252-3.382-9.826-3.296-10.651-6.736-.222-.929-.977-1.648-1.557-2.408-3.476-4.561-13.773-15.915-15.15-17.442-1.382-1.534 10.236-7.616 3.898-13.949-5.663-5.66-12.238 4.777-13.848 3.017-3.685-4.027-6.717-7.329-6.717-7.329zM83.995 53.271c11.109 0 20.129 8.724 20.129 19.47 0 10.746-9.02 19.47-20.129 19.47-11.109 0-20.128-8.724-20.128-19.47 0-10.746 9.019-19.47 20.128-19.47z" fill="url(#a)" stroke="#000" stroke-width="3.5"/><path d="M129.829 141.314l133.618 135.101M141.68 131.161l137.706 136.374" fill="none" stroke="#000" stroke-width="3"/><text x="241.595" y="464.449" font-family="Helvetica" font-size="20.065" fill="none" transform="rotate(-43.164 -1165.957 1538.065) scale(3.00606)">A</text><text x="241.595" y="464.449" font-family="Helvetica" font-size="20.065" fill="#fff" transform="rotate(-43.164 -1165.957 1538.065) scale(3.00606)">A</text><path d="M105.036 88.792l.252.018.248.036.247.057.24.071.235.089.231.105 41.044 20.82.219.12.208.134.198.148.188.166.173.176.164.188.147.2.135.21.119.22.103.224.086.232.07.24.053.243.035.247.017.248-.001.249-.017.246-.035.247-.053.243-.069.238-.086.234-.103.228-.118.218-.136.21-.147.2-.163.186-.176.177-4.684 4.392-.192.169-.205.155-.215.135-.225.125-.233.103-.241.09-.247.07-.25.05-.252.035-.258.015-.255-.004-.257-.023-.252-.04-.249-.06-.244-.08-.237-.094-.233-.112-9.852-5.267-8.858 8.308 4.48 10.401.09.233.075.242.056.245.039.247.021.252.003.253-.017.25-.033.25-.05.246-.07.242-.086.238-.101.23-.122.222-.135.212-.149.202-.165.192-.178.18-4.381 4.108-.188.165-.2.15-.21.138-.22.12-.227.106-.234.089-.24.068-.245.056-.248.035-.25.02-.248-.002-.25-.017-.248-.035-.245-.05-.24-.072-.234-.086-.228-.103-.22-.12-.21-.136-.202-.15-.19-.163-.175-.178-.164-.188-.151-.2-.136-.211-.118-.219-.106-.226L96.84 98.165l-.088-.235-.071-.238-.052-.244-.037-.246-.017-.247v-.251l.018-.248.033-.246.053-.247.069-.238.086-.234.105-.226.116-.22.136-.21.147-.2.163-.19.178-.175 4.833-4.532.19-.166.2-.151.211-.136.22-.123.23-.105.235-.088.242-.071.247-.054.247-.034.252-.018h.25zm-4.964 8.03l17.716 42.698 4.381-4.108-5.449-12.657 12.48-11.705 12.067 6.45 4.683-4.392-41.045-20.818-4.833 4.532zm24.49 12.038l-9.88 9.266L106.7 99.41l17.863 9.45zm-8.625 3.292l2.655-2.49-4.801-2.54 2.146 5.03z"/><defs><radialGradient id="a" cx="0" cy="0" r="1" gradientUnits="userSpaceOnUse" gradientTransform="matrix(94.4098 35.956 -36.951 97.0224 143.621 86.755)"><stop offset="0%" stop-color="#2708a0"/><stop offset="100%" stop-color="#c2b3ff"/></radialGradient></defs></svg>