<svg viewBox="0 0 300 300" xmlns="http://www.w3.org/2000/svg" fill-rule="evenodd" clip-rule="evenodd" stroke-linecap="round" stroke-linejoin="round" stroke-miterlimit="1.414"><path d="M166.585 121.757c-.412-.618.203-1.476.391-2.195.443-1.693 1.055-3.339 1.5-5.031 1.941-7.373 2.981-14.856 3.27-22.502C174.291 24.901 76.349-1.078 42.22 59.556c-8.553 15.195-12.19 33.075-9.375 50.218 1.502 9.152 4.709 18.107 9.763 25.911 12.4 19.147 36.665 31.91 59.589 29.465 9.318-.994 9.965-1.433 18.651-3.443 2.295-.531 8.143-2.638 11.206-1.611 2.146.719 2.609 2.959 2.52 4.951-.111 2.472-.694 3.488-1.651 5.854-.95 2.349-2.543 4.899-.625 7.253.428.525.94.989 1.497 1.375.743.515 1.534.981 2.376 1.311 3.675 1.442 6.38-.854 9.277-2.795 1.135-.76 2.102-1.891 3.417-2.261.554-.156 1.031.528 1.486.88a52.859 52.859 0 0 1 3.391 2.9c3.844 3.542 7.683 7.093 11.421 10.748 23.285 22.77 45.331 44.88 67.996 68.282 5.815 6.004 11.337 12.288 17.195 18.25.799.813 3.436 1.037 4.125 1.067 6.616.288 9.642.108 16.283-.803 1.592-.218 5.542-.658 6.266-2.647.676-1.856.689-6.325.671-7.268-.085-4.685-.786-22.944-3.088-24.731-2.638-2.049-8.649-.743-9.824-3.301-2.268-4.938.691-11.386-1.901-13.592-2.692-2.291-11.379-2.744-12.875-4.761-2.036-2.746-.569-7.006-3.127-9.521-4.154-4.084-8.438-.932-13.276-3.491-2.075-1.097-.97-11.967-3.19-13.501-4.155-2.87-11.671 1.067-15.298-2.872-1.99-2.162-.93-12.986-1.513-15.226-.699-2.689-11.76-6.637-12.308-8.118-1.252-3.382-.515-4.771-1.34-8.211-.222-.93-.977-1.648-1.557-2.408-3.476-4.561-13.773-15.915-15.15-17.442-1.382-1.534 10.236-7.616 3.898-13.95-5.663-5.659-12.238 4.778-13.848 3.018-3.685-4.028-6.717-7.329-6.717-7.329zM82.523 55.009c11.109 0 20.129 8.724 20.129 19.47 0 10.745-9.02 19.47-20.129 19.47-11.109 0-20.128-8.725-20.128-19.47 0-10.746 9.019-19.47 20.128-19.47z" fill="url(#a)" stroke="#000" stroke-width="3.5"/><path d="M129.829 141.314l134.015 135.427M141.68 131.161L276.777 263.16" fill="none" stroke="#000" stroke-width="3"/><path d="M76.207 132.633l6.239-5.85c1.232-1.156 2.552-1.742 3.96-1.755 1.406-.013 2.701.61 3.881 1.868 1.016 1.084 1.563 2.34 1.64 3.774.081 1.435-.58 2.806-1.976 4.115l-4.36 4.09 5.498 5.862-1.878 1.76-13.004-13.864zm9.112-4.962c-.597.195-1.26.632-1.983 1.31l-3.737 3.505 4.505 4.804 3.737-3.505c.844-.79 1.358-1.612 1.55-2.464.19-.85-.142-1.729-.993-2.636-.955-1.018-1.982-1.356-3.08-1.014zM90.96 118.798l8.037 8.57c.944 1.007 1.916 1.667 2.92 1.98 1.504.482 2.92.1 4.248-1.146 1.592-1.493 2.164-3.051 1.715-4.677-.246-.882-.839-1.823-1.776-2.823l-8.038-8.57 1.905-1.786 7.303 7.786c1.599 1.705 2.6 3.232 3.002 4.582.726 2.465-.08 4.792-2.42 6.988-2.342 2.196-4.715 2.85-7.12 1.96-1.322-.487-2.781-1.585-4.38-3.29l-7.303-7.786 1.906-1.788zM113.586 108.594c.793-.743 1.305-1.432 1.54-2.066.367-.993.13-1.942-.714-2.842-.851-.907-1.791-1.17-2.824-.796-.578.215-1.278.703-2.095 1.47l-3.352 3.144 4.028 4.295 3.417-3.205zm6.633 5.805c1.15-1.08 1.66-2.182 1.526-3.31-.087-.711-.411-1.367-.97-1.963-.945-1.007-2.04-1.271-3.28-.79-.663.251-1.386.748-2.173 1.486l-3.728 3.497 4.576 4.878 4.05-3.798zm-17.387-6.737l5.954-5.584c1.624-1.523 3.235-2.121 4.829-1.795.938.195 1.759.666 2.461 1.415.82.874 1.245 1.826 1.273 2.85.02.54-.097 1.158-.352 1.858.965-.395 1.782-.591 2.453-.582 1.192.02 2.283.561 3.28 1.625.84.894 1.318 1.965 1.436 3.214.177 1.867-.646 3.657-2.47 5.368l-5.86 5.496-13.004-13.865zM115.772 95.527l1.877-1.761 11.454 12.212 7.022-6.585 1.55 1.652-8.9 8.346-13.003-13.864zM126.946 85.046l1.898-1.78 13.003 13.865-1.897 1.78zM142.768 72.107c1.836.017 3.36.563 4.57 1.638l-1.83 1.717c-1.048-.699-2.124-1.019-3.233-.96-1.11.059-2.225.615-3.345 1.665-1.365 1.28-2.018 2.795-1.958 4.543.06 1.747 1.02 3.611 2.878 5.592 1.522 1.623 3.136 2.587 4.842 2.883 1.706.3 3.31-.255 4.813-1.665 1.385-1.3 1.94-2.82 1.666-4.562-.141-.92-.546-1.924-1.213-3.013l1.832-1.719c1.205 1.613 1.811 3.345 1.82 5.194.014 2.222-.914 4.21-2.782 5.962-1.612 1.512-3.422 2.293-5.431 2.343-2.65.063-5.238-1.254-7.763-3.946-1.918-2.045-2.951-4.229-3.096-6.553-.162-2.52.784-4.746 2.841-6.676 1.754-1.645 3.552-2.46 5.389-2.443z" fill="none"/><path d="M76.207 132.633l6.239-5.85c1.232-1.156 2.552-1.742 3.96-1.755 1.406-.013 2.701.61 3.881 1.868 1.016 1.084 1.563 2.34 1.64 3.774.081 1.435-.58 2.806-1.976 4.115l-4.36 4.09 5.498 5.862-1.878 1.76-13.004-13.864zm9.112-4.962c-.597.195-1.26.632-1.983 1.31l-3.737 3.505 4.505 4.804 3.737-3.505c.844-.79 1.358-1.612 1.55-2.464.19-.85-.142-1.729-.993-2.636-.955-1.018-1.982-1.356-3.08-1.014zM90.96 118.798l8.037 8.57c.944 1.007 1.916 1.667 2.92 1.98 1.504.482 2.92.1 4.248-1.146 1.592-1.493 2.164-3.051 1.715-4.677-.246-.882-.839-1.823-1.776-2.823l-8.038-8.57 1.905-1.786 7.303 7.786c1.599 1.705 2.6 3.232 3.002 4.582.726 2.465-.08 4.792-2.42 6.988-2.342 2.196-4.715 2.85-7.12 1.96-1.322-.487-2.781-1.585-4.38-3.29l-7.303-7.786 1.906-1.788zM113.586 108.594c.793-.743 1.305-1.432 1.54-2.066.367-.993.13-1.942-.714-2.842-.851-.907-1.791-1.17-2.824-.796-.578.215-1.278.703-2.095 1.47l-3.352 3.144 4.028 4.295 3.417-3.205zm6.633 5.805c1.15-1.08 1.66-2.182 1.526-3.31-.087-.711-.411-1.367-.97-1.963-.945-1.007-2.04-1.271-3.28-.79-.663.251-1.386.748-2.173 1.486l-3.728 3.497 4.576 4.878 4.05-3.798zm-17.387-6.737l5.954-5.584c1.624-1.523 3.235-2.121 4.829-1.795.938.195 1.759.666 2.461 1.415.82.874 1.245 1.826 1.273 2.85.02.54-.097 1.158-.352 1.858.965-.395 1.782-.591 2.453-.582 1.192.02 2.283.561 3.28 1.625.84.894 1.318 1.965 1.436 3.214.177 1.867-.646 3.657-2.47 5.368l-5.86 5.496-13.004-13.865zM115.772 95.527l1.877-1.761 11.454 12.212 7.022-6.585 1.55 1.652-8.9 8.346-13.003-13.864zM126.946 85.046l1.898-1.78 13.003 13.865-1.897 1.78zM142.768 72.107c1.836.017 3.36.563 4.57 1.638l-1.83 1.717c-1.048-.699-2.124-1.019-3.233-.96-1.11.059-2.225.615-3.345 1.665-1.365 1.28-2.018 2.795-1.958 4.543.06 1.747 1.02 3.611 2.878 5.592 1.522 1.623 3.136 2.587 4.842 2.883 1.706.3 3.31-.255 4.813-1.665 1.385-1.3 1.94-2.82 1.666-4.562-.141-.92-.546-1.924-1.213-3.013l1.832-1.719c1.205 1.613 1.811 3.345 1.82 5.194.014 2.222-.914 4.21-2.782 5.962-1.612 1.512-3.422 2.293-5.431 2.343-2.65.063-5.238-1.254-7.763-3.946-1.918-2.045-2.951-4.229-3.096-6.553-.162-2.52.784-4.746 2.841-6.676 1.754-1.645 3.552-2.46 5.389-2.443z" fill="#fff" fill-rule="nonzero"/><path d="M86.575 123.03l.095.002.095.003.093.005.093.008.095.007.092.01.095.01.093.012.093.015.093.012.09.017.096.017.09.02.093.02.091.02.091.024.091.024.091.024.09.028.09.026.09.03.088.032.09.03.086.033.09.035.086.036.088.037.084.038.087.038.087.041.083.042.085.043.083.041.083.045.083.049.082.047.081.046.081.05.082.05.079.053.08.052.079.055.077.054.08.055.076.055.075.06.076.058.077.06.076.06.074.06.074.064.072.062.073.064.072.066.072.066.074.068.07.067.068.07.072.069.068.069.069.072.071.077.12.127.117.132.114.136.11.136.11.14.105.14.101.141.1.146.095.146.092.15.09.148.084.153.083.154.078.156.076.158.071.159.067.159.064.162.06.163.056.165.053.166.048.167.045.17.042.168.037.17.035.173.03.17.026.173.023.174.017.175.018.175.012.173.003.103.003.097.002.1v.099l-.001.1-.004.1-.006.098-.007.098-.007.099-.01.098-.012.1-.014.098-.013.099-.016.096-.017.098-.02.098-.02.097-.024.098-.023.096-.026.096-.027.094-.028.095-.03.096-.03.094-.035.094-.033.092-.037.093-.036.092-.039.094-.04.089-.04.092-.045.09-.043.088-.045.09-.047.089-.047.088-.049.087-.05.088-.05.085-.053.087-.053.084-.056.087-.056.082-.057.085-.059.083-.06.082-.06.081-.06.081-.065.081-.064.08-.064.082-.066.079-.066.079-.068.077-.07.079-.07.077-.072.077-.071.077-.073.075-.075.077-.075.073-.076.076-.077.075-.074.07-2.905 2.724 4.13 4.402.084.098.081.105.073.11.065.113.058.116.049.122.043.123.033.126.026.13.019.129.006.13v.13l-.008.131-.015.13-.027.128-.034.127-.04.124-.052.12-.057.118-.065.113-.072.109-.08.105-.087.1-.092.091-1.877 1.761-.1.087-.103.08-.11.072-.113.065-.116.058-.124.05-.12.043-.129.034-.128.024-.129.02-.132.007h-.13l-.131-.008-.128-.016-.13-.026-.126-.036-.124-.04-.121-.05-.117-.059-.114-.063-.109-.073-.103-.08-.1-.088-.092-.091-13.003-13.865-.085-.098-.081-.105-.073-.106-.067-.115-.056-.118-.05-.12-.042-.125-.033-.126-.028-.128-.015-.13-.01-.13v-.13l.008-.13.017-.132.027-.128.032-.126.043-.126.05-.118.058-.12.065-.112.072-.109.08-.105.086-.098.094-.092 6.244-5.855.134-.127.145-.129.145-.122.147-.12.148-.12.149-.11.077-.06.076-.054.078-.056.077-.052.078-.052.077-.052.08-.05.077-.05.08-.048.08-.047.079-.046.08-.046.081-.045.081-.045.083-.043.082-.04.082-.043.083-.04.084-.037.084-.038.084-.038.084-.034.084-.034.087-.035.086-.032.084-.031.087-.03.088-.028.087-.03.085-.026.09-.025.088-.026.087-.023.09-.022.088-.022.09-.02.088-.02.09-.017.09-.016.09-.015.09-.017.09-.012.09-.01.09-.013.09-.01.093-.007.092-.008.09-.006.091-.004.09-.006h.092l.094-.002.091-.001.094.001zm-.168 1.998l-.067.002-.066.003-.067.001-.065.003-.064.005-.067.005-.063.005-.066.007-.064.009-.065.01-.064.008-.065.01-.066.01-.064.013-.064.012-.062.014-.064.015-.064.016-.064.016-.064.015-.064.02-.062.017-.062.02-.065.02-.062.02-.064.023-.06.023-.063.024-.063.025-.062.024-.063.028-.06.027-.063.028-.063.027-.06.03-.062.03-.062.032-.06.031-.06.033-.062.034-.062.035-.06.035-.06.037-.062.037-.06.038-.059.039-.06.038-.06.04-.06.043-.06.042-.059.042-.06.042-.119.092-.117.093-.118.097-.116.098-.116.106-.116.105-6.239 5.851 13.004 13.865 1.878-1.761-5.498-5.862 4.36-4.09.066-.061.063-.06.064-.063.062-.061.058-.062.062-.061.057-.064.058-.061.055-.062.057-.064.053-.06.053-.063.053-.064.052-.061.048-.062.05-.064.047-.062.046-.064.046-.063.045-.062.042-.064.043-.064.04-.062.04-.064.039-.064.039-.064.037-.063.036-.064.033-.066.034-.062.032-.064.032-.064.03-.066.03-.063.027-.066.029-.064.025-.065.025-.064.025-.065.023-.066.022-.064.02-.067.02-.063.017-.068.018-.064.014-.065.017-.067.014-.064.013-.067.013-.067.01-.064.01-.067.009-.067.007-.065.006-.067.007-.065.004-.068.004-.065.002-.067v-.066l.001-.068-.001-.067-.002-.067-.005-.068-.008-.132-.011-.133-.014-.134-.018-.13-.02-.129-.022-.129-.024-.128-.03-.126-.029-.126-.034-.124-.035-.125-.04-.123-.042-.121-.044-.12-.047-.12-.05-.117-.052-.118-.058-.117-.056-.114-.06-.115-.065-.113-.065-.113-.07-.112-.073-.11-.074-.108-.078-.108-.08-.107-.082-.106-.085-.105-.088-.106-.092-.101-.094-.104-.054-.058-.057-.056-.056-.057-.057-.056-.054-.055-.057-.053-.056-.053-.057-.053-.058-.05-.055-.052-.058-.048-.057-.05-.058-.047-.057-.046-.057-.046-.058-.044-.059-.044-.056-.042-.06-.041-.058-.04-.058-.041-.06-.04-.06-.037-.058-.037-.06-.037-.06-.035-.058-.034-.061-.035-.06-.032-.06-.03-.06-.032-.061-.029-.061-.028-.06-.028-.063-.027-.06-.027-.06-.025-.063-.023-.063-.023-.06-.021-.064-.023-.062-.02-.061-.021-.063-.017-.062-.017-.064-.018-.061-.015-.065-.014-.063-.016-.063-.013-.065-.01-.065-.012-.061-.01-.065-.008-.065-.01-.063-.006-.065-.007-.066-.004-.066-.006-.065-.004-.064-.002-.067-.002h-.13zm-.229 2.514l.05.002.049.001.05.004.05.005.05.005.046.007.051.007.05.008.047.01.049.01.049.011.049.012.047.014.047.014.049.016.049.015.047.018.049.019.048.02.047.02.047.021.049.023.045.022.05.025.045.026.047.024.047.028.048.03.047.028.047.032.046.031.047.031.044.034.047.035.046.035.047.035.046.038.045.037.046.042.047.038.044.04.045.044.046.042.046.046.044.044.045.047.044.047.08.086.073.085.073.085.068.083.068.083.063.085.059.085.057.083.054.083.051.084.047.083.045.084.042.08.037.085.037.082.032.082.03.082.027.084.022.082.022.082.015.081.015.082.011.081.004.041.004.04.004.041v.041l.003.039v.123l-.002.039-.003.04-.003.04-.003.041-.005.039-.006.04-.007.04-.006.041-.007.04-.008.039-.02.08-.02.08-.023.08-.025.078-.025.078-.028.08-.032.079-.031.08-.034.076-.036.079-.038.08-.041.076-.04.078-.045.076-.044.08-.049.076-.048.076-.052.076-.053.077-.056.076-.055.076-.06.077-.06.076-.062.075-.066.076-.066.075-.069.076-.071.073-.073.076-.073.075-.076.075-.079.073-3.737 3.505-4.505-4.804 3.737-3.505.067-.063.07-.061.065-.062.067-.056.067-.06.065-.053.065-.055.065-.054.065-.05.065-.052.064-.049.063-.045.063-.046.063-.045.062-.044.063-.042.06-.04.062-.038.063-.038.06-.035.059-.035.06-.034.06-.031.06-.03.058-.03.06-.028.058-.025.056-.024.058-.025.058-.02.055-.02.057-.02.051-.014.05-.016.052-.014.051-.01.052-.015.05-.009.051-.01.051-.008.05-.009.051-.007.052-.004.05-.005.049-.002.05-.004.05-.002.05-.002.05.002zm-.055 2h-.02l-.012.002h-.01l-.011.003-.013.001-.014.003-.012.001-.016.002-.014.003-.016.004-.016.005-.018.003-.016.005-.007.003-.01.002-.017.006-.02.008-.021.01-.025.01-.025.01-.027.015-.029.013-.03.015-.03.018-.033.017-.034.018-.036.024-.038.022-.036.023-.041.025-.04.027-.041.029-.044.03-.043.034-.045.032-.045.036-.049.035-.049.039-.047.04-.05.042-.051.044-.051.044-.053.046-.054.047-.055.052-.058.054-2.274 2.133 1.768 1.885 2.272-2.131.066-.062.056-.052.054-.055.052-.055.05-.055.048-.051.046-.053.044-.052.042-.05.042-.05.039-.05.035-.05.035-.046.031-.046.032-.047.03-.045.026-.045.026-.045.024-.043.023-.042.02-.04.02-.04.02-.041.015-.038.016-.039.015-.038.013-.037.012-.034.01-.037.012-.035.008-.035.01-.037-.002-.002.002-.005.002-.001v-.004l-.002-.002v-.003l.002-.002v-.027l-.002-.015-.003-.011-.001-.012-.005-.017-.005-.016-.005-.02-.01-.02-.01-.026-.01-.026-.014-.029-.017-.032-.016-.036-.022-.034-.025-.042-.025-.04-.03-.044-.034-.047-.036-.049-.04-.05-.043-.053-.046-.053-.049-.056-.054-.062-.028-.025-.029-.031-.027-.03-.027-.025-.028-.025-.026-.024-.025-.024-.026-.023-.026-.02-.024-.023-.024-.018-.024-.018-.02-.019-.023-.016-.022-.017-.023-.013-.019-.013-.019-.013-.019-.013-.019-.01-.017-.01-.017-.011-.018-.008-.015-.01-.016-.005-.014-.008-.014-.007-.015-.006-.012-.006-.014-.004-.01-.003-.011-.004-.014-.004-.01-.002-.01-.004-.01-.004h-.01l-.01-.002-.008-.002-.009-.003-.009-.002h-.01l-.009-.002-.009.002-.008-.003H86.123z"/><path d="M100.167 108.354l.13.019.128.023.126.036.124.041.121.05.117.058.114.064.11.074.102.079.1.088.092.09 7.306 7.791.157.167.155.173.153.17.151.17.147.17.142.17.141.168.137.169.134.168.13.168.128.168.123.164.12.168.118.166.113.168.11.166.108.165.106.168.1.165.096.167.095.167.09.165.086.169.084.166.078.167.077.166.073.168.07.17.063.17.062.167.055.168.028.089.027.09.045.15.038.15.039.15.034.15.032.15.027.153.025.15.025.151.02.152.016.153.013.152.013.152.007.153.006.152v.153l-.001.152-.003.153-.009.152-.008.151-.014.153-.015.151-.02.151-.022.15-.026.152-.027.149-.033.15-.033.147-.039.149-.04.147-.043.146-.047.147-.047.147-.052.144-.054.143-.058.143-.06.142-.063.141-.063.141-.068.139-.071.139-.073.137-.075.138-.079.135-.08.137-.084.133-.083.133-.089.131-.089.131-.092.131-.096.131-.096.128-.1.127-.1.129-.105.125-.104.126-.108.125-.11.123-.113.124-.115.121-.115.121-.119.122-.12.12-.124.119-.125.117-.125.118-.128.116-.127.112-.128.11-.129.108-.128.107-.13.105-.13.101-.133.1-.132.096-.131.097-.136.092-.133.091-.135.09-.135.085-.137.084-.136.08-.137.08-.138.075-.138.075-.142.071-.14.07-.143.066-.14.064-.142.06-.145.058-.144.057-.145.053-.144.05-.146.049-.15.044-.148.043-.147.04-.148.035-.149.034-.149.03-.152.027-.151.026-.15.021-.151.018-.152.017-.152.012-.152.01-.152.005-.152.002h-.305l-.153-.007-.151-.009-.151-.011-.153-.018-.151-.015-.151-.023-.153-.024-.149-.028-.15-.029-.151-.033-.147-.037-.149-.038-.148-.042-.147-.043-.15-.047-.145-.049-.144-.052-.086-.033-.087-.034-.161-.067-.166-.07-.165-.075-.165-.08-.163-.084-.16-.088-.162-.088-.16-.095-.163-.097-.16-.1-.16-.106-.16-.105-.16-.111-.16-.116-.158-.118-.158-.122-.16-.123-.158-.128-.16-.13-.156-.134-.16-.138-.16-.14-.159-.145-.159-.148-.159-.151-.16-.154-.161-.156-.16-.162-.16-.164-.162-.166-.157-.167-7.306-7.79-.085-.098-.081-.105-.073-.106-.066-.115-.057-.119-.05-.12-.042-.124-.033-.126-.028-.128-.015-.13-.01-.13v-.13l.008-.13.017-.132.027-.128.032-.126.043-.126.051-.12.057-.118.065-.112.073-.109.079-.105.086-.098.094-.092 1.907-1.788.096-.087.103-.08.11-.072.113-.065.119-.06.121-.049.123-.043.126-.033.128-.024.13-.02.132-.007h.13l.13.008.13.018.128.024.128.034.122.043.122.05.118.056.112.065.11.074.102.08.1.087.092.091 8.034 8.567.075.08.072.073.072.072.072.07.07.067.072.066.068.062.069.062.068.059.07.057.068.053.067.053.065.052.067.05.066.044.064.046.064.043.065.04.062.038.063.037.062.037.06.032.061.032.061.032.057.028.06.027.059.027.057.02.057.026.056.019.056.02.065.02.047.015.038.011.04.01.037.01.039.009.036.01.037.006.033.007.037.006.035.005.034.006.033.003.033.003.034.003h.031l.03.003.032.001h.034l.03-.001h.03l.03-.002.031-.002.03-.001.03-.004.03-.005.03-.004.03-.004.033-.006.028-.006.032-.006.03-.008.03-.008.033-.01.032-.01.032-.009.03-.011.034-.011.032-.014.034-.01.034-.016.034-.014.036-.017.034-.018.035-.017.036-.02.036-.02.038-.018.036-.023.04-.024.039-.023.038-.025.04-.027.04-.027.04-.029.04-.03.042-.029.043-.034.04-.034.043-.034.044-.037.043-.038.044-.037.044-.04.045-.043.058-.055.058-.055.055-.054.053-.053.05-.055.05-.053.05-.053.047-.051.044-.052.044-.051.042-.05.04-.052.04-.05.038-.05.037-.048.033-.048.035-.047.031-.046.03-.049.03-.044.026-.045.026-.045.024-.044.025-.043.022-.042.02-.043.023-.042.017-.04.02-.041.015-.039.017-.04.014-.04.013-.036.012-.039.013-.036.01-.037.01-.037.01-.036.009-.035.006-.037.006-.033.007-.037.006-.034.003-.033.005-.035v-.035l.005-.035v-.069l.002-.035v-.034l-.001-.037-.003-.035-.002-.036-.002-.035-.005-.037-.004-.037-.005-.04-.008-.037-.006-.038-.01-.04-.008-.039-.01-.042-.01-.036-.012-.039-.013-.043-.014-.044-.016-.047-.02-.046-.02-.05-.02-.052-.024-.05-.026-.054-.027-.053-.03-.058-.03-.057-.031-.06-.035-.059-.037-.06-.039-.064-.04-.065-.044-.064-.045-.067-.05-.067-.048-.07-.05-.069-.055-.072-.056-.07-.057-.073-.06-.074-.064-.076-.065-.076-.066-.075-.07-.078-.071-.08-.077-.082-8.034-8.566-.085-.098-.082-.105-.072-.106-.067-.115-.056-.118-.05-.12-.043-.125-.035-.124-.025-.13-.016-.129-.01-.13.001-.131.008-.13.016-.132.027-.128.033-.126.042-.125.05-.119.059-.12.065-.112.072-.109.08-.105.085-.097.095-.093 1.905-1.786.098-.089.103-.08.11-.071.113-.066.116-.058.124-.05.12-.042.129-.035.128-.024.129-.019.132-.008h.13l.131.008zm-2.1 3.778l8.037 8.57.085.095.087.092.082.095.081.09.078.095.078.09.073.092.075.091.07.092.069.089.066.092.066.088.062.089.06.09.06.088.055.088.055.088.052.088.05.087.048.088.047.086.045.087.041.085.041.087.038.084.038.085.033.085.032.082.031.084.027.084.028.084.023.083.02.077.02.074.017.077.015.074.015.078.012.075.011.074.01.076.01.076.005.075.006.076.003.076.003.075.001.075-.002.073-.001.076-.002.074-.006.074-.008.076-.008.072-.01.075-.01.074-.013.074-.015.075-.015.072-.018.075-.016.073-.02.074-.024.073-.023.073-.024.074-.027.073-.027.073-.027.073-.03.073-.034.073-.033.071-.036.075-.035.071-.038.073-.041.073-.04.07-.044.073-.043.071-.045.073-.048.073-.048.072-.05.07-.051.073-.054.07-.053.071-.057.07-.057.071-.059.072-.06.07-.062.073-.064.07-.064.07-.068.07-.067.07-.07.072-.07.07-.072.07-.074.07-.062.058-.063.056-.062.055-.064.056-.061.05-.064.053-.063.05-.063.049-.063.049-.064.045-.064.044-.064.046-.063.042-.064.04-.065.04-.063.039-.067.038-.062.035-.065.037-.065.033-.064.033-.066.031-.065.03-.066.028-.064.026-.066.028-.066.024-.066.025-.066.02-.066.021-.066.021-.066.017-.067.02-.066.013-.068.016-.065.013-.068.012-.067.012-.067.009-.067.008-.068.008-.067.005-.067.005-.069.003-.069.003-.067.002h-.069l-.066-.003-.07-.004-.068-.004-.07-.005-.067-.006-.07-.01-.069-.007-.07-.013-.068-.01-.07-.014-.07-.012-.07-.017-.07-.016-.07-.02-.07-.02-.07-.02-.072-.021-.094-.032-.094-.03-.094-.036-.092-.036-.094-.038-.092-.04-.092-.044-.094-.045-.094-.045-.09-.05-.092-.05-.093-.052-.092-.054-.092-.058-.091-.057-.092-.061-.091-.065-.092-.065-.09-.066-.09-.068-.091-.072-.09-.073-.09-.075-.09-.077-.09-.08-.09-.08-.089-.083-.09-.086-.09-.088-.087-.089-.088-.09-.089-.095-8.038-8.57-1.906 1.788 7.303 7.786.148.159.148.154.149.151.148.148.146.144.145.14.146.137.142.133.144.128.142.127.14.124.141.117.14.116.139.112.139.108.136.105.138.1.136.098.132.094.135.089.133.087.133.083.13.08.133.077.13.073.128.067.127.066.13.063.125.056.127.056.124.051.062.023.063.024.113.04.112.039.113.037.114.034.112.032.112.028.113.026.112.025.11.023.115.02.112.017.112.018.11.012.113.011.115.009.112.007.111.005.111.002h.113l.113-.003.111-.005.111-.006.112-.008.111-.013.114-.014.111-.015.11-.018.112-.023.11-.021.113-.025.11-.028.113-.03.11-.032.112-.033.11-.035.111-.039.112-.04.111-.043.11-.046.112-.049.11-.05.112-.052.11-.053.112-.056.11-.059.11-.063.11-.062.111-.067.112-.067.108-.07.11-.072.111-.074.112-.078.11-.08.109-.08.11-.083.11-.087.11-.09.111-.09.109-.091.11-.097.11-.095.11-.1.11-.103.108-.102.106-.103.104-.104.103-.104.099-.103.097-.104.096-.105.094-.104.09-.105.087-.103.087-.105.084-.106.081-.107.08-.105.077-.103.074-.107.074-.107.07-.107.069-.105.065-.106.063-.107.062-.11.06-.107.056-.107.054-.106.053-.108.051-.109.048-.11.046-.107.042-.108.04-.11.041-.11.035-.108.035-.108.032-.112.03-.11.028-.109.027-.11.023-.11.02-.112.02-.11.016-.111.014-.113.013-.11.009-.111.007-.113.007-.112.002-.111v-.113l-.002-.115-.003-.113-.006-.111-.008-.115-.01-.113-.015-.113-.014-.114-.017-.113-.02-.115-.02-.114-.023-.115-.028-.114-.028-.117-.032-.114-.033-.115-.02-.065-.018-.064-.044-.126-.047-.13-.049-.129-.054-.134-.057-.13-.06-.133-.064-.134-.068-.138-.071-.134-.075-.139-.078-.138-.08-.14-.086-.138-.089-.143-.09-.144-.096-.142-.1-.146-.103-.146-.106-.146-.108-.148-.115-.148-.117-.15-.119-.152-.123-.15-.128-.155-.13-.154-.135-.154-.138-.158-.14-.158-.146-.158-.148-.158-7.303-7.786-1.905 1.786z"/><path d="M112.913 98.198l.109.003.11.005.112.01.11.008.111.012.11.013.111.016.11.017.11.02.112.02.13.03.122.028.126.033.122.035.124.038.122.039.12.04.12.045.12.048.117.048.12.051.115.053.114.057.117.058.112.062.113.062.109.065.11.067.11.069.105.072.105.072.103.077.104.078.101.079.1.08.098.083.097.086.096.088.093.087.092.091.09.093.09.093.101.11.099.11.095.112.092.112.091.116.088.116.086.117.085.12.079.12.077.122.075.124.074.126.068.127.066.13.065.13.06.13.058.135.054.134.05.134.05.135.044.14.041.138.036.14.035.14.03.141.028.142.023.145.007.052.087-.003.1.002.088.002.083.001.083.005.084.006.083.008.083.008.082.008.083.008.082.011.083.015.082.012.082.015.081.016.08.017.083.018.082.019.08.02.08.022.08.024.08.024.08.023.079.026.078.029.08.027.077.03.078.03.077.03.076.034.075.033.077.034.074.036.082.04.144.073.145.079.144.084.144.087.14.09.14.095.135.098.135.1.132.104.13.107.13.111.126.114.125.115.123.12.122.122.119.127.104.111.102.116.098.116.099.12.093.121.091.123.09.124.087.126.083.128.082.128.077.133.077.133.071.134.07.137.066.136.064.138.06.14.058.142.055.143.052.142.049.147.046.144.043.148.04.147.037.15.032.15.032.151.027.15.025.153.022.15.02.157.016.152.01.12.008.122.007.12.003.12.004.12v.122l-.003.12-.002.121-.007.12-.008.12-.009.12-.01.12-.015.12-.016.12-.018.12-.02.118-.022.119-.024.119-.027.117-.027.117-.03.117-.034.118-.032.115-.037.117-.035.115-.041.113-.04.117-.043.112-.046.114-.046.112-.05.111-.049.111-.053.111-.053.112-.054.109-.058.11-.06.106-.06.108-.06.107-.065.106-.063.107-.07.105-.066.104-.07.103-.072.106-.072.101-.076.102-.075.102-.076.101-.08.1-.081.1-.081.1-.085.099-.082.098-.086.097-.088.096-.09.098-.09.096-.092.095-.093.094-.092.094-.095.096-.098.092-.095.092-5.864 5.5-.096.083-.1.076-.104.07-.107.064-.112.057-.116.05-.118.043-.12.035-.121.028-.126.018-.126.012-.125.005-.125-.006-.125-.009-.124-.02-.123-.028-.12-.034-.117-.045-.118-.05-.111-.056-.108-.063-.105-.072-.098-.076-.094-.085-.09-.088-13.003-13.865-.081-.094-.078-.098-.07-.104-.064-.108-.058-.113-.048-.116-.044-.12-.036-.119-.026-.122-.021-.124-.01-.124-.003-.127.002-.125.013-.125.02-.125.027-.124.035-.119.043-.118.05-.115.057-.113.064-.107.07-.103.077-.1.083-.095.09-.088 5.959-5.588.085-.08.09-.084.092-.08.09-.082.091-.078.093-.076.092-.077.092-.072.094-.075.093-.073.094-.07.093-.068.096-.07.096-.065.095-.066.096-.066.097-.06.095-.062.1-.059.098-.058.099-.059.098-.055.1-.053.101-.053.1-.05.101-.05.102-.047.104-.046.103-.046.102-.045.104-.039.105-.04.105-.038.106-.037.107-.035.106-.032.107-.032.107-.028.106-.029.109-.026.11-.025.11-.02.108-.02.11-.018.11-.018.11-.014.111-.012.11-.01.111-.01.111-.005.112-.005.11-.002h.223zm-.198 2h-.074l-.076.003-.074.005-.075.005-.076.006-.076.01-.074.008-.075.012-.076.013-.074.016-.077.013-.072.017-.077.017-.076.02-.075.02-.075.022-.076.024-.075.025-.075.026-.077.028-.075.029-.075.03-.076.03-.075.033-.076.033-.075.036-.075.037-.075.04-.077.038-.074.042-.077.041-.076.044-.075.046-.076.044-.075.05-.076.047-.075.05-.078.053-.074.052-.077.056-.075.056-.075.057-.076.058-.076.06-.076.062-.076.06-.076.065-.077.065-.076.068-.076.068-.076.068-.077.072-5.954 5.584 13.003 13.865 5.86-5.496.086-.08.084-.082.082-.08.078-.08.082-.08.075-.081.076-.082.075-.08.073-.083.072-.08.071-.081.068-.08.066-.083.066-.083.064-.08.063-.083.063-.083.059-.083.059-.082.057-.081.056-.083.052-.083.053-.081.05-.085.05-.081.05-.083.046-.085.045-.083.045-.084.041-.083.04-.085.04-.082.038-.083.036-.085.034-.084.033-.085.033-.085.03-.084.03-.086.027-.083.026-.086.026-.085.023-.084.02-.084.021-.088.02-.084.016-.086.016-.084.014-.087.015-.086.011-.086.009-.086.008-.087.008-.086.004-.086.005-.086.004-.086v-.175l-.002-.086-.003-.087-.004-.088-.006-.087-.008-.088-.013-.117-.013-.115-.017-.113-.02-.116-.019-.111-.023-.112-.024-.11-.027-.109-.03-.108-.032-.107-.031-.107-.038-.105-.035-.103-.039-.104-.044-.102-.043-.1-.046-.1-.048-.098-.05-.1-.051-.096-.056-.095-.055-.095-.06-.094-.06-.093-.063-.092-.064-.09-.068-.09-.067-.088-.073-.088-.073-.086-.077-.085-.077-.085-.093-.097-.094-.096-.096-.091-.094-.09-.098-.086-.094-.082-.098-.08-.098-.078-.098-.072-.099-.072-.1-.067-.098-.064-.102-.062-.102-.058-.1-.056-.103-.05-.052-.027-.05-.025-.053-.022-.052-.023-.052-.023-.05-.021-.053-.02-.052-.019-.052-.019-.054-.018-.053-.019-.052-.016-.052-.015-.055-.015-.052-.015-.054-.014-.053-.013-.054-.01-.056-.013-.053-.008-.054-.01-.054-.011-.055-.008-.054-.007-.054-.007-.055-.007-.054-.003-.057-.005-.054-.004-.057-.002-.054-.003-.057-.002-.063.001-.064.002h-.065l-.067.004-.065.004-.07.006-.068.007-.067.008-.071.009-.071.011-.073.01-.072.014-.073.014-.075.015-.076.017-.076.017-.077.02-.078.019-.078.022-.08.02-.08.024-.082.026-.082.025-.084.028-.084.027-.085.029-.086.032-.087.031-.086.033-.09.036-.087.034-.09.037.046-.132.04-.127.042-.128.036-.122.034-.124.03-.12.027-.118.023-.118.021-.115.016-.114.016-.11.003-.055.007-.055.004-.054.003-.055.002-.053.002-.053.001-.049v-.055l-.002-.049v-.051l-.004-.095-.005-.098-.01-.093-.009-.094-.015-.096-.014-.092-.017-.094-.021-.092-.022-.093-.025-.092-.026-.093-.03-.09-.03-.091-.037-.09-.036-.089-.037-.091-.041-.088-.043-.09-.047-.085-.048-.088-.049-.088-.053-.087-.054-.086-.057-.086-.06-.085-.062-.085-.066-.085-.064-.083-.07-.085-.07-.084-.074-.081-.077-.082-.065-.07-.066-.067-.069-.065-.068-.066-.069-.062-.068-.062-.072-.059-.072-.059-.07-.056-.073-.056-.073-.051-.075-.052-.075-.05-.074-.05-.076-.045-.076-.045-.078-.043-.078-.043-.078-.04-.08-.037-.08-.038-.082-.036-.08-.034-.083-.031-.084-.031-.082-.03-.083-.027-.086-.025-.086-.022-.087-.024-.088-.02-.085-.02-.076-.014-.073-.013-.076-.011-.075-.011-.074-.01-.076-.008-.075-.007-.076-.004-.074-.003-.075-.004-.075.001h-.075zm6.007 7.905l.054.004.051.003.055.003.052.006.051.007.055.007.049.008.052.009.053.012.05.01.051.015.051.014.05.014.051.017.05.018.051.017.05.02.05.02.05.021.049.023.048.023.049.026.048.026.049.026.048.03.047.028.048.03.049.033.046.032.047.035.048.033.045.037.046.035.047.038.046.039.046.042.045.04.046.042.045.044.044.043.044.048.046.045.05.056.053.057.047.058.05.056.043.058.048.058.04.057.044.058.04.061.041.058.037.061.037.058.035.06.033.06.034.061.031.063.03.06.028.063.026.061.025.063.024.062.023.064.022.064.02.065.018.064.018.062.015.067.016.064.012.064.012.068.01.065.009.067.005.053.005.054.004.05.002.054.002.053.001.053.002.053-.001.052-.002.053-.004.051-.001.053-.005.053-.006.053-.007.05-.007.055-.007.05-.012.053-.009.053-.01.05-.012.053-.012.053-.016.052-.014.05-.016.053-.018.054-.017.05-.02.053-.019.052-.019.053-.021.05-.023.052-.023.052-.026.052-.025.05-.026.053-.026.052-.028.05-.03.052-.03.052-.03.052-.033.052-.032.05-.033.052-.035.05-.036.053-.037.052-.038.05-.037.051-.04.052-.041.052-.04.051-.043.05-.087.103-.09.101-.097.101-.096.1-.102.103-.108.101-4.05 3.798-4.575-4.878 3.728-3.497.075-.07.07-.066.075-.067.073-.064.072-.061.07-.063.071-.06.073-.057.069-.058.07-.056.07-.052.07-.055.07-.052.07-.049.067-.049.068-.047.067-.045.069-.044.064-.044.069-.04.066-.042.067-.038.064-.037.065-.037.065-.033.064-.033.063-.032.064-.03.065-.029.062-.028.063-.024.062-.025.057-.023.06-.02.056-.02.057-.02.059-.017.057-.016.057-.016.055-.014.057-.012.057-.012.055-.01.055-.011.056-.01.055-.006.055-.007.055-.007.055-.004.054-.003.053-.002.057-.002h.106zm-.082 2h-.014l-.014.003h-.03l-.018.003h-.018l-.017.003-.02.005-.018.003-.021.002-.023.005-.021.006-.023.005-.025.006-.025.01-.025.006-.029.01-.028.01-.029.01-.03.01-.032.014-.03.01-.031.016-.034.015-.036.016-.036.02-.037.018-.04.02-.037.022-.044.023-.04.025-.044.027-.045.029-.045.028-.049.032-.048.032-.047.034-.052.035-.051.037-.052.04-.053.038-.054.044-.053.043-.057.044-.055.047-.058.048-.058.05-.061.052-.06.052-.058.055-.064.056-.063.06-2.267 2.125 1.841 1.963 2.583-2.422.085-.084.075-.073.071-.074.066-.071.064-.07.062-.073.024-.029.027-.033.026-.034.024-.033.026-.03.022-.032.022-.03.022-.032.02-.029.017-.03.02-.029.018-.03.016-.025.017-.03.013-.026.017-.025.013-.026.012-.025.013-.026.011-.024.01-.023.011-.024.01-.023.007-.02.01-.023.007-.021.007-.023.005-.019.006-.02.006-.018.006-.02.004-.02.004-.018.005-.018.004-.017.002-.02.002-.015.004-.018v-.017l.003-.016v-.018l.003-.016v-.017l.001-.018-.001-.016.002-.016-.001-.019-.001-.016v-.033l-.004-.018v-.014l-.004-.023-.003-.025-.004-.023-.005-.023-.006-.025-.005-.023-.008-.023-.004-.023-.008-.024-.008-.023-.008-.023-.01-.025-.01-.021-.01-.025-.012-.024-.011-.026-.013-.026-.014-.025-.013-.025-.017-.025-.016-.029-.019-.027-.017-.029-.02-.028-.02-.03-.022-.026-.022-.031-.026-.03-.025-.032-.029-.03-.027-.033-.03-.033-.025-.025-.024-.026-.024-.022-.025-.023-.02-.022-.023-.02-.024-.019-.02-.018-.021-.018-.02-.015-.02-.017-.019-.012-.019-.013-.019-.013-.017-.012-.017-.01-.016-.01-.015-.01-.014-.007-.016-.01-.012-.005-.014-.007-.012-.006-.012-.006-.014-.004-.012-.005-.01-.004-.011-.004-.01-.004-.013-.002-.01-.004-.01-.004h-.011l-.01-.004h-.011l-.01-.002-.011-.002h-.011l-.01-.001-.013-.002h-.01l-.013-.003-.012.002h-.014zm-6.11-7.378l.045.001.046.005.046.002.046.005.043.007.046.004.044.007.046.009.043.01.044.01.046.012.043.01.044.014.044.014.043.014.046.015.043.017.044.018.041.019.044.02.041.02.044.02.043.024.043.021.042.026.043.025.042.026.041.026.043.027.042.03.041.03.043.03.04.032.041.033.041.033.041.037.042.033.04.036.04.039.041.036.041.04.04.042.08.082.076.085.075.084.07.085.066.085.034.043.03.044.03.043.029.041.029.045.028.042.025.045.027.043.025.041.023.043.024.043.021.045.022.045.02.043.02.045.019.04.018.045.018.045.014.045.017.042.014.045.013.046.012.043.011.044.011.045.011.044.008.044.009.047.007.044.007.044.004.044.006.046.002.046.004.045v.044l.002.046-.001.045v.044l-.001.046-.002.046-.005.046-.005.045-.005.046-.005.046-.008.045-.007.048-.009.045-.01.044-.01.047-.012.046-.012.049-.014.043-.014.047-.014.048-.017.047-.016.045-.023.06-.025.06-.026.06-.027.062-.03.059-.03.062-.032.061-.036.06-.035.065-.037.062-.041.062-.04.064-.042.064-.044.062-.046.064-.046.063-.05.068-.05.063-.051.066-.055.065-.057.067-.057.067-.058.065-.06.067-.063.068-.064.067-.065.068-.066.069-.07.068-.068.068-.071.07-.075.07-3.417 3.205-4.028-4.295 3.352-3.143.152-.14.147-.135.075-.063.072-.064.073-.061.07-.06.073-.057.068-.058.07-.054.07-.053.067-.052.068-.051.065-.047.067-.05.065-.043.065-.044.063-.042.064-.04.062-.037.063-.038.059-.036.06-.033.062-.033.057-.03.06-.028.055-.028.059-.025.055-.024.057-.023.052-.022.05-.016.048-.017.048-.015.048-.014.048-.014.047-.013.048-.01.048-.012.046-.009.048-.007.046-.01.048-.006.046-.006.046-.006.047-.003.046-.002.046-.002.046-.003h.092zm-.06 2h-.019l-.005.002-.009.001h-.007l-.009.001-.01.004-.01.001-.012.001-.01.004-.013.001-.012.005-.014.003-.016.005-.016.005-.016.004-.013.005-.014.007-.018.006-.02.008-.021.01-.023.012-.027.015-.029.013-.032.017-.033.02-.036.02-.037.022-.038.025-.041.025-.042.029-.045.028-.045.032-.047.034-.049.035-.05.038-.053.038-.052.043-.056.042-.054.044-.058.048-.057.049-.061.05-.06.054-.058.05-.133.118-.134.126-1.887 1.77 1.29 1.376 1.955-1.833.063-.06.06-.056.057-.056.056-.057.053-.053.05-.053.049-.053.047-.051.048-.051.042-.05.042-.046.04-.049.039-.046.035-.046.034-.043.032-.043.031-.043.028-.04.028-.04.025-.038.023-.034.022-.035.02-.033.017-.033.017-.03.017-.028.013-.027.013-.026.01-.022.01-.023.007-.02.01-.02.004-.014.004-.014.005-.015.004-.014.002-.013.006-.012.002-.012.004-.01v-.011l.004-.01v-.018l.003-.009.002-.009v-.028l.001-.007v-.01l-.001-.006v-.007l-.001-.005.001-.005-.001-.006-.002-.005v-.007l-.001-.005-.002-.01-.001-.005-.003-.007v-.007l-.004-.007-.001-.009-.003-.01-.004-.008-.003-.01-.005-.01-.003-.01-.005-.013-.006-.01-.005-.013-.007-.014-.007-.014-.008-.013-.007-.014-.008-.017-.012-.016-.008-.016-.012-.016-.011-.02-.014-.018-.014-.018-.013-.022-.012-.012-.035-.05-.038-.043-.04-.047-.045-.047-.048-.05-.017-.02-.02-.017-.02-.019-.02-.02-.018-.016-.02-.017-.018-.016-.02-.013-.015-.013-.015-.013-.017-.01-.014-.012-.016-.01-.012-.008-.014-.008-.012-.01-.012-.005-.01-.007-.01-.004-.01-.007-.008-.004-.01-.004-.007-.004-.009-.002-.007-.004-.005-.001-.007-.004-.005-.002-.005-.002h-.004l-.005-.002h-.004l-.005-.002H112.499l-.005-.003H112.48l-.006-.002-.005.002z"/><path d="M117.843 91.776l.132.017.126.025.128.034.124.041.12.051.118.057.112.065.11.074.104.078.1.088.092.09 10.087 10.756 5.561-5.217.098-.088.105-.078.108-.074.114-.065.116-.058.121-.05.123-.043.129-.035.127-.024.131-.017.13-.008.131-.001.13.008.13.018.128.023.126.036.124.041.122.05.116.058.114.068.11.072.104.079.098.086.092.091 1.55 1.652.085.098.081.105.072.11.065.113.058.116.051.12.042.125.033.126.028.128.017.131.008.129v.13l-.01.132-.015.13-.027.128-.032.126-.043.126-.052.12-.056.118-.066.112-.072.109-.079.105-.086.098-.093.094-8.899 8.346-.1.087-.103.08-.11.071-.113.066-.116.058-.122.049-.123.043-.128.035-.128.024-.129.019-.132.008h-.13l-.13-.008-.13-.017-.129-.025-.126-.036-.123-.041-.122-.05-.116-.058-.115-.064-.107-.074-.105-.079-.1-.088-.091-.09-13.004-13.866-.085-.097-.081-.105-.07-.108-.07-.114-.056-.118-.05-.12-.042-.124-.033-.127-.028-.127-.015-.13-.01-.13v-.13l.008-.131.017-.132.027-.127.032-.126.043-.126.051-.12.057-.118.065-.113.073-.108.079-.105.086-.098.094-.092 1.878-1.761.096-.087.105-.081.11-.073.113-.065.117-.058.121-.049.123-.043.126-.033.13-.026.13-.019.13-.006.132-.001.128.01zm-2.071 3.75l13.003 13.865 8.9-8.346-1.55-1.652-7.022 6.585-11.454-12.212-1.877 1.76z"/><path d="M128.96 81.27l.11.011.105.014.109.021.103.027.103.033.103.037.099.043.097.05.093.052.092.06.086.064.084.068.083.073.075.076 13.003 13.865.072.08.067.087.063.088.057.09.055.095.046.097.043.1.037.102.03.105.027.104.02.105.014.11.008.108.002.107-.003.11-.009.107-.016.107-.02.105-.027.107-.033.103-.039.1-.042.101-.047.096-.056.093-.057.092-.065.088-.068.084-.073.079-.077.078-1.895 1.778-.084.072-.083.068-.088.062-.092.059-.095.051-.097.05-.098.041-.104.036-.103.031-.105.027-.108.02-.106.014-.108.009-.108.001-.109-.003-.107-.009-.107-.016-.109-.02-.103-.027-.103-.033-.103-.037-.099-.044-.097-.049-.093-.052-.092-.061-.086-.063-.084-.068-.083-.073-.075-.076-13.003-13.865-.072-.08-.067-.087-.063-.088-.057-.09-.055-.095-.046-.097-.043-.1-.037-.102-.03-.105-.027-.105-.02-.104-.014-.11-.007-.106-.003-.11.003-.109.009-.107.016-.107.02-.105.027-.107.033-.103.039-.1.043-.1.048-.095.054-.095.057-.092.065-.088.068-.084.073-.079.078-.077 1.896-1.778.082-.073.083-.068.088-.062.092-.059.095-.052.099-.048.098-.04.102-.038.103-.032.105-.026.108-.02.106-.014.108-.009.108-.002.109.004zm-2.014 3.776l13.004 13.865 1.896-1.778-13.004-13.865-1.896 1.778z"/><path d="M142.78 70.106l.108.002.104.002.104.005.104.001.102.007.104.005.102.007.102.01.102.007.102.01.1.012.102.014.1.012.102.014.1.016.1.015.098.018.098.017.1.019.098.02.098.021.098.025.096.022.098.024.096.026.096.026.095.028.096.03.096.03.094.03.094.032.092.033.095.034.092.033.092.037.09.038.095.038.088.04.092.04.09.042.088.041.09.045.087.046.088.043.087.049.085.046.086.049.085.05.085.05.084.054.083.052.085.054.081.054.081.057.081.058.081.057.08.059.077.06.077.061.077.06.078.065.075.062.076.066.067.057.089.084.085.09.078.095.073.1.069.102.06.108.053.11.047.117.038.117.032.118.026.122.017.12.01.124.002.126-.006.121-.014.123-.02.121-.029.122-.034.118-.044.116-.05.111-.056.111-.065.106-.068.102-.076.098-.084.092-.085.087-1.83 1.717-.093.08-.094.075-.103.069-.102.062-.108.056-.11.05-.115.042-.116.036-.117.028-.119.023-.12.014-.122.005-.122.001-.121-.01-.12-.014-.119-.021-.117-.03-.117-.037-.113-.045-.11-.05-.107-.057-.104-.063-.083-.056-.069-.044-.069-.041-.069-.041-.066-.038-.067-.035-.068-.036-.066-.03-.064-.032-.065-.029-.066-.027-.06-.025-.065-.025-.061-.021-.063-.02-.063-.02-.06-.017-.06-.016-.062-.014-.06-.013-.059-.012-.061-.011-.06-.01-.058-.006-.061-.008-.06-.005-.06-.002-.058-.004h-.061l-.06-.002-.062.004h-.058l-.053.005-.048.004-.05.005-.05.01-.052.008-.052.01-.053.013-.052.014-.057.016-.055.018-.059.02-.059.022-.059.024-.06.027-.063.028-.066.03-.065.034-.068.037-.066.038-.07.042-.072.044-.072.047-.073.05-.075.05-.076.058-.076.058-.08.06-.077.067-.082.066-.08.071-.081.074-.088.078-.045.043-.046.046-.045.046-.044.044-.044.045-.043.044-.04.045-.04.044-.04.047-.038.042-.036.045-.037.045-.035.046-.035.043-.033.045-.033.045-.033.045-.03.044-.03.045-.028.043-.03.045-.025.045-.028.044-.026.045-.025.043-.024.047-.024.043-.023.045-.02.043-.023.046-.02.045-.018.045-.02.045-.019.045-.017.044-.017.047-.016.045-.015.046-.016.045-.014.047-.014.047-.014.048-.012.045-.012.049-.01.047-.01.047-.01.048-.01.049-.008.049-.009.049-.006.05-.007.052-.007.05-.004.052-.007.05-.001.053-.006.053-.001.053-.002.053-.002.056-.001.053.001.057v.054l.002.057.004.05.002.05.003.052.004.05.007.052.005.053.008.052.008.053.008.055.01.055.012.053.013.057.01.055.016.057.014.055.016.06.016.057.019.06.02.058.018.06.023.06.021.063.023.061.024.062.026.065.028.062.027.065.031.066.03.064.031.067.033.068.035.066.035.066.038.07.037.068.038.07.042.07.04.072.045.07.044.072.045.074.047.072.049.074.049.074.052.074.054.076.054.075.054.076.056.078.057.076.06.077.062.078.06.08.064.078.066.077.066.082.068.08.068.08.07.081.073.082.073.081.075.084.077.082.075.083.063.064.06.064.063.063.061.062.06.06.06.06.061.059.062.058.06.057.06.056.061.055.06.053.06.053.06.053.062.052.06.05.059.047.06.05.06.045.06.046.059.045.06.046.06.042.057.042.06.043.057.039.06.039.06.04.058.038.057.035.06.037.058.034.057.035.059.034.057.031.057.032.06.03.055.03.057.029.057.028.057.028.058.025.057.028.056.023.057.025.056.023.057.025.056.019.057.021.056.02.056.019.056.02.056.019.056.016.057.017.056.016.054.014.058.015.054.014.058.014.056.012.054.01.058.012.054.01.053.009.05.008.048.006.05.005.049.005.047.007.048.003.049.001.046.002.045.001h.048l.046.002.046-.002.046-.003.046-.002.045-.002.045-.004.046-.005.044-.004.044-.007.046-.006.045-.007.046-.01.042-.009.046-.009.045-.01.046-.013.044-.011.047-.013.044-.014.047-.016.044-.015.046-.016.049-.018.044-.018.048-.018.047-.02.048-.02.047-.024.048-.021.049-.025.048-.025.048-.025.049-.028.05-.027.05-.03.05-.03.05-.032.051-.032.05-.034.053-.035.05-.037.053-.035.052-.04.053-.038.052-.043.053-.042.054-.044.054-.044.053-.046.056-.046.053-.05.056-.049.054-.05.048-.045.045-.046.046-.043.042-.043.042-.046.04-.04.04-.045.037-.045.036-.041.037-.045.035-.043.033-.041.031-.043.033-.041.03-.042.03-.041.027-.043.026-.042.028-.04.024-.043.024-.04.025-.04.022-.04.023-.042.02-.04.02-.042.018-.038.02-.042.016-.04.017-.04.014-.04.017-.04.014-.04.013-.04.012-.042.014-.04.01-.04.012-.042.01-.04.008-.043.01-.04.009-.042.007-.044.006-.04.007-.044.005-.042.005-.046.005-.042.003-.044.003-.048.002-.045.001-.046.002-.046v-.095l-.005-.048-.002-.05-.002-.049-.003-.05-.006-.05-.005-.054-.007-.05-.007-.056-.007-.055-.01-.058-.011-.055-.01-.057-.011-.057-.014-.058-.016-.06-.016-.061-.017-.062-.018-.063-.02-.066-.021-.065-.023-.065-.024-.07-.024-.069-.026-.068-.03-.071-.03-.071-.03-.074-.031-.073-.035-.077-.035-.077-.036-.075-.04-.079-.04-.079-.041-.08-.041-.081-.047-.083-.047-.082-.047-.083-.05-.086-.05-.086-.057-.094-.06-.108-.054-.112-.048-.113-.04-.12-.032-.117-.026-.122-.019-.122-.008-.122-.001-.126.004-.123.014-.123.018-.123.03-.12.036-.12.042-.114.05-.115.058-.109.063-.107.069-.102.077-.096.082-.095.086-.087 1.832-1.718.095-.082.099-.076.101-.07.108-.064.11-.057.115-.049.12-.044.119-.033.123-.03.122-.018.125-.012.126-.005.123.004.123.01.125.02.122.026.12.034.12.042.112.048.111.056.11.066.103.066.1.078.094.082.089.087.083.093.078.098.061.083.066.088.064.09.062.092.065.09.062.092.059.092.058.092.06.094.06.091.057.094.055.092.055.095.053.093.054.097.051.095.052.095.051.095.049.095.047.099.047.097.046.096.046.097.045.098.04.099.045.098.04.1.04.098.04.1.037.098.037.102.035.1.034.102.036.1.03.1.034.102.03.102.029.103.028.103.027.102.025.103.026.105.023.1.023.105.022.103.021.103.02.105.018.106.017.103.018.107.014.106.015.102.012.108.013.105.01.106.01.104.008.108.007.106.008.106.005.108.004.106.003.106.002.107v.106l.002.125-.003.132-.002.129-.006.132-.006.129-.01.128-.01.13-.012.13-.015.127-.014.13-.02.128-.019.126-.021.13-.022.126-.025.126-.027.128-.029.126-.029.126-.032.122-.032.126-.038.124-.037.124-.037.124-.04.122-.042.122-.047.122-.044.12-.048.12-.048.12-.051.12-.053.119-.054.118-.056.118-.059.116-.058.117-.06.114-.062.116-.064.115-.065.112-.067.114-.069.113-.07.11-.07.11-.075.111-.076.109-.076.108-.075.11-.081.106-.081.107-.081.106-.083.105-.084.103-.088.103-.088.103-.088.103-.092.103-.09.1-.094.1-.095.1-.096.097-.099.099-.096.097-.1.098-.102.095-.09.084-.09.081-.09.082-.093.08-.091.078-.094.078-.093.077-.092.076-.094.075-.096.072-.095.073-.094.071-.096.07-.1.068-.097.068-.097.067-.097.064-.1.066-.098.062-.103.062-.1.06-.101.06-.1.057-.105.056-.102.055-.102.055-.104.053-.106.052-.105.05-.104.05-.106.048-.107.046-.107.046-.11.044-.106.043-.108.042-.108.04-.11.038-.11.038-.11.036-.11.035-.11.033-.111.034-.112.03-.112.03-.112.026-.114.028-.114.025-.111.022-.114.025-.114.021-.115.02-.113.017-.115.02-.115.015-.115.012-.116.016-.116.01-.117.01-.115.009-.116.007-.117.007-.116.007-.122.001-.157.004h-.157l-.157-.003-.155-.005-.157-.007-.156-.01-.157-.014-.154-.016-.157-.017-.156-.02-.154-.023-.155-.027-.156-.028-.152-.03-.154-.034-.156-.035-.152-.038-.154-.04-.15-.044-.154-.044-.15-.047-.15-.05-.152-.053-.15-.054-.15-.058-.147-.06-.15-.06-.146-.065-.148-.067-.147-.066-.146-.072-.146-.071-.146-.076-.145-.078-.142-.079-.146-.082-.142-.082-.143-.088-.14-.087-.142-.09-.141-.092-.14-.094-.138-.096-.14-.098-.14-.102-.139-.101-.136-.105-.137-.107-.136-.108-.136-.108-.137-.114-.134-.114-.136-.115-.132-.119-.135-.119-.134-.124-.132-.122-.133-.128-.132-.126-.131-.13-.132-.132-.131-.133-.13-.138-.13-.135-.102-.109-.099-.109-.098-.109-.096-.109-.097-.11-.093-.11-.093-.111-.09-.11-.092-.113-.088-.112-.088-.112-.086-.114-.085-.112-.084-.116-.081-.115-.083-.114-.077-.115-.08-.117-.077-.116-.075-.117-.076-.117-.072-.117-.07-.118-.07-.119-.069-.12-.067-.119-.066-.122-.064-.118-.063-.122-.063-.122-.06-.122-.059-.121-.056-.122-.056-.125-.054-.124-.053-.121-.05-.127-.05-.123-.048-.127-.049-.125-.043-.126-.044-.127-.043-.127-.04-.126-.039-.128-.038-.128-.035-.128-.034-.128-.033-.13-.033-.13-.03-.13-.027-.131-.026-.13-.025-.129-.024-.131-.02-.131-.021-.131-.02-.132-.016-.132-.017-.131-.012-.133-.013-.13-.01-.135-.01-.13-.007-.144-.008-.143-.003-.145-.002-.144-.002-.145.002-.143.005-.144.005-.144.006-.143.01-.143.013-.142.014-.142.016-.143.017-.142.02-.138.021-.143.026-.14.025-.14.03-.14.03-.138.031-.139.036-.136.037-.14.04-.136.039-.136.043-.136.045-.135.048-.134.049-.134.05-.133.053-.132.054-.132.059-.13.059-.13.058-.131.064-.129.065-.128.065-.127.07-.126.07-.125.072-.124.074-.125.076-.123.078-.124.08-.12.081-.12.082-.12.086-.12.087-.118.089-.118.09-.115.092-.117.091-.113.097-.115.096-.113.1-.112.1-.113.101-.11.103-.11.105-.108.108-.108.107-.108.11-.106.11-.104.095-.088.096-.087.094-.085.095-.085.096-.084.098-.081.094-.082.1-.08.096-.08.097-.074.098-.078.097-.074.1-.073.099-.072.1-.073.099-.069.1-.067.101-.067.101-.068.103-.065.1-.064.103-.062.102-.062.103-.058.104-.06.104-.057.104-.057.104-.053.106-.055.106-.05.105-.052.106-.048.107-.046.106-.047.108-.045.11-.044.107-.042.108-.04.111-.04.109-.037.108-.037.11-.035.111-.032.11-.031.113-.03.11-.028.112-.027.112-.026.113-.025.112-.023.112-.019.115-.02.11-.017.115-.015.113-.014.113-.014.114-.01.114-.01.115-.008.113-.007.115-.005.115-.002.114-.002h.11zm-.185 2.002l-.085.001-.086.003-.087.006-.086.006-.085.008-.085.008-.087.01-.085.01-.085.012-.087.013-.085.015-.085.015-.083.017-.085.018-.087.02-.084.02-.085.022-.086.022-.085.026-.084.023-.085.03-.084.027-.086.029-.083.03-.084.031-.086.033-.084.034-.084.035-.086.036-.084.037-.082.04-.086.04-.084.041-.083.043-.084.042-.084.044-.084.049-.083.047-.084.048-.083.05-.083.05-.084.052-.083.054-.085.056-.083.053-.084.06-.083.057-.083.06-.083.061-.084.061-.083.064-.081.063-.083.068-.083.064-.082.07-.083.068-.084.071-.083.072-.082.073-.081.073-.082.077-.084.074-.094.093-.095.092-.093.09-.09.093-.088.092-.088.092-.088.093-.082.094-.082.094-.083.095-.079.094-.077.096-.077.097-.073.096-.074.096-.072.099-.07.096-.068.098-.065.099-.065.098-.063.1-.062.099-.06.1-.059.1-.054.103-.056.1-.055.103-.05.102-.052.102-.047.103-.046.104-.045.105-.046.104-.04.106-.042.104-.037.107-.037.106-.037.107-.034.106-.031.108-.03.107-.03.11-.026.107-.027.11-.023.11-.023.11-.02.11-.019.111-.019.11-.016.115-.014.112-.012.111-.011.113-.01.114-.008.114-.005.115-.006.114-.004.116v.233l.003.116.004.117.005.118.006.117.008.11.008.107.011.11.01.106.013.108.014.11.014.106.018.106.018.11.02.105.019.108.021.106.025.107.025.106.025.107.026.105.028.107.03.105.03.105.033.103.033.105.034.105.037.105.037.102.038.105.042.104.04.103.042.104.044.102.046.103.046.104.048.102.048.102.051.102.052.102.053.1.055.103.055.102.056.101.057.1.06.101.06.1.064.102.062.099.066.099.064.1.069.1.069.099.069.099.07.097.073.1.073.099.075.098.077.097.077.1.08.096.08.1.08.093.084.1.083.096.087.096.087.097.087.096.09.096.118.126.117.122.118.121.12.12.12.117.117.115.12.113.118.112.12.11.12.105.118.105.12.102.12.103.12.097.12.099.118.094.122.094.119.09.12.088.12.087.12.085.12.085.12.08.122.08.12.075.12.075.122.074.12.071.122.067.121.068.122.064.12.062.123.062.12.058.12.057.123.053.121.053.122.05.122.05.122.046.124.045.122.042.122.04.122.039.122.035.122.036.123.032.124.03.123.03.122.024.123.025.124.024.121.02.125.02.123.014.123.014.124.013.123.011.124.008.125.005.123.004.125.003h.123l.124-.003.093-.002.096-.004.093-.006.092-.004.094-.01.092-.007.093-.01.09-.009.093-.011.092-.015.09-.013.092-.014.089-.015.092-.018.089-.019.09-.016.09-.022.088-.022.089-.022.089-.022.089-.025.087-.024.087-.027.087-.027.088-.03.087-.028.086-.032.087-.031.086-.033.084-.034.085-.036.086-.036.084-.038.084-.038.084-.037.085-.042.084-.041.082-.043.083-.044.084-.045.08-.045.083-.046.083-.047.081-.048.081-.053.083-.05.079-.054.081-.052.08-.054.079-.053.079-.058.08-.057.077-.06.081-.059.076-.06.08-.062.078-.062.076-.065.078-.066.076-.065.078-.066.074-.07.077-.068.076-.071.087-.082.084-.082.085-.084.082-.084.082-.083.08-.082.08-.084.076-.086.077-.086.073-.085.073-.086.073-.086.07-.086.068-.088.068-.087.067-.086.064-.088.065-.088.062-.09.06-.09.06-.088.056-.09.058-.087.054-.092.056-.09.05-.092.053-.09.048-.094.05-.09.046-.092.045-.093.044-.092.044-.096.04-.092.041-.094.039-.094.036-.096.037-.095.035-.095.033-.095.033-.096.03-.096.027-.098.028-.098.026-.096.024-.098.024-.098.023-.1.02-.098.02-.1.017-.098.017-.102.014-.098.016-.1.01-.102.012-.1.01-.102.009-.104.007-.102.005-.1.005-.104.001-.104.002-.104.002-.104-.003-.086v-.085l-.003-.086-.005-.089-.004-.084-.004-.085-.006-.087-.008-.085-.008-.084-.008-.085-.01-.087-.01-.085-.01-.083-.014-.083-.013-.087-.013-.084-.017-.083-.013-.083-.017-.084-.018-.085-.019-.082-.02-.083-.018-.082-.022-.082-.02-.083-.024-.084-.024-.08-.024-.083-.026-.082-.027-.08-.026-.082-.029-.082-.027-.08-.031-.081-.03-.08-.032-.08-.032-.083-.033-.078-.035-.08-.034-.081-.036-.079-.038-.08-.037-.08-.04-.078-.037-.08-.042-.078-.041-.08-.042-.078-.043-.079-.044-.079-.045-.077-.045-.077-.045-.077-.049-.078-.048-.077-.049-.077-.049-.078-.052-.077-.05-.076-.054-.076-.052-.077-.054-.076-.056-.074-.056-.078-1.832 1.719.062.102.06.1.06.101.057.101.055.099.053.1.052.099.051.098.052.099.046.097.046.096.047.097.042.097.041.094.041.095.038.095.037.094.036.093.036.093.032.093.03.09.03.093.027.091.027.09.025.09.024.09.022.09.018.088.02.087.017.087.014.089.015.085.012.081.011.082.01.08.008.08.008.082.006.08.007.08.002.078.001.078.003.08v.079l-.001.076-.003.077-.004.08-.004.075-.006.077-.008.076-.008.075-.01.078-.01.075-.013.074-.012.075-.016.074-.015.075-.016.074-.019.071-.02.074-.02.073-.021.072-.024.073-.025.071-.025.072-.025.071-.03.072-.028.068-.03.073-.032.067-.033.072-.032.067-.037.07-.036.067-.037.07-.04.067-.039.068-.04.065-.043.068-.043.067-.046.067-.046.064-.047.067-.05.064-.047.066-.052.065-.053.063-.053.064-.055.065-.055.062-.057.063-.06.064-.058.061-.06.063-.062.062-.064.06-.064.063-.07.063-.071.066-.071.063-.07.06-.073.06-.07.06-.072.06-.07.056-.074.055-.072.054-.07.053-.073.05-.072.051-.072.05-.074.05-.074.045-.072.047-.072.043-.073.042-.074.042-.074.041-.073.039-.074.038-.075.036-.073.035-.074.034-.075.033-.075.033-.075.03-.075.029-.075.03-.075.025-.075.026-.076.024-.075.022-.075.022-.076.02-.075.02-.078.018-.076.017-.075.015-.078.015-.078.012-.074.012-.078.011-.078.008-.078.009-.076.006-.078.005-.077.004-.08.003h-.077l-.078.002h-.08l-.077-.003-.077-.003-.08-.004-.08-.006-.08-.008-.078-.008-.08-.011-.08-.01-.08-.011-.078-.015-.08-.013-.08-.015-.08-.017-.079-.018-.079-.019-.08-.02-.079-.018-.078-.022-.08-.022-.08-.024-.076-.023-.079-.026-.078-.025-.079-.03-.076-.026-.079-.03-.078-.028-.078-.033-.077-.03-.077-.035-.078-.032-.078-.036-.075-.036-.078-.036-.076-.038-.078-.04-.075-.039-.076-.04-.076-.042-.077-.041-.076-.045-.076-.045-.074-.046-.076-.045-.076-.048-.075-.05-.076-.049-.074-.05-.076-.051-.072-.052-.074-.054-.076-.055-.074-.053-.074-.057-.074-.057-.074-.057-.074-.061-.074-.06-.074-.061-.072-.062-.073-.064-.072-.063-.074-.064-.074-.067-.072-.066-.072-.07-.073-.067-.072-.07-.072-.072-.072-.07-.071-.072-.074-.075-.07-.074-.071-.077-.087-.092-.084-.093-.085-.09-.081-.095-.082-.09-.08-.093-.08-.093-.076-.092-.075-.09-.075-.091-.074-.09-.073-.093-.071-.09-.068-.09-.068-.091-.067-.09-.064-.09-.064-.09-.064-.091-.061-.09-.059-.088-.06-.09-.06-.089-.055-.088-.053-.09-.056-.088-.051-.088-.05-.09-.05-.086-.049-.088-.045-.088-.048-.088-.043-.086-.043-.09-.043-.085-.04-.086-.037-.088-.04-.086-.036-.085-.034-.088-.035-.084-.032-.085-.03-.088-.03-.085-.029-.086-.027-.084-.025-.085-.026-.086-.024-.083-.022-.086-.02-.083-.02-.084-.017-.083-.017-.083-.014-.085-.014-.084-.013-.083-.013-.083-.01-.083-.008-.082-.006-.083-.008-.081-.002-.083-.005-.081-.003-.083v-.081l-.001-.082v-.079l.003-.08.003-.082.004-.08.004-.078.008-.08.004-.079.01-.077.008-.079.013-.077.01-.077.012-.078.013-.077.015-.075.015-.075.016-.077.019-.076.018-.075.02-.073.02-.074.022-.075.023-.073.024-.073.023-.074.027-.073.027-.07.027-.073.029-.071.032-.071.03-.07.033-.071.032-.071.034-.07.038-.069.034-.07.039-.067.037-.07.04-.067.04-.069.041-.066.043-.067.044-.066.045-.069.046-.063.046-.068.048-.065.05-.064.048-.065.053-.064.051-.065.054-.064.053-.063.055-.062.056-.063.059-.062.058-.062.058-.061.059-.062.063-.06.062-.06.064-.06.104-.098.105-.095.107-.09.103-.09.105-.085.105-.081.105-.081.105-.075.104-.074.105-.07.106-.07.102-.065.106-.062.105-.06.104-.057.104-.053.105-.05.104-.047.106-.044.103-.043.104-.039.105-.037.103-.032.105-.03.105-.026.103-.025.106-.022.103-.018.105-.016.104-.012.103-.01.106-.008.102-.004.104-.002.104-.002.103.004.103.005.104.005.102.01.102.01.104.012.101.018.102.017.103.02.1.022.102.024.103.027.1.03.1.03.104.034.099.037.1.036.1.039.1.044.1.045.101.046.097.049.099.05.1.053.097.056.1.058.1.06.098.06.098.066 1.83-1.717-.056-.05-.056-.049-.06-.05-.059-.047-.057-.046-.06-.046-.06-.046-.059-.044-.062-.045-.06-.042-.062-.044-.062-.041-.062-.04-.064-.04-.063-.04-.064-.036-.064-.04-.065-.037-.065-.035-.067-.036-.066-.034-.066-.034-.066-.033-.068-.033-.07-.03-.067-.032-.068-.029-.07-.03-.069-.027-.071-.029-.07-.027-.071-.025-.072-.025-.073-.024-.072-.025-.073-.023-.073-.02-.075-.022-.074-.02-.075-.022-.075-.018-.075-.019-.077-.016-.077-.017-.078-.016-.075-.015-.079-.015-.08-.013-.078-.013-.078-.011-.081-.014-.081-.01-.08-.009-.082-.01-.08-.006-.083-.008-.084-.006-.081-.006-.085-.006-.084-.003-.085-.003-.084-.002-.085-.003-.086-.001-.087-.001-.086.002z"/><defs><radialGradient id="a" cx="0" cy="0" r="1" gradientUnits="userSpaceOnUse" gradientTransform="matrix(94.4098 35.956 -36.951 97.0224 142.149 88.492)"><stop offset="0%" stop-color="#3ce61a"/><stop offset="100%" stop-color="#aef4a0"/></radialGradient></defs></svg>