<svg viewBox="0 0 300 300" xmlns="http://www.w3.org/2000/svg" fill-rule="evenodd" clip-rule="evenodd" stroke-linecap="round" stroke-linejoin="round" stroke-miterlimit="1.414"><path d="M168.057 120.019c-.412-.618.203-1.476.392-2.194.443-1.694 1.054-3.34 1.499-5.032 1.941-7.373 2.981-14.855 3.27-22.502 2.545-67.128-95.397-93.107-129.526-32.472-8.553 15.194-12.19 33.074-9.375 50.218 1.502 9.152 4.709 18.107 9.763 25.91 12.4 19.147 36.665 31.91 59.589 29.465 9.318-.994 9.965-1.433 18.651-3.443 2.295-.531 8.143-2.637 11.206-1.611 2.146.719 2.609 2.96 2.52 4.951-.111 2.472-.694 3.489-1.651 5.854-.95 2.35-2.543 4.9-.625 7.253.428.525.94.989 1.497 1.375.743.516 1.534.981 2.376 1.312 3.676 1.441 6.38-.854 9.277-2.796 1.135-.76 2.103-1.891 3.417-2.261.554-.156 1.031.528 1.486.881a52.843 52.843 0 0 1 3.391 2.899c3.844 3.543 7.683 7.093 11.421 10.748 23.285 22.771 45.331 44.88 67.996 68.283 5.815 6.003 11.338 12.288 17.196 18.249.798.813 3.435 1.037 4.125 1.067 6.615.288 9.641.108 16.282-.803 1.592-.218 5.543-.657 6.266-2.646.676-1.857.689-6.325.671-7.269-.085-4.684-.94-28.259-2.394-28.758-3.925-1.344-12.034-4.188-12.524-5.667-.361-1.09-1.78-8.41-2.491-9.312-.384-.487-1.115-.583-1.724-.692-2.063-.372-4.691.653-6.187-1.364-2.036-2.746-3.176-12.969-5.968-17.678-3.238-5.461-19.604-3.289-21.824-4.823-4.154-2.87 1.426-12.355-2.081-16.401-4.017-4.635-10.963-1.372-12.39-6.862-.699-2.689 1.043-7.551.494-9.032-1.252-3.382-9.826-3.296-10.651-6.736-.222-.929-.977-1.648-1.557-2.408-3.476-4.561-13.773-15.915-15.15-17.442-1.382-1.534 10.236-7.616 3.898-13.949-5.663-5.66-12.238 4.777-13.848 3.017-3.685-4.027-6.717-7.329-6.717-7.329zM83.995 53.271c11.109 0 20.129 8.724 20.129 19.47 0 10.746-9.02 19.47-20.129 19.47-11.109 0-20.128-8.724-20.128-19.47 0-10.746 9.019-19.47 20.128-19.47z" fill="url(#a)" stroke="#000" stroke-width="3.5"/><path d="M129.829 141.314l133.618 135.101M141.68 131.161l137.706 136.374" fill="none" stroke="#000" stroke-width="3"/><text x="241.595" y="464.449" font-family="Helvetica" font-size="10.434" fill="none" transform="matrix(2.49194 0 0 2.49194 -540.961 -1042.22)">PRIVATE</text><text x="241.595" y="464.449" font-family="Helvetica" font-size="10.434" fill="#fff" transform="matrix(2.49194 0 0 2.49194 -540.961 -1042.22)">PRIVATE</text><path d="M71.882 94.51l.19.006.189.01.186.01.187.017.185.018.184.025.177.024.095.015.092.015.09.018.09.017.09.02.089.018.09.022.087.02.09.022.087.023.087.025.087.025.087.027.088.028.084.027.088.03.084.03.085.032.085.033.082.032.085.035.082.037.082.035.082.037.083.04.082.04.08.04.08.042.079.043.077.042.08.045.077.045.078.047.077.048.075.05.074.05.075.05.075.049.072.055.072.052.073.055.07.055.072.055.07.057.067.06.07.057.067.06.067.062.067.062.068.065.064.065.065.067.065.068.062.067.063.07.062.07.06.07.06.071.057.073.057.072.055.075.055.074.055.075.052.077.05.078.052.077.047.08.05.08.048.08.044.079.045.082.043.082.042.083.042.082.04.085.038.084.04.085.034.085.035.087.035.087.033.087.032.088.03.087.03.09.03.087.025.09.027.09.025.089.025.092.022.09.02.092.023.092.02.092.017.093.017.092.015.092.015.095.015.092.013.095.012.094.013.095.01.095.007.094.01.098.008.094.005.097.005.095.005.097.002.098.003.102.002.192-.002.174-.005.174-.008.175-.012.174-.018.172-.017.172-.023.172-.027.172-.03.17-.035.167-.037.169-.04.167-.045.167-.05.164-.052.162-.055.162-.06.162-.065.16-.064.16-.073.154-.072.157-.077.152-.082.152-.085.15-.087.146-.093.147-.094.145-.097.142-.1.14-.105.136-.107.138-.107.132-.067.077-.065.072-.065.072-.067.073-.067.07-.07.07-.07.067-.072.067-.073.065-.074.064-.075.063-.075.062-.077.062-.077.06-.08.057-.08.058-.08.055-.082.054-.082.055-.082.05-.085.052-.085.048-.084.05-.088.044-.087.048-.087.042-.087.042-.09.043-.09.04-.09.04-.092.037-.09.035-.092.035-.094.035-.092.032-.095.03-.092.03-.095.03-.095.027-.097.025-.095.025-.097.025-.097.022-.097.023-.1.02-.097.017-.1.02-.1.017-.097.015-.102.015-.1.013-.1.012-.101.013-.102.01-.103.01-.102.007-.102.008-.105.007-.102.005-.104.005-.105.003-.105.002-.107.003h-3.97v5.883l-.005.12-.01.122-.017.12-.025.116-.032.118-.04.114-.048.11-.052.11-.06.104-.064.102-.073.098-.077.092-.082.087-.087.085-.095.077-.097.07-.1.067-.107.06-.107.052-.112.045-.115.04-.117.032-.117.025-.12.02-.12.01-.122.005H63.3l-.12-.005-.12-.01-.12-.02-.119-.025-.115-.032-.114-.04-.112-.045-.11-.052-.105-.06-.1-.067-.096-.07-.095-.077-.087-.085-.083-.087-.077-.092-.072-.098-.065-.102-.06-.104-.052-.11-.047-.11-.04-.114-.033-.118-.025-.117-.017-.12-.012-.121-.003-.12v-18.65l.003-.12.012-.121.017-.12.025-.117.033-.117.04-.115.047-.11.052-.11.06-.104.065-.102.072-.097.077-.092.083-.088.087-.084.095-.078.097-.07.1-.067.104-.06.11-.052.112-.045.114-.04.115-.032.12-.025.12-.02.119-.01.12-.005h8.402l.18.003zm-8.582 2v18.649h2.526v-7.884H71.867l.087-.003.085-.002.085-.005.084-.003.082-.007.085-.005.08-.008.082-.007.08-.008.08-.01.08-.01.08-.01.076-.01.078-.012.074-.015.078-.013.074-.014.075-.015.072-.018.073-.017.072-.018.072-.017.07-.02.07-.02.07-.02.067-.022.07-.023.067-.022.065-.025.064-.025.068-.025.062-.027.065-.028.062-.027.062-.03.06-.03.063-.03.06-.03.06-.032.056-.033.058-.035.057-.034.057-.035.055-.035.055-.038.055-.037.052-.04.055-.037.05-.04.052-.042.05-.04.05-.043.05-.042.05-.045.047-.045.047-.045.045-.047.047-.047.045-.048.043-.047.045-.05.042-.05.085-.102.08-.102.08-.105.074-.104.072-.108.07-.107.067-.107.067-.11.063-.112.06-.11.054-.114.055-.112.053-.115.05-.117.044-.117.045-.12.04-.117.04-.122.035-.122.035-.122.03-.122.027-.127.025-.125.022-.127.02-.13.018-.129.015-.13.012-.132.008-.132.007-.132.005-.137V101.698l-.002-.08-.003-.077-.005-.078-.002-.074-.005-.078-.005-.074-.008-.075-.007-.072-.008-.075-.007-.072-.01-.073-.01-.072-.01-.072-.013-.07-.012-.07-.013-.07-.015-.07-.015-.067-.014-.07-.015-.067-.018-.067-.017-.065-.018-.067-.02-.065-.02-.065-.02-.062-.02-.065-.022-.062-.022-.062-.025-.063-.023-.062-.025-.06-.027-.06-.025-.06-.027-.06-.028-.056-.03-.06-.03-.058-.03-.054-.03-.058-.032-.055-.032-.057-.033-.055-.034-.052-.035-.055-.035-.052-.035-.053-.037-.052-.038-.05-.037-.052-.04-.05-.04-.05-.04-.05-.042-.047-.043-.047-.042-.048-.042-.047-.045-.047-.045-.045-.047-.045-.045-.045-.048-.045-.047-.042-.05-.045-.047-.042-.05-.04-.05-.042-.05-.04-.052-.038-.05-.04-.052-.037-.052-.037-.053-.038-.052-.035-.052-.035-.055-.034-.055-.035-.055-.033-.055-.032-.057-.032-.055-.033-.057-.03-.057-.03-.058-.027-.06-.03-.057-.027-.06-.028-.06-.025-.06-.027-.06-.025-.061-.025-.06-.022-.063-.023-.062-.022-.065-.023-.062-.02-.065-.02-.062-.02-.065-.02-.067-.017-.065-.017-.067-.018-.065-.015-.067-.015-.068-.015-.07-.015-.067-.012-.07-.013-.07-.012-.069-.012-.142-.02-.142-.018-.145-.015-.147-.012-.15-.01-.151-.008-.152-.002-.155-.003H63.3zm7.645 2.17l.09.002.087.003.087.002.087.003.085.005.082.005.082.005.083.007.08.008.077.007.077.008.077.01.075.01.072.012.072.013.073.012.07.012.067.015.07.015.064.015.065.018.065.017.062.018.062.02.06.017.06.022.057.02.058.023.055.022.054.023.053.025.047.024.045.023.047.025.045.025.045.027.042.025.043.027.042.028.042.03.04.027.04.03.04.033.037.03.038.032.037.032.035.033.035.034.035.033.035.035.032.037.032.035.033.037.03.038.03.037.03.04.03.04.027.04.027.04.025.042.028.042.025.043.022.042.025.045.022.045.023.045.02.045.02.047.02.047.02.048.017.047.017.05.018.05.015.05.015.052.015.052.015.052.012.053.013.052.012.055.01.055.01.057.01.055.007.057.008.058.007.057.008.06.005.06.005.06.002.059.005.062.003.063.002.062v.239l-.002.112-.008.11-.005.105-.01.104-.012.102-.013.103-.015.097-.017.097-.02.092-.022.092-.025.09-.025.087-.028.085-.03.082-.032.083-.035.077-.035.077-.04.075-.04.072-.042.07-.045.067-.047.067-.047.063-.05.062-.055.057-.055.058-.055.054-.06.055-.062.05-.062.047-.065.048-.067.045-.067.042-.07.042-.072.04-.07.04-.075.037-.075.035-.074.035-.078.033-.077.032-.08.03-.08.03-.082.027-.084.025-.085.025-.085.025-.087.022-.087.02-.09.018-.09.02-.092.015-.095.015-.094.012-.095.013-.097.01-.097.01-.1.007-.102.007-.102.005-.103.003-.104.002h-5.134V98.68H70.945zm-3.118 2v2.463h3.105l.078-.003.074-.002.075-.005.07-.003.07-.007.067-.005.065-.007.065-.008.062-.01.06-.007.057-.013.055-.01.055-.012.052-.013.052-.012.048-.013.047-.015.045-.012.045-.015.042-.015.04-.015.04-.017.037-.015.035-.018.035-.017.035-.018.032-.017.03-.018.03-.017.03-.017.022-.015.01-.008.005-.005.003-.002.002-.003.003-.002.002-.003.003-.002.005-.005.002-.005.005-.005.005-.008.005-.01.008-.012.007-.015.008-.015.01-.02.007-.022.01-.028.01-.027.01-.033.01-.037.007-.04.01-.042.008-.048.01-.05.007-.054.005-.06.005-.06.005-.067.003-.067.002-.073.003-.08-.003-.037v-.077l-.002-.037-.003-.038-.002-.035-.003-.035-.002-.032-.003-.03-.005-.032-.002-.028-.005-.03-.005-.027-.005-.025-.005-.025-.005-.025-.005-.022-.005-.023-.005-.02-.005-.02-.008-.017-.005-.02-.004-.015-.008-.017-.005-.015-.005-.015-.005-.013-.007-.012-.005-.013-.005-.01-.005-.012-.005-.01-.005-.007-.005-.01-.008-.008-.005-.007-.005-.008-.005-.007-.005-.008-.005-.007-.005-.005-.005-.008-.005-.005-.005-.007-.005-.005-.005-.005-.007-.008-.005-.005-.008-.007-.007-.005-.007-.008-.008-.005-.007-.007-.01-.005-.008-.007-.01-.008-.012-.007-.01-.008-.013-.007-.012-.008-.015-.007-.015-.008-.015-.007-.005-.003-.008-.002-.017-.008-.017-.007-.023-.01-.022-.008-.025-.007-.028-.01-.03-.01-.03-.008-.032-.01-.035-.007-.037-.01-.04-.007-.04-.01-.042-.008-.045-.007-.047-.008-.05-.007-.05-.008-.052-.007-.055-.005-.055-.008-.057-.005-.06-.005-.062-.002-.063-.005-.065-.003-.067-.002-.07-.003-.07-.002h-3.172z"/><path d="M89.49 94.51l.15.003.149.003.147.005.147.005.147.01.144.007.145.013.142.012.142.013.14.015.14.017.139.017.137.02.137.023.137.022.134.025.135.028.132.027.132.03.132.032.13.033.13.035.129.037.127.04.125.04.127.042.124.045.122.047.123.048.122.052.122.052.114.053.11.054.107.055.107.055.108.06.104.06.105.06.102.064.102.065.1.067.1.068.097.07.094.072.095.074.095.078.092.077.09.08.09.08.087.082.084.084.085.088.08.087.082.09.077.092.078.092.074.095.073.094.07.097.07.1.066.1.065.102.063.102.06.105.06.104.054.105.055.107.052.11.05.11.047.11.048.111.042.113.042.112.04.114.038.115.035.115.034.114.03.117.03.117.028.12.027.117.022.12.023.12.02.119.017.122.018.12.012.122.013.122.012.125.01.122.008.124.005.125.002.124.003.125.002.127-.002.13-.003.13-.002.129-.008.127-.007.127-.01.13-.01.124-.015.127-.015.125-.018.127-.017.122-.023.125-.022.124-.025.122-.027.122-.03.12-.033.122-.032.12-.037.117-.038.12-.04.117-.042.117-.047.114-.048.115-.05.115-.05.112-.054.112-.058.11-.06.11-.062.106-.064.108-.065.102-.063.097-.064.092-.065.092-.067.093-.07.09-.07.089-.002.002.024.03.068.093.067.1.065.099.062.1.057.102.055.102.05.102.05.105.045.104.045.105.04.105.037.104.035.108.035.107.03.107.03.11.027.107.027.11.023.109.022.11.02.112.02.112.017.112.015.115.015.114.013.115.012.117.01.117.01.117.008.12.005.12.005.12.09 2.503.004.123.005.11.005.106.008.1.007.095.008.09.007.082.008.077.01.072.007.063.008.057.01.052.007.043.008.032.005.027.005.02.022.015.097.072.092.078.088.082.082.09.077.092.07.097.065.1.06.104.052.11.045.11.04.114.032.117.025.118.017.12.013.119.002.12v.418l-.002.12-.013.122-.017.12-.025.116-.033.118-.04.114-.047.11-.052.11-.06.104-.065.102-.072.098-.077.092-.082.087-.088.085-.094.077-.098.07-.1.067-.106.06-.107.052-.113.045-.114.04-.115.032-.12.025-.12.02-.119.01-.122.005h-3.097l-.122-.005-.12-.01-.122-.02-.12-.025-.117-.035-.114-.04-.113-.047-.11-.052-.106-.062-.103-.065-.097-.075-.092-.077-.09-.085-.082-.09-.077-.094-.072-.1-.065-.102-.058-.107-.027-.053-.035-.074-.035-.073-.03-.075-.03-.072-.032-.082-.045-.135-.045-.144-.04-.145-.034-.142-.03-.144-.018-.097-.017-.095-.013-.092-.012-.095-.013-.097-.01-.102-.02-.202-.017-.22-.015-.239-.015-.256-.015-.272-.152-3.1-.005-.082-.005-.065-.005-.062-.007-.06-.01-.052-.008-.05-.01-.048-.01-.04-.01-.04-.01-.032-.01-.032-.012-.035-.002-.005-.005-.01-.005-.01-.005-.01-.003-.01-.005-.007-.005-.008-.002-.007-.005-.008-.003-.005-.002-.005-.005-.005-.003-.005-.002-.005-.003-.002-.002-.003-.003-.002-.002-.003-.003-.002v-.003l-.002-.002-.003-.003-.002-.002-.003-.003-.002-.002-.003-.003-.002-.002h-.003l-.002-.003-.003-.002-.005-.003-.002-.002-.005-.003-.005-.002-.005-.005-.005-.003-.005-.002h-.003l-.01-.005-.012-.005-.017-.005-.018-.005-.022-.007-.025-.005-.03-.008-.03-.007-.035-.008-.035-.007-.04-.008-.042-.007-.045-.008-.047-.005-.05-.007-.052-.008-.058-.005-.057-.005-.06-.005-.06-.005-.064-.005-.068-.005-.065-.002-.149-.005-.152-.005h-3.912v5.998l-.005.12-.01.122-.02.12-.025.116-.033.118-.04.114-.044.11-.053.11-.06.104-.067.102-.07.098-.077.092-.084.087-.088.085-.092.077-.097.07-.102.067-.105.06-.11.052-.11.045-.114.04-.117.032-.117.025-.12.02-.122.01-.12.005h-2.526l-.12-.005-.122-.01-.12-.02-.117-.025-.117-.032-.112-.04-.112-.045-.11-.052-.104-.06-.103-.067-.097-.07-.092-.077-.087-.085-.085-.087-.077-.092-.07-.098-.067-.102-.06-.104-.052-.11-.045-.11-.04-.114-.032-.118-.025-.117-.02-.12-.01-.121-.003-.12v-18.65l.003-.12.01-.121.02-.12.025-.117.032-.117.04-.115.045-.11.052-.11.06-.104.067-.102.07-.097.077-.092.085-.088.087-.084.092-.078.097-.07.103-.067.104-.06.11-.052.112-.045.112-.04.117-.032.117-.025.12-.02.122-.01.12-.005h8.637l.147.003zm-8.784 2v18.649h2.527v-8h5.751l.19.003.184.005.177.005.087.005.085.005.082.005.082.008.08.007.077.008.077.007.075.01.075.01.072.01.07.01.067.013.067.012.065.012.065.015.062.013.06.015.06.017.057.015.055.018.055.017.052.02.05.018.05.02.047.02.048.022.037.02.04.02.037.02.04.022.035.022.037.023.035.022.038.025.035.025.032.025.035.025.032.027.033.025.032.028.03.03.032.027.03.03.03.03.028.03.03.03.027.032.027.032.028.033.025.032.025.035.024.035.025.035.025.035.023.037.022.035.023.037.022.04.02.038.02.04.02.04.02.04.017.04.02.042.018.042.015.042.032.087.03.09.027.092.025.095.025.095.02.1.017.102.015.102.015.107.01.107.01.112.008.112.152 3.11.012.262.015.242.015.216.015.195.015.174.01.078.007.072.01.067.008.062.01.055.01.05.02.095.02.087.025.085.025.08.024.074.015.038.013.034.015.035.015.033.015.032.015.03h3.097v-.419l-.035-.017-.035-.017-.034-.02-.035-.02-.033-.02-.032-.023-.033-.025-.032-.025-.03-.027-.03-.027-.03-.028-.027-.03-.027-.032-.028-.032-.027-.035-.025-.035-.025-.035-.025-.038-.025-.04-.022-.04-.023-.042-.02-.042-.022-.042-.02-.045-.02-.048-.018-.047-.017-.047-.017-.05-.018-.052-.017-.053-.015-.055-.015-.054-.015-.068-.018-.07-.015-.077-.015-.08-.014-.084-.013-.087-.012-.093-.01-.097-.013-.102-.01-.105-.007-.11-.01-.114-.008-.12-.005-.122-.007-.127-.005-.13-.09-2.501-.002-.102-.008-.098-.005-.097-.007-.094-.008-.095-.01-.092-.01-.09-.012-.09-.01-.084-.015-.085-.013-.085-.014-.08-.018-.08-.015-.077-.02-.077-.017-.075-.02-.072-.02-.07-.023-.07-.022-.067-.022-.065-.025-.064-.028-.063-.025-.06-.027-.057-.027-.057-.03-.055-.03-.052-.033-.053-.032-.05-.032-.047-.035-.047-.035-.045-.035-.042-.038-.045-.037-.043-.04-.044-.04-.043-.042-.04-.042-.042-.043-.04-.045-.04-.047-.04-.045-.04-.047-.037-.05-.037-.05-.038-.05-.037-.052-.037-.052-.035-.055-.035-.055-.035-.057-.032-.058-.035-.057-.033-.06-.032-.06-.032-.062-.033-.062-.03-.062-.03-.065-.03-.065-.03-.067-.027-.068-.027.078-.043.074-.04.075-.044.075-.043.072-.045.073-.044.07-.045.07-.048.069-.047.067-.047.067-.05.065-.05.065-.05.062-.052.063-.053.06-.052.062-.055.057-.055.057-.054.058-.058.054-.057.055-.057.055-.06.052-.06.05-.06.053-.062.047-.06.05-.065.047-.062.045-.065.045-.064.045-.068.042-.067.04-.07.04-.067.04-.072.035-.073.037-.072.035-.075.032-.074.033-.078.03-.077.03-.08.027-.08.025-.082.025-.082.025-.085.022-.084.02-.088.02-.087.017-.087.018-.092.015-.09.015-.092.012-.095.013-.094.01-.095.007-.097.008-.098.007-.1.005-.101.002-.1.003-.105v-.204l-.003-.097-.002-.1-.005-.095-.005-.097-.007-.095-.008-.094-.01-.092-.012-.093-.013-.092-.012-.09-.015-.087-.015-.09-.018-.087-.02-.084-.02-.085-.02-.085-.022-.082-.025-.082-.025-.083-.025-.08-.027-.079-.03-.077-.03-.078-.032-.077-.033-.075-.035-.074-.034-.073-.035-.072-.04-.072-.038-.07-.04-.07-.042-.067-.042-.067-.045-.067-.047-.065-.045-.065-.05-.065-.047-.062-.053-.06-.052-.06-.052-.06-.055-.06-.055-.057-.057-.057-.06-.055-.06-.055-.06-.052-.062-.052-.062-.053-.068-.05-.064-.05-.068-.05-.07-.047-.07-.047-.069-.045-.072-.045-.075-.042-.075-.045-.077-.04-.077-.042-.08-.04-.08-.037-.08-.038-.087-.04-.09-.037-.09-.035-.091-.035-.093-.032-.094-.032-.097-.033-.098-.03-.1-.027-.099-.028-.102-.025-.102-.024-.105-.025-.107-.023-.107-.02-.11-.022-.11-.018-.112-.017-.114-.017-.115-.015-.117-.013-.117-.015-.12-.01-.12-.01-.124-.01-.122-.007-.125-.008-.127-.005-.13-.005-.129-.002-.13-.003h-8.766zm8.776 2.17l.08.002.077.003.08.002.075.003.075.005.074.005.075.005.072.005.07.007.07.008.07.01.07.007.067.01.065.013.064.01.065.012.062.015.063.012.062.015.06.015.06.015.057.018.057.017.055.02.055.018.055.02.052.02.052.022.053.022.05.023.047.022.045.023.045.024.042.023.045.025.04.027.042.025.04.028.04.027.04.027.04.028.037.03.037.03.035.03.038.03.035.032.032.032.035.033.032.034.033.033.032.035.03.035.03.037.03.037.027.038.028.037.027.038.027.04.025.04.025.04.025.039.025.042.022.043.023.042.02.042.022.045.02.045.02.045.018.047.017.045.017.048.018.047.015.05.017.047.013.05.015.05.012.052.013.05.012.052.01.053.01.054.01.053.01.055.007.054.008.058.007.055.005.057.005.057.005.06.008.117.002.122.003.122v.115l-.005.112-.005.112-.005.107-.01.108-.013.102-.012.102-.015.1-.017.094-.018.095-.022.092-.023.092-.025.088-.027.084-.03.085-.032.08-.033.08-.035.077-.037.075-.04.072-.042.07-.043.067-.045.067-.047.062-.05.063-.052.057-.027.03-.028.027-.027.028-.028.027-.027.028-.03.024-.03.025-.03.025-.03.025-.032.023-.062.045-.065.044-.067.043-.07.04-.07.04-.07.04-.072.034-.075.038-.075.032-.077.032-.08.033-.08.03-.079.027-.085.028-.082.024-.087.025-.087.023-.088.022-.092.02-.09.02-.094.018-.092.014-.098.015-.097.013-.1.012-.1.01-.101.01-.103.008-.104.005-.105.005-.11.005h-.107l-.112.002h-5.838V98.68h6.25zm-4.248 2v2.373h3.924l.083-.002.08-.003.08-.002.074-.005.075-.005.072-.008.07-.007.067-.008.067-.01.063-.007.062-.013.06-.01.054-.012.055-.012.053-.013.052-.012.047-.015.048-.013.042-.015.042-.015.04-.015.04-.015.035-.015.035-.015.032-.017.033-.015.03-.015.027-.017.027-.015.025-.018.018-.012.007-.005.003-.003.002-.002.003-.005.005-.005.005-.008.005-.007.005-.012.007-.015.008-.018.01-.02.01-.022.007-.028.01-.032.01-.032.01-.038.01-.042.01-.045.007-.05.008-.052.007-.058.008-.062.005-.062.005-.07.002-.072.003-.075v-.157l-.003-.072-.005-.075-.002-.025-.003-.032-.002-.03-.003-.03-.005-.027-.005-.028-.002-.027-.005-.025-.005-.023-.005-.022-.005-.023-.005-.022-.005-.017-.005-.02-.005-.018-.005-.017-.005-.018-.005-.015-.005-.012-.007-.015-.005-.012-.005-.013-.005-.01-.005-.01-.005-.01-.005-.01-.003-.007-.005-.008-.005-.01-.005-.005-.005-.007-.002-.008-.005-.005-.005-.005-.003-.005-.005-.007-.005-.005-.005-.005-.002-.005-.005-.005-.005-.005-.005-.005-.005-.005-.008-.005-.005-.005-.005-.005-.007-.005-.008-.005-.007-.007-.007-.005-.01-.005-.01-.008-.01-.005-.01-.007-.013-.008-.012-.005-.013-.007-.007-.005-.008-.003-.012-.005-.015-.007-.018-.008-.017-.007-.02-.005-.022-.008-.023-.007-.025-.008-.025-.01-.03-.007-.03-.007-.03-.008-.032-.007-.035-.005-.037-.008-.037-.007-.04-.008-.043-.005-.042-.005-.045-.007-.047-.005-.047-.005-.05-.003-.05-.005-.052-.002-.055-.003-.058-.002-.057-.003-.057-.002H85.234z"/><path d="M102.42 94.513l.123.01.12.02.116.025.117.033.115.04.11.044.11.053.104.06.102.067.097.07.093.077.087.084.085.088.077.092.07.097.067.102.06.105.052.11.045.11.04.114.032.117.025.117.02.12.01.122.005.12v18.649l-.005.12-.01.122-.02.12-.025.116-.032.118-.04.114-.045.11-.052.11-.06.104-.067.102-.07.098-.077.092-.085.087-.087.085-.093.077-.097.07-.102.067-.105.06-.11.052-.109.045-.115.04-.117.032-.117.025-.12.02-.121.01-.12.005h-2.552l-.122-.005-.12-.01-.12-.02-.116-.025-.117-.032-.115-.04-.11-.045-.11-.052-.104-.06-.102-.067-.097-.07-.093-.077-.09-.085-.081-.087-.078-.092-.072-.098-.065-.102-.06-.104-.052-.11-.047-.11-.038-.114-.032-.118-.027-.117-.018-.12-.01-.121-.005-.12v-18.65l.005-.12.01-.121.018-.12.027-.117.032-.117.038-.115.047-.11.052-.11.06-.104.065-.102.072-.097.078-.092.082-.088.09-.084.092-.078.097-.07.102-.067.105-.06.11-.052.109-.045.115-.04.117-.032.117-.025.12-.02.12-.01.121-.005h2.552l.12.005zm-2.67 1.996v18.65h2.55v-18.65h-2.55z"/><path d="M107.993 94.513l.117.01.117.018.117.025.114.032.113.037.11.045.106.05.105.057.1.065.097.068.092.074.087.08.083.087.077.09.072.095.065.097.062.102.053.105.047.11.042.111 3.452 10.23 3.406-10.225.042-.112.048-.107.055-.107.06-.102.064-.1.072-.095.078-.09.082-.084.087-.082.092-.075.098-.07.1-.062.104-.057.107-.053.11-.045.114-.037.115-.032.115-.025.12-.018.116-.01.12-.005h2.83l.12.005.12.01.12.018.117.025.114.032.115.04.11.045.11.052.104.06.1.065.097.07.092.077.087.082.085.087.077.09.07.097.067.1.06.104.052.108.048.112.04.112.032.114.027.118.02.12.01.119.005.12-.002.119-.008.12-.017.12-.025.116-.03.115-.037.115-6.806 18.65-.045.114-.052.11-.06.107-.065.102-.07.1-.077.094-.084.09-.088.085-.092.077-.1.075-.102.065-.104.062-.11.052-.112.048-.117.04-.117.034-.12.025-.12.02-.122.01-.122.005h-2.679l-.114-.005-.117-.01-.115-.017-.115-.023-.112-.03-.11-.037-.109-.042-.105-.05-.102-.055-.1-.06-.094-.067-.092-.072-.085-.078-.082-.082-.08-.087-.07-.092-.067-.095-.062-.1-.055-.102-.05-.105-.042-.107-6.791-18.65-.04-.114-.03-.117-.022-.117-.018-.117-.01-.12-.002-.122.005-.12.012-.12.02-.116.025-.118.033-.114.042-.115.045-.11.055-.107.06-.104.064-.1.072-.097.078-.092.082-.085.087-.082.095-.078.095-.07.102-.064.104-.06.108-.052.112-.045.112-.04.117-.032.117-.025.12-.018.12-.01.119-.005h2.79l.12.005zm-2.911 1.996l6.79 18.65h2.68l6.805-18.65h-2.831l-5.295 15.881-5.358-15.88h-2.791zM132.137 94.513l.117.01.115.018.114.022.112.03.11.037.107.043.107.05.103.054.1.063.094.067.092.072.085.078.082.082.077.087.073.09.067.097.062.097.055.105.05.104.042.108 6.766 18.65.037.114.03.115.025.12.017.116.008.12.002.12-.005.12-.012.119-.017.12-.028.116-.032.115-.04.112-.047.112-.055.107-.06.103-.065.102-.072.095-.077.092-.083.087-.087.082-.092.075-.097.072-.102.062-.105.06-.107.053-.112.044-.113.04-.117.033-.117.025-.117.017-.12.01-.12.005h-2.768l-.117-.005-.12-.01-.116-.017-.115-.025-.115-.03-.112-.04-.11-.045-.107-.05-.104-.057-.1-.062-.097-.07-.092-.075-.088-.08-.082-.084-.077-.09-.072-.095-.065-.097-.062-.102-.053-.107-.05-.107-.04-.113-1.432-4.226h-4.538l-1.54 4.266-.043.107-.05.108-.054.102-.063.1-.064.094-.073.092-.077.088-.082.082-.087.077-.093.072-.094.068-.1.062-.102.055-.107.05-.107.042-.11.037-.115.03-.112.023-.117.017-.115.01-.117.005h-2.589l-.122-.005-.12-.01-.12-.02-.116-.025-.117-.032-.115-.038-.11-.047-.11-.052-.104-.06-.102-.065-.097-.072-.092-.077-.088-.083-.082-.087-.077-.092-.072-.097-.068-.102-.057-.105-.055-.11-.045-.11-.04-.114-.032-.117-.025-.117-.02-.12-.01-.12-.005-.119.003-.122.012-.12.018-.12.025-.116.032-.118.04-.114 7.02-18.65.044-.112.055-.107.058-.107.067-.102.07-.098.077-.092.085-.09.087-.082.092-.077.097-.072.102-.065.105-.06.11-.055.112-.045.114-.04.118-.032.117-.025.12-.02.119-.01.122-.005h2.856l.117.005zm-2.973 1.996l-7.02 18.65h2.59l2.018-5.587h7.376l1.891 5.587h2.769l-6.768-18.65h-2.856zm4.152 11.007h-5.842l3.01-8.238 2.832 8.238zm-2.98-2h.179l-.088-.252-.092.251zM154.776 94.513l.122.01.12.02.117.025.117.033.112.04.112.044.11.053.105.06.102.067.097.07.092.077.088.084.084.088.077.092.07.097.068.102.06.105.052.11.045.11.04.114.032.117.025.117.02.12.01.122.002.12v2.222l-.002.12-.01.12-.02.119-.025.12-.033.114-.04.115-.044.112-.053.11-.06.104-.067.102-.07.098-.077.092-.084.087-.088.082-.092.078-.097.072-.102.065-.105.06-.11.052-.112.047-.112.04-.117.032-.117.025-.12.018-.122.012-.12.003h-4.283v14.428l-.005.12-.01.122-.02.12-.025.116-.032.118-.04.114-.045.11-.052.11-.06.104-.065.102-.072.098-.077.092-.083.087-.09.085-.092.077-.097.07-.102.067-.105.06-.11.052-.109.045-.115.04-.117.032-.117.025-.12.02-.119.01-.122.005h-2.564l-.122-.005-.12-.01-.12-.02-.117-.025-.117-.032-.115-.04-.11-.045-.109-.052-.104-.06-.103-.067-.097-.07-.092-.077-.09-.085-.082-.087-.077-.092-.072-.098-.065-.102-.06-.104-.052-.11-.045-.11-.04-.114-.033-.118-.024-.117-.02-.12-.01-.121-.005-.12v-14.428h-4.284l-.12-.003-.122-.012-.12-.018-.116-.025-.118-.032-.112-.04-.112-.047-.11-.053-.104-.06-.102-.064-.097-.072-.093-.078-.087-.082-.085-.087-.077-.092-.07-.098-.067-.102-.057-.104-.055-.11-.045-.112-.04-.115-.032-.114-.025-.12-.02-.12-.01-.12-.003-.119V96.51l.003-.12.01-.121.02-.12.025-.117.032-.117.04-.115.045-.11.055-.11.057-.104.067-.102.07-.097.077-.092.085-.088.087-.084.093-.078.097-.07.102-.067.105-.06.11-.052.111-.045.112-.04.118-.032.117-.025.12-.02.121-.01.12-.005h15.134l.12.005zm-15.253 1.996v2.223h6.285v16.427h2.564V98.732h6.285V96.51h-15.134z"/><path d="M170.926 94.513l.12.01.12.02.117.025.117.033.115.04.112.044.107.053.105.06.102.067.097.07.092.077.09.084.082.088.077.092.073.097.064.102.06.105.052.11.048.11.037.114.033.117.027.117.017.12.01.122.005.12v2.284l-.005.123-.01.12-.017.119-.027.117-.033.117-.037.115-.048.11-.052.109-.06.105-.064.102-.073.097-.077.092-.082.09-.09.082-.092.077-.097.073-.102.064-.105.06-.107.053-.112.047-.115.037-.117.033-.117.027-.12.018-.12.01-.122.004h-9.133v1.663h8.296l.12.002.122.013.12.017.117.025.117.032.112.04.112.045.11.055.104.057.102.067.098.07.092.08.087.082.085.087.077.093.07.097.067.102.06.105.052.11.045.111.04.113.032.117.025.12.02.119.01.12.003.12v2.157l-.003.122-.01.12-.02.12-.025.117-.032.117-.04.114-.045.113-.052.107-.06.107-.067.1-.07.097-.077.094-.085.088-.087.082-.092.077-.098.072-.102.065-.104.06-.11.052-.112.048-.112.04-.117.032-.118.025-.12.017-.121.01-.12.005h-8.296v2.323h9.325l.12.002.12.013.12.017.119.025.114.032.115.04.112.048.11.052.104.06.1.065.1.072.092.077.087.082.082.088.078.092.072.097.065.102.06.105.052.11.047.112.04.114.032.115.025.12.018.119.012.12.003.12v2.222l-.003.12-.012.122-.018.12-.025.116-.032.118-.04.114-.047.11-.052.11-.06.104-.065.102-.072.098-.078.092-.082.087-.087.085-.092.077-.1.07-.1.067-.104.06-.11.052-.112.045-.115.04-.114.032-.12.025-.12.02-.12.01-.119.005h-13.788l-.122-.005-.12-.01-.119-.02-.117-.025-.117-.032-.115-.04-.112-.045-.107-.052-.105-.06-.102-.067-.097-.07-.092-.077-.09-.085-.082-.087-.078-.092-.072-.098-.065-.102-.06-.104-.052-.11-.047-.11-.038-.114-.032-.118-.027-.117-.018-.12-.01-.121-.005-.12v-18.65l.005-.12.01-.121.018-.12.027-.117.032-.117.038-.115.047-.11.053-.11.06-.104.064-.102.072-.097.078-.092.082-.088.09-.084.092-.078.097-.07.102-.067.105-.06.107-.052.112-.045.115-.04.117-.032.117-.025.12-.02.12-.01.121-.005h13.596l.122.005zm-13.718 1.996v18.65h13.788v-2.223H159.67v-6.322h10.297v-2.158H159.67v-5.662h11.134V96.51h-13.596z"/><defs><radialGradient id="a" cx="0" cy="0" r="1" gradientUnits="userSpaceOnUse" gradientTransform="matrix(94.4098 35.956 -36.951 97.0224 143.621 86.755)"><stop offset="0%" stop-color="#2708a0"/><stop offset="100%" stop-color="#c2b3ff"/></radialGradient></defs></svg>