<svg viewBox="0 0 300 300" xmlns="http://www.w3.org/2000/svg" fill-rule="evenodd" clip-rule="evenodd" stroke-linecap="round" stroke-linejoin="round" stroke-miterlimit="1.414"><g stroke="#000"><path d="M168.057 120.019c-.412-.618.203-1.476.392-2.194.443-1.694 1.054-3.34 1.499-5.032 1.941-7.373 2.981-14.855 3.27-22.502 2.545-67.128-95.397-93.107-129.526-32.472-8.553 15.194-12.19 33.074-9.375 50.218 1.502 9.152 4.709 18.107 9.763 25.91 12.4 19.147 36.665 31.91 59.589 29.465 9.318-.994 9.965-1.433 18.651-3.443 2.295-.531 8.143-2.637 11.206-1.611 2.146.719 2.609 2.96 2.52 4.951-.111 2.472-.694 3.489-1.651 5.854-.95 2.35-2.543 4.9-.625 7.253.428.525.94.989 1.497 1.375.743.516 1.534.981 2.376 1.312 3.676 1.441 6.38-.854 9.277-2.796 1.135-.76 2.103-1.891 3.417-2.261.554-.156 1.031.528 1.486.881a52.843 52.843 0 0 1 3.391 2.899c3.844 3.543 7.683 7.093 11.421 10.748 23.285 22.771 45.331 44.88 67.996 68.283 5.815 6.003 11.338 12.288 17.196 18.249.798.813 3.435 1.037 4.125 1.067 6.615.288 9.641.108 16.282-.803 1.592-.218 5.543-.657 6.266-2.646.676-1.857.689-6.325.671-7.269-.085-4.684-.94-28.259-2.394-28.758-3.925-1.344-12.034-4.188-12.524-5.667-.361-1.09-1.78-8.41-2.491-9.312-.384-.487-1.115-.583-1.724-.692-2.063-.372-4.691.653-6.187-1.364-2.036-2.746-3.176-12.969-5.968-17.678-3.238-5.461-19.604-3.289-21.824-4.823-4.154-2.87 1.426-12.355-2.081-16.401-4.017-4.635-10.963-1.372-12.39-6.862-.699-2.689 1.043-7.551.494-9.032-1.252-3.382-9.826-3.296-10.651-6.736-.222-.929-.977-1.648-1.557-2.408-3.476-4.561-13.773-15.915-15.15-17.442-1.382-1.534 10.236-7.616 3.898-13.949-5.663-5.66-12.238 4.777-13.848 3.017-3.685-4.027-6.717-7.329-6.717-7.329zM83.995 53.271c11.109 0 20.129 8.724 20.129 19.47 0 10.746-9.02 19.47-20.129 19.47-11.109 0-20.128-8.724-20.128-19.47 0-10.746 9.019-19.47 20.128-19.47z" fill="url(#a)" stroke-width="3.5"/><path d="M129.829 141.314l133.406 134.92M141.68 131.161l136.517 134.13" fill="none" stroke-width="3"/></g><defs><radialGradient id="a" cx="0" cy="0" r="1" gradientUnits="userSpaceOnUse" gradientTransform="matrix(94.4098 35.956 -36.951 97.0224 143.621 86.755)"><stop offset="0%" stop-color="#2708a0"/><stop offset="100%" stop-color="#c2b3ff"/></radialGradient></defs></svg>