<svg viewBox="0 0 300 300" xmlns="http://www.w3.org/2000/svg" fill-rule="evenodd" clip-rule="evenodd" stroke-linecap="round" stroke-linejoin="round" stroke-miterlimit="1.414"><path d="M166.585 121.757c-.412-.618.203-1.476.391-2.195.443-1.693 1.055-3.339 1.5-5.031 1.941-7.373 2.981-14.856 3.27-22.502C174.291 24.901 76.349-1.078 42.22 59.556c-8.553 15.195-12.19 33.075-9.375 50.218 1.502 9.152 4.709 18.107 9.763 25.911 12.4 19.147 36.665 31.91 59.589 29.465 9.318-.994 9.965-1.433 18.651-3.443 2.295-.531 8.143-2.638 11.206-1.611 2.146.719 2.609 2.959 2.52 4.951-.111 2.472-.694 3.488-1.651 5.854-.95 2.349-2.543 4.899-.625 7.253.428.525.94.989 1.497 1.375.743.515 1.534.981 2.376 1.311 3.675 1.442 6.38-.854 9.277-2.795 1.135-.76 2.102-1.891 3.417-2.261.554-.156 1.031.528 1.486.88a52.859 52.859 0 0 1 3.391 2.9c3.844 3.542 7.683 7.093 11.421 10.748 23.285 22.77 45.331 44.88 67.996 68.282 5.815 6.004 11.337 12.288 17.195 18.25.799.813 3.436 1.037 4.125 1.067 6.616.288 9.642.108 16.283-.803 1.592-.218 5.542-.658 6.266-2.647.676-1.856.689-6.325.671-7.268-.085-4.685-.343-9.366-.633-14.043-.089-1.433-1.589-1.539-1.758-2.848-.255-1.977.449-6.3-1.279-7.84-.991-.884-7.542-.783-8.493-1.99-.142-.181-3.429-12.358-3.919-13.836-.361-1.091-.616-2.278-1.327-3.18-.384-.487-1.115-.583-1.724-.693-2.063-.371-4.691.654-6.188-1.364-2.035-2.745-.099-6.819-2.657-9.334-4.154-4.084-11.275-1.71-16.113-4.269-2.075-1.097-2.057-3.537-2.383-5.484-.433-2.586-.624-4.155-2.844-5.689-4.154-2.87-10.503-.779-14.01-4.826-4.017-4.635-2.828-10.671-4.255-16.162-.7-2.689-2.922-3.316-5.373-3.753-1.144-.204-3.187-.014-3.735-1.495-1.252-3.383-.224-7.079-1.049-10.519-.222-.93-.977-1.648-1.557-2.408-3.476-4.561-13.773-15.915-15.15-17.442-1.382-1.534 10.236-7.616 3.898-13.95-5.663-5.659-12.238 4.778-13.848 3.018-3.685-4.028-6.717-7.329-6.717-7.329zM82.523 55.009c11.109 0 20.129 8.724 20.129 19.47 0 10.745-9.02 19.47-20.129 19.47-11.109 0-20.128-8.725-20.128-19.47 0-10.746 9.019-19.47 20.128-19.47z" fill="url(#a)" stroke="#000" stroke-width="3.5"/><text x="241.595" y="464.449" font-family="Helvetica" font-size="20.065" fill="none" transform="rotate(-43.164 -1164.651 1540.292) scale(3.00606)">B</text><text x="241.595" y="464.449" font-family="Helvetica" font-size="20.065" fill="#fff" transform="rotate(-43.164 -1164.651 1540.292) scale(3.00606)">B</text><path d="M112.306 86.526l.117.002.115.003.119.004.114.004.12.004.116.005.117.01.114.008.12.009.114.012.118.012.115.012.116.015.117.014.116.014.117.019.114.016.116.019.115.02.118.021.114.021.12.027.138.028.133.028.133.032.13.034.134.032.13.034.131.038.13.034.13.04.13.038.13.043.127.042.13.042.126.047.129.045.126.046.128.049.126.05.124.054.126.05.123.053.124.057.124.053.121.06.124.057.12.06.12.06.122.064.121.063.117.063.12.066.116.067.117.068.117.072.117.067.115.074.114.074.115.074.114.074.113.076.11.078.11.077.112.08.108.08.11.083.11.082.109.084.105.087.108.084.104.088.105.087.104.088.103.093.104.088.1.095.102.09.101.095.1.097.098.096.1.097.098.097.095.1.097.1.094.1.11.117.106.118.105.116.104.12.103.118.102.119.1.12.099.122.098.122.096.125.094.122.096.124.09.126.091.124.09.127.087.128.087.128.084.128.085.13.08.13.081.131.08.132.076.13.076.135.073.134.074.136.072.134.068.134.068.139.066.136.066.14.063.138.06.138.059.142.057.14.057.14.055.143.053.144.05.142.05.144.048.144.044.144.044.148.042.142.04.148.038.146.036.148.036.147.033.15.031.148.028.148.029.15.025.15.025.149.02.15.021.149.019.151.014.152.017.15.01.15.012.154v.013l.091-.008.209-.019.21-.012.212-.012.208-.006.213-.002h.21l.186.004.174.006.174.01.174.01.174.013.174.019.174.018.175.02.172.025.171.025.172.029.173.03.171.034.174.035.168.04.17.04.17.04.169.049.166.045.169.053.166.05.166.054.167.058.164.06.164.061.163.065.162.063.162.071.161.071.16.073.159.073.159.078.157.08.154.08.155.082.155.086.152.088.155.09.152.092.148.092.152.096.148.097.148.1.148.1.145.103.146.107.143.104.143.109.141.11.144.114.138.113.141.115.137.12.139.116.136.124.134.121.137.123.132.128.136.128.13.13.132.131.132.132.13.134.127.136.113.12.11.123.108.123.11.122.107.127.104.125.105.124.104.129.1.129.1.128.098.131.098.13.096.134.093.135.092.132.093.135.09.135.089.139.087.137.085.138.085.14.082.14.08.139.081.143.077.142.076.143.074.145.074.145.072.147.072.147.067.147.068.146.065.15.063.15.062.149.063.15.059.152.057.152.056.153.055.155.052.153.05.154.049.157.05.155.044.157.046.158.044.157.042.159.04.156.039.161.035.16.035.161.034.159.033.163.03.16.03.163.026.164.025.163.024.162.023.164.022.165.018.164.02.167.016.162.011.13.01.126.012.13.008.128.007.13.004.127.009.128.002.13.004.128v.128l.003.13v.127l-.002.13-.002.125-.002.13-.006.13-.004.127-.009.127-.006.13-.008.127-.013.127-.01.13-.013.127-.013.127-.012.127-.017.127-.017.127-.017.127-.016.127-.022.127-.02.127-.022.127-.02.127-.026.127-.025.127-.028.124-.025.127-.028.125-.031.124-.03.127-.031.124-.032.125-.034.126-.034.122-.035.125-.036.124-.038.122-.04.124-.04.125-.039.122-.042.122-.044.124-.042.122-.045.124-.044.12-.046.121-.051.122-.049.12-.048.12-.05.121-.051.122-.053.12-.053.119-.055.117-.055.122-.057.12-.057.114-.057.12-.06.12-.06.116-.063.117-.06.118-.062.117-.064.117-.065.115-.065.114-.068.117-.07.12-.135.225-.139.23-.145.226-.148.23-.152.224-.154.223-.158.223-.162.222-.165.22-.168.22-.173.22-.175.218-.177.215-.182.215-.185.216-.188.213-.192.213-.194.21-.198.21-.2.214-.204.208-.207.206-.213.208-.21.206-.213.2-13.347 12.517-.188.164-.198.149-.209.137-.22.121-.227.105-.233.087-.24.073-.244.051-.246.037-.25.02h-.25l-.251-.016-.246-.034-.245-.054-.24-.068-.233-.086-.229-.103-.22-.12-.21-.136-.2-.147-.19-.163-.177-.176-29.596-31.556-.164-.188-.15-.2-.136-.211-.121-.217-.105-.227-.089-.234-.07-.239-.054-.246-.037-.246-.02-.25.002-.248.016-.25.036-.248.05-.245.07-.238.088-.236.1-.226.12-.22.135-.212.149-.202.163-.186.176-.177 13.561-12.719.191-.179.197-.18.2-.18.199-.174.199-.17.2-.168.202-.168.203-.161.2-.16.203-.157.207-.153.205-.15.205-.147.206-.145.207-.144.208-.138.211-.136.21-.131.209-.13.212-.125.213-.12.212-.121.216-.117.215-.114.216-.108.218-.106.218-.101.218-.101.22-.095.22-.091.222-.089.224-.086.223-.078.224-.078.226-.076.227-.069.226-.067.227-.061.23-.059.229-.054.22-.05.123-.024.115-.022.116-.022.115-.021.118-.02.113-.02.118-.015.115-.018.115-.017.116-.014.12-.013.114-.013.118-.011.115-.01.117-.01.117-.007.116-.01.117-.006.117-.003.117-.007.117-.002.117-.003.117.002.117-.003zm-.189 3.503l-.085.001-.085.002-.087.004-.083.003-.088.004-.085.006-.085.005-.083.008-.088.008-.083.008-.088.008-.085.01-.085.01-.086.014-.085.01-.086.015-.085.014-.086.014-.085.014-.086.019-.085.014-.086.019-.171.037-.172.041-.172.046-.171.045-.172.05-.172.054-.17.056-.172.059-.172.062-.17.065-.174.069-.17.073-.171.073-.175.077-.17.082-.173.084-.17.086-.172.09-.173.092-.173.097-.171.099-.172.103-.173.105-.174.109-.171.111-.172.116-.174.118-.172.12-.172.124-.174.126-.17.131-.175.135-.174.135-.17.139-.175.143-.173.145-.17.148-.175.152-.173.154-.173.158-.174.162-13.554 12.713 29.595 31.556 13.34-12.51.196-.184.186-.183.187-.183.184-.186.18-.181.177-.186.171-.182.172-.186.166-.184.163-.186.16-.186.156-.184.15-.187.151-.186.147-.187.144-.185.138-.187.137-.187.132-.19.13-.186.126-.186.123-.19.12-.189.116-.188.112-.187.054-.096.057-.094.054-.096.052-.094.052-.094.05-.097.051-.094.048-.094.05-.096.048-.094.045-.097.048-.094.045-.096.044-.095.041-.096.044-.094.041-.097.041-.096.042-.097.039-.094.037-.097.04-.094.036-.097.035-.095.035-.098.035-.095.033-.097.033-.097.033-.096.03-.095.03-.097.028-.097.029-.097.028-.097.029-.097.024-.097.025-.097.024-.097.024-.097.023-.095.022-.099.02-.097.02-.097.02-.098.018-.095.018-.1.016-.096.016-.098.016-.097.014-.1.013-.095.014-.1.012-.097.011-.097.01-.1.007-.097.01-.1.007-.098.008-.097.005-.1.005-.096.006-.1.003-.097v-.1l.004-.098.001-.1-.001-.098.001-.1-.003-.1-.001-.097-.006-.098-.003-.1-.005-.098-.003-.1-.008-.1-.007-.1-.01-.099-.007-.1-.013-.132-.017-.133-.015-.13-.017-.132-.017-.133-.021-.128-.02-.13-.021-.129-.022-.128-.025-.129-.024-.126-.028-.126-.027-.126-.03-.125-.03-.124-.03-.124-.033-.123-.034-.124-.035-.12-.036-.123-.037-.122-.038-.12-.039-.12-.04-.12-.044-.12-.043-.116-.045-.118-.045-.119-.047-.116-.05-.114-.047-.117-.05-.114-.051-.112-.054-.115-.054-.114-.054-.11-.058-.11-.056-.113-.06-.112-.06-.109-.06-.108-.063-.11-.065-.109-.064-.104-.065-.108-.067-.107-.07-.106-.07-.105-.069-.104-.073-.104-.073-.105-.075-.102-.076-.102-.077-.1-.078-.101-.078-.1-.081-.1-.082-.101-.082-.096-.084-.099-.084-.098-.087-.097-.09-.096-.086-.096-.11-.112-.104-.112-.11-.108-.105-.107-.107-.106-.11-.103-.109-.104-.11-.1-.109-.098-.107-.097-.11-.095-.112-.093-.107-.093-.112-.089-.112-.088-.11-.087-.112-.084-.113-.085-.112-.08-.112-.08-.115-.078-.112-.076-.115-.074-.112-.071-.113-.072-.117-.068-.114-.07-.115-.065-.117-.063-.115-.061-.115-.061-.117-.06-.116-.056-.117-.055-.12-.053-.115-.052-.12-.049-.117-.05-.12-.045-.117-.046-.122-.042-.118-.042-.12-.04-.122-.038-.12-.036-.122-.033-.12-.032-.12-.031-.123-.03-.123-.03-.122-.025-.123-.02-.125-.024-.122-.02-.125-.02-.123-.016-.125-.015-.125-.014-.125-.01-.125-.011-.128-.009-.125-.006-.125-.006-.126-.002h-.144l-.147.002-.149.003-.15.008-.15.01-.156.014-.156.015-.158.02-.158.02-.162.025-.165.027-.165.026-.166.033-.172.033-.171.037-.174.043-.175.042-.176.045-.182.047-.18.05-.183.056-.187.055-.187.06-.187.06-.191.064-.196.068-.194.07-.198.071-.198.074-.202.079-.2.08-.207.083.053-.149.052-.147.05-.145.049-.145.045-.146.043-.143.042-.143.041-.141.039-.14.038-.139.034-.139.034-.135.032-.137.028-.133.03-.135.025-.131.024-.134.023-.129.02-.129.018-.129.017-.127.015-.125.014-.125.01-.125.01-.12.01-.124.005-.121.004-.119.002-.121v-.232l-.004-.115-.005-.11-.003-.11-.007-.108-.007-.109-.01-.106-.011-.11-.011-.108-.014-.107-.014-.106-.015-.11-.016-.104-.018-.107-.022-.107-.018-.107-.024-.105-.022-.107-.024-.105-.027-.103-.028-.105-.029-.105-.028-.105-.033-.106-.033-.1-.033-.106-.035-.103-.04-.103-.036-.101-.04-.104-.04-.101-.04-.103-.046-.102-.045-.101-.046-.102-.046-.101-.048-.1-.05-.101-.052-.1-.052-.099-.054-.102-.054-.097-.057-.1-.06-.1-.057-.1-.062-.097-.06-.1-.064-.097-.065-.096-.065-.1-.069-.096-.067-.098-.07-.095-.07-.098-.072-.094-.073-.096-.076-.098-.076-.094-.077-.096-.08-.094-.08-.094-.082-.096-.082-.092-.084-.094-.087-.097-.086-.092-.074-.079-.078-.079-.074-.079-.079-.075-.074-.074-.078-.075-.079-.075-.076-.073-.076-.072-.081-.073-.08-.069-.08-.07-.078-.066-.08-.069-.08-.066-.082-.067-.081-.064-.083-.062-.081-.064-.083-.063-.086-.06-.08-.06-.084-.058-.085-.06-.086-.056-.085-.056-.085-.056-.086-.056-.085-.051-.088-.054-.085-.052-.088-.05-.088-.049-.088-.05-.09-.047-.087-.05-.09-.043-.09-.048-.09-.043-.09-.043-.09-.043-.093-.042-.092-.04-.09-.04-.095-.04-.092-.036-.092-.037-.095-.035-.094-.035-.095-.035-.095-.035-.094-.03-.097-.033-.095-.031-.097-.029-.097-.028-.097-.029-.099-.027-.097-.024-.099-.026-.1-.023-.096-.024-.102-.02-.099-.023-.086-.017-.085-.016-.085-.015-.084-.016-.087-.013-.084-.016-.085-.01-.085-.012-.085-.011-.087-.01-.084-.01-.085-.008-.085-.007-.085-.007-.085-.007-.087-.005-.084-.007-.085-.002-.085-.003-.085-.003H112.289l-.087-.002-.085.002zm13.672 17.996l.12.004.122.008.12.008.12.015.119.012.118.017.119.02.118.021.116.027.118.025.116.032.116.031.114.034.116.035.116.04.113.042.113.046.114.046.11.049.112.052.113.055.11.056.11.06.11.06.111.065.106.066.11.069.11.072.105.073.108.076.106.078.106.082.106.086.106.086.103.089.106.09.1.095.104.097.103.097.103.101.101.103.101.108.117.129.115.127.113.129.106.131.107.131.102.13.1.134.049.065.047.068.046.067.047.067.045.066.044.07.043.066.042.068.043.067.04.07.043.067.04.069.036.07.04.069.036.069.036.069.037.07.036.068.033.072.032.069.034.071.032.07.03.07.031.07.03.07.027.074.03.07.025.072.028.073.025.07.026.072.023.073.023.073.023.073.021.07.021.076.02.073.018.073.019.073.017.075.017.075.016.075.015.072.015.073.014.077.013.075.012.075.01.077.01.072.011.077.013.12.011.121.01.12.006.121.005.12.004.119-.001.121-.002.117-.004.119-.006.12-.008.12-.01.12-.012.12-.015.12-.017.119-.02.118-.021.118-.021.119-.027.12-.025.119-.03.118-.033.118-.034.118-.035.12-.038.118-.042.117-.042.118-.045.12-.046.118-.05.117-.051.118-.053.12-.055.116-.056.116-.062.119-.059.117-.065.12-.066.114-.07.119-.069.115-.072.117-.074.118-.076.117-.08.117-.08.116-.085.116-.084.117-.087.118-.091.114-.091.119-.093.116-.097.116-.098.116-.101.116-.102.115-.106.116-.105.116-.11.115-.11.116-.115.115-.114.116-.118.115-.119.115-.123.116-9.215 8.643-10.416-11.106 8.485-7.958.169-.154.164-.155.167-.147.164-.146.166-.144.162-.14.162-.134.161-.135.162-.131.16-.125.159-.125.159-.12.154-.116.157-.114.157-.11.154-.108.155-.103.154-.104.152-.097.152-.093.15-.091.151-.089.147-.084.15-.083.147-.076.147-.076.145-.074.144-.066.145-.065.142-.064.143-.059.142-.055.131-.049.131-.049.131-.044.134-.043.129-.038.128-.039.131-.036.129-.03.128-.03.129-.03.126-.023.126-.024.127-.02.126-.019.126-.015.125-.01.122-.012.126-.006.121-.007.126-.002h.119l.125.001zm-.201 3.499h-.053l-.054.005-.055.002-.056.003-.057.008-.06.007-.062.009-.062.008-.062.013-.066.013-.067.013-.07.017-.071.016-.071.022-.075.02-.073.024-.08.025-.077.027-.084.03-.082.03-.09.036-.086.036-.089.037-.093.042-.093.046-.097.046-.1.052-.1.054-.105.056-.106.063-.11.062-.111.067-.113.073-.117.072-.115.08-.12.079-.122.085-.124.088-.126.09-.129.095-.126.098-.13.102-.134.104-.135.11-.138.113-.135.115-.14.12-.143.124-.142.125-.144.132-.145.131-.154.144-5.926 5.559 5.626 5.999 6.657-6.243.105-.1.095-.092.094-.093.092-.09.09-.093.086-.089.084-.09.081-.09.082-.088.077-.09.075-.086.073-.085.071-.087.069-.085.066-.083.065-.085.064-.081.058-.083.058-.08.055-.08.054-.08.054-.078.047-.078.047-.077.047-.077.043-.073.04-.075.041-.071.039-.074.036-.07.034-.074.032-.067.03-.07.032-.066.027-.067.026-.066.023-.067.026-.065.019-.063.023-.063.017-.061.02-.064.016-.06.015-.06.012-.061.013-.057.012-.061.008-.057.01-.06.01-.057.007-.057.004-.057.006-.055.004-.058.004-.057v-.057l.002-.056v-.115l-.003-.06-.005-.057-.004-.057-.005-.058-.006-.06-.004-.03-.007-.038-.003-.038-.007-.039-.008-.038-.007-.039-.007-.038-.005-.037-.01-.036-.01-.04-.009-.037-.01-.037-.009-.036-.009-.037-.012-.038-.009-.037-.011-.039-.014-.036-.01-.037-.013-.036-.014-.037-.012-.038-.013-.037-.016-.039-.016-.034-.016-.04-.016-.038-.015-.034-.016-.04-.018-.036-.02-.039-.018-.037-.02-.039-.018-.036-.02-.04-.02-.038-.022-.041-.022-.037-.023-.037-.022-.041-.024-.04-.024-.038-.025-.04-.026-.04-.026-.037-.027-.042-.028-.039-.029-.043-.028-.04-.025-.034-.065-.088-.065-.082-.068-.086-.07-.083-.073-.083-.076-.085-.08-.09-.066-.066-.066-.07-.066-.066-.066-.062-.064-.059-.062-.057-.062-.053-.062-.053-.06-.051-.06-.047-.06-.046-.057-.043-.058-.04-.056-.038-.056-.038-.052-.033-.052-.034-.055-.031-.052-.03-.05-.027-.05-.023-.049-.025-.05-.022-.048-.021-.048-.02-.047-.02-.044-.016-.048-.016-.044-.012-.044-.016-.047-.01-.044-.012-.047-.01-.044-.013-.044-.007-.047-.006-.044-.008-.05-.004-.046-.005-.049-.004-.048-.004-.05-.003h-.101zm-13.891-15.739l.102.003.104.006.104.01.101.007.104.014.102.016.101.016.102.016.101.025.102.02.1.024.102.03.099.03.099.03.1.034.1.035.098.04.1.039.098.043.098.044.097.045.098.048.096.05.096.054.099.056.096.055.095.062.096.059.094.064.096.067.095.067.094.069.093.073.096.075.095.076.091.08.095.079.091.084.091.083.093.086.093.09.09.093.091.092.09.096.091.097.086.096.087.097.082.096.082.096.077.096.076.098.075.098.074.096.071.098.067.098.067.098.067.098.063.097.06.1.06.098.056.1.054.097.052.1.052.099.048.1.046.096.045.102.044.099.04.1.037.1.037.101.035.1.033.1.03.1.027.102.029.101.024.1.02.101.023.103.018.103.015.1.014.103.012.1.011.105.008.1.007.104.005.103.001.102.001.102v.104l-.006.104-.006.104-.007.102-.01.104-.012.106-.014.103-.018.104-.016.106-.023.103-.02.106-.025.106-.027.103-.026.108-.031.103-.031.107-.034.106-.037.105-.037.105-.026.07-.028.066-.027.068-.026.069-.03.07-.032.066-.03.07-.032.066-.032.072-.034.069-.07.14-.075.14-.079.14-.08.142-.086.142-.09.142-.092.143-.096.144-.1.144-.105.147-.106.146-.112.15-.117.147-.117.147-.122.151-.128.15-.13.15-.133.153-.139.151-.139.155-.145.153-.148.155-.154.156-.155.155-.159.156-.164.159-.169.158-7.775 7.292-9.168-9.774 7.626-7.153.174-.162.173-.158.17-.152.167-.152.168-.146.167-.143.164-.142.161-.135.164-.133.16-.129.157-.122.157-.123.152-.118.155-.112.15-.113.152-.105.148-.102.146-.1.146-.095.143-.093.14-.087.144-.085.139-.08.136-.079.136-.07.135-.072.131-.066.132-.062.127-.057.13-.056.127-.049.125-.047.11-.041.11-.037.107-.035.11-.032.108-.029.108-.03.109-.025.107-.026.107-.022.107-.018.107-.018.109-.015.105-.012.106-.013.105-.008.106-.01.105-.002.104-.003.106-.001.105.001zm-.155 3.5l-.034-.001-.034.003-.036.001-.037.005-.038.003-.039.003-.038.008-.043.007-.043.007-.045.01-.042.01-.048.012-.047.011-.051.015-.052.016-.051.015-.054.017-.05.018-.053.022-.058.021-.063.03-.067.03-.076.034-.077.04-.08.042-.087.044-.09.052-.094.055-.098.058-.1.06-.104.07-.108.068-.111.076-.115.079-.118.085-.12.088-.124.092-.126.094-.129.1-.13.106-.136.106-.138.113-.138.117-.142.12-.146.126-.147.129-.149.135-.153.136-.151.142-.16.15-5.07 4.754 4.378 4.668 5.219-4.894.15-.144.14-.136.136-.132.134-.133.125-.13.125-.13.121-.126.117-.126.11-.124.109-.122.101-.12.1-.118.095-.114.09-.114.087-.11.082-.11.078-.106.076-.104.07-.102.066-.1.063-.096.058-.096.056-.09.05-.087.047-.086.043-.082.046-.088.013-.029.018-.038.017-.04.016-.035.016-.036.014-.033.013-.034.014-.033.014-.03.01-.03.018-.054.019-.05.014-.051.017-.048.014-.047.01-.046.012-.044.012-.045.008-.044.007-.04.008-.04.003-.04.008-.04.003-.037.006-.038.003-.036v-.036l.003-.036V102.386l-.001-.031-.001-.037-.002-.032-.003-.034-.003-.034-.005-.032-.005-.036-.006-.032-.005-.037-.007-.034-.008-.034-.01-.037-.009-.036-.01-.037-.01-.038-.014-.037-.014-.04-.014-.041-.015-.04-.016-.042-.02-.043-.02-.044-.02-.043-.024-.047-.022-.046-.026-.05-.028-.047-.026-.05-.03-.05-.033-.052-.034-.054-.037-.052-.036-.057-.04-.056-.042-.057-.044-.057-.043-.059-.05-.06-.048-.062-.052-.059-.055-.063-.055-.064-.056-.063-.062-.066-.06-.064-.059-.059-.058-.057-.057-.057-.056-.055-.056-.05-.054-.05-.056-.046-.053-.044-.052-.042-.052-.042-.048-.038-.05-.035-.05-.036-.045-.031-.046-.032-.044-.029-.046-.027-.041-.027-.042-.022-.04-.02-.04-.02-.04-.021-.037-.019-.036-.016-.035-.016-.034-.013-.036-.012-.033-.014-.032-.012-.034-.01-.03-.009-.03-.007-.032-.008-.03-.009-.03-.005-.03-.005-.029-.006-.032-.003-.03-.005h-.029l-.032-.004-.03-.001-.031-.003h-.032l-.032.002z"/><path d="M129.829 141.314l134.015 135.427M141.68 131.161L276.777 263.16" fill="none" stroke="#000" stroke-width="3"/><defs><radialGradient id="a" cx="0" cy="0" r="1" gradientUnits="userSpaceOnUse" gradientTransform="matrix(94.4098 35.956 -36.951 97.0224 142.149 88.492)"><stop offset="0%" stop-color="gold"/><stop offset="100%" stop-color="#ffee95"/></radialGradient></defs></svg>