<svg viewBox="0 0 300 300" xmlns="http://www.w3.org/2000/svg" fill-rule="evenodd" clip-rule="evenodd" stroke-linecap="round" stroke-linejoin="round" stroke-miterlimit="1.414"><path d="M168.057 120.019c-.412-.618.203-1.476.392-2.194.443-1.694 1.054-3.34 1.499-5.032 1.941-7.373 2.981-14.855 3.27-22.502 2.545-67.128-95.397-93.107-129.526-32.472-8.553 15.194-12.19 33.074-9.375 50.218 1.502 9.152 4.709 18.107 9.763 25.91 12.4 19.147 36.665 31.91 59.589 29.465 9.318-.994 9.965-1.433 18.651-3.443 2.295-.531 8.143-2.637 11.206-1.611 2.146.719 2.609 2.96 2.52 4.951-.111 2.472-.694 3.489-1.651 5.854-.95 2.35-2.543 4.9-.625 7.253.428.525.94.989 1.497 1.375.743.516 1.534.981 2.376 1.312 3.676 1.441 6.38-.854 9.277-2.796 1.135-.76 2.103-1.891 3.417-2.261.554-.156 1.031.528 1.486.881a52.843 52.843 0 0 1 3.391 2.899c3.844 3.543 7.683 7.093 11.421 10.748 23.285 22.771 45.331 44.88 67.996 68.283 5.815 6.003 11.338 12.288 17.196 18.249.798.813 3.435 1.037 4.125 1.067 6.615.288 9.641.108 16.282-.803 1.592-.218 5.543-.657 6.266-2.646.676-1.857.689-6.325.671-7.269-.085-4.684-.94-28.259-2.394-28.758-3.925-1.344-12.034-4.188-12.524-5.667-.361-1.09-1.78-8.41-2.491-9.312-.384-.487-1.115-.583-1.724-.692-2.063-.372-4.691.653-6.187-1.364-2.036-2.746-3.176-12.969-5.968-17.678-3.238-5.461-19.604-3.289-21.824-4.823-4.154-2.87 1.426-12.355-2.081-16.401-4.017-4.635-10.963-1.372-12.39-6.862-.699-2.689 1.043-7.551.494-9.032-1.252-3.382-9.826-3.296-10.651-6.736-.222-.929-.977-1.648-1.557-2.408-3.476-4.561-13.773-15.915-15.15-17.442-1.382-1.534 10.236-7.616 3.898-13.949-5.663-5.66-12.238 4.777-13.848 3.017-3.685-4.027-6.717-7.329-6.717-7.329zM83.995 53.271c11.109 0 20.129 8.724 20.129 19.47 0 10.746-9.02 19.47-20.129 19.47-11.109 0-20.128-8.724-20.128-19.47 0-10.746 9.019-19.47 20.128-19.47z" fill="url(#a)" stroke="#000" stroke-width="3.5"/><path d="M129.829 141.314l133.618 135.101M141.68 131.161l137.706 136.374" fill="none" stroke="#000" stroke-width="3"/><path d="M68.206 136.62l6.234-5.854c1.232-1.156 2.552-1.742 3.96-1.756 1.406-.014 2.702.609 3.882 1.866 1.017 1.082 1.564 2.339 1.643 3.773.081 1.434-.579 2.806-1.974 4.116l-4.358 4.092 5.501 5.859-1.876 1.762-13.012-13.857zm9.108-4.966c-.596.194-1.259.632-1.982 1.31l-3.735 3.508 4.509 4.801 3.735-3.507c.842-.792 1.357-1.613 1.547-2.465.19-.851-.143-1.729-.994-2.635-.955-1.018-1.983-1.355-3.08-1.012zM93.315 124.99c.88-.827 1.411-1.656 1.594-2.491.182-.834-.16-1.71-1.02-2.627-.927-.987-1.92-1.323-2.971-1.009-.561.171-1.162.558-1.805 1.162l-4.583 4.303 4.447 4.736 4.338-4.073zm-12.177-.513l6.413-6.021c1.057-.993 2.072-1.656 3.049-1.992 1.855-.63 3.532-.151 5.025 1.438.78.83 1.245 1.672 1.4 2.521.153.851.07 1.725-.243 2.625.748-.289 1.426-.382 2.036-.278.61.1 1.309.538 2.095 1.314l1.81 1.797c.517.51.93.861 1.24 1.054.528.336.994.428 1.402.284l.292.31-2.302 2.162a2.48 2.48 0 0 1-.584-.32c-.214-.155-.59-.489-1.123-1.007l-2.283-2.204c-.893-.864-1.8-1.157-2.717-.874-.52.167-1.162.612-1.928 1.332l-4.273 4.012 5.58 5.942-1.877 1.762-13.012-13.857zM95.286 111.192l1.897-1.78 13.011 13.857-1.896 1.78zM101.325 105.522l15.06 8.064-7.147-15.494 2.103-1.975 7.956 18.604-1.99 1.87-18.059-9.119 2.077-1.95zM127.906 95.952l-7.852-4.147 3.514 8.22 4.338-4.073zm-10.764-5.282l2.123-1.994 18.039 9.137-2.057 1.931-5.302-2.832-5.48 5.146 2.397 5.56-1.924 1.807-7.796-18.755zM136.084 72.884l1.55 1.651-4.669 4.384 11.462 12.206-1.906 1.79-11.461-12.207-4.669 4.384-1.55-1.651 11.243-10.557zM137.98 71.103l10.102-9.486 1.595 1.699-8.273 7.768 3.95 4.207 7.65-7.183 1.505 1.602-7.65 7.183 4.412 4.698 8.414-7.901 1.55 1.651-10.243 9.62-13.012-13.858z" fill="none"/><path d="M68.206 136.62l6.234-5.854c1.232-1.156 2.552-1.742 3.96-1.756 1.406-.014 2.702.609 3.882 1.866 1.017 1.082 1.564 2.339 1.643 3.773.081 1.434-.579 2.806-1.974 4.116l-4.358 4.092 5.501 5.859-1.876 1.762-13.012-13.857zm9.108-4.966c-.596.194-1.259.632-1.982 1.31l-3.735 3.508 4.509 4.801 3.735-3.507c.842-.792 1.357-1.613 1.547-2.465.19-.851-.143-1.729-.994-2.635-.955-1.018-1.983-1.355-3.08-1.012zM93.315 124.99c.88-.827 1.411-1.656 1.594-2.491.182-.834-.16-1.71-1.02-2.627-.927-.987-1.92-1.323-2.971-1.009-.561.171-1.162.558-1.805 1.162l-4.583 4.303 4.447 4.736 4.338-4.073zm-12.177-.513l6.413-6.021c1.057-.993 2.072-1.656 3.049-1.992 1.855-.63 3.532-.151 5.025 1.438.78.83 1.245 1.672 1.4 2.521.153.851.07 1.725-.243 2.625.748-.289 1.426-.382 2.036-.278.61.1 1.309.538 2.095 1.314l1.81 1.797c.517.51.93.861 1.24 1.054.528.336.994.428 1.402.284l.292.31-2.302 2.162a2.48 2.48 0 0 1-.584-.32c-.214-.155-.59-.489-1.123-1.007l-2.283-2.204c-.893-.864-1.8-1.157-2.717-.874-.52.167-1.162.612-1.928 1.332l-4.273 4.012 5.58 5.942-1.877 1.762-13.012-13.857zM95.286 111.192l1.897-1.78 13.011 13.857-1.896 1.78zM101.325 105.522l15.06 8.064-7.147-15.494 2.103-1.975 7.956 18.604-1.99 1.87-18.059-9.119 2.077-1.95zM127.906 95.952l-7.852-4.147 3.514 8.22 4.338-4.073zm-10.764-5.282l2.123-1.994 18.039 9.137-2.057 1.931-5.302-2.832-5.48 5.146 2.397 5.56-1.924 1.807-7.796-18.755zM136.084 72.884l1.55 1.651-4.669 4.384 11.462 12.206-1.906 1.79-11.461-12.207-4.669 4.384-1.55-1.651 11.243-10.557zM137.98 71.103l10.102-9.486 1.595 1.699-8.273 7.768 3.95 4.207 7.65-7.183 1.505 1.602-7.65 7.183 4.412 4.698 8.414-7.901 1.55 1.651-10.243 9.62-13.012-13.858z" fill="#fff" fill-rule="nonzero"/><path d="M78.568 127.01l.095.004.095.003.093.004.093.009.095.006.092.01.094.01.094.012.093.015.093.012.09.017.095.017.091.02.093.02.091.02.091.024.091.024.091.024.09.027.088.028.093.03.087.03.09.031.086.033.09.034.086.036.087.035.085.04.087.038.087.041.083.042.085.043.083.041.084.045.083.049.081.046.081.047.082.05.081.05.08.052.079.052.08.055.077.054.08.055.075.056.076.058.076.06.077.06.076.059.074.06.073.064.074.064.072.062.072.066.072.066.074.067.07.068.068.069.072.07.069.068.068.073.071.076.12.127.117.133.114.136.11.135.11.14.106.14.101.141.1.146.095.146.093.149.088.15.085.152.084.154.078.156.076.157.07.16.068.158.064.163.06.162.056.166.053.165.048.168.046.169.042.168.037.17.035.173.03.17.026.174.023.173.017.175.018.175.012.173.004.103.002.097.002.1v.2l-.004.098-.007.099-.006.098-.007.099-.01.098-.012.1-.014.099-.013.098-.016.096-.017.099-.02.098-.02.096-.022.096-.024.098-.026.096-.028.095-.027.094-.03.096-.031.094-.033.093-.035.094-.036.092-.036.092-.039.094-.04.089-.04.092-.045.09-.043.089-.045.09-.047.089-.047.088-.048.087-.05.088-.051.085-.052.086-.054.085-.055.086-.056.083-.057.085-.06.083-.058.082-.061.081-.06.081-.065.081-.064.081-.064.08-.066.08-.066.079-.068.077-.07.079-.07.077-.072.077-.071.077-.073.076-.075.077-.074.073-.077.075-.076.075-.075.07-2.902 2.726 4.13 4.4.086.098.081.105.073.11.065.113.058.116.049.121.044.123.033.127.026.13.019.128.006.131v.13l-.008.13-.015.13-.027.129-.034.127-.04.124-.052.12-.057.118-.065.113-.072.109-.08.105-.087.1-.091.091-1.877 1.763-.1.086-.102.08-.11.072-.113.065-.117.059-.123.05-.121.042-.128.035-.128.024-.13.02-.132.007h-.13l-.13-.008-.128-.016-.13-.026-.126-.035-.124-.041-.122-.05-.116-.058-.114-.064-.109-.072-.103-.08-.1-.088-.092-.091-13.012-13.858-.085-.097-.081-.105-.073-.107-.067-.114-.056-.119-.05-.12-.043-.124-.033-.126-.027-.128-.016-.13-.01-.13v-.13l.008-.13.017-.132.027-.128.032-.126.043-.126.05-.118.058-.12.065-.112.072-.11.08-.104.085-.098.095-.092 6.24-5.86.134-.126.145-.13.145-.122.147-.12.148-.119.148-.112.078-.059.076-.054.077-.056.078-.052.077-.052.078-.052.079-.05.077-.05.081-.048.079-.047.079-.047.08-.045.082-.045.08-.045.083-.043.082-.04.083-.043.082-.04.084-.038.084-.038.084-.038.084-.034.084-.034.087-.035.086-.032.084-.031.087-.03.087-.028.088-.03.085-.026.09-.026.088-.025.087-.024.09-.022.088-.022.09-.02.087-.02.09-.016.091-.017.089-.015.09-.016.09-.013.09-.01.091-.013.09-.01.092-.007.092-.008.09-.006.092-.004.092-.004.09-.002.093-.003h.186zm-.167 2l-.067.001-.066.004-.067.001-.065.003-.064.005-.067.005-.063.005-.066.007-.064.009-.065.01-.064.008-.065.01-.066.011-.064.012-.064.012-.062.014-.064.016-.064.015-.064.016-.064.016-.064.019-.062.017-.062.021-.064.02-.063.02-.064.023-.06.023-.063.024-.063.025-.062.024-.063.028-.06.026-.063.028-.063.028-.06.03-.061.03-.063.032-.06.031-.06.034-.061.033-.063.035-.06.035-.06.037-.061.037-.06.038-.06.04-.059.038-.06.04-.06.042-.06.043-.06.042-.059.042-.12.091-.117.094-.117.097-.116.098-.116.106-.117.105-6.234 5.855 13.012 13.857 1.876-1.762-5.501-5.859 4.358-4.092.065-.061.064-.06.064-.063.062-.062.058-.062.062-.061.057-.063.058-.062.055-.062.056-.063.053-.06.053-.064.054-.063.05-.062.049-.062.05-.064.047-.062.046-.064.046-.063.045-.063.042-.063.043-.064.04-.062.04-.064.038-.065.04-.064.037-.062.035-.064.034-.066.034-.062.032-.064.032-.065.03-.066.03-.062.027-.066.028-.065.025-.064.025-.065.025-.064.023-.066.022-.065.02-.066.02-.063.017-.068.018-.065.014-.065.017-.066.014-.065.013-.067.012-.066.011-.065.01-.067.009-.066.007-.065.006-.067.007-.065.004-.069.004-.065.002-.067v-.134l-.001-.067-.001-.067-.005-.067-.009-.133-.011-.132-.014-.135-.018-.129-.02-.13-.022-.129-.024-.127-.03-.126-.029-.126-.035-.125-.035-.124-.04-.123-.042-.122-.044-.12-.047-.119-.05-.118-.052-.118-.058-.116-.056-.115-.06-.114-.065-.113-.066-.114-.07-.111-.073-.11-.074-.108-.077-.108-.08-.107-.083-.106-.085-.105-.088-.105-.092-.102-.094-.103-.054-.059-.057-.056-.056-.056-.057-.057-.054-.054-.057-.053-.056-.053-.057-.053-.058-.051-.055-.051-.058-.048-.057-.05-.059-.047-.056-.046-.057-.046-.059-.044-.058-.044-.057-.042-.059-.041-.058-.04-.059-.041-.06-.04-.06-.036-.058-.038-.059-.037-.06-.035-.06-.034-.06-.035-.06-.032-.06-.03-.06-.032-.061-.028-.06-.029-.062-.028-.062-.027-.06-.026-.06-.025-.063-.023-.063-.023-.06-.021-.064-.024-.062-.02-.061-.02-.063-.017-.061-.017-.065-.018-.061-.015-.065-.014-.063-.016-.063-.013-.065-.01-.065-.011-.061-.011-.065-.007-.065-.011-.064-.006-.065-.007-.065-.004-.066-.006-.066-.003-.063-.002-.067-.002h-.065l-.065-.001zm-.228 2.514l.05.001.05.002.05.003.05.005.049.005.047.007.05.007.05.009.047.01.05.009.048.012.05.012.046.014.048.013.048.016.05.016.046.017.05.02.048.018.047.021.047.021.048.023.046.022.05.025.045.026.047.024.046.028.049.03.047.028.046.031.047.032.046.031.045.033.047.035.046.035.047.035.046.039.045.036.046.042.046.039.045.04.045.044.046.042.046.045.044.044.045.047.044.048.08.085.073.085.074.085.067.083.068.084.063.085.059.084.057.083.054.083.052.084.047.083.045.084.041.08.038.085.036.082.033.082.03.082.027.084.022.082.022.082.015.081.015.082.011.081.005.04.004.042.004.04v.04l.002.04v.04l.001.04-.001.043-.001.039-.003.04-.003.04-.003.041-.005.039-.007.04-.006.04-.007.04-.006.041-.009.039-.02.08-.02.08-.022.08-.025.078-.026.078-.027.08-.032.079-.03.08-.035.077-.036.078-.038.08-.041.076-.04.078-.044.076-.045.08-.048.076-.048.076-.052.076-.054.078-.055.075-.055.076-.06.078-.06.075-.062.076-.066.075-.066.076-.07.075-.07.074-.073.075-.073.075-.076.076-.078.073-3.735 3.507-4.509-4.801 3.735-3.507.067-.063.07-.062.065-.061.067-.056.067-.06.065-.054.065-.055.065-.054.065-.05.065-.052.064-.049.063-.045.063-.046.063-.046.061-.043.063-.043.062-.04.06-.037.064-.038.059-.036.06-.035.06-.033.06-.032.06-.03.058-.03.059-.028.059-.024.055-.025.059-.024.057-.02.055-.02.057-.02.052-.015.05-.016.051-.014.052-.01.051-.015.05-.009.052-.01.05-.008.05-.009.052-.007.051-.004.05-.005.05-.002.05-.004.05-.002.05-.002.048.002zm-.054 2H78.1l-.012.002h-.011l-.01.002-.013.002-.014.003-.013.001-.016.002-.014.003-.016.004-.016.005-.017.003-.016.005-.008.003-.009.002-.017.006-.02.008-.021.01-.025.01-.025.01-.027.015-.029.013-.03.015-.031.018-.032.017-.034.018-.036.024-.038.022-.036.023-.041.025-.04.027-.041.029-.044.03-.043.034-.045.032-.045.036-.05.035-.048.04-.047.04-.05.041-.051.044-.051.044-.053.046-.054.048-.055.051-.058.055-2.272 2.134 1.769 1.884 2.27-2.133.066-.061.056-.053.055-.055.05-.054.052-.055.047-.052.046-.053.044-.051.042-.05.042-.05.039-.05.035-.05.035-.046.031-.047.032-.047.03-.045.025-.045.027-.045.024-.043.022-.041.02-.04.022-.04.017-.04.017-.04.015-.039.015-.038.014-.036.012-.035.01-.037.011-.035.008-.035.01-.037-.001-.002.002-.005.001-.001v-.004l-.001-.002v-.003l.002-.002v-.018l-.001-.001v-.007l-.001-.016-.004-.011-.001-.012-.005-.016-.005-.016-.004-.02-.01-.021-.01-.025-.011-.027-.014-.029-.016-.032-.017-.036-.022-.034-.025-.041-.025-.042-.03-.043-.034-.047-.036-.049-.04-.05-.043-.053-.046-.052-.049-.057-.054-.061-.028-.026-.029-.03-.027-.03-.028-.025-.027-.026-.026-.024-.025-.023-.026-.024-.026-.02-.024-.022-.024-.018-.024-.019-.02-.018-.023-.017-.022-.016-.023-.013-.019-.013-.019-.013-.019-.013-.019-.01-.017-.01-.018-.012-.017-.007-.016-.01-.015-.005-.014-.008-.016-.006-.014-.007-.012-.006-.012-.002-.012-.006-.01-.004-.015-.004-.008-.002-.01-.003-.011-.004h-.01l-.01-.003-.008-.002-.01-.002-.008-.002h-.01l-.01-.002-.008.001-.009-.002h-.038z"/><path d="M92.237 114.196l.121.002.124.007.12.008.122.01.122.013.119.014.121.02.121.02.117.023.12.025.12.027.118.03.117.033.117.034.117.037.115.039.115.042.113.045.111.045.113.048.11.051.111.053.11.054.107.057.11.058.103.06.107.063.102.065.104.066.104.067.1.07.102.072.098.072.098.075.096.078.098.078.095.08.094.082.093.084.092.084.093.087.089.087.09.09.089.09.087.093.09.097.089.098.087.1.085.097.081.101.083.1.08.103.076.103.076.103.075.104.072.107.07.104.068.108.067.108.065.11.062.109.06.111.06.111.055.113.052.115.053.114.05.114.045.118.046.118.042.118.04.12.035.12.035.121.032.121.03.123.026.122.024.12.02.116.015.115.018.113.012.115.012.115.01.113.001.034.072.011.112.021.12.025.115.028.115.032.112.035.11.037.11.04.108.043.106.048.104.045.103.05.102.052.099.054.1.056.097.056.097.06.095.06.095.065.093.063.093.067.093.07.092.068.09.071.09.074.091.075.09.077.089.076.089.08.09.081.088.084.09.084.085.084 1.813 1.8.088.086.084.078.077.075.077.071.07.068.067.06.065.055.06.053.055.047.053.043.045.036.043.032.036.027.03.02.024.015.03.023.084-.014.134-.013.134-.003.134.008.134.015.133.021.13.033.129.043.125.05.12.058.116.065.114.074.107.081.1.09.097.094.291.311.09.103.083.107.074.115.067.119.062.123.05.127.04.13.033.133.024.135.013.134.007.138-.005.137-.013.136-.023.135-.033.133-.04.129-.05.127-.06.123-.065.12-.074.114-.083.108-.09.105-.096.098-2.301 2.16-.104.091-.108.081-.115.078-.12.065-.124.061-.129.049-.13.043-.135.031-.134.024-.135.014-.14.004-.136-.004-.138-.015-.135-.024-.132-.032-.13-.043-.055-.02-.079-.028-.075-.033-.074-.032-.073-.034-.078-.04-.127-.065-.133-.077-.128-.078-.125-.081-.124-.085-.08-.059-.075-.059-.076-.059-.075-.062-.076-.062-.079-.07-.154-.135-.167-.152-.178-.164-.19-.18-.198-.194-2.277-2.199-.06-.057-.05-.045-.05-.042-.046-.039-.047-.035-.04-.031-.04-.03-.039-.022-.034-.022-.033-.02-.038-.02-.007-.003-.012-.006-.013-.005-.012-.006-.012-.006-.01-.004-.01-.003-.01-.006-.008-.002-.009-.002-.007-.004-.009-.002h-.007l-.005-.002-.005-.002h-.007l-.005-.002h-.004l-.005-.002h-.011l-.005-.002h-.011l-.001.001h-.007l-.006.001h-.003l-.005-.002-.006.002-.005.001h-.004l-.005.002h-.007l-.007.003h-.007l-.007.003-.006.002-.01.006-.013.005-.018.007-.018.01-.023.011-.023.012-.027.015-.029.017-.03.018-.033.02-.036.024-.036.023-.04.027-.038.03-.043.03-.043.03-.045.036-.049.035-.047.037-.05.041-.051.04-.053.047-.052.042-.115.1-.116.106-.127.116-2.81 2.639 4.212 4.485.092.102.08.108.077.114.066.118.06.125.05.127.04.13.035.132.024.134.012.136.006.138-.003.136-.014.137-.022.133-.033.133-.04.131-.05.125-.06.124-.066.121-.074.114-.083.108-.088.103-.097.098-1.876 1.762-.103.09-.11.083-.114.076-.119.067-.123.057-.127.051-.13.044-.131.03-.135.025-.136.015-.136.004-.137-.004-.138-.015-.133-.022-.133-.032-.13-.041-.128-.048-.123-.059-.12-.069-.114-.074-.11-.08-.101-.09-.098-.097-13.011-13.857-.09-.103-.084-.107-.074-.115-.066-.119-.062-.123-.05-.127-.04-.13-.033-.133-.024-.135-.014-.134-.006-.138.006-.136.013-.135.022-.137.033-.133.04-.127.05-.129.06-.123.065-.12.074-.114.082-.108.09-.105.098-.096 6.417-6.025.109-.102.112-.102.113-.102.112-.1.114-.096.114-.097.114-.093.112-.092.116-.092.116-.088.114-.086.115-.084.115-.085.116-.08.117-.08.115-.078.119-.073.117-.076.118-.07.119-.07.118-.067.119-.067.122-.063.12-.062.122-.06.12-.057.123-.055.123-.054.123-.05.125-.05.124-.047.128-.045.123-.04.116-.037.117-.036.12-.033.118-.03.12-.03.118-.026.12-.024.121-.02.12-.022.121-.017.12-.017.123-.012.122-.013.122-.008.12-.007.122-.005.121-.001.122.002zm-.197 2l-.083.003-.081.004-.083.006-.085.008-.083.01-.083.01-.087.013-.084.013-.083.017-.087.016-.085.019-.085.022-.086.022-.087.024-.085.025-.087.027-.086.03-.093.032-.09.034-.093.036-.092.037-.094.041-.091.042-.093.043-.094.046-.093.05-.095.048-.093.054-.094.053-.095.055-.093.057-.095.059-.096.062-.095.062-.096.066-.095.066-.096.07-.097.07-.096.073-.098.074-.095.077-.1.08-.096.08-.098.08-.097.086-.1.087-.098.088-.098.089-.1.094-6.413 6.021 13.012 13.857 1.877-1.762-5.58-5.942 4.273-4.012.141-.133.14-.124.138-.12.065-.057.067-.056.067-.053.063-.053.065-.05.064-.05.063-.045.063-.046.06-.045.06-.04.06-.043.06-.039.057-.037.058-.037.057-.033.058-.034.054-.03.055-.028.054-.03.054-.026.052-.025.051-.021.052-.022.05-.02.05-.019.05-.016.043-.013.042-.013.043-.009.044-.01.043-.01.043-.01.04-.007.045-.007.042-.006.043-.006.044-.003.042-.003.044-.004.043-.002h.127l.042.002.042.001.044.004.042.004.043.005.042.005.044.007.043.006.042.009.043.008.041.012.044.01.042.012.042.012.044.014.042.012.042.015.043.017.042.016.043.017.042.019.042.019.043.02.042.02.042.022.084.047.085.047.085.053.083.056.086.059.083.062.086.067.082.07.085.07.083.08.084.078 2.283 2.204.193.185.178.167.163.152.147.135.132.119.062.051.055.048.055.044.05.038.047.035.04.033.082.054.076.052.076.044.075.043.07.04.037.017.035.015.035.015.033.013.033.014.033.013 2.302-2.161-.292-.31-.038.01-.039.013-.039.01-.039.009-.04.007-.04.006-.04.004-.043.002-.039.003H104.924l-.042-.004-.044-.003-.043-.005-.043-.007-.042-.008-.044-.01-.044-.01-.045-.013-.046-.015-.045-.016-.045-.015-.047-.018-.046-.019-.047-.02-.048-.023-.045-.023-.049-.026-.049-.026-.048-.026-.048-.03-.05-.032-.06-.037-.062-.04-.063-.047-.068-.05-.07-.053-.07-.057-.075-.06-.075-.062-.08-.07-.08-.071-.084-.075-.085-.08-.088-.082-.09-.086-.093-.091-.097-.093-1.81-1.797-.074-.071-.072-.07-.074-.067-.072-.066-.07-.064-.072-.062-.07-.06-.07-.059-.068-.055-.07-.053-.068-.053-.069-.048-.067-.05-.067-.046-.066-.045-.065-.04-.066-.041-.064-.04-.064-.035-.064-.035-.063-.03-.062-.03-.065-.03-.059-.026-.063-.023-.059-.023-.06-.021-.06-.02-.06-.016-.057-.014-.058-.01-.058-.011-.058-.01-.058-.008-.058-.007-.06-.005-.058-.004-.058-.004-.06-.002-.06-.001h-.061l-.06.001-.062.003-.062.004-.063.005-.062.007-.064.005-.064.008-.063.009-.064.012-.066.01-.064.012-.065.014-.066.017-.066.014-.067.02-.066.017-.068.019-.067.022-.07.02-.068.023-.069.025-.07.024-.07.028.028-.084.03-.085.025-.083.025-.085.022-.082.024-.084.02-.084.019-.082.017-.085.018-.082.015-.082.013-.084.013-.081.01-.084.01-.081.008-.083.007-.082.007-.081.002-.081.004-.083.001-.08.001-.082-.001-.081-.004-.082-.003-.079-.005-.081-.008-.082-.01-.08-.008-.08-.011-.078-.012-.082-.013-.08-.017-.08-.017-.08-.019-.078-.02-.08-.022-.078-.024-.08-.028-.08-.029-.079-.03-.078-.03-.08-.033-.079-.036-.079-.038-.08-.038-.077-.042-.08-.043-.08-.045-.077-.047-.08-.047-.078-.05-.08-.053-.077-.054-.079-.055-.078-.056-.077-.061-.08-.06-.077-.064-.08-.064-.076-.067-.078-.068-.08-.071-.076-.072-.08-.07-.07-.07-.075-.072-.07-.072-.069-.07-.067-.072-.066-.07-.064-.072-.062-.074-.06-.072-.06-.072-.058-.073-.055-.074-.053-.074-.054-.072-.051-.077-.049-.072-.048-.074-.046-.077-.045-.074-.043-.076-.041-.075-.04-.076-.037-.077-.038-.076-.034-.078-.032-.077-.03-.077-.032-.078-.028-.079-.026-.078-.025-.077-.024-.079-.022-.078-.018-.08-.02-.078-.017-.082-.015-.08-.014-.078-.012-.08-.01-.082-.009-.08-.006-.083-.004-.081-.006-.083-.001-.083-.001h-.081zm-.345 2.552l.05.002.045.001.048.004.05.005.047.003.047.007.047.006.048.007.045.009.048.01.047.01.045.012.05.012.045.012.045.016.049.016.045.015.047.018.046.019.045.019.047.02.045.02.045.022.049.023.043.024.047.024.045.027.045.026.047.028.045.03.044.029.045.03.043.03.045.034.045.033.047.035.043.035.044.037.045.036.045.037.044.04.045.04.042.042.043.042.09.087.086.09.079.087.076.085.073.085.07.085.068.087.064.083.061.083.057.086.056.085.05.083.05.082.045.085.044.082.04.082.035.083.033.082.031.084.027.08.026.082.019.081.02.08.015.082.01.08.006.039.004.04.004.04v.041l.004.041v.039l.001.039v.04l-.002.04-.001.04-.003.04-.005.039-.003.04-.005.039-.007.04-.006.037-.007.04-.008.039-.018.078-.02.077-.022.08-.025.078-.026.078-.029.079-.03.076-.033.078-.034.077-.038.08-.037.076-.042.08-.04.076-.046.08-.046.078-.05.078-.05.077-.054.078-.053.078-.057.077-.061.078-.06.077-.063.08-.064.077-.068.077-.071.077-.07.079-.074.077-.075.077-.077.078-.08.075-.081.08-4.338 4.074-4.447-4.736 4.583-4.303.06-.057.062-.054.058-.055.06-.053.06-.049.059-.05.058-.047.058-.047.058-.048.057-.044.056-.042.06-.042.058-.04.056-.04.055-.038.058-.037.056-.036.056-.035.055-.032.056-.031.055-.032.056-.028.056-.028.053-.027.054-.027.055-.024.054-.023.052-.022.055-.02.052-.018.053-.02.054-.016.048-.014.05-.013.05-.012.049-.013.048-.01.05-.01.047-.007.05-.009.048-.007.048-.004.05-.006.047-.003.05-.002.045-.002.05-.002h.047zm-.038 2.002H91.63l-.008.002-.013.002h-.01l-.011.002-.012.002-.015.003-.01.003-.014.003-.016.005-.015.003-.009.002-.009.005-.014.003-.018.006-.017.007-.02.008-.02.008-.021.01-.023.012-.024.011-.025.013-.027.015-.028.014-.03.016-.03.019-.03.018-.033.02-.032.024-.036.024-.036.023-.036.027-.036.027-.04.027-.038.033-.04.03-.043.034-.04.034-.043.037-.046.036-.041.04-.046.038-.045.043-.05.046-3.124 2.934 1.708 1.818 2.877-2.702.068-.063.06-.06.06-.06.056-.056.055-.058.05-.055.05-.056.048-.055.046-.054.042-.053.04-.051.039-.05.037-.052.033-.048.033-.049.032-.046.028-.047.027-.043.025-.044.022-.041.023-.042.017-.04.019-.038.018-.038.014-.037.015-.035.012-.034.01-.034.011-.031.008-.031.008-.032.008-.031V122.05l-.002-.016-.002-.009-.003-.01-.003-.015-.006-.017-.005-.02-.008-.023-.01-.025-.013-.029-.015-.03-.017-.032-.02-.036-.021-.038-.026-.041-.03-.044-.03-.046-.036-.05-.037-.05-.04-.05-.046-.056-.048-.055-.051-.058-.055-.058-.056-.06-.056-.056-.023-.02-.025-.024-.026-.024-.024-.022-.026-.02-.022-.02-.023-.017-.022-.02-.022-.016-.021-.015-.02-.015-.021-.015-.02-.012-.018-.013-.018-.012-.017-.01-.017-.012-.018-.007-.015-.01-.014-.007-.014-.008-.016-.005-.012-.006-.012-.006-.012-.005-.012-.006-.01-.004-.013-.002-.01-.004-.01-.002-.01-.004-.008-.002-.01-.002-.008-.002-.005-.002-.009-.002h-.007l-.009-.002h-.014l-.008-.003h-.015l-.008.001-.01-.002-.008.002z"/><path d="M97.3 107.414l.11.01.104.015.107.023.105.024.103.033.101.039.101.042.097.048.092.054.093.06.087.062.084.068.08.075.077.075 13.012 13.857.07.082.07.085.062.088.057.09.053.097.049.095.042.1.036.103.032.103.026.105.018.107.016.108.01.107.001.108-.003.11-.009.106-.016.108-.022.106-.025.105-.033.103-.039.101-.042.101-.048.098-.054.091-.058.092-.064.088-.068.084-.073.079-.077.078-1.896 1.781-.082.07-.083.068-.089.062-.091.06-.095.05-.097.05-.1.043-.104.036-.103.032-.103.025-.108.02-.106.014-.108.009-.11.003-.107-.005-.107-.009-.109-.014-.107-.022-.103-.026-.105-.032-.1-.038-.1-.044-.097-.049-.094-.052-.091-.061-.088-.061-.084-.068-.08-.075-.076-.076-13.012-13.857-.071-.08-.07-.085-.062-.089-.056-.091-.055-.096-.046-.096-.043-.1-.037-.102-.032-.103-.025-.107-.02-.104-.016-.108-.005-.108-.004-.11.002-.107.01-.109.016-.107.021-.105.026-.107.032-.101.038-.101.044-.1.049-.096.054-.096.057-.091.065-.088.068-.084.073-.08.076-.074 1.897-1.781.08-.072.084-.07.089-.062.092-.059.095-.051.096-.047.1-.042.102-.038.103-.032.105-.026.106-.018.109-.016.107-.01.108-.001.11.003zm-2.014 3.778l13.012 13.858 1.896-1.781-13.011-13.857-1.897 1.78z"/><path d="M111.445 94.119l.123.011.123.018.122.025.12.032.116.04.113.048.113.055.107.06.104.07.1.074.094.078.09.088.083.089.078.097.073.1.065.106.06.107.051.113 7.956 18.604.046.115.037.115.03.12.022.118.016.122.008.122.002.122-.006.122-.016.12-.02.122-.03.117-.035.119-.044.113-.05.111-.056.108-.061.105-.07.1-.074.097-.082.09-.086.088-1.99 1.87-.093.08-.096.076-.1.067-.105.064-.11.054-.11.05-.116.044-.116.037-.119.026-.12.02-.12.015-.124.006h-.12l-.122-.01-.12-.015-.122-.023-.119-.032-.117-.038-.113-.044-.11-.05-18.058-9.12-.107-.059-.105-.065-.102-.072-.096-.08-.091-.083-.086-.09-.08-.093-.074-.101-.067-.104-.06-.108-.055-.11-.047-.115-.039-.118-.033-.12-.026-.122-.018-.12-.01-.124-.001-.125.004-.123.014-.123.02-.121.028-.123.036-.118.042-.115.05-.115.058-.11.061-.105.07-.104.077-.096.083-.094.087-.086 2.076-1.95.093-.083.098-.074.104-.071.104-.064.111-.056.117-.051.115-.04.12-.038.12-.028.125-.02.123-.01.124-.007.125.002.125.013.123.018.12.026.12.034.118.04.116.049.111.056 9.803 5.248-4.65-10.08-.048-.115-.042-.117-.034-.12-.026-.122-.019-.122-.012-.126-.001-.125.004-.123.012-.125.02-.125.027-.12.037-.12.04-.118.05-.114.059-.113.063-.108.072-.101.075-.098.082-.095.09-.087 2.103-1.975.093-.084.097-.074.101-.071.108-.064.111-.056.113-.051.116-.04.119-.037.12-.028.123-.02.124-.013.122-.005.125.002zm-2.207 3.973l7.148 15.494-15.061-8.064-2.077 1.95 18.058 9.119 1.991-1.87-7.956-18.604-2.103 1.975zM119.43 86.682l.129.016.126.022.126.032.122.04.118.045.117.055 18.04 9.136.112.061.11.069.101.075.1.081.092.088.087.096.082.098.074.104.067.108.062.113.052.115.046.12.039.122.03.124.023.126.014.128.005.128v.127l-.012.127-.02.128-.026.124-.034.124-.043.119-.05.118-.056.115-.067.11-.07.108-.077.1-.085.096-.09.092-2.057 1.93-.094.083-.098.074-.103.073-.106.062-.11.056-.115.05-.116.043-.12.035-.122.028-.122.02-.124.013-.125.005-.123-.004-.125-.01-.123-.017-.12-.027-.121-.034-.117-.04-.115-.05-.113-.055-4.036-2.154-3.412 3.204 1.842 4.27.044.112.039.117.031.118.023.122.016.119.01.123.001.122-.007.123-.015.12-.021.122-.028.12-.036.114-.042.116-.051.112-.057.108-.061.106-.07.1-.076.098-.082.09-.085.088-1.924 1.806-.098.085-.101.078-.107.073-.11.063-.117.058-.118.05-.123.043-.123.033-.124.028-.13.019-.127.01-.128.001-.129-.005-.128-.017-.126-.021-.126-.033-.123-.039-.118-.046-.118-.053-.113-.062-.109-.072-.103-.073-.1-.085-.092-.087-.089-.095-.08-.1-.074-.104-.069-.11-.061-.112-.053-.119-7.796-18.754-.044-.12-.039-.12-.027-.125-.023-.126-.014-.127-.004-.125.002-.129.01-.127.019-.126.027-.124.035-.123.041-.12.051-.116.057-.115.063-.11.072-.106.078-.1.084-.096.09-.089 2.124-1.994.095-.085.103-.08.106-.072.111-.064.117-.058.118-.049.12-.042.125-.035.125-.028.127-.017.13-.011.128-.002.128.006zm-2.288 3.988l7.796 18.755 1.924-1.807-2.397-5.56 5.48-5.146 5.302 2.832 2.057-1.93-18.039-9.138-2.123 1.994zm10.764 5.282l-4.338 4.074-3.514-8.22 7.852 4.146zm-3.624.658l.212-.2-.383-.2.17.4zM136.21 70.889l.125.012.122.018.125.027.118.036.119.042.117.051.11.057.11.065.103.07.1.077.094.083.09.087 1.55 1.651.081.095.077.099.07.104.064.108.058.113.05.115.043.119.034.12.03.122.018.126.01.123.005.126-.004.126-.01.123-.02.125-.029.123-.034.12-.042.119-.051.116-.057.111-.063.108-.072.105-.076.098-.084.096-.089.087-3.212 3.016 10.094 10.749.083.092.078.102.069.102.065.11.057.11.049.115.044.12.035.12.026.123.02.124.013.126.003.123-.004.127-.013.125-.02.124-.025.123-.037.12-.043.119-.049.115-.056.11-.065.11-.07.103-.078.1-.082.095-.088.089-1.905 1.789-.096.083-.1.077-.104.07-.108.064-.111.056-.116.051-.118.042-.12.035-.122.028-.125.02-.126.011-.125.005-.125-.006-.125-.009-.123-.021-.124-.027-.119-.036-.119-.042-.116-.051-.111-.057-.11-.061-.104-.072-.097-.078-.096-.084-.089-.087-10.093-10.749-3.21 3.014-.094.085-.1.077-.104.07-.108.064-.11.056-.117.051-.118.043-.12.035-.125.027-.122.02-.126.011-.125.005-.127-.004-.125-.013-.123-.018-.122-.028-.122-.036-.117-.04-.117-.052-.11-.056-.11-.065-.103-.07-.1-.078-.093-.084-.089-.087-1.55-1.651-.082-.095-.078-.097-.07-.105-.064-.107-.058-.113-.05-.115-.044-.12-.035-.12-.026-.123-.02-.124-.01-.123-.005-.126.003-.127.013-.124.02-.125.025-.122.037-.12.043-.12.05-.114.057-.113.064-.107.07-.104.077-.1.083-.094.09-.089 11.243-10.557.093-.084.101-.077.103-.07.11-.065.11-.056.115-.05.12-.043.12-.035.121-.028.126-.02.125-.011.124-.003.127.004zM124.84 83.44l1.551 1.651 4.669-4.384 11.461 12.206 1.906-1.79-11.462-12.205 4.67-4.384-1.551-1.651L124.84 83.44z"/><path d="M148.212 59.622l.137.015.135.02.133.032.131.042.125.05.124.058.121.067.114.074.109.083.103.088.095.098 1.595 1.699.092.101.081.109.076.113.067.118.06.126.05.126.042.129.033.133.024.135.011.136.006.138-.004.133-.015.137-.021.134-.031.135-.043.129-.048.127-.059.123-.067.121-.074.114-.083.109-.088.103-.098.096-6.814 6.398 1.213 1.292 6.19-5.814.104-.09.109-.081.113-.076.12-.068.122-.06.129-.049.128-.042.133-.033.135-.023.136-.016.136-.004.137.004.136.013.135.024.133.032.129.04.127.051.123.059.12.065.114.074.108.083.105.09.097.096 1.505 1.602.09.104.083.11.076.113.067.119.057.123.051.127.044.13.03.132.025.134.015.137.004.135-.004.138-.013.135-.024.135-.032.133-.041.131-.048.127-.059.124-.067.117-.076.116-.081.11-.09.102-.096.097-6.191 5.813 1.673 1.782 6.956-6.531.103-.09.107-.083.113-.076.119-.067.125-.06.127-.05.13-.04.133-.033.135-.024.134-.013.138-.006.134.004.137.015.133.021.135.031.13.043.128.05.122.057.12.067.115.074.108.083.103.088.096.098 1.55 1.651.09.103.084.107.076.114.066.118.06.125.05.127.04.13.035.132.022.136.014.134.006.138-.003.136-.014.137-.022.133-.033.133-.04.131-.05.125-.06.124-.066.121-.074.114-.083.108-.088.103-.097.098-10.243 9.619-.104.09-.11.083-.113.076-.119.067-.123.057-.127.051-.13.043-.132.032-.134.024-.136.015-.136.004-.138-.004-.137-.015-.133-.022-.133-.032-.131-.041-.125-.05-.125-.057-.12-.069-.114-.074-.108-.083-.103-.088-.098-.096-13.012-13.857-.09-.104-.081-.108-.076-.113-.067-.119-.061-.123-.049-.129-.042-.128-.032-.133-.024-.135-.014-.134-.006-.138.006-.136.013-.135.022-.137.032-.133.041-.127.05-.13.059-.122.065-.12.074-.114.083-.109.09-.104.098-.096 10.102-9.486.102-.092.108-.081.114-.076.118-.067.125-.06.127-.05.13-.04.132-.034.134-.024.136-.012.138-.006.134.004zM137.98 71.103l13.012 13.857 10.244-9.619-1.55-1.651-8.415 7.901-4.412-4.698 7.65-7.183-1.504-1.602-7.65 7.183-3.95-4.207 8.272-7.768-1.595-1.699-10.102 9.486z"/><defs><radialGradient id="a" cx="0" cy="0" r="1" gradientUnits="userSpaceOnUse" gradientTransform="matrix(94.4098 35.956 -36.951 97.0224 143.621 86.755)"><stop offset="0%" stop-color="#2708a0"/><stop offset="100%" stop-color="#c2b3ff"/></radialGradient></defs></svg>