<svg viewBox="0 0 300 300" xmlns="http://www.w3.org/2000/svg" fill-rule="evenodd" clip-rule="evenodd" stroke-linecap="round" stroke-linejoin="round" stroke-miterlimit="1.414"><path d="M168.057 120.019c-.412-.618.203-1.476.392-2.194.443-1.694 1.054-3.34 1.499-5.032 1.941-7.373 2.981-14.855 3.27-22.502 2.545-67.128-95.397-93.107-129.526-32.472-8.553 15.194-12.19 33.074-9.375 50.218 1.502 9.152 4.709 18.107 9.763 25.91 12.4 19.147 36.665 31.91 59.589 29.465 9.318-.994 9.965-1.433 18.651-3.443 2.295-.531 8.143-2.637 11.206-1.611 2.146.719 2.609 2.96 2.52 4.951-.111 2.472-.694 3.489-1.651 5.854-.95 2.35-2.543 4.9-.625 7.253.428.525.94.989 1.497 1.375.743.516 1.534.981 2.376 1.312 3.676 1.441 6.38-.854 9.277-2.796 1.135-.76 2.103-1.891 3.417-2.261.554-.156 1.031.528 1.486.881a52.843 52.843 0 0 1 3.391 2.899c3.844 3.543 7.683 7.093 11.421 10.748 23.285 22.771 45.331 44.88 67.996 68.283 5.815 6.003 11.338 12.288 17.196 18.249.798.813 3.435 1.037 4.125 1.067 6.615.288 9.641.108 16.282-.803 1.592-.218 5.543-.657 6.266-2.646.676-1.857.689-6.325.671-7.269-.085-4.684-.94-28.259-2.394-28.758-3.925-1.344-12.034-4.188-12.524-5.667-.361-1.09-1.78-8.41-2.491-9.312-.384-.487-1.115-.583-1.724-.692-2.063-.372-4.691.653-6.187-1.364-2.036-2.746-3.176-12.969-5.968-17.678-3.238-5.461-19.604-3.289-21.824-4.823-4.154-2.87 1.426-12.355-2.081-16.401-4.017-4.635-10.963-1.372-12.39-6.862-.699-2.689 1.043-7.551.494-9.032-1.252-3.382-9.826-3.296-10.651-6.736-.222-.929-.977-1.648-1.557-2.408-3.476-4.561-13.773-15.915-15.15-17.442-1.382-1.534 10.236-7.616 3.898-13.949-5.663-5.66-12.238 4.777-13.848 3.017-3.685-4.027-6.717-7.329-6.717-7.329zM83.995 53.271c11.109 0 20.129 8.724 20.129 19.47 0 10.746-9.02 19.47-20.129 19.47-11.109 0-20.128-8.724-20.128-19.47 0-10.746 9.019-19.47 20.128-19.47z" fill="url(#a)" stroke="#000" stroke-width="3.5"/><path d="M129.829 141.314l133.618 135.101M141.68 131.161l137.706 136.374" fill="none" stroke="#000" stroke-width="3"/><path d="M92.778 110.73l.217-6.76 21.71.698.725-21.739 6.85.133-.698 21.767 21.741.67-.224 6.932-21.741-.67-.694 21.711-6.843-.304.694-21.71-21.737-.727z" fill="none"/><path d="M92.778 110.73l.217-6.76 21.71.698.725-21.739 6.85.133-.698 21.767 21.741.67-.224 6.932-21.741-.67-.694 21.711-6.843-.304.694-21.71-21.737-.727z" fill="#fff" fill-rule="nonzero"/><path d="M122.346 79.612l.26.015.257.036.256.053.248.071.244.093.237.108.228.128.216.143.203.16.193.174.18.189.164.2.149.216.133.221.114.236.098.241.08.247.06.253.038.256.022.26v.26l-.585 18.316 18.286.562.26.017.253.038.254.055.246.074.242.095.232.107.226.13.212.144.203.16.193.174.176.188.16.2.146.214.131.223.114.231.097.24.079.247.058.25.038.257.022.256v.26l-.222 6.93-.017.258-.038.254-.055.254-.076.244-.09.242-.112.232-.128.224-.145.214-.158.201-.174.192-.189.177-.2.16-.211.148-.224.131-.23.114-.24.092-.247.08-.25.057-.255.041-.256.022h-.26l-18.297-.561-.585 18.267-.017.258-.038.259-.055.253-.076.249-.097.243-.11.235-.13.225-.145.215-.164.203-.177.19-.192.177-.203.161-.213.147-.228.13-.233.112-.243.092-.25.077-.252.056-.259.036-.258.02-.261-.002-6.843-.305-.254-.02-.252-.04-.25-.06-.243-.075-.24-.097-.23-.11-.221-.13-.21-.145-.202-.158-.186-.176-.174-.186-.16-.201-.144-.21-.127-.224-.112-.229-.096-.24-.075-.242-.058-.25-.039-.253-.022-.256v-.255l.586-18.266-18.296-.613-.257-.018-.254-.038-.253-.055-.244-.076-.242-.09-.232-.112-.224-.129-.214-.145-.203-.16-.188-.174-.177-.188-.162-.199-.146-.213-.131-.223-.112-.233-.094-.237-.08-.248-.058-.25-.04-.255-.02-.258-.002-.257.217-6.76.018-.257.038-.254.055-.253.074-.247.095-.241.112-.233.126-.225.143-.213.162-.2.174-.193.188-.177.201-.16.211-.148.223-.131.234-.112.239-.096.245-.077.25-.058.257-.039.256-.021.257-.003 18.269.588.61-18.298.019-.252.037-.254.055-.25.074-.246.09-.237.11-.23.126-.226.143-.213.158-.2.17-.189.188-.177.197-.16.21-.148.22-.131.227-.114.239-.097.243-.079.248-.06.253-.043.253-.024.256-.004 6.848.134zm-7.64 25.056l-21.711-.698-.217 6.76 21.737.727-.694 21.71 6.843.305.694-21.71 21.74.669.225-6.932-21.741-.67.698-21.767-6.85-.133-.725 21.74z"/><defs><radialGradient id="a" cx="0" cy="0" r="1" gradientUnits="userSpaceOnUse" gradientTransform="matrix(94.4098 35.956 -36.951 97.0224 143.621 86.755)"><stop offset="0%" stop-color="#2708a0"/><stop offset="100%" stop-color="#c2b3ff"/></radialGradient></defs></svg>