<svg viewBox="0 0 600 1200" xmlns="http://www.w3.org/2000/svg" fill-rule="evenodd" clip-rule="evenodd" stroke-linecap="round" stroke-linejoin="round" stroke-miterlimit="1.414"><path d="M493.214 951c-133.712-33.84-258.393-33.345-394.879 0 7.32 145.385 36.741 181 36.741 181 61.067 42.984 264.682 40.827 323.683 0 0 0 27.411-35.427 34.455-181z" fill="url(#a)" stroke="#000" stroke-width="14"/><path d="M522.016 614c-100.053-99.053-348.911-101.45-444.98 0-83.195 87.856-18.847 316-18.847 316 48.844 100.863 416.561 100.82 476.843 0 0 0 65.427-238.341-13.016-316z" fill="url(#b)" stroke="#000" stroke-width="14"/><path d="M68.405 530.807c-157.094-608.608 614.353-605.739 465.15-4.342l-465.15 4.342z" fill="url(#c)" stroke="#000" stroke-width="14"/><path d="M117.59 302.845C84.646 591.988 290.585 599.692 290.585 599.692s232.253-13.741 188.584-296.847H117.59z" fill="url(#d)" stroke="#000" stroke-width="14"/><path d="M262.644 446.189c23.076-26.007 46.42-28.129 72.213 0M218.834 530.915c38.515-28.029 123.124-38.186 143.789-21.72" fill="none" stroke="#000" stroke-width="14"/><path d="M197.453 340.667c11.186-2.877 23.322 6.66 27.084 21.285 3.762 14.625-2.265 28.835-13.451 31.712-11.186 2.878-23.323-6.659-27.085-21.284-3.762-14.625 2.265-28.835 13.452-31.713zM395.54 340.991c10.957 3.654 15.975 18.251 11.198 32.576-4.777 14.326-17.551 22.99-28.509 19.336-10.957-3.653-15.974-18.25-11.198-32.576 4.777-14.325 17.551-22.99 28.509-19.336zM182.882 280.795l19.786-10.475 59.976 69.835-79.762-59.36zM334.857 340.155l65.578-69.835 16.094 12.679-81.672 57.156z" stroke="#000" stroke-width="14"/><ellipse cx="173.215" cy="438.654" rx="6.015" ry="6.588"/><ellipse cx="201.351" cy="445.903" rx="6.015" ry="6.588"/><ellipse cx="179.421" cy="481.728" rx="6.015" ry="6.588"/><ellipse cx="389.46" cy="466.351" rx="6.015" ry="6.588"/><ellipse cx="409.7" cy="423.859" rx="6.015" ry="6.588"/><ellipse cx="426.744" cy="458.894" rx="6.015" ry="6.588"/><defs><radialGradient id="a" cx="0" cy="0" r="1" gradientUnits="userSpaceOnUse" gradientTransform="matrix(388.245 -154.199 98.0668 213.107 112.582 1100.72)"><stop offset="0%" stop-color="#e5dd00"/><stop offset="100%" stop-color="#625d00"/></radialGradient><radialGradient id="b" cx="0" cy="0" r="1" gradientUnits="userSpaceOnUse" gradientTransform="matrix(512.457 -300.001 129.442 414.61 54.77 886.007)"><stop offset="0%" stop-color="#e5dd00"/><stop offset="100%" stop-color="#625d00"/></radialGradient><radialGradient id="c" cx="0" cy="0" r="1" gradientUnits="userSpaceOnUse" gradientTransform="matrix(517.669 -235.359 130.758 325.273 35.09 325.761)"><stop offset="0%" stop-color="#888"/><stop offset="100%"/></radialGradient><radialGradient id="d" cx="0" cy="0" r="1" gradientUnits="userSpaceOnUse" gradientTransform="matrix(466.155 -236.194 117.746 326.426 71.439 526.648)"><stop offset="0%" stop-color="#ffd9b8"/><stop offset="100%" stop-color="#ffcd9e"/></radialGradient></defs></svg>