<svg viewBox="0 0 1000 1200" xmlns="http://www.w3.org/2000/svg" fill-rule="evenodd" clip-rule="evenodd" stroke-linecap="round" stroke-linejoin="round" stroke-miterlimit="1.414"><path d="M910.013 89.362L90 89.4l-.013 1021.24h820.026V89.36z" fill="#fff" stroke="#000" stroke-width="14"/><path d="M184.127 723.118c18.326-1.894 30.144-6.053 35.333-12.477s7.783-21.373 7.783-44.763V485.51c0-16.06-2.512-26.52-7.577-31.338-5.065-4.859-16.555-7.7-34.468-8.565v-8.236h87.796L375.78 661.307l98.214-223.937h88.414v8.236c-16.472 1.153-27.097 4.159-31.832 8.977-4.777 4.86-7.166 15.154-7.166 30.926v197.5c0 16.184 2.389 26.561 7.166 31.091 4.735 4.571 15.36 7.577 31.832 9.018v7.99H438.003v-7.99c17.913-1.44 29.073-4.694 33.48-9.677 4.405-4.983 6.63-16.843 6.63-35.662V478.344L364.495 731.107h-6.094l-111.64-242.344v177.115c0 24.255 3.542 40.11 10.625 47.48 4.653 4.778 14.948 8.03 31.008 9.76v7.99H184.127v-7.99zM602.517 641.788c7.536 19.972 16.349 35.868 26.479 47.728 17.625 20.672 39.533 30.967 65.682 30.967 14.166 0 26.397-4.447 36.733-13.425 10.336-8.977 15.525-21.455 15.525-37.515 0-14.454-5.23-27.014-15.607-37.72-6.795-6.796-21.126-16.967-42.951-30.556l-37.927-23.638c-11.407-7.206-20.508-14.536-27.303-21.908-12.6-14-18.86-29.485-18.86-46.368 0-22.402 7.412-41.057 22.32-55.964 14.866-14.866 34.59-22.32 59.175-22.32 10.13 0 22.279 2.512 36.527 7.495 14.248 4.983 22.36 7.495 24.379 7.495 5.518 0 9.306-1.318 11.407-3.912 2.1-2.595 3.706-6.3 4.859-11.078h9.1l9.76 94.55h-10.624c-7.207-28.497-18.82-48.346-34.797-59.63-15.978-11.282-31.75-16.924-47.357-16.924-12.149 0-22.732 3.583-31.75 10.748-9.06 7.165-13.549 17.09-13.549 29.814 0 11.407 3.46 21.167 10.378 29.238 6.96 8.236 17.707 16.843 32.326 25.82l38.998 24.05c24.46 15.03 41.633 28.825 51.598 41.426 9.843 12.725 14.743 27.756 14.743 45.093 0 23.266-8.771 42.703-26.314 58.31-17.584 15.608-40.027 23.432-67.33 23.432-13.713 0-28.084-2.635-43.033-7.824-14.948-5.189-23.514-7.783-25.696-7.783-5.189 0-8.69 1.565-10.501 4.736-1.812 3.212-3.006 6.588-3.583 10.212h-9.76l-13.218-94.55h10.171z" fill="none"/><path d="M184.127 723.118c18.326-1.894 30.144-6.053 35.333-12.477s7.783-21.373 7.783-44.763V485.51c0-16.06-2.512-26.52-7.577-31.338-5.065-4.859-16.555-7.7-34.468-8.565v-8.236h87.796L375.78 661.307l98.214-223.937h88.414v8.236c-16.472 1.153-27.097 4.159-31.832 8.977-4.777 4.86-7.166 15.154-7.166 30.926v197.5c0 16.184 2.389 26.561 7.166 31.091 4.735 4.571 15.36 7.577 31.832 9.018v7.99H438.003v-7.99c17.913-1.44 29.073-4.694 33.48-9.677 4.405-4.983 6.63-16.843 6.63-35.662V478.344L364.495 731.107h-6.094l-111.64-242.344v177.115c0 24.255 3.542 40.11 10.625 47.48 4.653 4.778 14.948 8.03 31.008 9.76v7.99H184.127v-7.99zM602.517 641.788c7.536 19.972 16.349 35.868 26.479 47.728 17.625 20.672 39.533 30.967 65.682 30.967 14.166 0 26.397-4.447 36.733-13.425 10.336-8.977 15.525-21.455 15.525-37.515 0-14.454-5.23-27.014-15.607-37.72-6.795-6.796-21.126-16.967-42.951-30.556l-37.927-23.638c-11.407-7.206-20.508-14.536-27.303-21.908-12.6-14-18.86-29.485-18.86-46.368 0-22.402 7.412-41.057 22.32-55.964 14.866-14.866 34.59-22.32 59.175-22.32 10.13 0 22.279 2.512 36.527 7.495 14.248 4.983 22.36 7.495 24.379 7.495 5.518 0 9.306-1.318 11.407-3.912 2.1-2.595 3.706-6.3 4.859-11.078h9.1l9.76 94.55h-10.624c-7.207-28.497-18.82-48.346-34.797-59.63-15.978-11.282-31.75-16.924-47.357-16.924-12.149 0-22.732 3.583-31.75 10.748-9.06 7.165-13.549 17.09-13.549 29.814 0 11.407 3.46 21.167 10.378 29.238 6.96 8.236 17.707 16.843 32.326 25.82l38.998 24.05c24.46 15.03 41.633 28.825 51.598 41.426 9.843 12.725 14.743 27.756 14.743 45.093 0 23.266-8.771 42.703-26.314 58.31-17.584 15.608-40.027 23.432-67.33 23.432-13.713 0-28.084-2.635-43.033-7.824-14.948-5.189-23.514-7.783-25.696-7.783-5.189 0-8.69 1.565-10.501 4.736-1.812 3.212-3.006 6.588-3.583 10.212h-9.76l-13.218-94.55h10.171z" fill-rule="nonzero" stroke="#000" stroke-width=".8236020000000001" stroke-linecap="butt"/><path d="M168.085 239.637h663.83M168.085 328.313h663.83M168.085 834.445h663.83M168.085 925h663.83M168.085 1017.67h663.83M168.085 154.218h663.83" fill="none" stroke="#000" stroke-width="11"/></svg>