<svg viewBox="0 0 1000 1200" xmlns="http://www.w3.org/2000/svg" fill-rule="evenodd" clip-rule="evenodd" stroke-linecap="round" stroke-linejoin="round" stroke-miterlimit="1.414"><path d="M910.013 89.362L90 89.4l-.013 1021.24h820.026V89.36z" fill="#fff" stroke="#000" stroke-width="14"/><path d="M343.162 738.914c19.303-2.092 31.367-5.671 36.193-10.738 4.826-5.067 7.239-18.298 7.239-39.692V474.46c0-17.695-2.695-29.196-8.083-34.505-5.389-5.308-17.172-8.606-35.349-9.893v-9.169h137.294v9.169c-18.178 1.287-30.001 4.585-35.47 9.893-5.469 5.309-8.204 16.81-8.204 34.505v96.274h149.841V474.46c0-17.695-2.654-29.196-7.962-34.505-5.309-5.308-17.132-8.606-35.47-9.893v-9.169h137.294v9.169c-18.177 1.287-29.96 4.585-35.349 9.893-5.389 5.309-8.083 16.81-8.083 34.505v219.815c0 18.016 2.694 29.558 8.083 34.625s17.172 8.405 35.349 10.014v8.927H543.191v-8.927c19.464-1.931 31.569-5.47 36.314-10.617 4.745-5.148 7.118-18.419 7.118-39.813v-96.033H436.782v101.824c0 18.016 2.735 29.598 8.204 34.746 5.469 5.147 17.292 8.445 35.47 9.893v8.927H343.162v-8.927z" fill-rule="nonzero"/><path d="M168.085 239.637h663.83M168.085 328.313h663.83M168.085 834.445h663.83M168.085 925h663.83M168.085 1017.67h663.83M168.085 154.218h663.83" fill="none" stroke="#000" stroke-width="11"/></svg>