<svg viewBox="0 0 1000 1200" xmlns="http://www.w3.org/2000/svg" fill-rule="evenodd" clip-rule="evenodd" stroke-linecap="round" stroke-linejoin="round" stroke-miterlimit="1.414"><path d="M910.013 89.362L297.708 87.92 90.948 280.251l-.961 830.387h820.026V89.358z" fill="#fff" stroke="#ff2c2d" stroke-width="14"/><path d="M537.23 448.387c-14-6.095-31.708-9.183-53.08-9.183-10.13 0-16.39 1.03-18.696 3.047-2.348 1.977-3.5 6.465-3.5 13.384v128.852c8.853.783 14.618 1.277 17.377 1.441 2.718.165 5.354.248 7.948.248 22.69 0 40.521-3.213 53.575-9.678 23.638-11.736 35.456-33.685 35.456-65.847 0-30.267-13.012-51.022-39.08-62.264zM370.493 738.913c18.82-1.771 30.556-5.519 35.21-11.243 4.694-5.683 7-18.778 7-39.203V474.454c0-17.213-2.594-28.58-7.824-34.015-5.23-5.477-16.678-8.936-34.386-10.377v-9.183h130.294c41.84 0 73.836 8.112 96.032 24.378 22.196 16.225 33.315 37.639 33.315 64.159 0 33.644-12.313 58.023-36.939 73.136-24.584 15.113-55.387 22.69-92.408 22.69-5.312 0-12.107-.124-20.384-.37-8.277-.248-14.454-.371-18.449-.371v89.772c0 18.655 2.842 30.391 8.566 35.21 5.683 4.817 18.449 7.947 38.215 9.43v8.894H370.492v-8.894z" fill="none"/><path d="M537.23 448.387c-14-6.095-31.708-9.183-53.08-9.183-10.13 0-16.39 1.03-18.696 3.047-2.348 1.977-3.5 6.465-3.5 13.384v128.852c8.853.783 14.618 1.277 17.377 1.441 2.718.165 5.354.248 7.948.248 22.69 0 40.521-3.213 53.575-9.678 23.638-11.736 35.456-33.685 35.456-65.847 0-30.267-13.012-51.022-39.08-62.264zM370.493 738.913c18.82-1.771 30.556-5.519 35.21-11.243 4.694-5.683 7-18.778 7-39.203V474.454c0-17.213-2.594-28.58-7.824-34.015-5.23-5.477-16.678-8.936-34.386-10.377v-9.183h130.294c41.84 0 73.836 8.112 96.032 24.378 22.196 16.225 33.315 37.639 33.315 64.159 0 33.644-12.313 58.023-36.939 73.136-24.584 15.113-55.387 22.69-92.408 22.69-5.312 0-12.107-.124-20.384-.37-8.277-.248-14.454-.371-18.449-.371v89.772c0 18.655 2.842 30.391 8.566 35.21 5.683 4.817 18.449 7.947 38.215 9.43v8.894H370.492v-8.894z" fill="#ff2c2d" fill-rule="nonzero" stroke="#ff2c2d" stroke-width=".8236020000000001" stroke-linecap="butt"/><path d="M300.806 239.637h531.109M168.085 328.313h663.83M168.085 834.445h663.83M168.085 925h663.83M168.085 1017.67h663.83M302.547 154.218h529.368" fill="none" stroke="#ff2c2d" stroke-width="11"/><path d="M299.835 87.92v191.357H97.642" fill="none" stroke="#ff2c2d" stroke-width="14" stroke-linecap="butt"/></svg>