<svg viewBox="0 0 1000 1200" xmlns="http://www.w3.org/2000/svg" fill-rule="evenodd" clip-rule="evenodd" stroke-linecap="round" stroke-linejoin="round" stroke-miterlimit="1.414"><path d="M910.013 89.362L90 89.4l-.013 1021.24h820.026V89.36z" fill="#fff" stroke="#000" stroke-width="14"/><path d="M440.009 535.384c26.221-10.778 39.331-31.046 39.331-60.805 0-28.633-11.743-48.178-35.229-58.633-12.547-5.631-29.196-8.446-49.947-8.446-13.994 0-22.56 1.006-25.697 3.017-3.137 2.01-4.705 6.715-4.705 14.115v121.851c35.55-1.287 60.966-4.986 76.247-11.099zM271.107 706.7c18.981-1.77 30.804-5.469 35.469-11.099 4.665-5.631 6.998-18.741 6.998-39.331V442.246c0-17.373-2.614-28.754-7.842-34.142-5.228-5.389-16.77-8.807-34.625-10.255v-9.169h136.811c28.472 0 52.199 3.619 71.18 10.858 36.033 13.673 54.049 38.847 54.049 75.524 0 24.611-8.002 43.512-24.008 56.703-16.006 13.19-37.762 21.877-65.269 26.059l101.824 125.229c6.274 7.722 12.548 13.352 18.821 16.891 6.274 3.539 14.317 5.791 24.129 6.756v8.928h-79.626L391.269 563.615l-27.507 1.206v97.24c0 18.338 2.775 29.96 8.324 34.867 5.55 4.906 17.655 8.163 36.315 9.772v8.928H271.107V706.7zM601.785 596.323v-5c11.177-2.549 21.227-5.393 30.149-8.53 8.923-3.138 13.727-4.707 14.413-4.707a5.56 5.56 0 0 1 .294 1.765v89.567c2.55-4.707 6.374-9.168 11.472-13.384 9.02-7.353 19.413-11.03 31.179-11.03 14.413 0 26.718 6.079 36.915 18.237 10.197 12.158 15.296 27.943 15.296 47.357 0 20.786-6.619 38.582-19.855 53.387-13.237 14.805-30.64 22.208-52.211 22.208-10.883 0-21.57-2.158-32.061-6.472s-15.737-8.628-15.737-12.942V611.324c0-5.686-.784-9.731-2.353-12.133-1.569-2.402-5.196-3.603-10.883-3.603l-6.618.735zm55.74 176.56c6.765 2.206 12.697 3.309 17.795 3.309 13.727 0 23.899-5.148 30.518-15.443 6.618-10.295 9.927-22.747 9.927-37.356 0-14.609-3.088-28.115-9.265-40.518-6.177-12.403-16.178-18.605-30.003-18.605-6.961 0-13.776 2.133-20.443 6.398-6.667 4.265-10.001 9.682-10.001 16.251v75.007c.883 5.098 4.706 8.75 11.472 10.957z" fill-rule="nonzero"/><path d="M168.085 239.637h663.83M168.085 328.313h663.83M168.085 834.445h663.83M168.085 925h663.83M168.085 1017.67h663.83M168.085 154.218h663.83" fill="none" stroke="#000" stroke-width="11"/></svg>