<svg viewBox="0 0 1000 1200" xmlns="http://www.w3.org/2000/svg" fill-rule="evenodd" clip-rule="evenodd" stroke-linecap="round" stroke-linejoin="round" stroke-miterlimit="1.414"><path d="M910.013 89.362L90 89.4l-.013 1021.24h820.026V89.36z" fill="#fff" stroke="#000" stroke-width="14"/><path d="M185.482 477.962h176.264l1.676 53.016h-7.465c-3.657-16.656-8.303-27.498-13.94-32.526-5.637-5.027-17.494-7.541-35.573-7.541h-17.367V650.57c0 12.086 1.879 19.576 5.637 22.471 3.758 2.895 11.984 4.799 24.68 5.713v5.637h-90.951v-5.637c13.203-1.016 21.43-3.199 24.68-6.551 3.25-3.352 4.875-11.781 4.875-25.289V490.911h-17.367c-17.266 0-29.022 2.489-35.268 7.465-6.246 4.977-10.944 15.844-14.092 32.602h-7.618l1.829-53.016zM509.217 604.257l-36.106-85.924-35.649 85.924h71.755zm-134.674 80.134v-5.637c8.024-.914 14.041-3.961 18.053-9.141 4.012-5.18 10.893-19.246 20.643-42.2l65.052-153.108h6.094l77.696 176.874c5.18 11.782 9.319 19.069 12.416 21.862 3.098 2.793 8.303 4.697 15.616 5.713v5.637H510.74v-5.637c9.141-.813 15.032-1.803 17.673-2.971 2.64-1.168 3.961-4.037 3.961-8.607 0-1.524-.508-4.215-1.524-8.075-1.016-3.859-2.437-7.922-4.266-12.187l-12.949-30.013h-81.658c-8.125 20.415-12.974 32.882-14.549 37.401-1.574 4.52-2.361 8.1-2.361 10.741 0 5.281 2.133 8.937 6.399 10.969 2.64 1.218 7.617 2.133 14.93 2.742v5.637h-61.853zM746.42 479.333c11.68 3.352 18.383 5.027 20.109 5.027 4.469 0 7.643-.863 9.522-2.59 1.879-1.726 3.479-4.214 4.799-7.465h6.856l2.437 65.662h-7.16c-6.399-15.133-13-26.407-19.805-33.821-12.289-13-28.286-19.5-47.989-19.5-20.008 0-37.604 7.591-52.788 22.775-15.184 15.184-22.776 40.194-22.776 75.031 0 28.742 7.567 51.188 22.7 67.337 15.133 16.148 33.821 24.223 56.063 24.223 3.758 0 8.176-.356 13.254-1.067 5.078-.711 9.903-1.828 14.473-3.351 7.414-2.438 12.035-4.545 13.864-6.323 1.828-1.777 2.742-4.392 2.742-7.846v-49.817c0-11.984-1.701-19.449-5.104-22.395-3.402-2.945-10.842-4.773-22.318-5.484v-5.789h79.524v5.789c-7.719.508-12.848 1.777-15.387 3.809-4.265 3.25-6.398 9.953-6.398 20.109v61.396c0 3.656-8.963 8.531-26.889 14.625-17.926 6.094-35.167 9.141-51.722 9.141-30.469 0-56.165-8.887-77.087-26.661-23.055-19.602-34.583-45.907-34.583-78.915 0-29.047 9.192-53.931 27.575-74.65 20.211-22.852 47.024-34.278 80.439-34.278 12.086 0 23.969 1.676 35.649 5.028z" fill-rule="nonzero"/><path d="M168.085 239.637h663.83M168.085 328.313h663.83M168.085 834.445h663.83M168.085 925h663.83M168.085 1017.67h663.83M168.085 154.218h663.83" fill="none" stroke="#000" stroke-width="11"/></svg>