<svg viewBox="0 0 956 1200" xmlns="http://www.w3.org/2000/svg" fill-rule="evenodd" clip-rule="evenodd" stroke-linecap="round" stroke-linejoin="round" stroke-miterlimit="1.414"><path d="M844.081 9.52l-833.912.039-.012 1038.55h833.924V9.519z" fill="#fff" stroke="#000" stroke-width="14.24"/><g fill-rule="nonzero"><path d="M111.362 150.74h-9.193l-27.24-53.16v53.16h-7.66V89.093H78.9l24.802 48.813V89.094h7.66v61.645zM149.081 139.356v-12.832c-1.851.162-4.19.388-7.016.678-2.834.29-5.116.7-6.855 1.222-2.07.636-3.78 1.611-5.137 2.919-1.35 1.314-2.028 3.144-2.028 5.49 0 2.65.75 4.65 2.24 6 1.491 1.356 3.668 2.027 6.537 2.027 2.459 0 4.684-.53 6.67-1.59a29.087 29.087 0 0 0 5.59-3.914zm0 6.458c-.636.467-1.484 1.124-2.55 1.965-1.06.848-2.085 1.512-3.081 2.013-1.378.714-2.714 1.265-3.993 1.654-1.286.389-3.088.58-5.405.58a13.951 13.951 0 0 1-9.935-4.099c-1.244-1.272-2.24-2.834-2.982-4.699-.75-1.865-1.117-3.83-1.117-5.9 0-3.201.671-5.929 2.028-8.176 1.35-2.254 3.49-4.042 6.416-5.363 2.594-1.187 5.66-2.007 9.193-2.466a156.04 156.04 0 0 1 11.426-1.01v-1.492c0-1.823-.275-3.292-.826-4.409-.559-1.116-1.329-1.986-2.325-2.586-.99-.636-2.205-1.06-3.64-1.265a31.294 31.294 0 0 0-4.43-.31c-1.795 0-3.907.268-6.338.805-2.424.537-4.855 1.321-7.285 2.339h-.453v-7.907c1.435-.417 3.491-.87 6.17-1.364a43.092 43.092 0 0 1 7.949-.75c3.172 0 5.85.248 8.027.75a15.437 15.437 0 0 1 5.886 2.692c1.682 1.265 2.94 2.911 3.766 4.925.827 2.014 1.244 4.473 1.244 7.37v31.628h-7.745v-4.925zM220.252 150.74v-26.746c0-2.127-.085-4.091-.247-5.9-.17-1.81-.51-3.223-1.04-4.24-.55-1.11-1.335-1.922-2.36-2.445-1.017-.523-2.395-.784-4.133-.784-1.604 0-3.321.487-5.158 1.47-1.837.975-3.731 2.388-5.696 4.24.029.473.064 1.03.106 1.674.043.65.064 1.42.064 2.303v30.427h-7.787v-26.745c0-2.127-.078-4.091-.247-5.9-.163-1.81-.509-3.223-1.032-4.24-.558-1.11-1.342-1.922-2.36-2.445-1.025-.523-2.402-.784-4.14-.784-1.69 0-3.456.523-5.3 1.568-1.852 1.053-3.647 2.389-5.385 4.021v34.525h-7.787v-46.248h7.787v5.137c2.042-2.042 4.063-3.625 6.063-4.741 2.007-1.117 4.204-1.675 6.607-1.675 2.734 0 5.151.622 7.264 1.859 2.113 1.243 3.724 3.285 4.826 6.133 2.346-2.622 4.635-4.614 6.875-5.964 2.233-1.357 4.664-2.028 7.286-2.028 1.985 0 3.794.311 5.42.933 1.632.615 3.052 1.618 4.267 2.996 1.244 1.413 2.198 3.166 2.876 5.264.679 2.092 1.018 4.728 1.018 7.907v30.427h-7.787zM259.045 151.82c-7.37 0-13.086-2.077-17.156-6.232-4.078-4.155-6.113-10.055-6.113-17.7 0-7.533 1.979-13.532 5.922-17.991 3.95-4.459 9.108-6.685 15.489-6.685 2.869 0 5.406.41 7.617 1.244 2.205.827 4.141 2.12 5.794 3.886 1.654 1.767 2.926 3.929 3.81 6.48.882 2.558 1.328 5.681 1.328 9.377v4.225h-32.053c0 5.385 1.357 9.497 4.063 12.338 2.707 2.848 6.445 4.268 11.222 4.268 1.71 0 3.384-.198 5.03-.58 1.64-.388 3.124-.883 4.445-1.49 1.414-.636 2.6-1.251 3.562-1.845.968-.593 1.766-1.152 2.402-1.674h.46v8.486l-3.4 1.343c-1.349.537-2.564.96-3.646 1.264-1.512.417-2.89.735-4.12.954-1.222.22-2.776.332-4.656.332zm9.109-29.36c-.05-2.098-.304-3.9-.742-5.42-.446-1.519-1.074-2.805-1.908-3.85-.912-1.16-2.078-2.042-3.498-2.65-1.42-.608-3.18-.912-5.278-.912-2.07 0-3.83.311-5.279.933-1.448.622-2.763 1.526-3.95 2.713a12.643 12.643 0 0 0-2.65 4.035c-.607 1.477-.996 3.194-1.166 5.151h24.47zM297.923 116.292h-9.892v-11.8h9.892v11.8zm0 34.447h-9.892v-11.8h9.892v11.8zM397.832 150.74h-18.88l-17.186-22.605h-5.547v22.604h-15.397V89.094h24.795c3.428 0 6.41.212 8.946.643a19.049 19.049 0 0 1 7.038 2.664c2.212 1.413 3.964 3.2 5.257 5.363 1.3 2.17 1.95 4.925 1.95 8.26 0 4.72-1.066 8.55-3.193 11.49-2.12 2.94-4.968 5.279-8.53 7.017l20.747 26.208zm-24.922-42.765c0-1.548-.297-2.883-.89-4-.594-1.116-1.583-1.978-2.961-2.586-.968-.417-2.042-.678-3.23-.784-1.187-.113-2.664-.17-4.43-.17h-5.18v16.606h4.43c2.156 0 3.986-.135 5.491-.396 1.498-.261 2.777-.82 3.83-1.675.99-.777 1.731-1.696 2.212-2.777.48-1.074.728-2.48.728-4.218zM446.193 127.513c0 7.645-2.092 13.673-6.275 18.075-4.183 4.402-10.097 6.6-17.743 6.6-7.589 0-13.49-2.198-17.7-6.6-4.205-4.402-6.31-10.43-6.31-18.075 0-7.73 2.105-13.78 6.31-18.153 4.21-4.374 10.111-6.565 17.7-6.565 7.617 0 13.525 2.205 17.722 6.607 4.197 4.402 6.296 10.437 6.296 18.11zm-14.867.085c0-2.763-.226-5.06-.686-6.897-.452-1.83-1.08-3.3-1.88-4.41-.854-1.158-1.822-1.964-2.896-2.416-1.081-.46-2.304-.685-3.689-.685-1.293 0-2.466.197-3.519.6-1.046.396-2.014 1.166-2.897 2.297-.827 1.074-1.49 2.55-1.986 4.43-.501 1.88-.749 4.24-.749 7.08 0 2.841.24 5.138.707 6.897.466 1.753 1.074 3.152 1.823 4.197.77 1.082 1.738 1.866 2.897 2.36 1.16.502 2.445.75 3.851.75 1.16 0 2.34-.248 3.54-.75 1.202-.494 2.156-1.243 2.876-2.232.855-1.187 1.505-2.615 1.944-4.29.445-1.667.664-3.978.664-6.931zM498.525 127.513c0 7.645-2.091 13.673-6.275 18.075-4.183 4.402-10.09 6.6-17.743 6.6-7.589 0-13.49-2.198-17.693-6.6-4.212-4.402-6.318-10.43-6.318-18.075 0-7.73 2.106-13.78 6.318-18.153 4.204-4.374 10.104-6.565 17.693-6.565 7.625 0 13.532 2.205 17.722 6.607 4.198 4.402 6.296 10.437 6.296 18.11zm-14.867.085c0-2.763-.226-5.06-.678-6.897-.46-1.83-1.089-3.3-1.887-4.41-.855-1.158-1.823-1.964-2.897-2.416-1.074-.46-2.304-.685-3.689-.685-1.293 0-2.466.197-3.519.6-1.046.396-2.014 1.166-2.897 2.297-.827 1.074-1.49 2.55-1.985 4.43-.495 1.88-.742 4.24-.742 7.08 0 2.841.233 5.138.7 6.897.473 1.753 1.08 3.152 1.822 4.197.77 1.082 1.739 1.866 2.897 2.36 1.16.502 2.445.75 3.851.75 1.16 0 2.34-.248 3.54-.75 1.202-.494 2.163-1.243 2.877-2.232.855-1.187 1.505-2.615 1.95-4.29.438-1.667.657-3.978.657-6.931zM524.027 151.65c-5.907 0-10.204-1.215-12.896-3.638-2.692-2.431-4.035-6.41-4.035-11.928v-21.736h-5.546v-10.104h5.546V90.952h14.493v13.292h13.949v10.104h-13.949v16.479c0 1.625.014 3.052.036 4.26.028 1.216.254 2.311.664 3.272.388.968 1.074 1.732 2.049 2.304.982.565 2.41.848 4.29.848.77 0 1.787-.17 3.038-.502 1.257-.332 2.134-.629 2.628-.911h1.244v10.231c-1.569.41-3.244.735-5.01.969-1.767.24-3.929.353-6.501.353zM593.714 151.94c-9.25 0-16.592-2.79-22.033-8.38-5.434-5.59-8.154-13.454-8.154-23.58 0-9.772 2.728-17.566 8.176-23.375 5.455-5.808 12.803-8.712 22.046-8.712 2.46 0 4.67.134 6.628.41 1.957.275 3.837.664 5.632 1.158 1.406.417 2.94.983 4.593 1.703a68.99 68.99 0 0 1 4.02 1.859v14.697h-1.575a96.532 96.532 0 0 0-2.813-2.374 35.977 35.977 0 0 0-3.85-2.713 25.774 25.774 0 0 0-4.742-2.261 15.977 15.977 0 0 0-5.406-.926c-2.233 0-4.282.346-6.147 1.053-1.866.706-3.64 1.922-5.321 3.667-1.548 1.569-2.805 3.696-3.788 6.374-.982 2.678-1.47 5.836-1.47 9.483 0 3.837.51 7.059 1.534 9.666 1.018 2.608 2.36 4.713 4.014 6.31 1.604 1.548 3.391 2.664 5.363 3.357 1.971.692 3.936 1.031 5.9 1.031 2.042 0 3.985-.332 5.837-1.01 1.851-.678 3.406-1.427 4.678-2.254 1.377-.862 2.593-1.731 3.646-2.615a119.729 119.729 0 0 0 2.727-2.36h1.414v14.493c-1.138.523-2.445 1.123-3.936 1.802a35.54 35.54 0 0 1-4.593 1.717c-1.936.58-3.745 1.024-5.427 1.328-1.682.304-4 .453-6.953.453zM617.103 150.74l20.824-61.646h16.895l20.824 61.645h-15.941l-3.844-12.585h-19.383l-3.85 12.585h-15.525zm35.359-23.764l-6.296-20.33-6.289 20.33h12.585z"/></g><path d="M106.188 647.696c0 2.677-.476 5.21-1.428 7.597-.953 2.388-2.271 4.424-3.954 6.107-2.126 2.098-4.624 3.685-7.494 4.762-2.871 1.076-6.501 1.615-10.889 1.615h-6.956v22.979h-8.198v-61.65h15.485c3.643 0 6.748.303 9.316.911 2.567.607 4.83 1.587 6.79 2.939 2.291 1.574 4.085 3.568 5.382 5.983 1.297 2.415 1.946 5.334 1.946 8.757zm-8.529.207c0-2.125-.366-3.975-1.097-5.548-.732-1.573-1.843-2.857-3.333-3.851-1.298-.855-2.809-1.463-4.534-1.821-1.725-.359-3.871-.539-6.438-.539h-6.79v24.635h5.589c3.312 0 5.99-.269 8.032-.807 2.043-.538 3.741-1.497 5.093-2.877 1.215-1.243 2.098-2.595 2.65-4.058.552-1.463.828-3.174.828-5.134zM149.413 690.756h-7.784v-5.135c-2.401 2.098-4.678 3.692-6.831 4.783-2.153 1.09-4.555 1.635-7.204 1.635-2.015 0-3.913-.331-5.693-.994-1.781-.662-3.333-1.711-4.658-3.146-1.325-1.436-2.353-3.244-3.085-5.424-.731-2.181-1.097-4.831-1.097-7.95v-30.017h7.784v26.332c0 2.457.09 4.493.269 6.107.179 1.615.587 3.03 1.221 4.244.635 1.187 1.498 2.057 2.588 2.609s2.657.828 4.699.828c1.905 0 3.934-.538 6.087-1.615a27.739 27.739 0 0 0 5.92-3.975v-34.53h7.784v46.248zM191.438 667.487c0-5.521-.842-9.709-2.526-12.566-1.684-2.857-4.389-4.285-8.115-4.285-2.125 0-4.271.496-6.438 1.49a24.97 24.97 0 0 0-5.9 3.768v26.498c1.96.966 3.699 1.649 5.217 2.049 1.518.401 3.188.601 5.009.601 3.975 0 7.094-1.408 9.358-4.223 2.263-2.816 3.395-7.26 3.395-13.332zm8.032-.621c0 7.563-1.836 13.649-5.507 18.259-3.671 4.609-8.267 6.914-13.787 6.914-2.512 0-4.658-.311-6.438-.932a28.247 28.247 0 0 1-5.279-2.504l-.497 2.153h-7.287v-64.424h7.784v23.02a29.205 29.205 0 0 1 6.376-4.389c2.291-1.159 4.886-1.739 7.784-1.739 5.217 0 9.329 2.091 12.338 6.273 3.009 4.182 4.513 9.971 4.513 17.369zM207.709 626.332h7.784v64.424h-7.784zM234.953 690.756h-7.784v-46.248h7.784v46.248zm.538-53.991h-8.86v-8.073h8.86v8.073zM264.763 691.791c-3.174 0-6.086-.49-8.736-1.47-2.65-.98-4.927-2.464-6.832-4.451-1.904-1.987-3.381-4.492-4.43-7.515-1.049-3.022-1.573-6.576-1.573-10.661 0-4.058.545-7.563 1.635-10.517 1.091-2.953 2.547-5.437 4.368-7.452 1.822-2.015 4.092-3.568 6.811-4.658 2.719-1.09 5.638-1.636 8.757-1.636 2.54 0 4.989.359 7.349 1.077 2.36.718 4.465 1.546 6.314 2.484v8.736h-.455a29.332 29.332 0 0 0-2.132-1.615c-.87-.607-1.926-1.228-3.168-1.863-1.076-.552-2.346-1.035-3.809-1.449-1.463-.414-2.871-.621-4.223-.621-4.03 0-7.266 1.525-9.709 4.575-2.443 3.05-3.664 7.363-3.664 12.939 0 5.465 1.18 9.723 3.54 12.773 2.36 3.05 5.637 4.575 9.833 4.575 2.539 0 4.955-.525 7.246-1.573 2.291-1.049 4.319-2.402 6.086-4.058h.455v8.736c-.773.359-1.739.794-2.898 1.304-1.159.511-2.208.89-3.147 1.139a41.911 41.911 0 0 1-3.56.89c-1.049.207-2.402.311-4.058.311zM357.548 690.756h-10.641l-22.482-28.693-3.602 4.057v24.636h-8.198v-61.65h8.198v28.361l25.256-28.361h9.979l-25.505 27.533 26.995 34.117z" fill-rule="nonzero"/><path d="M379.575 691.832c-7.37 0-13.091-2.077-17.162-6.231s-6.107-10.054-6.107-17.7c0-7.536 1.974-13.532 5.921-17.99 3.947-4.458 9.109-6.687 15.485-6.687 2.87 0 5.41.414 7.618 1.243 2.208.828 4.14 2.125 5.796 3.891 1.656 1.767 2.926 3.927 3.809 6.48.884 2.553 1.325 5.679 1.325 9.378v4.223h-32.046c0 5.383 1.353 9.495 4.058 12.338s6.445 4.265 11.22 4.265c1.711 0 3.388-.193 5.03-.58 1.643-.386 3.126-.883 4.451-1.49 1.408-.635 2.595-1.249 3.561-1.843.966-.593 1.767-1.152 2.401-1.677h.456v8.488c-.911.359-2.043.807-3.395 1.346-1.353.538-2.567.959-3.644 1.262a48.052 48.052 0 0 1-4.119.953c-1.229.221-2.781.331-4.658.331zm9.109-29.355c-.056-2.098-.304-3.906-.746-5.424-.441-1.518-1.076-2.801-1.904-3.85-.911-1.16-2.077-2.043-3.499-2.65-1.421-.607-3.181-.911-5.279-.911-2.07 0-3.83.31-5.279.932-1.449.621-2.767 1.525-3.954 2.711-1.159 1.215-2.042 2.561-2.65 4.037-.607 1.477-.993 3.195-1.159 5.155h24.47zM440.479 644.508l-24.883 63.306h-8.322l8.28-19.294-16.809-44.012h8.404l12.628 34.241 12.587-34.241h8.115zM460.684 656.308h-9.895v-11.8h9.895v11.8zm0 34.448h-9.895v-11.8h9.895v11.8z" fill-rule="nonzero"/><g fill-rule="nonzero"><path d="M67.27 886.348v-61.645h38.545v7.285h-30.35v16.895h28.28v7.286h-28.28v22.894h30.35v7.285H67.27zM150.155 886.348h-9.56l-11.221-17.467-11.553 17.467h-8.819l16.061-22.936-15.898-23.312h9.567l11.136 17.312 11.426-17.312h8.861l-15.983 22.774 15.983 23.474zM194.997 862.005c0 7.702-1.844 13.836-5.525 18.408-3.689 4.564-8.345 6.847-13.977 6.847-2.29 0-4.318-.262-6.084-.784-1.767-.523-3.576-1.343-5.427-2.445v19.375h-7.78V840.1h7.78v4.848a28.708 28.708 0 0 1 6.437-4.367c2.36-1.173 4.94-1.76 7.724-1.76 5.3 0 9.433 2.099 12.4 6.29 2.969 4.196 4.452 9.828 4.452 16.894zm-8.034.87c0-5.272-.84-9.363-2.522-12.274-1.69-2.912-4.417-4.367-8.197-4.367-2.212 0-4.346.487-6.402 1.47-2.056.975-4.007 2.24-5.858 3.787v26.208c2.042.99 3.787 1.668 5.236 2.028 1.449.36 3.116.537 4.989.537 4.035 0 7.165-1.476 9.405-4.43 2.233-2.954 3.35-7.271 3.35-12.96zM211.016 886.348h-7.78V840.1h7.78v46.248zm.545-53.985H202.7v-8.077h8.86v8.077zM246.955 848.467h-.41a8.976 8.976 0 0 0-1.844-.311 36.628 36.628 0 0 0-2.339-.064c-2.099 0-4.183.46-6.254 1.37-2.07.912-4.027 2.262-5.879 4.057v32.83h-7.78V840.1h7.78v6.876c2.848-2.509 5.321-4.283 7.434-5.321 2.113-1.032 4.162-1.555 6.148-1.555.798 0 1.399.021 1.801.064.403.042.848.106 1.343.19v8.113zM277.39 874.965v-12.832c-1.852.162-4.191.388-7.018.678-2.833.29-5.116.7-6.854 1.222-2.07.636-3.78 1.611-5.13 2.919-1.357 1.314-2.035 3.144-2.035 5.49 0 2.65.75 4.65 2.24 6 1.491 1.356 3.667 2.027 6.543 2.027 2.452 0 4.678-.53 6.664-1.59a29.087 29.087 0 0 0 5.59-3.914zm0 6.458a90.756 90.756 0 0 0-2.545 1.965c-1.067.848-2.091 1.512-3.088 2.013-1.378.714-2.713 1.265-3.992 1.654-1.286.389-3.088.58-5.406.58-1.9 0-3.71-.361-5.427-1.075a14.016 14.016 0 0 1-4.508-3.024c-1.243-1.272-2.24-2.834-2.982-4.699-.749-1.865-1.116-3.83-1.116-5.9 0-3.201.671-5.929 2.028-8.176 1.35-2.254 3.49-4.042 6.416-5.363 2.593-1.187 5.66-2.007 9.193-2.466a156.04 156.04 0 0 1 11.426-1.01v-1.492c0-1.823-.275-3.292-.827-4.409-.55-1.116-1.328-1.986-2.317-2.586-.997-.636-2.212-1.06-3.647-1.265a31.294 31.294 0 0 0-4.43-.31c-1.795 0-3.908.268-6.331.805-2.431.537-4.862 1.321-7.293 2.339h-.452v-7.907c1.435-.417 3.49-.87 6.169-1.364a43.092 43.092 0 0 1 7.95-.75c3.172 0 5.85.248 8.034.75 2.176.494 4.14 1.392 5.879 2.692 1.681 1.265 2.94 2.911 3.766 4.925.827 2.014 1.244 4.473 1.244 7.37v31.628h-7.745v-4.925zM310.056 887.26c-4.254 0-7.56-1.208-9.935-3.618-2.374-2.417-3.561-6.232-3.561-11.454v-25.63h-5.258V840.1h5.258v-13.284h7.78V840.1h14.33v6.459h-14.33v21.99c0 2.346.042 4.155.127 5.42a9.257 9.257 0 0 0 .954 3.56c.466.969 1.23 1.697 2.275 2.177 1.053.48 2.473.72 4.268.72 1.265 0 2.494-.183 3.681-.557 1.188-.368 2.043-.679 2.565-.933h.46v7.002c-1.463.41-2.947.735-4.452.969-1.505.24-2.89.353-4.162.353zM332.371 886.348h-7.78V840.1h7.78v46.248zm.537-53.985h-8.854v-8.077h8.854v8.077zM381.848 863.249c0 7.78-1.872 13.793-5.631 18.033-3.752 4.233-8.748 6.352-14.988 6.352-6.43 0-11.49-2.19-15.17-6.564-3.69-4.374-5.527-10.317-5.527-17.821 0-7.73 1.894-13.737 5.689-18.012 3.794-4.282 8.797-6.416 15.008-6.416 6.24 0 11.236 2.134 14.988 6.395 3.759 4.268 5.631 10.274 5.631 18.033zm-8.034 0c0-5.992-1.088-10.444-3.264-13.355-2.184-2.911-5.286-4.367-9.32-4.367-4.057 0-7.18 1.456-9.378 4.367-2.19 2.911-3.292 7.363-3.292 13.355 0 5.794 1.102 10.19 3.292 13.185 2.198 2.997 5.321 4.495 9.377 4.495 4.007 0 7.102-1.47 9.3-4.41 2.19-2.94 3.285-7.363 3.285-13.27zM426.196 886.348h-7.787V860.02c0-2.127-.106-4.106-.311-5.943-.205-1.837-.6-3.307-1.18-4.41-.636-1.158-1.52-2.02-2.65-2.585-1.13-.566-2.678-.848-4.635-.848-1.936 0-3.93.515-5.985 1.547-2.057 1.039-4.063 2.381-6.02 4.042v34.525h-7.788V840.1h7.787v5.137c2.318-2.07 4.607-3.66 6.869-4.762a16.167 16.167 0 0 1 7.165-1.654c4.55 0 8.112 1.498 10.684 4.494 2.565 2.99 3.85 7.335 3.85 13.016v30.017zM451.45 851.9h-9.9v-11.8h9.9v11.8zm0 34.448h-9.9v-11.8h9.9v11.8zM183.07 971.142h-38.045v-8.649a724.616 724.616 0 0 0 7.738-7.454 164.864 164.864 0 0 0 7.123-7.413c4.692-5.158 7.892-9.292 9.603-12.4 1.717-3.103 2.572-6.311 2.572-9.625 0-1.71-.269-3.215-.806-4.515-.544-1.293-1.279-2.375-2.219-3.23a9.68 9.68 0 0 0-3.356-1.858c-1.265-.417-2.664-.622-4.176-.622-1.463 0-2.947.184-4.452.558a33.687 33.687 0 0 0-4.332 1.385 23.271 23.271 0 0 0-3.349 1.696c-1.081.664-1.95 1.23-2.607 1.703h-.46v-8.783c1.71-.855 4.092-1.689 7.144-2.501 3.053-.813 5.943-1.223 8.678-1.223 5.737 0 10.238 1.526 13.496 4.579 3.257 3.045 4.883 7.18 4.883 12.394 0 2.403-.283 4.628-.848 6.67a24.633 24.633 0 0 1-2.34 5.675 39.543 39.543 0 0 1-3.688 5.335 103.183 103.183 0 0 1-4.55 5.222 189.172 189.172 0 0 1-8.678 8.776 748.86 748.86 0 0 1-7.638 7.2h30.307v7.08zM229.65 940.299c0 11.065-1.604 19.191-4.82 24.364-3.221 5.18-8.182 7.766-14.888 7.766-6.79 0-11.772-2.636-14.945-7.908-3.172-5.27-4.762-13.32-4.762-24.138 0-11.122 1.61-19.262 4.826-24.406 3.215-5.151 8.176-7.724 14.881-7.724 6.791 0 11.773 2.664 14.945 7.992 3.18 5.328 4.763 13.341 4.763 24.054zm-10.6 18.796c.8-2.042 1.372-4.622 1.697-7.738.332-3.123.501-6.805.501-11.058 0-4.226-.17-7.893-.501-11.017-.325-3.116-.912-5.709-1.739-7.78-.826-2.098-1.964-3.695-3.413-4.783-1.448-1.088-3.335-1.633-5.653-1.633-2.289 0-4.176.545-5.653 1.633-1.476 1.088-2.642 2.713-3.497 4.868-.827 2.099-1.392 4.749-1.696 7.95-.304 3.2-.46 6.812-.46 10.846 0 4.304.135 7.907.396 10.805.262 2.897.834 5.49 1.717 7.787.806 2.12 1.943 3.759 3.42 4.903 1.477 1.145 3.4 1.718 5.773 1.718 2.29 0 4.177-.545 5.653-1.633 1.477-1.095 2.629-2.713 3.456-4.868zM275.65 971.142H237.6v-8.649a727.622 727.622 0 0 0 7.744-7.454 164.864 164.864 0 0 0 7.123-7.413c4.692-5.158 7.893-9.292 9.603-12.4 1.71-3.103 2.565-6.311 2.565-9.625 0-1.71-.269-3.215-.806-4.515-.537-1.293-1.279-2.375-2.212-3.23a9.68 9.68 0 0 0-3.356-1.858c-1.272-.417-2.664-.622-4.183-.622-1.463 0-2.947.184-4.452.558a33.233 33.233 0 0 0-4.324 1.385 23.721 23.721 0 0 0-3.357 1.696 49.651 49.651 0 0 0-2.607 1.703h-.453v-8.783c1.71-.855 4.092-1.689 7.144-2.501 3.046-.813 5.936-1.223 8.67-1.223 5.745 0 10.24 1.526 13.497 4.579 3.257 3.045 4.89 7.18 4.89 12.394 0 2.403-.283 4.628-.848 6.67a24.964 24.964 0 0 1-2.346 5.675c-1.018 1.787-2.247 3.568-3.682 5.335a99.926 99.926 0 0 1-4.557 5.222c-2.594 2.812-5.484 5.737-8.67 8.776a832.43 832.43 0 0 1-7.639 7.2h30.307v7.08zM313.822 934.836c0-4.197-.381-7.61-1.159-10.253-.77-2.635-1.837-4.67-3.186-6.105-1.216-1.321-2.445-2.233-3.682-2.734-1.244-.495-2.614-.742-4.105-.742-3.392 0-6.098 1.215-8.112 3.646-2.014 2.424-3.025 5.942-3.025 10.557 0 2.593.332 4.734.997 6.416.664 1.682 1.738 3.13 3.229 4.345a8.364 8.364 0 0 0 3.561 1.718c1.322.29 2.75.438 4.261.438 1.767 0 3.675-.311 5.717-.933 2.042-.622 3.823-1.442 5.342-2.466.028-.41.063-.954.099-1.632.042-.679.063-1.428.063-2.255zm-31.67-5.3c0-3.179.516-6.076 1.554-8.698 1.032-2.621 2.445-4.882 4.24-6.79 1.71-1.823 3.802-3.244 6.275-4.261 2.466-1.025 4.974-1.534 7.511-1.534 2.848 0 5.42.474 7.723 1.428a17.096 17.096 0 0 1 5.985 4.12c2.127 2.26 3.774 5.228 4.947 8.903 1.173 3.667 1.76 8.31 1.76 13.913 0 5.102-.573 9.942-1.718 14.507-1.145 4.572-2.84 8.36-5.073 11.37-2.375 3.2-5.222 5.645-8.55 7.327-3.329 1.682-7.434 2.523-12.317 2.523-1.102 0-2.275-.064-3.519-.184a17.929 17.929 0 0 1-3.476-.685v-7.907h.41c.692.388 1.766.756 3.229 1.116 1.463.36 2.953.537 4.473.537 5.412 0 9.66-1.78 12.754-5.335 3.088-3.561 4.84-8.656 5.257-15.284-2.211 1.49-4.31 2.586-6.317 3.272-2 .692-4.169 1.038-6.515 1.038-2.296 0-4.38-.247-6.253-.749-1.88-.494-3.767-1.462-5.675-2.897-2.204-1.682-3.879-3.816-5.01-6.395-1.13-2.579-1.695-5.695-1.695-9.334zM329.39 940.426h23.353v7.497h-23.354zM395.889 971.142h-30.06v-6.288h11.18V923.53h-11.18v-5.632c4.219 0 7.335-.6 9.335-1.802 2-1.201 3.123-3.47 3.37-6.812h6.424v55.569h10.93v6.288zM445.324 971.142h-38.051v-8.649a727.622 727.622 0 0 0 7.744-7.454 168.753 168.753 0 0 0 7.116-7.413c4.692-5.158 7.9-9.292 9.61-12.4 1.71-3.103 2.565-6.311 2.565-9.625 0-1.71-.269-3.215-.806-4.515-.537-1.293-1.279-2.375-2.219-3.23a9.647 9.647 0 0 0-3.349-1.858c-1.272-.417-2.664-.622-4.183-.622-1.463 0-2.947.184-4.452.558a33.233 33.233 0 0 0-4.324 1.385 23.349 23.349 0 0 0-3.357 1.696 49.651 49.651 0 0 0-2.607 1.703h-.452v-8.783c1.71-.855 4.09-1.689 7.136-2.501 3.053-.813 5.943-1.223 8.678-1.223 5.737 0 10.239 1.526 13.496 4.579 3.258 3.045 4.883 7.18 4.883 12.394 0 2.403-.283 4.628-.848 6.67a24.633 24.633 0 0 1-2.339 5.675c-1.018 1.787-2.247 3.568-3.681 5.335a99.926 99.926 0 0 1-4.558 5.222c-2.593 2.812-5.484 5.737-8.67 8.776a937.021 937.021 0 0 1-7.639 7.2h30.307v7.08zM452.772 940.426h23.353v7.497h-23.353zM501.005 915.376c-1.483 0-2.974.177-4.465.537a31.38 31.38 0 0 0-4.389 1.406c-1.328.552-2.48 1.131-3.462 1.739a90.357 90.357 0 0 0-2.629 1.696h-.494v-8.734c1.795-.968 4.232-1.845 7.306-2.629 3.081-.784 6.014-1.18 8.798-1.18 2.79 0 5.229.283 7.306.848 2.085.565 3.971 1.442 5.653 2.629 1.823 1.328 3.194 2.925 4.12 4.805.925 1.88 1.392 4.07 1.392 6.585 0 3.392-1.124 6.374-3.357 8.939-2.233 2.565-4.91 4.197-8.034 4.89v.58c1.3.247 2.685.67 4.162 1.278 1.477.608 2.848 1.505 4.12 2.692 1.271 1.188 2.303 2.714 3.109 4.58.798 1.858 1.194 4.133 1.194 6.804 0 2.791-.474 5.35-1.428 7.681a19.21 19.21 0 0 1-4.034 6.19c-1.795 1.88-3.964 3.3-6.501 4.268-2.537.968-5.42 1.449-8.656 1.449-3.088 0-6.155-.375-9.186-1.117-3.039-.749-5.59-1.646-7.66-2.692v-8.734h.58c1.738 1.265 4.07 2.48 6.995 3.64 2.925 1.158 5.85 1.737 8.776 1.737a16.75 16.75 0 0 0 5.074-.805c1.695-.537 3.109-1.413 4.246-2.629a13.15 13.15 0 0 0 2.523-4.013c.58-1.463.87-3.314.87-5.554 0-2.233-.326-4.07-.976-5.505-.643-1.434-1.547-2.565-2.706-3.392-1.166-.833-2.537-1.406-4.12-1.717-1.59-.318-3.307-.48-5.158-.48h-3.52v-6.876h2.735c3.724 0 6.756-.883 9.088-2.65 2.331-1.766 3.497-4.331 3.497-7.695 0-1.547-.304-2.883-.911-3.999-.608-1.116-1.378-2.007-2.318-2.671a9.902 9.902 0 0 0-3.477-1.491 19.13 19.13 0 0 0-4.063-.41zM565.555 971.142h-30.06v-6.288h11.18V923.53h-11.18v-5.632c4.226 0 7.335-.6 9.342-1.802 2-1.201 3.123-3.47 3.37-6.812h6.417v55.569h10.931v6.288z"/></g><g fill-rule="nonzero"><path d="M103.307 340.32H67.312v-62.105h8.26v54.763h27.735v7.341zM147.52 317.05c0 7.837-1.887 13.893-5.667 18.16-3.788 4.268-8.819 6.402-15.1 6.402-6.48 0-11.575-2.204-15.292-6.606-3.71-4.41-5.568-10.395-5.568-17.956 0-7.787 1.915-13.835 5.738-18.146 3.822-4.31 8.86-6.465 15.121-6.465 6.282 0 11.313 2.148 15.1 6.444 3.781 4.296 5.668 10.352 5.668 18.167zm-8.091 0c0-6.034-1.095-10.521-3.293-13.454-2.197-2.932-5.328-4.402-9.384-4.402-4.091 0-7.236 1.47-9.447 4.402-2.212 2.933-3.314 7.42-3.314 13.454 0 5.837 1.102 10.268 3.314 13.285 2.211 3.017 5.356 4.522 9.447 4.522 4.028 0 7.151-1.484 9.363-4.444 2.212-2.961 3.314-7.413 3.314-13.363zM174.096 341.365c-3.201 0-6.134-.495-8.805-1.484-2.67-.982-4.96-2.48-6.882-4.48-1.915-2.007-3.406-4.53-4.459-7.575-1.06-3.038-1.59-6.62-1.59-10.74 0-4.085.551-7.618 1.647-10.592 1.102-2.975 2.565-5.477 4.402-7.505 1.837-2.035 4.126-3.596 6.861-4.699 2.742-1.095 5.681-1.646 8.826-1.646 2.558 0 5.024.36 7.398 1.088 2.381.72 4.501 1.555 6.367 2.501v8.798h-.46a32.613 32.613 0 0 0-2.148-1.625c-.876-.608-1.943-1.237-3.194-1.873-1.08-.558-2.36-1.046-3.837-1.463-1.477-.417-2.89-.621-4.254-.621-4.063 0-7.32 1.533-9.78 4.607-2.465 3.073-3.695 7.412-3.695 13.03 0 5.511 1.194 9.8 3.569 12.867 2.374 3.074 5.68 4.614 9.906 4.614 2.558 0 4.99-.53 7.3-1.59a22.621 22.621 0 0 0 6.133-4.084h.46v8.798c-.785.367-1.753.805-2.926 1.314-1.166.516-2.219.897-3.165 1.152a43.5 43.5 0 0 1-3.59.897c-1.053.205-2.417.311-4.084.311zM221.015 328.85v-12.93c-1.858.17-4.218.396-7.066.692-2.855.29-5.151.7-6.904 1.23-2.084.636-3.808 1.618-5.172 2.94-1.364 1.32-2.042 3.158-2.042 5.525 0 2.671.749 4.685 2.247 6.049 1.505 1.364 3.702 2.042 6.592 2.042 2.474 0 4.714-.537 6.713-1.604a29.3 29.3 0 0 0 5.632-3.943zm0 6.509c-.636.473-1.49 1.13-2.565 1.978-1.067.848-2.106 1.527-3.102 2.028-1.392.721-2.735 1.28-4.028 1.668-1.293.389-3.109.58-5.44.58-1.923 0-3.746-.36-5.47-1.082a14 14 0 0 1-4.543-3.045c-1.251-1.28-2.255-2.855-3.004-4.735a15.896 15.896 0 0 1-1.123-5.942c0-3.23.678-5.971 2.042-8.24 1.364-2.268 3.519-4.07 6.466-5.398 2.614-1.201 5.695-2.028 9.256-2.487 3.562-.46 7.399-.799 11.511-1.018v-1.505c0-1.837-.275-3.314-.834-4.437-.55-1.131-1.335-2-2.332-2.608-1.003-.643-2.225-1.067-3.674-1.272a30.663 30.663 0 0 0-4.459-.318c-1.809 0-3.936.276-6.38.813a42.59 42.59 0 0 0-7.342 2.36h-.46v-7.97c1.442-.418 3.52-.87 6.212-1.372 2.699-.501 5.37-.756 8.013-.756 3.194 0 5.893.255 8.09.756 2.198.502 4.17 1.4 5.922 2.707 1.696 1.279 2.96 2.94 3.794 4.967.834 2.028 1.251 4.502 1.251 7.427v31.861h-7.8v-4.96zM253.93 341.238c-4.283 0-7.625-1.215-10.013-3.646-2.389-2.438-3.59-6.282-3.59-11.532v-25.82h-5.293v-6.508h5.293v-13.39h7.843v13.39h14.437v6.508H248.17v22.145c0 2.368.043 4.184.128 5.463a9.277 9.277 0 0 0 .96 3.59c.467.974 1.237 1.702 2.29 2.19 1.06.487 2.487.727 4.296.727 1.28 0 2.516-.183 3.717-.558 1.194-.381 2.056-.692 2.586-.94h.46v7.045a37.638 37.638 0 0 1-4.487.983c-1.52.233-2.912.353-4.19.353zM276.407 340.32h-7.837v-46.588h7.837v46.587zm.544-54.39h-8.925v-8.132h8.925v8.133zM326.252 317.05c0 7.837-1.887 13.893-5.667 18.16-3.788 4.268-8.819 6.402-15.1 6.402-6.48 0-11.575-2.204-15.292-6.606-3.71-4.41-5.568-10.395-5.568-17.956 0-7.787 1.915-13.835 5.738-18.146 3.822-4.31 8.86-6.465 15.121-6.465 6.282 0 11.313 2.148 15.1 6.444 3.781 4.296 5.668 10.352 5.668 18.167zm-8.091 0c0-6.034-1.095-10.521-3.293-13.454-2.197-2.932-5.328-4.402-9.384-4.402-4.091 0-7.236 1.47-9.447 4.402-2.212 2.933-3.321 7.42-3.321 13.454 0 5.837 1.109 10.268 3.32 13.285 2.212 3.017 5.357 4.522 9.448 4.522 4.028 0 7.151-1.484 9.363-4.444 2.212-2.961 3.314-7.413 3.314-13.363zM370.924 340.32h-7.836v-26.527c0-2.141-.106-4.134-.318-5.985-.205-1.852-.6-3.328-1.187-4.445-.636-1.166-1.527-2.035-2.671-2.607-1.138-.566-2.693-.855-4.671-.855-1.943 0-3.957.523-6.028 1.568-2.07 1.04-4.09 2.396-6.07 4.064v34.786h-7.836v-46.587h7.837v5.172c2.338-2.084 4.642-3.688 6.924-4.797a16.294 16.294 0 0 1 7.215-1.668c4.593 0 8.176 1.505 10.762 4.522 2.586 3.018 3.88 7.391 3.88 13.122v30.236zM396.37 305.617h-9.971v-11.885h9.97v11.885zm0 34.702h-9.971v-11.885h9.97v11.885zM171.672 426.873c-4.056 0-7.794-.685-11.2-2.042a23.894 23.894 0 0 1-8.819-6.091c-2.473-2.7-4.395-6.063-5.758-10.098-1.364-4.028-2.043-8.663-2.043-13.885 0-5.2.658-9.737 1.979-13.602 1.321-3.865 3.25-7.229 5.78-10.09a24.628 24.628 0 0 1 8.797-6.36c3.4-1.463 7.194-2.19 11.391-2.19 2.085 0 4.042.148 5.858.458a40.36 40.36 0 0 1 5.074 1.166c1.328.417 2.699.94 4.105 1.562a56.605 56.605 0 0 1 4.148 2.063v9.97h-.664a71.351 71.351 0 0 0-2.799-2.416c-1.137-.947-2.53-1.88-4.169-2.798-1.582-.862-3.307-1.569-5.172-2.127-1.866-.551-4.02-.834-6.466-.834-2.642 0-5.144.544-7.504 1.625-2.367 1.089-4.437 2.686-6.218 4.798-1.753 2.113-3.116 4.77-4.084 7.971-.976 3.194-1.463 6.798-1.463 10.804 0 4.254.516 7.914 1.54 10.988 1.032 3.074 2.438 5.667 4.219 7.78 1.724 2.056 3.752 3.604 6.084 4.65 2.339 1.045 4.812 1.561 7.426 1.561 2.396 0 4.6-.29 6.636-.876 2.027-.58 3.836-1.314 5.42-2.205 1.533-.862 2.847-1.745 3.963-2.65 1.11-.904 1.986-1.674 2.629-2.317h.622v9.843c-1.364.643-2.65 1.25-3.858 1.837-1.209.587-2.678 1.152-4.395 1.71-1.81.587-3.484 1.032-5.032 1.336-1.54.304-3.554.459-6.027.459zM198.24 360.847h7.844v64.902h-7.843zM225.686 425.742h-7.837v-46.587h7.837v46.587zm.544-54.388h-8.925v-8.133h8.925v8.133zM261.893 368.35h-.417c-.692-.246-1.696-.494-3.003-.727-1.307-.24-2.473-.353-3.505-.353-3.307 0-5.667.742-7.066 2.226-1.406 1.49-2.106 4.183-2.106 8.076v1.583h12.967v6.508h-12.72v40.08H238.2v-40.08h-5.293v-6.508h5.293v-1.547c0-5.611 1.35-9.879 4.049-12.804 2.7-2.919 6.564-4.374 11.596-4.374 1.448 0 2.861.07 4.253.226 1.392.155 2.657.325 3.795.523v7.172z"/><path d="M278.661 426.661c-4.282 0-7.617-1.215-10.013-3.646-2.388-2.438-3.582-6.282-3.582-11.532v-25.82h-5.3v-6.508h5.3v-13.39h7.843v13.39h14.43v6.508h-14.43v22.145c0 2.368.035 4.184.12 5.463a9.277 9.277 0 0 0 .961 3.59c.474.974 1.237 1.702 2.297 2.19 1.053.487 2.487.728 4.296.728 1.279 0 2.516-.184 3.71-.559 1.194-.381 2.056-.692 2.586-.94h.46v7.045a37.337 37.337 0 0 1-4.488.983c-1.512.24-2.911.353-4.19.353zM331.467 402.473c0 7.837-1.887 13.893-5.675 18.16-3.78 4.268-8.811 6.402-15.093 6.402-6.48 0-11.581-2.197-15.291-6.606-3.71-4.41-5.568-10.395-5.568-17.956 0-7.786 1.915-13.835 5.737-18.146 3.823-4.31 8.861-6.465 15.122-6.465 6.282 0 11.313 2.148 15.093 6.444 3.788 4.297 5.675 10.352 5.675 18.167zm-8.091 0c0-6.034-1.095-10.521-3.293-13.454-2.198-2.932-5.328-4.402-9.384-4.402-4.091 0-7.243 1.47-9.447 4.402-2.212 2.933-3.322 7.42-3.322 13.454 0 5.837 1.11 10.268 3.322 13.285 2.204 3.017 5.356 4.522 9.447 4.522 4.028 0 7.151-1.477 9.363-4.444 2.211-2.961 3.314-7.413 3.314-13.363zM376.139 425.742h-7.844v-26.526c0-2.141-.098-4.134-.31-5.985-.205-1.851-.601-3.328-1.188-4.445-.643-1.166-1.533-2.035-2.67-2.6-1.138-.572-2.7-.855-4.671-.855-1.944 0-3.957.516-6.028 1.562-2.07 1.038-4.091 2.395-6.07 4.063v34.786h-7.843v-46.587h7.843v5.172c2.34-2.084 4.643-3.688 6.925-4.797a16.294 16.294 0 0 1 7.215-1.668c4.593 0 8.175 1.505 10.762 4.522 2.586 3.018 3.879 7.392 3.879 13.122v30.236zM191.818 511.172h-9.257l-27.445-53.561v53.561H147.4v-62.111h11.715l24.986 49.18v-49.18h7.717v62.111zM224.018 512.254c-7.42 0-13.185-2.092-17.284-6.275-4.105-4.19-6.154-10.133-6.154-17.835 0-7.59 1.985-13.63 5.964-18.125 3.978-4.487 9.179-6.734 15.602-6.734 2.89 0 5.448.417 7.674 1.25 2.225.835 4.169 2.142 5.836 3.922 1.668 1.781 2.947 3.957 3.837 6.53.89 2.572 1.336 5.716 1.336 9.447v4.254h-32.286c0 5.42 1.364 9.568 4.092 12.43 2.727 2.861 6.493 4.296 11.305 4.296a22.07 22.07 0 0 0 5.067-.587c1.653-.389 3.144-.89 4.48-1.498 1.42-.643 2.614-1.258 3.59-1.858.975-.601 1.78-1.16 2.416-1.69h.46v8.55c-.92.361-2.057.813-3.42 1.358-1.364.544-2.587.968-3.668 1.272a50.128 50.128 0 0 1-4.155.96c-1.236.22-2.798.333-4.692.333zm9.18-29.572c-.057-2.113-.305-3.936-.75-5.463-.445-1.533-1.088-2.826-1.922-3.879-.918-1.173-2.091-2.063-3.526-2.67-1.427-.616-3.2-.92-5.314-.92-2.084 0-3.858.311-5.32.94-1.456.622-2.785 1.534-3.986 2.728-1.166 1.23-2.056 2.579-2.664 4.07-.614 1.484-1.003 3.215-1.173 5.194h24.654zM305.23 464.578l-11.8 46.594h-7.258l-11.39-35.917-11.306 35.917h-7.215l-11.928-46.594h8.176l8.218 36.08 11.052-36.08h6.465l11.348 36.08 7.759-36.08h7.879zM362.876 495.026c0 5.448-1.66 9.653-4.982 12.6-3.328 2.946-7.78 4.416-13.37 4.416-1.335 0-3.122-.113-5.362-.354-2.24-.233-4.106-.516-5.61-.855v-7.878h.458c1.145.388 2.551.82 4.233 1.293 1.682.473 3.399.706 5.151.706 2.558 0 4.6-.29 6.113-.876 1.519-.586 2.635-1.42 3.356-2.501.756-1.117 1.23-2.474 1.441-4.092.212-1.61.311-3.476.311-5.589v-36.242H341.48v-6.593h21.397v45.965zM394.66 512.254c-7.427 0-13.186-2.092-17.292-6.275-4.098-4.19-6.147-10.133-6.147-17.835 0-7.59 1.985-13.63 5.964-18.125 3.97-4.487 9.172-6.734 15.595-6.734 2.897 0 5.455.417 7.68 1.25 2.22.835 4.17 2.142 5.837 3.922 1.668 1.781 2.947 3.957 3.837 6.53.89 2.572 1.336 5.716 1.336 9.447v4.254h-32.286c0 5.42 1.364 9.568 4.092 12.43 2.72 2.861 6.487 4.296 11.299 4.296a22.07 22.07 0 0 0 5.066-.587c1.66-.389 3.152-.89 4.487-1.498 1.42-.643 2.615-1.258 3.59-1.858.968-.601 1.773-1.16 2.416-1.69h.46v8.55c-.919.361-2.057.813-3.42 1.358-1.364.544-2.587.968-3.675 1.272a50.016 50.016 0 0 1-4.148.96c-1.236.22-2.798.333-4.692.333zm9.178-29.572c-.056-2.113-.31-3.936-.756-5.463-.445-1.533-1.08-2.826-1.915-3.879-.918-1.173-2.091-2.063-3.526-2.67-1.434-.616-3.2-.92-5.32-.92-2.085 0-3.859.311-5.314.94-1.463.622-2.791 1.534-3.986 2.728-1.166 1.23-2.056 2.579-2.67 4.07-.608 1.484-.997 3.215-1.167 5.194h24.654zM444.087 473.001h-.417a9.115 9.115 0 0 0-1.858-.31 36.95 36.95 0 0 0-2.353-.065c-2.113 0-4.211.46-6.303 1.378-2.085.919-4.056 2.283-5.922 4.092v33.076h-7.843v-46.594h7.843v6.925c2.87-2.53 5.364-4.317 7.49-5.363 2.128-1.039 4.19-1.562 6.19-1.562.806 0 1.414.021 1.817.064.402.042.855.106 1.356.183v8.176zM462.77 512.296c-3.109 0-6.027-.417-8.733-1.25-2.714-.835-4.96-1.725-6.742-2.672v-8.797h.417c.672.523 1.456 1.11 2.36 1.745.905.643 2.106 1.307 3.611 2.007a33.42 33.42 0 0 0 4.395 1.625c1.604.474 3.265.707 4.99.707 1.25 0 2.585-.141 3.999-.438 1.42-.29 2.48-.657 3.172-1.103.975-.643 1.675-1.32 2.106-2.042.431-.727.65-1.809.65-3.257 0-1.859-.509-3.265-1.526-4.212-1.01-.947-2.813-1.738-5.399-2.374a93.797 93.797 0 0 0-3.922-.876c-1.61-.34-3.102-.7-4.465-1.088-3.555-1.025-6.14-2.622-7.759-4.777-1.611-2.155-2.417-4.763-2.417-7.822 0-4.198 1.583-7.618 4.756-10.26 3.173-2.636 7.384-3.957 12.634-3.957 2.586 0 5.187.318 7.801.954 2.615.643 4.812 1.448 6.593 2.423v8.38h-.417a24.551 24.551 0 0 0-6.692-3.751c-2.466-.919-4.946-1.378-7.447-1.378-2.587 0-4.77.544-6.55 1.625-1.781 1.088-2.672 2.727-2.672 4.925 0 1.943.53 3.399 1.59 4.36 1.053.96 2.749 1.745 5.088 2.353 1.166.31 2.466.608 3.9.897 1.428.297 2.94.636 4.523 1.025 3.448.862 6.041 2.29 7.78 4.296 1.738 2 2.607 4.727 2.607 8.176 0 2-.396 3.9-1.187 5.695a12.62 12.62 0 0 1-3.484 4.607 17.72 17.72 0 0 1-5.653 3.166c-2.098.728-4.734 1.088-7.907 1.088zM508.53 512.254c-7.426 0-13.185-2.092-17.29-6.275-4.098-4.19-6.155-10.133-6.155-17.835 0-7.59 1.993-13.63 5.971-18.125 3.971-4.487 9.172-6.734 15.595-6.734 2.897 0 5.455.417 7.674 1.25 2.226.835 4.176 2.142 5.844 3.922 1.668 1.781 2.946 3.957 3.837 6.53.89 2.572 1.335 5.716 1.335 9.447v4.254h-32.285c0 5.42 1.364 9.568 4.084 12.43 2.728 2.861 6.494 4.296 11.306 4.296a22.07 22.07 0 0 0 5.067-.587c1.653-.389 3.151-.89 4.487-1.498 1.42-.643 2.614-1.258 3.582-1.858.975-.601 1.78-1.16 2.424-1.69h.46v8.55c-.92.361-2.057.813-3.42 1.358-1.365.544-2.587.968-3.675 1.272a50.016 50.016 0 0 1-4.148.96c-1.237.22-2.805.333-4.692.333zm9.18-29.572c-.057-2.113-.311-3.936-.756-5.463-.445-1.533-1.081-2.826-1.915-3.879-.919-1.173-2.092-2.063-3.526-2.67-1.435-.616-3.208-.92-5.321-.92-2.085 0-3.858.311-5.314.94-1.462.622-2.79 1.534-3.985 2.728-1.166 1.23-2.056 2.579-2.671 4.07-.608 1.484-.996 3.215-1.166 5.194h24.654zM569.887 464.578l-25.071 63.772h-8.38l8.337-19.432-16.93-44.34h8.465l12.726 34.497 12.677-34.497h8.176zM590.993 499.28l-11.68 27.325h-6.091l7.342-27.325h10.43zM650.681 512.459c-3.646 0-6.826-.474-9.553-1.435-2.728-.96-5.045-2.388-6.967-4.275-2.17-2.17-3.696-4.763-4.586-7.78-.89-3.017-1.336-6.734-1.336-11.157V449.06h8.26v38.75c0 2.863.177 5.28.545 7.236.36 1.958 1.067 3.717 2.126 5.279 1.11 1.668 2.622 2.932 4.523 3.794 1.908.863 4.232 1.294 6.988 1.294 2.586 0 4.883-.431 6.883-1.294 2-.862 3.561-2.126 4.67-3.794a14.711 14.711 0 0 0 2.106-5.257c.375-1.922.565-4.268.565-7.052V449.06h8.26v38.75c0 4.311-.437 8.007-1.313 11.095-.877 3.088-2.417 5.702-4.615 7.843a19.07 19.07 0 0 1-6.903 4.296c-2.622.947-5.844 1.414-9.653 1.414zM702.32 512.296c-4.507 0-8.337-.466-11.496-1.4-3.151-.932-6.12-2.077-8.903-3.44V497.11h.586a29.732 29.732 0 0 0 9.257 5.942c3.448 1.407 6.77 2.106 9.97 2.106 4.558 0 8.006-.947 10.345-2.855 2.332-1.9 3.505-4.416 3.505-7.525 0-2.48-.615-4.494-1.837-6.049-1.223-1.561-3.173-2.713-5.837-3.462a93.182 93.182 0 0 0-5.257-1.378c-1.583-.36-3.575-.848-5.964-1.463-2.14-.55-4.063-1.265-5.759-2.127a16.187 16.187 0 0 1-4.501-3.377c-1.279-1.364-2.275-2.968-2.982-4.82-.714-1.844-1.067-3.978-1.067-6.401 0-5.031 1.965-9.25 5.88-12.656 3.92-3.406 8.93-5.109 15.015-5.109 3.476 0 6.77.346 9.864 1.039 3.102.7 5.978 1.682 8.614 2.96v9.886h-.622c-1.978-1.802-4.508-3.384-7.589-4.734a24.144 24.144 0 0 0-9.723-2.021c-3.837 0-6.94.897-9.3 2.692-2.366 1.795-3.546 4.148-3.546 7.066 0 2.643.692 4.742 2.084 6.303 1.392 1.555 3.406 2.693 6.049 3.42 1.752.474 3.893 1.004 6.423 1.605 2.53.6 4.628 1.144 6.303 1.646 4.282 1.307 7.405 3.286 9.384 5.921 1.971 2.643 2.96 5.9 2.96 9.766 0 2.416-.494 4.805-1.483 7.172-.983 2.36-2.367 4.367-4.148 6.006-2 1.81-4.261 3.201-6.777 4.17-2.515.974-5.667 1.462-9.447 1.462zM725.3 511.172l20.937-62.111h10.183l20.937 62.111h-8.72l-5.632-17.354h-23.728l-5.632 17.354H725.3zm35.416-24.406l-9.596-29.275-9.554 29.275h19.15z"/></g><path d="M671.292 649.576c-.256-.383.125-.914.242-1.36.274-1.048.653-2.068.929-3.117 1.203-4.567 1.846-9.203 2.026-13.94 1.576-41.586-59.099-57.68-80.243-20.117-5.298 9.414-7.551 20.49-5.808 31.111.931 5.669 2.918 11.217 6.049 16.051 7.682 11.862 22.714 19.769 36.915 18.254 5.773-.616 6.174-.887 11.555-2.133 1.422-.329 5.045-1.634 6.943-.998 1.329.446 1.616 1.834 1.56 3.068-.069 1.531-.429 2.16-1.022 3.626-.589 1.455-1.576 3.035-.387 4.493.265.326.582.613.927.852.46.319.95.608 1.472.813 2.277.893 3.952-.53 5.747-1.732.703-.471 1.302-1.172 2.117-1.401.343-.097.638.327.92.546a32.623 32.623 0 0 1 2.101 1.796c2.382 2.194 4.76 4.394 7.075 6.658a2167.986 2167.986 0 0 1 42.125 42.302c3.602 3.719 7.023 7.612 10.652 11.306.495.503 2.128.642 2.556.66 4.098.179 5.973.067 10.087-.497.986-.135 3.433-.407 3.882-1.64.418-1.15.426-3.918.416-4.502-.053-2.903-.488-14.215-1.914-15.322-1.634-1.269-5.358-.46-6.086-2.044-1.405-3.059.428-7.054-1.178-8.421-1.667-1.419-7.049-1.7-7.975-2.95-1.262-1.7-.353-4.339-1.938-5.897-2.573-2.531-5.227-.578-8.224-2.163-1.286-.68-.601-7.414-1.977-8.364-2.573-1.778-7.23.661-9.477-1.779-1.233-1.34-.576-8.045-.937-9.433-.433-1.666-7.285-4.111-7.625-5.029-.776-2.095-.319-2.956-.83-5.087-.138-.576-.606-1.021-.965-1.492-2.153-2.825-8.532-9.859-9.385-10.805-.857-.951 6.341-4.718 2.415-8.642-3.509-3.506-7.582 2.96-8.58 1.869-2.282-2.495-4.16-4.54-4.16-4.54zm-52.077-41.351c6.882 0 12.469 5.405 12.469 12.062 0 6.657-5.587 12.062-12.469 12.062-6.883 0-12.47-5.405-12.47-12.062 0-6.657 5.587-12.062 12.47-12.062z" fill="url(#a)" stroke="#000" stroke-width="2.17"/><path d="M648.521 661.692l83.023 83.898M655.862 655.402l83.694 81.774" fill="none" stroke="#000" stroke-width="1.86"/><path d="M642.87 641.776a5.15 5.15 0 0 1 2.712-.654c.949.034 2.477.447 4.588 1.237l7.793 2.896-2.887 2.708-7.075-2.796c-2.023-.786-3.5-1.132-4.434-1.032-.932.1-1.837.561-2.715 1.384l-2.568 2.41 7.875 8.397-2.701 2.533-18.635-19.868 5.537-5.193c2.182-2.046 4.315-3.122 6.401-3.228 2.087-.106 4.004.774 5.75 2.636 1.233 1.314 1.88 2.72 1.943 4.22.064 1.5-.464 2.95-1.584 4.35zm-13.273-3.11l6.615 7.054 2.941-2.758c1.286-1.207 1.973-2.394 2.063-3.561.089-1.169-.424-2.347-1.539-3.536-1.073-1.144-2.23-1.705-3.47-1.686-1.24.021-2.499.63-3.776 1.828l-2.834 2.659z" fill="none"/><path d="M642.87 641.776a5.15 5.15 0 0 1 2.712-.654c.949.034 2.477.447 4.588 1.237l7.793 2.896-2.887 2.708-7.075-2.796c-2.023-.786-3.5-1.132-4.434-1.032-.932.1-1.837.561-2.715 1.384l-2.568 2.41 7.875 8.397-2.701 2.533-18.635-19.868 5.537-5.193c2.182-2.046 4.315-3.122 6.401-3.228 2.087-.106 4.004.774 5.75 2.636 1.233 1.314 1.88 2.72 1.943 4.22.064 1.5-.464 2.95-1.584 4.35zm-13.273-3.11l6.615 7.054 2.941-2.758c1.286-1.207 1.973-2.394 2.063-3.561.089-1.169-.424-2.347-1.539-3.536-1.073-1.144-2.23-1.705-3.47-1.686-1.24.021-2.499.63-3.776 1.828l-2.834 2.659z" fill="#fff" fill-rule="nonzero"/><path d="M637.17 628.395l.129.001.129.005.127.005.13.008.13.01.128.011.127.014.128.016.127.018.127.019.127.021.127.024.126.025.125.028.126.03.125.03.126.033.122.036.124.037.123.038.123.041.12.042.123.044.121.047.121.047.119.05.12.051.117.053.118.055.117.057.117.059.115.06.114.062.115.063.114.066.113.066.112.068.113.07.11.072.109.073.11.075.109.077.108.077.107.079.107.08.105.083.107.084.103.085.103.086.104.09.103.09.102.09.102.091.1.096.099.093.1.098.1.098.095.099.1.1.098.105.136.148.136.153.132.155.126.15.067.083.062.08.06.078.061.08.06.08.059.08.056.082.058.081.057.082.054.082.055.084.053.083.053.084.051.084.05.083.049.085.048.087.048.086.047.086.045.086.044.088.044.087.042.088.042.089.04.09.04.087.036.089.037.09.036.091.036.092.034.09.032.09.032.093.03.092.03.092.028.093.026.093.026.093.026.093.024.096.022.094.02.093.02.096.02.094.018.095.016.096.015.095.015.095.012.097.013.095.011.097.009.096.009.097.006.096.006.096.005.098.003.096.002.098.001.096.001.096v.098l-.004.097-.004.096-.004.096-.006.098-.009.097-.007.096-.01.097-.01.096-.013.096-.014.095-.014.097-.016.095-.012.064.138.021.144.026.146.027.146.029.15.032.151.033.153.037.156.038.156.04.161.043.16.043.167.046.167.05.17.05.172.054.176.054.178.057.182.06.183.063.187.062.189.066.194.068.195.07.198.072.202.073.2.074 7.792 2.896.15.063.147.075.14.083.132.095.126.105.116.113.11.122.098.13.088.137.078.143.068.148.056.155.044.156.033.16.02.163.007.16-.004.165-.017.162-.03.161-.04.158-.052.155-.064.15-.075.145-.085.138-.097.131-.106.126-.115.115-2.888 2.708-.123.108-.13.098-.138.088-.145.077-.148.065-.156.054-.157.042-.16.03-.162.02-.163.005-.163-.006-.163-.018-.16-.032-.158-.04-.154-.055-7.066-2.792-.173-.067-.173-.065-.165-.062-.165-.06-.16-.056-.157-.055-.151-.05-.149-.05-.143-.046-.141-.044-.136-.039-.133-.038-.125-.036-.125-.031-.117-.03-.115-.028-.11-.025-.104-.023-.1-.019-.095-.017-.087-.015-.086-.012-.078-.01-.073-.01-.068-.004-.06-.005-.054-.003-.048-.001-.042.001h-.036l-.026.002-.024.002-.03.003-.036.005-.037.007-.034.007-.038.007-.037.009-.036.01-.038.011-.04.012-.039.014-.04.014-.041.018-.041.016-.043.02-.044.021-.045.02-.045.026-.046.025-.048.027-.048.03-.05.032-.05.03-.051.036-.053.037-.052.039-.054.04-.056.045-.057.045-.055.047-.057.051-.058.052-.066.059-.98.92 6.392 6.816.107.122.096.13.088.136.076.144.066.147.055.153.042.157.032.16.018.16.007.163-.005.16-.017.162-.029.16-.042.156-.052.154-.064.15-.075.143-.086.137-.096.132-.104.123-.115.115-2.701 2.534-.122.106-.131.098-.136.086-.142.077-.149.065-.153.055-.157.042-.159.032-.161.018-.162.007-.162-.004-.16-.018-.16-.029-.157-.042-.154-.052-.15-.064-.143-.075-.137-.086-.131-.096-.124-.104-.114-.115-18.635-19.868-.106-.122-.098-.131-.086-.136-.077-.142-.067-.15-.053-.152-.042-.156-.032-.16-.019-.16-.008-.162.006-.163.017-.162.03-.158.04-.158.054-.153.064-.149.075-.144.086-.137.093-.131.107-.123.113-.116 5.54-5.196.11-.101.115-.105.113-.103.113-.102.116-.1.114-.1.115-.097.113-.096.117-.094.115-.095.116-.091.115-.09.115-.09.116-.089.117-.087.118-.084.116-.084.118-.083.116-.08.117-.08.12-.079.117-.076.118-.076.12-.074.12-.07.12-.072.117-.07.121-.067.12-.068.121-.064.12-.064.123-.062.122-.06.12-.06.123-.056.122-.056.124-.055.122-.053.124-.05.124-.05.124-.047.124-.048.125-.043.126-.043.125-.041.125-.041.126-.037.127-.037.126-.034.126-.034.128-.03.127-.03.127-.028.128-.025.128-.023.127-.022.129-.021.128-.019.13-.017.128-.015.13-.012.128-.01.128-.01.13-.008.13-.007.13-.004h.258zm-.214 2.168l-.097.002-.098.005-.097.005-.098.007-.098.01-.098.01-.098.01-.098.013-.099.014-.098.015-.098.018-.098.018-.098.02-.1.023-.1.021-.097.024-.099.026-.1.027-.098.028-.098.031-.1.03-.099.034-.098.033-.1.035-.1.038-.099.039-.099.039-.101.042-.099.041-.1.046-.1.044-.1.048-.1.048-.099.05-.1.05-.1.054-.101.054-.1.054-.1.056-.101.06-.1.06-.1.06-.102.063-.101.064-.1.065-.1.067-.102.07-.1.068-.103.07-.1.074-.102.073-.1.076-.102.077-.101.077-.101.08-.103.081-.102.082-.101.085-.102.085-.101.086-.103.088-.102.09-.102.091-.101.093-.102.093-.102.095-5.537 5.193 18.635 19.868 2.701-2.533-7.875-8.398 2.568-2.409.082-.076.083-.073.082-.072.083-.07.084-.068.082-.065.084-.063.084-.063.083-.058.084-.058.084-.054.084-.053.084-.051.085-.049.084-.046.086-.044.083-.043.087-.04.086-.037.085-.037.084-.033.087-.033.085-.028.087-.028.086-.025.087-.022.086-.022.087-.019.087-.017.086-.014.087-.013.087-.01.09-.008.093-.005.094-.002.1-.001.1.002.106.006.108.006.111.01.115.013.118.017.12.017.125.021.128.023.13.026.133.028.139.031.139.034.143.036.147.039.15.04.152.046.156.046.16.048.162.053.166.054.168.057.173.06.176.062.178.065.181.067.185.07.188.071 7.075 2.796 2.887-2.708-7.793-2.896-.197-.073-.191-.07-.19-.07-.187-.065-.182-.064-.179-.063-.176-.06-.172-.057-.168-.055-.166-.054-.161-.05-.16-.05-.155-.045-.151-.045-.149-.041-.145-.04-.142-.038-.138-.035-.136-.033-.13-.03-.128-.031-.126-.025-.12-.025-.118-.022-.116-.02-.11-.017-.107-.016-.105-.014-.101-.01-.098-.008-.093-.007-.09-.004-.09-.003-.089-.002-.088.001-.088.001-.089.004-.087.005-.088.007-.087.007-.086.01-.086.011-.086.012-.086.014-.086.015-.087.017-.085.018-.083.02-.085.02-.085.024-.083.024-.085.026-.082.027-.086.029-.081.03-.083.032-.084.032-.081.036-.082.036-.083.036-.08.04-.082.04-.08.043-.08.042.103-.132.099-.131.096-.132.047-.067.046-.065.045-.066.045-.067.044-.067.043-.066.04-.066.042-.067.039-.067.04-.066.038-.066.038-.069.036-.067.035-.066.034-.068.035-.066.032-.069.033-.066.031-.067.031-.068.029-.067.03-.07.027-.066.027-.068.026-.068.026-.068.023-.068.023-.067.022-.07.023-.067.021-.068.02-.07.019-.069.018-.067.018-.068.016-.07.016-.068.014-.07.014-.068.013-.069.014-.069.01-.068.011-.07.01-.07.008-.069.009-.07.006-.069.006-.07.005-.068.005-.07.003-.07.003-.069.002-.071V637.566l-.002-.07-.003-.07-.004-.07-.004-.07-.005-.07-.005-.07-.007-.07-.007-.07-.01-.07-.008-.068-.011-.07-.011-.068-.012-.07-.013-.068-.013-.069-.015-.067-.017-.07-.015-.067-.017-.068-.018-.068-.019-.069-.02-.068-.019-.066-.023-.068-.021-.067-.024-.066-.023-.068-.024-.067-.027-.067-.027-.066-.027-.067-.028-.065-.03-.067-.03-.064-.029-.067-.033-.066-.031-.065-.034-.066-.034-.064-.036-.066-.037-.066-.034-.064-.04-.066-.038-.063-.039-.066-.04-.065-.041-.063-.043-.064-.041-.064-.044-.063-.046-.065-.044-.063-.047-.063-.046-.064-.048-.062-.05-.063-.05-.064-.05-.062-.102-.126-.109-.123-.109-.125-.113-.124-.083-.085-.083-.086-.082-.084-.081-.082-.083-.08-.085-.08-.083-.077-.083-.078-.085-.074-.084-.074-.083-.072-.087-.07-.084-.071-.086-.068-.085-.066-.086-.064-.085-.064-.087-.062-.087-.06-.087-.06-.087-.058-.087-.057-.086-.054-.09-.054-.086-.052-.088-.05-.09-.049-.087-.048-.09-.046-.09-.046-.089-.041-.09-.044-.09-.04-.09-.038-.09-.039-.092-.036-.09-.035-.091-.032-.091-.032-.093-.03-.091-.03-.093-.028-.092-.026-.092-.024-.094-.024-.092-.021-.095-.02-.092-.019-.095-.018-.095-.016-.093-.015-.096-.012-.094-.01-.095-.012-.095-.01-.096-.006-.095-.006-.097-.003-.096-.005-.097-.001h-.097l-.098.001zm-.632 3.616h.057l.058.003.057.004.057.003.058.005.056.005.058.008.056.005.057.009.057.01.057.008.056.01.056.012.058.012.056.014.056.014.055.015.055.015.056.016.056.019.055.017.056.02.055.02.055.02.055.021.055.023.055.023.054.025.053.024.055.026.054.028.055.028.053.027.054.03.053.03.055.03.053.033.054.033.052.033.053.035.054.036.053.035.053.037.051.038.054.039.052.039.104.083.104.084.103.089.102.091.102.096.102.098.102.103.101.105.103.113.1.111.095.11.092.112.089.111.085.112.08.11.078.111.076.11.071.112.068.11.031.056.033.056.03.055.03.055.028.055.029.055.027.056.026.055.026.055.024.056.023.054.022.057.024.054.02.055.02.056.02.055.017.055.018.055.016.056.016.054.015.055.014.056.013.054.011.056.013.054.009.056.01.054.009.056.007.054.008.054.006.056.005.054.003.056.004.055.002.054v.055l.003.055v.11l-.004.054-.002.055-.004.056-.005.055-.005.054-.007.055-.007.055-.009.054-.008.056-.011.054-.01.055-.012.055-.012.055-.013.054-.014.055-.015.055-.017.056-.017.055-.018.055-.019.056-.017.055-.022.056-.02.054-.023.055-.024.056-.023.054-.025.058-.026.054-.027.056-.027.056-.028.054-.03.056-.029.056-.064.11-.065.113-.07.111-.073.11-.077.113-.08.111-.084.112-.087.112-.09.113-.095.112-.099.112-.1.113-.104.113-.11.112-.111.113-.116.113-.118.114-2.94 2.758-6.616-7.054 2.834-2.659.12-.11.12-.106.119-.105.12-.1.118-.097.12-.093.119-.09.119-.087.118-.083.12-.079.117-.076.118-.073.12-.069.12-.066.057-.03.06-.032.059-.03.059-.03.057-.028.06-.027.06-.026.057-.025.06-.026.059-.022.058-.024.06-.022.058-.022.058-.02.059-.019.059-.019.06-.018.058-.016.058-.017.059-.014.057-.015.06-.013.058-.013.058-.012.059-.011.06-.01.058-.009.058-.008.057-.008.058-.006.058-.006.06-.005.058-.003.058-.003.058-.004h.058l.058-.001h.059zm-.081 2.168l-.027.001h-.025l-.026.003-.027.001-.027.004-.027.001-.025.003-.028.004-.027.003-.028.005-.03.005-.027.005-.028.006-.028.006-.03.007-.03.008-.029.007-.03.008-.031.008-.032.01-.03.01-.033.01-.032.012-.032.013-.033.01-.033.014-.034.013-.034.015-.035.015-.035.017-.036.016-.036.016-.036.018-.036.02-.038.019-.033.016-.082.046-.08.046-.079.05-.082.053-.083.056-.085.059-.087.063-.087.064-.09.071-.09.075-.092.076-.094.08-.093.085-.103.095-1.247 1.169 3.648 3.89 1.355-1.27.101-.095.093-.092.09-.09.083-.088.082-.087.076-.084.074-.085.07-.083.064-.081.064-.08.057-.077.054-.076.053-.075.047-.072.043-.071.042-.07.04-.071.016-.027.015-.033.017-.03.015-.033.016-.03.013-.03.013-.03.012-.03.014-.028.01-.028.01-.027.01-.027.01-.028.01-.026.008-.026.008-.025.007-.024.007-.025.005-.025.006-.024.005-.022.006-.023.005-.023.003-.02.003-.022.004-.023.003-.021.002-.02.002-.022.002-.02.002-.02v-.02l.001-.02v-.06l-.001-.02-.001-.02v-.02l-.003-.02v-.02l-.002-.021-.004-.023-.003-.02-.004-.02-.004-.023-.003-.023-.004-.021-.006-.023-.005-.023-.007-.024-.006-.023-.006-.025-.008-.025-.008-.026-.008-.024-.01-.028-.01-.026-.009-.026-.01-.028-.013-.03-.012-.026-.014-.03-.012-.03-.015-.03-.015-.029-.016-.03-.016-.034-.017-.03-.018-.032-.02-.035-.016-.028-.045-.073-.044-.07-.049-.072-.052-.074-.055-.076-.06-.077-.063-.078-.065-.08-.07-.081-.074-.084-.078-.083-.073-.078-.074-.073-.07-.07-.07-.064-.07-.063-.068-.059-.066-.054-.071-.054-.027-.02-.034-.025-.032-.024-.03-.022-.032-.022-.03-.02-.032-.019-.03-.02-.029-.019-.03-.018-.03-.015-.028-.017-.03-.015-.028-.017-.027-.013-.029-.014-.027-.013-.027-.012-.028-.013-.026-.012-.027-.01-.025-.01-.026-.011-.026-.009-.026-.009-.026-.008-.025-.008-.025-.007-.024-.007-.025-.008-.025-.005-.024-.006-.026-.006-.025-.004-.023-.004-.025-.005-.024-.003-.025-.005-.024-.002-.025-.002-.024-.003-.026-.001-.025-.002-.025-.002-.027-.001H636.27l-.026-.001z"/><g><path d="M936.867 907.247l-222.026.011-.261 276.83h222.287V907.247z" fill="#fff" stroke="#000" stroke-width="3.8"/><path d="M810.189 1079.73c1.069.698 3.282 1.047 6.639 1.047 10.465 0 19.077-2.072 25.836-6.214 10.378-6.366 15.567-17.246 15.567-32.638 0-13.736-4.273-24.07-12.82-31.003-7.326-5.931-17.028-8.896-29.106-8.896-3.009 0-5.047.327-6.116.981-1.068.654-1.602 2.093-1.602 4.317v68.089c0 2.18.534 3.619 1.602 4.317zm-26.98 3.597c4.884-.523 8.067-1.406 9.549-2.649 1.483-1.242 2.224-4.393 2.224-9.451v-59.586c0-4.884-.719-8.023-2.158-9.419-1.439-1.395-4.644-2.267-9.615-2.616v-2.485h36.105c12.165 0 22.456 2.005 30.872 6.017 15.174 7.195 22.762 20.058 22.762 38.59 0 6.672-1.363 13.016-4.088 19.034-2.726 6.017-6.835 11.097-12.33 15.24-3.488 2.616-7.107 4.6-10.857 5.952-6.846 2.529-15.262 3.794-25.247 3.794h-37.217v-2.421z" fill-rule="nonzero"/><path d="M730.333 951.626l24.555-13.309 20.776 16.54 19.872-8.116 22.013 14.28 19.151-11.972 21.542 14.952 18.833-12.199 19.031-6.654 2.177 8.019 17.414-1.541M730.333 918.619l19.163 11.798 18.137-3.832 15.684 7.793 19.565-7.934 11.372-10.022 13.369 15.18 29.335-12.329 24.763 18.803 18.414-14.077 15.562 3.59M735.75 1161.45l22.351 11.4 17.106-23.49 24.391 11.193 18.249-12.042 15.436 25.001 7.561-8.028 30.741-12.609 14.845 12.736 15.571 3.66 13.696-12.676M735.75 1132.95l22.364-10.585 13.865 3.056 21.518 16.856 29.842-10.859 32.062 14.754 5.362-16.553 49.2 9.028 5.734-5.697M735.75 1109.34l30.076-12.242 27.221 16.731 18.831-9.944 19.536 18.768 20.055-27.933 25.464 24.421 20.789-18.832 17.975 9.031M730.341 981.073l21.947-13.226 27.249 9.925 22.576-11.375 13.796 11.639 26.057 5.072 22.947-6.381 11.215-12.632 19.153 19.092 20.416-8.406" fill="none" stroke="#000" stroke-width="2.98"/></g><defs><radialGradient id="a" cx="0" cy="0" r="1" gradientUnits="userSpaceOnUse" gradientTransform="matrix(58.4875 22.275 -22.8914 60.106 656.153 628.968)"><stop offset="0%" stop-color="#3ce61a"/><stop offset="100%" stop-color="#aef4a0"/></radialGradient></defs></svg>