<svg viewBox="0 0 956 1200" xmlns="http://www.w3.org/2000/svg" fill-rule="evenodd" clip-rule="evenodd" stroke-linecap="round" stroke-linejoin="round" stroke-miterlimit="1.414"><path d="M844.081 9.52l-833.912.039-.012 1038.55h833.924V9.519z" fill="#fff" stroke="#000" stroke-width="14.24"/><g font-size="12"><text x="174.276" y="181.661" font-family="'Tahoma',sans-serif" transform="translate(-1170.45 -1132.91) scale(7.06618)">Name:</text><text x="212.971" y="181.661" font-family="'Tahoma-Bold','Tahoma',sans-serif" font-weight="700" transform="translate(-1170.45 -1132.91) scale(7.06618)">Bob</text></g><text x="61.017" y="690.756" font-family="'Tahoma',sans-serif" font-size="84.794">Public K<tspan x="353.863px 398.496px" y="690.756px 690.756px">ey</tspan>:</text><g font-family="'Tahoma',sans-serif" font-size="12"><text x="174.276" y="181.661" transform="translate(-1170.45 -397.301) scale(7.06618)">Expir<tspan x="200.444px 206.743px" y="181.661px 181.661px">at</tspan>ion:</text><text x="185.526" y="193.661" transform="translate(-1170.45 -397.301) scale(7.06618)">2019-08-03</text></g><g font-family="'Tahoma',sans-serif" font-size="12.089"><text x="174.276" y="181.661" transform="translate(-1170.45 -943.33) scale(7.06618)">Location:</text><text x="185.609" y="193.75" transform="translate(-1170.45 -943.33) scale(7.06618)">Mountain View</text><text x="185.609" y="205.84" transform="translate(-1170.45 -943.33) scale(7.06618)">Calif<tspan x="208.507px 215.071px" y="205.84px 205.84px">or</tspan>nia</text><text x="235.276" y="205.84" transform="translate(-1170.45 -943.33) scale(7.06618)">, USA</text></g><g stroke="#000" stroke-width="2.98"><path d="M624.783 244.652c-2.809 14.026.715 40.465 3.06 41.337 27.976 10.398 58.325 8.086 74.853-1.097 1.951-1.083 4.814-18.068 3.147-40.785-26.088 9.765-51.069 9.836-81.06.545z" fill="url(#a)" stroke-miterlimit="1"/><path d="M635.089 168.96c-3.102-1.112-25.927 5.631-27.279 11.673-2.995 13.383-1.965 53.81 4.616 57.814 18.505 11.259 63.594 21.45 100.737 1.766 2.047-1.085 7.499-30.55 3.971-60.702-.436-3.727-32.602-12.952-35.188-11.255l-46.857.704z" fill="url(#b)" stroke-miterlimit="1"/><path d="M699.659 105.978c-3.588 4.832-73.393 2.091-74.387 3.343-2.754 3.467-13.406 67.636 34.708 69.028 56.251 1.628 41.422-74.719 39.679-72.371z" fill="url(#c)" stroke-miterlimit="1"/><path d="M602.855 92.67c-2.003.361-.782 15.867 29.359 25.398 39.732 12.563 86.296-10.639 90.045-34.332.168-1.065-2.083-1.014-5.66-.46-7.474 1.159-15.055 4.725-15.088 3.839-2.484-65.948-38.145-34.936-41.215-34.431-1.791.295-6.051-7.206-15.101-6.09-26.076 3.219-19.512 45.226-20.24 45.248-4.837.147-11.669-1.049-22.1.828z" fill="url(#d)" stroke-miterlimit="1"/><path d="M679.892 126.63c3.003.027 5.414 3.042 5.38 6.728-.034 3.686-2.499 6.656-5.503 6.628-3.003-.027-5.414-3.042-5.38-6.728.034-3.686 2.499-6.656 5.503-6.628zM643.628 126.63c3.003-.025 5.466 2.948 5.495 6.634.03 3.686-2.384 6.698-5.388 6.723-3.003.024-5.465-2.949-5.495-6.635-.03-3.686 2.384-6.698 5.388-6.722z"/><path d="M654.514 145.316c1.998-2.31 7.009-7.196 13.444-1.278" fill="none" stroke-miterlimit="1"/><path d="M640.495 161.167c.574-.253 2.897-1.225 5.173-3.112 2.728-2.263 3.991-4.334 4.013-4.317.025.019-3.903 4.95-3.903 4.95s6.856 3.845 15.451 3.785c8.596-.06 15.749-4.469 15.628-4.301-1.862 2.575-6.384 7.53-15.628 7.529-9.244-.001-14.319-6.326-15.72-6.774l-5.014 2.24z"/><path d="M608.265 179.556c18.138 9.978 39.182 15.863 55.884 15.159 30.45-1.284 47.126-11.766 51.573-14.961" fill="none" stroke-miterlimit="1"/><path d="M663.235 51.082c-2.947 1.773-6.735 4.11-11.692 9.351M722.262 83.276c-3.65 5.501-24.629 18.073-33.315 19.174M701.487 85.94c-.03 2.636.012 7.057-.671 10.99M625.027 91.435c0 1.411.655 4.69.811 5.495" fill="none"/></g><path d="M671.292 649.576c-.256-.383.125-.914.242-1.36.274-1.048.653-2.068.929-3.117 1.203-4.567 1.846-9.203 2.026-13.94 1.576-41.586-59.099-57.68-80.243-20.117-5.298 9.414-7.551 20.49-5.808 31.111.931 5.669 2.918 11.217 6.049 16.051 7.682 11.862 22.714 19.769 36.915 18.254 5.773-.616 6.174-.887 11.555-2.133 1.422-.329 5.045-1.634 6.943-.998 1.329.446 1.616 1.834 1.56 3.068-.069 1.531-.429 2.16-1.022 3.626-.589 1.455-1.576 3.035-.387 4.493.265.326.582.613.927.852.46.319.95.608 1.472.813 2.277.893 3.952-.53 5.747-1.732.703-.471 1.302-1.172 2.117-1.401.343-.097.638.327.92.546a32.623 32.623 0 0 1 2.101 1.796c2.382 2.194 4.76 4.394 7.075 6.658a2167.986 2167.986 0 0 1 42.125 42.302c3.602 3.719 7.023 7.612 10.652 11.306.495.503 2.128.642 2.556.66 4.098.179 5.973.067 10.087-.497.986-.135 3.433-.407 3.882-1.64.418-1.15.426-3.918.416-4.502-.053-2.903-.488-14.215-1.914-15.322-1.634-1.269-5.358-.46-6.086-2.044-1.405-3.059.428-7.054-1.178-8.421-1.667-1.419-7.049-1.7-7.975-2.95-1.262-1.7-.353-4.339-1.938-5.897-2.573-2.531-5.227-.578-8.224-2.163-1.286-.68-.601-7.414-1.977-8.364-2.573-1.778-7.23.661-9.477-1.779-1.233-1.34-.576-8.045-.937-9.433-.433-1.666-7.285-4.111-7.625-5.029-.776-2.095-.319-2.956-.83-5.087-.138-.576-.606-1.021-.965-1.492-2.153-2.825-8.532-9.859-9.385-10.805-.857-.951 6.341-4.718 2.415-8.642-3.509-3.506-7.582 2.96-8.58 1.869-2.282-2.495-4.16-4.54-4.16-4.54zm-52.077-41.351c6.882 0 12.469 5.405 12.469 12.062 0 6.657-5.587 12.062-12.469 12.062-6.883 0-12.47-5.405-12.47-12.062 0-6.657 5.587-12.062 12.47-12.062z" fill="url(#e)" stroke="#000" stroke-width="2.17"/><path d="M648.521 661.692l83.023 83.898M655.862 655.402l83.694 81.774" fill="none" stroke="#000" stroke-width="1.86"/><text x="241.595" y="464.449" font-family="Helvetica" font-size="20.065" fill="none" transform="scale(1.86227) rotate(-43.164 154.36 280.213)">B</text><text x="241.595" y="464.449" font-family="Helvetica" font-size="20.065" fill="#fff" transform="scale(1.86227) rotate(-43.164 154.36 280.213)">B</text><path d="M638.537 626.824l.145.004.145.008.143.01.145.013.144.016.144.017.145.02.143.022.144.026.146.029.167.035.163.041.163.04.162.046.16.048.16.053.16.054.156.057.158.062.154.064.154.068.152.07.15.073.15.076.148.079.146.082.145.086.144.088.142.091.14.093.137.097.136.1.137.101.132.106.131.107.13.108.128.112.125.115.124.118.123.12.121.121.117.125.134.146.131.145.126.147.123.15.12.153.114.149.06.082.056.077.055.078.054.08.055.08.051.079.053.08.05.08.05.082.049.082.049.081.046.082.044.083.046.085.044.082.043.084.042.086.041.084.04.087.04.084.037.087.037.088.035.087.037.088.033.087.032.09.032.087.03.09.03.089.027.089.028.091.026.09.025.09.023.09.022.092.022.092.021.092.02.092.016.091.019.093.015.093.015.093.013.092.013.093.012.094.008.094.01.092.007.094.007.095v.008l.057-.005.13-.011.13-.008.13-.008.131-.005h.261l.115.003.108.003.108.007.107.006.108.008.108.012.107.011.108.014.108.014.106.015.106.018.107.02.107.02.107.022.103.023.106.026.106.026.103.028.105.03.104.032.103.03.103.034.103.037.103.036.1.039.1.038.103.042.099.043.099.042.1.047.098.045.099.048.096.048.097.052.096.05.096.054.094.054.096.056.094.057.093.058.093.059.092.06.091.061.092.063.09.063.09.066.089.065.089.067.087.07.089.07.086.07.087.07.085.074.086.073.084.076.083.075.085.077.082.079.083.078.081.081.082.082.082.082.08.083.08.084.07.075.068.076.066.075.069.076.066.079.064.077.065.077.065.08.062.08.062.08.06.08.061.082.06.082.057.083.057.083.058.083.056.085.054.085.054.084.053.086.052.086.052.088.05.086.05.088.047.089.047.088.047.091.045.089.044.09.043.09.044.093.041.09.041.093.04.093.037.092.04.094.036.093.035.095.035.094.034.096.032.095.032.096.03.097.03.096.028.097.028.098.028.097.025.099.025.097.024.1.022.099.022.1.02.097.021.101.02.1.017.1.017.102.015.101.015.1.014.102.014.102.011.102.011.102.011.107.014.153.012.16.008.161.005.158.003.159.002.159-.003.158-.005.16-.008.158-.009.16-.014.159-.016.157-.018.158-.02.157-.024.157-.026.158-.029.157-.033.156-.032.155-.038.156-.04.154-.041.154-.045.154-.047.154-.05.152-.053.152-.055.151-.055.151-.061.15-.062.15-.064.149-.067.146-.069.15-.07.145-.075.146-.076.146-.078.145-.081.142-.082.144-.087.142-.086.142-.09.14-.092.143-.094.139-.095.138-.098.138-.1.137-.102.137-.105.136-.107.136-.108.135-.11.134-.112.133-.115.133-.117.132-.118.132-.12.13-.123.131-.124.132-.127.129-.13.129-.13.127-.13.128-.132.124-8.269 7.754-.116.102-.123.092-.13.086-.136.074-.14.066-.144.053-.15.045-.15.032-.153.023-.154.012h-.156l-.155-.01-.152-.02-.152-.034-.149-.042-.144-.053-.142-.064-.136-.074-.13-.085-.124-.09-.118-.102-.11-.109-18.334-19.55-.102-.116-.094-.124-.084-.13-.074-.135-.066-.14-.054-.145-.044-.148-.034-.153-.022-.152-.013-.154.001-.155.01-.155.023-.153.03-.152.044-.147.055-.146.062-.14.074-.137.083-.131.093-.125.1-.115.11-.11 8.401-7.88.118-.11.123-.113.123-.11.123-.108.124-.106.124-.104.125-.104.125-.1.125-.099.125-.097.129-.095.126-.093.129-.092.126-.088.128-.09.13-.085.13-.084.13-.082.13-.08.131-.077.132-.075.132-.076.133-.071.133-.071.134-.067.135-.065.135-.063.135-.063.136-.059.137-.056.137-.055.139-.054.138-.048.139-.048.14-.047.14-.043.14-.042.141-.037.142-.037.142-.033.142-.031.142-.029.143-.027.144-.024.144-.02.143-.02.145-.016.144-.013.145-.01.144-.01.146-.006.145-.004h.144l.145.002zm-.262 2.168l-.105.002-.106.004-.106.006-.105.009-.105.01-.108.01-.105.015-.106.015-.106.018-.106.02-.106.02-.107.024-.106.025-.106.029-.106.028-.107.03-.106.034-.105.035-.107.036-.107.039-.105.04-.108.043-.106.045-.105.045-.108.048-.106.05-.107.053-.106.053-.106.056-.107.057-.107.06-.106.061-.107.064-.107.065-.108.068-.106.069-.106.071-.108.073-.106.075-.107.077-.108.078-.105.08-.108.084-.108.084-.106.086-.108.089-.107.09-.106.091-.108.094-.107.096-.108.098-.107.1-8.397 7.876 18.335 19.55 8.264-7.752.12-.113.116-.114.116-.113.114-.115.112-.112.109-.116.106-.112.107-.115.102-.114.101-.116.099-.115.097-.114.093-.116.094-.115.09-.116.09-.114.085-.116.086-.116.081-.117.08-.116.079-.115.076-.117.074-.118.072-.116.07-.117.068-.117.066-.118.063-.118.061-.117.06-.117.059-.119.055-.118.052-.118.052-.12.05-.118.047-.118.044-.119.044-.12.04-.12.04-.118.035-.12.036-.12.033-.12.03-.12.029-.12.026-.121.025-.12.022-.121.02-.12.018-.123.017-.12.015-.12.01-.123.01-.122.009-.123.006-.12.003-.123.002-.122v-.123l-.002-.123-.006-.122-.005-.123-.009-.124-.01-.123-.008-.082-.011-.082-.01-.08-.01-.083-.01-.082-.014-.08-.012-.08-.013-.08-.013-.079-.016-.08-.015-.078-.017-.078-.017-.078-.019-.077-.018-.077-.019-.077-.02-.076-.021-.077-.021-.075-.023-.075-.023-.076-.024-.075-.024-.074-.025-.074-.027-.074-.026-.072-.028-.074-.028-.073-.03-.072-.03-.07-.03-.073-.03-.07-.032-.07-.033-.071-.034-.071-.033-.068-.036-.069-.035-.07-.037-.069-.037-.067-.038-.067-.038-.069-.04-.067-.04-.064-.04-.067-.042-.066-.044-.066-.043-.065-.042-.064-.046-.065-.045-.065-.047-.063-.046-.064-.049-.062-.048-.062-.048-.062-.05-.062-.051-.063-.05-.06-.053-.06-.052-.061-.053-.06-.057-.06-.053-.06-.068-.069-.065-.069-.067-.067-.065-.066-.067-.066-.067-.064-.068-.064-.068-.061-.068-.062-.067-.06-.067-.059-.07-.057-.066-.058-.07-.055-.07-.055-.067-.053-.07-.052-.07-.053-.069-.05-.07-.049-.07-.048-.07-.047-.07-.046-.07-.045-.07-.044-.073-.042-.07-.043-.072-.04-.073-.04-.07-.037-.072-.038-.073-.037-.071-.035-.073-.034-.074-.033-.071-.032-.074-.03-.073-.032-.074-.027-.073-.029-.076-.026-.073-.026-.074-.025-.076-.023-.074-.022-.076-.021-.074-.02-.075-.02-.076-.018-.075-.018-.076-.015-.076-.013-.078-.015-.076-.013-.077-.011-.076-.01-.077-.01-.078-.009-.077-.006-.078-.007-.079-.005-.077-.004-.078-.004h-.078l-.09-.001-.09.001-.093.002-.092.005-.094.007-.096.008-.097.01-.097.012-.098.012-.101.016-.102.016-.102.017-.103.02-.106.02-.107.023-.107.027-.109.026-.109.028-.113.03-.112.03-.113.034-.115.035-.116.037-.116.037-.119.04-.12.042-.12.044-.123.043-.123.046-.125.049-.125.05-.128.051.034-.092.032-.092.03-.09.03-.09.029-.09.026-.088.027-.089.025-.087.024-.087.024-.086.02-.086.022-.084.02-.085.017-.082.018-.084.016-.081.015-.083.014-.08.012-.08.012-.08.01-.078.01-.078.008-.077.007-.078.006-.074.005-.077.004-.075.002-.073.001-.075v-.144l-.002-.071-.003-.069-.002-.067-.004-.067-.005-.068-.006-.066-.007-.067-.007-.068-.008-.066-.009-.066-.01-.067-.01-.065-.01-.067-.014-.066-.01-.066-.016-.065-.014-.066-.015-.066-.016-.063-.018-.065-.017-.066-.018-.065-.02-.065-.02-.062-.021-.066-.022-.064-.024-.064-.023-.062-.024-.064-.026-.063-.024-.064-.029-.063-.028-.063-.028-.063-.028-.062-.03-.062-.031-.063-.032-.061-.033-.062-.033-.063-.034-.06-.035-.062-.037-.062-.035-.062-.039-.06-.038-.062-.038-.06-.04-.06-.04-.062-.044-.06-.041-.06-.043-.06-.044-.06-.09-.117-.094-.12-.098-.117-.1-.118-.103-.115-.107-.117-.094-.098-.095-.095-.094-.093-.096-.09-.097-.091-.099-.086-.099-.084-.1-.082-.101-.078-.102-.079-.103-.074-.104-.073-.106-.07-.106-.069-.107-.065-.108-.063-.108-.061-.11-.06-.112-.057-.111-.053-.113-.053-.113-.05-.116-.047-.116-.044-.117-.044-.117-.04-.12-.04-.12-.035-.12-.034-.122-.032-.122-.029-.124-.026-.106-.02-.105-.02-.106-.018-.105-.014-.106-.012-.105-.012-.105-.008-.107-.008-.105-.006-.105-.003h-.213zm8.47 11.149l.074.002.076.005.074.005.075.01.073.007.074.01.073.013.073.013.072.017.074.015.072.02.071.019.07.02.073.023.071.024.07.026.07.029.071.029.069.03.069.032.07.034.068.035.068.036.068.038.069.04.066.04.068.044.067.044.066.046.067.047.066.048.065.05.066.054.065.054.064.055.066.056.062.058.064.06.064.06.064.063.063.064.062.066.073.08.071.08.07.08.066.08.066.082.063.08.062.083.06.082.057.084.055.083.053.084.051.084.052.085.047.086.045.085.044.086.041.087.04.087.039.087.035.09.034.087.033.09.03.089.029.09.026.09.023.091.022.092.021.093.018.09.017.094.014.094.013.093.008.074.007.075.005.074.005.075.003.074.002.074v.075l-.002.072-.002.074-.004.075-.005.074-.006.075-.008.073-.009.075-.01.073-.013.074-.013.073-.013.074-.017.074-.015.073-.018.074-.021.073-.02.073-.023.074-.023.073-.026.073-.026.073-.028.074-.029.073-.03.073-.032.073-.033.074-.034.072-.035.072-.038.074-.037.072-.04.074-.04.071-.044.074-.043.071-.044.072-.046.074-.047.072-.05.072-.05.073-.052.072-.053.072-.053.073-.057.07-.056.074-.058.072-.06.072-.06.072-.063.072-.063.071-.066.072-.065.072-.068.071-.068.072-.071.071-.071.072-.073.071-.074.072-.076.071-5.709 5.355-6.453-6.88 5.257-4.93.105-.096.102-.096.103-.091.101-.09.103-.09.1-.086.1-.084.1-.083.101-.081.099-.078.098-.077.099-.074.096-.072.097-.071.097-.068.096-.067.095-.064.096-.064.094-.06.094-.058.093-.056.094-.055.09-.053.093-.05.092-.048.09-.047.09-.046.09-.04.09-.041.088-.04.088-.036.088-.034.081-.03.082-.03.08-.028.083-.027.08-.024.08-.023.081-.023.08-.018.08-.019.08-.018.077-.015.078-.015.079-.012.078-.012.078-.009.078-.007.075-.007.078-.004.075-.004.078-.001h.151zm-.124 2.167h-.033l-.032.002-.036.003-.034.001-.036.006-.037.004-.037.004-.04.006-.04.007-.04.01-.042.008-.042.01-.044.01-.044.013-.046.013-.048.014-.047.016-.049.016-.05.018-.051.02-.056.022-.054.022-.055.024-.057.026-.058.028-.06.028-.061.033-.063.033-.065.035-.066.039-.068.038-.069.042-.07.045-.07.046-.074.048-.074.05-.075.052-.077.054-.078.056-.08.059-.078.06-.081.064-.083.065-.083.068-.086.07-.084.07-.086.074-.088.078-.089.078-.09.081-.089.081-.095.09-3.671 3.443 3.485 3.717 4.124-3.868.065-.061.059-.058.058-.057.057-.056.055-.057.054-.056.052-.056.05-.055.051-.055.048-.055.047-.054.045-.053.044-.054.042-.052.041-.052.042-.051.038-.051.036-.052.036-.049.034-.05.034-.05.033-.048.029-.048.03-.048.027-.046.028-.047.025-.047.025-.043.024-.046.023-.044.02-.045.02-.042.02-.043.019-.041.017-.042.016-.04.014-.042.016-.04.013-.04.013-.038.01-.038.013-.04.009-.036.01-.038.008-.038.009-.037.006-.036.005-.036.007-.036.006-.034.004-.037.003-.036.003-.034.003-.035.002-.036v-.035l.001-.035V644.788l-.003-.035-.001-.037-.003-.036-.003-.036-.004-.031-.007-.048-.006-.048-.01-.047-.008-.048-.01-.045-.012-.047-.013-.046-.012-.045-.016-.047-.014-.045-.017-.046-.018-.046-.018-.047-.02-.045-.021-.047-.024-.047-.024-.048-.024-.047-.027-.048-.028-.049-.03-.048-.031-.05-.033-.048-.034-.05-.038-.052-.038-.05-.039-.05-.042-.054-.043-.051-.046-.052-.047-.052-.05-.056-.041-.042-.04-.042-.04-.041-.042-.038-.04-.037-.038-.036-.04-.034-.037-.031-.037-.032-.037-.029-.037-.029-.035-.026-.036-.025-.035-.023-.035-.024-.032-.02-.035-.021-.031-.02-.032-.018-.031-.017-.033-.015-.028-.014-.032-.015-.03-.012-.028-.012-.03-.013-.027-.01-.029-.009-.029-.008-.028-.01-.028-.007-.027-.007-.03-.006-.026-.008-.028-.005-.029-.003-.027-.005-.03-.004-.03-.002-.03-.002-.03-.002-.029-.001-.031-.001h-.033zm-8.606-9.75l.063.002.065.003.064.006.063.005.064.009.063.01.063.01.063.01.063.015.063.012.062.015.063.018.061.02.062.018.062.02.062.022.06.025.062.024.06.027.062.027.06.028.06.03.06.03.06.034.06.035.06.034.06.039.059.036.058.04.06.041.058.042.058.042.058.046.06.046.058.047.057.05.059.049.056.052.056.051.058.054.058.056.056.057.056.057.056.06.056.06.053.059.054.06.05.06.051.059.048.06.047.06.047.061.046.06.044.06.041.06.042.061.041.061.04.06.037.062.036.06.035.063.034.06.032.062.032.061.03.062.028.06.028.063.028.061.024.062.023.062.023.063.022.061.02.063.02.061.016.064.017.062.015.063.013.062.014.064.01.063.01.063.01.063.006.062.008.065.004.062.005.065.003.063v.063l.001.064v.064l-.004.065-.003.064-.005.063-.006.065-.007.065-.009.064-.011.065-.01.065-.014.064-.013.066-.015.065-.017.064-.016.067-.02.064-.019.066-.02.066-.023.065-.024.065-.033.084-.033.085-.038.084-.038.085-.041.087-.044.087-.046.086-.049.087-.05.088-.053.088-.056.088-.056.089-.06.089-.062.089-.065.091-.066.09-.069.093-.073.091-.072.091-.076.094-.08.093-.08.093-.082.095-.086.093-.086.096-.09.095-.092.096-.095.097-.096.096-.098.097-.102.098-.105.098-4.817 4.517-5.679-6.055 4.724-4.43.108-.101.107-.098.106-.095.103-.094.104-.09.103-.089.102-.088.1-.083.101-.083.1-.08.096-.075.098-.076.094-.074.096-.07.093-.069.094-.065.092-.063.09-.062.09-.059.09-.058.087-.053.088-.053.086-.05.085-.048.084-.044.083-.045.082-.04.082-.039.078-.035.08-.035.08-.03.077-.03.068-.025.068-.023.066-.021.068-.02.068-.018.066-.019.068-.015.066-.016.067-.014.066-.011.066-.011.068-.01.064-.007.067-.008.064-.005.066-.006.065-.001.065-.002h.13zm-.096 2.168h-.022l-.02.001h-.023l-.022.004-.024.002-.025.003-.022.003-.027.005-.026.004-.028.006-.027.007-.03.007-.028.007-.032.01-.032.009-.032.01-.035.012-.026.01-.036.013-.036.013-.04.018-.043.019-.044.02-.049.026-.05.026-.054.028-.055.031-.058.034-.06.036-.062.038-.065.043-.067.042-.069.047-.071.049-.073.053-.074.054-.077.057-.078.058-.08.062-.081.066-.084.066-.085.07-.087.073-.087.074-.09.077-.091.08-.092.084-.095.084-.094.088-.1.093-3.14 2.946 2.713 2.891 3.232-3.032.093-.089.087-.084.084-.082.083-.083.08-.079.076-.082.074-.078.071-.076.07-.078.066-.075.064-.075.062-.074.059-.07.056-.07.054-.069.05-.068.049-.066.047-.064.042-.063.042-.062.039-.06.036-.059.033-.054.032-.056.03-.053.026-.05.026-.05.02-.048.022-.045.019-.043.017-.042.017-.041.009-.03.011-.03.01-.032.01-.03.008-.028.006-.03.008-.027.006-.028.006-.027.005-.024.005-.025.003-.026.002-.023.004-.023.003-.024v-.024l.001-.02.002-.023.001-.021v-.023l-.001-.02v-.022l-.001-.02-.002-.02-.002-.022-.004-.02-.002-.02-.004-.022-.003-.023-.005-.02-.005-.022-.005-.023-.006-.022-.006-.023-.007-.024-.009-.022-.008-.026-.009-.025-.01-.024-.01-.027-.011-.026-.013-.027-.013-.028-.014-.028-.014-.029-.016-.03-.017-.03-.016-.03-.02-.032-.02-.032-.02-.034-.023-.032-.023-.035-.025-.035-.025-.035-.027-.034-.028-.038-.03-.037-.03-.037-.032-.038-.034-.04-.035-.038-.035-.041-.037-.04-.037-.039-.037-.037-.036-.035-.036-.035-.034-.035-.035-.03-.033-.031-.035-.029-.033-.027-.032-.026-.032-.026-.03-.024-.032-.023-.028-.02-.03-.02-.028-.02-.028-.017-.028-.017-.026-.017-.026-.014-.024-.013-.025-.012-.025-.013-.023-.011-.022-.01-.022-.01-.02-.009-.023-.007-.02-.008-.02-.008-.021-.006-.019-.005-.02-.005-.019-.005-.018-.005-.018-.004-.019-.003-.02-.002-.018-.003-.017-.002-.02-.002-.02-.002h-.018l-.02-.002h-.02l-.019.001z"/><g><path d="M936.867 907.247l-222.026.011-.261 276.83h222.287V907.247z" fill="#fff" stroke="#000" stroke-width="3.8"/><text x="781.05" y="1085.74" font-family="'Times-Roman','Times'" font-size="133.954">D</text><path d="M730.333 951.626l24.555-13.309 20.776 16.54 19.872-8.116 22.013 14.28 19.151-11.972 21.542 14.952 18.833-12.199 19.031-6.654 2.177 8.019 17.414-1.541M730.333 918.619l19.163 11.798 18.137-3.832 15.684 7.793 19.565-7.934 11.372-10.022 13.369 15.18 29.335-12.329 24.763 18.803 18.414-14.077 15.562 3.59M735.75 1161.45l22.351 11.4 17.106-23.49 24.391 11.193 18.249-12.042 15.436 25.001 7.561-8.028 30.741-12.609 14.845 12.736 15.571 3.66 13.696-12.676M735.75 1132.95l22.364-10.585 13.865 3.056 21.518 16.856 29.842-10.859 32.062 14.754 5.362-16.553 49.2 9.028 5.734-5.697M735.75 1109.34l30.076-12.242 27.221 16.731 18.831-9.944 19.536 18.768 20.055-27.933 25.464 24.421 20.789-18.832 17.975 9.031M730.341 981.073l21.947-13.226 27.249 9.925 22.576-11.375 13.796 11.639 26.057 5.072 22.947-6.381 11.215-12.632 19.153 19.092 20.416-8.406" fill="none" stroke="#000" stroke-width="2.98"/></g><defs><radialGradient id="a" cx="0" cy="0" r="1" gradientUnits="userSpaceOnUse" gradientTransform="matrix(72.9504 -68.6205 55.3758 37.6385 689.831 263.856)"><stop offset="0%" stop-color="#2531dc"/><stop offset="100%" stop-color="#969bee"/></radialGradient><radialGradient id="b" cx="0" cy="0" r="1" gradientUnits="userSpaceOnUse" gradientTransform="matrix(118.991 -74.3598 55.2578 88.4241 696.894 202.306)"><stop offset="0%" stop-color="#2531dc"/><stop offset="100%" stop-color="#969bee"/></radialGradient><linearGradient id="c" x2="1" gradientUnits="userSpaceOnUse" gradientTransform="rotate(-31.346 593.306 -1026.804) scale(101.7399)"><stop offset="0%" stop-color="#dbbb9c"/><stop offset="56%" stop-color="#d0a67c"/><stop offset="100%" stop-color="#cb9d6e"/></linearGradient><radialGradient id="d" cx="0" cy="0" r="1" gradientUnits="userSpaceOnUse" gradientTransform="matrix(-87.222 49.0831 -31.1721 -55.3936 698.799 60.812)"><stop offset="0%" stop-color="#d7c447"/><stop offset="100%" stop-color="#e6d38c"/></radialGradient><radialGradient id="e" cx="0" cy="0" r="1" gradientUnits="userSpaceOnUse" gradientTransform="matrix(58.4875 22.275 -22.8914 60.106 656.153 628.968)"><stop offset="0%" stop-color="#3ce61a"/><stop offset="100%" stop-color="#aef4a0"/></radialGradient></defs></svg>