<svg viewBox="0 0 956 1200" xmlns="http://www.w3.org/2000/svg" fill-rule="evenodd" clip-rule="evenodd" stroke-linecap="round" stroke-linejoin="round" stroke-miterlimit="1.414"><path d="M844.081 9.52l-833.912.039-.008 1034.03-.004 4.516h833.924V9.515z" fill="#fff" stroke="#000" stroke-width="14.24"/><g fill-rule="nonzero"><path d="M111.362 150.74h-9.193l-27.24-53.16v53.16h-7.66V89.093H78.9l24.802 48.813V89.094h7.66v61.645zM149.081 139.356v-12.832c-1.851.162-4.19.388-7.016.678-2.834.29-5.116.7-6.855 1.222-2.07.636-3.78 1.611-5.137 2.919-1.35 1.314-2.028 3.144-2.028 5.49 0 2.65.75 4.65 2.24 6 1.491 1.356 3.668 2.027 6.537 2.027 2.459 0 4.684-.53 6.67-1.59a29.087 29.087 0 0 0 5.59-3.914zm0 6.458c-.636.467-1.484 1.124-2.55 1.965-1.06.848-2.085 1.512-3.081 2.013-1.378.714-2.714 1.265-3.993 1.654-1.286.389-3.088.58-5.405.58a13.951 13.951 0 0 1-9.935-4.099c-1.244-1.272-2.24-2.834-2.982-4.699-.75-1.865-1.117-3.83-1.117-5.9 0-3.201.671-5.929 2.028-8.176 1.35-2.254 3.49-4.042 6.416-5.363 2.594-1.187 5.66-2.007 9.193-2.466a156.04 156.04 0 0 1 11.426-1.01v-1.492c0-1.823-.275-3.292-.826-4.409-.559-1.116-1.329-1.986-2.325-2.586-.99-.636-2.205-1.06-3.64-1.265a31.294 31.294 0 0 0-4.43-.31c-1.795 0-3.907.268-6.338.805-2.424.537-4.855 1.321-7.285 2.339h-.453v-7.907c1.435-.417 3.491-.87 6.17-1.364a43.092 43.092 0 0 1 7.949-.75c3.172 0 5.85.248 8.027.75a15.437 15.437 0 0 1 5.886 2.692c1.682 1.265 2.94 2.911 3.766 4.925.827 2.014 1.244 4.473 1.244 7.37v31.628h-7.745v-4.925zM220.252 150.74v-26.746c0-2.127-.085-4.091-.247-5.9-.17-1.81-.51-3.223-1.04-4.24-.55-1.11-1.335-1.922-2.36-2.445-1.017-.523-2.395-.784-4.133-.784-1.604 0-3.321.487-5.158 1.47-1.837.975-3.731 2.388-5.696 4.24.029.473.064 1.03.106 1.674.043.65.064 1.42.064 2.303v30.427h-7.787v-26.745c0-2.127-.078-4.091-.247-5.9-.163-1.81-.509-3.223-1.032-4.24-.558-1.11-1.342-1.922-2.36-2.445-1.025-.523-2.402-.784-4.14-.784-1.69 0-3.456.523-5.3 1.568-1.852 1.053-3.647 2.389-5.385 4.021v34.525h-7.787v-46.248h7.787v5.137c2.042-2.042 4.063-3.625 6.063-4.741 2.007-1.117 4.204-1.675 6.607-1.675 2.734 0 5.151.622 7.264 1.859 2.113 1.243 3.724 3.285 4.826 6.133 2.346-2.622 4.635-4.614 6.875-5.964 2.233-1.357 4.664-2.028 7.286-2.028 1.985 0 3.794.311 5.42.933 1.632.615 3.052 1.618 4.267 2.996 1.244 1.413 2.198 3.166 2.876 5.264.679 2.092 1.018 4.728 1.018 7.907v30.427h-7.787zM259.045 151.82c-7.37 0-13.086-2.077-17.156-6.232-4.078-4.155-6.113-10.055-6.113-17.7 0-7.533 1.979-13.532 5.922-17.991 3.95-4.459 9.108-6.685 15.489-6.685 2.869 0 5.406.41 7.617 1.244 2.205.827 4.141 2.12 5.794 3.886 1.654 1.767 2.926 3.929 3.81 6.48.882 2.558 1.328 5.681 1.328 9.377v4.225h-32.053c0 5.385 1.357 9.497 4.063 12.338 2.707 2.848 6.445 4.268 11.222 4.268 1.71 0 3.384-.198 5.03-.58 1.64-.388 3.124-.883 4.445-1.49 1.414-.636 2.6-1.251 3.562-1.845.968-.593 1.766-1.152 2.402-1.674h.46v8.486l-3.4 1.343c-1.349.537-2.564.96-3.646 1.264-1.512.417-2.89.735-4.12.954-1.222.22-2.776.332-4.656.332zm9.109-29.36c-.05-2.098-.304-3.9-.742-5.42-.446-1.519-1.074-2.805-1.908-3.85-.912-1.16-2.078-2.042-3.498-2.65-1.42-.608-3.18-.912-5.278-.912-2.07 0-3.83.311-5.279.933-1.448.622-2.763 1.526-3.95 2.713a12.643 12.643 0 0 0-2.65 4.035c-.607 1.477-.996 3.194-1.166 5.151h24.47zM297.923 116.292h-9.892v-11.8h9.892v11.8zm0 34.447h-9.892v-11.8h9.892v11.8zM334.194 150.74l20.824-61.646h16.895l20.824 61.645h-15.94l-3.852-12.585H353.57l-3.851 12.585h-15.525zm35.36-23.764l-6.297-20.33-6.289 20.33h12.585zM398.037 86.317h14.493v64.422h-14.493zM438.116 150.74h-14.492v-46.496h14.492v46.495zm.417-53.117h-15.32V86.317h15.32v11.306zM472.027 151.983c-3.837 0-7.349-.48-10.536-1.449-3.187-.968-5.956-2.459-8.302-4.472-2.318-2.014-4.127-4.544-5.427-7.597-1.293-3.052-1.943-6.642-1.943-10.783 0-4.444.706-8.225 2.112-11.348 1.407-3.116 3.314-5.688 5.71-7.702 2.318-1.93 5.045-3.356 8.182-4.282 3.13-.926 6.395-1.385 9.787-1.385 2.572 0 5.137.297 7.702.89 2.565.594 5.151 1.534 7.745 2.834v12.422h-1.866a29.54 29.54 0 0 0-2.134-1.823 20.606 20.606 0 0 0-2.748-1.823c-1.053-.58-2.24-1.067-3.562-1.47-1.328-.403-2.805-.6-4.43-.6-3.696 0-6.565 1.293-8.593 3.872-2.028 2.579-3.045 6.048-3.045 10.415 0 4.664 1.088 8.14 3.25 10.43 2.17 2.29 5.045 3.441 8.635 3.441 1.823 0 3.42-.212 4.805-.622 1.378-.416 2.565-.911 3.561-1.49.961-.58 1.795-1.18 2.48-1.802a46.209 46.209 0 0 0 1.781-1.675h1.866v12.415c-.827.36-1.788.778-2.876 1.244a24.222 24.222 0 0 1-3.335 1.159 39.006 39.006 0 0 1-3.957.89c-1.223.205-2.848.311-4.862.311zM517.738 151.983c-8.783 0-15.51-2.099-20.188-6.296-4.678-4.19-7.017-10.168-7.017-17.927 0-7.589 2.184-13.645 6.544-18.174 4.36-4.53 10.458-6.79 18.301-6.79 7.123 0 12.472 1.921 16.061 5.758 3.59 3.837 5.385 9.328 5.385 16.479v5.214h-31.756c.135 2.156.594 3.957 1.364 5.406.77 1.449 1.795 2.6 3.067 3.455 1.237.855 2.692 1.47 4.346 1.845 1.653.367 3.462.558 5.42.558 1.688 0 3.342-.19 4.974-.558 1.625-.375 3.116-.862 4.466-1.47a29.864 29.864 0 0 0 3.293-1.703 33.118 33.118 0 0 0 2.466-1.611h1.533v11.963c-1.187.473-2.275.904-3.25 1.307-.983.396-2.325.806-4.042 1.223-1.569.41-3.194.734-4.862.968-1.667.24-3.702.353-6.105.353zm4.798-30.47c-.078-3.066-.791-5.398-2.127-7.002-1.342-1.597-3.392-2.395-6.154-2.395-2.813 0-5.01.84-6.6 2.522-1.59 1.682-2.466 3.971-2.629 6.876h17.51z"/></g><path d="M106.188 647.696c0 2.677-.476 5.21-1.428 7.597-.953 2.388-2.271 4.424-3.954 6.107-2.126 2.098-4.624 3.685-7.494 4.762-2.871 1.076-6.501 1.615-10.889 1.615h-6.956v22.979h-8.198v-61.65h15.485c3.643 0 6.748.303 9.316.911 2.567.607 4.83 1.587 6.79 2.939 2.291 1.574 4.085 3.568 5.382 5.983 1.297 2.415 1.946 5.334 1.946 8.757zm-8.529.207c0-2.125-.366-3.975-1.097-5.548-.732-1.573-1.843-2.857-3.333-3.851-1.298-.855-2.809-1.463-4.534-1.821-1.725-.359-3.871-.539-6.438-.539h-6.79v24.635h5.589c3.312 0 5.99-.269 8.032-.807 2.043-.538 3.741-1.497 5.093-2.877 1.215-1.243 2.098-2.595 2.65-4.058.552-1.463.828-3.174.828-5.134zM149.413 690.756h-7.784v-5.135c-2.401 2.098-4.678 3.692-6.831 4.783-2.153 1.09-4.555 1.635-7.204 1.635-2.015 0-3.913-.331-5.693-.994-1.781-.662-3.333-1.711-4.658-3.146-1.325-1.436-2.353-3.244-3.085-5.424-.731-2.181-1.097-4.831-1.097-7.95v-30.017h7.784v26.332c0 2.457.09 4.493.269 6.107.179 1.615.587 3.03 1.221 4.244.635 1.187 1.498 2.057 2.588 2.609s2.657.828 4.699.828c1.905 0 3.934-.538 6.087-1.615a27.739 27.739 0 0 0 5.92-3.975v-34.53h7.784v46.248zM191.438 667.487c0-5.521-.842-9.709-2.526-12.566-1.684-2.857-4.389-4.285-8.115-4.285-2.125 0-4.271.496-6.438 1.49a24.97 24.97 0 0 0-5.9 3.768v26.498c1.96.966 3.699 1.649 5.217 2.049 1.518.401 3.188.601 5.009.601 3.975 0 7.094-1.408 9.358-4.223 2.263-2.816 3.395-7.26 3.395-13.332zm8.032-.621c0 7.563-1.836 13.649-5.507 18.259-3.671 4.609-8.267 6.914-13.787 6.914-2.512 0-4.658-.311-6.438-.932a28.247 28.247 0 0 1-5.279-2.504l-.497 2.153h-7.287v-64.424h7.784v23.02a29.205 29.205 0 0 1 6.376-4.389c2.291-1.159 4.886-1.739 7.784-1.739 5.217 0 9.329 2.091 12.338 6.273 3.009 4.182 4.513 9.971 4.513 17.369zM207.709 626.332h7.784v64.424h-7.784zM234.953 690.756h-7.784v-46.248h7.784v46.248zm.538-53.991h-8.86v-8.073h8.86v8.073zM264.763 691.791c-3.174 0-6.086-.49-8.736-1.47-2.65-.98-4.927-2.464-6.832-4.451-1.904-1.987-3.381-4.492-4.43-7.515-1.049-3.022-1.573-6.576-1.573-10.661 0-4.058.545-7.563 1.635-10.517 1.091-2.953 2.547-5.437 4.368-7.452 1.822-2.015 4.092-3.568 6.811-4.658 2.719-1.09 5.638-1.636 8.757-1.636 2.54 0 4.989.359 7.349 1.077 2.36.718 4.465 1.546 6.314 2.484v8.736h-.455a29.332 29.332 0 0 0-2.132-1.615c-.87-.607-1.926-1.228-3.168-1.863-1.076-.552-2.346-1.035-3.809-1.449-1.463-.414-2.871-.621-4.223-.621-4.03 0-7.266 1.525-9.709 4.575-2.443 3.05-3.664 7.363-3.664 12.939 0 5.465 1.18 9.723 3.54 12.773 2.36 3.05 5.637 4.575 9.833 4.575 2.539 0 4.955-.525 7.246-1.573 2.291-1.049 4.319-2.402 6.086-4.058h.455v8.736c-.773.359-1.739.794-2.898 1.304-1.159.511-2.208.89-3.147 1.139a41.911 41.911 0 0 1-3.56.89c-1.049.207-2.402.311-4.058.311zM357.548 690.756h-10.641l-22.482-28.693-3.602 4.057v24.636h-8.198v-61.65h8.198v28.361l25.256-28.361h9.979l-25.505 27.533 26.995 34.117z" fill-rule="nonzero"/><path d="M379.575 691.832c-7.37 0-13.091-2.077-17.162-6.231s-6.107-10.054-6.107-17.7c0-7.536 1.974-13.532 5.921-17.99 3.947-4.458 9.109-6.687 15.485-6.687 2.87 0 5.41.414 7.618 1.243 2.208.828 4.14 2.125 5.796 3.891 1.656 1.767 2.926 3.927 3.809 6.48.884 2.553 1.325 5.679 1.325 9.378v4.223h-32.046c0 5.383 1.353 9.495 4.058 12.338s6.445 4.265 11.22 4.265c1.711 0 3.388-.193 5.03-.58 1.643-.386 3.126-.883 4.451-1.49 1.408-.635 2.595-1.249 3.561-1.843.966-.593 1.767-1.152 2.401-1.677h.456v8.488c-.911.359-2.043.807-3.395 1.346-1.353.538-2.567.959-3.644 1.262a48.052 48.052 0 0 1-4.119.953c-1.229.221-2.781.331-4.658.331zm9.109-29.355c-.056-2.098-.304-3.906-.746-5.424-.441-1.518-1.076-2.801-1.904-3.85-.911-1.16-2.077-2.043-3.499-2.65-1.421-.607-3.181-.911-5.279-.911-2.07 0-3.83.31-5.279.932-1.449.621-2.767 1.525-3.954 2.711-1.159 1.215-2.042 2.561-2.65 4.037-.607 1.477-.993 3.195-1.159 5.155h24.47zM440.479 644.508l-24.883 63.306h-8.322l8.28-19.294-16.809-44.012h8.404l12.628 34.241 12.587-34.241h8.115zM460.684 656.308h-9.895v-11.8h9.895v11.8zm0 34.448h-9.895v-11.8h9.895v11.8z" fill-rule="nonzero"/><g fill-rule="nonzero"><path d="M67.27 886.348v-61.645h38.545v7.285h-30.35v16.895h28.28v7.286h-28.28v22.894h30.35v7.285H67.27zM150.155 886.348h-9.56l-11.221-17.467-11.553 17.467h-8.819l16.061-22.936-15.898-23.312h9.567l11.136 17.312 11.426-17.312h8.861l-15.983 22.774 15.983 23.474zM194.997 862.005c0 7.702-1.844 13.836-5.525 18.408-3.689 4.564-8.345 6.847-13.977 6.847-2.29 0-4.318-.262-6.084-.784-1.767-.523-3.576-1.343-5.427-2.445v19.375h-7.78V840.1h7.78v4.848a28.708 28.708 0 0 1 6.437-4.367c2.36-1.173 4.94-1.76 7.724-1.76 5.3 0 9.433 2.099 12.4 6.29 2.969 4.196 4.452 9.828 4.452 16.894zm-8.034.87c0-5.272-.84-9.363-2.522-12.274-1.69-2.912-4.417-4.367-8.197-4.367-2.212 0-4.346.487-6.402 1.47-2.056.975-4.007 2.24-5.858 3.787v26.208c2.042.99 3.787 1.668 5.236 2.028 1.449.36 3.116.537 4.989.537 4.035 0 7.165-1.476 9.405-4.43 2.233-2.954 3.35-7.271 3.35-12.96zM211.016 886.348h-7.78V840.1h7.78v46.248zm.545-53.985H202.7v-8.077h8.86v8.077zM246.955 848.467h-.41a8.976 8.976 0 0 0-1.844-.311 36.628 36.628 0 0 0-2.339-.064c-2.099 0-4.183.46-6.254 1.37-2.07.912-4.027 2.262-5.879 4.057v32.83h-7.78V840.1h7.78v6.876c2.848-2.509 5.321-4.283 7.434-5.321 2.113-1.032 4.162-1.555 6.148-1.555.798 0 1.399.021 1.801.064.403.042.848.106 1.343.19v8.113zM277.39 874.965v-12.832c-1.852.162-4.191.388-7.018.678-2.833.29-5.116.7-6.854 1.222-2.07.636-3.78 1.611-5.13 2.919-1.357 1.314-2.035 3.144-2.035 5.49 0 2.65.75 4.65 2.24 6 1.491 1.356 3.667 2.027 6.543 2.027 2.452 0 4.678-.53 6.664-1.59a29.087 29.087 0 0 0 5.59-3.914zm0 6.458a90.756 90.756 0 0 0-2.545 1.965c-1.067.848-2.091 1.512-3.088 2.013-1.378.714-2.713 1.265-3.992 1.654-1.286.389-3.088.58-5.406.58-1.9 0-3.71-.361-5.427-1.075a14.016 14.016 0 0 1-4.508-3.024c-1.243-1.272-2.24-2.834-2.982-4.699-.749-1.865-1.116-3.83-1.116-5.9 0-3.201.671-5.929 2.028-8.176 1.35-2.254 3.49-4.042 6.416-5.363 2.593-1.187 5.66-2.007 9.193-2.466a156.04 156.04 0 0 1 11.426-1.01v-1.492c0-1.823-.275-3.292-.827-4.409-.55-1.116-1.328-1.986-2.317-2.586-.997-.636-2.212-1.06-3.647-1.265a31.294 31.294 0 0 0-4.43-.31c-1.795 0-3.908.268-6.331.805-2.431.537-4.862 1.321-7.293 2.339h-.452v-7.907c1.435-.417 3.49-.87 6.169-1.364a43.092 43.092 0 0 1 7.95-.75c3.172 0 5.85.248 8.034.75 2.176.494 4.14 1.392 5.879 2.692 1.681 1.265 2.94 2.911 3.766 4.925.827 2.014 1.244 4.473 1.244 7.37v31.628h-7.745v-4.925zM310.056 887.26c-4.254 0-7.56-1.208-9.935-3.618-2.374-2.417-3.561-6.232-3.561-11.454v-25.63h-5.258V840.1h5.258v-13.284h7.78V840.1h14.33v6.459h-14.33v21.99c0 2.346.042 4.155.127 5.42a9.257 9.257 0 0 0 .954 3.56c.466.969 1.23 1.697 2.275 2.177 1.053.48 2.473.72 4.268.72 1.265 0 2.494-.183 3.681-.557 1.188-.368 2.043-.679 2.565-.933h.46v7.002c-1.463.41-2.947.735-4.452.969-1.505.24-2.89.353-4.162.353zM332.371 886.348h-7.78V840.1h7.78v46.248zm.537-53.985h-8.854v-8.077h8.854v8.077zM381.848 863.249c0 7.78-1.872 13.793-5.631 18.033-3.752 4.233-8.748 6.352-14.988 6.352-6.43 0-11.49-2.19-15.17-6.564-3.69-4.374-5.527-10.317-5.527-17.821 0-7.73 1.894-13.737 5.689-18.012 3.794-4.282 8.797-6.416 15.008-6.416 6.24 0 11.236 2.134 14.988 6.395 3.759 4.268 5.631 10.274 5.631 18.033zm-8.034 0c0-5.992-1.088-10.444-3.264-13.355-2.184-2.911-5.286-4.367-9.32-4.367-4.057 0-7.18 1.456-9.378 4.367-2.19 2.911-3.292 7.363-3.292 13.355 0 5.794 1.102 10.19 3.292 13.185 2.198 2.997 5.321 4.495 9.377 4.495 4.007 0 7.102-1.47 9.3-4.41 2.19-2.94 3.285-7.363 3.285-13.27zM426.196 886.348h-7.787V860.02c0-2.127-.106-4.106-.311-5.943-.205-1.837-.6-3.307-1.18-4.41-.636-1.158-1.52-2.02-2.65-2.585-1.13-.566-2.678-.848-4.635-.848-1.936 0-3.93.515-5.985 1.547-2.057 1.039-4.063 2.381-6.02 4.042v34.525h-7.788V840.1h7.787v5.137c2.318-2.07 4.607-3.66 6.869-4.762a16.167 16.167 0 0 1 7.165-1.654c4.55 0 8.112 1.498 10.684 4.494 2.565 2.99 3.85 7.335 3.85 13.016v30.017zM451.45 851.9h-9.9v-11.8h9.9v11.8zm0 34.448h-9.9v-11.8h9.9v11.8zM183.07 971.142h-38.045v-8.649a724.616 724.616 0 0 0 7.738-7.454 164.864 164.864 0 0 0 7.123-7.413c4.692-5.158 7.892-9.292 9.603-12.4 1.717-3.103 2.572-6.311 2.572-9.625 0-1.71-.269-3.215-.806-4.515-.544-1.293-1.279-2.375-2.219-3.23a9.68 9.68 0 0 0-3.356-1.858c-1.265-.417-2.664-.622-4.176-.622-1.463 0-2.947.184-4.452.558a33.687 33.687 0 0 0-4.332 1.385 23.271 23.271 0 0 0-3.349 1.696c-1.081.664-1.95 1.23-2.607 1.703h-.46v-8.783c1.71-.855 4.092-1.689 7.144-2.501 3.053-.813 5.943-1.223 8.678-1.223 5.737 0 10.238 1.526 13.496 4.579 3.257 3.045 4.883 7.18 4.883 12.394 0 2.403-.283 4.628-.848 6.67a24.633 24.633 0 0 1-2.34 5.675 39.543 39.543 0 0 1-3.688 5.335 103.183 103.183 0 0 1-4.55 5.222 189.172 189.172 0 0 1-8.678 8.776 748.86 748.86 0 0 1-7.638 7.2h30.307v7.08zM229.65 940.299c0 11.065-1.604 19.191-4.82 24.364-3.221 5.18-8.182 7.766-14.888 7.766-6.79 0-11.772-2.636-14.945-7.908-3.172-5.27-4.762-13.32-4.762-24.138 0-11.122 1.61-19.262 4.826-24.406 3.215-5.151 8.176-7.724 14.881-7.724 6.791 0 11.773 2.664 14.945 7.992 3.18 5.328 4.763 13.341 4.763 24.054zm-10.6 18.796c.8-2.042 1.372-4.622 1.697-7.738.332-3.123.501-6.805.501-11.058 0-4.226-.17-7.893-.501-11.017-.325-3.116-.912-5.709-1.739-7.78-.826-2.098-1.964-3.695-3.413-4.783-1.448-1.088-3.335-1.633-5.653-1.633-2.289 0-4.176.545-5.653 1.633-1.476 1.088-2.642 2.713-3.497 4.868-.827 2.099-1.392 4.749-1.696 7.95-.304 3.2-.46 6.812-.46 10.846 0 4.304.135 7.907.396 10.805.262 2.897.834 5.49 1.717 7.787.806 2.12 1.943 3.759 3.42 4.903 1.477 1.145 3.4 1.718 5.773 1.718 2.29 0 4.177-.545 5.653-1.633 1.477-1.095 2.629-2.713 3.456-4.868zM275.65 971.142H237.6v-8.649a727.622 727.622 0 0 0 7.744-7.454 164.864 164.864 0 0 0 7.123-7.413c4.692-5.158 7.893-9.292 9.603-12.4 1.71-3.103 2.565-6.311 2.565-9.625 0-1.71-.269-3.215-.806-4.515-.537-1.293-1.279-2.375-2.212-3.23a9.68 9.68 0 0 0-3.356-1.858c-1.272-.417-2.664-.622-4.183-.622-1.463 0-2.947.184-4.452.558a33.233 33.233 0 0 0-4.324 1.385 23.721 23.721 0 0 0-3.357 1.696 49.651 49.651 0 0 0-2.607 1.703h-.453v-8.783c1.71-.855 4.092-1.689 7.144-2.501 3.046-.813 5.936-1.223 8.67-1.223 5.745 0 10.24 1.526 13.497 4.579 3.257 3.045 4.89 7.18 4.89 12.394 0 2.403-.283 4.628-.848 6.67a24.964 24.964 0 0 1-2.346 5.675c-1.018 1.787-2.247 3.568-3.682 5.335a99.926 99.926 0 0 1-4.557 5.222c-2.594 2.812-5.484 5.737-8.67 8.776a832.43 832.43 0 0 1-7.639 7.2h30.307v7.08zM322.231 940.299c0 11.065-1.611 19.191-4.826 24.364-3.215 5.18-8.176 7.766-14.882 7.766-6.79 0-11.772-2.636-14.952-7.908-3.172-5.27-4.755-13.32-4.755-24.138 0-11.122 1.604-19.262 4.819-24.406 3.215-5.151 8.176-7.724 14.888-7.724 6.791 0 11.773 2.664 14.945 7.992 3.173 5.328 4.763 13.341 4.763 24.054zm-10.6 18.796c.8-2.042 1.365-4.622 1.697-7.738.332-3.123.494-6.805.494-11.058 0-4.226-.162-7.893-.494-11.017-.332-3.116-.912-5.709-1.739-7.78-.826-2.098-1.964-3.695-3.42-4.783-1.448-1.088-3.328-1.633-5.646-1.633-2.296 0-4.176.545-5.652 1.633-1.477 1.088-2.643 2.713-3.498 4.868-.827 2.099-1.4 4.749-1.703 7.95-.297 3.2-.452 6.812-.452 10.846 0 4.304.134 7.907.395 10.805.262 2.897.834 5.49 1.717 7.787.799 2.12 1.937 3.759 3.413 4.903 1.477 1.145 3.406 1.718 5.78 1.718 2.29 0 4.17-.545 5.646-1.633 1.477-1.095 2.636-2.713 3.463-4.868zM329.39 940.426h23.353v7.497h-23.354zM399.323 940.299c0 11.065-1.611 19.191-4.826 24.364-3.215 5.18-8.176 7.766-14.881 7.766-6.791 0-11.773-2.636-14.945-7.908-3.18-5.27-4.763-13.32-4.763-24.138 0-11.122 1.604-19.262 4.82-24.406 3.214-5.151 8.182-7.724 14.888-7.724 6.79 0 11.772 2.664 14.944 7.992 3.173 5.328 4.763 13.341 4.763 24.054zm-10.6 18.796c.8-2.042 1.365-4.622 1.697-7.738.332-3.123.494-6.805.494-11.058 0-4.226-.162-7.893-.494-11.017-.332-3.116-.912-5.709-1.739-7.78-.826-2.098-1.964-3.695-3.413-4.783-1.448-1.088-3.335-1.633-5.652-1.633-2.29 0-4.177.545-5.653 1.633-1.477 1.088-2.643 2.713-3.498 4.868-.827 2.099-1.392 4.749-1.696 7.95-.304 3.2-.46 6.812-.46 10.846 0 4.304.135 7.907.396 10.805.262 2.897.834 5.49 1.717 7.787.799 2.12 1.937 3.759 3.413 4.903 1.477 1.145 3.406 1.718 5.78 1.718 2.29 0 4.177-.545 5.653-1.633 1.477-1.095 2.63-2.713 3.456-4.868zM446.935 949.944h-7.328v21.198h-7.95v-21.198h-27.24v-8.691l27.573-31.756h7.617v33.826h7.328v6.62zm-15.277-6.621v-24.096l-20.782 24.096h20.782zM452.772 940.426h23.353v7.497h-23.353zM522.706 940.299c0 11.065-1.611 19.191-4.827 24.364-3.215 5.18-8.175 7.766-14.88 7.766-6.792 0-11.773-2.636-14.946-7.908-3.18-5.27-4.762-13.32-4.762-24.138 0-11.122 1.604-19.262 4.819-24.406 3.215-5.151 8.182-7.724 14.888-7.724 6.79 0 11.772 2.664 14.945 7.992 3.173 5.328 4.763 13.341 4.763 24.054zm-10.6 18.796c.799-2.042 1.364-4.622 1.696-7.738.332-3.123.495-6.805.495-11.058 0-4.226-.163-7.893-.495-11.017-.332-3.116-.911-5.709-1.738-7.78-.827-2.098-1.964-3.695-3.413-4.783-1.456-1.088-3.335-1.633-5.653-1.633-2.29 0-4.176.545-5.653 1.633-1.477 1.088-2.643 2.713-3.498 4.868-.826 2.099-1.392 4.749-1.696 7.95-.303 3.2-.459 6.812-.459 10.846 0 4.304.134 7.907.396 10.805.261 2.897.834 5.49 1.717 7.787.798 2.12 1.936 3.759 3.413 4.903 1.477 1.145 3.406 1.718 5.78 1.718 2.29 0 4.176-.545 5.653-1.633 1.477-1.095 2.629-2.713 3.455-4.868zM560.587 934.836c0-4.197-.388-7.61-1.158-10.253-.77-2.635-1.838-4.67-3.187-6.105-1.216-1.321-2.445-2.233-3.689-2.734-1.236-.495-2.607-.742-4.098-.742-3.392 0-6.098 1.215-8.112 3.646-2.014 2.424-3.024 5.942-3.024 10.557 0 2.593.332 4.734.996 6.416.664 1.682 1.738 3.13 3.23 4.345a8.364 8.364 0 0 0 3.56 1.718 19.87 19.87 0 0 0 4.261.438c1.767 0 3.675-.311 5.717-.933 2.042-.622 3.823-1.442 5.342-2.466.028-.41.056-.954.099-1.632.042-.679.063-1.428.063-2.255zm-31.67-5.3c0-3.179.516-6.076 1.547-8.698 1.039-2.621 2.452-4.882 4.247-6.79 1.71-1.823 3.802-3.244 6.275-4.261 2.466-1.025 4.974-1.534 7.511-1.534 2.848 0 5.42.474 7.724 1.428a17.096 17.096 0 0 1 5.985 4.12c2.12 2.26 3.773 5.228 4.946 8.903 1.173 3.667 1.76 8.31 1.76 13.913 0 5.102-.573 9.942-1.718 14.507-1.144 4.572-2.84 8.36-5.073 11.37-2.374 3.2-5.222 5.645-8.55 7.327-3.328 1.682-7.434 2.523-12.317 2.523-1.102 0-2.275-.064-3.519-.184a17.929 17.929 0 0 1-3.476-.685v-7.907h.41c.692.388 1.766.756 3.229 1.116 1.463.36 2.954.537 4.473.537 5.413 0 9.66-1.78 12.754-5.335 3.088-3.561 4.84-8.656 5.258-15.284-2.212 1.49-4.318 2.586-6.318 3.272-2 .692-4.176 1.038-6.522 1.038-2.29 0-4.374-.247-6.246-.749-1.88-.494-3.774-1.462-5.674-2.897-2.212-1.682-3.88-3.816-5.01-6.395-1.13-2.579-1.696-5.695-1.696-9.334z"/></g><g fill-rule="nonzero"><path d="M103.307 340.32H67.312v-62.105h8.26v54.763h27.735v7.341zM147.52 317.05c0 7.837-1.887 13.893-5.667 18.16-3.788 4.268-8.819 6.402-15.1 6.402-6.48 0-11.575-2.204-15.292-6.606-3.71-4.41-5.568-10.395-5.568-17.956 0-7.787 1.915-13.835 5.738-18.146 3.822-4.31 8.86-6.465 15.121-6.465 6.282 0 11.313 2.148 15.1 6.444 3.781 4.296 5.668 10.352 5.668 18.167zm-8.091 0c0-6.034-1.095-10.521-3.293-13.454-2.197-2.932-5.328-4.402-9.384-4.402-4.091 0-7.236 1.47-9.447 4.402-2.212 2.933-3.314 7.42-3.314 13.454 0 5.837 1.102 10.268 3.314 13.285 2.211 3.017 5.356 4.522 9.447 4.522 4.028 0 7.151-1.484 9.363-4.444 2.212-2.961 3.314-7.413 3.314-13.363zM174.096 341.365c-3.201 0-6.134-.495-8.805-1.484-2.67-.982-4.96-2.48-6.882-4.48-1.915-2.007-3.406-4.53-4.459-7.575-1.06-3.038-1.59-6.62-1.59-10.74 0-4.085.551-7.618 1.647-10.592 1.102-2.975 2.565-5.477 4.402-7.505 1.837-2.035 4.126-3.596 6.861-4.699 2.742-1.095 5.681-1.646 8.826-1.646 2.558 0 5.024.36 7.398 1.088 2.381.72 4.501 1.555 6.367 2.501v8.798h-.46a32.613 32.613 0 0 0-2.148-1.625c-.876-.608-1.943-1.237-3.194-1.873-1.08-.558-2.36-1.046-3.837-1.463-1.477-.417-2.89-.621-4.254-.621-4.063 0-7.32 1.533-9.78 4.607-2.465 3.073-3.695 7.412-3.695 13.03 0 5.511 1.194 9.8 3.569 12.867 2.374 3.074 5.68 4.614 9.906 4.614 2.558 0 4.99-.53 7.3-1.59a22.621 22.621 0 0 0 6.133-4.084h.46v8.798c-.785.367-1.753.805-2.926 1.314-1.166.516-2.219.897-3.165 1.152a43.5 43.5 0 0 1-3.59.897c-1.053.205-2.417.311-4.084.311zM221.015 328.85v-12.93c-1.858.17-4.218.396-7.066.692-2.855.29-5.151.7-6.904 1.23-2.084.636-3.808 1.618-5.172 2.94-1.364 1.32-2.042 3.158-2.042 5.525 0 2.671.749 4.685 2.247 6.049 1.505 1.364 3.702 2.042 6.592 2.042 2.474 0 4.714-.537 6.713-1.604a29.3 29.3 0 0 0 5.632-3.943zm0 6.509c-.636.473-1.49 1.13-2.565 1.978-1.067.848-2.106 1.527-3.102 2.028-1.392.721-2.735 1.28-4.028 1.668-1.293.389-3.109.58-5.44.58-1.923 0-3.746-.36-5.47-1.082a14 14 0 0 1-4.543-3.045c-1.251-1.28-2.255-2.855-3.004-4.735a15.896 15.896 0 0 1-1.123-5.942c0-3.23.678-5.971 2.042-8.24 1.364-2.268 3.519-4.07 6.466-5.398 2.614-1.201 5.695-2.028 9.256-2.487 3.562-.46 7.399-.799 11.511-1.018v-1.505c0-1.837-.275-3.314-.834-4.437-.55-1.131-1.335-2-2.332-2.608-1.003-.643-2.225-1.067-3.674-1.272a30.663 30.663 0 0 0-4.459-.318c-1.809 0-3.936.276-6.38.813a42.59 42.59 0 0 0-7.342 2.36h-.46v-7.97c1.442-.418 3.52-.87 6.212-1.372 2.699-.501 5.37-.756 8.013-.756 3.194 0 5.893.255 8.09.756 2.198.502 4.17 1.4 5.922 2.707 1.696 1.279 2.96 2.94 3.794 4.967.834 2.028 1.251 4.502 1.251 7.427v31.861h-7.8v-4.96zM253.93 341.238c-4.283 0-7.625-1.215-10.013-3.646-2.389-2.438-3.59-6.282-3.59-11.532v-25.82h-5.293v-6.508h5.293v-13.39h7.843v13.39h14.437v6.508H248.17v22.145c0 2.368.043 4.184.128 5.463a9.277 9.277 0 0 0 .96 3.59c.467.974 1.237 1.702 2.29 2.19 1.06.487 2.487.727 4.296.727 1.28 0 2.516-.183 3.717-.558 1.194-.381 2.056-.692 2.586-.94h.46v7.045a37.638 37.638 0 0 1-4.487.983c-1.52.233-2.912.353-4.19.353zM276.407 340.32h-7.837v-46.588h7.837v46.587zm.544-54.39h-8.925v-8.132h8.925v8.133zM326.252 317.05c0 7.837-1.887 13.893-5.667 18.16-3.788 4.268-8.819 6.402-15.1 6.402-6.48 0-11.575-2.204-15.292-6.606-3.71-4.41-5.568-10.395-5.568-17.956 0-7.787 1.915-13.835 5.738-18.146 3.822-4.31 8.86-6.465 15.121-6.465 6.282 0 11.313 2.148 15.1 6.444 3.781 4.296 5.668 10.352 5.668 18.167zm-8.091 0c0-6.034-1.095-10.521-3.293-13.454-2.197-2.932-5.328-4.402-9.384-4.402-4.091 0-7.236 1.47-9.447 4.402-2.212 2.933-3.321 7.42-3.321 13.454 0 5.837 1.109 10.268 3.32 13.285 2.212 3.017 5.357 4.522 9.448 4.522 4.028 0 7.151-1.484 9.363-4.444 2.212-2.961 3.314-7.413 3.314-13.363zM370.924 340.32h-7.836v-26.527c0-2.141-.106-4.134-.318-5.985-.205-1.852-.6-3.328-1.187-4.445-.636-1.166-1.527-2.035-2.671-2.607-1.138-.566-2.693-.855-4.671-.855-1.943 0-3.957.523-6.028 1.568-2.07 1.04-4.09 2.396-6.07 4.064v34.786h-7.836v-46.587h7.837v5.172c2.338-2.084 4.642-3.688 6.924-4.797a16.294 16.294 0 0 1 7.215-1.668c4.593 0 8.176 1.505 10.762 4.522 2.586 3.018 3.88 7.391 3.88 13.122v30.236zM396.37 305.617h-9.971v-11.885h9.97v11.885zm0 34.702h-9.971v-11.885h9.97v11.885zM200.622 425.742h-8.26V372.23l-16.182 36.412h-5.01l-16.054-36.412v53.512H147.4v-62.104h11.263l15.51 34.582 14.98-34.582h11.47v62.104zM220.598 425.742h-7.836v-46.587h7.836v46.587zm.544-54.388h-8.924v-8.133h8.924v8.133zM268.733 425.742h-7.836v-26.526c0-2.141-.106-4.134-.318-5.985-.205-1.851-.601-3.328-1.187-4.445-.643-1.166-1.527-2.035-2.671-2.6-1.138-.572-2.7-.855-4.671-.855-1.943 0-3.957.516-6.028 1.562-2.07 1.038-4.091 2.395-6.07 4.063v34.786h-7.836v-46.587h7.836v5.172c2.34-2.084 4.643-3.688 6.925-4.797a16.294 16.294 0 0 1 7.215-1.668c4.593 0 8.175 1.505 10.762 4.522 2.586 3.018 3.879 7.392 3.879 13.122v30.236zM316.366 425.742h-7.836v-26.526c0-2.141-.106-4.134-.318-5.985-.205-1.851-.6-3.328-1.187-4.445-.636-1.166-1.527-2.035-2.671-2.6-1.138-.572-2.693-.855-4.671-.855-1.943 0-3.957.516-6.028 1.562-2.07 1.038-4.09 2.395-6.07 4.063v34.786h-7.836v-46.587h7.837v5.172c2.338-2.084 4.65-3.688 6.924-4.797a16.294 16.294 0 0 1 7.215-1.668c4.593 0 8.176 1.505 10.762 4.522 2.586 3.018 3.88 7.392 3.88 13.122v30.236zM347.613 426.83c-7.427 0-13.193-2.091-17.291-6.274-4.106-4.19-6.155-10.133-6.155-17.835 0-7.59 1.993-13.63 5.964-18.125 3.978-4.487 9.179-6.734 15.602-6.734 2.89 0 5.448.417 7.674 1.25 2.226.834 4.17 2.142 5.837 3.922 1.674 1.781 2.953 3.957 3.844 6.53.883 2.572 1.328 5.716 1.328 9.447v4.254h-32.278c0 5.42 1.357 9.56 4.084 12.43 2.728 2.861 6.494 4.296 11.306 4.296a22.07 22.07 0 0 0 5.066-.587c1.654-.389 3.152-.89 4.487-1.498 1.414-.643 2.608-1.258 3.583-1.858.975-.601 1.78-1.16 2.424-1.69h.452v8.55c-.912.361-2.056.813-3.42 1.358a36.612 36.612 0 0 1-3.667 1.271 50.016 50.016 0 0 1-4.148.961c-1.237.22-2.806.333-4.692.333zm9.172-29.571c-.057-2.113-.304-3.936-.75-5.47-.445-1.526-1.088-2.819-1.921-3.872-.912-1.173-2.092-2.063-3.52-2.67-1.434-.616-3.207-.92-5.32-.92-2.085 0-3.858.311-5.321.94-1.456.622-2.784 1.534-3.978 2.728-1.173 1.222-2.064 2.579-2.671 4.07-.615 1.484-1.004 3.215-1.166 5.194h24.647zM398.37 414.274v-12.931c-1.86.17-4.22.396-7.067.692-2.855.29-5.151.7-6.904 1.23-2.084.636-3.808 1.618-5.172 2.94-1.364 1.32-2.042 3.165-2.042 5.525 0 2.671.749 4.685 2.247 6.049 1.505 1.364 3.702 2.042 6.593 2.042 2.473 0 4.713-.537 6.712-1.604a29.3 29.3 0 0 0 5.632-3.943zm0 6.508c-.637.473-1.492 1.13-2.566 1.978-1.067.848-2.106 1.527-3.102 2.028-1.392.721-2.735 1.28-4.028 1.668-1.293.389-3.109.58-5.44.58-1.923 0-3.746-.36-5.47-1.082a14 14 0 0 1-4.543-3.045c-1.251-1.28-2.254-2.855-3.004-4.735a15.896 15.896 0 0 1-1.123-5.942c0-3.23.678-5.971 2.042-8.24 1.364-2.268 3.52-4.062 6.466-5.398 2.614-1.201 5.695-2.028 9.256-2.487 3.562-.46 7.399-.799 11.511-1.018v-1.505c0-1.83-.275-3.314-.834-4.437-.55-1.131-1.335-2-2.331-2.608-1.004-.643-2.226-1.067-3.675-1.272a30.663 30.663 0 0 0-4.459-.318c-1.809 0-3.936.276-6.38.82a41.951 41.951 0 0 0-7.342 2.353h-.46v-7.964c1.442-.416 3.52-.876 6.212-1.377a43.77 43.77 0 0 1 8.013-.75c3.194 0 5.893.248 8.09.75a15.675 15.675 0 0 1 5.922 2.706c1.696 1.279 2.96 2.94 3.795 4.967.833 2.028 1.25 4.502 1.25 7.427v31.861h-7.8v-4.96zM456.27 401.223c0 7.751-1.859 13.934-5.569 18.534-3.717 4.607-8.408 6.904-14.083 6.904-2.303 0-4.352-.261-6.126-.791-1.78-.53-3.604-1.35-5.47-2.46v19.517h-7.836v-63.772h7.837v4.883a28.919 28.919 0 0 1 6.487-4.402c2.38-1.18 4.974-1.774 7.78-1.774 5.341 0 9.503 2.113 12.492 6.338 2.99 4.226 4.487 9.9 4.487 17.023zm-8.098.869c0-5.307-.848-9.433-2.544-12.366-1.696-2.932-4.445-4.395-8.254-4.395-2.225 0-4.374.487-6.444 1.477-2.077.989-4.042 2.26-5.907 3.815v26.407c2.063.996 3.816 1.682 5.278 2.042 1.463.36 3.138.544 5.024.544 4.063 0 7.222-1.491 9.469-4.466 2.254-2.975 3.378-7.327 3.378-13.058zM502.73 402.473c0 7.837-1.887 13.893-5.668 18.16-3.787 4.268-8.818 6.402-15.1 6.402-6.48 0-11.574-2.197-15.291-6.606-3.71-4.41-5.568-10.395-5.568-17.956 0-7.786 1.915-13.835 5.737-18.146 3.823-4.31 8.861-6.465 15.122-6.465 6.282 0 11.313 2.148 15.1 6.444 3.78 4.297 5.668 10.352 5.668 18.167zm-8.091 0c0-6.034-1.095-10.521-3.293-13.454-2.198-2.932-5.328-4.402-9.384-4.402-4.091 0-7.236 1.47-9.447 4.402-2.212 2.933-3.322 7.42-3.322 13.454 0 5.837 1.11 10.268 3.322 13.285 2.211 3.017 5.356 4.522 9.447 4.522 4.028 0 7.151-1.477 9.363-4.444 2.211-2.961 3.314-7.413 3.314-13.363zM510.948 360.847h7.843v64.902h-7.843zM538.393 425.742h-7.837v-46.587h7.837v46.587zm.544-54.388h-8.925v-8.133h8.925v8.133zM562.502 426.873c-3.116 0-6.027-.417-8.733-1.25-2.714-.835-4.96-1.725-6.742-2.672v-8.804h.417c.672.53 1.456 1.116 2.36 1.752.905.643 2.106 1.307 3.604 2.007a33.911 33.911 0 0 0 4.402 1.625 17.48 17.48 0 0 0 4.99.707c1.25 0 2.585-.142 3.999-.438 1.42-.29 2.473-.657 3.172-1.103.975-.643 1.675-1.321 2.106-2.042.431-.728.643-1.809.643-3.257 0-1.859-.502-3.265-1.52-4.212-1.017-.947-2.811-1.738-5.398-2.374a93.797 93.797 0 0 0-3.921-.876c-1.619-.34-3.102-.7-4.466-1.088-3.562-1.032-6.148-2.622-7.759-4.777-1.611-2.155-2.417-4.763-2.417-7.822 0-4.198 1.583-7.618 4.756-10.26 3.166-2.643 7.377-3.957 12.634-3.957 2.587 0 5.187.318 7.801.953 2.615.643 4.812 1.449 6.593 2.424v8.38h-.417a24.592 24.592 0 0 0-6.699-3.751c-2.459-.92-4.939-1.378-7.44-1.378-2.586 0-4.77.544-6.55 1.625-1.781 1.088-2.672 2.727-2.672 4.925 0 1.943.53 3.399 1.583 4.36 1.06.954 2.756 1.745 5.095 2.353 1.166.304 2.466.608 3.893.897 1.435.29 2.947.636 4.53 1.025 3.448.862 6.041 2.29 7.78 4.296 1.738 2 2.607 4.727 2.607 8.176 0 2-.396 3.9-1.187 5.688a12.663 12.663 0 0 1-3.484 4.614 17.856 17.856 0 0 1-5.653 3.166c-2.098.728-4.734 1.088-7.907 1.088zM200.622 511.172h-8.26v-53.519l-16.182 36.412h-5.01l-16.054-36.412v53.52H147.4V449.06h11.263l15.51 34.582 14.98-34.582h11.47v62.111zM220.598 511.172h-7.836v-46.594h7.836v46.594zm.544-54.395h-8.924v-8.133h8.924v8.133zM268.733 511.172h-7.836V484.64c0-2.141-.106-4.134-.318-5.985-.205-1.844-.601-3.328-1.187-4.438-.643-1.173-1.527-2.042-2.671-2.607-1.138-.572-2.7-.855-4.671-.855-1.943 0-3.957.516-6.028 1.562-2.07 1.045-4.091 2.395-6.07 4.07v34.786h-7.836v-46.594h7.836v5.173c2.34-2.085 4.643-3.682 6.925-4.798a16.294 16.294 0 0 1 7.215-1.668c4.593 0 8.175 1.505 10.762 4.522 2.586 3.018 3.879 7.392 3.879 13.122v30.243zM316.366 511.172h-7.836V484.64c0-2.141-.106-4.134-.318-5.985-.205-1.844-.6-3.328-1.187-4.438-.636-1.173-1.527-2.042-2.671-2.607-1.138-.572-2.693-.855-4.671-.855-1.943 0-3.957.516-6.028 1.562-2.07 1.045-4.09 2.395-6.07 4.07v34.786h-7.836v-46.594h7.837v5.173c2.338-2.085 4.65-3.682 6.924-4.798a16.294 16.294 0 0 1 7.215-1.668c4.593 0 8.176 1.505 10.762 4.522 2.586 3.018 3.88 7.392 3.88 13.122v30.243zM347.613 512.254c-7.427 0-13.193-2.092-17.291-6.275-4.106-4.19-6.155-10.133-6.155-17.835 0-7.59 1.993-13.63 5.964-18.125 3.978-4.487 9.179-6.734 15.602-6.734 2.89 0 5.448.417 7.674 1.25 2.226.835 4.17 2.142 5.837 3.922 1.674 1.781 2.953 3.957 3.844 6.53.883 2.572 1.328 5.716 1.328 9.447v4.254h-32.278c0 5.42 1.357 9.568 4.084 12.43 2.728 2.861 6.494 4.296 11.306 4.296a22.07 22.07 0 0 0 5.066-.587c1.654-.389 3.152-.89 4.487-1.498 1.414-.643 2.608-1.258 3.583-1.858.975-.601 1.78-1.16 2.424-1.69h.452v8.55c-.912.361-2.056.813-3.42 1.358a36.612 36.612 0 0 1-3.667 1.272 50.016 50.016 0 0 1-4.148.96c-1.237.22-2.806.333-4.692.333zm9.172-29.572c-.057-2.113-.304-3.936-.75-5.463-.445-1.533-1.088-2.826-1.921-3.879-.912-1.173-2.092-2.063-3.52-2.67-1.434-.616-3.207-.92-5.32-.92-2.085 0-3.858.311-5.321.94-1.456.622-2.784 1.534-3.978 2.728-1.173 1.23-2.064 2.579-2.671 4.07-.615 1.484-1.004 3.215-1.166 5.194h24.647zM384.943 512.296c-3.116 0-6.027-.417-8.74-1.25-2.714-.835-4.954-1.725-6.735-2.672v-8.797h.417c.665.523 1.449 1.11 2.353 1.745.905.643 2.106 1.307 3.611 2.007a33.531 33.531 0 0 0 4.402 1.625c1.597.474 3.258.707 4.982.707 1.25 0 2.586-.141 4.007-.438 1.413-.29 2.473-.657 3.165-1.103.975-.643 1.675-1.32 2.106-2.042.431-.727.65-1.809.65-3.257 0-1.859-.509-3.265-1.526-4.212-1.01-.947-2.813-1.738-5.399-2.374a93.797 93.797 0 0 0-3.921-.876 64.72 64.72 0 0 1-4.46-1.088c-3.56-1.025-6.147-2.622-7.758-4.777-1.618-2.155-2.424-4.763-2.424-7.822 0-4.198 1.59-7.618 4.756-10.26 3.173-2.636 7.384-3.957 12.641-3.957 2.587 0 5.187.318 7.801.954 2.608.643 4.805 1.448 6.586 2.423v8.38h-.417a24.551 24.551 0 0 0-6.692-3.751c-2.466-.919-4.946-1.378-7.447-1.378-2.586 0-4.77.544-6.55 1.625-1.781 1.088-2.665 2.727-2.665 4.925 0 1.943.523 3.399 1.583 4.36 1.053.96 2.749 1.745 5.088 2.353 1.166.31 2.466.608 3.9.897a126.1 126.1 0 0 1 4.523 1.025c3.448.862 6.041 2.29 7.78 4.296 1.738 2 2.607 4.727 2.607 8.176 0 2-.396 3.9-1.187 5.695a12.543 12.543 0 0 1-3.484 4.607 17.72 17.72 0 0 1-5.653 3.166c-2.098.728-4.734 1.088-7.9 1.088zM448.8 487.896c0 7.837-1.893 13.893-5.674 18.16-3.78 4.269-8.811 6.403-15.1 6.403-6.48 0-11.574-2.198-15.284-6.607-3.71-4.41-5.568-10.395-5.568-17.956 0-7.786 1.907-13.835 5.737-18.145 3.823-4.31 8.861-6.466 15.115-6.466 6.289 0 11.32 2.148 15.1 6.444 3.78 4.297 5.674 10.352 5.674 18.167zm-8.09 0c0-6.034-1.103-10.521-3.3-13.454-2.19-2.932-5.321-4.402-9.384-4.402-4.084 0-7.236 1.47-9.448 4.402-2.211 2.933-3.314 7.42-3.314 13.454 0 5.837 1.103 10.268 3.314 13.285 2.212 3.017 5.364 4.522 9.448 4.522 4.035 0 7.158-1.477 9.37-4.437 2.204-2.968 3.314-7.42 3.314-13.37zM470.946 512.084c-4.282 0-7.617-1.215-10.006-3.646-2.395-2.43-3.59-6.282-3.59-11.532v-25.82h-5.3v-6.508h5.3v-13.39h7.844v13.39h14.43v6.508h-14.43v22.145c0 2.368.042 4.19.127 5.47a9.236 9.236 0 0 0 .954 3.582c.474.975 1.237 1.703 2.297 2.19 1.053.488 2.487.729 4.296.729 1.279 0 2.515-.184 3.71-.559 1.194-.374 2.056-.692 2.586-.94h.46v7.046c-1.47.423-2.969.749-4.48.982-1.52.24-2.92.353-4.198.353zM511.45 499.697v-12.931c-1.866.17-4.22.396-7.067.692-2.855.29-5.151.7-6.904 1.23-2.091.636-3.815 1.618-5.172 2.94-1.364 1.32-2.05 3.165-2.05 5.525 0 2.671.757 4.685 2.255 6.049 1.505 1.364 3.703 2.042 6.593 2.042 2.473 0 4.713-.53 6.712-1.604a28.69 28.69 0 0 0 5.632-3.943zm0 6.508c-.637.473-1.492 1.13-2.566 1.978-1.067.848-2.106 1.527-3.109 2.028-1.385.721-2.727 1.28-4.02 1.668-1.294.389-3.11.58-5.449.58-1.915 0-3.738-.36-5.462-1.082a14 14 0 0 1-4.543-3.045c-1.251-1.28-2.254-2.855-3.003-4.734-.757-1.873-1.131-3.859-1.131-5.943 0-3.23.685-5.971 2.05-8.24 1.356-2.268 3.511-4.062 6.458-5.398 2.614-1.194 5.702-2.028 9.263-2.48 3.562-.46 7.399-.806 11.511-1.025v-1.505c0-1.83-.275-3.314-.834-4.437-.558-1.13-1.335-2-2.338-2.608-.997-.643-2.22-1.067-3.668-1.272a30.76 30.76 0 0 0-4.466-.318c-1.802 0-3.928.276-6.38.82-2.445.537-4.89 1.328-7.342 2.353h-.46v-7.964c1.45-.416 3.52-.876 6.219-1.377 2.699-.502 5.363-.75 8.006-.75 3.2 0 5.9.248 8.09.75 2.198.501 4.177 1.406 5.929 2.713 1.696 1.279 2.96 2.932 3.795 4.96.833 2.028 1.25 4.509 1.25 7.427v31.868h-7.8v-4.967zM545.445 499.28l-11.68 27.325h-6.092l7.342-27.325h10.43zM605.133 512.459c-3.647 0-6.826-.474-9.554-1.435-2.72-.96-5.045-2.388-6.967-4.275-2.17-2.17-3.696-4.763-4.586-7.78-.89-3.017-1.336-6.734-1.336-11.157V449.06h8.26v38.75c0 2.863.185 5.28.545 7.236.36 1.958 1.067 3.717 2.127 5.279 1.11 1.668 2.621 2.932 4.522 3.794 1.908.863 4.233 1.294 6.989 1.294 2.586 0 4.882-.431 6.882-1.294 2-.862 3.561-2.126 4.67-3.794a14.711 14.711 0 0 0 2.107-5.257c.374-1.922.565-4.268.565-7.052V449.06h8.26v38.75c0 4.311-.438 8.007-1.314 11.095-.876 3.088-2.417 5.702-4.614 7.843a19.07 19.07 0 0 1-6.904 4.296c-2.622.947-5.844 1.414-9.652 1.414zM656.772 512.296c-4.508 0-8.338-.466-11.496-1.4-3.152-.932-6.12-2.077-8.904-3.44V497.11h.587a29.732 29.732 0 0 0 9.256 5.942c3.449 1.407 6.777 2.106 9.97 2.106 4.558 0 8.007-.947 10.346-2.855 2.339-1.9 3.505-4.416 3.505-7.525 0-2.48-.615-4.494-1.838-6.049-1.222-1.561-3.172-2.713-5.836-3.462a93.182 93.182 0 0 0-5.258-1.378c-1.582-.36-3.575-.848-5.963-1.463-2.142-.55-4.064-1.265-5.76-2.127a16.187 16.187 0 0 1-4.5-3.377c-1.28-1.364-2.276-2.968-2.982-4.82-.714-1.844-1.067-3.978-1.067-6.401 0-5.031 1.964-9.25 5.879-12.656 3.921-3.406 8.931-5.109 15.015-5.109 3.477 0 6.77.346 9.872 1.039 3.095.7 5.97 1.682 8.606 2.96v9.886h-.622c-1.971-1.802-4.508-3.384-7.589-4.734a24.144 24.144 0 0 0-9.723-2.021c-3.837 0-6.939.897-9.299 2.692-2.367 1.795-3.547 4.148-3.547 7.066 0 2.643.7 4.742 2.085 6.303 1.392 1.555 3.405 2.693 6.048 3.42 1.753.474 3.894 1.004 6.423 1.605 2.53.6 4.629 1.144 6.303 1.646 4.282 1.307 7.406 3.286 9.384 5.921 1.972 2.643 2.961 5.9 2.961 9.766 0 2.416-.495 4.805-1.484 7.172-.982 2.36-2.367 4.367-4.148 6.006-2 1.81-4.26 3.201-6.776 4.17-2.516.974-5.667 1.462-9.448 1.462zM679.752 511.172l20.937-62.111h10.182l20.937 62.111h-8.72l-5.631-17.354h-23.729l-5.631 17.354h-8.345zm35.415-24.406l-9.596-29.275-9.553 29.275h19.15z"/></g><g stroke="#000" stroke-width="2.98"><path d="M702.567 243.059c-27.527-6.917-51.535-7.209-80.541-.122-5.914 23.191 3.355 39.852 3.355 39.852 17.578 9.496 57.533 9.24 75.143-.297 0 0 8.684-17.684 2.043-39.433z" fill="url(#a)"/><path d="M627.661 163.82c-.715-.337-8.443 3.77-10.802 7.52-13.693 21.766-10.927 61.115-10.559 61.875 10.38 21.435 105.298 19.907 112.135 1.093 4.024-11.075 1.556-53.716-6.305-64.713-4.307-6.027-61.686-17.882-84.469-5.775z" fill="url(#b)"/><path d="M627.725 145.602c-1.539.122-15.253 5.327-14.17 8.034.421 1.053 5.436.48 5.581.764.044.087-4.325 4.768-1.531 7.48 6.511 6.317 18.128.038 18.851 1.494 2.647 5.327 16.814 7.874 22.653 5.064 6.474-3.116 8.369-3.329 11.379-3.261 3.336.075 6.645 4.049 13.095 3.261 4.841-.592 5.519-3.31 12.4-1.612 13.786 3.402 16.259-3.874 6.762-9.228-1.013-.571 2.234.622 5.534-2.671.838-.836.255-5.234-10.288-6.736" fill="url(#c)"/><path d="M615.766 120.63c-37.623-37.786 12.69-82.935 45.125-68.749 4.586 2.005 26.228-14.999 45.892 4.131 20.801 20.236 7.793 38.859 5.904 40.093" fill="url(#d)"/><path d="M625.772 83.663c-28.413 24.53-5.807 73.368 35.082 73.86 9.339.113 33.44 2.012 47.33-22.799 10.828-19.342 7.571-41.089-3.579-49.778-.859-.669-7.67 6.825-16.235 7.493-11.131.868-19.48-6.858-19.489-6.841-3.562 6.218-19.153 8.776-25.413 7.592-11.435-2.163-17.002-9.654-17.696-9.527z" fill="url(#e)"/><path d="M654.758 119.319c3.667-5.786 14.802-4.144 18.304-.752M642.311 136.859c2.228-3.616 4.774-5.985 8.242-7.172M647.09 133.15c10.331 9.686 28.417 5.423 32.669.411M677.808 128.726c2.063 2.454 2.773 4.663 1.951 9.445" fill="none"/><ellipse cx="644.177" cy="104.869" rx="4.448" ry="5.815"/><ellipse cx="682.251" cy="104.869" rx="4.448" ry="5.815"/></g><path d="M671.292 649.576c-.256-.383.125-.914.242-1.36.274-1.048.653-2.068.929-3.117 1.203-4.567 1.846-9.203 2.026-13.94 1.576-41.586-59.099-57.68-80.243-20.117-5.298 9.414-7.551 20.49-5.808 31.111.931 5.669 2.918 11.217 6.049 16.051 7.682 11.862 22.714 19.769 36.915 18.254 5.773-.616 6.174-.887 11.555-2.133 1.422-.329 5.045-1.634 6.943-.998 1.329.446 1.616 1.834 1.56 3.068-.069 1.531-.429 2.16-1.022 3.626-.589 1.455-1.576 3.035-.387 4.493.265.326.582.613.927.852.46.319.95.608 1.472.813 2.277.893 3.952-.53 5.747-1.732.703-.471 1.302-1.172 2.117-1.401.343-.097.638.327.92.546a32.623 32.623 0 0 1 2.101 1.796c2.382 2.194 4.76 4.394 7.075 6.658a2167.986 2167.986 0 0 1 42.125 42.302c3.602 3.719 7.023 7.612 10.652 11.306.495.503 2.128.642 2.556.66 4.098.179 5.973.067 10.087-.497.986-.135 3.433-.407 3.882-1.64.418-1.15.426-3.918.416-4.502-.053-2.903-.488-14.215-1.914-15.322-1.634-1.269-5.358-.46-6.086-2.044-1.405-3.059.428-7.054-1.178-8.421-1.667-1.419-7.049-1.7-7.975-2.95-1.262-1.7-.353-4.339-1.938-5.897-2.573-2.531-5.227-.578-8.224-2.163-1.286-.68-.601-7.414-1.977-8.364-2.573-1.778-7.23.661-9.477-1.779-1.233-1.34-.576-8.045-.937-9.433-.433-1.666-7.285-4.111-7.625-5.029-.776-2.095-.319-2.956-.83-5.087-.138-.576-.606-1.021-.965-1.492-2.153-2.825-8.532-9.859-9.385-10.805-.857-.951 6.341-4.718 2.415-8.642-3.509-3.506-7.582 2.96-8.58 1.869-2.282-2.495-4.16-4.54-4.16-4.54zm-52.077-41.351c6.882 0 12.469 5.405 12.469 12.062 0 6.657-5.587 12.062-12.469 12.062-6.883 0-12.47-5.405-12.47-12.062 0-6.657 5.587-12.062 12.47-12.062z" fill="url(#f)" stroke="#000" stroke-width="2.17"/><path d="M648.521 661.692l83.023 83.898M655.862 655.402l83.694 81.774" fill="none" stroke="#000" stroke-width="1.86"/><path d="M645.26 641.584l-11.066-5.854 4.946 11.595 6.12-5.74zm-15.171-7.457l2.993-2.808 25.428 12.897-2.9 2.721-7.476-3.996-7.732 7.252 3.376 7.84-2.714 2.546-10.975-26.452z" fill="none"/><path d="M645.26 641.584l-11.066-5.854 4.946 11.595 6.12-5.74zm-15.171-7.457l2.993-2.808 25.428 12.897-2.9 2.721-7.476-3.996-7.732 7.252 3.376 7.84-2.714 2.546-10.975-26.452z" fill="#fff" fill-rule="nonzero"/><path d="M633.164 629.152l.156.012.154.022.153.035.148.044.146.055.143.065 25.427 12.898.136.074.129.083.122.093.117.102.107.109.101.117.091.124.084.13.074.136.064.139.052.145.044.148.033.15.022.153.01.153v.154l-.01.153-.023.153-.032.15-.043.148-.053.145-.064.141-.073.135-.085.13-.09.124-.102.115-.109.11-2.901 2.721-.12.104-.126.097-.133.084-.14.077-.144.064-.15.055-.152.044-.156.03-.156.022-.16.01-.158-.003-.158-.014-.156-.025-.155-.036-.151-.05-.147-.059-.144-.069-6.103-3.263-5.488 5.147 2.775 6.443.056.144.046.15.035.152.024.154.014.156.001.156-.01.156-.02.154-.032.152-.043.15-.054.147-.062.143-.076.138-.083.131-.092.125-.103.12-.11.11-2.714 2.546-.117.102-.124.093-.13.085-.136.075-.14.065-.146.055-.149.043-.151.034-.153.022-.155.012-.154-.001-.155-.01-.154-.022-.152-.031-.148-.045-.145-.053-.141-.064-.136-.074-.13-.085-.126-.092-.118-.101-.108-.11-.102-.117-.093-.124-.084-.13-.074-.136-.065-.14-10.975-26.452-.055-.145-.044-.148-.032-.151-.023-.153-.01-.153-.001-.155.012-.154.02-.152.033-.153.043-.148.053-.144.065-.14.072-.137.084-.13.091-.123.103-.117.109-.11 2.993-2.808.118-.103.125-.093.13-.084.136-.076.143-.066.145-.054.15-.044.153-.033.153-.022.156-.01h.156zm-3.075 4.975l10.975 26.452 2.714-2.546-3.376-7.84 7.732-7.252 7.475 3.996 2.901-2.721-25.428-12.897-2.993 2.808zm15.171 7.457l-6.12 5.74-4.946-11.594 11.066 5.854zm-5.343 2.04l1.645-1.543-2.974-1.573 1.33 3.116z"/><g><path d="M936.867 907.247l-222.026.011-.261 276.83h222.287V907.247z" fill="#fff" stroke="#000" stroke-width="3.8"/><path d="M810.189 1079.73c1.069.698 3.282 1.047 6.639 1.047 10.465 0 19.077-2.072 25.836-6.214 10.378-6.366 15.567-17.246 15.567-32.638 0-13.736-4.273-24.07-12.82-31.003-7.326-5.931-17.028-8.896-29.106-8.896-3.009 0-5.047.327-6.116.981-1.068.654-1.602 2.093-1.602 4.317v68.089c0 2.18.534 3.619 1.602 4.317zm-26.98 3.597c4.884-.523 8.067-1.406 9.549-2.649 1.483-1.242 2.224-4.393 2.224-9.451v-59.586c0-4.884-.719-8.023-2.158-9.419-1.439-1.395-4.644-2.267-9.615-2.616v-2.485h36.105c12.165 0 22.456 2.005 30.872 6.017 15.174 7.195 22.762 20.058 22.762 38.59 0 6.672-1.363 13.016-4.088 19.034-2.726 6.017-6.835 11.097-12.33 15.24-3.488 2.616-7.107 4.6-10.857 5.952-6.846 2.529-15.262 3.794-25.247 3.794h-37.217v-2.421z" fill-rule="nonzero"/><path d="M730.333 951.626l24.555-13.309 20.776 16.54 19.872-8.116 22.013 14.28 19.151-11.972 21.542 14.952 18.833-12.199 19.031-6.654 2.177 8.019 17.414-1.541M730.333 918.619l19.163 11.798 18.137-3.832 15.684 7.793 19.565-7.934 11.372-10.022 13.369 15.18 29.335-12.329 24.763 18.803 18.414-14.077 15.562 3.59M735.75 1161.45l22.351 11.4 17.106-23.49 24.391 11.193 18.249-12.042 15.436 25.001 7.561-8.028 30.741-12.609 14.845 12.736 15.571 3.66 13.696-12.676M735.75 1132.95l22.364-10.585 13.865 3.056 21.518 16.856 29.842-10.859 32.062 14.754 5.362-16.553 49.2 9.028 5.734-5.697M735.75 1109.34l30.076-12.242 27.221 16.731 18.831-9.944 19.536 18.768 20.055-27.933 25.464 24.421 20.789-18.832 17.975 9.031M730.341 981.073l21.947-13.226 27.249 9.925 22.576-11.375 13.796 11.639 26.057 5.072 22.947-6.381 11.215-12.632 19.153 19.092 20.416-8.406" fill="none" stroke="#000" stroke-width="2.98"/></g><defs><radialGradient id="a" cx="0" cy="0" r="1" gradientUnits="userSpaceOnUse" gradientTransform="matrix(83.7373 -35.7988 21.1512 49.475 624.524 278.375)"><stop offset="0%" stop-color="#d3799a"/><stop offset="100%" stop-color="#c24774"/></radialGradient><radialGradient id="b" cx="0" cy="0" r="1" gradientUnits="userSpaceOnUse" gradientTransform="matrix(108.908 -63.7564 27.509 88.1131 612.767 229.038)"><stop offset="0%" stop-color="#d3799a"/><stop offset="100%" stop-color="#c24774"/></radialGradient><radialGradient id="c" cx="0" cy="0" r="1" gradientUnits="userSpaceOnUse" gradientTransform="matrix(86.9077 -16.2888 21.952 22.5116 619.213 164.536)"><stop offset="0%" stop-color="#cda3ca"/><stop offset="100%" stop-color="#b87db4"/></radialGradient><radialGradient id="d" cx="0" cy="0" r="1" gradientUnits="userSpaceOnUse" gradientTransform="matrix(110.015 -50.0186 27.7887 69.1271 608.419 104.967)"><stop offset="0%" stop-color="#a75216"/><stop offset="100%" stop-color="#854000"/></radialGradient><radialGradient id="e" cx="0" cy="0" r="1" gradientUnits="userSpaceOnUse" gradientTransform="matrix(99.0673 -50.196 25.0234 69.3723 615.765 142.009)"><stop offset="0%" stop-color="#ffd9b8"/><stop offset="100%" stop-color="#ffcd9e"/></radialGradient><radialGradient id="f" cx="0" cy="0" r="1" gradientUnits="userSpaceOnUse" gradientTransform="matrix(58.4875 22.275 -22.8914 60.106 656.153 628.968)"><stop offset="0%" stop-color="#3ce61a"/><stop offset="100%" stop-color="#aef4a0"/></radialGradient></defs></svg>