<svg viewBox="0 0 956 1200" xmlns="http://www.w3.org/2000/svg" fill-rule="evenodd" clip-rule="evenodd" stroke-linecap="round" stroke-linejoin="round" stroke-miterlimit="1.414"><path d="M844.081 9.52l-833.912.039-.012 1038.55h833.924V9.519z" fill="#fff" stroke="#000" stroke-width="14.24"/><g fill-rule="nonzero"><path d="M111.362 150.74h-9.193l-27.24-53.16v53.16h-7.66V89.093H78.9l24.802 48.813V89.094h7.66v61.645zM149.081 139.356v-12.832c-1.851.162-4.19.388-7.016.678-2.834.29-5.116.7-6.855 1.222-2.07.636-3.78 1.611-5.137 2.919-1.35 1.314-2.028 3.144-2.028 5.49 0 2.65.75 4.65 2.24 6 1.491 1.356 3.668 2.027 6.537 2.027 2.459 0 4.684-.53 6.67-1.59a29.087 29.087 0 0 0 5.59-3.914zm0 6.458c-.636.467-1.484 1.124-2.55 1.965-1.06.848-2.085 1.512-3.081 2.013-1.378.714-2.714 1.265-3.993 1.654-1.286.389-3.088.58-5.405.58a13.951 13.951 0 0 1-9.935-4.099c-1.244-1.272-2.24-2.834-2.982-4.699-.75-1.865-1.117-3.83-1.117-5.9 0-3.201.671-5.929 2.028-8.176 1.35-2.254 3.49-4.042 6.416-5.363 2.594-1.187 5.66-2.007 9.193-2.466a156.04 156.04 0 0 1 11.426-1.01v-1.492c0-1.823-.275-3.292-.826-4.409-.559-1.116-1.329-1.986-2.325-2.586-.99-.636-2.205-1.06-3.64-1.265a31.294 31.294 0 0 0-4.43-.31c-1.795 0-3.907.268-6.338.805-2.424.537-4.855 1.321-7.285 2.339h-.453v-7.907c1.435-.417 3.491-.87 6.17-1.364a43.092 43.092 0 0 1 7.949-.75c3.172 0 5.85.248 8.027.75a15.437 15.437 0 0 1 5.886 2.692c1.682 1.265 2.94 2.911 3.766 4.925.827 2.014 1.244 4.473 1.244 7.37v31.628h-7.745v-4.925zM220.252 150.74v-26.746c0-2.127-.085-4.091-.247-5.9-.17-1.81-.51-3.223-1.04-4.24-.55-1.11-1.335-1.922-2.36-2.445-1.017-.523-2.395-.784-4.133-.784-1.604 0-3.321.487-5.158 1.47-1.837.975-3.731 2.388-5.696 4.24.029.473.064 1.03.106 1.674.043.65.064 1.42.064 2.303v30.427h-7.787v-26.745c0-2.127-.078-4.091-.247-5.9-.163-1.81-.509-3.223-1.032-4.24-.558-1.11-1.342-1.922-2.36-2.445-1.025-.523-2.402-.784-4.14-.784-1.69 0-3.456.523-5.3 1.568-1.852 1.053-3.647 2.389-5.385 4.021v34.525h-7.787v-46.248h7.787v5.137c2.042-2.042 4.063-3.625 6.063-4.741 2.007-1.117 4.204-1.675 6.607-1.675 2.734 0 5.151.622 7.264 1.859 2.113 1.243 3.724 3.285 4.826 6.133 2.346-2.622 4.635-4.614 6.875-5.964 2.233-1.357 4.664-2.028 7.286-2.028 1.985 0 3.794.311 5.42.933 1.632.615 3.052 1.618 4.267 2.996 1.244 1.413 2.198 3.166 2.876 5.264.679 2.092 1.018 4.728 1.018 7.907v30.427h-7.787zM259.045 151.82c-7.37 0-13.086-2.077-17.156-6.232-4.078-4.155-6.113-10.055-6.113-17.7 0-7.533 1.979-13.532 5.922-17.991 3.95-4.459 9.108-6.685 15.489-6.685 2.869 0 5.406.41 7.617 1.244 2.205.827 4.141 2.12 5.794 3.886 1.654 1.767 2.926 3.929 3.81 6.48.882 2.558 1.328 5.681 1.328 9.377v4.225h-32.053c0 5.385 1.357 9.497 4.063 12.338 2.707 2.848 6.445 4.268 11.222 4.268 1.71 0 3.384-.198 5.03-.58 1.64-.388 3.124-.883 4.445-1.49 1.414-.636 2.6-1.251 3.562-1.845.968-.593 1.766-1.152 2.402-1.674h.46v8.486l-3.4 1.343c-1.349.537-2.564.96-3.646 1.264-1.512.417-2.89.735-4.12.954-1.222.22-2.776.332-4.656.332zm9.109-29.36c-.05-2.098-.304-3.9-.742-5.42-.446-1.519-1.074-2.805-1.908-3.85-.912-1.16-2.078-2.042-3.498-2.65-1.42-.608-3.18-.912-5.278-.912-2.07 0-3.83.311-5.279.933-1.448.622-2.763 1.526-3.95 2.713a12.643 12.643 0 0 0-2.65 4.035c-.607 1.477-.996 3.194-1.166 5.151h24.47zM297.923 116.292h-9.892v-11.8h9.892v11.8zm0 34.447h-9.892v-11.8h9.892v11.8zM340.822 150.74V89.093h41.69v11.758H356.22v10.804h24.223v11.758H356.22v15.567h26.294v11.758h-41.69zM435.672 104.244l-16.684 46.495h-15.814l-16.563-46.495h15.235l9.525 30.766 9.398-30.766h14.903zM465.031 151.983c-8.776 0-15.51-2.099-20.188-6.296-4.677-4.19-7.016-10.168-7.016-17.927 0-7.589 2.183-13.645 6.543-18.174 4.36-4.53 10.458-6.79 18.301-6.79 7.123 0 12.472 1.921 16.062 5.758 3.59 3.837 5.384 9.328 5.384 16.479v5.214h-31.755c.134 2.156.593 3.957 1.364 5.406.77 1.449 1.794 2.6 3.066 3.455 1.237.855 2.693 1.47 4.346 1.845 1.654.367 3.462.558 5.42.558 1.689 0 3.342-.19 4.974-.558 1.626-.375 3.117-.862 4.466-1.47a29.864 29.864 0 0 0 3.293-1.703 33.118 33.118 0 0 0 2.466-1.611h1.534v11.963c-1.188.473-2.276.904-3.25 1.307-.983.396-2.326.806-4.043 1.223-1.568.41-3.194.734-4.861.968-1.668.24-3.703.353-6.106.353zm4.798-30.47c-.077-3.066-.791-5.398-2.126-7.002-1.343-1.597-3.392-2.395-6.148-2.395-2.82 0-5.017.84-6.607 2.522-1.59 1.682-2.466 3.971-2.629 6.876h17.51z"/></g><path d="M106.188 647.696c0 2.677-.476 5.21-1.428 7.597-.953 2.388-2.271 4.424-3.954 6.107-2.126 2.098-4.624 3.685-7.494 4.762-2.871 1.076-6.501 1.615-10.889 1.615h-6.956v22.979h-8.198v-61.65h15.485c3.643 0 6.748.303 9.316.911 2.567.607 4.83 1.587 6.79 2.939 2.291 1.574 4.085 3.568 5.382 5.983 1.297 2.415 1.946 5.334 1.946 8.757zm-8.529.207c0-2.125-.366-3.975-1.097-5.548-.732-1.573-1.843-2.857-3.333-3.851-1.298-.855-2.809-1.463-4.534-1.821-1.725-.359-3.871-.539-6.438-.539h-6.79v24.635h5.589c3.312 0 5.99-.269 8.032-.807 2.043-.538 3.741-1.497 5.093-2.877 1.215-1.243 2.098-2.595 2.65-4.058.552-1.463.828-3.174.828-5.134zM149.413 690.756h-7.784v-5.135c-2.401 2.098-4.678 3.692-6.831 4.783-2.153 1.09-4.555 1.635-7.204 1.635-2.015 0-3.913-.331-5.693-.994-1.781-.662-3.333-1.711-4.658-3.146-1.325-1.436-2.353-3.244-3.085-5.424-.731-2.181-1.097-4.831-1.097-7.95v-30.017h7.784v26.332c0 2.457.09 4.493.269 6.107.179 1.615.587 3.03 1.221 4.244.635 1.187 1.498 2.057 2.588 2.609s2.657.828 4.699.828c1.905 0 3.934-.538 6.087-1.615a27.739 27.739 0 0 0 5.92-3.975v-34.53h7.784v46.248zM191.438 667.487c0-5.521-.842-9.709-2.526-12.566-1.684-2.857-4.389-4.285-8.115-4.285-2.125 0-4.271.496-6.438 1.49a24.97 24.97 0 0 0-5.9 3.768v26.498c1.96.966 3.699 1.649 5.217 2.049 1.518.401 3.188.601 5.009.601 3.975 0 7.094-1.408 9.358-4.223 2.263-2.816 3.395-7.26 3.395-13.332zm8.032-.621c0 7.563-1.836 13.649-5.507 18.259-3.671 4.609-8.267 6.914-13.787 6.914-2.512 0-4.658-.311-6.438-.932a28.247 28.247 0 0 1-5.279-2.504l-.497 2.153h-7.287v-64.424h7.784v23.02a29.205 29.205 0 0 1 6.376-4.389c2.291-1.159 4.886-1.739 7.784-1.739 5.217 0 9.329 2.091 12.338 6.273 3.009 4.182 4.513 9.971 4.513 17.369zM207.709 626.332h7.784v64.424h-7.784zM234.953 690.756h-7.784v-46.248h7.784v46.248zm.538-53.991h-8.86v-8.073h8.86v8.073zM264.763 691.791c-3.174 0-6.086-.49-8.736-1.47-2.65-.98-4.927-2.464-6.832-4.451-1.904-1.987-3.381-4.492-4.43-7.515-1.049-3.022-1.573-6.576-1.573-10.661 0-4.058.545-7.563 1.635-10.517 1.091-2.953 2.547-5.437 4.368-7.452 1.822-2.015 4.092-3.568 6.811-4.658 2.719-1.09 5.638-1.636 8.757-1.636 2.54 0 4.989.359 7.349 1.077 2.36.718 4.465 1.546 6.314 2.484v8.736h-.455a29.332 29.332 0 0 0-2.132-1.615c-.87-.607-1.926-1.228-3.168-1.863-1.076-.552-2.346-1.035-3.809-1.449-1.463-.414-2.871-.621-4.223-.621-4.03 0-7.266 1.525-9.709 4.575-2.443 3.05-3.664 7.363-3.664 12.939 0 5.465 1.18 9.723 3.54 12.773 2.36 3.05 5.637 4.575 9.833 4.575 2.539 0 4.955-.525 7.246-1.573 2.291-1.049 4.319-2.402 6.086-4.058h.455v8.736c-.773.359-1.739.794-2.898 1.304-1.159.511-2.208.89-3.147 1.139a41.911 41.911 0 0 1-3.56.89c-1.049.207-2.402.311-4.058.311zM357.548 690.756h-10.641l-22.482-28.693-3.602 4.057v24.636h-8.198v-61.65h8.198v28.361l25.256-28.361h9.979l-25.505 27.533 26.995 34.117z" fill-rule="nonzero"/><path d="M379.575 691.832c-7.37 0-13.091-2.077-17.162-6.231s-6.107-10.054-6.107-17.7c0-7.536 1.974-13.532 5.921-17.99 3.947-4.458 9.109-6.687 15.485-6.687 2.87 0 5.41.414 7.618 1.243 2.208.828 4.14 2.125 5.796 3.891 1.656 1.767 2.926 3.927 3.809 6.48.884 2.553 1.325 5.679 1.325 9.378v4.223h-32.046c0 5.383 1.353 9.495 4.058 12.338s6.445 4.265 11.22 4.265c1.711 0 3.388-.193 5.03-.58 1.643-.386 3.126-.883 4.451-1.49 1.408-.635 2.595-1.249 3.561-1.843.966-.593 1.767-1.152 2.401-1.677h.456v8.488c-.911.359-2.043.807-3.395 1.346-1.353.538-2.567.959-3.644 1.262a48.052 48.052 0 0 1-4.119.953c-1.229.221-2.781.331-4.658.331zm9.109-29.355c-.056-2.098-.304-3.906-.746-5.424-.441-1.518-1.076-2.801-1.904-3.85-.911-1.16-2.077-2.043-3.499-2.65-1.421-.607-3.181-.911-5.279-.911-2.07 0-3.83.31-5.279.932-1.449.621-2.767 1.525-3.954 2.711-1.159 1.215-2.042 2.561-2.65 4.037-.607 1.477-.993 3.195-1.159 5.155h24.47zM440.479 644.508l-24.883 63.306h-8.322l8.28-19.294-16.809-44.012h8.404l12.628 34.241 12.587-34.241h8.115zM460.684 656.308h-9.895v-11.8h9.895v11.8zm0 34.448h-9.895v-11.8h9.895v11.8z" fill-rule="nonzero"/><g fill-rule="nonzero"><path d="M67.27 886.348v-61.645h38.545v7.285h-30.35v16.895h28.28v7.286h-28.28v22.894h30.35v7.285H67.27zM150.155 886.348h-9.56l-11.221-17.467-11.553 17.467h-8.819l16.061-22.936-15.898-23.312h9.567l11.136 17.312 11.426-17.312h8.861l-15.983 22.774 15.983 23.474zM194.997 862.005c0 7.702-1.844 13.836-5.525 18.408-3.689 4.564-8.345 6.847-13.977 6.847-2.29 0-4.318-.262-6.084-.784-1.767-.523-3.576-1.343-5.427-2.445v19.375h-7.78V840.1h7.78v4.848a28.708 28.708 0 0 1 6.437-4.367c2.36-1.173 4.94-1.76 7.724-1.76 5.3 0 9.433 2.099 12.4 6.29 2.969 4.196 4.452 9.828 4.452 16.894zm-8.034.87c0-5.272-.84-9.363-2.522-12.274-1.69-2.912-4.417-4.367-8.197-4.367-2.212 0-4.346.487-6.402 1.47-2.056.975-4.007 2.24-5.858 3.787v26.208c2.042.99 3.787 1.668 5.236 2.028 1.449.36 3.116.537 4.989.537 4.035 0 7.165-1.476 9.405-4.43 2.233-2.954 3.35-7.271 3.35-12.96zM211.016 886.348h-7.78V840.1h7.78v46.248zm.545-53.985H202.7v-8.077h8.86v8.077zM246.955 848.467h-.41a8.976 8.976 0 0 0-1.844-.311 36.628 36.628 0 0 0-2.339-.064c-2.099 0-4.183.46-6.254 1.37-2.07.912-4.027 2.262-5.879 4.057v32.83h-7.78V840.1h7.78v6.876c2.848-2.509 5.321-4.283 7.434-5.321 2.113-1.032 4.162-1.555 6.148-1.555.798 0 1.399.021 1.801.064.403.042.848.106 1.343.19v8.113zM277.39 874.965v-12.832c-1.852.162-4.191.388-7.018.678-2.833.29-5.116.7-6.854 1.222-2.07.636-3.78 1.611-5.13 2.919-1.357 1.314-2.035 3.144-2.035 5.49 0 2.65.75 4.65 2.24 6 1.491 1.356 3.667 2.027 6.543 2.027 2.452 0 4.678-.53 6.664-1.59a29.087 29.087 0 0 0 5.59-3.914zm0 6.458a90.756 90.756 0 0 0-2.545 1.965c-1.067.848-2.091 1.512-3.088 2.013-1.378.714-2.713 1.265-3.992 1.654-1.286.389-3.088.58-5.406.58-1.9 0-3.71-.361-5.427-1.075a14.016 14.016 0 0 1-4.508-3.024c-1.243-1.272-2.24-2.834-2.982-4.699-.749-1.865-1.116-3.83-1.116-5.9 0-3.201.671-5.929 2.028-8.176 1.35-2.254 3.49-4.042 6.416-5.363 2.593-1.187 5.66-2.007 9.193-2.466a156.04 156.04 0 0 1 11.426-1.01v-1.492c0-1.823-.275-3.292-.827-4.409-.55-1.116-1.328-1.986-2.317-2.586-.997-.636-2.212-1.06-3.647-1.265a31.294 31.294 0 0 0-4.43-.31c-1.795 0-3.908.268-6.331.805-2.431.537-4.862 1.321-7.293 2.339h-.452v-7.907c1.435-.417 3.49-.87 6.169-1.364a43.092 43.092 0 0 1 7.95-.75c3.172 0 5.85.248 8.034.75 2.176.494 4.14 1.392 5.879 2.692 1.681 1.265 2.94 2.911 3.766 4.925.827 2.014 1.244 4.473 1.244 7.37v31.628h-7.745v-4.925zM310.056 887.26c-4.254 0-7.56-1.208-9.935-3.618-2.374-2.417-3.561-6.232-3.561-11.454v-25.63h-5.258V840.1h5.258v-13.284h7.78V840.1h14.33v6.459h-14.33v21.99c0 2.346.042 4.155.127 5.42a9.257 9.257 0 0 0 .954 3.56c.466.969 1.23 1.697 2.275 2.177 1.053.48 2.473.72 4.268.72 1.265 0 2.494-.183 3.681-.557 1.188-.368 2.043-.679 2.565-.933h.46v7.002c-1.463.41-2.947.735-4.452.969-1.505.24-2.89.353-4.162.353zM332.371 886.348h-7.78V840.1h7.78v46.248zm.537-53.985h-8.854v-8.077h8.854v8.077zM381.848 863.249c0 7.78-1.872 13.793-5.631 18.033-3.752 4.233-8.748 6.352-14.988 6.352-6.43 0-11.49-2.19-15.17-6.564-3.69-4.374-5.527-10.317-5.527-17.821 0-7.73 1.894-13.737 5.689-18.012 3.794-4.282 8.797-6.416 15.008-6.416 6.24 0 11.236 2.134 14.988 6.395 3.759 4.268 5.631 10.274 5.631 18.033zm-8.034 0c0-5.992-1.088-10.444-3.264-13.355-2.184-2.911-5.286-4.367-9.32-4.367-4.057 0-7.18 1.456-9.378 4.367-2.19 2.911-3.292 7.363-3.292 13.355 0 5.794 1.102 10.19 3.292 13.185 2.198 2.997 5.321 4.495 9.377 4.495 4.007 0 7.102-1.47 9.3-4.41 2.19-2.94 3.285-7.363 3.285-13.27zM426.196 886.348h-7.787V860.02c0-2.127-.106-4.106-.311-5.943-.205-1.837-.6-3.307-1.18-4.41-.636-1.158-1.52-2.02-2.65-2.585-1.13-.566-2.678-.848-4.635-.848-1.936 0-3.93.515-5.985 1.547-2.057 1.039-4.063 2.381-6.02 4.042v34.525h-7.788V840.1h7.787v5.137c2.318-2.07 4.607-3.66 6.869-4.762a16.167 16.167 0 0 1 7.165-1.654c4.55 0 8.112 1.498 10.684 4.494 2.565 2.99 3.85 7.335 3.85 13.016v30.017zM451.45 851.9h-9.9v-11.8h9.9v11.8zm0 34.448h-9.9v-11.8h9.9v11.8zM183.07 971.142h-38.045v-8.649a724.616 724.616 0 0 0 7.738-7.454 164.864 164.864 0 0 0 7.123-7.413c4.692-5.158 7.892-9.292 9.603-12.4 1.717-3.103 2.572-6.311 2.572-9.625 0-1.71-.269-3.215-.806-4.515-.544-1.293-1.279-2.375-2.219-3.23a9.68 9.68 0 0 0-3.356-1.858c-1.265-.417-2.664-.622-4.176-.622-1.463 0-2.947.184-4.452.558a33.687 33.687 0 0 0-4.332 1.385 23.271 23.271 0 0 0-3.349 1.696c-1.081.664-1.95 1.23-2.607 1.703h-.46v-8.783c1.71-.855 4.092-1.689 7.144-2.501 3.053-.813 5.943-1.223 8.678-1.223 5.737 0 10.238 1.526 13.496 4.579 3.257 3.045 4.883 7.18 4.883 12.394 0 2.403-.283 4.628-.848 6.67a24.633 24.633 0 0 1-2.34 5.675 39.543 39.543 0 0 1-3.688 5.335 103.183 103.183 0 0 1-4.55 5.222 189.172 189.172 0 0 1-8.678 8.776 748.86 748.86 0 0 1-7.638 7.2h30.307v7.08zM229.65 940.299c0 11.065-1.604 19.191-4.82 24.364-3.221 5.18-8.182 7.766-14.888 7.766-6.79 0-11.772-2.636-14.945-7.908-3.172-5.27-4.762-13.32-4.762-24.138 0-11.122 1.61-19.262 4.826-24.406 3.215-5.151 8.176-7.724 14.881-7.724 6.791 0 11.773 2.664 14.945 7.992 3.18 5.328 4.763 13.341 4.763 24.054zm-10.6 18.796c.8-2.042 1.372-4.622 1.697-7.738.332-3.123.501-6.805.501-11.058 0-4.226-.17-7.893-.501-11.017-.325-3.116-.912-5.709-1.739-7.78-.826-2.098-1.964-3.695-3.413-4.783-1.448-1.088-3.335-1.633-5.653-1.633-2.289 0-4.176.545-5.653 1.633-1.476 1.088-2.642 2.713-3.497 4.868-.827 2.099-1.392 4.749-1.696 7.95-.304 3.2-.46 6.812-.46 10.846 0 4.304.135 7.907.396 10.805.262 2.897.834 5.49 1.717 7.787.806 2.12 1.943 3.759 3.42 4.903 1.477 1.145 3.4 1.718 5.773 1.718 2.29 0 4.177-.545 5.653-1.633 1.477-1.095 2.629-2.713 3.456-4.868zM272.506 971.142h-30.06v-6.288h11.18V923.53h-11.18v-5.632c4.22 0 7.336-.6 9.335-1.802 2-1.201 3.123-3.47 3.378-6.812h6.416v55.569h10.931v6.288zM313.822 934.836c0-4.197-.381-7.61-1.159-10.253-.77-2.635-1.837-4.67-3.186-6.105-1.216-1.321-2.445-2.233-3.682-2.734-1.244-.495-2.614-.742-4.105-.742-3.392 0-6.098 1.215-8.112 3.646-2.014 2.424-3.025 5.942-3.025 10.557 0 2.593.332 4.734.997 6.416.664 1.682 1.738 3.13 3.229 4.345a8.364 8.364 0 0 0 3.561 1.718c1.322.29 2.75.438 4.261.438 1.767 0 3.675-.311 5.717-.933 2.042-.622 3.823-1.442 5.342-2.466.028-.41.063-.954.099-1.632.042-.679.063-1.428.063-2.255zm-31.67-5.3c0-3.179.516-6.076 1.554-8.698 1.032-2.621 2.445-4.882 4.24-6.79 1.71-1.823 3.802-3.244 6.275-4.261 2.466-1.025 4.974-1.534 7.511-1.534 2.848 0 5.42.474 7.723 1.428a17.096 17.096 0 0 1 5.985 4.12c2.127 2.26 3.774 5.228 4.947 8.903 1.173 3.667 1.76 8.31 1.76 13.913 0 5.102-.573 9.942-1.718 14.507-1.145 4.572-2.84 8.36-5.073 11.37-2.375 3.2-5.222 5.645-8.55 7.327-3.329 1.682-7.434 2.523-12.317 2.523-1.102 0-2.275-.064-3.519-.184a17.929 17.929 0 0 1-3.476-.685v-7.907h.41c.692.388 1.766.756 3.229 1.116 1.463.36 2.953.537 4.473.537 5.412 0 9.66-1.78 12.754-5.335 3.088-3.561 4.84-8.656 5.257-15.284-2.211 1.49-4.31 2.586-6.317 3.272-2 .692-4.169 1.038-6.515 1.038-2.296 0-4.38-.247-6.253-.749-1.88-.494-3.767-1.462-5.675-2.897-2.204-1.682-3.879-3.816-5.01-6.395-1.13-2.579-1.695-5.695-1.695-9.334zM329.39 940.426h23.353v7.497h-23.354zM395.889 971.142h-30.06v-6.288h11.18V923.53h-11.18v-5.632c4.219 0 7.335-.6 9.335-1.802 2-1.201 3.123-3.47 3.37-6.812h6.424v55.569h10.93v6.288zM442.172 971.142h-30.06v-6.288h11.18V923.53h-11.18v-5.632c4.226 0 7.343-.6 9.342-1.802 2-1.201 3.124-3.47 3.37-6.812h6.417v55.569h10.931v6.288zM452.772 940.426h23.353v7.497h-23.353zM522.706 940.299c0 11.065-1.611 19.191-4.827 24.364-3.215 5.18-8.175 7.766-14.88 7.766-6.792 0-11.773-2.636-14.946-7.908-3.18-5.27-4.762-13.32-4.762-24.138 0-11.122 1.604-19.262 4.819-24.406 3.215-5.151 8.182-7.724 14.888-7.724 6.79 0 11.772 2.664 14.945 7.992 3.173 5.328 4.763 13.341 4.763 24.054zm-10.6 18.796c.799-2.042 1.364-4.622 1.696-7.738.332-3.123.495-6.805.495-11.058 0-4.226-.163-7.893-.495-11.017-.332-3.116-.911-5.709-1.738-7.78-.827-2.098-1.964-3.695-3.413-4.783-1.456-1.088-3.335-1.633-5.653-1.633-2.29 0-4.176.545-5.653 1.633-1.477 1.088-2.643 2.713-3.498 4.868-.826 2.099-1.392 4.749-1.696 7.95-.303 3.2-.459 6.812-.459 10.846 0 4.304.134 7.907.396 10.805.261 2.897.834 5.49 1.717 7.787.798 2.12 1.936 3.759 3.413 4.903 1.477 1.145 3.406 1.718 5.78 1.718 2.29 0 4.176-.545 5.653-1.633 1.477-1.095 2.629-2.713 3.455-4.868zM570.318 949.944h-7.328v21.198h-7.95v-21.198H527.8v-8.691l27.573-31.756h7.617v33.826h7.328v6.62zm-15.278-6.621v-24.096l-20.781 24.096h20.781z"/></g><g fill-rule="nonzero"><path d="M103.307 340.32H67.312v-62.105h8.26v54.763h27.735v7.341zM147.52 317.05c0 7.837-1.887 13.893-5.667 18.16-3.788 4.268-8.819 6.402-15.1 6.402-6.48 0-11.575-2.204-15.292-6.606-3.71-4.41-5.568-10.395-5.568-17.956 0-7.787 1.915-13.835 5.738-18.146 3.822-4.31 8.86-6.465 15.121-6.465 6.282 0 11.313 2.148 15.1 6.444 3.781 4.296 5.668 10.352 5.668 18.167zm-8.091 0c0-6.034-1.095-10.521-3.293-13.454-2.197-2.932-5.328-4.402-9.384-4.402-4.091 0-7.236 1.47-9.447 4.402-2.212 2.933-3.314 7.42-3.314 13.454 0 5.837 1.102 10.268 3.314 13.285 2.211 3.017 5.356 4.522 9.447 4.522 4.028 0 7.151-1.484 9.363-4.444 2.212-2.961 3.314-7.413 3.314-13.363zM174.096 341.365c-3.201 0-6.134-.495-8.805-1.484-2.67-.982-4.96-2.48-6.882-4.48-1.915-2.007-3.406-4.53-4.459-7.575-1.06-3.038-1.59-6.62-1.59-10.74 0-4.085.551-7.618 1.647-10.592 1.102-2.975 2.565-5.477 4.402-7.505 1.837-2.035 4.126-3.596 6.861-4.699 2.742-1.095 5.681-1.646 8.826-1.646 2.558 0 5.024.36 7.398 1.088 2.381.72 4.501 1.555 6.367 2.501v8.798h-.46a32.613 32.613 0 0 0-2.148-1.625c-.876-.608-1.943-1.237-3.194-1.873-1.08-.558-2.36-1.046-3.837-1.463-1.477-.417-2.89-.621-4.254-.621-4.063 0-7.32 1.533-9.78 4.607-2.465 3.073-3.695 7.412-3.695 13.03 0 5.511 1.194 9.8 3.569 12.867 2.374 3.074 5.68 4.614 9.906 4.614 2.558 0 4.99-.53 7.3-1.59a22.621 22.621 0 0 0 6.133-4.084h.46v8.798c-.785.367-1.753.805-2.926 1.314-1.166.516-2.219.897-3.165 1.152a43.5 43.5 0 0 1-3.59.897c-1.053.205-2.417.311-4.084.311zM221.015 328.85v-12.93c-1.858.17-4.218.396-7.066.692-2.855.29-5.151.7-6.904 1.23-2.084.636-3.808 1.618-5.172 2.94-1.364 1.32-2.042 3.158-2.042 5.525 0 2.671.749 4.685 2.247 6.049 1.505 1.364 3.702 2.042 6.592 2.042 2.474 0 4.714-.537 6.713-1.604a29.3 29.3 0 0 0 5.632-3.943zm0 6.509c-.636.473-1.49 1.13-2.565 1.978-1.067.848-2.106 1.527-3.102 2.028-1.392.721-2.735 1.28-4.028 1.668-1.293.389-3.109.58-5.44.58-1.923 0-3.746-.36-5.47-1.082a14 14 0 0 1-4.543-3.045c-1.251-1.28-2.255-2.855-3.004-4.735a15.896 15.896 0 0 1-1.123-5.942c0-3.23.678-5.971 2.042-8.24 1.364-2.268 3.519-4.07 6.466-5.398 2.614-1.201 5.695-2.028 9.256-2.487 3.562-.46 7.399-.799 11.511-1.018v-1.505c0-1.837-.275-3.314-.834-4.437-.55-1.131-1.335-2-2.332-2.608-1.003-.643-2.225-1.067-3.674-1.272a30.663 30.663 0 0 0-4.459-.318c-1.809 0-3.936.276-6.38.813a42.59 42.59 0 0 0-7.342 2.36h-.46v-7.97c1.442-.418 3.52-.87 6.212-1.372 2.699-.501 5.37-.756 8.013-.756 3.194 0 5.893.255 8.09.756 2.198.502 4.17 1.4 5.922 2.707 1.696 1.279 2.96 2.94 3.794 4.967.834 2.028 1.251 4.502 1.251 7.427v31.861h-7.8v-4.96zM253.93 341.238c-4.283 0-7.625-1.215-10.013-3.646-2.389-2.438-3.59-6.282-3.59-11.532v-25.82h-5.293v-6.508h5.293v-13.39h7.843v13.39h14.437v6.508H248.17v22.145c0 2.368.043 4.184.128 5.463a9.277 9.277 0 0 0 .96 3.59c.467.974 1.237 1.702 2.29 2.19 1.06.487 2.487.727 4.296.727 1.28 0 2.516-.183 3.717-.558 1.194-.381 2.056-.692 2.586-.94h.46v7.045a37.638 37.638 0 0 1-4.487.983c-1.52.233-2.912.353-4.19.353zM276.407 340.32h-7.837v-46.588h7.837v46.587zm.544-54.39h-8.925v-8.132h8.925v8.133zM326.252 317.05c0 7.837-1.887 13.893-5.667 18.16-3.788 4.268-8.819 6.402-15.1 6.402-6.48 0-11.575-2.204-15.292-6.606-3.71-4.41-5.568-10.395-5.568-17.956 0-7.787 1.915-13.835 5.738-18.146 3.822-4.31 8.86-6.465 15.121-6.465 6.282 0 11.313 2.148 15.1 6.444 3.781 4.296 5.668 10.352 5.668 18.167zm-8.091 0c0-6.034-1.095-10.521-3.293-13.454-2.197-2.932-5.328-4.402-9.384-4.402-4.091 0-7.236 1.47-9.447 4.402-2.212 2.933-3.321 7.42-3.321 13.454 0 5.837 1.109 10.268 3.32 13.285 2.212 3.017 5.357 4.522 9.448 4.522 4.028 0 7.151-1.484 9.363-4.444 2.212-2.961 3.314-7.413 3.314-13.363zM370.924 340.32h-7.836v-26.527c0-2.141-.106-4.134-.318-5.985-.205-1.852-.6-3.328-1.187-4.445-.636-1.166-1.527-2.035-2.671-2.607-1.138-.566-2.693-.855-4.671-.855-1.943 0-3.957.523-6.028 1.568-2.07 1.04-4.09 2.396-6.07 4.064v34.786h-7.836v-46.587h7.837v5.172c2.338-2.084 4.642-3.688 6.924-4.797a16.294 16.294 0 0 1 7.215-1.668c4.593 0 8.176 1.505 10.762 4.522 2.586 3.018 3.88 7.391 3.88 13.122v30.236zM396.37 305.617h-9.971v-11.885h9.97v11.885zm0 34.702h-9.971v-11.885h9.97v11.885zM184.56 370.98h-28.9v17.517h27.692v7.341H155.66v29.904h-8.26v-62.104h37.16v7.341zM227.693 402.473c0 7.837-1.894 13.893-5.675 18.16-3.78 4.268-8.811 6.402-15.1 6.402-6.48 0-11.574-2.197-15.284-6.606-3.717-4.41-5.568-10.395-5.568-17.956 0-7.786 1.908-13.835 5.73-18.146 3.823-4.31 8.869-6.465 15.122-6.465 6.289 0 11.32 2.148 15.1 6.444 3.78 4.297 5.675 10.352 5.675 18.167zm-8.091 0c0-6.034-1.102-10.521-3.3-13.454-2.198-2.932-5.32-4.402-9.384-4.402-4.084 0-7.236 1.47-9.447 4.402-2.212 2.933-3.314 7.42-3.314 13.454 0 5.837 1.102 10.268 3.314 13.285 2.211 3.017 5.363 4.522 9.447 4.522 4.035 0 7.158-1.477 9.363-4.444 2.211-2.961 3.32-7.413 3.32-13.363zM260.437 387.578h-.417a9.197 9.197 0 0 0-1.858-.311 37.346 37.346 0 0 0-2.36-.064c-2.113 0-4.212.46-6.296 1.378-2.085.919-4.063 2.283-5.922 4.085v33.076h-7.843v-46.587h7.843v6.925c2.862-2.53 5.357-4.318 7.484-5.363 2.126-1.04 4.197-1.562 6.197-1.562.805 0 1.413.021 1.816.064.402.042.855.106 1.356.183v8.176zM280.625 426.661c-4.282 0-7.624-1.215-10.012-3.646-2.396-2.438-3.59-6.282-3.59-11.532v-25.82h-5.293v-6.508h5.293v-13.39h7.843v13.39h14.43v6.508h-14.43v22.145c0 2.368.043 4.184.128 5.463a9.27 9.27 0 0 0 .954 3.59c.473.974 1.243 1.702 2.296 2.19 1.06.487 2.487.728 4.296.728 1.28 0 2.516-.184 3.71-.559 1.201-.381 2.063-.692 2.586-.94h.46v7.045c-1.47.417-2.968.75-4.48.983-1.52.24-2.912.353-4.19.353zM375.637 425.742h-8.253V372.23l-16.189 36.412h-5.003l-16.06-36.412v53.512h-7.717v-62.104h11.263l15.518 34.582 14.973-34.582h11.468v62.104zM407.838 426.83c-7.42 0-13.186-2.091-17.284-6.274-4.105-4.19-6.155-10.133-6.155-17.835 0-7.59 1.986-13.63 5.964-18.125 3.978-4.487 9.18-6.734 15.602-6.734 2.89 0 5.448.417 7.674 1.25 2.226.834 4.17 2.142 5.837 3.922 1.667 1.781 2.946 3.957 3.837 6.53.89 2.572 1.335 5.716 1.335 9.447v4.254h-32.285c0 5.42 1.364 9.56 4.091 12.43 2.728 2.861 6.494 4.296 11.306 4.296a22.07 22.07 0 0 0 5.067-.587c1.653-.389 3.144-.89 4.48-1.498 1.42-.643 2.614-1.258 3.59-1.858.974-.601 1.78-1.16 2.416-1.69h.46v8.55c-.92.361-2.057.813-3.421 1.358-1.364.544-2.586.968-3.667 1.271a50.128 50.128 0 0 1-4.155.961c-1.237.22-2.798.333-4.692.333zm9.179-29.571c-.057-2.113-.304-3.936-.75-5.47-.444-1.526-1.087-2.819-1.921-3.872-.919-1.173-2.092-2.063-3.526-2.67-1.428-.616-3.201-.92-5.314-.92-2.085 0-3.858.311-5.32.94-1.456.622-2.785 1.534-3.986 2.728-1.166 1.222-2.056 2.579-2.664 4.07-.615 1.484-1.004 3.215-1.173 5.194h24.654zM458.601 414.274v-12.931c-1.865.17-4.218.396-7.066.692-2.855.29-5.151.7-6.904 1.23-2.084.636-3.808 1.618-5.172 2.94-1.364 1.32-2.05 3.165-2.05 5.525 0 2.671.757 4.685 2.255 6.049 1.505 1.364 3.703 2.042 6.593 2.042 2.473 0 4.713-.537 6.713-1.604a29.3 29.3 0 0 0 5.631-3.943zm0 6.508c-.636.473-1.49 1.13-2.565 1.978-1.067.848-2.105 1.527-3.109 2.028-1.385.721-2.727 1.28-4.02 1.668-1.294.389-3.11.58-5.449.58-1.914 0-3.738-.36-5.462-1.082a14 14 0 0 1-4.543-3.045c-1.251-1.28-2.254-2.855-3.003-4.735a15.763 15.763 0 0 1-1.131-5.942c0-3.23.685-5.971 2.05-8.24 1.356-2.268 3.511-4.062 6.465-5.398 2.607-1.201 5.695-2.028 9.256-2.487 3.562-.46 7.399-.799 11.511-1.018v-1.505c0-1.83-.275-3.314-.834-4.437-.558-1.131-1.335-2-2.331-2.608-1.004-.643-2.226-1.067-3.675-1.272a30.76 30.76 0 0 0-4.466-.318c-1.801 0-3.928.276-6.38.82a42.334 42.334 0 0 0-7.342 2.353h-.46v-7.964c1.45-.416 3.52-.876 6.219-1.377 2.7-.502 5.37-.75 8.006-.75 3.2 0 5.9.248 8.098.75 2.19.501 4.169 1.406 5.921 2.706 1.696 1.279 2.96 2.94 3.795 4.967.833 2.028 1.25 4.502 1.25 7.427v31.861h-7.8v-4.96zM513.286 425.742h-7.843v-4.755a75.34 75.34 0 0 1-3.173 2.55c-.883.665-1.929 1.28-3.123 1.83-1.116.53-2.268.94-3.462 1.23-1.195.297-2.587.438-4.17.438-2.536 0-4.875-.522-7.03-1.582-2.155-1.053-3.986-2.6-5.484-4.629-1.533-2.056-2.713-4.593-3.547-7.61-.834-3.017-1.25-6.487-1.25-10.408 0-4.092.53-7.625 1.582-10.614 1.06-2.989 2.516-5.596 4.381-7.822a18.033 18.033 0 0 1 6.155-4.777 17.299 17.299 0 0 1 7.568-1.731c2.339 0 4.367.254 6.09.77 1.725.516 3.548 1.314 5.463 2.403v-20.188h7.843v64.895zm-7.843-11.34v-26.866c-1.943-.94-3.689-1.597-5.236-1.958-1.54-.36-3.215-.544-5.024-.544-4.035 0-7.186 1.512-9.469 4.53-2.282 3.017-3.42 7.37-3.42 13.072 0 5.476.876 9.674 2.629 12.578 1.752 2.904 4.557 4.36 8.423 4.36 2.056 0 4.133-.467 6.218-1.4 2.084-.932 4.042-2.19 5.879-3.773zM544.858 426.83c-7.42 0-13.185-2.091-17.284-6.274-4.105-4.19-6.154-10.133-6.154-17.835 0-7.59 1.985-13.63 5.963-18.125 3.979-4.487 9.18-6.734 15.603-6.734 2.89 0 5.448.417 7.673 1.25 2.226.834 4.17 2.142 5.837 3.922 1.668 1.781 2.947 3.957 3.837 6.53.89 2.572 1.336 5.716 1.336 9.447v4.254h-32.286c0 5.42 1.364 9.56 4.092 12.43 2.72 2.861 6.493 4.296 11.298 4.296 1.724 0 3.42-.198 5.074-.587 1.653-.389 3.144-.89 4.48-1.498 1.42-.643 2.614-1.258 3.59-1.858.975-.601 1.78-1.16 2.416-1.69h.46v8.55c-.92.361-2.057.813-3.42 1.358-1.364.544-2.587.968-3.668 1.271a50.791 50.791 0 0 1-4.155.961c-1.237.22-2.798.333-4.692.333zm9.18-29.571c-.057-2.113-.305-3.936-.75-5.47-.445-1.526-1.088-2.819-1.922-3.872-.919-1.173-2.092-2.063-3.526-2.67-1.427-.616-3.2-.92-5.314-.92-2.084 0-3.858.311-5.32.94-1.456.622-2.785 1.534-3.986 2.728-1.166 1.222-2.056 2.579-2.664 4.07-.615 1.484-1.003 3.215-1.173 5.194h24.654zM200.622 511.172h-8.26v-53.519l-16.182 36.412h-5.01l-16.054-36.412v53.52H147.4V449.06h11.263l15.51 34.582 14.98-34.582h11.47v62.111zM238.617 499.697v-12.931c-1.858.17-4.219.396-7.066.692-2.855.29-5.151.7-6.904 1.23-2.084.636-3.809 1.618-5.172 2.94-1.364 1.32-2.042 3.165-2.042 5.525 0 2.671.749 4.685 2.247 6.049 1.505 1.364 3.702 2.042 6.592 2.042 2.474 0 4.713-.53 6.713-1.604a28.69 28.69 0 0 0 5.632-3.943zm0 6.508c-.636.473-1.491 1.13-2.565 1.978-1.067.848-2.106 1.527-3.102 2.028-1.392.721-2.735 1.28-4.028 1.668-1.293.389-3.109.58-5.44.58-1.923 0-3.746-.36-5.47-1.082a14 14 0 0 1-4.544-3.045c-1.25-1.28-2.254-2.855-3.003-4.734a15.87 15.87 0 0 1-1.123-5.943c0-3.23.678-5.971 2.042-8.24 1.364-2.268 3.519-4.062 6.465-5.398 2.615-1.194 5.696-2.028 9.257-2.48 3.562-.46 7.398-.806 11.511-1.025v-1.505c0-1.83-.276-3.314-.834-4.437-.551-1.13-1.335-2-2.332-2.608-1.003-.643-2.226-1.067-3.674-1.272a30.663 30.663 0 0 0-4.459-.318c-1.809 0-3.936.276-6.38.82-2.453.537-4.897 1.328-7.342 2.353h-.46v-7.964c1.442-.416 3.52-.876 6.211-1.377a43.77 43.77 0 0 1 8.014-.75c3.193 0 5.893.248 8.09.75 2.198.501 4.17 1.406 5.922 2.713 1.696 1.279 2.96 2.932 3.794 4.96.834 2.028 1.251 4.509 1.251 7.427v31.868h-7.801v-4.967zM282.123 473.001h-.416a9.115 9.115 0 0 0-1.859-.31 36.95 36.95 0 0 0-2.353-.065c-2.113 0-4.211.46-6.296 1.378-2.091.919-4.063 2.283-5.928 4.092v33.076h-7.837v-46.594h7.837v6.925c2.868-2.53 5.363-4.317 7.49-5.363 2.127-1.039 4.19-1.562 6.19-1.562.812 0 1.413.021 1.816.064.402.042.855.106 1.356.183v8.176zM324.838 464.578l-25.07 63.772h-8.38l8.337-19.432-16.93-44.34h8.465l12.72 34.497 12.683-34.497h8.175zM330.922 446.27h7.844v64.902h-7.844zM376.309 499.697v-12.931c-1.866.17-4.219.396-7.074.692-2.847.29-5.151.7-6.903 1.23-2.085.636-3.809 1.618-5.173 2.94-1.357 1.32-2.042 3.165-2.042 5.525 0 2.671.75 4.685 2.254 6.049 1.498 1.364 3.696 2.042 6.593 2.042 2.473 0 4.713-.53 6.713-1.604a28.9 28.9 0 0 0 5.632-3.943zm0 6.508a91.466 91.466 0 0 0-2.565 1.978c-1.075.848-2.106 1.527-3.11 2.028-1.392.721-2.734 1.28-4.027 1.668-1.293.389-3.102.58-5.441.58-1.922 0-3.738-.36-5.462-1.082a14.03 14.03 0 0 1-4.551-3.045c-1.25-1.28-2.247-2.855-3.003-4.734a15.87 15.87 0 0 1-1.124-5.943c0-3.23.679-5.971 2.042-8.24 1.364-2.268 3.52-4.062 6.466-5.398 2.614-1.194 5.702-2.028 9.264-2.48 3.554-.46 7.391-.806 11.51-1.025v-1.505c0-1.83-.282-3.314-.833-4.437-.559-1.13-1.336-2-2.34-2.608-1.003-.643-2.225-1.067-3.667-1.272a30.76 30.76 0 0 0-4.465-.318c-1.81 0-3.936.276-6.381.82-2.445.537-4.897 1.328-7.342 2.353h-.46v-7.964c1.45-.416 3.52-.876 6.22-1.377a43.637 43.637 0 0 1 8.005-.75c3.201 0 5.893.248 8.09.75 2.198.501 4.17 1.406 5.922 2.713 1.696 1.279 2.961 2.932 3.802 4.96.834 2.028 1.25 4.509 1.25 7.427v31.868h-7.8v-4.967zM431.743 511.172h-7.844V484.64c0-2.141-.106-4.134-.31-5.985-.213-1.844-.608-3.328-1.195-4.438-.636-1.173-1.526-2.042-2.664-2.607-1.145-.572-2.7-.855-4.67-.855-1.95 0-3.958.516-6.028 1.562-2.077 1.045-4.098 2.395-6.07 4.07v34.786h-7.843v-46.594h7.843v5.173c2.332-2.085 4.643-3.682 6.925-4.798a16.271 16.271 0 0 1 7.215-1.668c4.586 0 8.175 1.505 10.761 4.522 2.587 3.018 3.88 7.392 3.88 13.122v30.243zM478.627 511.172h-7.844v-4.755a80.561 80.561 0 0 1-3.172 2.544c-.89.664-1.93 1.279-3.13 1.83-1.11.53-2.262.94-3.456 1.236-1.201.29-2.586.432-4.176.432-2.53 0-4.869-.523-7.024-1.583-2.155-1.053-3.985-2.6-5.49-4.629-1.527-2.056-2.707-4.593-3.54-7.61-.834-3.017-1.251-6.487-1.251-10.408 0-4.092.523-7.625 1.583-10.614 1.052-2.989 2.515-5.596 4.38-7.822a18.162 18.162 0 0 1 6.148-4.777 17.351 17.351 0 0 1 7.575-1.731c2.332 0 4.367.254 6.091.77 1.717.516 3.54 1.315 5.462 2.403V446.27h7.844v64.902zm-7.844-11.348V472.96c-1.95-.94-3.695-1.597-5.236-1.958-1.54-.36-3.222-.544-5.024-.544-4.035 0-7.193 1.512-9.468 4.53-2.283 3.017-3.42 7.377-3.42 13.072 0 5.483.876 9.674 2.628 12.578 1.746 2.904 4.558 4.36 8.423 4.36 2.056 0 4.127-.467 6.211-1.4 2.092-.932 4.05-2.19 5.886-3.773zM505.153 499.28l-11.68 27.325h-6.091l7.342-27.325h10.43zM564.841 512.459c-3.646 0-6.826-.474-9.553-1.435-2.728-.96-5.045-2.388-6.967-4.275-2.17-2.17-3.696-4.763-4.586-7.78-.89-3.017-1.336-6.734-1.336-11.157V449.06h8.26v38.75c0 2.863.177 5.28.545 7.236.36 1.958 1.067 3.717 2.126 5.279 1.11 1.668 2.615 2.932 4.523 3.794 1.908.863 4.232 1.294 6.988 1.294 2.587 0 4.876-.431 6.883-1.294 2-.862 3.554-2.126 4.67-3.794a14.841 14.841 0 0 0 2.106-5.257c.375-1.922.566-4.268.566-7.052V449.06h8.253v38.75c0 4.311-.438 8.007-1.315 11.095-.869 3.088-2.41 5.702-4.607 7.843a19.07 19.07 0 0 1-6.903 4.296c-2.629.947-5.844 1.414-9.653 1.414zM616.48 512.296c-4.507 0-8.337-.466-11.496-1.4-3.151-.932-6.12-2.077-8.903-3.44V497.11h.586a29.732 29.732 0 0 0 9.257 5.942c3.448 1.407 6.77 2.106 9.97 2.106 4.558 0 8.006-.947 10.345-2.855 2.332-1.9 3.505-4.416 3.505-7.525 0-2.48-.615-4.494-1.837-6.049-1.223-1.561-3.173-2.713-5.837-3.462a93.182 93.182 0 0 0-5.257-1.378 218.75 218.75 0 0 1-5.964-1.463c-2.14-.55-4.063-1.265-5.759-2.127a16.085 16.085 0 0 1-4.5-3.377c-1.28-1.364-2.276-2.968-2.99-4.82-.707-1.844-1.06-3.978-1.06-6.401 0-5.031 1.958-9.25 5.88-12.656 3.921-3.406 8.924-5.109 15.015-5.109 3.476 0 6.77.346 9.864 1.039 3.102.7 5.971 1.682 8.614 2.96v9.886h-.622c-1.978-1.802-4.508-3.384-7.596-4.734a24.086 24.086 0 0 0-9.716-2.021c-3.837 0-6.939.897-9.3 2.692-2.366 1.795-3.546 4.148-3.546 7.066 0 2.643.692 4.742 2.084 6.303 1.392 1.555 3.406 2.693 6.049 3.42 1.752.474 3.893 1.004 6.423 1.605 2.53.6 4.628 1.144 6.296 1.646 4.282 1.307 7.412 3.286 9.39 5.921 1.972 2.643 2.962 5.9 2.962 9.766 0 2.416-.495 4.805-1.484 7.172-.99 2.36-2.367 4.367-4.148 6.006a21.654 21.654 0 0 1-6.777 4.17c-2.522.974-5.667 1.462-9.447 1.462zM639.46 511.172l20.937-62.111h10.183l20.937 62.111h-8.72l-5.632-17.354H653.43l-5.625 17.354h-8.345zm35.416-24.406l-9.596-29.275-9.554 29.275h19.15z"/></g><g stroke="#000" stroke-width="2.98"><path d="M714.147 86.435c-7.072-36.725-39.807-40.799-53.13-40.773-13.323.025-46.8 4.857-53.13 40.773-4.604 26.12 6.933 55.013 6.375 60.569-1.208 12.039-14.876 2.864-14.876 2.864s4.472 13.272 15.939 18.388c24.737 11.035 27.73-10.799 29.753-15.939.247-.628-.312.149 0 0 9.304-4.47 31.458-.169 31.878 0 1.851.744 1.126 28.51 29.753 15.939 13.112-5.758 15.939-18.388 15.939-18.388s-14.012 8.032-14.877-2.864c-.488-6.154 11.224-35.392 6.376-60.569z" fill="url(#a)"/><path d="M698.208 242.638c-27.771-7.253-45.376-7.087-74.382 0 1.556 30.897 10.626 40.379 10.626 40.379 15.736 7.612 41.434 7.095 53.13 0 0 0 8.986-8.157 10.626-40.379z" fill="url(#b)"/><path d="M709.897 237.324c.019 5.223-24.438 15.878-48.88 15.94-24.203.061-48.774-10.419-48.88-15.94-.576-30.122 13.217-83.504 48.88-83.773 35.663-.27 48.76 52.178 48.88 83.773z" fill="url(#c)"/><path d="M622.251 102.397c-.045 67.738 35.827 65.889 38.766 65.859 2.939-.031 38.617 1.93 38.077-65.859 0 0-14.101-14.673-38.077-14.188-23.976.486-38.766 14.188-38.766 14.188z" fill="url(#d)"/><path d="M657.447 135.233c2.111-1.982 4.551-2.095 7.122-1.079M674.604 151.296c-5.815 7.068-16.546 3.877-17.157 3.226M672.991 121.708c2.843-4.461 6.599-6.789 12.772-6.509" fill="none"/><path d="M641.388 113.223c2.446-.211 4.656 2.212 4.933 5.41.277 3.197-1.483 5.965-3.929 6.177-2.445.212-4.656-2.212-4.933-5.409-.277-3.198 1.483-5.966 3.929-6.178z"/></g><path d="M671.292 649.576c-.256-.383.125-.914.242-1.36.274-1.048.653-2.068.929-3.117 1.203-4.567 1.846-9.203 2.026-13.94 1.576-41.586-59.099-57.68-80.243-20.117-5.298 9.414-7.551 20.49-5.808 31.111.931 5.669 2.918 11.217 6.049 16.051 7.682 11.862 22.714 19.769 36.915 18.254 5.773-.616 6.174-.887 11.555-2.133 1.422-.329 5.045-1.634 6.943-.998 1.329.446 1.616 1.834 1.56 3.068-.069 1.531-.429 2.16-1.022 3.626-.589 1.455-1.576 3.035-.387 4.493.265.326.582.613.927.852.46.319.95.608 1.472.813 2.277.893 3.952-.53 5.747-1.732.703-.471 1.302-1.172 2.117-1.401.343-.097.638.327.92.546a32.623 32.623 0 0 1 2.101 1.796c2.382 2.194 4.76 4.394 7.075 6.658a2167.986 2167.986 0 0 1 42.125 42.302c3.602 3.719 7.023 7.612 10.652 11.306.495.503 2.128.642 2.556.66 4.098.179 5.973.067 10.087-.497.986-.135 3.433-.407 3.882-1.64.418-1.15.426-3.918.416-4.502-.053-2.903-.488-14.215-1.914-15.322-1.634-1.269-5.358-.46-6.086-2.044-1.405-3.059.428-7.054-1.178-8.421-1.667-1.419-7.049-1.7-7.975-2.95-1.262-1.7-.353-4.339-1.938-5.897-2.573-2.531-5.227-.578-8.224-2.163-1.286-.68-.601-7.414-1.977-8.364-2.573-1.778-7.23.661-9.477-1.779-1.233-1.34-.576-8.045-.937-9.433-.433-1.666-7.285-4.111-7.625-5.029-.776-2.095-.319-2.956-.83-5.087-.138-.576-.606-1.021-.965-1.492-2.153-2.825-8.532-9.859-9.385-10.805-.857-.951 6.341-4.718 2.415-8.642-3.509-3.506-7.582 2.96-8.58 1.869-2.282-2.495-4.16-4.54-4.16-4.54zm-52.077-41.351c6.882 0 12.469 5.405 12.469 12.062 0 6.657-5.587 12.062-12.469 12.062-6.883 0-12.47-5.405-12.47-12.062 0-6.657 5.587-12.062 12.47-12.062z" fill="url(#e)" stroke="#000" stroke-width="2.17"/><path d="M648.521 661.692l83.023 83.898M655.862 655.402l83.694 81.774" fill="none" stroke="#000" stroke-width="1.86"/><path d="M623.928 640.147l14.253-13.367 2.246 2.395-11.67 10.945 5.566 5.936 10.794-10.122 2.12 2.261-10.792 10.123 6.215 6.627 11.87-11.133 2.186 2.33-14.453 13.555-18.335-19.55z" fill="none"/><path d="M623.928 640.147l14.253-13.367 2.246 2.395-11.67 10.945 5.566 5.936 10.794-10.122 2.12 2.261-10.792 10.123 6.215 6.627 11.87-11.133 2.186 2.33-14.453 13.555-18.335-19.55z" fill="#fff" fill-rule="nonzero"/><path d="M638.332 624.616l.162.017.158.03.158.04.153.054.148.063.145.076.137.086.131.094.123.107.116.113 2.246 2.394.106.124.098.13.086.136.078.144.065.148.055.154.043.155.03.16.02.16.006.161-.005.164-.017.161-.03.159-.041.158-.054.152-.062.148-.076.145-.086.137-.094.132-.107.123-.113.116-10.09 9.463 2.6 2.772 9.213-8.64.122-.106.13-.096.137-.088.142-.077.148-.065.153-.055.157-.042.16-.032.16-.018.162-.008.161.006.162.017.16.029.156.042.154.052.148.066.144.074.138.085.13.095.125.105.115.115 2.121 2.261.107.122.097.131.088.137.076.144.065.148.055.152.043.157.03.158.019.161.007.162-.004.162-.017.162-.03.158-.041.158-.054.153-.064.15-.074.143-.085.138-.097.132-.104.123-.114.115-9.212 8.64 3.248 3.463 10.29-9.65.122-.107.13-.097.137-.086.143-.076.15-.067.15-.054.157-.042.16-.032.16-.019.163-.006.163.005.16.018.16.029.157.04.152.053.15.064.144.074.136.086.133.096.122.105.116.113 2.185 2.33.105.123.098.128.086.139.077.142.065.148.055.153.044.156.03.16.02.16.007.163-.007.161-.017.162-.029.16-.042.157-.052.153-.063.149-.076.145-.086.137-.095.13-.105.124-.115.115-14.452 13.555-.122.107-.13.096-.137.087-.142.078-.149.065-.153.054-.157.042-.157.03-.162.02-.162.006-.162-.004-.161-.017-.16-.029-.157-.042-.154-.052-.148-.065-.144-.075-.138-.085-.131-.096-.123-.104-.115-.114-18.335-19.55-.107-.122-.097-.13-.087-.136-.075-.144-.067-.15-.054-.15-.043-.157-.031-.159-.019-.161-.007-.163.006-.163.017-.159.03-.16.04-.156.053-.154.064-.15.074-.143.086-.137.097-.132.104-.123.114-.115 14.253-13.367.122-.107.131-.097.136-.087.142-.077.15-.066.152-.053.156-.043.16-.032.16-.018.162-.008.163.005zm-14.404 15.531l18.335 19.55 14.453-13.555-2.185-2.33-11.87 11.133-6.216-6.627 10.793-10.123-2.121-2.261-10.794 10.122-5.567-5.936 11.671-10.945-2.246-2.395-14.253 13.367z"/><g><path d="M936.867 907.247l-222.026.011-.261 276.83h222.287V907.247z" fill="#fff" stroke="#000" stroke-width="3.8"/><path d="M810.189 1079.73c1.069.698 3.282 1.047 6.639 1.047 10.465 0 19.077-2.072 25.836-6.214 10.378-6.366 15.567-17.246 15.567-32.638 0-13.736-4.273-24.07-12.82-31.003-7.326-5.931-17.028-8.896-29.106-8.896-3.009 0-5.047.327-6.116.981-1.068.654-1.602 2.093-1.602 4.317v68.089c0 2.18.534 3.619 1.602 4.317zm-26.98 3.597c4.884-.523 8.067-1.406 9.549-2.649 1.483-1.242 2.224-4.393 2.224-9.451v-59.586c0-4.884-.719-8.023-2.158-9.419-1.439-1.395-4.644-2.267-9.615-2.616v-2.485h36.105c12.165 0 22.456 2.005 30.872 6.017 15.174 7.195 22.762 20.058 22.762 38.59 0 6.672-1.363 13.016-4.088 19.034-2.726 6.017-6.835 11.097-12.33 15.24-3.488 2.616-7.107 4.6-10.857 5.952-6.846 2.529-15.262 3.794-25.247 3.794h-37.217v-2.421z" fill-rule="nonzero"/><path d="M730.333 951.626l24.555-13.309 20.776 16.54 19.872-8.116 22.013 14.28 19.151-11.972 21.542 14.952 18.833-12.199 19.031-6.654 2.177 8.019 17.414-1.541M730.333 918.619l19.163 11.798 18.137-3.832 15.684 7.793 19.565-7.934 11.372-10.022 13.369 15.18 29.335-12.329 24.763 18.803 18.414-14.077 15.562 3.59M735.75 1161.45l22.351 11.4 17.106-23.49 24.391 11.193 18.249-12.042 15.436 25.001 7.561-8.028 30.741-12.609 14.845 12.736 15.571 3.66 13.696-12.676M735.75 1132.95l22.364-10.585 13.865 3.056 21.518 16.856 29.842-10.859 32.062 14.754 5.362-16.553 49.2 9.028 5.734-5.697M735.75 1109.34l30.076-12.242 27.221 16.731 18.831-9.944 19.536 18.768 20.055-27.933 25.464 24.421 20.789-18.832 17.975 9.031M730.341 981.073l21.947-13.226 27.249 9.925 22.576-11.375 13.796 11.639 26.057 5.072 22.947-6.381 11.215-12.632 19.153 19.092 20.416-8.406" fill="none" stroke="#000" stroke-width="2.98"/></g><defs><radialGradient id="a" cx="0" cy="0" r="1" gradientUnits="userSpaceOnUse" gradientTransform="matrix(126.195 -64.2622 31.8756 88.8122 596.438 115.618)"><stop offset="0%" stop-color="#fdf8eb"/><stop offset="100%" stop-color="#f2da91"/></radialGradient><radialGradient id="b" cx="0" cy="0" r="1" gradientUnits="userSpaceOnUse" gradientTransform="matrix(82.8498 -32.7837 20.927 45.308 620.845 274.517)"><stop offset="0%" stop-color="#b3f"/><stop offset="100%" stop-color="#410062"/></radialGradient><radialGradient id="c" cx="0" cy="0" r="1" gradientUnits="userSpaceOnUse" gradientTransform="matrix(108.908 63.7564 27.509 -88.1131 608.202 180.81)"><stop offset="0%" stop-color="#b3f"/><stop offset="100%" stop-color="#410062"/></radialGradient><radialGradient id="d" cx="0" cy="0" r="1" gradientUnits="userSpaceOnUse" gradientTransform="matrix(99.0673 -56.5554 25.0234 78.1612 612.443 150.689)"><stop offset="0%" stop-color="#ffd9b8"/><stop offset="100%" stop-color="#ffcd9e"/></radialGradient><radialGradient id="e" cx="0" cy="0" r="1" gradientUnits="userSpaceOnUse" gradientTransform="matrix(58.4875 22.275 -22.8914 60.106 656.153 628.968)"><stop offset="0%" stop-color="#3ce61a"/><stop offset="100%" stop-color="#aef4a0"/></radialGradient></defs></svg>