<svg viewBox="0 0 956 1200" xmlns="http://www.w3.org/2000/svg" fill-rule="evenodd" clip-rule="evenodd" stroke-linecap="round" stroke-linejoin="round" stroke-miterlimit="1.414"><path d="M844.081 9.52l-833.912.039-.012 1038.55h833.924V9.519z" fill="#fff" stroke="#000" stroke-width="14.24"/><g font-size="12"><text x="174.276" y="181.661" font-family="'Tahoma',sans-serif" transform="translate(-1170.45 -1132.91) scale(7.06618)">Name:</text><text x="212.971" y="181.661" font-family="'Tahoma-Bold','Tahoma',sans-serif" font-weight="700" transform="translate(-1170.45 -1132.91) scale(7.06618)">Eve</text></g><text x="61.017" y="690.756" font-family="'Tahoma',sans-serif" font-size="84.794">Public K<tspan x="353.863px 398.496px" y="690.756px 690.756px">ey</tspan>:</text><g font-family="'Tahoma',sans-serif" font-size="12"><text x="174.276" y="181.661" transform="translate(-1170.45 -397.301) scale(7.06618)">Expir<tspan x="200.444px 206.743px" y="181.661px 181.661px">at</tspan>ion:</text><text x="185.526" y="193.661" transform="translate(-1170.45 -397.301) scale(7.06618)">2019-11-04</text></g><g font-family="'Tahoma',sans-serif" font-size="12.089"><text x="174.276" y="181.661" transform="translate(-1170.45 -943.33) scale(7.06618)">Location:</text><text x="185.609" y="193.75" transform="translate(-1170.45 -943.33) scale(7.06618)">F<tspan x="191.636px 198.2px" y="193.75px 193.75px">or</tspan>t Meade</text><text x="185.609" y="205.84" transform="translate(-1170.45 -943.33) scale(7.06618)">Maryland</text><text x="234.178" y="205.84" transform="translate(-1170.45 -943.33) scale(7.06618)">, USA</text></g><g stroke="#000" stroke-width="2.98"><path d="M714.147 86.435c-7.072-36.725-39.807-40.799-53.13-40.773-13.323.025-46.8 4.857-53.13 40.773-4.604 26.12 6.933 55.013 6.375 60.569-1.208 12.039-14.876 2.864-14.876 2.864s4.472 13.272 15.939 18.388c24.737 11.035 27.73-10.799 29.753-15.939.247-.628-.312.149 0 0 9.304-4.47 31.458-.169 31.878 0 1.851.744 1.126 28.51 29.753 15.939 13.112-5.758 15.939-18.388 15.939-18.388s-14.012 8.032-14.877-2.864c-.488-6.154 11.224-35.392 6.376-60.569z" fill="url(#a)"/><path d="M698.208 242.638c-27.771-7.253-45.376-7.087-74.382 0 1.556 30.897 10.626 40.379 10.626 40.379 15.736 7.612 41.434 7.095 53.13 0 0 0 8.986-8.157 10.626-40.379z" fill="url(#b)"/><path d="M709.897 237.324c.019 5.223-24.438 15.878-48.88 15.94-24.203.061-48.774-10.419-48.88-15.94-.576-30.122 13.217-83.504 48.88-83.773 35.663-.27 48.76 52.178 48.88 83.773z" fill="url(#c)"/><path d="M622.251 102.397c-.045 67.738 35.827 65.889 38.766 65.859 2.939-.031 38.617 1.93 38.077-65.859 0 0-14.101-14.673-38.077-14.188-23.976.486-38.766 14.188-38.766 14.188z" fill="url(#d)"/><path d="M657.447 135.233c2.111-1.982 4.551-2.095 7.122-1.079M674.604 151.296c-5.815 7.068-16.546 3.877-17.157 3.226M672.991 121.708c2.843-4.461 6.599-6.789 12.772-6.509" fill="none"/><path d="M641.388 113.223c2.446-.211 4.656 2.212 4.933 5.41.277 3.197-1.483 5.965-3.929 6.177-2.445.212-4.656-2.212-4.933-5.409-.277-3.198 1.483-5.966 3.929-6.178z"/></g><path d="M671.292 649.576c-.256-.383.125-.914.242-1.36.274-1.048.653-2.068.929-3.117 1.203-4.567 1.846-9.203 2.026-13.94 1.576-41.586-59.099-57.68-80.243-20.117-5.298 9.414-7.551 20.49-5.808 31.111.931 5.669 2.918 11.217 6.049 16.051 7.682 11.862 22.714 19.769 36.915 18.254 5.773-.616 6.174-.887 11.555-2.133 1.422-.329 5.045-1.634 6.943-.998 1.329.446 1.616 1.834 1.56 3.068-.069 1.531-.429 2.16-1.022 3.626-.589 1.455-1.576 3.035-.387 4.493.265.326.582.613.927.852.46.319.95.608 1.472.813 2.277.893 3.952-.53 5.747-1.732.703-.471 1.302-1.172 2.117-1.401.343-.097.638.327.92.546a32.623 32.623 0 0 1 2.101 1.796c2.382 2.194 4.76 4.394 7.075 6.658a2167.986 2167.986 0 0 1 42.125 42.302c3.602 3.719 7.023 7.612 10.652 11.306.495.503 2.128.642 2.556.66 4.098.179 5.973.067 10.087-.497.986-.135 3.433-.407 3.882-1.64.418-1.15.426-3.918.416-4.502-.053-2.903-.488-14.215-1.914-15.322-1.634-1.269-5.358-.46-6.086-2.044-1.405-3.059.428-7.054-1.178-8.421-1.667-1.419-7.049-1.7-7.975-2.95-1.262-1.7-.353-4.339-1.938-5.897-2.573-2.531-5.227-.578-8.224-2.163-1.286-.68-.601-7.414-1.977-8.364-2.573-1.778-7.23.661-9.477-1.779-1.233-1.34-.576-8.045-.937-9.433-.433-1.666-7.285-4.111-7.625-5.029-.776-2.095-.319-2.956-.83-5.087-.138-.576-.606-1.021-.965-1.492-2.153-2.825-8.532-9.859-9.385-10.805-.857-.951 6.341-4.718 2.415-8.642-3.509-3.506-7.582 2.96-8.58 1.869-2.282-2.495-4.16-4.54-4.16-4.54zm-52.077-41.351c6.882 0 12.469 5.405 12.469 12.062 0 6.657-5.587 12.062-12.469 12.062-6.883 0-12.47-5.405-12.47-12.062 0-6.657 5.587-12.062 12.47-12.062z" fill="url(#e)" stroke="#000" stroke-width="2.17"/><path d="M648.521 661.692l83.023 83.898M655.862 655.402l83.694 81.774" fill="none" stroke="#000" stroke-width="1.86"/><text x="241.595" y="464.449" font-family="Helvetica" font-size="20.065" fill="none" transform="scale(1.86227) rotate(-43.164 154.792 280.957)">E</text><text x="241.595" y="464.449" font-family="Helvetica" font-size="20.065" fill="#fff" transform="scale(1.86227) rotate(-43.164 154.792 280.957)">E</text><path d="M638.332 624.616l.162.017.158.03.158.04.153.054.148.063.145.076.137.086.131.094.123.107.116.113 2.246 2.394.106.124.098.13.086.136.078.144.065.148.055.154.043.155.03.16.02.16.006.161-.005.164-.017.161-.03.159-.041.158-.054.152-.062.148-.076.145-.086.137-.094.132-.107.123-.113.116-10.09 9.463 2.6 2.772 9.213-8.64.122-.106.13-.096.137-.088.142-.077.148-.065.153-.055.157-.042.16-.032.16-.018.162-.008.161.006.162.017.16.029.156.042.154.052.148.066.144.074.138.085.13.095.125.105.115.115 2.121 2.261.107.122.097.131.088.137.076.144.065.148.055.152.043.157.03.158.019.161.007.162-.004.162-.017.162-.03.158-.041.158-.054.153-.064.15-.074.143-.085.138-.097.132-.104.123-.114.115-9.212 8.64 3.248 3.463 10.29-9.65.122-.107.13-.097.137-.086.143-.076.15-.067.15-.054.157-.042.16-.032.16-.019.163-.006.163.005.16.018.16.029.157.04.152.053.15.064.144.074.136.086.133.096.122.105.116.113 2.185 2.33.105.123.098.128.086.139.077.142.065.148.055.153.044.156.03.16.02.16.007.163-.007.161-.017.162-.029.16-.042.157-.052.153-.063.149-.076.145-.086.137-.095.13-.105.124-.115.115-14.452 13.555-.122.107-.13.096-.137.087-.142.078-.149.065-.153.054-.157.042-.157.03-.162.02-.162.006-.162-.004-.161-.017-.16-.029-.157-.042-.154-.052-.148-.065-.144-.075-.138-.085-.131-.096-.123-.104-.115-.114-18.335-19.55-.107-.122-.097-.13-.087-.136-.075-.144-.067-.15-.054-.15-.043-.157-.031-.159-.019-.161-.007-.163.006-.163.017-.159.03-.16.04-.156.053-.154.064-.15.074-.143.086-.137.097-.132.104-.123.114-.115 14.253-13.367.122-.107.131-.097.136-.087.142-.077.15-.066.152-.053.156-.043.16-.032.16-.018.162-.008.163.005zm-14.404 15.531l18.335 19.55 14.453-13.555-2.185-2.33-11.87 11.133-6.216-6.627 10.793-10.123-2.121-2.261-10.794 10.122-5.567-5.936 11.671-10.945-2.246-2.395-14.253 13.367z"/><g><path d="M936.867 907.247l-222.026.011-.261 276.83h222.287V907.247z" fill="#fff" stroke="#000" stroke-width="3.8"/><text x="781.05" y="1085.74" font-family="'Times-Roman','Times'" font-size="133.954">D</text><path d="M730.333 951.626l24.555-13.309 20.776 16.54 19.872-8.116 22.013 14.28 19.151-11.972 21.542 14.952 18.833-12.199 19.031-6.654 2.177 8.019 17.414-1.541M730.333 918.619l19.163 11.798 18.137-3.832 15.684 7.793 19.565-7.934 11.372-10.022 13.369 15.18 29.335-12.329 24.763 18.803 18.414-14.077 15.562 3.59M735.75 1161.45l22.351 11.4 17.106-23.49 24.391 11.193 18.249-12.042 15.436 25.001 7.561-8.028 30.741-12.609 14.845 12.736 15.571 3.66 13.696-12.676M735.75 1132.95l22.364-10.585 13.865 3.056 21.518 16.856 29.842-10.859 32.062 14.754 5.362-16.553 49.2 9.028 5.734-5.697M735.75 1109.34l30.076-12.242 27.221 16.731 18.831-9.944 19.536 18.768 20.055-27.933 25.464 24.421 20.789-18.832 17.975 9.031M730.341 981.073l21.947-13.226 27.249 9.925 22.576-11.375 13.796 11.639 26.057 5.072 22.947-6.381 11.215-12.632 19.153 19.092 20.416-8.406" fill="none" stroke="#000" stroke-width="2.98"/></g><defs><radialGradient id="a" cx="0" cy="0" r="1" gradientUnits="userSpaceOnUse" gradientTransform="matrix(126.195 -64.2622 31.8756 88.8122 596.438 115.618)"><stop offset="0%" stop-color="#fdf8eb"/><stop offset="100%" stop-color="#f2da91"/></radialGradient><radialGradient id="b" cx="0" cy="0" r="1" gradientUnits="userSpaceOnUse" gradientTransform="matrix(82.8498 -32.7837 20.927 45.308 620.845 274.517)"><stop offset="0%" stop-color="#b3f"/><stop offset="100%" stop-color="#410062"/></radialGradient><radialGradient id="c" cx="0" cy="0" r="1" gradientUnits="userSpaceOnUse" gradientTransform="matrix(108.908 63.7564 27.509 -88.1131 608.202 180.81)"><stop offset="0%" stop-color="#b3f"/><stop offset="100%" stop-color="#410062"/></radialGradient><radialGradient id="d" cx="0" cy="0" r="1" gradientUnits="userSpaceOnUse" gradientTransform="matrix(99.0673 -56.5554 25.0234 78.1612 612.443 150.689)"><stop offset="0%" stop-color="#ffd9b8"/><stop offset="100%" stop-color="#ffcd9e"/></radialGradient><radialGradient id="e" cx="0" cy="0" r="1" gradientUnits="userSpaceOnUse" gradientTransform="matrix(58.4875 22.275 -22.8914 60.106 656.153 628.968)"><stop offset="0%" stop-color="#3ce61a"/><stop offset="100%" stop-color="#aef4a0"/></radialGradient></defs></svg>