<svg viewBox="0 0 956 1200" xmlns="http://www.w3.org/2000/svg" fill-rule="evenodd" clip-rule="evenodd" stroke-linecap="round" stroke-linejoin="round" stroke-miterlimit="1.414"><path d="M844.081 9.52l-833.912.039-.012 1038.55h833.924V9.519z" fill="#fff" stroke="#000" stroke-width="14.24"/><g font-size="12"><text x="174.276" y="181.661" font-family="'Tahoma',sans-serif" transform="translate(-1170.45 -1132.91) scale(7.06618)">Name:</text><text x="212.971" y="181.661" font-family="'Tahoma-Bold','Tahoma',sans-serif" font-weight="700" transform="translate(-1170.45 -1132.91) scale(7.06618)">Intermed.</text><text x="257.415" y="193.661" font-family="'Tahoma-Bold','Tahoma',sans-serif" font-weight="700" transform="translate(-1170.45 -1132.91) scale(7.06618)">CA</text></g><text x="61.017" y="690.756" font-family="'Tahoma',sans-serif" font-size="84.794">Public K<tspan x="353.863px 398.496px" y="690.756px 690.756px">ey</tspan>:</text><g font-family="'Tahoma',sans-serif" font-size="12"><text x="174.276" y="181.661" transform="translate(-1170.45 -397.301) scale(7.06618)">Expir<tspan x="200.444px 206.743px" y="181.661px 181.661px">at</tspan>ion:</text><text x="185.526" y="193.661" transform="translate(-1170.45 -397.301) scale(7.06618)">2020-05-30</text></g><g font-family="'Tahoma',sans-serif" font-size="12.089"><text x="174.276" y="181.661" transform="translate(-1170.45 -943.33) scale(7.06618)">Location:</text><text x="185.609" y="193.75" transform="translate(-1170.45 -943.33) scale(7.06618)">Clifton</text><text x="185.609" y="205.84" transform="translate(-1170.45 -943.33) scale(7.06618)">New Jersey</text><text x="246.326" y="205.84" transform="translate(-1170.45 -943.33) scale(7.06618)">, USA</text></g><path d="M671.292 649.576c-.256-.383.125-.914.242-1.36.274-1.048.653-2.068.929-3.117 1.203-4.567 1.846-9.203 2.026-13.94 1.576-41.586-59.099-57.68-80.243-20.117-5.298 9.414-7.551 20.49-5.808 31.111.931 5.669 2.918 11.217 6.049 16.051 7.682 11.862 22.714 19.769 36.915 18.254 5.773-.616 6.174-.887 11.555-2.133 1.422-.329 5.045-1.634 6.943-.998 1.329.446 1.616 1.834 1.56 3.068-.069 1.531-.429 2.16-1.022 3.626-.589 1.455-1.576 3.035-.387 4.493.265.326.582.613.927.852.46.319.95.608 1.472.813 2.277.893 3.952-.53 5.747-1.732.703-.471 1.302-1.172 2.117-1.401.343-.097.638.327.92.546a32.623 32.623 0 0 1 2.101 1.796c2.382 2.194 4.76 4.394 7.075 6.658a2167.986 2167.986 0 0 1 42.125 42.302c3.602 3.719 7.023 7.612 10.652 11.306.495.503 2.128.642 2.556.66 4.098.179 5.973.067 10.087-.497.986-.135 3.433-.407 3.882-1.64.418-1.15.426-3.918.416-4.502-.053-2.903-.488-14.215-1.914-15.322-1.634-1.269-5.358-.46-6.086-2.044-1.405-3.059.428-7.054-1.178-8.421-1.667-1.419-7.049-1.7-7.975-2.95-1.262-1.7-.353-4.339-1.938-5.897-2.573-2.531-5.227-.578-8.224-2.163-1.286-.68-.601-7.414-1.977-8.364-2.573-1.778-7.23.661-9.477-1.779-1.233-1.34-.576-8.045-.937-9.433-.433-1.666-7.285-4.111-7.625-5.029-.776-2.095-.319-2.956-.83-5.087-.138-.576-.606-1.021-.965-1.492-2.153-2.825-8.532-9.859-9.385-10.805-.857-.951 6.341-4.718 2.415-8.642-3.509-3.506-7.582 2.96-8.58 1.869-2.282-2.495-4.16-4.54-4.16-4.54zm-52.077-41.351c6.882 0 12.469 5.405 12.469 12.062 0 6.657-5.587 12.062-12.469 12.062-6.883 0-12.47-5.405-12.47-12.062 0-6.657 5.587-12.062 12.47-12.062z" fill="url(#a)" stroke="#000" stroke-width="2.17"/><path d="M648.521 661.692l83.023 83.898M655.862 655.402l83.694 81.774" fill="none" stroke="#000" stroke-width="1.86"/><text x="241.595" y="464.449" font-family="'Menlo-Regular','Menlo',monospace" font-size="20.065" fill="none" transform="scale(1.86227) rotate(-43.164 154.388 279.526)">I</text><text x="241.595" y="464.449" font-family="'Menlo-Regular','Menlo',monospace" font-size="20.065" fill="#fff" transform="scale(1.86227) rotate(-43.164 154.388 279.526)">I</text><path d="M636.85 625.763l.154.022.152.031.149.044.144.054.142.064.136.074.13.082.125.092.117.103.11.108 2.12 2.262.102.117.095.123.084.13.074.135.065.14.055.146.044.148.034.151.022.154.012.154v.156l-.01.152-.022.154-.031.152-.045.148-.053.145-.064.141-.074.136-.082.13-.092.126-.101.118-.11.11-2.583 2.422 11.424 12.18 2.583-2.422.117-.102.124-.094.13-.084.135-.074.141-.064.145-.056.148-.043.152-.035.152-.022.156-.011h.153l.155.01.153.022.152.03.148.044.145.055.142.063.135.073.131.083.125.093.115.101.11.109 2.123 2.263.101.116.095.123.083.13.075.136.065.14.055.146.044.148.033.15.023.155.01.153.001.155-.009.154-.022.154-.032.15-.043.15-.054.145-.064.141-.074.136-.082.13-.093.124-.102.118-.109.11-11.032 10.347-.117.102-.124.093-.128.084-.136.075-.14.065-.146.055-.148.044-.151.032-.154.024-.153.011h-.155l-.155-.01-.153-.02-.151-.035-.15-.041-.144-.054-.141-.063-.136-.075-.132-.083-.122-.092-.118-.101-.11-.11-2.122-2.262-.102-.117-.092-.123-.086-.129-.074-.137-.064-.139-.055-.145-.045-.15-.032-.15-.023-.153-.012-.154v-.156l.01-.153.02-.154.034-.152.043-.147.052-.146.065-.14.073-.138.085-.13.09-.123.102-.118.109-.11 2.583-2.423-11.423-12.18-2.584 2.423-.116.101-.125.094-.129.083-.136.074-.14.066-.146.054-.148.044-.15.034-.155.022-.153.011-.154.002-.155-.01-.154-.022-.15-.033-.15-.043-.145-.053-.141-.064-.136-.074-.13-.082-.124-.094-.118-.101-.11-.11-2.121-2.26-.102-.117-.093-.124-.086-.13-.073-.135-.065-.14-.055-.146-.044-.148-.033-.152-.023-.152-.012-.155v-.155l.01-.154.022-.152.032-.153.043-.148.053-.144.064-.142.074-.136.084-.132.09-.123.102-.118.109-.11 11.032-10.347.117-.102.124-.093.13-.084.136-.074.14-.065.146-.055.147-.044.152-.034.153-.022.155-.012h.153l.155.01zm-11.255 12.504l2.121 2.262 4.166-3.907 14.39 15.344-4.165 3.907 2.122 2.263 11.033-10.347-2.123-2.263-4.164 3.906-14.391-15.344 4.165-3.906-2.122-2.262-11.032 10.347z"/><g><path d="M936.867 907.247l-222.026.011-.261 276.83h222.287V907.247z" fill="#fff" stroke="#000" stroke-width="3.8"/><text x="781.05" y="1085.74" font-family="'Times-Roman','Times'" font-size="133.954">D</text><path d="M730.333 951.626l24.555-13.309 20.776 16.54 19.872-8.116 22.013 14.28 19.151-11.972 21.542 14.952 18.833-12.199 19.031-6.654 2.177 8.019 17.414-1.541M730.333 918.619l19.163 11.798 18.137-3.832 15.684 7.793 19.565-7.934 11.372-10.022 13.369 15.18 29.335-12.329 24.763 18.803 18.414-14.077 15.562 3.59M735.75 1161.45l22.351 11.4 17.106-23.49 24.391 11.193 18.249-12.042 15.436 25.001 7.561-8.028 30.741-12.609 14.845 12.736 15.571 3.66 13.696-12.676M735.75 1132.95l22.364-10.585 13.865 3.056 21.518 16.856 29.842-10.859 32.062 14.754 5.362-16.553 49.2 9.028 5.734-5.697M735.75 1109.34l30.076-12.242 27.221 16.731 18.831-9.944 19.536 18.768 20.055-27.933 25.464 24.421 20.789-18.832 17.975 9.031M730.341 981.073l21.947-13.226 27.249 9.925 22.576-11.375 13.796 11.639 26.057 5.072 22.947-6.381 11.215-12.632 19.153 19.092 20.416-8.406" fill="none" stroke="#000" stroke-width="2.98"/></g><defs><radialGradient id="a" cx="0" cy="0" r="1" gradientUnits="userSpaceOnUse" gradientTransform="matrix(58.4875 22.275 -22.8914 60.106 656.153 628.968)"><stop offset="0%" stop-color="#3ce61a"/><stop offset="100%" stop-color="#aef4a0"/></radialGradient></defs></svg>