<svg viewBox="0 0 1000 1200" xmlns="http://www.w3.org/2000/svg" fill-rule="evenodd" clip-rule="evenodd" stroke-linecap="round" stroke-linejoin="round" stroke-miterlimit="1.414"><path d="M910.013 89.362L297.708 87.92 90.948 280.251l-.961 830.387h820.026V89.358z" fill="#fff" stroke="red" stroke-width="14"/><path d="M573.042 423.061c18.82 5.312 29.361 7.948 31.626 7.948 4.654 0 9.06-1.277 13.26-3.871 4.16-2.553 7.083-6.589 8.69-12.066h10.377l4.57 111.022h-11.324c-6.589-22.032-15.195-39.821-25.82-53.328-20.26-25.409-47.563-38.133-81.825-38.133-34.55 0-62.84 13.672-84.79 41.015-21.948 27.344-32.943 64.982-32.943 112.916 0 44.104 11.53 79.272 34.632 105.586 23.06 26.273 52.299 39.45 87.714 39.45 25.572 0 49.127-6.136 70.706-18.366 12.354-6.918 25.943-17.337 40.768-31.338l9.142 9.142c-10.913 13.836-24.502 25.985-40.768 36.444-27.673 17.708-57.652 26.561-89.979 26.561-53.08 0-95.25-16.966-126.464-50.94-28.785-31.337-43.198-70.54-43.198-117.486 0-48.099 15.237-88.496 45.628-121.152 31.997-34.262 73.671-51.393 124.981-51.393 17.873 0 36.198 2.677 55.017 7.99z" fill="none"/><path d="M573.042 423.061c18.82 5.312 29.361 7.948 31.626 7.948 4.654 0 9.06-1.277 13.26-3.871 4.16-2.553 7.083-6.589 8.69-12.066h10.377l4.57 111.022h-11.324c-6.589-22.032-15.195-39.821-25.82-53.328-20.26-25.409-47.563-38.133-81.825-38.133-34.55 0-62.84 13.672-84.79 41.015-21.948 27.344-32.943 64.982-32.943 112.916 0 44.104 11.53 79.272 34.632 105.586 23.06 26.273 52.299 39.45 87.714 39.45 25.572 0 49.127-6.136 70.706-18.366 12.354-6.918 25.943-17.337 40.768-31.338l9.142 9.142c-10.913 13.836-24.502 25.985-40.768 36.444-27.673 17.708-57.652 26.561-89.979 26.561-53.08 0-95.25-16.966-126.464-50.94-28.785-31.337-43.198-70.54-43.198-117.486 0-48.099 15.237-88.496 45.628-121.152 31.997-34.262 73.671-51.393 124.981-51.393 17.873 0 36.198 2.677 55.017 7.99z" fill="red" fill-rule="nonzero" stroke="red" stroke-width=".8236020000000001" stroke-linecap="butt"/><path d="M300.806 239.637l87.833 18.023 81.204-52.68 70.651 44.166 79.467-55.159 69.475 45.001 70.208 24.546 8.031-29.581 64.24 5.684M168.085 328.313l104.845 27.034 70.63-52.081 72.176 29.271 41.953 36.968 49.317-55.996 108.218 45.481 91.355-69.366 67.927 51.932 57.409-13.243M168.085 825.434l82.455-42.052 63.104 86.655 89.979-41.293 67.322 44.424 56.942-92.231 27.893 29.615 113.406 46.517 54.764-46.983 57.44-13.501 50.525 46.76M168.085 930.566l82.5 39.048 51.149-11.274 79.38-62.181 110.091 40.056 118.275-54.427 19.782 61.066 181.502-33.304 21.151 21.016M168.085 1017.67l110.95 45.162 100.42-61.72 69.469 36.683 72.068-69.238 73.982 103.048 93.938-90.089 76.694 69.472 66.309-33.318M302.547 154.218l30.499 19.525 51.071-27.531 54.014 16.731 121.789-39.445 126.024 70.142 70.657-70.431 75.314 31.009" fill="none" stroke="red" stroke-width="11"/><path d="M299.835 87.92v191.357H97.642" fill="none" stroke="red" stroke-width="14" stroke-linecap="butt"/></svg>