<svg viewBox="0 0 1000 1200" xmlns="http://www.w3.org/2000/svg" fill-rule="evenodd" clip-rule="evenodd" stroke-linecap="round" stroke-linejoin="round" stroke-miterlimit="1.414"><path d="M910.013 89.362L297.708 87.92 90.948 280.251l-.961 830.387h820.026V89.358z" fill="#fff" stroke="red" stroke-width="14"/><g font-family="'Times-Roman','Times'" font-size="12"><text x="469.337" y="606.582" fill="none" transform="translate(-18992.2 -24231.3) scale(41.1801)">C</text><text x="469.337" y="606.582" fill="red" stroke="red" stroke-width=".02" stroke-linecap="butt" transform="translate(-18992.2 -24231.3) scale(41.1801)">C</text></g><path d="M300.806 239.637l87.833 18.023 81.204-52.68 70.651 44.166 79.467-55.159 69.475 45.001 70.208 24.546 8.031-29.581 64.24 5.684M168.085 328.313l104.845 27.034 70.63-52.081 72.176 29.271 41.953 36.968 49.317-55.996 108.218 45.481 91.355-69.366 67.927 51.932 57.409-13.243M168.085 825.434l82.455-42.052 63.104 86.655 89.979-41.293 67.322 44.424 56.942-92.231 27.893 29.615 113.406 46.517 54.764-46.983 57.44-13.501 50.525 46.76M168.085 930.566l82.5 39.048 51.149-11.274 79.38-62.181 110.091 40.056 118.275-54.427 19.782 61.066 181.502-33.304 21.151 21.016M168.085 1017.67l110.95 45.162 100.42-61.72 69.469 36.683 72.068-69.238 73.982 103.048 93.938-90.089 76.694 69.472 66.309-33.318M302.547 154.218l30.499 19.525 51.071-27.531 54.014 16.731 121.789-39.445 126.024 70.142 70.657-70.431 75.314 31.009" fill="none" stroke="red" stroke-width="11"/><path d="M299.835 87.92v191.357H97.642" fill="none" stroke="red" stroke-width="14" stroke-linecap="butt"/></svg>