<svg viewBox="0 0 910 380" xmlns="http://www.w3.org/2000/svg" fill-rule="evenodd" clip-rule="evenodd" stroke-linecap="round" stroke-linejoin="round" stroke-miterlimit="1"><g stroke="#000" stroke-width="2.33"><path d="M21.584 249.913c-2.203 11 .561 31.734 2.4 32.418 21.939 8.154 45.741 6.341 58.703-.86 1.529-.85 3.775-14.17 2.467-31.986-20.459 7.658-40.05 7.714-63.57.428z" fill="url(#a)"/><path d="M29.666 190.553c-2.433-.873-20.333 4.415-21.393 9.154-2.349 10.495-1.541 42.2 3.62 45.34 14.512 8.829 49.873 16.822 79.002 1.385 1.605-.851 5.881-23.959 3.114-47.605-.342-2.923-25.567-10.158-27.596-8.827l-36.747.553z" fill="url(#b)"/><path d="M80.304 141.159c-2.813 3.79-57.557 1.64-58.336 2.622-2.16 2.719-10.514 53.043 27.219 54.135 44.114 1.276 32.485-58.598 31.117-56.757z" fill="url(#c)"/><path d="M4.387 130.723c-1.57.283-.613 12.443 23.025 19.918 31.159 9.852 67.677-8.343 70.616-26.925.132-.835-1.633-.795-4.438-.36-5.862.908-11.807 3.705-11.833 3.011-1.948-51.72-29.915-27.399-32.322-27.003-1.405.231-4.746-5.651-11.843-4.775-20.45 2.523-15.302 35.467-15.873 35.485-3.794.114-9.152-.823-17.332.649z" fill="url(#d)"/><path d="M64.802 157.355c2.355.022 4.246 2.386 4.22 5.277-.027 2.89-1.96 5.22-4.316 5.198-2.355-.021-4.246-2.386-4.219-5.276.026-2.891 1.96-5.22 4.315-5.199zM36.363 157.355c2.355-.019 4.286 2.313 4.31 5.203.023 2.891-1.87 5.253-4.226 5.272-2.355.019-4.286-2.312-4.31-5.203-.023-2.891 1.87-5.253 4.226-5.272z" stroke-miterlimit="1.414"/><path d="M44.9 172.01c1.567-1.812 5.497-5.643 10.544-1.003" fill="none"/><path d="M33.906 184.44c.45-.198 2.272-.96 4.057-2.44 2.139-1.774 3.129-3.399 3.147-3.385.02.014-3.061 3.881-3.061 3.881s5.377 3.016 12.118 2.969c6.74-.047 12.351-3.504 12.255-3.373-1.46 2.02-5.006 5.905-12.255 5.905-7.25-.001-11.23-4.962-12.329-5.313l-3.932 1.756z" stroke-miterlimit="1.414"/><path d="M8.63 198.862c14.224 7.825 30.728 12.44 43.827 11.888 23.88-1.007 36.957-9.227 40.445-11.733" fill="none"/><path d="M51.74 98.107c-2.311 1.391-5.283 3.224-9.17 7.334M98.031 123.356c-2.863 4.314-19.315 14.173-26.127 15.036M81.738 125.445c-.023 2.067.009 5.534-.526 8.619M21.775 129.754c0 1.107.514 3.678.636 4.31" fill="none" stroke-miterlimit="1.414"/></g><path d="M208.576 7.871l-60.771-.143-20.521 19.088-.095 82.416h81.387V7.871z" fill="#fff" stroke="#000" stroke-width="1.39" stroke-miterlimit="1.414"/><path d="M175.139 40.99c1.868.527 2.913.791 3.137.791.463 0 .902-.128 1.317-.383.415-.256.703-.655.862-1.198h1.03l.455 11.016h-1.126c-.654-2.187-1.508-3.951-2.562-5.292-2.012-2.523-4.718-3.784-8.118-3.784-3.433 0-6.239 1.357-8.418 4.071-2.179 2.714-3.269 6.45-3.269 11.208 0 4.374 1.146 7.867 3.437 10.477 2.291 2.61 5.192 3.915 8.705 3.915 2.538 0 4.877-.606 7.016-1.82 1.23-.686 2.579-1.724 4.048-3.113l.91.91c-1.086 1.373-2.435 2.578-4.048 3.616-2.746 1.756-5.723 2.634-8.932 2.634-5.269 0-9.452-1.684-12.549-5.053-2.858-3.113-4.286-7-4.286-11.662 0-4.774 1.508-8.781 4.526-12.022 3.177-3.401 7.312-5.101 12.405-5.101 1.772 0 3.592.264 5.46.79z" fill-rule="nonzero"/><path d="M148.113 22.785l8.717 1.789 8.06-5.228 7.012 4.383 7.887-5.474 6.895 4.466 6.968 2.436.797-2.936 6.376.564M134.94 31.586l10.406 2.683 7.01-5.169 7.163 2.906 4.164 3.669 4.895-5.558 10.741 4.514 9.066-6.885 6.742 5.155 5.698-1.315M134.94 80.925l8.184-4.173 6.263 8.6 8.93-4.098 6.682 4.409 5.651-9.154 2.769 2.939 11.255 4.617 5.435-4.663 5.701-1.34 5.015 4.641M134.94 91.36l8.188 3.875 5.077-1.119 7.878-6.171 10.927 3.975 11.738-5.402 1.964 6.061 18.014-3.305 2.099 2.086M134.94 100.005l11.012 4.482 9.967-6.125 6.894 3.64 7.153-6.871 7.343 10.227 9.323-8.941 7.612 6.895 6.581-3.307M148.286 14.308l3.027 1.937 5.068-2.732 5.361 1.66 12.088-3.914 12.507 6.961 7.013-6.99 7.475 3.078" fill="none" stroke="#000" stroke-width="1.09" stroke-miterlimit="1.414"/><path d="M148.016 7.728V26.72h-20.067" fill="none" stroke="#000" stroke-width="1.39" stroke-linecap="butt" stroke-miterlimit="1.414"/><path d="M208.576 138.818l-81.386.004-.001 101.357h81.387V138.818z" fill="#fff" stroke="#000" stroke-width="1.39" stroke-miterlimit="1.414"/><path d="M142.264 188.873l-2.275-5.413-2.245 5.413h4.52zm-8.484 5.048v-.356c.506-.057.885-.249 1.137-.575.253-.327.687-1.213 1.301-2.659l4.098-9.644h.384l4.894 11.141c.326.743.587 1.202.782 1.378.195.176.523.296.984.359v.356h-5v-.356c.576-.051.947-.113 1.113-.187.166-.073.25-.254.25-.542 0-.096-.032-.265-.096-.508a5.491 5.491 0 0 0-.269-.768l-.816-1.891h-5.144a86.057 86.057 0 0 0-.916 2.356c-.099.285-.149.51-.149.677 0 .332.134.563.403.691.166.077.48.134.941.172v.356h-3.897zM151.961 193.038c.157.102.482.153.975.153 1.535 0 2.799-.304 3.79-.911 1.523-.935 2.284-2.531 2.284-4.789 0-2.016-.627-3.532-1.881-4.549-1.074-.87-2.498-1.305-4.27-1.305-.442 0-.741.048-.898.144-.156.096-.235.307-.235.633v9.99c0 .32.079.531.235.634zm-3.958.527c.716-.076 1.183-.206 1.401-.388.217-.183.326-.645.326-1.387v-8.743c0-.716-.105-1.177-.316-1.382-.212-.204-.682-.332-1.411-.383v-.365h5.297c1.785 0 3.295.294 4.53.883 2.226 1.055 3.34 2.943 3.34 5.662 0 .979-.2 1.91-.6 2.793a5.742 5.742 0 0 1-1.809 2.236 6.095 6.095 0 0 1-1.593.873c-1.005.371-2.24.557-3.705.557h-5.46v-.356zM170.651 188.873l-2.274-5.413-2.246 5.413h4.52zm-8.483 5.048v-.356c.505-.057.884-.249 1.137-.575.253-.327.686-1.213 1.3-2.659l4.098-9.644h.384l4.894 11.141c.327.743.587 1.202.783 1.378.195.176.523.296.983.359v.356h-5v-.356c.576-.051.947-.113 1.114-.187.166-.073.249-.254.249-.542 0-.096-.032-.265-.096-.508a5.365 5.365 0 0 0-.269-.768l-.815-1.891h-5.144a87.66 87.66 0 0 0-.917 2.356c-.099.285-.149.51-.149.677 0 .332.135.563.404.691.166.077.479.134.94.172v.356h-3.896zM176.457 180.917h11.104l.106 3.34h-.471c-.23-1.05-.523-1.733-.878-2.049-.355-.317-1.102-.475-2.241-.475h-1.094v10.057c0 .761.119 1.233.355 1.416.237.182.755.302 1.555.359v.356h-5.729v-.356c.831-.063 1.35-.201 1.554-.412.205-.211.307-.742.307-1.593v-9.827h-1.094c-1.087 0-1.828.156-2.221.47-.394.313-.69.998-.888 2.054h-.48l.115-3.34zM196.851 188.873l-2.275-5.413-2.245 5.413h4.52zm-8.484 5.048v-.356c.506-.057.885-.249 1.137-.575.253-.327.686-1.213 1.301-2.659l4.098-9.644h.383l4.895 11.141c.326.743.587 1.202.782 1.378.195.176.523.296.984.359v.356h-5v-.356c.575-.051.947-.113 1.113-.187.166-.073.249-.254.249-.542 0-.096-.032-.265-.096-.508a5.48 5.48 0 0 0-.268-.768l-.816-1.891h-5.144a86.057 86.057 0 0 0-.916 2.356c-.1.285-.149.51-.149.677 0 .332.134.563.403.691.166.077.48.134.94.172v.356h-3.896z" fill-rule="nonzero"/><path d="M134.94 153.733h65.885M134.94 162.534h65.885M134.94 212.767h65.885M134.94 221.754h65.885M134.94 230.952h65.885M134.94 145.255h65.885" fill="none" stroke="#000" stroke-width="1.09" stroke-miterlimit="1.414"/><g><path d="M904.523 138.818l-60.771-.143-20.521 19.089-.095 82.415h81.387V138.818z" fill="#fff" stroke="#000" stroke-width="1.39" stroke-miterlimit="1.414"/><path d="M867.529 174.452c-1.389-.606-3.145-.91-5.268-.91-1.006 0-1.625.1-1.856.3-.232.199-.347.642-.347 1.329v12.788c.878.08 1.452.128 1.724.143.271.016.535.024.79.024 2.251 0 4.023-.319 5.317-.957 2.347-1.166 3.52-3.345 3.52-6.538 0-3.002-1.293-5.061-3.88-6.179zm-16.548 28.833c1.868-.175 3.034-.546 3.497-1.113.463-.567.694-1.864.694-3.892v-21.241c0-1.709-.259-2.834-.778-3.377-.519-.543-1.656-.886-3.413-1.03v-.91h12.932c4.151 0 7.328.806 9.532 2.419 2.203 1.612 3.304 3.736 3.304 6.37 0 3.337-1.221 5.755-3.664 7.256-2.442 1.501-5.5 2.251-9.172 2.251a71.92 71.92 0 0 1-2.023-.036 69.291 69.291 0 0 0-1.832-.036v8.909c0 1.852.283 3.018.85 3.496.567.479 1.832.791 3.796.934v.887h-13.723v-.887z" fill-rule="nonzero"/><path d="M844.06 153.733h52.712M830.887 162.534h65.885M830.887 212.767h65.885M830.887 221.754h65.885M830.887 230.952h65.885M844.232 145.255h52.54" fill="none" stroke="#000" stroke-width="1.09" stroke-miterlimit="1.414"/><path d="M843.963 138.675v18.992h-20.067" fill="none" stroke="#000" stroke-width="1.39" stroke-linecap="butt" stroke-miterlimit="1.414"/></g><g><path d="M208.576 266.631l-81.386.004-.001 101.357h81.387V266.631z" fill="#fff" stroke="#000" stroke-width="1.39" stroke-miterlimit="1.414"/><path d="M136.667 305.199h17.494l.166 5.262h-.741c-.362-1.653-.824-2.729-1.383-3.228-.56-.499-1.736-.749-3.531-.749h-1.723v15.846c0 1.2.186 1.943.559 2.231.373.287 1.19.476 2.45.567v.559h-9.027v-.559c1.31-.101 2.127-.318 2.449-.651.323-.332.484-1.169.484-2.51v-15.483h-1.724c-1.713 0-2.88.247-3.5.741-.62.494-1.086 1.573-1.399 3.236h-.756l.182-5.262zM168.797 317.734l-3.583-8.528-3.538 8.528h7.121zm-13.366 7.953v-.559c.796-.091 1.394-.394 1.792-.908.398-.514 1.081-1.91 2.049-4.188l6.456-15.196h.605l7.711 17.555c.514 1.169.925 1.892 1.232 2.17.308.277.824.466 1.55.567v.559h-7.877v-.559c.907-.081 1.491-.179 1.754-.295.262-.116.393-.401.393-.855 0-.151-.051-.418-.152-.801a8.573 8.573 0 0 0-.423-1.21l-1.285-2.978h-8.105c-.806 2.026-1.287 3.263-1.444 3.712-.156.448-.234.804-.234 1.066 0 .524.212.887.635 1.088.262.121.756.212 1.482.273v.559h-6.139zM192.34 305.335c1.159.333 1.824.499 1.996.499.443 0 .758-.086.945-.257.186-.171.345-.418.476-.741h.68l.242 6.517h-.711c-.635-1.502-1.29-2.621-1.965-3.357-1.22-1.29-2.807-1.935-4.763-1.935-1.986 0-3.732.753-5.239 2.26-1.507 1.507-2.261 3.99-2.261 7.447 0 2.853.751 5.081 2.253 6.683 1.502 1.603 3.357 2.404 5.565 2.404.372 0 .811-.035 1.315-.105a8.112 8.112 0 0 0 1.436-.333c.736-.242 1.195-.451 1.376-.628.182-.176.273-.436.273-.778v-4.945c0-1.189-.169-1.93-.507-2.222-.338-.293-1.076-.474-2.215-.545v-.574h7.893v.574c-.766.051-1.276.177-1.528.378-.423.323-.635.988-.635 1.996v6.094c0 .363-.889.847-2.668 1.451-1.779.605-3.491.908-5.134.908-3.024 0-5.574-.882-7.65-2.647-2.289-1.945-3.433-4.556-3.433-7.832 0-2.883.912-5.352 2.737-7.409 2.006-2.268 4.667-3.402 7.983-3.402 1.2 0 2.379.167 3.539.499z" fill-rule="nonzero"/><path d="M134.94 281.546h65.885M134.94 290.347h65.885M134.94 340.58h65.885M134.94 349.567h65.885M134.94 358.765h65.885M134.94 273.068h65.885" fill="none" stroke="#000" stroke-width="1.09" stroke-miterlimit="1.414"/></g><g><path d="M237.265 183.71l-.054 13.015 59.712-2.394.015 13.227 26.222-17.716-26.343-17.4.027 13.725-59.579-2.457z" fill="url(#e)"/><path d="M297.049 171.427l.178.058.164.088 26.343 17.4.145.116.122.14.096.159.066.173.033.183.001.186-.032.183-.064.174-.093.16-.121.141-.144.117-26.221 17.716-.165.09-.177.06-.186.027-.188-.007-.183-.041-.173-.072-.157-.103-.136-.129-.111-.151-.082-.169-.05-.18-.017-.187-.014-12.144-58.63 2.35-.187-.009-.181-.042-.172-.074-.155-.104-.134-.129-.109-.152-.081-.169-.049-.18-.016-.186.054-13.015.018-.185.049-.179.081-.167.11-.15.134-.129.155-.102.171-.073.181-.042.186-.009 58.492 2.412-.024-12.637.016-.186.049-.18.081-.169.11-.151.135-.129.156-.103.172-.074.182-.042.187-.008.185.025zm-.205 14.74l-59.579-2.457-.054 13.015 59.712-2.394.015 13.227 26.222-17.716-26.343-17.4.027 13.725z"/></g><g><path d="M716.249 183.71l-.053 13.015 59.712-2.394.015 13.227 26.221-17.716-26.342-17.4.026 13.725-59.579-2.457z" fill="url(#f)"/><path d="M776.033 171.427l.178.058.165.088 26.342 17.4.145.116.123.14.095.159.066.173.034.183.001.186-.032.183-.064.174-.094.16-.121.141-.144.117-26.221 17.716-.164.09-.178.06-.186.027-.187-.007-.183-.041-.173-.072-.157-.103-.136-.129-.111-.151-.082-.169-.051-.18-.017-.187-.014-12.144-58.63 2.35-.186-.009-.182-.042-.171-.074-.156-.104-.134-.129-.109-.152-.08-.169-.049-.18-.016-.186.054-13.015.017-.185.05-.179.081-.167.109-.15.135-.129.155-.102.17-.073.182-.042.185-.009 58.493 2.412-.025-12.637.016-.186.05-.18.081-.169.109-.151.135-.129.156-.103.172-.074.182-.042.187-.008.185.025zm-.205 14.74l-59.579-2.457-.053 13.015 59.712-2.394.015 13.227 26.221-17.716-26.342-17.4.026 13.725z"/></g><g><path d="M251.34 91.193l-6.554 11.244 52.908 27.784-6.599 11.462 31.565-2.232-14.113-28.24-6.839 11.899-50.368-31.917z" fill="url(#g)"/><path d="M251.425 90.155l.165.027.159.053.148.078 49.45 31.335 6.297-10.956.098-.142.12-.124.139-.102.154-.078.165-.051.171-.024.173.005.169.034.161.061.149.086.133.111.113.13.09.148 14.113 28.24.063.158.037.166.01.17-.019.169-.046.164-.072.154-.096.141-.118.123-.136.102-.151.078-.162.053-.168.026-31.566 2.232-.173-.003-.171-.03-.163-.059-.15-.085-.135-.109-.115-.129-.092-.147-.066-.16-.039-.169-.011-.172.019-.173.046-.166.074-.157 6.059-10.524-51.95-27.279-.142-.09-.125-.112-.107-.13-.083-.146-.06-.157-.033-.165-.006-.168.021-.166.047-.162.073-.151 6.554-11.245.095-.137.117-.12.134-.1.148-.078.159-.052.165-.027.167.001zm-6.639 12.282l52.908 27.784-6.599 11.462 31.565-2.232-14.113-28.24-6.839 11.899-50.368-31.917-6.554 11.244z"/></g><g><path d="M245.049 278.984l6.461 11.298 50.516-31.929 6.626 11.447 13.851-28.453-31.514-1.897 6.886 11.872-52.826 27.662z" fill="url(#h)"/><path d="M322.565 240.307l.169.025.162.051.152.077.137.101.119.121.098.14.073.153.048.164.02.169-.007.17-.035.166-.062.159-13.85 28.453-.089.148-.112.133-.132.111-.149.089-.161.062-.17.035-.173.006-.172-.022-.165-.051-.155-.077-.14-.103-.121-.123-.099-.142-6.084-10.51-49.6 31.35-.149.078-.16.053-.165.027h-.168l-.166-.027-.16-.054-.148-.078-.134-.102-.116-.121-.095-.139-6.461-11.298-.071-.152-.046-.161-.02-.166.008-.167.033-.164.06-.156.084-.145.106-.129.125-.111.142-.089 51.862-27.157-6.34-10.932-.074-.156-.047-.166-.019-.171.01-.173.038-.168.065-.16.09-.147.114-.13.133-.109.15-.086.162-.06.169-.032.173-.004 31.513 1.897zm-24.69 11.015l-52.826 27.662 6.461 11.298 50.516-31.929 6.626 11.447 13.851-28.453-31.514-1.897 6.886 11.872z"/></g><path stroke="#fff" stroke-width="4" stroke-miterlimit="1.414" d="M343.899 109.111h351.196v160.774H343.899z"/><g fill="#fff" fill-rule="nonzero"><path d="M468.253 159.257l-6.085-17.707-6.462 17.707h12.547zm-8.92-23.652h6.136l14.54 40.073h-5.945l-4.065-12.003h-15.848l-4.34 12.003h-5.563l15.085-40.073zM485.466 135.605h29.215v4.907h-23.922v12.17h22.125v4.638h-22.125v13.585h24.332v4.773h-29.625v-40.073zM542.783 159.257l-6.085-17.707-6.467 17.707h12.552zm-8.92-23.652h6.136l14.54 40.073h-5.945l-4.065-12.003h-15.853l-4.334 12.003h-5.569l15.09-40.073zM574.862 171.04c1.84 0 3.348-.19 4.53-.572 2.11-.713 3.837-2.072 5.182-4.093 1.076-1.62 1.848-3.692 2.319-6.22.274-1.508.41-2.91.41-4.2 0-4.967-.988-8.822-2.962-11.57-1.97-2.746-5.149-4.115-9.53-4.115h-9.633v30.77h9.684zm-15.14-35.435h16.234c5.508 0 9.782 1.95 12.822 5.862 2.71 3.529 4.065 8.05 4.065 13.557 0 4.256-.8 8.106-2.403 11.542-2.821 6.076-7.668 9.112-14.54 9.112h-16.179v-40.073zM399.314 225.136c1.327 2.11 3.455 3.166 6.384 3.166 2.276 0 4.143-.977 5.605-2.933 1.467-1.955 2.198-4.763 2.198-8.418 0-3.692-.755-6.425-2.263-8.198-1.509-1.77-3.376-2.659-5.592-2.659-2.477 0-4.479.945-6.015 2.84-1.541 1.89-2.31 4.67-2.31 8.348 0 3.124.666 5.745 1.993 7.854zm11.02-21.905c.876.544 1.868 1.499 2.976 2.863v-14.759h4.72v40.212h-4.422v-4.064c-1.146 1.802-2.5 3.1-4.065 3.901-1.56.801-3.352 1.202-5.373 1.202-3.254 0-6.075-1.37-8.455-4.107-2.383-2.737-3.575-6.378-3.575-10.927 0-4.255 1.09-7.943 3.259-11.062 2.174-3.12 5.28-4.68 9.316-4.68 2.24 0 4.111.476 5.62 1.42zM443.484 203.133c1.942.973 3.427 2.235 4.446 3.78.983 1.472 1.635 3.194 1.96 5.154.294 1.346.438 3.492.438 6.44h-21.412c.089 2.965.792 5.344 2.1 7.132 1.308 1.793 3.338 2.691 6.08 2.691 2.566 0 4.614-.847 6.141-2.537a8.562 8.562 0 0 0 1.853-3.413h4.829c-.126 1.076-.55 2.272-1.267 3.59-.717 1.317-1.522 2.393-2.416 3.23-1.49 1.458-3.334 2.44-5.536 2.948-1.183.289-2.519.438-4.009.438-3.64 0-6.723-1.327-9.25-3.972-2.529-2.644-3.79-6.35-3.79-11.118 0-4.688 1.27-8.501 3.817-11.43 2.547-2.928 5.876-4.39 9.987-4.39 2.072 0 4.083.484 6.03 1.457zm1.797 11.472c-.2-2.128-.66-3.827-1.392-5.098-1.345-2.365-3.59-3.548-6.737-3.548-2.253 0-4.143.815-5.675 2.44-1.527 1.63-2.337 3.696-2.426 6.206h16.23zM475.66 203.887c2.063 1.597 3.306 4.353 3.72 8.264h-4.772c-.288-1.802-.954-3.296-1.992-4.488-1.034-1.192-2.7-1.788-4.991-1.788-3.13 0-5.364 1.527-6.71 4.586-.875 1.979-1.312 4.428-1.312 7.338 0 2.928.619 5.391 1.857 7.393 1.234 1.998 3.18 2.999 5.839 2.999 2.034 0 3.65-.624 4.842-1.867 1.192-1.248 2.011-2.952 2.467-5.117h4.773c-.545 3.873-1.91 6.709-4.088 8.497-2.184 1.792-4.977 2.69-8.376 2.69-3.823 0-6.867-1.396-9.14-4.19-2.272-2.788-3.412-6.275-3.412-10.461 0-5.126 1.248-9.12 3.738-11.975 2.491-2.854 5.667-4.283 9.522-4.283 3.291 0 5.968.8 8.036 2.402zM484.427 202.332h4.666v5.047c.381-.982 1.322-2.179 2.812-3.59 1.49-1.41 3.208-2.113 5.154-2.113.093 0 .246.009.465.028.22.018.592.055 1.118.107v5.186a7.072 7.072 0 0 0-.806-.111 10.6 10.6 0 0 0-.805-.028c-2.472 0-4.372.796-5.699 2.388-1.327 1.592-1.993 3.422-1.993 5.499v16.802h-4.912v-29.215zM521.148 202.332h5.429c-.69 1.872-2.226 6.146-4.61 12.818-1.783 5.023-3.273 9.116-4.474 12.277-2.835 7.459-4.837 12.003-6.001 13.642-1.164 1.634-3.166 2.453-6.002 2.453-.693 0-1.224-.028-1.597-.079a13.295 13.295 0 0 1-1.378-.303v-4.474c.857.238 1.476.382 1.858.438.382.056.717.084 1.006.084.912 0 1.578-.154 2.006-.452a4.27 4.27 0 0 0 1.08-1.103c.089-.15.415-.894.978-2.24.568-1.345.973-2.346 1.23-2.998l-10.802-30.063h5.564l7.83 23.787 7.883-23.787zM548.878 225.37c1.518-1.919 2.277-4.787 2.277-8.61 0-2.327-.336-4.325-1.006-6-1.276-3.218-3.604-4.829-6.984-4.829-3.403 0-5.731 1.7-6.983 5.103-.676 1.816-1.01 4.125-1.01 6.928 0 2.253.334 4.171 1.01 5.754 1.27 3.022 3.598 4.53 6.983 4.53 2.29 0 4.195-.959 5.713-2.877zm-18.428-22.903h4.777v3.874c.982-1.327 2.053-2.356 3.217-3.082 1.653-1.094 3.6-1.64 5.839-1.64 3.31 0 6.117 1.272 8.427 3.81 2.314 2.537 3.468 6.159 3.468 10.87 0 6.365-1.667 10.91-4.995 13.638-2.11 1.727-4.563 2.593-7.366 2.593-2.197 0-4.046-.484-5.536-1.448-.875-.545-1.848-1.48-2.919-2.808v14.922h-4.912v-40.729zM562.887 194.175h4.963v8.157h4.666v4.009h-4.666v19.07c0 1.015.35 1.7 1.039 2.044.381.2 1.02.303 1.909.303.237 0 .493-.005.763-.014.275-.01.591-.033.955-.07v3.873a10.71 10.71 0 0 1-1.76.354c-.606.075-1.267.112-1.974.112-2.296 0-3.85-.587-4.666-1.76-.819-1.173-1.229-2.696-1.229-4.572v-19.34h-3.957v-4.009h3.957v-8.157zM577.427 202.467h4.991v29.08h-4.99v-29.08zm0-10.992h4.991v5.563h-4.99v-5.563zM608.133 224.685c1.21-2.463 1.81-5.205 1.81-8.222 0-2.729-.432-4.95-1.308-6.658-1.382-2.691-3.761-4.037-7.146-4.037-3.003 0-5.182 1.145-6.546 3.436-1.365 2.29-2.049 5.056-2.049 8.292 0 3.11.684 5.704 2.049 7.775 1.364 2.077 3.529 3.11 6.49 3.11 3.259 0 5.49-1.229 6.7-3.696zm3.04-19.434c2.602 2.51 3.901 6.202 3.901 11.072 0 4.712-1.145 8.604-3.436 11.677-2.29 3.073-5.847 4.609-10.666 4.609-4.023 0-7.212-1.36-9.577-4.074-2.365-2.719-3.548-6.374-3.548-10.955 0-4.912 1.248-8.823 3.739-11.733 2.49-2.91 5.838-4.362 10.038-4.362 3.766 0 6.946 1.252 9.549 3.766zM620.913 202.332h4.665v4.144c1.383-1.709 2.845-2.938 4.39-3.683 1.546-.745 3.264-1.117 5.159-1.117 4.144 0 6.947 1.448 8.4 4.339.8 1.578 1.2 3.846 1.2 6.793v18.74h-4.99v-18.414c0-1.784-.266-3.222-.792-4.312-.875-1.82-2.454-2.728-4.75-2.728-1.163 0-2.118.121-2.862.354-1.346.4-2.529 1.201-3.548 2.402-.815.964-1.35 1.96-1.592 2.99-.247 1.024-.368 2.495-.368 4.404v15.303h-4.912v-29.215z"/></g><defs><radialGradient id="a" cx="0" cy="0" r="1" gradientUnits="userSpaceOnUse" gradientTransform="matrix(57.2105 -53.8148 43.4278 29.5176 72.597 264.973)"><stop offset="0%" stop-color="#2531dc"/><stop offset="100%" stop-color="#969bee"/></radialGradient><radialGradient id="b" cx="0" cy="0" r="1" gradientUnits="userSpaceOnUse" gradientTransform="matrix(93.3176 -58.3158 43.3353 69.3456 78.136 216.704)"><stop offset="0%" stop-color="#2531dc"/><stop offset="100%" stop-color="#969bee"/></radialGradient><linearGradient id="c" x2="1" gradientUnits="userSpaceOnUse" gradientTransform="scale(79.7884) rotate(-31.346 4.193 .733)"><stop offset="0%" stop-color="#dbbb9c"/><stop offset="56%" stop-color="#d0a67c"/><stop offset="100%" stop-color="#cb9d6e"/></linearGradient><radialGradient id="d" cx="0" cy="0" r="1" gradientUnits="userSpaceOnUse" gradientTransform="matrix(-68.4029 38.4929 -24.4463 -43.4418 79.63 105.739)"><stop offset="0%" stop-color="#d7c447"/><stop offset="100%" stop-color="#e6d38c"/></radialGradient><radialGradient id="e" cx="0" cy="0" r="1" gradientUnits="userSpaceOnUse" gradientTransform="matrix(118.848 -.04411 .04352 17.5576 236.948 190.23)"><stop offset="0%" stop-color="#c9c9c9"/><stop offset="100%" stop-color="#707070"/></radialGradient><radialGradient id="f" cx="0" cy="0" r="1" gradientUnits="userSpaceOnUse" gradientTransform="matrix(118.848 -.04411 .04352 17.5576 715.932 190.23)"><stop offset="0%" stop-color="#c9c9c9"/><stop offset="100%" stop-color="#707070"/></radialGradient><radialGradient id="g" cx="0" cy="0" r="1" gradientUnits="userSpaceOnUse" gradientTransform="matrix(102.948 59.3859 -8.74111 15.2271 247.805 96.682)"><stop offset="0%" stop-color="#c9c9c9"/><stop offset="100%" stop-color="#707070"/></radialGradient><radialGradient id="h" cx="0" cy="0" r="1" gradientUnits="userSpaceOnUse" gradientTransform="matrix(102.904 -59.4623 8.81649 15.1836 248.035 284.789)"><stop offset="0%" stop-color="#c9c9c9"/><stop offset="100%" stop-color="#707070"/></radialGradient></defs></svg>