<svg viewBox="0 0 910 380" xmlns="http://www.w3.org/2000/svg" fill-rule="evenodd" clip-rule="evenodd" stroke-linecap="round" stroke-linejoin="round" stroke-miterlimit="1.414"><g stroke="#000" stroke-width="2.33"><path d="M82.585 248.664c-21.588-5.425-40.416-5.654-63.163-.096-4.638 18.187 2.631 31.254 2.631 31.254 13.786 7.446 46.129 6.794 58.93-.005 0 0 6.81-14.097 1.602-31.153z" fill="url(#a)"/><path d="M90.085 192.417c-7.804-11.702-66.473-11.35-74.715.002-11.849 16.318-8.57 47.928-8.281 48.525 8.14 16.81 82.579 15.612 87.94.857 3.156-8.686 2.024-38.936-4.944-49.384z" fill="url(#b)"/><path d="M23.891 172.234c-1.207.096-11.962 4.178-11.113 6.3.331.826 4.264.377 4.377.6.035.068-3.392 3.739-1.2 5.866 5.106 4.954 13.2 1.444 13.767 2.585 2.076 4.178 14.203 4.761 18.782 2.558 5.077-2.444 6.563-2.611 8.923-2.558 2.617.059 5.212 3.176 10.27 2.558 3.796-.464 4.329-2.596 9.725-1.265 10.811 2.668 12.751-3.037 5.303-7.236-.795-.448 1.752.488 4.34-2.095.657-.655.2-4.105-8.068-5.283" fill="url(#c)"/><path d="M14.512 152.65c-29.505-29.633 9.953-65.041 35.39-53.916 3.596 1.573 20.568-11.763 35.99 3.24 16.313 15.87 6.111 30.475 4.63 31.443" fill="url(#d)"/><path d="M22.36 123.659c-22.283 19.238-4.555 57.538 27.513 57.924 7.323.088 26.224 1.578 37.117-17.88 8.492-15.169 5.938-32.223-2.806-39.037-.674-.525-6.016 5.352-12.733 5.876-8.729.68-15.277-5.378-15.284-5.366-2.794 4.877-15.02 6.883-19.93 5.954-8.967-1.696-13.333-7.571-13.877-7.471z" fill="url(#e)"/><path d="M45.092 151.622c2.876-4.538 11.608-3.25 14.355-.59M35.33 165.377c1.747-2.835 3.744-4.693 6.464-5.624M39.078 162.469c8.102 7.596 22.286 4.253 25.62.322M63.168 159c1.618 1.923 2.175 3.656 1.53 7.406" fill="none"/><ellipse cx="36.793" cy="140.29" rx="3.488" ry="4.56"/><ellipse cx="66.653" cy="140.29" rx="3.488" ry="4.56"/></g><path d="M208.576 7.871l-60.771-.143-20.521 19.088-.095 82.416h81.387V7.871z" fill="#fff" stroke="#000" stroke-width="1.39"/><path d="M171.583 43.505c-1.389-.607-3.146-.91-5.269-.91-1.006 0-1.624.1-1.856.299-.231.2-.347.643-.347 1.329v12.789c.878.079 1.453.127 1.724.143.271.016.535.024.79.024 2.251 0 4.024-.319 5.317-.958 2.347-1.165 3.52-3.344 3.52-6.538 0-3.001-1.293-5.06-3.879-6.178zm-16.548 28.833c1.868-.175 3.033-.547 3.496-1.113.463-.567.694-1.864.694-3.892V46.091c0-1.708-.259-2.834-.778-3.376-.519-.543-1.656-.886-3.412-1.03v-.91h12.931c4.151 0 7.328.806 9.532 2.419 2.203 1.612 3.305 3.735 3.305 6.37 0 3.336-1.222 5.755-3.665 7.256-2.442 1.501-5.5 2.251-9.172 2.251-.526 0-1.201-.012-2.023-.036a69.214 69.214 0 0 0-1.832-.036v8.909c0 1.852.283 3.017.85 3.496.567.479 1.832.79 3.796.934v.886h-13.722v-.886z" fill-rule="nonzero"/><path d="M148.113 22.785h52.712M134.94 31.586h65.885M134.94 81.82h65.885M134.94 90.807h65.885M134.94 100.005h65.885M148.286 14.308h52.539" fill="none" stroke="#000" stroke-width="1.09"/><path d="M148.016 7.728V26.72h-20.067" fill="none" stroke="#000" stroke-width="1.39" stroke-linecap="butt"/><path d="M901.061 73.187l-60.77-.143-20.521 19.089-.096 82.415h81.387V73.187z" fill="#fff" stroke="#000" stroke-width="1.39"/><path d="M867.624 106.307c1.868.527 2.914.79 3.137.79.463 0 .902-.127 1.317-.383.415-.255.703-.654.862-1.197h1.03l.455 11.016H873.3c-.655-2.187-1.509-3.952-2.563-5.293-2.011-2.522-4.717-3.783-8.118-3.783-3.433 0-6.238 1.357-8.418 4.071-2.179 2.714-3.269 6.45-3.269 11.207 0 4.375 1.146 7.867 3.437 10.478 2.291 2.61 5.193 3.915 8.705 3.915 2.538 0 4.877-.607 7.017-1.82 1.229-.686 2.578-1.724 4.047-3.113l.91.91c-1.086 1.373-2.435 2.578-4.047 3.616-2.746 1.756-5.724 2.634-8.933 2.634-5.268 0-9.451-1.684-12.549-5.053-2.857-3.113-4.286-7.001-4.286-11.662 0-4.774 1.509-8.781 4.526-12.022 3.177-3.401 7.312-5.101 12.405-5.101 1.772 0 3.592.263 5.46.79z" fill-rule="nonzero"/><path d="M840.598 88.102l8.717 1.789 8.06-5.229 7.012 4.384 7.887-5.475 6.895 4.467 6.968 2.436.797-2.936 6.376.564M827.426 96.903l10.405 2.683 7.01-5.169 7.164 2.905 4.164 3.669 4.894-5.557 10.741 4.514 9.067-6.885 6.741 5.154 5.698-1.314M827.426 146.242l8.183-4.174 6.263 8.601 8.931-4.098 6.681 4.409 5.652-9.154 2.768 2.939 11.255 4.617 5.436-4.663 5.701-1.34 5.014 4.641M827.426 156.676l8.188 3.876 5.076-1.119 7.879-6.172 10.926 3.976 11.739-5.402 1.963 6.061 18.014-3.306 2.099 2.086M827.426 165.322l11.011 4.482 9.967-6.126 6.895 3.641 7.152-6.872 7.343 10.228 9.323-8.942 7.612 6.895 6.581-3.306M840.771 79.624l3.027 1.938 5.069-2.732 5.36 1.66 12.088-3.915 12.508 6.962 7.012-6.99 7.475 3.077" fill="none" stroke="#000" stroke-width="1.09"/><path d="M840.502 73.044v18.992h-20.068" fill="none" stroke="#000" stroke-width="1.39" stroke-linecap="butt"/><g><path d="M901.069 209.117l-81.386.004-.001 101.357h81.387V209.117z" fill="#fff" stroke="#000" stroke-width="1.39"/><path d="M829.16 247.685h17.494l.166 5.262h-.741c-.363-1.653-.824-2.729-1.383-3.228-.56-.499-1.737-.748-3.531-.748h-1.724v15.846c0 1.199.187 1.943.56 2.23.373.287 1.189.476 2.449.567v.559h-9.027v-.559c1.311-.101 2.127-.318 2.45-.65.322-.333.484-1.17.484-2.51v-15.483h-1.724c-1.714 0-2.88.247-3.5.74-.62.494-1.086 1.573-1.399 3.236h-.756l.182-5.262zM861.29 260.22l-3.583-8.528-3.539 8.528h7.122zm-13.366 7.953v-.559c.796-.091 1.393-.393 1.792-.907.398-.514 1.081-1.911 2.048-4.189l6.457-15.196h.604l7.712 17.555c.514 1.169.925 1.893 1.232 2.17.308.277.824.466 1.55.567v.559h-7.878v-.559c.907-.081 1.492-.179 1.754-.295.262-.116.393-.401.393-.854 0-.151-.05-.419-.151-.802a8.777 8.777 0 0 0-.423-1.209l-1.285-2.979h-8.105c-.806 2.026-1.288 3.263-1.444 3.712-.156.449-.234.804-.234 1.066 0 .524.211.887.635 1.089.262.121.756.211 1.482.272v.559h-6.139zM884.832 247.821c1.16.333 1.825.499 1.996.499.444 0 .759-.085.945-.257.187-.171.345-.418.476-.741h.681l.242 6.517h-.711c-.635-1.502-1.29-2.621-1.965-3.356-1.22-1.291-2.808-1.936-4.763-1.936-1.986 0-3.733.754-5.24 2.261-1.506 1.507-2.26 3.989-2.26 7.446 0 2.853.751 5.081 2.253 6.684 1.502 1.602 3.357 2.404 5.564 2.404.373 0 .812-.036 1.316-.106a8.133 8.133 0 0 0 1.436-.333c.736-.242 1.195-.451 1.376-.627.181-.177.272-.436.272-.779v-4.944c0-1.19-.169-1.931-.506-2.223-.338-.292-1.076-.474-2.215-.544v-.575h7.892v.575c-.766.05-1.275.176-1.527.378-.423.322-.635.988-.635 1.996v6.093c0 .363-.889.847-2.669 1.452-1.779.604-3.49.907-5.133.907-3.024 0-5.574-.882-7.651-2.646-2.288-1.946-3.432-4.557-3.432-7.833 0-2.882.912-5.352 2.737-7.408 2.006-2.269 4.667-3.403 7.983-3.403 1.2 0 2.379.167 3.538.499z" fill-rule="nonzero"/><path d="M827.433 224.032h65.885M827.433 232.833h65.885M827.433 283.066h65.885M827.433 292.054h65.885M827.433 301.252h65.885M827.433 215.554h65.885" fill="none" stroke="#000" stroke-width="1.09"/></g><g stroke="#000"><path d="M173.37 180.182c-.137-.204.067-.488.129-.726.147-.56.349-1.105.496-1.665.642-2.439.986-4.914 1.082-7.444.842-22.208-31.56-30.803-42.851-10.743-2.83 5.027-4.033 10.942-3.102 16.614.497 3.027 1.558 5.99 3.23 8.572 4.102 6.334 12.13 10.557 19.714 9.748 3.083-.329 3.297-.474 6.17-1.139.759-.176 2.694-.873 3.708-.533.71.238.863.979.833 1.638-.037.817-.229 1.154-.546 1.936-.314.778-.841 1.621-.207 2.4.142.174.311.327.495.455.246.17.508.324.787.434 1.216.476 2.11-.283 3.069-.925.375-.252.695-.626 1.13-.748.184-.052.341.174.492.291.389.302.76.626 1.122.959a178.588 178.588 0 0 1 3.778 3.556 1157.337 1157.337 0 0 1 22.495 22.59c1.924 1.986 3.751 4.065 5.689 6.038.264.268 1.137.343 1.365.352 2.188.096 3.189.036 5.386-.265.527-.072 1.834-.218 2.074-.876.223-.614.227-2.092.222-2.404-.029-1.55-.114-3.099-.21-4.646-.029-.474-.526-.509-.582-.942-.084-.654.149-2.084-.423-2.594-.328-.293-2.495-.259-2.809-.658-.048-.06-1.135-4.089-1.297-4.578-.12-.361-.204-.753-.439-1.052-.127-.161-.369-.193-.57-.229-.683-.123-1.552.216-2.047-.451-.674-.908-.033-2.256-.88-3.088-1.374-1.351-3.73-.566-5.33-1.413-.687-.363-.681-1.17-.789-1.814-.143-.856-.206-1.375-.941-1.882-1.374-.95-3.474-.258-4.634-1.596-1.329-1.534-.936-3.531-1.408-5.347-.232-.89-.967-1.098-1.778-1.242-.378-.068-1.054-.005-1.235-.495-.415-1.119-.074-2.342-.347-3.48-.074-.307-.324-.545-.515-.796-1.15-1.509-4.557-5.265-5.012-5.771-.458-.507 3.386-2.519 1.289-4.615-1.874-1.872-4.049 1.581-4.581.999-1.219-1.333-2.222-2.425-2.222-2.425zM145.559 158.1c3.675 0 6.659 2.886 6.659 6.441 0 3.555-2.984 6.441-6.659 6.441s-6.659-2.886-6.659-6.441c0-3.555 2.984-6.441 6.659-6.441z" fill="url(#f)" stroke-width="1.16"/><path d="M161.209 186.652l44.337 44.803M165.13 183.293l44.694 43.67" fill="none" stroke-width=".99"/></g><g><path d="M208.576 266.631l-81.386.004-.001 101.357h81.387V266.631z" fill="#fff" stroke="#000" stroke-width="1.39"/><path d="M142.264 316.686l-2.275-5.413-2.245 5.413h4.52zm-8.484 5.048v-.356c.506-.057.885-.249 1.137-.575.253-.327.687-1.213 1.301-2.659l4.098-9.644h.384l4.894 11.141c.326.743.587 1.202.782 1.378.195.176.523.295.984.359v.356h-5v-.356c.576-.051.947-.113 1.113-.187.166-.073.25-.254.25-.542 0-.096-.032-.265-.096-.509a5.526 5.526 0 0 0-.269-.767l-.816-1.891h-5.144a86.057 86.057 0 0 0-.916 2.356c-.099.285-.149.51-.149.677 0 .332.134.563.403.691.166.076.48.134.941.172v.356h-3.897zM151.961 320.851c.157.102.482.153.975.153 1.535 0 2.799-.304 3.79-.912 1.523-.934 2.284-2.53 2.284-4.788 0-2.016-.627-3.532-1.881-4.549-1.074-.87-2.498-1.305-4.27-1.305-.442 0-.741.048-.898.144-.156.096-.235.307-.235.633v9.99c0 .32.079.531.235.634zm-3.958.527c.716-.076 1.183-.206 1.401-.388.217-.183.326-.645.326-1.387v-8.743c0-.716-.105-1.177-.316-1.382-.212-.204-.682-.332-1.411-.383v-.365h5.297c1.785 0 3.295.294 4.53.883 2.226 1.055 3.34 2.943 3.34 5.662 0 .979-.2 1.91-.6 2.793a5.742 5.742 0 0 1-1.809 2.236 6.125 6.125 0 0 1-1.593.873c-1.005.371-2.24.557-3.705.557h-5.46v-.356zM170.651 316.686l-2.274-5.413-2.246 5.413h4.52zm-8.483 5.048v-.356c.505-.057.884-.249 1.137-.575.253-.327.686-1.213 1.3-2.659l4.098-9.644h.384l4.894 11.141c.327.743.587 1.202.783 1.378.195.176.523.295.983.359v.356h-5v-.356c.576-.051.947-.113 1.114-.187.166-.073.249-.254.249-.542 0-.096-.032-.265-.096-.509a5.398 5.398 0 0 0-.269-.767l-.815-1.891h-5.144a87.66 87.66 0 0 0-.917 2.356c-.099.285-.149.51-.149.677 0 .332.135.563.404.691.166.076.479.134.94.172v.356h-3.896zM176.457 308.73h11.104l.106 3.34h-.471c-.23-1.05-.523-1.733-.878-2.049-.355-.317-1.102-.475-2.241-.475h-1.094v10.057c0 .761.119 1.233.355 1.416.237.182.755.302 1.555.359v.356h-5.729v-.356c.831-.064 1.35-.201 1.554-.412.205-.211.307-.742.307-1.593v-9.827h-1.094c-1.087 0-1.828.156-2.221.47-.394.313-.69.998-.888 2.054h-.48l.115-3.34zM196.851 316.686l-2.275-5.413-2.245 5.413h4.52zm-8.484 5.048v-.356c.506-.057.885-.249 1.137-.575.253-.327.686-1.213 1.301-2.659l4.098-9.644h.383l4.895 11.141c.326.743.587 1.202.782 1.378.195.176.523.295.984.359v.356h-5v-.356c.575-.051.947-.113 1.113-.187.166-.073.249-.254.249-.542 0-.096-.032-.265-.096-.509a5.515 5.515 0 0 0-.268-.767l-.816-1.891h-5.144a86.057 86.057 0 0 0-.916 2.356c-.1.285-.149.51-.149.677 0 .332.134.563.403.691.166.076.48.134.94.172v.356h-3.896z" fill-rule="nonzero"/><path d="M134.94 281.546h65.885M134.94 290.347h65.885M134.94 340.58h65.885M134.94 349.567h65.885M134.94 358.765h65.885M134.94 273.068h65.885" fill="none" stroke="#000" stroke-width="1.09"/></g><g><path d="M237.265 183.71l-.054 13.015 59.712-2.394.015 13.227 26.222-17.716-26.343-17.4.027 13.725-59.579-2.457z" fill="url(#g)"/><path d="M297.049 171.427l.178.058.164.088 26.343 17.4.145.116.122.14.096.159.066.173.033.183.001.186-.032.183-.064.174-.093.16-.121.141-.144.117-26.221 17.716-.165.09-.177.06-.186.027-.188-.007-.183-.041-.173-.072-.157-.103-.136-.129-.111-.151-.082-.169-.05-.18-.017-.187-.014-12.144-58.63 2.35-.187-.009-.181-.042-.172-.074-.155-.104-.134-.129-.109-.152-.081-.169-.049-.18-.016-.186.054-13.015.018-.185.049-.179.081-.167.11-.15.134-.129.155-.102.171-.073.181-.042.186-.009 58.492 2.412-.024-12.637.016-.186.049-.18.081-.169.11-.151.135-.129.156-.103.172-.074.182-.042.187-.008.185.025zm-.205 14.74l-59.579-2.457-.054 13.015 59.712-2.394.015 13.227 26.222-17.716-26.343-17.4.027 13.725z"/></g><g><path d="M718.899 166.418l4.931 12.045 54.251-25.062 5.076 12.214 17.445-26.402-30.995-5.994 5.276 12.669-55.984 20.53z" fill="url(#h)"/><path d="M769.804 132.196l30.996 5.995.164.046.154.072.141.096.123.117.102.137.079.151.053.162.025.168-.001.17-.03.168-.057.16-.082.15-17.445 26.401-.107.136-.129.116-.145.094-.16.068-.168.041-.173.012-.172-.016-.167-.045-.158-.072-.143-.097-.126-.119-.104-.139-.079-.154-4.66-11.213-53.268 24.608-.158.058-.165.031-.168.005-.166-.022-.161-.049-.151-.074-.137-.097-.12-.118-.099-.136-.076-.149-4.931-12.045-.051-.16-.024-.165.002-.168.029-.164.055-.158.08-.147.102-.133.122-.114.139-.094.151-.07 54.964-20.155-4.859-11.666-.053-.164-.025-.171.003-.172.032-.17.06-.162.085-.15.109-.134.13-.114.147-.091.159-.065.168-.038.173-.01.171.018zm5.079 13.692l-55.984 20.53 4.931 12.045 54.251-25.062 5.076 12.214 17.445-26.402-30.995-5.994 5.276 12.669z"/></g><g><path d="M723.714 204.966l-5.031 12.004 56.083 20.639-5.047 12.226 31.004-6.333-17.678-26.156-5.228 12.69-54.103-25.07z" fill="url(#i)"/><path d="M723.83 203.931l.165.032.157.058 53.116 24.612 4.813-11.684.079-.153.103-.139.125-.119.142-.098.157-.072.166-.046.172-.018.172.012.168.039.159.066.147.092.128.115.109.135 17.678 26.156.084.148.058.16.031.168.004.17-.024.168-.051.163-.077.151-.101.138-.122.119-.139.097-.154.074-.163.048-31.005 6.332-.172.021-.173-.009-.169-.037-.161-.064-.148-.09-.13-.114-.111-.133-.086-.15-.061-.162-.033-.17-.004-.173.024-.172.053-.165 4.634-11.224-55.066-20.266-.153-.071-.139-.094-.122-.115-.102-.133-.08-.149-.054-.159-.028-.165-.001-.168.025-.166.053-.16 5.03-12.004.077-.149.099-.134.12-.117.137-.096.151-.072.16-.048.166-.022.167.006zm-5.147 13.039l56.083 20.639-5.047 12.226 31.004-6.333-17.678-26.156-5.228 12.69-54.103-25.07-5.031 12.004z"/></g><g><path d="M251.34 91.193l-6.554 11.244 52.908 27.784-6.599 11.462 31.565-2.232-14.113-28.24-6.839 11.899-50.368-31.917z" fill="url(#j)"/><path d="M251.425 90.155l.165.027.159.053.148.078 49.45 31.335 6.297-10.956.098-.142.12-.124.139-.102.154-.078.165-.051.171-.024.173.005.169.034.161.061.149.086.133.111.113.13.09.148 14.113 28.24.063.158.037.166.01.17-.019.169-.046.164-.072.154-.096.141-.118.123-.136.102-.151.078-.162.053-.168.026-31.566 2.232-.173-.003-.171-.03-.163-.059-.15-.085-.135-.109-.115-.129-.092-.147-.066-.16-.039-.169-.011-.172.019-.173.046-.166.074-.157 6.059-10.524-51.95-27.279-.142-.09-.125-.112-.107-.13-.083-.146-.06-.157-.033-.165-.006-.168.021-.166.047-.162.073-.151 6.554-11.245.095-.137.117-.12.134-.1.148-.078.159-.052.165-.027.167.001zm-6.639 12.282l52.908 27.784-6.599 11.462 31.565-2.232-14.113-28.24-6.839 11.899-50.368-31.917-6.554 11.244z"/></g><g><path d="M245.049 278.984l6.461 11.298 50.516-31.929 6.626 11.447 13.851-28.453-31.514-1.897 6.886 11.872-52.826 27.662z" fill="url(#k)"/><path d="M322.565 240.307l.169.025.162.051.152.077.137.101.119.121.098.14.073.153.048.164.02.169-.007.17-.035.166-.062.159-13.85 28.453-.089.148-.112.133-.132.111-.149.089-.161.062-.17.035-.173.006-.172-.022-.165-.051-.155-.077-.14-.103-.121-.123-.099-.142-6.084-10.51-49.6 31.35-.149.078-.16.053-.165.027h-.168l-.166-.027-.16-.054-.148-.078-.134-.102-.116-.121-.095-.139-6.461-11.298-.071-.152-.046-.161-.02-.166.008-.167.033-.164.06-.156.084-.145.106-.129.125-.111.142-.089 51.862-27.157-6.34-10.932-.074-.156-.047-.166-.019-.171.01-.173.038-.168.065-.16.09-.147.114-.13.133-.109.15-.086.162-.06.169-.032.173-.004 31.513 1.897zm-24.69 11.015l-52.826 27.662 6.461 11.298 50.516-31.929 6.626 11.447 13.851-28.453-31.514-1.897 6.886 11.872z"/></g><path stroke="#fff" stroke-width="4" d="M343.899 109.111h351.196v160.774H343.899z"/><g fill="#fff" fill-rule="nonzero"><path d="M468.253 159.257l-6.085-17.707-6.462 17.707h12.547zm-8.92-23.652h6.136l14.54 40.073h-5.945l-4.065-12.003h-15.848l-4.34 12.003h-5.563l15.085-40.073zM485.466 135.605h29.215v4.907h-23.922v12.17h22.125v4.638h-22.125v13.585h24.332v4.773h-29.625v-40.073zM542.783 159.257l-6.085-17.707-6.467 17.707h12.552zm-8.92-23.652h6.136l14.54 40.073h-5.945l-4.065-12.003h-15.853l-4.334 12.003h-5.569l15.09-40.073zM574.862 171.04c1.84 0 3.348-.19 4.53-.572 2.11-.713 3.837-2.072 5.182-4.093 1.076-1.62 1.848-3.692 2.319-6.22.274-1.508.41-2.91.41-4.2 0-4.967-.988-8.822-2.962-11.57-1.97-2.746-5.149-4.115-9.53-4.115h-9.633v30.77h9.684zm-15.14-35.435h16.234c5.508 0 9.782 1.95 12.822 5.862 2.71 3.529 4.065 8.05 4.065 13.557 0 4.256-.8 8.106-2.403 11.542-2.821 6.076-7.668 9.112-14.54 9.112h-16.179v-40.073zM412.411 203.133c1.946.973 3.427 2.235 4.447 3.78.982 1.472 1.634 3.194 1.964 5.154.289 1.346.433 3.492.433 6.44h-21.412c.089 2.965.792 5.344 2.1 7.132 1.308 1.793 3.338 2.691 6.085 2.691 2.56 0 4.61-.847 6.136-2.537a8.562 8.562 0 0 0 1.853-3.413h4.829c-.126 1.076-.55 2.272-1.267 3.59-.717 1.317-1.522 2.393-2.416 3.23-1.49 1.458-3.334 2.44-5.536 2.948-1.183.289-2.519.438-4.009.438-3.64 0-6.723-1.327-9.25-3.972-2.529-2.644-3.79-6.35-3.79-11.118 0-4.688 1.27-8.501 3.817-11.43 2.547-2.928 5.876-4.39 9.987-4.39 2.072 0 4.083.484 6.03 1.457zm1.797 11.472c-.2-2.128-.66-3.827-1.387-5.098-1.346-2.365-3.594-3.548-6.742-3.548-2.253 0-4.143.815-5.67 2.44-1.532 1.63-2.338 3.696-2.43 6.206h16.23zM425.285 202.332h4.665v4.144c1.382-1.709 2.85-2.938 4.395-3.683 1.546-.745 3.264-1.117 5.154-1.117 4.148 0 6.946 1.448 8.404 4.339.8 1.578 1.2 3.846 1.2 6.793v18.74h-4.995v-18.414c0-1.784-.26-3.222-.791-4.312-.871-1.82-2.454-2.728-4.745-2.728-1.164 0-2.118.121-2.863.354-1.346.4-2.528 1.201-3.548 2.402-.82.964-1.35 1.96-1.597 2.99-.246 1.024-.368 2.495-.368 4.404v15.303h-4.911v-29.215zM475.66 203.887c2.063 1.597 3.306 4.353 3.72 8.264h-4.772c-.288-1.802-.954-3.296-1.992-4.488-1.034-1.192-2.7-1.788-4.991-1.788-3.13 0-5.364 1.527-6.71 4.586-.875 1.979-1.312 4.428-1.312 7.338 0 2.928.619 5.391 1.857 7.393 1.234 1.998 3.18 2.999 5.839 2.999 2.034 0 3.65-.624 4.842-1.867 1.192-1.248 2.011-2.952 2.467-5.117h4.773c-.545 3.873-1.91 6.709-4.088 8.497-2.184 1.792-4.977 2.69-8.376 2.69-3.823 0-6.867-1.396-9.14-4.19-2.272-2.788-3.412-6.275-3.412-10.461 0-5.126 1.248-9.12 3.738-11.975 2.491-2.854 5.667-4.283 9.522-4.283 3.291 0 5.968.8 8.036 2.402zM484.427 202.332h4.666v5.047c.381-.982 1.322-2.179 2.812-3.59 1.49-1.41 3.208-2.113 5.154-2.113.093 0 .246.009.465.028.22.018.592.055 1.118.107v5.186a7.072 7.072 0 0 0-.806-.111 10.6 10.6 0 0 0-.805-.028c-2.472 0-4.372.796-5.699 2.388-1.327 1.592-1.993 3.422-1.993 5.499v16.802h-4.912v-29.215zM521.148 202.332h5.429c-.69 1.872-2.226 6.146-4.61 12.818-1.783 5.023-3.273 9.116-4.474 12.277-2.835 7.459-4.837 12.003-6.001 13.642-1.164 1.634-3.166 2.453-6.002 2.453-.693 0-1.224-.028-1.597-.079a13.295 13.295 0 0 1-1.378-.303v-4.474c.857.238 1.476.382 1.858.438.382.056.717.084 1.006.084.912 0 1.578-.154 2.006-.452a4.27 4.27 0 0 0 1.08-1.103c.089-.15.415-.894.978-2.24.568-1.345.973-2.346 1.23-2.998l-10.802-30.063h5.564l7.83 23.787 7.883-23.787zM548.878 225.37c1.518-1.919 2.277-4.787 2.277-8.61 0-2.327-.336-4.325-1.006-6-1.276-3.218-3.604-4.829-6.984-4.829-3.403 0-5.731 1.7-6.983 5.103-.676 1.816-1.01 4.125-1.01 6.928 0 2.253.334 4.171 1.01 5.754 1.27 3.022 3.598 4.53 6.983 4.53 2.29 0 4.195-.959 5.713-2.877zm-18.428-22.903h4.777v3.874c.982-1.327 2.053-2.356 3.217-3.082 1.653-1.094 3.6-1.64 5.839-1.64 3.31 0 6.117 1.272 8.427 3.81 2.314 2.537 3.468 6.159 3.468 10.87 0 6.365-1.667 10.91-4.995 13.638-2.11 1.727-4.563 2.593-7.366 2.593-2.197 0-4.046-.484-5.536-1.448-.875-.545-1.848-1.48-2.919-2.808v14.922h-4.912v-40.729zM562.887 194.175h4.963v8.157h4.666v4.009h-4.666v19.07c0 1.015.35 1.7 1.039 2.044.381.2 1.02.303 1.909.303.237 0 .493-.005.763-.014.275-.01.591-.033.955-.07v3.873a10.71 10.71 0 0 1-1.76.354c-.606.075-1.267.112-1.974.112-2.296 0-3.85-.587-4.666-1.76-.819-1.173-1.229-2.696-1.229-4.572v-19.34h-3.957v-4.009h3.957v-8.157zM577.427 202.467h4.991v29.08h-4.99v-29.08zm0-10.992h4.991v5.563h-4.99v-5.563zM608.133 224.685c1.21-2.463 1.81-5.205 1.81-8.222 0-2.729-.432-4.95-1.308-6.658-1.382-2.691-3.761-4.037-7.146-4.037-3.003 0-5.182 1.145-6.546 3.436-1.365 2.29-2.049 5.056-2.049 8.292 0 3.11.684 5.704 2.049 7.775 1.364 2.077 3.529 3.11 6.49 3.11 3.259 0 5.49-1.229 6.7-3.696zm3.04-19.434c2.602 2.51 3.901 6.202 3.901 11.072 0 4.712-1.145 8.604-3.436 11.677-2.29 3.073-5.847 4.609-10.666 4.609-4.023 0-7.212-1.36-9.577-4.074-2.365-2.719-3.548-6.374-3.548-10.955 0-4.912 1.248-8.823 3.739-11.733 2.49-2.91 5.838-4.362 10.038-4.362 3.766 0 6.946 1.252 9.549 3.766zM620.913 202.332h4.665v4.144c1.383-1.709 2.845-2.938 4.39-3.683 1.546-.745 3.264-1.117 5.159-1.117 4.144 0 6.947 1.448 8.4 4.339.8 1.578 1.2 3.846 1.2 6.793v18.74h-4.99v-18.414c0-1.784-.266-3.222-.792-4.312-.875-1.82-2.454-2.728-4.75-2.728-1.163 0-2.118.121-2.862.354-1.346.4-2.529 1.201-3.548 2.402-.815.964-1.35 1.96-1.592 2.99-.247 1.024-.368 2.495-.368 4.404v15.303h-4.912v-29.215z"/></g><defs><radialGradient id="a" cx="0" cy="0" r="1" gradientUnits="userSpaceOnUse" gradientTransform="matrix(65.67 -28.0748 16.5876 38.8002 21.381 276.36)"><stop offset="0%" stop-color="#d3799a"/><stop offset="100%" stop-color="#c24774"/></radialGradient><radialGradient id="b" cx="0" cy="0" r="1" gradientUnits="userSpaceOnUse" gradientTransform="matrix(85.4095 -50.0002 21.5736 69.1017 12.16 237.668)"><stop offset="0%" stop-color="#d3799a"/><stop offset="100%" stop-color="#c24774"/></radialGradient><radialGradient id="c" cx="0" cy="0" r="1" gradientUnits="userSpaceOnUse" gradientTransform="matrix(68.1564 -12.7743 17.2156 17.6545 17.216 187.083)"><stop offset="0%" stop-color="#cda3ca"/><stop offset="100%" stop-color="#b87db4"/></radialGradient><radialGradient id="d" cx="0" cy="0" r="1" gradientUnits="userSpaceOnUse" gradientTransform="matrix(86.2781 -39.2265 21.793 54.2122 8.751 140.366)"><stop offset="0%" stop-color="#a75216"/><stop offset="100%" stop-color="#854000"/></radialGradient><radialGradient id="e" cx="0" cy="0" r="1" gradientUnits="userSpaceOnUse" gradientTransform="matrix(77.6924 -39.3656 19.6243 54.4044 14.512 169.417)"><stop offset="0%" stop-color="#ffd9b8"/><stop offset="100%" stop-color="#ffcd9e"/></radialGradient><radialGradient id="f" cx="0" cy="0" r="1" gradientUnits="userSpaceOnUse" gradientTransform="matrix(31.2337 11.8954 -12.2246 32.098 165.285 169.177)"><stop offset="0%" stop-color="gold"/><stop offset="100%" stop-color="#ffee95"/></radialGradient><radialGradient id="g" cx="0" cy="0" r="1" gradientUnits="userSpaceOnUse" gradientTransform="matrix(118.848 -.04411 .04352 17.5576 236.948 190.23)"><stop offset="0%" stop-color="#c9c9c9"/><stop offset="100%" stop-color="#707070"/></radialGradient><radialGradient id="h" cx="0" cy="0" r="1" gradientUnits="userSpaceOnUse" gradientTransform="matrix(109.785 -45.522 6.75921 16.2045 721.102 172.564)"><stop offset="0%" stop-color="#c9c9c9"/><stop offset="100%" stop-color="#707070"/></radialGradient><radialGradient id="i" cx="0" cy="0" r="1" gradientUnits="userSpaceOnUse" gradientTransform="matrix(109.818 45.4405 -6.6788 16.2378 720.925 210.869)"><stop offset="0%" stop-color="#c9c9c9"/><stop offset="100%" stop-color="#707070"/></radialGradient><radialGradient id="j" cx="0" cy="0" r="1" gradientUnits="userSpaceOnUse" gradientTransform="matrix(102.948 59.3859 -8.74111 15.2271 247.805 96.682)"><stop offset="0%" stop-color="#c9c9c9"/><stop offset="100%" stop-color="#707070"/></radialGradient><radialGradient id="k" cx="0" cy="0" r="1" gradientUnits="userSpaceOnUse" gradientTransform="matrix(102.904 -59.4623 8.81649 15.1836 248.035 284.789)"><stop offset="0%" stop-color="#c9c9c9"/><stop offset="100%" stop-color="#707070"/></radialGradient></defs></svg>