<svg viewBox="0 0 910 380" xmlns="http://www.w3.org/2000/svg" fill-rule="evenodd" clip-rule="evenodd" stroke-linecap="round" stroke-linejoin="round" stroke-miterlimit="1"><g stroke="#000" stroke-width="2.33"><path d="M21.584 249.913c-2.203 11 .561 31.734 2.4 32.418 21.939 8.154 45.741 6.341 58.703-.86 1.529-.85 3.775-14.17 2.467-31.986-20.459 7.658-40.05 7.714-63.57.428z" fill="url(#a)"/><path d="M29.666 190.553c-2.433-.873-20.333 4.415-21.393 9.154-2.349 10.495-1.541 42.2 3.62 45.34 14.512 8.829 49.873 16.822 79.002 1.385 1.605-.851 5.881-23.959 3.114-47.605-.342-2.923-25.567-10.158-27.596-8.827l-36.747.553z" fill="url(#b)"/><path d="M80.304 141.159c-2.813 3.79-57.557 1.64-58.336 2.622-2.16 2.719-10.514 53.043 27.219 54.135 44.114 1.276 32.485-58.598 31.117-56.757z" fill="url(#c)"/><path d="M4.387 130.723c-1.57.283-.613 12.443 23.025 19.918 31.159 9.852 67.677-8.343 70.616-26.925.132-.835-1.633-.795-4.438-.36-5.862.908-11.807 3.705-11.833 3.011-1.948-51.72-29.915-27.399-32.322-27.003-1.405.231-4.746-5.651-11.843-4.775-20.45 2.523-15.302 35.467-15.873 35.485-3.794.114-9.152-.823-17.332.649z" fill="url(#d)"/><path d="M64.802 157.355c2.355.022 4.246 2.386 4.22 5.277-.027 2.89-1.96 5.22-4.316 5.198-2.355-.021-4.246-2.386-4.219-5.276.026-2.891 1.96-5.22 4.315-5.199zM36.363 157.355c2.355-.019 4.286 2.313 4.31 5.203.023 2.891-1.87 5.253-4.226 5.272-2.355.019-4.286-2.312-4.31-5.203-.023-2.891 1.87-5.253 4.226-5.272z" stroke-miterlimit="1.414"/><path d="M44.9 172.01c1.567-1.812 5.497-5.643 10.544-1.003" fill="none"/><path d="M33.906 184.44c.45-.198 2.272-.96 4.057-2.44 2.139-1.774 3.129-3.399 3.147-3.385.02.014-3.061 3.881-3.061 3.881s5.377 3.016 12.118 2.969c6.74-.047 12.351-3.504 12.255-3.373-1.46 2.02-5.006 5.905-12.255 5.905-7.25-.001-11.23-4.962-12.329-5.313l-3.932 1.756z" stroke-miterlimit="1.414"/><path d="M8.63 198.862c14.224 7.825 30.728 12.44 43.827 11.888 23.88-1.007 36.957-9.227 40.445-11.733" fill="none"/><path d="M51.74 98.107c-2.311 1.391-5.283 3.224-9.17 7.334M98.031 123.356c-2.863 4.314-19.315 14.173-26.127 15.036M81.738 125.445c-.023 2.067.009 5.534-.526 8.619M21.775 129.754c0 1.107.514 3.678.636 4.31" fill="none" stroke-miterlimit="1.414"/></g><path d="M208.576 7.871l-60.771-.143-20.521 19.088-.095 82.416h81.387V7.871z" fill="#fff" stroke="#000" stroke-width="1.39" stroke-miterlimit="1.414"/><text x="151.526" y="73.224" font-family="'Times-Roman','Times'" font-size="49.045">C</text><path d="M148.113 22.785l8.717 1.789 8.06-5.228 7.012 4.383 7.887-5.474 6.895 4.466 6.968 2.436.797-2.936 6.376.564M134.94 31.586l10.406 2.683 7.01-5.169 7.163 2.906 4.164 3.669 4.895-5.558 10.741 4.514 9.066-6.885 6.742 5.155 5.698-1.315M134.94 80.925l8.184-4.173 6.263 8.6 8.93-4.098 6.682 4.409 5.651-9.154 2.769 2.939 11.255 4.617 5.435-4.663 5.701-1.34 5.015 4.641M134.94 91.36l8.188 3.875 5.077-1.119 7.878-6.171 10.927 3.975 11.738-5.402 1.964 6.061 18.014-3.305 2.099 2.086M134.94 100.005l11.012 4.482 9.967-6.125 6.894 3.64 7.153-6.871 7.343 10.227 9.323-8.941 7.612 6.895 6.581-3.307M148.286 14.308l3.027 1.937 5.068-2.732 5.361 1.66 12.088-3.914 12.507 6.961 7.013-6.99 7.475 3.078" fill="none" stroke="#000" stroke-width="1.09" stroke-miterlimit="1.414"/><path d="M148.016 7.728V26.72h-20.067" fill="none" stroke="#000" stroke-width="1.39" stroke-linecap="butt" stroke-miterlimit="1.414"/><path d="M208.576 138.818l-81.386.004-.001 101.357h81.387V138.818z" fill="#fff" stroke="#000" stroke-width="1.39" stroke-miterlimit="1.414"/><text x="133.492" y="193.921" font-family="'Times-Roman','Times'" font-size="19.654">ADATA</text><path d="M134.94 153.733h65.885M134.94 162.534h65.885M134.94 212.767h65.885M134.94 221.754h65.885M134.94 230.952h65.885M134.94 145.255h65.885" fill="none" stroke="#000" stroke-width="1.09" stroke-miterlimit="1.414"/><g><path d="M904.523 138.818l-60.771-.143-20.521 19.089-.095 82.415h81.387V138.818z" fill="#fff" stroke="#000" stroke-width="1.39" stroke-miterlimit="1.414"/><text x="850.191" y="204.172" font-family="'Times-Roman','Times'" font-size="49.045">P</text><path d="M844.06 153.733h52.712M830.887 162.534h65.885M830.887 212.767h65.885M830.887 221.754h65.885M830.887 230.952h65.885M844.232 145.255h52.54" fill="none" stroke="#000" stroke-width="1.09" stroke-miterlimit="1.414"/><path d="M843.963 138.675v18.992h-20.067" fill="none" stroke="#000" stroke-width="1.39" stroke-linecap="butt" stroke-miterlimit="1.414"/></g><g><path d="M208.576 266.631l-81.386.004-.001 101.357h81.387V266.631z" fill="#fff" stroke="#000" stroke-width="1.39" stroke-miterlimit="1.414"/><text x="136.062" y="325.687" font-family="'Times-Roman','Times'" font-size="30.966">TAG</text><path d="M134.94 281.546h65.885M134.94 290.347h65.885M134.94 340.58h65.885M134.94 349.567h65.885M134.94 358.765h65.885M134.94 273.068h65.885" fill="none" stroke="#000" stroke-width="1.09" stroke-miterlimit="1.414"/></g><g><path d="M237.265 183.71l-.054 13.015 59.712-2.394.015 13.227 26.222-17.716-26.343-17.4.027 13.725-59.579-2.457z" fill="url(#e)"/><path d="M297.049 171.427l.178.058.164.088 26.343 17.4.145.116.122.14.096.159.066.173.033.183.001.186-.032.183-.064.174-.093.16-.121.141-.144.117-26.221 17.716-.165.09-.177.06-.186.027-.188-.007-.183-.041-.173-.072-.157-.103-.136-.129-.111-.151-.082-.169-.05-.18-.017-.187-.014-12.144-58.63 2.35-.187-.009-.181-.042-.172-.074-.155-.104-.134-.129-.109-.152-.081-.169-.049-.18-.016-.186.054-13.015.018-.185.049-.179.081-.167.11-.15.134-.129.155-.102.171-.073.181-.042.186-.009 58.492 2.412-.024-12.637.016-.186.049-.18.081-.169.11-.151.135-.129.156-.103.172-.074.182-.042.187-.008.185.025zm-.205 14.74l-59.579-2.457-.054 13.015 59.712-2.394.015 13.227 26.222-17.716-26.343-17.4.027 13.725z"/></g><g><path d="M716.249 183.71l-.053 13.015 59.712-2.394.015 13.227 26.221-17.716-26.342-17.4.026 13.725-59.579-2.457z" fill="url(#f)"/><path d="M776.033 171.427l.178.058.165.088 26.342 17.4.145.116.123.14.095.159.066.173.034.183.001.186-.032.183-.064.174-.094.16-.121.141-.144.117-26.221 17.716-.164.09-.178.06-.186.027-.187-.007-.183-.041-.173-.072-.157-.103-.136-.129-.111-.151-.082-.169-.051-.18-.017-.187-.014-12.144-58.63 2.35-.186-.009-.182-.042-.171-.074-.156-.104-.134-.129-.109-.152-.08-.169-.049-.18-.016-.186.054-13.015.017-.185.05-.179.081-.167.109-.15.135-.129.155-.102.17-.073.182-.042.185-.009 58.493 2.412-.025-12.637.016-.186.05-.18.081-.169.109-.151.135-.129.156-.103.172-.074.182-.042.187-.008.185.025zm-.205 14.74l-59.579-2.457-.053 13.015 59.712-2.394.015 13.227 26.221-17.716-26.342-17.4.026 13.725z"/></g><g><path d="M251.34 91.193l-6.554 11.244 52.908 27.784-6.599 11.462 31.565-2.232-14.113-28.24-6.839 11.899-50.368-31.917z" fill="url(#g)"/><path d="M251.425 90.155l.165.027.159.053.148.078 49.45 31.335 6.297-10.956.098-.142.12-.124.139-.102.154-.078.165-.051.171-.024.173.005.169.034.161.061.149.086.133.111.113.13.09.148 14.113 28.24.063.158.037.166.01.17-.019.169-.046.164-.072.154-.096.141-.118.123-.136.102-.151.078-.162.053-.168.026-31.566 2.232-.173-.003-.171-.03-.163-.059-.15-.085-.135-.109-.115-.129-.092-.147-.066-.16-.039-.169-.011-.172.019-.173.046-.166.074-.157 6.059-10.524-51.95-27.279-.142-.09-.125-.112-.107-.13-.083-.146-.06-.157-.033-.165-.006-.168.021-.166.047-.162.073-.151 6.554-11.245.095-.137.117-.12.134-.1.148-.078.159-.052.165-.027.167.001zm-6.639 12.282l52.908 27.784-6.599 11.462 31.565-2.232-14.113-28.24-6.839 11.899-50.368-31.917-6.554 11.244z"/></g><g><path d="M245.049 278.984l6.461 11.298 50.516-31.929 6.626 11.447 13.851-28.453-31.514-1.897 6.886 11.872-52.826 27.662z" fill="url(#h)"/><path d="M322.565 240.307l.169.025.162.051.152.077.137.101.119.121.098.14.073.153.048.164.02.169-.007.17-.035.166-.062.159-13.85 28.453-.089.148-.112.133-.132.111-.149.089-.161.062-.17.035-.173.006-.172-.022-.165-.051-.155-.077-.14-.103-.121-.123-.099-.142-6.084-10.51-49.6 31.35-.149.078-.16.053-.165.027h-.168l-.166-.027-.16-.054-.148-.078-.134-.102-.116-.121-.095-.139-6.461-11.298-.071-.152-.046-.161-.02-.166.008-.167.033-.164.06-.156.084-.145.106-.129.125-.111.142-.089 51.862-27.157-6.34-10.932-.074-.156-.047-.166-.019-.171.01-.173.038-.168.065-.16.09-.147.114-.13.133-.109.15-.086.162-.06.169-.032.173-.004 31.513 1.897zm-24.69 11.015l-52.826 27.662 6.461 11.298 50.516-31.929 6.626 11.447 13.851-28.453-31.514-1.897 6.886 11.872z"/></g><path stroke="#fff" stroke-width="4" stroke-miterlimit="1.414" d="M343.899 109.111h351.196v160.774H343.899z"/><g font-family="Helvetica" font-size="12" fill="#fff"><text x="408.701" y="168.323" transform="translate(-1459.41 -608.004) scale(4.65582)">AEAD</text><text x="397.357" y="180.323" transform="translate(-1459.41 -608.004) scale(4.65582)">decryption</text></g><defs><radialGradient id="a" cx="0" cy="0" r="1" gradientUnits="userSpaceOnUse" gradientTransform="matrix(57.2105 -53.8148 43.4278 29.5176 72.597 264.973)"><stop offset="0%" stop-color="#2531dc"/><stop offset="100%" stop-color="#969bee"/></radialGradient><radialGradient id="b" cx="0" cy="0" r="1" gradientUnits="userSpaceOnUse" gradientTransform="matrix(93.3176 -58.3158 43.3353 69.3456 78.136 216.704)"><stop offset="0%" stop-color="#2531dc"/><stop offset="100%" stop-color="#969bee"/></radialGradient><linearGradient id="c" x2="1" gradientUnits="userSpaceOnUse" gradientTransform="scale(79.7884) rotate(-31.346 4.193 .733)"><stop offset="0%" stop-color="#dbbb9c"/><stop offset="56%" stop-color="#d0a67c"/><stop offset="100%" stop-color="#cb9d6e"/></linearGradient><radialGradient id="d" cx="0" cy="0" r="1" gradientUnits="userSpaceOnUse" gradientTransform="matrix(-68.4029 38.4929 -24.4463 -43.4418 79.63 105.739)"><stop offset="0%" stop-color="#d7c447"/><stop offset="100%" stop-color="#e6d38c"/></radialGradient><radialGradient id="e" cx="0" cy="0" r="1" gradientUnits="userSpaceOnUse" gradientTransform="matrix(118.848 -.04411 .04352 17.5576 236.948 190.23)"><stop offset="0%" stop-color="#c9c9c9"/><stop offset="100%" stop-color="#707070"/></radialGradient><radialGradient id="f" cx="0" cy="0" r="1" gradientUnits="userSpaceOnUse" gradientTransform="matrix(118.848 -.04411 .04352 17.5576 715.932 190.23)"><stop offset="0%" stop-color="#c9c9c9"/><stop offset="100%" stop-color="#707070"/></radialGradient><radialGradient id="g" cx="0" cy="0" r="1" gradientUnits="userSpaceOnUse" gradientTransform="matrix(102.948 59.3859 -8.74111 15.2271 247.805 96.682)"><stop offset="0%" stop-color="#c9c9c9"/><stop offset="100%" stop-color="#707070"/></radialGradient><radialGradient id="h" cx="0" cy="0" r="1" gradientUnits="userSpaceOnUse" gradientTransform="matrix(102.904 -59.4623 8.81649 15.1836 248.035 284.789)"><stop offset="0%" stop-color="#c9c9c9"/><stop offset="100%" stop-color="#707070"/></radialGradient></defs></svg>