<svg viewBox="0 0 910 380" xmlns="http://www.w3.org/2000/svg" fill-rule="evenodd" clip-rule="evenodd" stroke-linecap="round" stroke-linejoin="round" stroke-miterlimit="1.414"><g stroke="#000" stroke-width="2.33"><path d="M82.585 248.664c-21.588-5.425-40.416-5.654-63.163-.096-4.638 18.187 2.631 31.254 2.631 31.254 13.786 7.446 46.129 6.794 58.93-.005 0 0 6.81-14.097 1.602-31.153z" fill="url(#a)"/><path d="M90.085 192.417c-7.804-11.702-66.473-11.35-74.715.002-11.849 16.318-8.57 47.928-8.281 48.525 8.14 16.81 82.579 15.612 87.94.857 3.156-8.686 2.024-38.936-4.944-49.384z" fill="url(#b)"/><path d="M23.891 172.234c-1.207.096-11.962 4.178-11.113 6.3.331.826 4.264.377 4.377.6.035.068-3.392 3.739-1.2 5.866 5.106 4.954 13.2 1.444 13.767 2.585 2.076 4.178 14.203 4.761 18.782 2.558 5.077-2.444 6.563-2.611 8.923-2.558 2.617.059 5.212 3.176 10.27 2.558 3.796-.464 4.329-2.596 9.725-1.265 10.811 2.668 12.751-3.037 5.303-7.236-.795-.448 1.752.488 4.34-2.095.657-.655.2-4.105-8.068-5.283" fill="url(#c)"/><path d="M14.512 152.65c-29.505-29.633 9.953-65.041 35.39-53.916 3.596 1.573 20.568-11.763 35.99 3.24 16.313 15.87 6.111 30.475 4.63 31.443" fill="url(#d)"/><path d="M22.36 123.659c-22.283 19.238-4.555 57.538 27.513 57.924 7.323.088 26.224 1.578 37.117-17.88 8.492-15.169 5.938-32.223-2.806-39.037-.674-.525-6.016 5.352-12.733 5.876-8.729.68-15.277-5.378-15.284-5.366-2.794 4.877-15.02 6.883-19.93 5.954-8.967-1.696-13.333-7.571-13.877-7.471z" fill="url(#e)"/><path d="M45.092 151.622c2.876-4.538 11.608-3.25 14.355-.59M35.33 165.377c1.747-2.835 3.744-4.693 6.464-5.624M39.078 162.469c8.102 7.596 22.286 4.253 25.62.322M63.168 159c1.618 1.923 2.175 3.656 1.53 7.406" fill="none"/><ellipse cx="36.793" cy="140.29" rx="3.488" ry="4.56"/><ellipse cx="66.653" cy="140.29" rx="3.488" ry="4.56"/></g><path d="M208.576 7.871l-60.771-.143-20.521 19.088-.095 82.416h81.387V7.871z" fill="#fff" stroke="#000" stroke-width="1.39"/><text x="154.244" y="73.224" font-family="'Times-Roman','Times'" font-size="49.045">P</text><path d="M148.113 22.785h52.712M134.94 31.586h65.885M134.94 81.82h65.885M134.94 90.807h65.885M134.94 100.005h65.885M148.286 14.308h52.539" fill="none" stroke="#000" stroke-width="1.09"/><path d="M148.016 7.728V26.72h-20.067" fill="none" stroke="#000" stroke-width="1.39" stroke-linecap="butt"/><path d="M901.061 73.187l-60.77-.143-20.521 19.089-.096 82.415h81.387V73.187z" fill="#fff" stroke="#000" stroke-width="1.39"/><text x="844.011" y="138.541" font-family="'Times-Roman','Times'" font-size="49.045">C</text><path d="M840.598 88.102l8.717 1.789 8.06-5.229 7.012 4.384 7.887-5.475 6.895 4.467 6.968 2.436.797-2.936 6.376.564M827.426 96.903l10.405 2.683 7.01-5.169 7.164 2.905 4.164 3.669 4.894-5.557 10.741 4.514 9.067-6.885 6.741 5.154 5.698-1.314M827.426 146.242l8.183-4.174 6.263 8.601 8.931-4.098 6.681 4.409 5.652-9.154 2.768 2.939 11.255 4.617 5.436-4.663 5.701-1.34 5.014 4.641M827.426 156.676l8.188 3.876 5.076-1.119 7.879-6.172 10.926 3.976 11.739-5.402 1.963 6.061 18.014-3.306 2.099 2.086M827.426 165.322l11.011 4.482 9.967-6.126 6.895 3.641 7.152-6.872 7.343 10.228 9.323-8.942 7.612 6.895 6.581-3.306M840.771 79.624l3.027 1.938 5.069-2.732 5.36 1.66 12.088-3.915 12.508 6.962 7.012-6.99 7.475 3.077" fill="none" stroke="#000" stroke-width="1.09"/><path d="M840.502 73.044v18.992h-20.068" fill="none" stroke="#000" stroke-width="1.39" stroke-linecap="butt"/><g><path d="M901.069 209.117l-81.386.004-.001 101.357h81.387V209.117z" fill="#fff" stroke="#000" stroke-width="1.39"/><text x="828.555" y="268.173" font-family="'Times-Roman','Times'" font-size="30.966">TAG</text><path d="M827.433 224.032h65.885M827.433 232.833h65.885M827.433 283.066h65.885M827.433 292.054h65.885M827.433 301.252h65.885M827.433 215.554h65.885" fill="none" stroke="#000" stroke-width="1.09"/></g><g stroke="#000"><path d="M173.37 180.182c-.137-.204.067-.488.129-.726.147-.56.349-1.105.496-1.665.642-2.439.986-4.914 1.082-7.444.842-22.208-31.56-30.803-42.851-10.743-2.83 5.027-4.033 10.942-3.102 16.614.497 3.027 1.558 5.99 3.23 8.572 4.102 6.334 12.13 10.557 19.714 9.748 3.083-.329 3.297-.474 6.17-1.139.759-.176 2.694-.873 3.708-.533.71.238.863.979.833 1.638-.037.817-.229 1.154-.546 1.936-.314.778-.841 1.621-.207 2.4.142.174.311.327.495.455.246.17.508.324.787.434 1.216.476 2.11-.283 3.069-.925.375-.252.695-.626 1.13-.748.184-.052.341.174.492.291.389.302.76.626 1.122.959a178.588 178.588 0 0 1 3.778 3.556 1157.337 1157.337 0 0 1 22.495 22.59c1.924 1.986 3.751 4.065 5.689 6.038.264.268 1.137.343 1.365.352 2.188.096 3.189.036 5.386-.265.527-.072 1.834-.218 2.074-.876.223-.614.227-2.092.222-2.404-.029-1.55-.114-3.099-.21-4.646-.029-.474-.526-.509-.582-.942-.084-.654.149-2.084-.423-2.594-.328-.293-2.495-.259-2.809-.658-.048-.06-1.135-4.089-1.297-4.578-.12-.361-.204-.753-.439-1.052-.127-.161-.369-.193-.57-.229-.683-.123-1.552.216-2.047-.451-.674-.908-.033-2.256-.88-3.088-1.374-1.351-3.73-.566-5.33-1.413-.687-.363-.681-1.17-.789-1.814-.143-.856-.206-1.375-.941-1.882-1.374-.95-3.474-.258-4.634-1.596-1.329-1.534-.936-3.531-1.408-5.347-.232-.89-.967-1.098-1.778-1.242-.378-.068-1.054-.005-1.235-.495-.415-1.119-.074-2.342-.347-3.48-.074-.307-.324-.545-.515-.796-1.15-1.509-4.557-5.265-5.012-5.771-.458-.507 3.386-2.519 1.289-4.615-1.874-1.872-4.049 1.581-4.581.999-1.219-1.333-2.222-2.425-2.222-2.425zM145.559 158.1c3.675 0 6.659 2.886 6.659 6.441 0 3.555-2.984 6.441-6.659 6.441s-6.659-2.886-6.659-6.441c0-3.555 2.984-6.441 6.659-6.441z" fill="url(#f)" stroke-width="1.16"/><path d="M161.209 186.652l44.337 44.803M165.13 183.293l44.694 43.67" fill="none" stroke-width=".99"/></g><g><path d="M208.576 266.631l-81.386.004-.001 101.357h81.387V266.631z" fill="#fff" stroke="#000" stroke-width="1.39"/><text x="133.492" y="321.734" font-family="'Times-Roman','Times'" font-size="19.654">ADATA</text><path d="M134.94 281.546h65.885M134.94 290.347h65.885M134.94 340.58h65.885M134.94 349.567h65.885M134.94 358.765h65.885M134.94 273.068h65.885" fill="none" stroke="#000" stroke-width="1.09"/></g><g><path d="M237.265 183.71l-.054 13.015 59.712-2.394.015 13.227 26.222-17.716-26.343-17.4.027 13.725-59.579-2.457z" fill="url(#g)"/><path d="M297.049 171.427l.178.058.164.088 26.343 17.4.145.116.122.14.096.159.066.173.033.183.001.186-.032.183-.064.174-.093.16-.121.141-.144.117-26.221 17.716-.165.09-.177.06-.186.027-.188-.007-.183-.041-.173-.072-.157-.103-.136-.129-.111-.151-.082-.169-.05-.18-.017-.187-.014-12.144-58.63 2.35-.187-.009-.181-.042-.172-.074-.155-.104-.134-.129-.109-.152-.081-.169-.049-.18-.016-.186.054-13.015.018-.185.049-.179.081-.167.11-.15.134-.129.155-.102.171-.073.181-.042.186-.009 58.492 2.412-.024-12.637.016-.186.049-.18.081-.169.11-.151.135-.129.156-.103.172-.074.182-.042.187-.008.185.025zm-.205 14.74l-59.579-2.457-.054 13.015 59.712-2.394.015 13.227 26.222-17.716-26.343-17.4.027 13.725z"/></g><g><path d="M718.899 166.418l4.931 12.045 54.251-25.062 5.076 12.214 17.445-26.402-30.995-5.994 5.276 12.669-55.984 20.53z" fill="url(#h)"/><path d="M769.804 132.196l30.996 5.995.164.046.154.072.141.096.123.117.102.137.079.151.053.162.025.168-.001.17-.03.168-.057.16-.082.15-17.445 26.401-.107.136-.129.116-.145.094-.16.068-.168.041-.173.012-.172-.016-.167-.045-.158-.072-.143-.097-.126-.119-.104-.139-.079-.154-4.66-11.213-53.268 24.608-.158.058-.165.031-.168.005-.166-.022-.161-.049-.151-.074-.137-.097-.12-.118-.099-.136-.076-.149-4.931-12.045-.051-.16-.024-.165.002-.168.029-.164.055-.158.08-.147.102-.133.122-.114.139-.094.151-.07 54.964-20.155-4.859-11.666-.053-.164-.025-.171.003-.172.032-.17.06-.162.085-.15.109-.134.13-.114.147-.091.159-.065.168-.038.173-.01.171.018zm5.079 13.692l-55.984 20.53 4.931 12.045 54.251-25.062 5.076 12.214 17.445-26.402-30.995-5.994 5.276 12.669z"/></g><g><path d="M723.714 204.966l-5.031 12.004 56.083 20.639-5.047 12.226 31.004-6.333-17.678-26.156-5.228 12.69-54.103-25.07z" fill="url(#i)"/><path d="M723.83 203.931l.165.032.157.058 53.116 24.612 4.813-11.684.079-.153.103-.139.125-.119.142-.098.157-.072.166-.046.172-.018.172.012.168.039.159.066.147.092.128.115.109.135 17.678 26.156.084.148.058.16.031.168.004.17-.024.168-.051.163-.077.151-.101.138-.122.119-.139.097-.154.074-.163.048-31.005 6.332-.172.021-.173-.009-.169-.037-.161-.064-.148-.09-.13-.114-.111-.133-.086-.15-.061-.162-.033-.17-.004-.173.024-.172.053-.165 4.634-11.224-55.066-20.266-.153-.071-.139-.094-.122-.115-.102-.133-.08-.149-.054-.159-.028-.165-.001-.168.025-.166.053-.16 5.03-12.004.077-.149.099-.134.12-.117.137-.096.151-.072.16-.048.166-.022.167.006zm-5.147 13.039l56.083 20.639-5.047 12.226 31.004-6.333-17.678-26.156-5.228 12.69-54.103-25.07-5.031 12.004z"/></g><g><path d="M251.34 91.193l-6.554 11.244 52.908 27.784-6.599 11.462 31.565-2.232-14.113-28.24-6.839 11.899-50.368-31.917z" fill="url(#j)"/><path d="M251.425 90.155l.165.027.159.053.148.078 49.45 31.335 6.297-10.956.098-.142.12-.124.139-.102.154-.078.165-.051.171-.024.173.005.169.034.161.061.149.086.133.111.113.13.09.148 14.113 28.24.063.158.037.166.01.17-.019.169-.046.164-.072.154-.096.141-.118.123-.136.102-.151.078-.162.053-.168.026-31.566 2.232-.173-.003-.171-.03-.163-.059-.15-.085-.135-.109-.115-.129-.092-.147-.066-.16-.039-.169-.011-.172.019-.173.046-.166.074-.157 6.059-10.524-51.95-27.279-.142-.09-.125-.112-.107-.13-.083-.146-.06-.157-.033-.165-.006-.168.021-.166.047-.162.073-.151 6.554-11.245.095-.137.117-.12.134-.1.148-.078.159-.052.165-.027.167.001zm-6.639 12.282l52.908 27.784-6.599 11.462 31.565-2.232-14.113-28.24-6.839 11.899-50.368-31.917-6.554 11.244z"/></g><g><path d="M245.049 278.984l6.461 11.298 50.516-31.929 6.626 11.447 13.851-28.453-31.514-1.897 6.886 11.872-52.826 27.662z" fill="url(#k)"/><path d="M322.565 240.307l.169.025.162.051.152.077.137.101.119.121.098.14.073.153.048.164.02.169-.007.17-.035.166-.062.159-13.85 28.453-.089.148-.112.133-.132.111-.149.089-.161.062-.17.035-.173.006-.172-.022-.165-.051-.155-.077-.14-.103-.121-.123-.099-.142-6.084-10.51-49.6 31.35-.149.078-.16.053-.165.027h-.168l-.166-.027-.16-.054-.148-.078-.134-.102-.116-.121-.095-.139-6.461-11.298-.071-.152-.046-.161-.02-.166.008-.167.033-.164.06-.156.084-.145.106-.129.125-.111.142-.089 51.862-27.157-6.34-10.932-.074-.156-.047-.166-.019-.171.01-.173.038-.168.065-.16.09-.147.114-.13.133-.109.15-.086.162-.06.169-.032.173-.004 31.513 1.897zm-24.69 11.015l-52.826 27.662 6.461 11.298 50.516-31.929 6.626 11.447 13.851-28.453-31.514-1.897 6.886 11.872z"/></g><path stroke="#fff" stroke-width="4" d="M343.899 109.111h351.196v160.774H343.899z"/><g font-family="Helvetica" font-size="12" fill="#fff"><text x="408.701" y="168.323" transform="translate(-1459.41 -608.004) scale(4.65582)">AEAD</text><text x="397.357" y="180.323" transform="translate(-1459.41 -608.004) scale(4.65582)">encryption</text></g><defs><radialGradient id="a" cx="0" cy="0" r="1" gradientUnits="userSpaceOnUse" gradientTransform="matrix(65.67 -28.0748 16.5876 38.8002 21.381 276.36)"><stop offset="0%" stop-color="#d3799a"/><stop offset="100%" stop-color="#c24774"/></radialGradient><radialGradient id="b" cx="0" cy="0" r="1" gradientUnits="userSpaceOnUse" gradientTransform="matrix(85.4095 -50.0002 21.5736 69.1017 12.16 237.668)"><stop offset="0%" stop-color="#d3799a"/><stop offset="100%" stop-color="#c24774"/></radialGradient><radialGradient id="c" cx="0" cy="0" r="1" gradientUnits="userSpaceOnUse" gradientTransform="matrix(68.1564 -12.7743 17.2156 17.6545 17.216 187.083)"><stop offset="0%" stop-color="#cda3ca"/><stop offset="100%" stop-color="#b87db4"/></radialGradient><radialGradient id="d" cx="0" cy="0" r="1" gradientUnits="userSpaceOnUse" gradientTransform="matrix(86.2781 -39.2265 21.793 54.2122 8.751 140.366)"><stop offset="0%" stop-color="#a75216"/><stop offset="100%" stop-color="#854000"/></radialGradient><radialGradient id="e" cx="0" cy="0" r="1" gradientUnits="userSpaceOnUse" gradientTransform="matrix(77.6924 -39.3656 19.6243 54.4044 14.512 169.417)"><stop offset="0%" stop-color="#ffd9b8"/><stop offset="100%" stop-color="#ffcd9e"/></radialGradient><radialGradient id="f" cx="0" cy="0" r="1" gradientUnits="userSpaceOnUse" gradientTransform="matrix(31.2337 11.8954 -12.2246 32.098 165.285 169.177)"><stop offset="0%" stop-color="gold"/><stop offset="100%" stop-color="#ffee95"/></radialGradient><radialGradient id="g" cx="0" cy="0" r="1" gradientUnits="userSpaceOnUse" gradientTransform="matrix(118.848 -.04411 .04352 17.5576 236.948 190.23)"><stop offset="0%" stop-color="#c9c9c9"/><stop offset="100%" stop-color="#707070"/></radialGradient><radialGradient id="h" cx="0" cy="0" r="1" gradientUnits="userSpaceOnUse" gradientTransform="matrix(109.785 -45.522 6.75921 16.2045 721.102 172.564)"><stop offset="0%" stop-color="#c9c9c9"/><stop offset="100%" stop-color="#707070"/></radialGradient><radialGradient id="i" cx="0" cy="0" r="1" gradientUnits="userSpaceOnUse" gradientTransform="matrix(109.818 45.4405 -6.6788 16.2378 720.925 210.869)"><stop offset="0%" stop-color="#c9c9c9"/><stop offset="100%" stop-color="#707070"/></radialGradient><radialGradient id="j" cx="0" cy="0" r="1" gradientUnits="userSpaceOnUse" gradientTransform="matrix(102.948 59.3859 -8.74111 15.2271 247.805 96.682)"><stop offset="0%" stop-color="#c9c9c9"/><stop offset="100%" stop-color="#707070"/></radialGradient><radialGradient id="k" cx="0" cy="0" r="1" gradientUnits="userSpaceOnUse" gradientTransform="matrix(102.904 -59.4623 8.81649 15.1836 248.035 284.789)"><stop offset="0%" stop-color="#c9c9c9"/><stop offset="100%" stop-color="#707070"/></radialGradient></defs></svg>