<svg viewBox="0 0 1000 1200" xmlns="http://www.w3.org/2000/svg" fill-rule="evenodd" clip-rule="evenodd" stroke-linecap="round" stroke-linejoin="round" stroke-miterlimit="1.414"><path d="M910.013 89.362L90 89.4l-.013 1021.24h820.026V89.36z" fill="#fff" stroke="#000" stroke-width="14"/><path d="M442.694 725.643c3.941 2.573 12.104 3.86 24.491 3.86 38.606 0 70.376-7.641 95.309-22.922 38.285-23.486 57.427-63.62 57.427-120.404 0-50.671-15.764-88.795-47.293-114.371-27.024-21.877-62.816-32.816-107.374-32.816-11.099 0-18.619 1.207-22.56 3.62-3.941 2.412-5.912 7.721-5.912 15.925v251.182c0 8.043 1.971 13.352 5.912 15.926zm-99.532 13.271c18.016-1.931 29.759-5.188 35.228-9.773 5.469-4.584 8.204-16.206 8.204-34.866V474.46c0-18.017-2.654-29.598-7.963-34.746-5.308-5.147-17.131-8.365-35.469-9.652v-9.169h133.192c44.88 0 82.842 7.4 113.888 22.199 55.98 26.542 83.969 73.996 83.969 142.361 0 24.612-5.027 48.017-15.08 70.216-10.054 22.198-25.215 40.938-45.483 56.22-12.869 9.652-26.221 16.971-40.055 21.957-25.255 9.33-56.301 13.995-93.137 13.995H343.162v-8.927z" fill-rule="nonzero"/><path d="M148.1 253.077l90.586-49.099 76.643 61.018 73.31-29.942 81.204 52.681 70.651-44.166 79.467 55.158 69.475-45.001 70.208-24.545 8.031 29.58 64.24-5.684M148.1 131.312l70.695 43.526 66.908-14.139 57.857 28.749 72.176-29.27 41.953-36.969 49.317 55.996 108.218-45.481 91.355 69.367 67.927-51.933 57.409 13.244M168.085 1027.11l82.455 42.052 63.104-86.655 89.979 41.293 67.322-44.424 56.942 92.231 27.893-29.616 113.406-46.517 54.764 46.984 57.44 13.501 50.525-46.76M168.085 921.98l82.5-39.049 51.149 11.275 79.38 62.181 110.091-40.057 118.275 54.428 19.782-61.067 181.502 33.305 21.151-21.016M168.085 834.871l110.95-45.162 100.42 61.721 69.469-36.683 72.068 69.238 73.982-103.048 93.938 90.089 76.694-69.472 66.309 33.317M148.132 361.709l80.961-48.793 100.525 36.614 83.282-41.962 50.895 42.937 96.125 18.711 84.65-23.54 41.374-46.602 70.657 70.431 75.314-31.009" fill="none" stroke="#000" stroke-width="11"/></svg>