<svg viewBox="0 0 1000 1200" xmlns="http://www.w3.org/2000/svg" fill-rule="evenodd" clip-rule="evenodd" stroke-linecap="round" stroke-linejoin="round" stroke-miterlimit="1.414"><path d="M910.013 89.362L90 89.4l-.013 1021.24h820.026V89.36z" fill="#fff" stroke="#ff2c2d" stroke-width="14"/><path d="M442.625 725.611c3.953 2.595 12.107 3.871 24.502 3.871 38.586 0 70.377-7.618 95.29-22.937 38.298-23.473 57.447-63.582 57.447-120.37 0-50.692-15.772-88.825-47.316-114.398-27.014-21.866-62.8-32.82-107.357-32.82-11.118 0-18.613 1.235-22.566 3.624-3.954 2.43-5.93 7.741-5.93 15.936v251.199c0 8.03 1.976 13.342 5.93 15.895zm-99.533 13.302c18.037-1.936 29.774-5.19 35.21-9.801 5.476-4.571 8.235-16.184 8.235-34.839v-219.82c0-18.036-2.676-29.608-7.989-34.755-5.312-5.148-17.13-8.36-35.456-9.636v-9.183H476.27c44.886 0 82.854 7.412 113.904 22.196 55.964 26.56 83.966 74 83.966 142.36 0 24.625-5.024 48.015-15.072 70.211-10.048 22.196-25.202 40.933-45.504 56.211-12.848 9.678-26.19 17.008-40.027 21.99-25.284 9.307-56.293 13.96-93.15 13.96H343.093v-8.894z" fill="none"/><path d="M442.625 725.611c3.953 2.595 12.107 3.871 24.502 3.871 38.586 0 70.377-7.618 95.29-22.937 38.298-23.473 57.447-63.582 57.447-120.37 0-50.692-15.772-88.825-47.316-114.398-27.014-21.866-62.8-32.82-107.357-32.82-11.118 0-18.613 1.235-22.566 3.624-3.954 2.43-5.93 7.741-5.93 15.936v251.199c0 8.03 1.976 13.342 5.93 15.895zm-99.533 13.302c18.037-1.936 29.774-5.19 35.21-9.801 5.476-4.571 8.235-16.184 8.235-34.839v-219.82c0-18.036-2.676-29.608-7.989-34.755-5.312-5.148-17.13-8.36-35.456-9.636v-9.183H476.27c44.886 0 82.854 7.412 113.904 22.196 55.964 26.56 83.966 74 83.966 142.36 0 24.625-5.024 48.015-15.072 70.211-10.048 22.196-25.202 40.933-45.504 56.211-12.848 9.678-26.19 17.008-40.027 21.99-25.284 9.307-56.293 13.96-93.15 13.96H343.093v-8.894z" fill="#ff2c2d" fill-rule="nonzero" stroke="#ff2c2d" stroke-width=".8236020000000001" stroke-linecap="butt"/><path d="M148.1 253.077l90.586-49.099 76.643 61.018 73.31-29.942 81.204 52.681 70.651-44.166 79.467 55.158 69.475-45.001 70.208-24.545 8.031 29.58 64.24-5.684M148.1 131.312l70.695 43.526 66.908-14.139 57.857 28.749 72.176-29.27 41.953-36.969 49.317 55.996 108.218-45.481 91.355 69.367 67.927-51.933 57.409 13.244M168.085 1027.11l82.455 42.052 63.104-86.655 89.979 41.293 67.322-44.424 56.942 92.231 27.893-29.616 113.406-46.517 54.764 46.984 57.44 13.501 50.525-46.76M168.085 921.98l82.5-39.049 51.149 11.275 79.38 62.181 110.091-40.057 118.275 54.428 19.782-61.067 181.502 33.305 21.151-21.016M168.085 834.871l110.95-45.162 100.42 61.721 69.469-36.683 72.068 69.238 73.982-103.048 93.938 90.089 76.694-69.472 66.309 33.317M148.132 361.709l80.961-48.793 100.525 36.614 83.282-41.962 50.895 42.937 96.125 18.711 84.65-23.54 41.374-46.602 70.657 70.431 75.314-31.009" fill="none" stroke="#ff2c2d" stroke-width="11"/></svg>