<svg viewBox="0 0 600 1200" xmlns="http://www.w3.org/2000/svg" fill-rule="evenodd" clip-rule="evenodd" stroke-linecap="round" stroke-linejoin="round" stroke-miterlimit="1.414"><g stroke="#000" stroke-width="14"><path d="M550 215C516.722 42.191 362.692 23.021 300 23.142 237.308 23.263 79.787 45.998 50 215 28.337 337.906 82.623 473.858 80 500c-5.684 56.652-70 13.479-70 13.479S31.044 575.929 85 600c116.397 51.926 130.481-50.813 140-75 1.162-2.953-1.467.705 0 0 43.78-21.031 148.024-.795 150 0 8.71 3.504 5.296 134.154 140 75 61.698-27.094 75-86.521 75-86.521S524.067 551.27 520 500c-2.297-28.956 52.813-166.533 30-285z" fill="url(#a)"/><path d="M475 950c-130.673-34.13-213.514-33.345-350 0 7.32 145.385 50 190 50 190 74.046 35.818 194.967 33.385 250 0 0 0 42.284-38.382 50-190z" fill="url(#b)"/><path d="M530 924.994c.093 24.576-114.991 74.716-230 75.006-113.885.288-229.503-49.025-230-75.006-2.713-141.736 62.192-392.919 230-394.187 167.808-1.268 229.437 245.522 230 394.187z" fill="url(#c)"/><path d="M117.59 290.108C117.377 608.842 286.172 600.144 300 600c13.828-.144 181.708 9.081 179.169-309.892 0 0-66.35-69.047-179.169-66.762-112.819 2.284-182.41 66.762-182.41 66.762z" fill="url(#d)"/><path d="M283.203 444.614c9.931-9.325 21.414-9.856 33.513-5.077M363.935 520.198c-27.365 33.256-77.858 18.241-80.732 15.177M356.341 380.974c13.378-20.994 31.051-31.947 60.101-30.631" fill="none"/><path d="M207.637 341.049c11.508-.997 21.909 10.408 23.213 25.452 1.304 15.045-6.98 28.069-18.487 29.066-11.508.998-21.909-10.407-23.213-25.451-1.304-15.045 6.98-28.069 18.487-29.067z"/></g><defs><radialGradient id="a" cx="0" cy="0" r="1" gradientUnits="userSpaceOnUse" gradientTransform="matrix(593.801 -302.381 149.988 417.9 -3.87 352.318)"><stop offset="0%" stop-color="#fdf8eb"/><stop offset="100%" stop-color="#f2da91"/></radialGradient><radialGradient id="b" cx="0" cy="0" r="1" gradientUnits="userSpaceOnUse" gradientTransform="matrix(389.844 -154.261 98.4707 213.194 110.976 1100)"><stop offset="0%" stop-color="#b3f"/><stop offset="100%" stop-color="#410062"/></radialGradient><radialGradient id="c" cx="0" cy="0" r="1" gradientUnits="userSpaceOnUse" gradientTransform="matrix(512.457 300.001 129.442 -414.61 51.484 659.071)"><stop offset="0%" stop-color="#b3f"/><stop offset="100%" stop-color="#410062"/></radialGradient><radialGradient id="d" cx="0" cy="0" r="1" gradientUnits="userSpaceOnUse" gradientTransform="matrix(466.155 -266.118 117.746 367.782 71.439 517.341)"><stop offset="0%" stop-color="#ffd9b8"/><stop offset="100%" stop-color="#ffcd9e"/></radialGradient></defs></svg>