<svg viewBox="0 0 1000 1200" xmlns="http://www.w3.org/2000/svg" fill-rule="evenodd" clip-rule="evenodd" stroke-linecap="round" stroke-linejoin="round" stroke-miterlimit="1.414"><path d="M910.013 89.362L90.948 89.4l-.961 1021.24h820.026V89.36z" fill="#fff" stroke="#000" stroke-width="14"/><path d="M306.304 740.678c-5.313 5.147-11.572 7.742-18.82 7.742-7.577 0-13.919-2.554-19.066-7.619-5.148-5.065-7.742-11.283-7.742-18.695 0-7.413 2.677-13.631 7.989-18.696 5.312-5.065 11.407-7.619 18.325-7.619 7.413 0 13.795 2.595 19.19 7.742 5.395 5.148 8.071 11.325 8.071 18.573 0 7.247-2.635 13.424-7.947 18.572zm45.01-309.798c16.307 13.836 24.46 33.067 24.46 57.652 0 20.92-12.312 46.904-36.897 77.954-26.89 33.768-42.621 65.847-47.316 96.279h-8.689c0-5.971.906-14.372 2.677-25.243 1.77-10.83 3.953-20.385 6.506-28.58 2.595-8.194 9.101-24.213 19.56-48.015 5.313-12.066 9.76-24.173 13.384-36.321 3.624-12.148 5.436-23.267 5.436-33.397 0-17.214-4.447-32.574-13.301-46.08-8.813-13.55-22.731-20.303-41.715-20.303-13.055 0-24.008 3.5-32.945 10.501-8.936 7-13.383 13.63-13.383 19.931 0 3.542 3.294 9.019 9.883 16.514 6.589 7.494 9.883 14.454 9.883 20.878 0 5.312-1.976 9.966-5.888 14.001-3.954 3.995-8.73 6.013-14.372 6.013-6.424 0-12.23-2.76-17.378-8.319-5.148-5.56-7.7-13.713-7.7-24.502 0-16.554 7.164-32.326 21.454-47.275 14.33-14.948 35.785-22.443 64.447-22.443 24.914 0 45.545 6.918 61.893 20.755zM525.629 740.678c-5.312 5.147-11.572 7.742-18.82 7.742-7.577 0-13.918-2.554-19.066-7.619-5.147-5.065-7.7-11.283-7.7-18.695 0-7.413 2.635-13.631 7.947-18.696 5.312-5.065 11.407-7.619 18.325-7.619 7.413 0 13.796 2.595 19.19 7.742 5.395 5.148 8.072 11.325 8.072 18.573 0 7.247-2.636 13.424-7.948 18.572zm45.01-309.798c16.307 13.836 24.46 33.067 24.46 57.652 0 20.92-12.271 46.904-36.897 77.954-26.85 33.768-42.621 65.847-47.275 96.279h-8.689c0-5.971.865-14.372 2.636-25.243 1.77-10.83 3.953-20.385 6.506-28.58 2.595-8.194 9.101-24.213 19.561-48.015 5.312-12.066 9.76-24.173 13.384-36.321 3.623-12.148 5.435-23.267 5.435-33.397 0-17.214-4.447-32.574-13.26-46.08-8.853-13.55-22.772-20.303-41.756-20.303-13.013 0-24.008 3.5-32.944 10.501-8.936 7-13.384 13.63-13.384 19.931 0 3.542 3.295 9.019 9.883 16.514 6.59 7.494 9.884 14.454 9.884 20.878 0 5.312-1.936 9.966-5.89 14.001-3.952 3.995-8.73 6.013-14.371 6.013-6.424 0-12.23-2.76-17.378-8.319-5.148-5.56-7.7-13.713-7.7-24.502 0-16.554 7.165-32.326 21.454-47.275 14.33-14.948 35.786-22.443 64.447-22.443 24.914 0 45.545 6.918 61.894 20.755zM744.954 740.678c-5.312 5.147-11.572 7.742-18.82 7.742-7.576 0-13.918-2.554-19.066-7.619-5.147-5.065-7.7-11.283-7.7-18.695 0-7.413 2.635-13.631 7.947-18.696 5.313-5.065 11.407-7.619 18.326-7.619 7.412 0 13.795 2.595 19.19 7.742 5.394 5.148 8.07 11.325 8.07 18.573 0 7.247-2.635 13.424-7.947 18.572zm45.01-309.798c16.307 13.836 24.502 33.067 24.502 57.652 0 20.92-12.313 46.904-36.939 77.954-26.849 33.768-42.62 65.847-47.274 96.279h-8.69c0-5.971.865-14.372 2.636-25.243 1.771-10.83 3.954-20.385 6.507-28.58 2.594-8.194 9.1-24.213 19.56-48.015 5.312-12.066 9.76-24.173 13.384-36.321 3.624-12.148 5.436-23.267 5.436-33.397 0-17.214-4.407-32.574-13.26-46.08-8.854-13.55-22.773-20.303-41.757-20.303-13.013 0-24.008 3.5-32.944 10.501-8.895 7-13.384 13.63-13.384 19.931 0 3.542 3.295 9.019 9.884 16.514 6.63 7.494 9.924 14.454 9.924 20.878 0 5.312-1.977 9.966-5.93 14.001-3.953 3.995-8.73 6.013-14.372 6.013-6.424 0-12.19-2.76-17.337-8.319-5.147-5.56-7.742-13.713-7.742-24.502 0-16.554 7.166-32.326 21.496-47.275 14.29-14.948 35.786-22.443 64.406-22.443 24.914 0 45.545 6.918 61.894 20.755z" fill="none"/><path d="M306.304 740.678c-5.313 5.147-11.572 7.742-18.82 7.742-7.577 0-13.919-2.554-19.066-7.619-5.148-5.065-7.742-11.283-7.742-18.695 0-7.413 2.677-13.631 7.989-18.696 5.312-5.065 11.407-7.619 18.325-7.619 7.413 0 13.795 2.595 19.19 7.742 5.395 5.148 8.071 11.325 8.071 18.573 0 7.247-2.635 13.424-7.947 18.572zm45.01-309.798c16.307 13.836 24.46 33.067 24.46 57.652 0 20.92-12.312 46.904-36.897 77.954-26.89 33.768-42.621 65.847-47.316 96.279h-8.689c0-5.971.906-14.372 2.677-25.243 1.77-10.83 3.953-20.385 6.506-28.58 2.595-8.194 9.101-24.213 19.56-48.015 5.313-12.066 9.76-24.173 13.384-36.321 3.624-12.148 5.436-23.267 5.436-33.397 0-17.214-4.447-32.574-13.301-46.08-8.813-13.55-22.731-20.303-41.715-20.303-13.055 0-24.008 3.5-32.945 10.501-8.936 7-13.383 13.63-13.383 19.931 0 3.542 3.294 9.019 9.883 16.514 6.589 7.494 9.883 14.454 9.883 20.878 0 5.312-1.976 9.966-5.888 14.001-3.954 3.995-8.73 6.013-14.372 6.013-6.424 0-12.23-2.76-17.378-8.319-5.148-5.56-7.7-13.713-7.7-24.502 0-16.554 7.164-32.326 21.454-47.275 14.33-14.948 35.785-22.443 64.447-22.443 24.914 0 45.545 6.918 61.893 20.755zM525.629 740.678c-5.312 5.147-11.572 7.742-18.82 7.742-7.577 0-13.918-2.554-19.066-7.619-5.147-5.065-7.7-11.283-7.7-18.695 0-7.413 2.635-13.631 7.947-18.696 5.312-5.065 11.407-7.619 18.325-7.619 7.413 0 13.796 2.595 19.19 7.742 5.395 5.148 8.072 11.325 8.072 18.573 0 7.247-2.636 13.424-7.948 18.572zm45.01-309.798c16.307 13.836 24.46 33.067 24.46 57.652 0 20.92-12.271 46.904-36.897 77.954-26.85 33.768-42.621 65.847-47.275 96.279h-8.689c0-5.971.865-14.372 2.636-25.243 1.77-10.83 3.953-20.385 6.506-28.58 2.595-8.194 9.101-24.213 19.561-48.015 5.312-12.066 9.76-24.173 13.384-36.321 3.623-12.148 5.435-23.267 5.435-33.397 0-17.214-4.447-32.574-13.26-46.08-8.853-13.55-22.772-20.303-41.756-20.303-13.013 0-24.008 3.5-32.944 10.501-8.936 7-13.384 13.63-13.384 19.931 0 3.542 3.295 9.019 9.883 16.514 6.59 7.494 9.884 14.454 9.884 20.878 0 5.312-1.936 9.966-5.89 14.001-3.952 3.995-8.73 6.013-14.371 6.013-6.424 0-12.23-2.76-17.378-8.319-5.148-5.56-7.7-13.713-7.7-24.502 0-16.554 7.165-32.326 21.454-47.275 14.33-14.948 35.786-22.443 64.447-22.443 24.914 0 45.545 6.918 61.894 20.755zM744.954 740.678c-5.312 5.147-11.572 7.742-18.82 7.742-7.576 0-13.918-2.554-19.066-7.619-5.147-5.065-7.7-11.283-7.7-18.695 0-7.413 2.635-13.631 7.947-18.696 5.313-5.065 11.407-7.619 18.326-7.619 7.412 0 13.795 2.595 19.19 7.742 5.394 5.148 8.07 11.325 8.07 18.573 0 7.247-2.635 13.424-7.947 18.572zm45.01-309.798c16.307 13.836 24.502 33.067 24.502 57.652 0 20.92-12.313 46.904-36.939 77.954-26.849 33.768-42.62 65.847-47.274 96.279h-8.69c0-5.971.865-14.372 2.636-25.243 1.771-10.83 3.954-20.385 6.507-28.58 2.594-8.194 9.1-24.213 19.56-48.015 5.312-12.066 9.76-24.173 13.384-36.321 3.624-12.148 5.436-23.267 5.436-33.397 0-17.214-4.407-32.574-13.26-46.08-8.854-13.55-22.773-20.303-41.757-20.303-13.013 0-24.008 3.5-32.944 10.501-8.895 7-13.384 13.63-13.384 19.931 0 3.542 3.295 9.019 9.884 16.514 6.63 7.494 9.924 14.454 9.924 20.878 0 5.312-1.977 9.966-5.93 14.001-3.953 3.995-8.73 6.013-14.372 6.013-6.424 0-12.19-2.76-17.337-8.319-5.147-5.56-7.742-13.713-7.742-24.502 0-16.554 7.166-32.326 21.496-47.275 14.29-14.948 35.786-22.443 64.406-22.443 24.914 0 45.545 6.918 61.894 20.755z" fill-rule="nonzero" stroke="#000" stroke-width=".8236020000000001" stroke-linecap="butt"/><path d="M168.085 239.637h663.83M168.085 328.313h663.83M168.085 834.445h663.83M168.085 925h663.83M168.085 1017.67h663.83M168.085 154.218h663.83" fill="none" stroke="#000" stroke-width="11"/></svg>