<svg viewBox="0 0 1000 1200" xmlns="http://www.w3.org/2000/svg" fill-rule="evenodd" clip-rule="evenodd" stroke-linecap="round" stroke-linejoin="round" stroke-miterlimit="1.414"><path d="M910.013 89.362L90 89.4l-.013 1021.24h820.026V89.36z" fill="#fff" stroke="#000" stroke-width="14"/><path d="M155.492 648.035c9.068-.982 14.735-2.664 17.002-5.044 2.267-2.38 3.4-8.595 3.4-18.645V523.81c0-8.311-1.266-13.714-3.797-16.208-2.531-2.493-8.066-4.042-16.605-4.647v-4.307h64.493v4.307c-8.539.605-14.093 2.154-16.662 4.647-2.569 2.494-3.854 7.897-3.854 16.208v45.225h70.387V523.81c0-8.311-1.247-13.714-3.741-16.208-2.493-2.493-8.047-4.042-16.661-4.647v-4.307h64.492v4.307c-8.538.605-14.073 2.154-16.604 4.647-2.532 2.494-3.797 7.897-3.797 16.208v103.256c0 8.463 1.265 13.885 3.797 16.265 2.531 2.38 8.066 3.948 16.604 4.704v4.194h-64.492v-4.194c9.143-.907 14.829-2.569 17.058-4.987 2.229-2.418 3.344-8.652 3.344-18.702v-45.111h-70.387v47.831c0 8.463 1.285 13.904 3.854 16.322 2.569 2.418 8.123 3.967 16.662 4.647v4.194h-64.493v-4.194zM321.994 648.035c9.596-.982 15.755-3.155 18.475-6.517 2.72-3.363 4.08-11.165 4.08-23.406V523.81c0-8.387-1.322-13.846-3.967-16.378-2.644-2.531-8.652-4.023-18.021-4.477v-4.307h45.904l53.725 117.084 51.344-117.084h46.244v4.307c-8.614.605-14.167 2.173-16.661 4.704-2.494 2.531-3.74 7.915-3.74 16.151v103.256c0 8.463 1.246 13.885 3.74 16.265 2.494 2.38 8.047 3.948 16.661 4.704v4.194h-65.059v-4.194c9.37-.756 15.207-2.437 17.512-5.044 2.304-2.607 3.457-8.822 3.457-18.645V520.07l-59.392 132.159h-3.174L354.75 525.511v92.601c0 12.695 1.851 20.969 5.554 24.823 2.418 2.493 7.821 4.193 16.208 5.1v4.194h-54.518v-4.194zM629.382 592.61l-26.863-63.926-26.522 63.926h53.385zm-100.196 59.619v-4.194c5.969-.68 10.446-2.947 13.431-6.801 2.985-3.853 8.104-14.319 15.358-31.396l48.398-113.91h4.534l57.805 131.592c3.854 8.765 6.933 14.187 9.237 16.265 2.305 2.078 6.178 3.494 11.618 4.25v4.194h-59.052v-4.194c6.801-.604 11.183-1.341 13.148-2.21 1.965-.869 2.947-3.004 2.947-6.404 0-1.134-.378-3.136-1.133-6.007-.756-2.872-1.814-5.894-3.174-9.068l-9.634-22.328h-60.752c-6.045 15.188-9.654 24.463-10.825 27.825-1.171 3.363-1.757 6.026-1.757 7.991 0 3.929 1.587 6.65 4.761 8.161 1.964.907 5.667 1.587 11.107 2.04v4.194h-46.017zM805.178 499.668c8.84 2.494 13.79 3.741 14.848 3.741 2.191 0 4.269-.605 6.234-1.814 1.964-1.209 3.324-3.098 4.08-5.667h4.874l2.153 52.138h-5.327c-3.098-10.352-7.141-18.702-12.128-25.049-9.521-11.939-22.328-17.908-38.423-17.908-16.246 0-29.526 6.423-39.84 19.268-10.315 12.846-15.472 30.527-15.472 53.045 0 20.704 5.422 37.233 16.265 49.588 10.843 12.354 24.577 18.531 41.2 18.531 12.015 0 23.085-2.871 33.21-8.614 5.818-3.249 12.203-8.16 19.155-14.734l4.307 4.307c-5.138 6.498-11.523 12.203-19.155 17.115-12.997 8.311-27.089 12.467-42.277 12.467-24.936 0-44.733-7.971-59.392-23.915-13.526-14.735-20.289-33.134-20.289-55.198 0-22.594 7.141-41.56 21.422-56.899 15.037-16.095 34.608-24.142 58.712-24.142 8.388 0 17.002 1.247 25.843 3.74z" fill-rule="nonzero"/><path d="M168.085 239.637h663.83M168.085 328.313h663.83M168.085 834.445h663.83M168.085 925h663.83M168.085 1017.67h663.83M168.085 154.218h663.83" fill="none" stroke="#000" stroke-width="11"/></svg>