<svg viewBox="0 0 300 300" xmlns="http://www.w3.org/2000/svg" fill-rule="evenodd" clip-rule="evenodd" stroke-linecap="round" stroke-linejoin="round" stroke-miterlimit="1.414"><g stroke="#000"><path d="M166.585 121.757c-.412-.618.203-1.476.391-2.195.443-1.693 1.055-3.339 1.5-5.031 1.941-7.373 2.981-14.856 3.27-22.502C174.291 24.901 76.349-1.078 42.22 59.556c-8.553 15.195-12.19 33.075-9.375 50.218 1.502 9.152 4.709 18.107 9.763 25.911 12.4 19.147 36.665 31.91 59.589 29.465 9.318-.994 9.965-1.433 18.651-3.443 2.295-.531 8.143-2.638 11.206-1.611 2.146.719 2.609 2.959 2.52 4.951-.111 2.472-.694 3.488-1.651 5.854-.95 2.349-2.543 4.899-.625 7.253.428.525.94.989 1.497 1.375.743.515 1.534.981 2.376 1.311 3.675 1.442 6.38-.854 9.277-2.795 1.135-.76 2.102-1.891 3.417-2.261.554-.156 1.031.528 1.486.88a52.859 52.859 0 0 1 3.391 2.9c3.844 3.542 7.683 7.093 11.421 10.748 23.285 22.77 45.331 44.88 67.996 68.282 5.815 6.004 11.337 12.288 17.195 18.25.799.813 3.436 1.037 4.125 1.067 6.616.288 9.642.108 16.283-.803 1.592-.218 5.542-.658 6.266-2.647.676-1.856.689-6.325.671-7.268-.085-4.685-.343-9.366-.633-14.043-.089-1.433-1.589-1.539-1.758-2.848-.255-1.977.449-6.3-1.279-7.84-.991-.884-7.542-.783-8.493-1.99-.142-.181-3.429-12.358-3.919-13.836-.361-1.091-.616-2.278-1.327-3.18-.384-.487-1.115-.583-1.724-.693-2.063-.371-4.691.654-6.188-1.364-2.035-2.745-.099-6.819-2.657-9.334-4.154-4.084-11.275-1.71-16.113-4.269-2.075-1.097-2.057-3.537-2.383-5.484-.433-2.586-.624-4.155-2.844-5.689-4.154-2.87-10.503-.779-14.01-4.826-4.017-4.635-2.828-10.671-4.255-16.162-.7-2.689-2.922-3.316-5.373-3.753-1.144-.204-3.187-.014-3.735-1.495-1.252-3.383-.224-7.079-1.049-10.519-.222-.93-.977-1.648-1.557-2.408-3.476-4.561-13.773-15.915-15.15-17.442-1.382-1.534 10.236-7.616 3.898-13.95-5.663-5.659-12.238 4.778-13.848 3.018-3.685-4.028-6.717-7.329-6.717-7.329zM82.523 55.009c11.109 0 20.129 8.724 20.129 19.47 0 10.745-9.02 19.47-20.129 19.47-11.109 0-20.128-8.725-20.128-19.47 0-10.746 9.019-19.47 20.128-19.47z" fill="url(#a)" stroke-width="3.5"/><path d="M129.829 141.314l134.015 135.427M141.68 131.161L276.777 263.16" fill="none" stroke-width="3"/></g><defs><radialGradient id="a" cx="0" cy="0" r="1" gradientUnits="userSpaceOnUse" gradientTransform="matrix(94.4098 35.956 -36.951 97.0224 142.149 88.492)"><stop offset="0%" stop-color="#ff33d6"/><stop offset="100%" stop-color="#ffa8ee"/></radialGradient></defs></svg>