<svg viewBox="0 0 300 300" xmlns="http://www.w3.org/2000/svg" fill-rule="evenodd" clip-rule="evenodd" stroke-linecap="round" stroke-linejoin="round" stroke-miterlimit="1.414"><path d="M166.585 121.757c-.412-.618.203-1.476.391-2.195.443-1.693 1.055-3.339 1.5-5.031 1.941-7.373 2.981-14.856 3.27-22.502C174.291 24.901 76.349-1.078 42.22 59.556c-8.553 15.195-12.19 33.075-9.375 50.218 1.502 9.152 4.709 18.107 9.763 25.911 12.4 19.147 36.665 31.91 59.589 29.465 9.318-.994 9.965-1.433 18.651-3.443 2.295-.531 8.143-2.638 11.206-1.611 2.146.719 2.609 2.959 2.52 4.951-.111 2.472-.694 3.488-1.651 5.854-.95 2.349-2.543 4.899-.625 7.253.428.525.94.989 1.497 1.375.743.515 1.534.981 2.376 1.311 3.675 1.442 6.38-.854 9.277-2.795 1.135-.76 2.102-1.891 3.417-2.261.554-.156 1.031.528 1.486.88a52.859 52.859 0 0 1 3.391 2.9c3.844 3.542 7.683 7.093 11.421 10.748 23.285 22.77 45.331 44.88 67.996 68.282 5.815 6.004 11.337 12.288 17.195 18.25.799.813 3.436 1.037 4.125 1.067 6.616.288 9.642.108 16.283-.803 1.592-.218 5.542-.658 6.266-2.647.676-1.856.689-6.325.671-7.268-.085-4.685-.786-22.944-3.088-24.731-2.638-2.049-8.649-.743-9.824-3.301-2.268-4.938.691-11.386-1.901-13.592-2.692-2.291-11.379-2.744-12.875-4.761-2.036-2.746-.569-7.006-3.127-9.521-4.154-4.084-8.438-.932-13.276-3.491-2.075-1.097-.97-11.967-3.19-13.501-4.155-2.87-11.671 1.067-15.298-2.872-1.99-2.162-.93-12.986-1.513-15.226-.699-2.689-11.76-6.637-12.308-8.118-1.252-3.382-.515-4.771-1.34-8.211-.222-.93-.977-1.648-1.557-2.408-3.476-4.561-13.773-15.915-15.15-17.442-1.382-1.534 10.236-7.616 3.898-13.95-5.663-5.659-12.238 4.778-13.848 3.018-3.685-4.028-6.717-7.329-6.717-7.329zM82.523 55.009c11.109 0 20.129 8.724 20.129 19.47 0 10.745-9.02 19.47-20.129 19.47-11.109 0-20.128-8.725-20.128-19.47 0-10.746 9.019-19.47 20.128-19.47z" fill="url(#a)" stroke="#000" stroke-width="3.5"/><path d="M129.829 141.314l134.015 135.427M141.68 131.161L276.777 263.16" fill="none" stroke="#000" stroke-width="3"/><text x="241.595" y="464.449" font-family="Helvetica" font-size="20.065" fill="none" transform="rotate(-43.164 -1164.651 1540.292) scale(3.00606)">E</text><text x="241.595" y="464.449" font-family="Helvetica" font-size="20.065" fill="#fff" transform="rotate(-43.164 -1164.651 1540.292) scale(3.00606)">E</text><path d="M113.387 81.47l.26.027.256.048.256.066.246.087.239.1.234.123.221.14.212.15.199.173.187.182 3.626 3.866.17.199.16.21.137.22.126.232.105.24.088.247.07.251.048.257.032.258.01.262-.008.263-.027.261-.049.256-.065.255-.087.246-.101.24-.123.234-.139.22-.151.213-.172.198-.183.188-16.287 15.275 4.198 4.475 14.87-13.946.197-.173.209-.155.221-.141.23-.125.24-.105.247-.088.253-.068.257-.052.26-.03.26-.012.261.01.26.028.259.046.253.068.248.084.24.106.231.12.224.137.21.153.2.17.186.185 3.424 3.65.172.198.157.211.142.222.122.231.105.24.09.245.069.253.049.255.03.26.01.262-.006.261-.027.261-.049.256-.065.255-.087.246-.103.241-.12.233-.138.223-.155.212-.17.196-.183.188-14.87 13.946 5.244 5.592 16.609-15.578.197-.172.211-.157.22-.14.23-.122.242-.107.244-.088.253-.068.257-.052.26-.03.262-.01.263.008.261.028.256.048.253.064.246.086.241.104.233.12.22.139.215.153.196.17.188.183 3.527 3.76.17.2.157.206.14.224.124.23.105.239.088.247.07.251.05.259.032.258.01.262-.01.262-.028.26-.046.258-.068.253-.084.248-.102.24-.122.234-.139.22-.153.21-.17.202-.185.185-23.33 21.88-.197.173-.209.155-.221.141-.23.125-.239.105-.247.088-.253.068-.255.05-.26.03-.262.01-.262-.006-.26-.028-.259-.046-.253-.068-.248-.084-.239-.106-.232-.12-.223-.137-.212-.156-.199-.168-.185-.184-29.596-31.556-.173-.197-.157-.212-.14-.219-.122-.231-.107-.242-.088-.243-.068-.253-.051-.257-.03-.26-.011-.263.008-.263.03-.258.046-.258.066-.251.084-.249.104-.24.12-.233.139-.221.156-.212.168-.199.184-.185L110.75 82.41l.197-.173.212-.157.219-.14.23-.124.241-.107.245-.086.253-.068.257-.051.26-.03.26-.013.264.008zm-23.251 25.07l29.596 31.556 23.33-21.88-3.528-3.76-19.16 17.97-10.034-10.697 17.423-16.34-3.424-3.651-17.423 16.34-8.986-9.582 18.839-17.668-3.626-3.866-23.007 21.578z"/><defs><radialGradient id="a" cx="0" cy="0" r="1" gradientUnits="userSpaceOnUse" gradientTransform="matrix(94.4098 35.956 -36.951 97.0224 142.149 88.492)"><stop offset="0%" stop-color="#3ce61a"/><stop offset="100%" stop-color="#aef4a0"/></radialGradient></defs></svg>