<svg viewBox="0 0 300 300" xmlns="http://www.w3.org/2000/svg" fill-rule="evenodd" clip-rule="evenodd" stroke-linecap="round" stroke-linejoin="round" stroke-miterlimit="1.414"><path d="M166.585 121.757c-.412-.618.203-1.476.391-2.195.443-1.693 1.055-3.339 1.5-5.031 1.941-7.373 2.981-14.856 3.27-22.502C174.291 24.901 76.349-1.078 42.22 59.556c-8.553 15.195-12.19 33.075-9.375 50.218 1.502 9.152 4.709 18.107 9.763 25.911 12.4 19.147 36.665 31.91 59.589 29.465 9.318-.994 9.965-1.433 18.651-3.443 2.295-.531 8.143-2.638 11.206-1.611 2.146.719 2.609 2.959 2.52 4.951-.111 2.472-.694 3.488-1.651 5.854-.95 2.349-2.543 4.899-.625 7.253.428.525.94.989 1.497 1.375.743.515 1.534.981 2.376 1.311 3.675 1.442 6.38-.854 9.277-2.795 1.135-.76 2.102-1.891 3.417-2.261.554-.156 1.031.528 1.486.88a52.859 52.859 0 0 1 3.391 2.9c3.844 3.542 7.683 7.093 11.421 10.748 23.285 22.77 45.331 44.88 67.996 68.282 5.815 6.004 11.337 12.288 17.195 18.25.799.813 3.436 1.037 4.125 1.067 6.616.288 9.642.108 16.283-.803 1.592-.218 5.542-.658 6.266-2.647.676-1.856.689-6.325.671-7.268-.085-4.685-.786-22.944-3.088-24.731-2.638-2.049-8.649-.743-9.824-3.301-2.268-4.938.691-11.386-1.901-13.592-2.692-2.291-11.379-2.744-12.875-4.761-2.036-2.746-.569-7.006-3.127-9.521-4.154-4.084-8.438-.932-13.276-3.491-2.075-1.097-.97-11.967-3.19-13.501-4.155-2.87-11.671 1.067-15.298-2.872-1.99-2.162-.93-12.986-1.513-15.226-.699-2.689-11.76-6.637-12.308-8.118-1.252-3.382-.515-4.771-1.34-8.211-.222-.93-.977-1.648-1.557-2.408-3.476-4.561-13.773-15.915-15.15-17.442-1.382-1.534 10.236-7.616 3.898-13.95-5.663-5.659-12.238 4.778-13.848 3.018-3.685-4.028-6.717-7.329-6.717-7.329zM82.523 55.009c11.109 0 20.129 8.724 20.129 19.47 0 10.745-9.02 19.47-20.129 19.47-11.109 0-20.128-8.725-20.128-19.47 0-10.746 9.019-19.47 20.128-19.47z" fill="url(#a)" stroke="#000" stroke-width="3.5"/><path d="M129.829 141.314l134.015 135.427M141.68 131.161L276.777 263.16" fill="none" stroke="#000" stroke-width="3"/><path d="M96.873 102.702c4.18.036 7.646 1.28 10.4 3.73l-4.165 3.907c-2.38-1.589-4.832-2.318-7.359-2.182-2.524.134-5.062 1.397-7.612 3.788-3.106 2.914-4.593 6.36-4.457 10.338.137 3.977 2.323 8.22 6.553 12.73 3.465 3.694 7.138 5.883 11.018 6.563 3.883.681 7.535-.584 10.958-3.794 3.15-2.955 4.414-6.415 3.79-10.38-.32-2.094-1.24-4.38-2.76-6.862l4.167-3.907c2.747 3.671 4.126 7.612 4.144 11.823.032 5.056-2.078 9.578-6.332 13.568-3.666 3.438-7.785 5.216-12.36 5.335-6.03.138-11.921-2.856-17.671-8.986-4.366-4.655-6.714-9.624-7.044-14.915-.371-5.735 1.784-10.798 6.467-15.19 3.995-3.747 8.083-5.602 12.263-5.566zM137.553 95.235l-17.863-9.449 7.983 18.716 9.88-9.267zm-24.49-12.037l4.833-4.532 41.045 20.817-4.683 4.393-12.067-6.45-12.48 11.705 5.451 12.654-4.383 4.11-17.716-42.697z" fill="none"/><path d="M96.873 102.702c4.18.036 7.646 1.28 10.4 3.73l-4.165 3.907c-2.38-1.589-4.832-2.318-7.359-2.182-2.524.134-5.062 1.397-7.612 3.788-3.106 2.914-4.593 6.36-4.457 10.338.137 3.977 2.323 8.22 6.553 12.73 3.465 3.694 7.138 5.883 11.018 6.563 3.883.681 7.535-.584 10.958-3.794 3.15-2.955 4.414-6.415 3.79-10.38-.32-2.094-1.24-4.38-2.76-6.862l4.167-3.907c2.747 3.671 4.126 7.612 4.144 11.823.032 5.056-2.078 9.578-6.332 13.568-3.666 3.438-7.785 5.216-12.36 5.335-6.03.138-11.921-2.856-17.671-8.986-4.366-4.655-6.714-9.624-7.044-14.915-.371-5.735 1.784-10.798 6.467-15.19 3.995-3.747 8.083-5.602 12.263-5.566zM137.553 95.235l-17.863-9.449 7.983 18.716 9.88-9.267zm-24.49-12.037l4.833-4.532 41.045 20.817-4.683 4.393-12.067-6.45-12.48 11.705 5.451 12.654-4.383 4.11-17.716-42.697z" fill="#fff" fill-rule="nonzero"/><path d="M96.9 99.202l.23.003.227.005.225.008.227.01.225.01.223.014.223.014.22.02.223.017.22.024.221.024.218.026.22.029.219.03.215.033.216.036.216.037.213.039.214.043.213.043.212.045.21.05.212.048.206.054.21.055.208.056.206.062.205.06.204.064.204.068.204.068.202.07.2.073.2.076.197.079.197.079.197.082.195.085.193.087.193.087.19.094.191.093.19.098.189.095.186.102.186.101.182.106.186.106.181.11.18.112.179.112.177.118.177.119.172.118.177.123.17.124.171.125.168.13.168.132.168.13.164.135.163.14.162.137.145.128.177.167.167.178.149.19.138.2.125.208.11.218.095.224.08.23.063.234.043.24.03.239.012.245-.004.242-.02.242-.04.239-.052.239-.073.233-.086.225-.103.22-.117.213-.133.207-.144.193-.161.184-.172.173-4.166 3.907-.185.162-.199.15-.206.135-.215.119-.224.103-.23.088-.235.072-.24.056-.243.039-.245.02-.25.002-.243-.014-.246-.03-.241-.05-.238-.065-.234-.082-.224-.098-.22-.111-.208-.13-.102-.065-.088-.059-.085-.055-.088-.054-.085-.052-.086-.052-.086-.051-.087-.05-.084-.05-.085-.047-.084-.045-.086-.043-.083-.045-.086-.043-.084-.041-.084-.041-.081-.04-.084-.04-.084-.037-.082-.034-.084-.037-.082-.035-.08-.032-.083-.032-.08-.033-.082-.03-.08-.028-.082-.026-.08-.028-.082-.026-.08-.028-.08-.024-.08-.024-.08-.02-.08-.023-.08-.02-.08-.02-.079-.017-.08-.02-.08-.015-.079-.017-.08-.016-.078-.013-.079-.013-.078-.013-.08-.011-.08-.011-.08-.01-.078-.008-.08-.011-.079-.005-.08-.007-.079-.004-.08-.007-.079-.005-.08-.002h-.08l-.08-.003-.08.001h-.08l-.08.002-.081.001-.081.002-.079.004-.072.006-.07.004-.073.006-.068.007-.07.008-.074.01-.07.009-.07.012-.071.013-.075.013-.073.014-.073.015-.072.019-.075.017-.073.019-.075.02-.076.022-.075.02-.077.024-.077.027-.078.027-.077.027-.078.028-.08.03-.081.03-.08.034-.08.034-.082.035-.082.036-.082.04-.084.038-.084.042-.084.041-.085.047-.086.044-.087.048-.087.048-.088.05-.087.053-.09.055-.088.054-.089.055-.093.058-.09.06-.09.06-.092.065-.094.063-.093.067-.094.068-.093.071-.096.07-.094.075-.096.073-.096.078-.098.076-.096.082-.099.08-.098.084-.098.084-.099.088-.099.088-.1.09-.101.09-.099.093-.116.114-.116.109-.11.11-.11.112-.108.11-.103.113-.104.11-.097.111-.1.11-.094.114-.093.112-.09.11-.09.111-.086.115-.085.112-.082.11-.08.112-.078.115-.076.112-.074.11-.071.117-.07.11-.07.115-.063.113-.065.115-.063.113-.06.113-.058.117-.055.113-.055.117-.052.116-.053.115-.048.115-.047.118-.046.118-.044.115-.042.118-.04.12-.038.118-.04.12-.034.122-.033.118-.034.122-.03.123-.027.124-.029.123-.023.124-.023.125-.023.125-.02.129-.02.127-.015.13-.017.13-.015.13-.01.133-.01.132-.01.134-.006.133-.005.136-.002.138-.002.139v.14l.003.14.002.139.007.134.008.132.009.132.013.132.014.135.015.134.02.135.02.137.024.139.025.14.027.14.032.14.032.143.035.143.036.144.04.144.044.148.045.148.048.148.048.149.053.152.057.153.056.153.061.153.066.157.065.158.07.157.07.16.076.16.076.16.08.164.084.164.084.164.09.167.09.167.097.169.097.169.1.169.104.17.11.175.108.173.114.174.115.176.116.176.122.178.126.179.128.18.13.179.135.183.137.18.14.186.144.183.147.184.15.185.15.188.156.188.16.188.162.19.166.19.168.189.17.194.177.193.177.193.181.193.144.153.146.152.144.15.147.146.142.143.146.143.144.14.145.137.144.137.145.132.143.13.144.128.145.128.143.122.145.123.143.118.145.119.143.113.143.113.146.111.14.107.144.109.143.104.142.102.141.099.144.1.141.094.142.094.144.091.141.09.142.085.142.086.14.083.142.081.14.079.142.077.14.074.14.075.14.07.14.071.141.066.14.066.141.062.14.062.139.06.14.058.14.055.14.054.139.05.138.052.141.05.14.046.138.043.14.043.138.042.14.039.138.038.142.037.139.034.141.032.14.03.14.03.139.026.14.026.13.02.13.02.129.019.127.017.127.012.125.01.125.011.126.006.123.004.123.004.121.002h.124l.12-.003.122-.002.12-.01.121-.006.122-.011.12-.013.119-.013.117-.016.12-.017.12-.022.117-.024.12-.021.118-.029.12-.025.116-.03.122-.033.118-.032.12-.04.118-.036.12-.043.12-.04.122-.045.12-.048.123-.049.12-.051.122-.056.123-.053.12-.06.124-.062.125-.064.124-.067.125-.068.124-.07.128-.075.123-.075.128-.079.128-.083.129-.083.126-.085.128-.092.128-.091.129-.096.13-.098.132-.102.13-.102.131-.107.134-.108.129-.113.135-.115.132-.119.133-.12.132-.124.116-.11.112-.108.112-.11.106-.111.105-.107.102-.112.099-.11.097-.107.09-.11.093-.107.087-.11.084-.108.084-.108.08-.108.08-.108.074-.106.074-.11.069-.107.07-.106.065-.11.062-.105.063-.108.057-.107.059-.109.054-.104.053-.107.05-.11.048-.106.048-.107.044-.107.042-.11.04-.106.039-.108.035-.107.036-.112.03-.107.034-.11.03-.11.026-.111.025-.11.023-.112.022-.112.021-.114.018-.112.017-.114.014-.117.015-.116.01-.117.008-.119.008-.119.006-.12.002-.122.004-.123v-.124l-.003-.125-.002-.126-.01-.128-.008-.127-.008-.133-.011-.13-.017-.132-.015-.134-.019-.135-.02-.15-.013-.07-.01-.069-.013-.07-.015-.073-.013-.07-.014-.073-.015-.073-.017-.075-.017-.075-.016-.075-.017-.075-.021-.075-.019-.077-.019-.077-.023-.078-.02-.08-.024-.076-.023-.082-.025-.08-.023-.072-.054-.168-.054-.168-.06-.165-.061-.17-.065-.17-.069-.175-.073-.174-.073-.18-.081-.178-.082-.184-.085-.183-.088-.186-.094-.188-.096-.19-.098-.193-.104-.195-.106-.196-.111-.198-.113-.199-.117-.2-.12-.203-.132-.219-.117-.208-.103-.216-.089-.222-.07-.227-.056-.232-.041-.233-.024-.237-.008-.24.008-.238.025-.238.04-.235.055-.23.071-.227.088-.223.103-.215.115-.207.132-.202.144-.19.157-.18.167-.168 4.166-3.907.186-.162.198-.15.205-.133.214-.119.222-.105.23-.089.235-.07.24-.057.244-.039.245-.02.247-.005.244.015.243.03.243.049.237.063.233.082.224.098.22.112.21.128.2.142.191.155.177.172.17.18.15.192.137.185.142.196.143.2.138.196.138.2.134.2.134.2.13.204.132.202.125.204.123.201.123.206.121.204.117.208.117.208.114.206.11.21.109.207.11.21.102.21.104.211.1.212.099.212.097.213.093.214.091.215.089.214.089.217.082.216.085.217.08.218.078.219.074.22.073.219.07.219.07.223.065.22.065.222.06.223.06.221.056.223.055.225.054.226.046.224.048.227.046.225.044.227.04.227.037.228.035.227.033.229.029.228.03.23.025.229.025.228.02.233.018.23.018.23.014.23.012.233.007.232.008.232.005.234.004.223v.14l-.003.143v.14l-.003.143-.004.14-.003.142-.004.14-.009.14-.007.143-.008.14-.01.14-.008.14-.01.138-.012.142-.013.14-.015.138-.013.14-.017.14-.017.14-.015.137-.022.14-.019.138-.02.137-.02.14-.024.137-.024.138-.023.137-.024.138-.028.137-.025.135-.028.138-.032.137-.03.135-.03.135-.032.137-.034.135-.034.136-.034.135-.034.135-.039.134-.038.135-.036.133-.043.135-.038.135-.043.13-.042.135-.043.13-.042.135-.047.13-.047.135-.047.13-.048.133-.047.13-.051.13-.051.13-.051.131-.055.13-.051.13-.055.13-.056.126-.055.13-.06.13-.056.128-.06.126-.061.128-.06.125-.061.128-.062.128-.063.125-.066.128-.066.123-.065.124-.068.125-.068.126-.068.125-.07.123-.07.123-.074.124-.072.12-.074.124-.072.12-.074.124-.076.12-.076.122-.08.12-.077.121-.078.12-.08.12-.083.118-.082.119-.083.119-.082.118-.085.117-.087.122-.169.229-.177.232-.178.233-.184.23-.186.228-.188.226-.192.225-.194.224-.199.223-.203.219-.204.221-.207.219-.211.214-.214.217-.217.216-.222.212-.221.212-.197.18-.198.182-.199.178-.199.175-.201.172-.203.17-.204.17-.205.163-.205.164-.207.161-.207.157-.21.155-.21.153-.212.149-.21.148-.216.144-.213.142-.215.14-.219.135-.22.136-.218.131-.217.13-.223.126-.223.123-.223.122-.225.116-.225.117-.229.111-.227.11-.229.108-.228.103-.231.1-.233.1-.233.094-.232.095-.235.088-.237.086-.236.086-.237.082-.236.077-.24.073-.241.074-.24.068-.241.07-.243.062-.244.06-.244.06-.247.054-.244.052-.246.05-.246.044-.248.044-.246.04-.25.037-.248.035-.252.03-.251.03-.25.024-.252.022-.251.022-.254.015-.253.015-.254.011-.255.009h-.177l-.17.004h-.338l-.17-.002-.17-.005-.17-.006-.17-.005-.168-.008-.17-.01-.17-.009-.167-.012-.17-.014-.17-.014-.17-.018-.167-.016-.17-.018-.167-.02-.17-.023-.168-.022-.168-.025-.169-.026-.167-.025-.167-.029-.17-.03-.164-.031-.17-.031-.168-.036-.165-.035-.167-.037-.167-.037-.169-.04-.164-.039-.167-.041-.167-.046-.164-.044-.167-.045-.164-.048-.164-.048-.167-.05-.164-.052-.164-.052-.164-.052-.164-.056-.165-.057-.164-.056-.164-.06-.163-.061-.164-.06-.162-.063-.162-.063-.162-.067-.161-.067-.162-.066-.163-.07-.162-.07-.16-.074-.16-.07-.162-.076-.16-.073-.158-.078-.162-.08-.159-.077-.159-.081-.159-.082-.159-.082-.157-.083-.159-.086-.158-.086-.157-.088-.159-.09-.157-.088-.156-.093-.157-.092-.156-.092-.157-.096-.156-.097-.156-.096-.157-.097-.156-.1-.152-.101-.156-.1-.154-.104-.154-.107-.154-.102-.154-.107-.154-.107-.154-.112-.152-.109-.154-.111-.151-.113-.152-.114-.152-.113-.153-.116-.152-.117-.151-.118-.15-.12-.153-.12-.151-.12-.147-.123-.154-.124-.149-.123-.149-.129-.151-.126-.15-.128-.146-.13-.151-.13-.147-.13-.149-.133-.149-.136-.148-.133-.15-.136-.146-.14-.149-.136-.146-.138-.146-.143-.147-.139-.146-.143-.149-.145-.144-.145-.146-.147-.147-.147-.146-.148-.144-.149-.146-.151-.146-.152-.144-.153-.148-.154-.22-.239-.22-.239-.218-.24-.213-.245-.212-.243-.209-.245-.204-.245-.205-.245-.199-.246-.196-.25-.192-.248-.192-.248-.185-.25-.186-.251-.183-.253-.177-.254-.175-.253-.174-.256-.169-.254-.164-.259-.164-.258-.16-.258-.157-.26-.153-.26-.151-.263-.147-.262-.145-.264-.14-.264-.14-.264-.135-.266-.131-.268-.128-.268-.125-.27-.124-.267-.116-.27-.117-.273-.11-.272-.109-.274-.106-.27-.102-.276-.1-.278-.092-.275-.096-.278-.087-.277-.084-.279-.085-.279-.076-.279-.076-.283-.072-.279-.067-.283-.064-.283-.063-.282-.057-.285-.056-.285-.049-.284-.05-.287-.042-.286-.042-.286-.037-.286-.034-.29-.029-.287-.029-.29-.022-.288-.019-.283-.01-.156-.01-.16-.005-.155-.008-.158-.005-.16-.004-.157-.003-.157-.002-.155-.001-.156v-.157l.001-.157.003-.156.003-.155.005-.157.005-.157.007-.155.007-.155.01-.157.009-.153.011-.155.011-.155.016-.155.013-.152.016-.155.016-.155.02-.154.017-.153.02-.155.022-.152.022-.152.026-.153.022-.152.026-.152.026-.153.028-.15.03-.152.031-.152.033-.15.03-.152.035-.148.034-.152.035-.148.036-.15.04-.147.038-.152.039-.148.043-.147.043-.148.043-.147.045-.15.045-.145.047-.147.048-.148.049-.145.05-.145.053-.145.051-.147.056-.143.053-.145.056-.143.058-.145.056-.143.06-.142.06-.143.06-.143.063-.142.062-.14.066-.141.064-.143.069-.138.066-.14.068-.139.07-.14.071-.14.072-.138.073-.138.074-.136.073-.138.079-.136.074-.135.079-.136.079-.136.079-.136.083-.135.08-.134.086-.133.08-.134.088-.13.085-.134.089-.133.087-.132.09-.133.089-.129.091-.13.094-.13.09-.13.094-.13.096-.126.096-.131.097-.129.098-.124.1-.127.1-.127.1-.126.103-.126.102-.125.104-.126.102-.125.106-.124.108-.122.106-.124.11-.124.108-.122.11-.12.113-.122.112-.122.113-.121.114-.12.115-.12.114-.12.116-.117.12-.12.118-.12.118-.114.121-.118.12-.117.124-.115.127-.12.206-.193.208-.19.21-.19.21-.184.21-.185.215-.18.21-.177.213-.176.214-.171.214-.172.216-.166.216-.165.216-.161.217-.159.218-.155.218-.154.22-.148.219-.149.221-.146.222-.141.221-.138.224-.135.223-.136.225-.128.223-.127.226-.125.227-.122.227-.119.229-.116.23-.111.228-.108.229-.107.233-.103.233-.1.23-.096.233-.095.235-.092.236-.086.235-.084.234-.08.239-.08.236-.073.237-.073.238-.067.24-.064.238-.063.242-.058.242-.054.24-.052.24-.047.244-.044.241-.04.244-.04.244-.034.243-.03.243-.027.246-.024.243-.022.245-.016.245-.015.245-.007.245-.007.244-.003h.243zm-.419 3.504l-.196.003-.193.008-.196.011-.197.015-.196.015-.192.02-.196.023-.194.021-.195.03-.194.03-.195.034-.195.034-.194.039-.193.04-.193.045-.195.047-.193.05-.193.053-.193.053-.193.058-.194.061-.191.064-.194.067-.191.068-.194.07-.192.077-.191.077-.194.079-.19.083-.192.085-.192.09-.192.09-.19.095-.19.096-.193.098-.188.103-.193.106-.19.105-.191.113-.191.113-.189.115-.189.12-.19.12-.192.127-.19.127-.188.128-.19.133-.189.136-.19.136-.187.143-.19.145-.19.145-.189.15-.188.15-.188.156-.185.158-.19.162-.187.162-.19.166-.188.168-.186.171-.187.175-.11.103-.107.105-.11.102-.105.103-.105.103-.106.108-.103.105-.101.103-.104.105-.1.103-.102.107-.1.106-.096.107-.1.105-.094.106-.095.11-.095.105-.093.108-.092.107-.093.108-.089.108-.093.107-.088.108-.086.11-.089.108-.086.11-.085.107-.084.113-.082.11-.083.11-.082.11-.082.11-.078.11-.08.112-.076.113-.078.11-.076.112-.076.113-.072.112-.075.113-.072.112-.072.113-.07.115-.069.114-.067.113-.068.113-.07.114-.065.115-.065.115-.061.115-.066.115-.06.115-.06.117-.06.115-.06.117-.059.118-.059.117-.055.117-.057.115-.054.118-.053.12-.055.117-.05.117-.051.122-.05.117-.05.12-.048.12-.046.117-.049.12-.044.12-.044.12-.042.121-.045.12-.042.122-.04.12-.04.124-.04.12-.038.122-.038.123-.033.122-.036.124-.034.122-.034.123-.031.124-.034.122-.032.125-.027.125-.027.124-.032.125-.023.124-.028.125-.025.127-.023.124-.025.127-.022.127-.023.125-.019.129-.019.125-.02.127-.017.127-.015.13-.017.126-.015.13-.012.127-.015.129-.013.127-.01.13-.01.129-.01.131-.008.128-.008.131-.006.13-.005.132-.006.13-.004.13-.002.13-.002.134v.396l.002.134.002.13.004.136.004.132.007.134.004.132.008.137.009.132.018.247.02.25.023.245.024.245.03.248.031.243.035.248.039.244.039.243.043.244.045.242.052.244.052.24.056.244.056.24.065.24.062.243.067.238.07.238.074.24.075.24.08.238.082.237.085.236.086.237.093.235.094.237.097.235.099.232.1.235.108.234.11.235.11.231.115.233.118.232.118.231.125.23.126.231.129.23.133.23.135.231.137.226.142.23.144.228.148.228.15.226.152.224.156.228.157.224.163.226.165.225.167.222.17.225.175.222.176.223.18.222.182.221.185.223.19.22.191.222.193.218.197.22.201.219.204.217.134.142.135.145.134.138.136.14.134.139.136.136.134.138.136.137.136.132.134.134.136.132.134.13.136.127.136.128.135.13.136.123.134.126.137.123.136.123.134.122.137.119.136.12.135.116.139.117.134.117.135.113.139.113.134.113.137.11.137.111.135.109.137.106.136.107.137.106.135.105.137.102.137.102.136.1.137.098.137.098.137.098.137.098.138.094.137.093.135.092.138.094.137.09.138.089.135.087.14.087.138.085.135.084.138.085.137.08.138.082.138.08.138.077.138.081.136.075.14.075.138.076.138.073.136.07.14.07.136.07.138.069.138.068.14.066.139.064.138.064.138.064.139.06.136.062.14.058.14.06.138.055.138.055.139.056.139.055.138.051.139.052.139.05.139.048.14.05.14.046.136.045.141.045.14.043.138.042.141.041.14.038.139.039.139.038.141.037.14.034.139.034.139.035.14.03.139.03.139.03.142.027.139.03.14.026.141.024.138.023.142.024.14.022.141.019.14.017.142.02.14.017.137.015.142.015.14.013.142.011.14.013.14.009.143.01.14.005.142.007.14.004.143.007.138.002.142.003h.14l.143-.002h.14l.143-.001.215-.008.213-.01.213-.01.21-.013.214-.019.21-.018.21-.021.21-.023.209-.028.207-.03.207-.029.208-.034.205-.035.203-.039.206-.04.205-.044.204-.047.203-.047.2-.05.201-.054.202-.053.2-.06.2-.059.2-.064.197-.066.198-.066.198-.07.195-.072.194-.075.196-.076.194-.08.194-.082.192-.086.192-.085.19-.092.193-.09.19-.095.19-.096.188-.098.188-.103.187-.104.188-.107.187-.109.184-.111.184-.115.185-.116.182-.117.183-.122.184-.124.181-.124.18-.128.181-.132.18-.135.178-.135.179-.138.178-.14.175-.143.177-.145.175-.147.175-.152.175-.152.173-.154.173-.158.171-.16.2-.188.193-.19.19-.186.19-.19.185-.19.182-.192.179-.192.176-.194.174-.192.168-.195.168-.194.161-.197.162-.197.157-.197.153-.197.151-.2.15-.201.07-.1.072-.1.071-.1.07-.101.068-.102.07-.102.067-.1.069-.102.065-.102.065-.103.065-.102.065-.102.065-.102.06-.102.063-.104.06-.103.06-.104.06-.102.059-.105.056-.102.057-.107.056-.102.057-.107.054-.105.055-.104.05-.105.054-.105.05-.104.053-.107.048-.107.05-.105.048-.107.048-.107.046-.104.046-.11.044-.107.046-.104.042-.11.043-.107.042-.109.044-.107.038-.11.04-.107.039-.107.037-.11.038-.109.037-.109.036-.112.035-.107.033-.11.034-.109.031-.112.033-.11.032-.11.03-.113.03-.11.027-.111.029-.11.027-.112.027-.111.025-.114.024-.11.025-.114.023-.112.023-.112.02-.114.021-.115.019-.112.02-.114.019-.112.018-.116.017-.115.016-.114.015-.112.014-.117.014-.112.014-.117.013-.114.01-.117.01-.116.012-.115.006-.117.01-.116.008-.115.006-.117.006-.116.006-.117.003-.12.004-.118.002-.117.001-.117.002-.117v-.119l.001-.117-.002-.2-.002-.196-.007-.195-.008-.198-.009-.194-.013-.194-.015-.196-.013-.194-.021-.195-.017-.194-.024-.192-.023-.192-.026-.194-.028-.193-.03-.19-.03-.19-.034-.19-.037-.193-.036-.188-.04-.193-.044-.186-.043-.191-.045-.189-.047-.186-.051-.187-.052-.187-.053-.188-.056-.187-.058-.185-.06-.187-.062-.185-.062-.185-.066-.185-.069-.183-.07-.185-.069-.183-.077-.183-.075-.181-.077-.183-.08-.182-.08-.183-.086-.18-.084-.18-.09-.18-.088-.181-.092-.178-.094-.18-.094-.179-.099-.175-.098-.18-.103-.175-.103-.18-.107-.176-.107-.176-.109-.177-.114-.174-.11-.176-.119-.174-.117-.174-.118-.174-.122-.174-.124-.172-.127-.174-.128-.172-4.166 3.907.141.234.137.23.133.23.131.227.127.228.123.227.12.225.114.223.112.224.11.223.105.218.104.22.097.218.093.218.095.216.087.215.085.213.08.214.078.21.074.211.07.21.066.207.033.105.03.104.031.103.03.103.03.1.026.103.026.103.03.101.023.101.025.1.022.104.022.098.023.103.022.098.018.099.02.1.018.099.016.1.019.099.013.098.029.184.025.186.022.185.02.184.017.181.014.181.009.181.009.182.007.178.003.18v.176l-.001.178-.008.177-.008.176-.01.174-.014.174-.016.176-.02.171-.02.172-.025.171-.03.172-.028.171-.033.167-.035.17-.04.168-.041.167-.044.164-.048.169-.047.164-.055.162-.054.166-.058.162-.06.16-.063.162-.067.161-.069.16-.07.157-.076.157-.078.16-.079.156-.082.155-.087.157-.088.152-.09.155-.095.154-.096.152-.098.15-.103.15-.105.152-.107.15-.113.147-.111.15-.115.145-.12.145-.121.147-.124.145-.128.144-.13.143-.13.143-.137.14-.138.142-.14.14-.146.14-.144.14-.163.148-.16.146-.161.144-.16.141-.164.137-.162.136-.161.13-.164.13-.161.126-.166.122-.163.12-.166.119-.163.116-.167.111-.165.11-.165.105-.165.105-.167.1-.167.098-.167.095-.167.09-.166.09-.17.088-.168.084-.168.08-.17.078-.169.075-.168.071-.17.07-.173.066-.17.065-.17.06-.172.058-.171.054-.174.052-.172.05-.172.046-.173.043-.172.041-.173.04-.176.032-.173.035-.175.028-.176.029-.177.022-.175.02-.175.02-.177.013-.177.013-.177.01-.176.005-.177.005h-.18l-.18-.001-.178-.006-.178-.006-.18-.012-.179-.014-.18-.017-.18-.016-.183-.023-.18-.025-.182-.027-.182-.031-.181-.032-.182-.035-.18-.038-.181-.04-.18-.042-.181-.044-.18-.046-.18-.048-.18-.05-.177-.053-.179-.055-.179-.059-.179-.058-.176-.061-.177-.066-.179-.067-.176-.065-.179-.072-.176-.074-.174-.075-.176-.074-.176-.082-.174-.08-.174-.085-.176-.086-.174-.089-.173-.088-.174-.093-.173-.097-.174-.097-.173-.097-.171-.103-.173-.101-.171-.108-.171-.108-.173-.11-.169-.113-.173-.114-.168-.118-.169-.118-.17-.12-.17-.125-.169-.127-.168-.126-.168-.131-.17-.133-.166-.133-.17-.138-.166-.137-.168-.143-.165-.142-.168-.148-.165-.145-.165-.15-.166-.154-.165-.155-.163-.156-.165-.158-.165-.163-.165-.163-.162-.164-.163-.17-.163-.168-.162-.173-.198-.21-.193-.211-.193-.21-.185-.21-.186-.209-.183-.212-.178-.208-.176-.21-.172-.205-.17-.207-.168-.21-.164-.205-.16-.207-.158-.207-.155-.205-.15-.205-.15-.207-.146-.204-.142-.205-.14-.202-.139-.204-.131-.202-.132-.202-.13-.204-.123-.202-.123-.202-.117-.2-.115-.2-.115-.202-.108-.2-.109-.199-.104-.199-.1-.198-.098-.201-.093-.197-.094-.196-.087-.199-.085-.196-.086-.196-.08-.196-.077-.196-.072-.196-.07-.194-.069-.196-.066-.193-.062-.194-.058-.193-.057-.193-.051-.191-.05-.193-.047-.19-.044-.194-.041-.188-.037-.193-.036-.188-.032-.192-.028-.188-.026-.19-.024-.188-.02-.188-.015-.188-.015-.188-.01-.187-.01-.185-.002-.188-.005-.185v-.185l.001-.183.006-.182.006-.183.008-.18.012-.18.012-.181.019-.178.018-.178.02-.18.026-.176.024-.176.027-.173.031-.178.034-.171.035-.174.037-.17.04-.174.041-.17.044-.17.048-.168.05-.166.052-.169.054-.166.057-.168.058-.162.063-.166.063-.162.064-.164.07-.164.07-.161.074-.16.077-.159.078-.159.079-.157.082-.159.085-.154.088-.157.09-.154.09-.155.097-.152.098-.154.099-.15.1-.152.105-.152.105-.148.11-.15.11-.147.115-.145.115-.15.12-.145.12-.145.123-.144.126-.143.128-.14.13-.143.132-.14.136-.14.137-.141.138-.138.143-.138.144-.136.121-.113.12-.109.119-.107.118-.106.12-.105.12-.105.12-.1.119-.098.118-.099.12-.096.12-.096.118-.094.12-.092.12-.087.12-.088.12-.087.117-.086.12-.083.119-.08.117-.08.12-.08.12-.075.118-.075.12-.074.12-.071.118-.07.12-.067.119-.066.119-.067.119-.062.119-.062.118-.062.12-.058.116-.056.12-.055.12-.054.118-.05.12-.05.12-.05.118-.045.118-.045.119-.046.118-.04.118-.041.12-.039.119-.037.118-.036.118-.033.12-.03.118-.032.118-.028.12-.026.12-.026.117-.024.116-.022.12-.022.12-.017.119-.017.117-.016.12-.013.117-.011.118-.011.119-.01.117-.006.12-.005.117-.007h.119l.117-.003h.238l.117.001.117.002.117.006.116.005.12.009.116.005.117.01.116.01.117.015.118.012.117.015.114.016.119.017.116.018.117.019.114.02.116.023.116.023.116.027.114.025.116.027.117.028.116.031.113.03.116.03.116.036.114.034.116.035.113.038.116.04.114.037.113.042.116.044.113.042.114.046.115.045.113.05.114.046.113.05.115.053.114.05.113.055.113.055.11.057.116.057.113.058.113.06.113.063.112.063.113.063.11.065.113.067.113.068.113.067.11.07.113.071.11.074.113.072 4.166-3.907-.128-.115-.13-.113-.131-.108-.135-.109-.133-.106-.137-.106-.135-.105-.135-.1-.139-.1-.141-.098-.14-.096-.14-.096-.143-.092-.142-.09-.146-.089-.144-.088-.146-.085-.148-.084-.148-.083-.149-.08-.153-.078-.15-.078-.153-.075-.153-.075-.155-.069-.155-.068-.158-.071-.157-.067-.157-.062-.162-.063-.16-.06-.164-.061-.162-.058-.164-.057-.164-.052-.168-.052-.167-.05-.168-.048-.169-.048-.17-.046-.172-.041-.17-.042-.176-.042-.173-.035-.178-.036-.177-.035-.176-.033-.18-.03-.18-.029-.18-.029-.181-.027-.182-.023-.185-.02-.184-.021-.187-.019-.188-.017-.187-.014-.189-.013-.189-.012-.193-.008-.193-.009-.191-.006-.196-.006-.195-.002h-.194l-.198.004zM118.027 75.167l.252.019.248.036.247.056.24.072.236.088.23.105 41.046 20.818.217.122.208.134.198.149.188.165.173.176.164.188.147.2.136.211.118.219.103.224.086.233.07.24.053.242.035.248.017.247-.001.25-.017.245-.035.248-.053.243-.069.238-.086.233-.103.229-.118.217-.136.21-.147.2-.163.186-.176.178-4.683 4.392-.193.168-.205.155-.215.136-.225.125-.233.103-.241.09-.247.07-.25.05-.252.034-.258.015-.255-.003-.257-.024-.252-.04-.249-.059-.244-.08-.237-.094-.233-.112-9.85-5.269-8.858 8.308 4.48 10.4.088.235.075.243.056.244.039.248.021.252.003.253-.017.25-.033.25-.05.245-.07.243-.086.237-.101.23-.122.222-.135.213-.149.202-.165.192-.176.177-4.383 4.111-.188.164-.2.151-.21.138-.22.12-.227.106-.232.086-.243.071-.242.054-.25.037-.25.02-.248-.002-.25-.017-.248-.035-.245-.05-.24-.072-.234-.087-.228-.103-.22-.12-.21-.136-.202-.149-.19-.163-.175-.178-.164-.188-.151-.2-.136-.211-.118-.219-.106-.227-17.716-42.697-.088-.235-.071-.238-.052-.245-.037-.245-.017-.248v-.25l.018-.249.035-.247.05-.246.07-.238.086-.233.105-.226.118-.222.134-.208.147-.2.164-.19.177-.175 4.833-4.533.19-.166.2-.15.211-.136.221-.125.23-.103.234-.089.242-.07.247-.054.247-.035.252-.017h.25zm-4.964 8.031l17.716 42.698 4.383-4.11-5.45-12.655 12.48-11.705 12.066 6.45 4.683-4.393-41.045-20.817-4.833 4.532zm24.49 12.037l-9.88 9.267-7.983-18.716 17.863 9.45zm-8.625 3.293l2.655-2.49-4.801-2.54 2.146 5.03z"/><defs><radialGradient id="a" cx="0" cy="0" r="1" gradientUnits="userSpaceOnUse" gradientTransform="matrix(94.4098 35.956 -36.951 97.0224 142.149 88.492)"><stop offset="0%" stop-color="#3ce61a"/><stop offset="100%" stop-color="#aef4a0"/></radialGradient></defs></svg>