<svg viewBox="0 0 300 300" xmlns="http://www.w3.org/2000/svg" fill-rule="evenodd" clip-rule="evenodd" stroke-linecap="round" stroke-linejoin="round" stroke-miterlimit="1.414"><path d="M166.585 121.757c-.412-.618.203-1.476.391-2.195.443-1.693 1.055-3.339 1.5-5.031 1.941-7.373 2.981-14.856 3.27-22.502C174.291 24.901 76.349-1.078 42.22 59.556c-8.553 15.195-12.19 33.075-9.375 50.218 1.502 9.152 4.709 18.107 9.763 25.911 12.4 19.147 36.665 31.91 59.589 29.465 9.318-.994 9.965-1.433 18.651-3.443 2.295-.531 8.143-2.638 11.206-1.611 2.146.719 2.609 2.959 2.52 4.951-.111 2.472-.694 3.488-1.651 5.854-.95 2.349-2.543 4.899-.625 7.253.428.525.94.989 1.497 1.375.743.515 1.534.981 2.376 1.311 3.675 1.442 6.38-.854 9.277-2.795 1.135-.76 2.102-1.891 3.417-2.261.554-.156 1.031.528 1.486.88a52.859 52.859 0 0 1 3.391 2.9c3.844 3.542 7.683 7.093 11.421 10.748 23.285 22.77 45.331 44.88 67.996 68.282 5.815 6.004 11.337 12.288 17.195 18.25.799.813 3.436 1.037 4.125 1.067 6.616.288 9.642.108 16.283-.803 1.592-.218 5.542-.658 6.266-2.647.676-1.856.689-6.325.671-7.268-.085-4.685-.786-22.944-3.088-24.731-2.638-2.049-8.649-.743-9.824-3.301-2.268-4.938.691-11.386-1.901-13.592-2.692-2.291-11.379-2.744-12.875-4.761-2.036-2.746-.569-7.006-3.127-9.521-4.154-4.084-8.438-.932-13.276-3.491-2.075-1.097-.97-11.967-3.19-13.501-4.155-2.87-11.671 1.067-15.298-2.872-1.99-2.162-.93-12.986-1.513-15.226-.699-2.689-11.76-6.637-12.308-8.118-1.252-3.382-.515-4.771-1.34-8.211-.222-.93-.977-1.648-1.557-2.408-3.476-4.561-13.773-15.915-15.15-17.442-1.382-1.534 10.236-7.616 3.898-13.95-5.663-5.659-12.238 4.778-13.848 3.018-3.685-4.028-6.717-7.329-6.717-7.329zM82.523 55.009c11.109 0 20.129 8.724 20.129 19.47 0 10.745-9.02 19.47-20.129 19.47-11.109 0-20.128-8.725-20.128-19.47 0-10.746 9.019-19.47 20.128-19.47z" fill="url(#a)" stroke="#000" stroke-width="3.5"/><path d="M129.829 141.314l134.015 135.427M141.68 131.161L276.777 263.16" fill="none" stroke="#000" stroke-width="3"/><text x="241.595" y="464.449" font-family="Helvetica" font-size="20.065" fill="none" transform="rotate(-43.164 -1165.957 1538.065) scale(3.00606)">A</text><text x="241.595" y="464.449" font-family="Helvetica" font-size="20.065" fill="#fff" transform="rotate(-43.164 -1165.957 1538.065) scale(3.00606)">A</text><path d="M105.036 88.792l.252.018.248.036.247.057.24.071.235.089.231.105 41.044 20.82.219.12.208.134.198.148.188.166.173.176.164.188.147.2.135.21.119.22.103.224.086.232.07.24.053.243.035.247.017.248-.001.249-.017.246-.035.247-.053.243-.069.238-.086.234-.103.228-.118.218-.136.21-.147.2-.163.186-.176.177-4.684 4.392-.192.169-.205.155-.215.135-.225.125-.233.103-.241.09-.247.07-.25.05-.252.035-.258.015-.255-.004-.257-.023-.252-.04-.249-.06-.244-.08-.237-.094-.233-.112-9.852-5.267-8.858 8.308 4.48 10.401.09.233.075.242.056.245.039.247.021.252.003.253-.017.25-.033.25-.05.246-.07.242-.086.238-.101.23-.122.222-.135.212-.149.202-.165.192-.178.18-4.381 4.108-.188.165-.2.15-.21.138-.22.12-.227.106-.234.089-.24.068-.245.056-.248.035-.25.02-.248-.002-.25-.017-.248-.035-.245-.05-.24-.072-.234-.086-.228-.103-.22-.12-.21-.136-.202-.15-.19-.163-.175-.178-.164-.188-.151-.2-.136-.211-.118-.219-.106-.226L96.84 98.165l-.088-.235-.071-.238-.052-.244-.037-.246-.017-.247v-.251l.018-.248.033-.246.053-.247.069-.238.086-.234.105-.226.116-.22.136-.21.147-.2.163-.19.178-.175 4.833-4.532.19-.166.2-.151.211-.136.22-.123.23-.105.235-.088.242-.071.247-.054.247-.034.252-.018h.25zm-4.964 8.03l17.716 42.698 4.381-4.108-5.449-12.657 12.48-11.705 12.067 6.45 4.683-4.392-41.045-20.818-4.833 4.532zm24.49 12.038l-9.88 9.266L106.7 99.41l17.863 9.45zm-8.625 3.292l2.655-2.49-4.801-2.54 2.146 5.03z"/><defs><radialGradient id="a" cx="0" cy="0" r="1" gradientUnits="userSpaceOnUse" gradientTransform="matrix(94.4098 35.956 -36.951 97.0224 142.149 88.492)"><stop offset="0%" stop-color="#3ce61a"/><stop offset="100%" stop-color="#aef4a0"/></radialGradient></defs></svg>