<svg viewBox="0 0 300 300" xmlns="http://www.w3.org/2000/svg" fill-rule="evenodd" clip-rule="evenodd" stroke-linecap="round" stroke-linejoin="round" stroke-miterlimit="1.414"><path d="M166.585 121.757c-.412-.618.203-1.476.391-2.195.443-1.693 1.055-3.339 1.5-5.031 1.941-7.373 2.981-14.856 3.27-22.502C174.291 24.901 76.349-1.078 42.22 59.556c-8.553 15.195-12.19 33.075-9.375 50.218 1.502 9.152 4.709 18.107 9.763 25.911 12.4 19.147 36.665 31.91 59.589 29.465 9.318-.994 9.965-1.433 18.651-3.443 2.295-.531 8.143-2.638 11.206-1.611 2.146.719 2.609 2.959 2.52 4.951-.111 2.472-.694 3.488-1.651 5.854-.95 2.349-2.543 4.899-.625 7.253.428.525.94.989 1.497 1.375.743.515 1.534.981 2.376 1.311 3.675 1.442 6.38-.854 9.277-2.795 1.135-.76 2.102-1.891 3.417-2.261.554-.156 1.031.528 1.486.88a52.859 52.859 0 0 1 3.391 2.9c3.844 3.542 7.683 7.093 11.421 10.748 23.285 22.77 45.331 44.88 67.996 68.282 5.815 6.004 11.337 12.288 17.195 18.25.799.813 3.436 1.037 4.125 1.067 6.616.288 9.642.108 16.283-.803 1.592-.218 5.542-.658 6.266-2.647.676-1.856.689-6.325.671-7.268-.085-4.685-.786-22.944-3.088-24.731-2.638-2.049-8.649-.743-9.824-3.301-2.268-4.938.691-11.386-1.901-13.592-2.692-2.291-11.379-2.744-12.875-4.761-2.036-2.746-.569-7.006-3.127-9.521-4.154-4.084-8.438-.932-13.276-3.491-2.075-1.097-.97-11.967-3.19-13.501-4.155-2.87-11.671 1.067-15.298-2.872-1.99-2.162-.93-12.986-1.513-15.226-.699-2.689-11.76-6.637-12.308-8.118-1.252-3.382-.515-4.771-1.34-8.211-.222-.93-.977-1.648-1.557-2.408-3.476-4.561-13.773-15.915-15.15-17.442-1.382-1.534 10.236-7.616 3.898-13.95-5.663-5.659-12.238 4.778-13.848 3.018-3.685-4.028-6.717-7.329-6.717-7.329zM82.523 55.009c11.109 0 20.129 8.724 20.129 19.47 0 10.745-9.02 19.47-20.129 19.47-11.109 0-20.128-8.725-20.128-19.47 0-10.746 9.019-19.47 20.128-19.47z" fill="url(#a)" stroke="#000" stroke-width="3.5"/><path d="M129.829 141.314l134.015 135.427M141.68 131.161L276.777 263.16" fill="none" stroke="#000" stroke-width="3"/><text x="241.595" y="464.449" font-family="Helvetica" font-size="20.065" fill="none" transform="rotate(-43.164 -1166.711 1545.5) scale(3.00606)">M</text><text x="241.595" y="464.449" font-family="Helvetica" font-size="20.065" fill="#fff" transform="rotate(-43.164 -1166.711 1545.5) scale(3.00606)">M</text><path d="M116.002 75.165l.29.032.284.056.278.082.269.102.262.125.248.146.237.165.224.186.206.202 29.596 31.557.189.218.17.235.15.248.13.257.108.27.085.274.063.283.038.286.014.292-.01.289-.032.286-.056.283-.08.278-.105.271-.123.26-.145.25-.169.238-.183.221-.203.206-4.06 3.809-.22.189-.234.17-.245.152-.26.128-.27.108-.274.085-.283.063-.286.038-.287.014-.292-.007-.288-.035-.283-.056-.278-.08-.269-.103-.262-.125-.25-.145-.235-.167-.224-.185-.206-.203-10.171-10.844 6.993 15.362.105.252.08.258.065.265.042.27.02.27-.001.273-.022.271-.04.269-.064.266-.083.259-.103.25-.123.242-.14.234-.16.22-.174.21-.194.193-4.231 3.97-.204.178-.22.16-.23.146-.24.127-.25.106-.258.086-.264.066-.265.046-.273.026-.272.004-.27-.015-.269-.04-.264-.058-.263-.079-.25-.1-.247-.118-14.97-7.968 10.21 10.887.189.218.171.236.15.247.13.257.108.27.085.274.063.283.037.286.015.292-.01.289-.032.286-.056.283-.081.278-.105.271-.123.26-.144.25-.17.238-.183.221-.202.207-4.083 3.829-.219.188-.233.17-.247.153-.26.128-.266.106-.277.087-.283.063-.286.038-.288.014-.289-.01-.288-.034-.283-.056-.28-.08-.27-.101-.261-.126-.249-.146-.237-.165-.224-.186-.206-.202-29.596-31.556-.188-.219-.171-.235-.15-.247-.13-.258-.108-.269-.085-.275-.06-.285-.039-.286-.016-.29.01-.288.032-.287.056-.283.081-.278.105-.27.123-.26.144-.251.167-.24.186-.219.202-.206 6.124-5.744.203-.178.22-.161.228-.144.243-.128.25-.107.258-.085.263-.066.268-.049.27-.023.273-.004.272.017.269.036.266.06.259.078.254.1.243.118 24.966 13.314-11.73-25.716-.104-.252-.084-.26-.063-.266-.04-.267-.024-.27V84.2l.022-.271.042-.271.062-.264.085-.26.104-.25.122-.243.142-.236.158-.218.175-.21.193-.193 6.058-5.682.219-.189.23-.171.25-.152.26-.127.267-.107.277-.086.283-.064.286-.037.287-.015.29.01zm-6.312 9.172l16.021 35.121-34.086-18.178-6.124 5.743 29.595 31.556 4.083-3.829-17.467-18.624-.284-.298-.319-.336-.358-.373-.395-.412-.437-.448-.473-.487-.513-.525-.55-.56-.55-.564-.514-.527-.478-.488-.438-.454-.404-.417-.366-.382-.327-.344-.29-.31-.907-.966 34.027 18.115 4.232-3.969-15.962-35.058.594.634.584.627.573.616.56.609.552.598.539.592.53.582.52.572.494.55.458.506.426.466.386.425.353.386.314.344.282.305.245.26 17.467 18.625 4.06-3.809-29.595-31.556-6.058 5.682z"/><defs><radialGradient id="a" cx="0" cy="0" r="1" gradientUnits="userSpaceOnUse" gradientTransform="matrix(94.4098 35.956 -36.951 97.0224 142.149 88.492)"><stop offset="0%" stop-color="#3ce61a"/><stop offset="100%" stop-color="#aef4a0"/></radialGradient></defs></svg>