<svg viewBox="0 0 300 300" xmlns="http://www.w3.org/2000/svg" fill-rule="evenodd" clip-rule="evenodd" stroke-linecap="round" stroke-linejoin="round" stroke-miterlimit="1.414"><path d="M166.585 121.757c-.412-.618.203-1.476.391-2.195.443-1.693 1.055-3.339 1.5-5.031 1.941-7.373 2.981-14.856 3.27-22.502C174.291 24.901 76.349-1.078 42.22 59.556c-8.553 15.195-12.19 33.075-9.375 50.218 1.502 9.152 4.709 18.107 9.763 25.911 12.4 19.147 36.665 31.91 59.589 29.465 9.318-.994 9.965-1.433 18.651-3.443 2.295-.531 8.143-2.638 11.206-1.611 2.146.719 2.609 2.959 2.52 4.951-.111 2.472-.694 3.488-1.651 5.854-.95 2.349-2.543 4.899-.625 7.253.428.525.94.989 1.497 1.375.743.515 1.534.981 2.376 1.311 3.675 1.442 6.38-.854 9.277-2.795 1.135-.76 2.102-1.891 3.417-2.261.554-.156 1.031.528 1.486.88a52.859 52.859 0 0 1 3.391 2.9c3.844 3.542 7.683 7.093 11.421 10.748 23.285 22.77 45.331 44.88 67.996 68.282 5.815 6.004 11.337 12.288 17.195 18.25.799.813 3.436 1.037 4.125 1.067 6.616.288 9.642.108 16.283-.803 1.592-.218 5.542-.658 6.266-2.647.676-1.856.689-6.325.671-7.268-.085-4.685-.786-22.944-3.088-24.731-2.638-2.049-8.649-.743-9.824-3.301-2.268-4.938.691-11.386-1.901-13.592-2.692-2.291-11.379-2.744-12.875-4.761-2.036-2.746-.569-7.006-3.127-9.521-4.154-4.084-8.438-.932-13.276-3.491-2.075-1.097-.97-11.967-3.19-13.501-4.155-2.87-11.671 1.067-15.298-2.872-1.99-2.162-.93-12.986-1.513-15.226-.699-2.689-11.76-6.637-12.308-8.118-1.252-3.382-.515-4.771-1.34-8.211-.222-.93-.977-1.648-1.557-2.408-3.476-4.561-13.773-15.915-15.15-17.442-1.382-1.534 10.236-7.616 3.898-13.95-5.663-5.659-12.238 4.778-13.848 3.018-3.685-4.028-6.717-7.329-6.717-7.329zM82.523 55.009c11.109 0 20.129 8.724 20.129 19.47 0 10.745-9.02 19.47-20.129 19.47-11.109 0-20.128-8.725-20.128-19.47 0-10.746 9.019-19.47 20.128-19.47z" fill="url(#a)" stroke="#000" stroke-width="3.5"/><path d="M129.829 141.314l134.015 135.427M141.68 131.161L276.777 263.16" fill="none" stroke="#000" stroke-width="3"/><path d="M120.706 109.168c1.386-.76 2.845-1.114 4.379-1.057 1.532.056 3.998.722 7.405 1.999l12.58 4.673-4.661 4.372-11.42-4.513c-3.265-1.27-5.65-1.827-7.156-1.667-1.505.162-2.966.907-4.383 2.235l-4.146 3.889 12.713 13.555-4.362 4.09-30.079-32.072 8.937-8.382c3.522-3.302 6.965-5.04 10.333-5.21 3.368-.171 6.464 1.249 9.283 4.255 1.988 2.12 3.032 4.389 3.135 6.81.104 2.421-.75 4.763-2.558 7.023zm-21.425-5.02l10.68 11.386 4.746-4.453c2.077-1.947 3.184-3.864 3.33-5.748.143-1.886-.685-3.788-2.484-5.706-1.732-1.847-3.6-2.753-5.602-2.721-2 .033-4.033 1.017-6.094 2.95l-4.576 4.291z" fill="none"/><path d="M120.706 109.168c1.386-.76 2.845-1.114 4.379-1.057 1.532.056 3.998.722 7.405 1.999l12.58 4.673-4.661 4.372-11.42-4.513c-3.265-1.27-5.65-1.827-7.156-1.667-1.505.162-2.966.907-4.383 2.235l-4.146 3.889 12.713 13.555-4.362 4.09-30.079-32.072 8.937-8.382c3.522-3.302 6.965-5.04 10.333-5.21 3.368-.171 6.464 1.249 9.283 4.255 1.988 2.12 3.032 4.389 3.135 6.81.104 2.421-.75 4.763-2.558 7.023zm-21.425-5.02l10.68 11.386 4.746-4.453c2.077-1.947 3.184-3.864 3.33-5.748.143-1.886-.685-3.788-2.484-5.706-1.732-1.847-3.6-2.753-5.602-2.721-2 .033-4.033 1.017-6.094 2.95l-4.576 4.291z" fill="#fff" fill-rule="nonzero"/><path d="M111.505 87.568l.209.003.208.006.206.009.21.013.208.015.208.02.205.021.206.026.205.03.205.03.206.034.205.039.202.04.203.045.205.047.2.05.203.054.198.058.2.06.198.06.198.067.198.066.195.072.195.076.196.077.19.08.194.083.19.085.191.089.189.09.188.096.186.098.184.1.186.1.184.109.181.106.182.11.181.114.177.114.177.118.18.121.174.125.175.124.172.127.172.131.17.133.173.135.166.138.17.141.165.142.165.145.166.146.163.148.161.154.163.152.159.156.16.158.155.16.16.163.155.164.113.12.111.123.111.123.109.125.106.122.107.127.104.125.105.124.102.127.1.128.098.127.098.13.096.13.096.128.091.132.094.131.091.133.088.132.089.135.085.135.085.134.083.137.08.134.081.139.076.138.077.139.076.139.072.138.072.143.07.14.068.143.068.142.063.143.066.144.061.145.06.146.056.144.057.145.055.15.053.145.05.15.049.148.048.149.046.15.042.15.042.15.04.153.038.15.037.154.034.15.033.154.031.152.03.154.024.154.025.154.025.154.018.156.02.154.02.156.013.155.015.156.01.155.01.156.007.158.006.155.003.158.002.155.001.155v.158l-.006.157-.007.155-.007.155-.01.157-.013.157-.011.155-.018.157-.016.154-.02.155-.023.154-.023.157-.026.152-.018.104.222.035.233.041.235.044.236.046.243.052.243.053.247.06.251.062.253.063.258.068.263.074.266.073.27.08.273.082.278.085.284.088.289.092.292.097.295.099.303.103.305.105.313.11.316.113.32.116.325.12.321.118 12.579 4.676.243.101.237.12.225.135.214.154.203.168.188.182.177.197.159.21.142.221.126.232.11.24.09.249.07.251.053.26.032.262.013.26-.006.265-.028.26-.049.26-.065.256-.083.25-.103.242-.122.234-.137.223-.156.212-.172.203-.185.186-4.661 4.371-.2.175-.21.157-.222.142-.234.124-.24.105-.249.086-.255.07-.26.05-.26.03-.263.008-.264-.009-.263-.03-.258-.05-.255-.066-.248-.089-11.405-4.506-.28-.109-.275-.104-.271-.1-.267-.096-.259-.091-.252-.09-.246-.082-.238-.077-.232-.076-.227-.071-.22-.062-.212-.065-.205-.055-.2-.051-.19-.049-.186-.044-.183-.042-.078-.017-.083-.018-.082-.018-.078-.013-.08-.015-.075-.013-.074-.013-.072-.01-.067-.011-.066-.009-.066-.008-.061-.009-.062-.008-.055-.006-.057-.004-.05-.006-.054-.004-.047-.001-.044-.004-.043-.001-.042-.002h-.132l-.028.002-.023.001-.02.002-.016-.001-.02.001-.023.006-.028.001-.03.004-.027.005-.03.003-.028.006-.03.007-.028.006-.032.005-.028.006-.03.007-.03.008-.03.007-.03.008-.03.012-.03.007-.032.01-.033.01-.03.011-.032.01-.032.014-.032.01-.033.013-.032.014-.037.014-.032.014-.035.016-.034.015-.035.016-.036.018-.035.016-.037.018-.036.018-.037.022-.04.02-.034.02-.041.023-.037.022-.039.024-.039.024-.041.022-.037.027-.041.026-.037.022-.087.061-.085.06-.085.063-.087.065-.09.071-.09.072-.091.078-.092.082-.092.082-.107.097-1.583 1.484 10.319 11.003.172.197.155.209.142.221.122.232.107.237.088.248.069.253.05.257.03.26.012.262-.009.26-.027.26-.047.258-.067.253-.085.248-.103.241-.12.233-.14.22-.155.213-.168.198-.185.186-4.36 4.09-.198.172-.211.157-.22.14-.229.124-.24.106-.247.087-.253.069-.257.051-.26.03-.262.01-.261-.006-.259-.03-.258-.046-.253-.067-.248-.085-.241-.103-.233-.12-.22-.14-.212-.155-.2-.168-.185-.185-30.079-32.071-.172-.197-.157-.211-.14-.22-.124-.229-.107-.242-.086-.245-.069-.253-.051-.257-.03-.26-.013-.26.009-.264.027-.26.049-.256.065-.255.087-.246.103-.242.12-.232.14-.22.15-.213.173-.198.183-.188 8.941-8.386.18-.165.184-.168.182-.166.184-.165.186-.162.183-.16.186-.158.184-.155.188-.152.185-.153.188-.147.185-.145.188-.147.185-.141.19-.14.19-.137.186-.135.192-.134.187-.13.191-.13.19-.124.19-.125.191-.122.193-.12.191-.116.195-.113.191-.113.195-.109.195-.108.195-.105.194-.104.197-.098.197-.098.194-.096.199-.091.198-.092.199-.087.196-.085.2-.08.2-.082.201-.076.2-.077.202-.07.203-.07.202-.066.202-.065.204-.06.204-.06.203-.054.206-.053.204-.051.206-.049.205-.044.206-.04.207-.039.205-.036.208-.033.207-.03.21-.027.206-.025.21-.02.209-.018.206-.017.21-.01.208-.01.208-.006.209-.002.208.002zm-.344 3.5l-.157.004-.158.007-.157.008-.158.012-.158.016-.158.017-.158.016-.158.02-.16.023-.158.024-.159.03-.158.028-.158.033-.161.036-.16.035-.16.037-.158.042-.16.044-.16.046-.159.05-.16.048-.16.055-.159.054-.161.056-.162.061-.16.063-.159.063-.163.067-.16.067-.162.074-.16.071-.161.078-.162.078-.16.08-.162.082-.163.086-.162.086-.16.089-.163.09-.162.095-.16.097-.163.099-.165.1-.163.104-.16.106-.164.107-.163.112-.163.112-.165.113-.161.119-.166.118-.161.122-.163.124-.164.125-.164.129-.165.13-.164.133-.164.138-.164.137-.164.137-.166.144-.164.145-.164.146-.165.15-.164.15-.165.154-8.937 8.382 30.08 32.072 4.36-4.09-12.712-13.555 4.146-3.889.132-.123.133-.117.134-.117.133-.113.135-.11.133-.105.136-.102.135-.102.135-.093.134-.094.07-.044.067-.043.067-.042.068-.043.067-.042.07-.04.069-.04.067-.039.067-.038.07-.036.068-.036.07-.036.067-.034.067-.034.07-.034.07-.032.067-.03.071-.03.067-.03.071-.029.069-.027.067-.026.07-.025.07-.028.068-.023.07-.024.07-.02.069-.024.069-.019.07-.021.07-.02.07-.016.069-.02.07-.016.069-.015.073-.015.068-.014.07-.013.071-.013.069-.01.072-.01.069-.011.07-.009.07-.008.073-.006.073-.006.074-.004.075-.004.076-.002.077-.002.08-.002h.08l.082.001.081.003.085.003.085.007.087.005.087.005.091.009.09.007.092.011.092.01.095.013.095.014.098.012.097.016.102.016.099.018.104.018.103.018.104.023.105.02.108.023.108.022.224.05.223.054.232.058.237.063.242.065.246.074.251.074.26.079.26.085.268.087.27.091.28.097.285.1.288.105.292.11.298.111.303.116 11.42 4.513 4.661-4.372-12.58-4.673-.317-.119-.31-.114-.306-.112-.301-.105-.295-.103-.288-.101-.284-.096-.277-.094-.272-.088-.267-.087-.261-.08-.257-.081-.25-.074-.245-.072-.24-.067-.235-.065-.23-.06-.221-.057-.22-.053-.21-.05-.207-.049-.203-.04-.195-.04-.19-.036-.186-.032-.178-.027-.173-.027-.17-.022-.163-.016-.078-.009-.079-.005-.076-.006-.075-.005-.074-.004-.072-.003-.145-.004-.142-.003-.142.002-.143.002-.143.006-.14.008-.143.01-.14.013-.14.015-.138.019-.14.019-.138.023-.14.023-.138.027-.137.03-.135.032-.138.034-.137.038-.133.038-.138.043-.133.042-.137.047-.132.049-.133.05-.136.054-.131.057-.132.058-.134.06-.13.063-.131.066-.13.068-.13.068.082-.105.085-.108.082-.106.077-.106.078-.106.078-.106.076-.108.074-.106.073-.106.072-.109.071-.108.07-.106.065-.107.067-.108.063-.109.065-.106.06-.107.062-.11.059-.109.056-.107.055-.109.056-.106.053-.111.052-.107.05-.109.05-.109.047-.109.048-.111.044-.107.044-.112.041-.109.042-.11.038-.108.037-.11.036-.111.037-.11.034-.11.03-.111.032-.112.03-.11.028-.11.027-.11.025-.11.023-.113.022-.112.02-.11.024-.112.016-.11.018-.112.015-.112.014-.112.014-.113.01-.112.01-.112.008-.11.008-.115.006-.113.003-.11.004-.115.001-.113v-.115l-.001-.11-.003-.113-.005-.115-.007-.113-.007-.113-.007-.113-.009-.11-.011-.114-.011-.113-.016-.113-.013-.111-.018-.111-.018-.111-.02-.114-.02-.109-.021-.111-.025-.11-.026-.11-.024-.11-.028-.11-.029-.109-.03-.111-.033-.11-.03-.107-.037-.11-.035-.107-.04-.108-.036-.11-.04-.107-.042-.108-.044-.107-.043-.108-.046-.106-.047-.108-.048-.103-.048-.108-.054-.106-.05-.106-.053-.106-.057-.104-.058-.106-.058-.106-.056-.104-.063-.106-.063-.102-.062-.106-.065-.104-.067-.102-.069-.105-.067-.102-.07-.102-.074-.105-.071-.102-.076-.102-.075-.102-.078-.1-.08-.103-.079-.103-.082-.1-.082-.1-.083-.103-.087-.101-.088-.098-.086-.101-.09-.1-.093-.1-.09-.1-.134-.138-.134-.139-.131-.136-.132-.132-.134-.13-.137-.127-.134-.126-.134-.125-.137-.12-.136-.119-.135-.117-.139-.113-.136-.115-.14-.108-.136-.107-.14-.104-.136-.102-.14-.1-.141-.099-.14-.096-.141-.093-.14-.092-.14-.087-.143-.088-.14-.083-.142-.081-.144-.08-.143-.076-.144-.075-.144-.075-.145-.066-.144-.07-.147-.065-.145-.062-.145-.062-.149-.058-.145-.058-.147-.051-.147-.052-.15-.05-.147-.047-.15-.045-.15-.04-.147-.04-.152-.038-.147-.035-.155-.032-.147-.03-.155-.03-.152-.025-.15-.024-.155-.02-.153-.018-.152-.017-.155-.016-.155-.011-.153-.01-.157-.004-.155-.008-.155-.002-.157-.001-.158.003zm-1.02 5.837l.09.001.094.003.094.007.091.005.093.008.091.009.094.011.09.01.092.013.093.016.09.014.092.017.09.018.094.02.09.022.091.022.089.024.088.024.09.027.091.03.089.029.09.03.088.033.089.032.09.035.088.037.088.037.088.041.086.039.088.041.088.045.088.046.086.043.088.05.085.047.088.05.086.051.087.054.083.054.086.056.087.058.086.056.085.06.083.062.087.062.083.063.083.066.085.069.083.066.085.069.083.07.085.073.08.073.083.075.085.077.08.077.083.08.082.079.083.083.082.084.083.083.08.086.084.09.082.091.08.09.08.09.078.087.076.09.074.092.076.09.071.089.072.09.067.089.07.091.067.09.063.089.065.087.061.091.063.09.059.089.057.09.058.09.055.089.054.089.05.088.053.091.05.09.047.088.046.089.046.088.044.091.041.089.042.088.04.09.037.09.036.09.037.088.034.088.03.09.034.089.027.09.03.088.026.09.025.088.025.088.022.09.02.088.02.09.02.088.014.09.016.087.014.09.013.088.012.087.01.09.007.087.006.09.006.09.003.087.002.09.003.086v.092l-.001.087-.005.087-.003.09-.007.088-.007.09-.01.086-.01.09-.012.088-.014.087-.013.091-.018.087-.015.089-.02.088-.02.089-.02.089-.024.088-.024.089-.027.09-.028.089-.028.088-.03.09-.03.089-.034.09-.033.089-.036.088-.04.09-.036.088-.042.092-.04.088-.044.09-.043.09-.046.088-.047.09-.048.09-.051.09-.052.09-.052.09-.054.091-.054.088-.058.092-.058.087-.06.09-.063.091-.062.092-.065.09-.065.089-.066.091-.069.09-.069.088-.07.092-.074.093-.073.09-.075.09-.078.09-.079.09-.08.091-.079.091-.084.091-.083.091-.084.091-.088.09-.088.092-.09.092-.09.089-.093.09-.094.093-.096.09-.095.093-4.747 4.453-10.679-11.387 4.576-4.291.094-.089.099-.088.096-.086.097-.087.096-.086.096-.082.096-.082.099-.08.094-.08.096-.077.098-.076.096-.073.096-.074.096-.073.095-.07.096-.069.096-.069.096-.065.095-.065.098-.063.094-.063.095-.06.098-.059.093-.059.095-.056.098-.054.095-.053.098-.054.093-.05.097-.05.095-.048.095-.048.093-.046.095-.044.097-.041.093-.042.097-.042.095-.035.094-.04.095-.035.095-.035.094-.03.095-.032.095-.03.096-.03.095-.026.094-.027.094-.023.093-.024.096-.02.094-.023.094-.018.094-.019.097-.016.094-.014.094-.014.092-.012.093-.01.094-.01.096-.007.094-.005.094-.006.094-.005.093-.001.094-.002.095.001zm-.13 3.5l-.044.002h-.04l-.044.003-.042.003-.043.003-.045.005-.04.005-.045.005-.045.005-.045.01-.045.008-.047.007-.045.01-.045.009-.047.011-.05.013-.046.012-.05.013-.049.013-.051.016-.05.017-.051.015-.052.02-.052.02-.054.017-.053.022-.054.021-.056.024-.056.024-.059.026-.056.028-.058.025-.058.03-.059.03-.06.033-.061.032-.063.034-.063.034-.062.038-.065.037-.063.038-.065.04-.068.043-.065.045-.067.042-.068.047-.067.047-.07.048-.07.05-.07.052-.07.051-.07.053-.073.06-.072.055-.072.059-.074.061-.074.062-.075.061-.074.066-.076.063-.075.07-.077.068-.076.072-.086.076-2.017 1.892 5.89 6.28 2.19-2.055.083-.078.077-.072.075-.074.074-.074.073-.072.072-.073.069-.072.066-.07.066-.07.066-.07.064-.068.06-.069.059-.068.06-.068.055-.069.057-.066.053-.066.051-.065.051-.064.051-.064.047-.065.047-.06.044-.062.043-.06.042-.06.042-.061.038-.06.038-.057.036-.058.034-.056.034-.057.033-.056.032-.054.03-.053.029-.052.025-.052.027-.05.025-.053.025-.048.023-.05.02-.048.02-.044.02-.047.018-.046.018-.046.014-.042.017-.044.014-.042.014-.042.012-.04.012-.04.012-.04.007-.04.01-.039.008-.036.01-.037.007-.036.005-.034.006-.038.005-.034.005-.034.004-.032.003-.036.003-.032.003-.032.001-.034.001-.03.001-.033v-.032l-.002-.032-.001-.032-.001-.032-.001-.032-.003-.034-.004-.034-.003-.034-.005-.032-.003-.035-.005-.036-.008-.034-.005-.036-.008-.035-.009-.036-.007-.039-.012-.038-.01-.037-.009-.04-.013-.041-.014-.041-.013-.041-.014-.04-.016-.044-.017-.045-.016-.043-.02-.048-.02-.043-.02-.047-.023-.048-.022-.05-.024-.047-.026-.05-.026-.054-.028-.047-.03-.054-.03-.055-.03-.054-.035-.054-.032-.056-.037-.057-.036-.056-.039-.059-.04-.057-.04-.058-.044-.061-.043-.059-.047-.063-.044-.061-.052-.063-.049-.062-.05-.063-.054-.065-.053-.066-.058-.066-.057-.065-.06-.068-.059-.068-.064-.068-.064-.068-.057-.061-.06-.064-.057-.057-.06-.06-.058-.056-.056-.055-.057-.053-.056-.05-.056-.052-.056-.05-.056-.047-.054-.048-.053-.045-.054-.044-.054-.04-.052-.042-.054-.04-.052-.038-.052-.038-.05-.035-.05-.036-.05-.031-.05-.032-.048-.033-.048-.03-.048-.028-.048-.025-.046-.027-.048-.025-.044-.025-.046-.023-.046-.022-.044-.021-.044-.02-.044-.021-.042-.019-.044-.016-.04-.016-.044-.016-.04-.016-.042-.015-.042-.014-.04-.012-.04-.011-.04-.012-.04-.012-.04-.008-.038-.01-.042-.01-.04-.007-.039-.006-.04-.007-.038-.006-.04-.008-.04-.003-.04-.003-.041-.004-.04-.003-.04-.004-.04-.003-.043-.001h-.123z"/><defs><radialGradient id="a" cx="0" cy="0" r="1" gradientUnits="userSpaceOnUse" gradientTransform="matrix(94.4098 35.956 -36.951 97.0224 142.149 88.492)"><stop offset="0%" stop-color="#3ce61a"/><stop offset="100%" stop-color="#aef4a0"/></radialGradient></defs></svg>