<svg viewBox="0 0 300 300" xmlns="http://www.w3.org/2000/svg" fill-rule="evenodd" clip-rule="evenodd" stroke-linecap="round" stroke-linejoin="round" stroke-miterlimit="1.414"><path d="M168.057 120.019c-.412-.618.203-1.476.392-2.194.443-1.694 1.054-3.34 1.499-5.032 1.941-7.373 2.981-14.855 3.27-22.502 2.545-67.128-95.397-93.107-129.526-32.472-8.553 15.194-12.19 33.074-9.375 50.218 1.502 9.152 4.709 18.107 9.763 25.91 12.4 19.147 36.665 31.91 59.589 29.465 9.318-.994 9.965-1.433 18.651-3.443 2.295-.531 8.143-2.637 11.206-1.611 2.146.719 2.609 2.96 2.52 4.951-.111 2.472-.694 3.489-1.651 5.854-.95 2.35-2.543 4.9-.625 7.253.428.525.94.989 1.497 1.375.743.516 1.534.981 2.376 1.312 3.676 1.441 6.38-.854 9.277-2.796 1.135-.76 2.103-1.891 3.417-2.261.554-.156 1.031.528 1.486.881a52.843 52.843 0 0 1 3.391 2.899c3.844 3.543 7.683 7.093 11.421 10.748 23.285 22.771 45.331 44.88 67.996 68.283 5.815 6.003 11.338 12.288 17.196 18.249.798.813 3.435 1.037 4.125 1.067 6.615.288 9.641.108 16.282-.803 1.592-.218 5.543-.657 6.266-2.646.676-1.857.689-6.325.671-7.269-.085-4.684-.94-28.259-2.394-28.758-3.925-1.344-12.034-4.188-12.524-5.667-.361-1.09-1.78-8.41-2.491-9.312-.384-.487-1.115-.583-1.724-.692-2.063-.372-4.691.653-6.187-1.364-2.036-2.746-3.176-12.969-5.968-17.678-3.238-5.461-19.604-3.289-21.824-4.823-4.154-2.87 1.426-12.355-2.081-16.401-4.017-4.635-10.963-1.372-12.39-6.862-.699-2.689 1.043-7.551.494-9.032-1.252-3.382-9.826-3.296-10.651-6.736-.222-.929-.977-1.648-1.557-2.408-3.476-4.561-13.773-15.915-15.15-17.442-1.382-1.534 10.236-7.616 3.898-13.949-5.663-5.66-12.238 4.777-13.848 3.017-3.685-4.027-6.717-7.329-6.717-7.329zM83.995 53.271c11.109 0 20.129 8.724 20.129 19.47 0 10.746-9.02 19.47-20.129 19.47-11.109 0-20.128-8.724-20.128-19.47 0-10.746 9.019-19.47 20.128-19.47z" fill="url(#a)" stroke="#000" stroke-width="3.5"/><path d="M129.829 141.314l133.618 135.101M141.68 131.161l137.706 136.374" fill="none" stroke="#000" stroke-width="3"/><text x="241.595" y="464.449" font-family="Helvetica" font-size="20.065" fill="none" transform="rotate(-43.164 -1165.193 1544.404) scale(3.00606)">M</text><text x="241.595" y="464.449" font-family="Helvetica" font-size="20.065" fill="#fff" transform="rotate(-43.164 -1165.193 1544.404) scale(3.00606)">M</text><path d="M117.162 75.907l.29.032.284.056.278.082.269.102.262.125.248.146.237.165.224.186.206.202 29.596 31.557.189.218.17.235.15.248.13.257.108.27.085.274.063.283.038.286.014.292-.01.289-.032.286-.056.283-.08.278-.105.271-.123.26-.145.25-.169.238-.183.221-.203.206-4.06 3.809-.22.189-.234.17-.245.152-.26.128-.27.108-.274.085-.283.063-.286.038-.287.014-.292-.007-.288-.035-.283-.056-.278-.08-.269-.103-.262-.125-.25-.145-.235-.167-.224-.185-.206-.203-10.171-10.844 6.993 15.362.105.252.08.258.065.265.042.27.02.27-.001.273-.022.271-.04.269-.064.266-.083.259-.103.25-.123.242-.14.234-.16.22-.174.21-.194.193-4.231 3.97-.204.178-.22.16-.23.146-.24.127-.25.106-.258.086-.264.066-.265.046-.273.026-.272.004-.27-.015-.269-.04-.264-.058-.263-.079-.25-.1-.247-.118-14.97-7.968 10.21 10.887.189.218.171.236.15.247.13.257.108.27.085.274.063.283.037.286.015.292-.01.289-.032.286-.056.283-.081.278-.105.271-.123.26-.144.25-.17.238-.183.221-.202.207-4.083 3.829-.219.188-.233.17-.247.153-.26.128-.266.106-.277.087-.283.063-.286.038-.288.014-.289-.01-.288-.034-.283-.056-.28-.08-.27-.101-.261-.126-.249-.146-.237-.165-.224-.186-.206-.202-29.596-31.556-.188-.219-.171-.235-.15-.247-.13-.258-.108-.269-.085-.275-.06-.285-.039-.286-.016-.29.01-.288.032-.287.056-.283.081-.278.105-.27.123-.26.144-.251.167-.24.186-.219.202-.206 6.124-5.744.203-.178.22-.161.228-.144.243-.128.25-.107.258-.085.263-.066.268-.049.27-.023.273-.004.272.017.269.036.266.06.259.078.254.1.243.118 24.966 13.314-11.73-25.716-.104-.252-.084-.26-.063-.266-.04-.267-.024-.27v-.273l.022-.271.042-.271.062-.264.085-.26.104-.25.122-.243.142-.236.158-.218.175-.21.193-.193 6.058-5.682.219-.189.23-.171.25-.152.26-.127.267-.107.277-.086.283-.064.286-.037.287-.015.29.01zm-6.312 9.172L126.87 120.2l-34.086-18.178-6.124 5.743 29.595 31.556 4.083-3.829-17.467-18.624-.284-.298-.319-.336-.358-.373-.395-.412-.437-.448-.473-.487-.513-.525-.55-.56-.55-.564-.514-.527-.478-.488-.438-.454-.404-.417-.366-.382-.327-.344-.29-.31-.907-.966 34.027 18.115 4.232-3.969-15.962-35.058.594.634.584.627.573.616.56.609.552.598.539.592.53.582.52.572.494.55.458.506.426.466.386.425.353.386.314.344.282.305.245.26 17.467 18.625 4.06-3.809-29.595-31.556-6.058 5.682z"/><defs><radialGradient id="a" cx="0" cy="0" r="1" gradientUnits="userSpaceOnUse" gradientTransform="matrix(94.4098 35.956 -36.951 97.0224 143.621 86.755)"><stop offset="0%" stop-color="#2708a0"/><stop offset="100%" stop-color="#c2b3ff"/></radialGradient></defs></svg>