<svg viewBox="0 0 300 300" xmlns="http://www.w3.org/2000/svg" fill-rule="evenodd" clip-rule="evenodd" stroke-linecap="round" stroke-linejoin="round" stroke-miterlimit="1.414"><path d="M166.585 121.757c-.412-.618.203-1.476.391-2.195.443-1.693 1.055-3.339 1.5-5.031 1.941-7.373 2.981-14.856 3.27-22.502C174.291 24.901 76.349-1.078 42.22 59.556c-8.553 15.195-12.19 33.075-9.375 50.218 1.502 9.152 4.709 18.107 9.763 25.911 12.4 19.147 36.665 31.91 59.589 29.465 9.318-.994 9.965-1.433 18.651-3.443 2.295-.531 8.143-2.638 11.206-1.611 2.146.719 2.609 2.959 2.52 4.951-.111 2.472-.694 3.488-1.651 5.854-.95 2.349-2.543 4.899-.625 7.253.428.525.94.989 1.497 1.375.743.515 1.534.981 2.376 1.311 3.675 1.442 6.38-.854 9.277-2.795 1.135-.76 2.102-1.891 3.417-2.261.554-.156 1.031.528 1.486.88a52.859 52.859 0 0 1 3.391 2.9c3.844 3.542 7.683 7.093 11.421 10.748 23.285 22.77 45.331 44.88 67.996 68.282 5.815 6.004 11.337 12.288 17.195 18.25.799.813 3.436 1.037 4.125 1.067 6.616.288 9.642.108 16.283-.803 1.592-.218 5.542-.658 6.266-2.647.676-1.856.689-6.325.671-7.268-.085-4.685-.786-22.944-3.088-24.731-2.638-2.049-8.649-.743-9.824-3.301-2.268-4.938.691-11.386-1.901-13.592-2.692-2.291-11.379-2.744-12.875-4.761-2.036-2.746-.569-7.006-3.127-9.521-4.154-4.084-8.438-.932-13.276-3.491-2.075-1.097-.97-11.967-3.19-13.501-4.155-2.87-11.671 1.067-15.298-2.872-1.99-2.162-.93-12.986-1.513-15.226-.699-2.689-11.76-6.637-12.308-8.118-1.252-3.382-.515-4.771-1.34-8.211-.222-.93-.977-1.648-1.557-2.408-3.476-4.561-13.773-15.915-15.15-17.442-1.382-1.534 10.236-7.616 3.898-13.95-5.663-5.659-12.238 4.778-13.848 3.018-3.685-4.028-6.717-7.329-6.717-7.329zM82.523 55.009c11.109 0 20.129 8.724 20.129 19.47 0 10.745-9.02 19.47-20.129 19.47-11.109 0-20.128-8.725-20.128-19.47 0-10.746 9.019-19.47 20.128-19.47z" fill="url(#a)" stroke="#000" stroke-width="3.5"/><path d="M129.829 141.314l134.015 135.427M141.68 131.161L276.777 263.16" fill="none" stroke="#000" stroke-width="3"/><path d="M92.822 103.504l17.808-16.702 3.424 3.65-6.722 6.306 23.229 24.768 6.722-6.305 3.426 3.653-17.808 16.702-3.426-3.653 6.725-6.307-23.23-24.768-6.724 6.307-3.424-3.65z" fill="none"/><path d="M92.822 103.504l17.808-16.702 3.424 3.65-6.722 6.306 23.229 24.768 6.722-6.305 3.426 3.653-17.808 16.702-3.426-3.653 6.725-6.307-23.23-24.768-6.724 6.307-3.424-3.65z" fill="#fff" fill-rule="nonzero"/><path d="M110.99 83.32l.248.035.245.05.24.072.234.086.228.103.22.12.21.132.202.15.188.165.177.175 3.424 3.651.164.188.154.199.135.21.119.219.105.227.088.234.071.239.056.244.035.248.02.25v.25l-.016.246-.036.248-.05.245-.072.24-.086.234-.103.228-.12.22-.132.21-.149.202-.163.19-.176.177-4.17 3.912 18.44 19.66 4.17-3.91.188-.165.2-.15.211-.136.217-.121.228-.103.233-.09.24-.07.244-.055.246-.037.252-.018h.246l.25.016.249.036.245.05.238.07.235.088.229.103.217.117.213.135.201.149.186.163.178.176 3.426 3.653.164.188.153.198.133.209.121.22.105.227.089.235.07.238.055.242.036.25.018.248v.25l-.014.249-.036.248-.052.243-.07.242-.086.233-.103.229-.12.22-.132.21-.15.2-.164.19-.176.177-17.808 16.702-.189.164-.2.151-.207.136-.22.12-.227.106-.235.088-.238.071-.244.052-.248.039-.247.017h-.251l-.25-.016-.246-.033-.245-.055-.24-.067-.234-.086-.228-.103-.22-.12-.212-.135-.198-.148-.19-.164-.177-.176-3.426-3.653-.164-.188-.15-.198-.137-.209-.12-.22-.104-.225-.088-.234-.073-.241-.052-.244-.037-.246-.02-.25v-.25l.019-.249.03-.247.056-.245.069-.238.084-.236.105-.226.118-.222.136-.21.147-.2.163-.19.176-.177 4.17-3.912-18.44-19.66-4.17 3.91-.188.164-.2.151-.209.134-.22.12-.227.106-.235.088-.238.071-.242.054-.25.037-.247.017-.25.003-.25-.016-.247-.036-.243-.052-.243-.07-.233-.086-.229-.103-.219-.12-.21-.132-.2-.151-.19-.164-.178-.175-3.423-3.651-.165-.188-.15-.2-.138-.21-.119-.218-.105-.227-.089-.234-.07-.239-.054-.246-.037-.246-.02-.25v-.25l.018-.248.034-.246.052-.247.07-.238.086-.233.103-.229.12-.22.134-.212.147-.2.163-.19.176-.177 17.808-16.702.189-.164.2-.151.21-.136.22-.119.226-.105.235-.088.238-.071.244-.056.248-.035.25-.02h.246l.25.016zm-18.168 20.184l3.424 3.651 6.724-6.307 23.23 24.768-6.725 6.307 3.426 3.653 17.808-16.702-3.426-3.653-6.722 6.305-23.23-24.768 6.723-6.305-3.424-3.65-17.808 16.701z"/><defs><radialGradient id="a" cx="0" cy="0" r="1" gradientUnits="userSpaceOnUse" gradientTransform="matrix(94.4098 35.956 -36.951 97.0224 142.149 88.492)"><stop offset="0%" stop-color="#3ce61a"/><stop offset="100%" stop-color="#aef4a0"/></radialGradient></defs></svg>