<svg viewBox="0 0 1000 1200" xmlns="http://www.w3.org/2000/svg" fill-rule="evenodd" clip-rule="evenodd" stroke-linecap="round" stroke-linejoin="round" stroke-miterlimit="1.414"><path d="M910.013 89.362L90 89.4l-.013 1021.24h820.026V89.36z" fill="#fff" stroke="#000" stroke-width="14"/><path d="M185.846 674.832c11.514-1.178 18.903-3.785 22.167-7.819 3.264-4.035 4.896-13.396 4.896-28.084v-113.15c0-10.064-1.586-16.614-4.76-19.651-3.173-3.038-10.381-4.828-21.623-5.372v-5.168h55.079l64.463 140.485 61.606-140.485h55.487v5.168c-10.335.725-16.999 2.606-19.991 5.644-2.992 3.037-4.488 9.497-4.488 19.379v123.894c0 10.154 1.496 16.66 4.488 19.516 2.992 2.856 9.656 4.737 19.991 5.643v5.032h-78.062v-5.032c11.242-.906 18.246-2.923 21.011-6.051 2.766-3.128 4.148-10.586 4.148-22.372V521.291l-71.262 158.573h-3.808l-70.039-152.045v111.11c0 15.232 2.221 25.16 6.664 29.784 2.901 2.992 9.384 5.031 19.448 6.119v5.032h-65.415v-5.032zM554.671 608.33l-32.231-76.703-31.824 76.703h64.055zm-120.222 71.534v-5.032c7.163-.816 12.535-3.535 16.116-8.159 3.581-4.624 9.724-17.181 18.428-37.672l58.071-136.677h5.439l69.359 157.893c4.624 10.517 8.319 17.022 11.084 19.516 2.765 2.493 7.412 4.193 13.94 5.099v5.032h-70.855v-5.032c8.16-.725 13.418-1.609 15.776-2.651 2.357-1.043 3.536-3.604 3.536-7.684 0-1.36-.454-3.763-1.36-7.208-.907-3.445-2.176-7.072-3.808-10.88l-11.56-26.792H485.72c-7.253 18.224-11.582 29.353-12.987 33.388-1.406 4.034-2.108 7.23-2.108 9.588 0 4.714 1.904 7.978 5.711 9.791 2.358 1.088 6.8 1.904 13.328 2.448v5.032h-55.215zM765.603 496.812c10.608 2.992 16.546 4.488 17.816 4.488 2.629 0 5.122-.726 7.48-2.176 2.357-1.451 3.989-3.718 4.896-6.8h5.847l2.584 62.559h-6.391c-3.718-12.421-8.568-22.44-14.552-30.056-11.424-14.325-26.792-21.487-46.103-21.487-19.493 0-35.428 7.706-47.803 23.119-12.376 15.413-18.564 36.629-18.564 63.647 0 24.842 6.505 44.675 19.516 59.499 13.01 14.824 29.488 22.236 49.435 22.236 14.415 0 27.698-3.446 39.847-10.336 6.981-3.899 14.642-9.792 22.983-17.68l5.168 5.168c-6.165 7.797-13.826 14.642-22.983 20.536-15.595 9.973-32.504 14.959-50.727 14.959-29.92 0-53.674-9.565-71.263-28.695-16.229-17.68-24.344-39.757-24.344-66.231 0-27.109 8.568-49.866 25.704-68.271 18.042-19.311 41.525-28.967 70.447-28.967 10.064 0 20.399 1.496 31.007 4.488z" fill-rule="nonzero"/><path d="M168.085 239.637h663.83M168.085 328.313h663.83M168.085 834.445h663.83M168.085 925h663.83M168.085 1017.67h663.83M168.085 154.218h663.83" fill="none" stroke="#000" stroke-width="11"/></svg>