<svg viewBox="0 0 1000 1200" xmlns="http://www.w3.org/2000/svg" fill-rule="evenodd" clip-rule="evenodd" stroke-linecap="round" stroke-linejoin="round" stroke-miterlimit="1.414"><path d="M910.013 89.362L90 89.4l-.013 1021.24h820.026V89.36z" fill="#fff" stroke="#ff2c2d" stroke-width="14"/><path d="M343.092 738.913c19.314-2.1 31.38-5.683 36.198-10.748 4.818-5.066 7.247-18.284 7.247-39.698V474.454c0-17.708-2.718-29.197-8.112-34.509-5.354-5.312-17.172-8.607-35.333-9.883v-9.183h137.295v9.183c-18.16 1.276-30.02 4.57-35.456 9.883-5.477 5.312-8.236 16.801-8.236 34.509v96.279h149.854v-96.28c0-17.707-2.635-29.196-7.948-34.508-5.312-5.312-17.13-8.607-35.497-9.883v-9.183H680.4v9.183c-18.16 1.276-29.938 4.57-35.333 9.883-5.395 5.312-8.071 16.801-8.071 34.509v219.82c0 17.995 2.676 29.525 8.071 34.59 5.395 5.107 17.172 8.442 35.333 10.049v8.894H543.104v-8.894c19.478-1.936 31.585-5.477 36.32-10.625 4.778-5.147 7.125-18.407 7.125-39.821v-96.032H436.695v101.838c0 17.996 2.759 29.568 8.236 34.715 5.436 5.148 17.295 8.442 35.456 9.925v8.894H343.092v-8.894z" fill="none"/><path d="M343.092 738.913c19.314-2.1 31.38-5.683 36.198-10.748 4.818-5.066 7.247-18.284 7.247-39.698V474.454c0-17.708-2.718-29.197-8.112-34.509-5.354-5.312-17.172-8.607-35.333-9.883v-9.183h137.295v9.183c-18.16 1.276-30.02 4.57-35.456 9.883-5.477 5.312-8.236 16.801-8.236 34.509v96.279h149.854v-96.28c0-17.707-2.635-29.196-7.948-34.508-5.312-5.312-17.13-8.607-35.497-9.883v-9.183H680.4v9.183c-18.16 1.276-29.938 4.57-35.333 9.883-5.395 5.312-8.071 16.801-8.071 34.509v219.82c0 17.995 2.676 29.525 8.071 34.59 5.395 5.107 17.172 8.442 35.333 10.049v8.894H543.104v-8.894c19.478-1.936 31.585-5.477 36.32-10.625 4.778-5.147 7.125-18.407 7.125-39.821v-96.032H436.695v101.838c0 17.996 2.759 29.568 8.236 34.715 5.436 5.148 17.295 8.442 35.456 9.925v8.894H343.092v-8.894z" fill="#ff2c2d" fill-rule="nonzero" stroke="#ff2c2d" stroke-width=".8236020000000001" stroke-linecap="butt"/><path d="M168.085 239.637h663.83M168.085 328.313h663.83M168.085 834.445h663.83M168.085 925h663.83M168.085 1017.67h663.83M168.085 154.218h663.83" fill="none" stroke="#ff2c2d" stroke-width="11"/></svg>