<svg viewBox="0 0 1000 1200" xmlns="http://www.w3.org/2000/svg" fill-rule="evenodd" clip-rule="evenodd" stroke-linecap="round" stroke-linejoin="round" stroke-miterlimit="1.414"><path d="M910.013 89.362L90 89.4l-.013 1021.24h820.026V89.36z" fill="#fff" stroke="#000" stroke-width="14"/><path d="M148.1 253.077l90.586-49.099 76.643 61.018 73.31-29.942 81.204 52.681 70.651-44.166 79.467 55.158 69.475-45.001 70.208-24.545 8.031 29.58 64.24-5.684M148.1 131.312l70.695 43.526 66.908-14.139 57.857 28.749 72.176-29.27 41.953-36.969 49.317 55.996 108.218-45.481 91.355 69.367 67.927-51.933 57.409 13.244M168.085 1027.11l82.455 42.052 63.104-86.655 89.979 41.293 67.322-44.424 56.942 92.231 27.893-29.616 113.406-46.517 54.764 46.984 57.44 13.501 50.525-46.76M168.085 921.98l82.5-39.049 51.149 11.275 79.38 62.181 110.091-40.057 118.275 54.428 19.782-61.067 181.502 33.305 21.151-21.016M168.085 834.871l110.95-45.162 100.42 61.721 69.469-36.683 72.068 69.238 73.982-103.048 93.938 90.089 76.694-69.472 66.309 33.317M148.132 361.709l80.961-48.793 100.525 36.614 83.282-41.962 50.895 42.937 96.125 18.711 84.65-23.54 41.374-46.602 70.657 70.431 75.314-31.009" fill="none" stroke="#000" stroke-width="11"/><path d="M343.162 738.914c19.303-2.092 31.367-5.671 36.193-10.738 4.826-5.067 7.239-18.298 7.239-39.692V474.46c0-17.695-2.695-29.196-8.083-34.505-5.389-5.308-17.172-8.606-35.349-9.893v-9.169h137.294v9.169c-18.178 1.287-30.001 4.585-35.47 9.893-5.469 5.309-8.204 16.81-8.204 34.505v96.274h149.841V474.46c0-17.695-2.654-29.196-7.962-34.505-5.309-5.308-17.132-8.606-35.47-9.893v-9.169h137.294v9.169c-18.177 1.287-29.96 4.585-35.349 9.893-5.389 5.309-8.083 16.81-8.083 34.505v219.815c0 18.016 2.694 29.558 8.083 34.625s17.172 8.405 35.349 10.014v8.927H543.191v-8.927c19.464-1.931 31.569-5.47 36.314-10.617 4.745-5.148 7.118-18.419 7.118-39.813v-96.033H436.782v101.824c0 18.016 2.735 29.598 8.204 34.746 5.469 5.147 17.292 8.445 35.47 9.893v8.927H343.162v-8.927z" fill-rule="nonzero"/></svg>