<svg viewBox="0 0 1000 1200" xmlns="http://www.w3.org/2000/svg" fill-rule="evenodd" clip-rule="evenodd" stroke-linecap="round" stroke-linejoin="round" stroke-miterlimit="1.414"><path d="M910.013 89.362L297.708 87.92 90.948 280.251l-.961 830.387h820.026V89.358z" fill="#fff" stroke="#000" stroke-width="14"/><path d="M537.279 448.4c-13.995-6.112-31.689-9.169-53.083-9.169-10.135 0-16.368 1.006-18.7 3.017-2.333 2.01-3.499 6.474-3.499 13.391v128.849c8.847.804 14.638 1.287 17.373 1.448 2.734.161 5.389.241 7.962.241 22.682 0 40.537-3.217 53.567-9.652 23.646-11.742 35.469-33.7 35.469-65.872 0-30.241-13.029-50.992-39.089-62.253zM370.548 738.914c18.821-1.77 30.563-5.51 35.228-11.22 4.665-5.711 6.998-18.781 6.998-39.21V474.46c0-17.212-2.614-28.553-7.842-34.022-5.228-5.469-16.689-8.928-34.384-10.376v-9.169h130.297c41.823 0 73.834 8.124 96.033 24.371 22.199 16.247 33.298 37.641 33.298 64.183 0 33.62-12.306 57.99-36.917 73.111-24.612 15.121-55.417 22.681-92.414 22.681-5.309 0-12.105-.121-20.389-.362-8.285-.241-14.438-.362-18.459-.362v89.76c0 18.66 2.855 30.402 8.566 35.228 5.71 4.826 18.458 7.963 38.244 9.411v8.927H370.548v-8.927z" fill-rule="nonzero"/><path d="M300.806 239.637h531.109M168.085 328.313h663.83M168.085 834.445h663.83M168.085 925h663.83M168.085 1017.67h663.83M302.547 154.218h529.368" fill="none" stroke="#000" stroke-width="11"/><path d="M299.835 87.92v191.357H97.642" fill="none" stroke="#000" stroke-width="14" stroke-linecap="butt"/></svg>