<svg viewBox="0 0 1000 1200" xmlns="http://www.w3.org/2000/svg" fill-rule="evenodd" clip-rule="evenodd" stroke-linecap="round" stroke-linejoin="round" stroke-miterlimit="1.414"><path d="M910.013 89.362L90 89.4l-.013 1021.24h820.026V89.36z" fill="#fff" stroke="#000" stroke-width="14"/><path d="M440.009 535.384c26.221-10.778 39.331-31.046 39.331-60.805 0-28.633-11.743-48.178-35.229-58.633-12.547-5.631-29.196-8.446-49.947-8.446-13.994 0-22.56 1.006-25.697 3.017-3.137 2.01-4.705 6.715-4.705 14.115v121.851c35.55-1.287 60.966-4.986 76.247-11.099zM271.107 706.7c18.981-1.77 30.804-5.469 35.469-11.099 4.665-5.631 6.998-18.741 6.998-39.331V442.246c0-17.373-2.614-28.754-7.842-34.142-5.228-5.389-16.77-8.807-34.625-10.255v-9.169h136.811c28.472 0 52.199 3.619 71.18 10.858 36.033 13.673 54.049 38.847 54.049 75.524 0 24.611-8.002 43.512-24.008 56.703-16.006 13.19-37.762 21.877-65.269 26.059l101.824 125.229c6.274 7.722 12.548 13.352 18.821 16.891 6.274 3.539 14.317 5.791 24.129 6.756v8.928h-79.626L391.269 563.615l-27.507 1.206v97.24c0 18.338 2.775 29.96 8.324 34.867 5.55 4.906 17.655 8.163 36.315 9.772v8.928H271.107V706.7zM687.086 701.921c-11.275 3.725-20.59 7.843-27.944 12.354-14.118 8.726-21.178 18.629-21.178 29.708 0 8.922 2.942 15.492 8.824 19.708 3.824 2.745 8.089 4.118 12.796 4.118 6.471 0 12.672-1.814 18.604-5.442 5.932-3.628 8.898-8.236 8.898-13.825v-46.621zm-53.975 16.619c9.02-5.883 27.012-13.874 53.975-23.973v-12.501c0-10.001-.98-16.962-2.941-20.884-3.334-6.569-10.246-9.854-20.737-9.854-5.001 0-9.756 1.275-14.266 3.824-4.511 2.647-6.766 6.275-6.766 10.883 0 1.177.245 3.162.736 5.956.49 2.795.735 4.584.735 5.369 0 5.49-1.814 9.314-5.442 11.471-2.059 1.275-4.51 1.912-7.353 1.912-4.412 0-7.795-1.446-10.148-4.339-2.353-2.892-3.53-6.103-3.53-9.633 0-6.863 4.241-14.045 12.722-21.546 8.481-7.5 20.909-11.251 37.282-11.251 19.022 0 31.915 6.177 38.68 18.531 3.628 6.766 5.442 16.619 5.442 29.562v58.975c0 5.687.392 9.609 1.177 11.766 1.274 3.824 3.921 5.736 7.941 5.736 2.255 0 4.118-.343 5.589-1.03 1.471-.686 4.02-2.353 7.648-5v7.648c-3.138 3.824-6.52 6.961-10.148 9.412-5.491 3.726-11.08 5.589-16.766 5.589-6.668 0-11.496-2.157-14.487-6.471-2.99-4.314-4.633-9.462-4.927-15.443-7.451 6.471-13.824 11.276-19.119 14.413-8.922 5.295-17.403 7.942-25.443 7.942-8.432 0-15.737-2.966-21.914-8.898-6.177-5.931-9.266-13.457-9.266-22.575 0-14.217 7.109-26.081 21.326-35.591z" fill-rule="nonzero"/><path d="M168.085 239.637h663.83M168.085 328.313h663.83M168.085 834.445h663.83M168.085 925h663.83M168.085 1017.67h663.83M168.085 154.218h663.83" fill="none" stroke="#000" stroke-width="11"/></svg>