<svg viewBox="0 0 600 300" xmlns="http://www.w3.org/2000/svg" fill-rule="evenodd" clip-rule="evenodd" stroke-linejoin="round" stroke-miterlimit="1.414"><path d="M11.555 107.725l-.361 87.468 401.291-16.085.104 88.887L588.806 148.94 411.773 32.005l.18 92.233-400.398-16.513z" fill="url(#a)"/><path d="M413.33 25.181l2.301.983 177.033 116.935 1.673 1.55 1.085 2.006.384 2.248-.36 2.252-1.065 2.017-1.656 1.568-176.218 119.055-2.298 1.01-2.508.133-2.393-.759-1.971-1.556-1.295-2.15-.453-2.47-.096-81.61-394.018 15.794-2.235-.272-2.033-.968-1.62-1.563-1.04-1.997-.353-2.223.361-87.468.368-2.211 1.048-1.981 1.621-1.548 2.026-.957 2.226-.268 393.095 16.211-.166-84.923.443-2.463 1.28-2.15 1.955-1.562 2.38-.775 2.499.112zm-1.377 99.057L11.555 107.725l-.361 87.468 401.291-16.085.104 88.887L588.806 148.94 411.773 32.005l.18 92.233z"/><defs><radialGradient id="a" cx="0" cy="0" r="1" gradientUnits="userSpaceOnUse" gradientTransform="matrix(798.713 -.29644 .29248 117.995 9.425 151.549)"><stop offset="0%" stop-color="#c9c9c9"/><stop offset="100%" stop-color="#707070"/></radialGradient></defs></svg>